# PHANTOM Module: CAP GLASS
# Units: meters
o CAP_GLASS

v 1.300000 0.150002 2.260690
v 1.300000 0.150002 0.236364
v 1.300000 0.000000 2.260690
v 1.300000 0.000000 0.236364
v 1.299123 0.150002 2.281929
v 1.299123 0.150002 0.215125
v 1.299123 0.000000 2.281929
v 1.299123 0.000000 0.215125
v 1.296383 0.150002 2.303699
v 1.296383 0.150002 0.193354
v 1.296383 0.000000 2.303699
v 1.296383 0.000000 0.193354
v 1.291636 0.150002 2.325727
v 1.291636 0.150002 0.171326
v 1.291636 0.000000 2.325727
v 1.291636 0.000000 0.171326
v 1.284787 0.150002 2.347694
v 1.284787 0.150002 0.149359
v 1.284787 0.000000 2.347694
v 1.284787 0.000000 0.149359
v 1.275795 0.150002 2.369251
v 1.275795 0.150002 0.127803
v 1.275795 0.000000 2.369251
v 1.275795 0.000000 0.127803
v 1.264682 0.150002 2.390031
v 1.264682 0.150002 0.107023
v 1.264682 0.000000 2.390031
v 1.264682 0.000000 0.107023
v 1.251543 0.150002 2.409670
v 1.251543 0.150002 0.087384
v 1.251543 0.000000 2.409670
v 1.251543 0.000000 0.087384
v 1.236540 0.150002 2.427824
v 1.236540 0.150002 0.069229
v 1.236540 0.000000 2.427824
v 1.236540 0.000000 0.069229
v 1.219898 0.150002 2.444192
v 1.219898 0.150002 0.052862
v 1.219898 0.000000 2.444192
v 1.219898 0.000000 0.052862
v 1.201895 0.150002 2.458525
v 1.201895 0.150002 0.038528
v 1.201895 0.000000 2.458525
v 1.201895 0.000000 0.038528
v 1.191667 0.150002 2.194844
v 1.191667 0.150002 0.302210
v 1.191667 0.147501 2.194844
v 1.191667 0.147501 0.302210
v 1.191667 0.145000 2.197039
v 1.191667 0.145000 2.194844
v 1.191667 0.145000 0.302210
v 1.191667 0.145000 0.300015
v 1.191667 0.075001 0.269287
v 1.191667 0.000000 2.260690
v 1.191667 0.000000 0.236364
v 1.191656 0.147501 0.301113
v 1.191645 0.145000 2.197038
v 1.191645 0.145000 0.300016
v 1.191228 0.150002 2.204772
v 1.191228 0.150002 0.292282
v 1.189858 0.150002 2.214950
v 1.189858 0.150002 0.282104
v 1.189858 0.147501 2.214950
v 1.189858 0.147501 0.282104
v 1.189858 0.145000 2.214950
v 1.189858 0.075001 2.248572
v 1.189858 0.075001 0.248482
v 1.189858 0.000000 2.282195
v 1.189858 0.000000 0.214859
v 1.187485 0.150002 2.225247
v 1.187485 0.150002 0.271807
v 1.184060 0.150002 2.235516
v 1.184060 0.150002 0.261538
v 1.184060 0.147501 2.235516
v 1.184060 0.147501 0.261538
v 1.184060 0.145000 2.235516
v 1.184060 0.145000 0.261538
v 1.184060 0.075001 0.227200
v 1.184060 0.000000 2.304192
v 1.184060 0.000000 0.192862
v 1.182847 0.150002 2.470648
v 1.182847 0.150002 0.026406
v 1.182847 0.000000 2.470648
v 1.182847 0.000000 0.026406
v 1.179564 0.150002 2.245593
v 1.179564 0.150002 0.251461
v 1.174008 0.150002 2.255307
v 1.174008 0.150002 0.241747
v 1.174008 0.147501 2.255307
v 1.174008 0.147501 0.241747
v 1.174008 0.145000 2.255307
v 1.174008 0.145000 0.241747
v 1.174008 0.075001 2.290334
v 1.174008 0.075001 0.206720
v 1.174008 0.000000 2.325360
v 1.174008 0.000000 0.171693
v 1.167438 0.150002 2.264488
v 1.167438 0.150002 0.232566
v 1.163087 0.150002 2.480458
v 1.163087 0.150002 0.016595
v 1.163087 0.000000 2.480458
v 1.163087 0.000000 0.016595
v 1.159936 0.150002 2.272974
v 1.159936 0.150002 0.224079
v 1.159936 0.147501 2.272974
v 1.159936 0.147501 0.224079
v 1.159936 0.145000 2.272974
v 1.159936 0.145000 0.224079
v 1.159936 0.075001 2.308616
v 1.159936 0.075001 0.188438
v 1.159936 0.000000 2.344257
v 1.159936 0.000000 0.152796
v 1.151616 0.150002 2.280626
v 1.151616 0.150002 0.216428
v 1.142951 0.150002 2.487930
v 1.142951 0.150002 0.009124
v 1.142951 0.000000 2.487930
v 1.142951 0.000000 0.009124
v 1.142614 0.150002 2.287326
v 1.142614 0.150002 0.209727
v 1.142614 0.147501 2.287326
v 1.142614 0.147501 0.209727
v 1.142614 0.145000 2.287326
v 1.142614 0.145000 0.209727
v 1.142614 0.075001 2.323467
v 1.142614 0.075001 0.173587
v 1.142614 0.000000 2.359608
v 1.142614 0.000000 0.137446
v 1.133090 0.150002 2.292993
v 1.133090 0.150002 0.204060
v 1.123210 0.150002 2.297579
v 1.123210 0.150002 0.199474
v 1.123210 0.147501 2.297579
v 1.123210 0.147501 0.199474
v 1.123210 0.145000 2.297579
v 1.123210 0.145000 0.199474
v 1.123210 0.075001 2.334077
v 1.123210 0.075001 0.162977
v 1.123210 0.000000 2.370574
v 1.123210 0.000000 0.126480
v 1.122759 0.150002 2.493108
v 1.122759 0.150002 0.003946
v 1.122759 0.000000 2.493108
v 1.122759 0.000000 0.003946
v 1.113142 0.150002 2.301072
v 1.113142 0.150002 0.195982
v 1.103046 0.150002 2.303493
v 1.103046 0.150002 0.193561
v 1.103046 0.147501 0.193561
v 1.103046 0.145000 2.303493
v 1.103046 0.145000 0.193561
v 1.103046 0.075001 2.340196
v 1.103046 0.075001 0.156858
v 1.103046 0.000000 2.376899
v 1.103046 0.000000 0.120155
v 1.102802 0.150002 2.496098
v 1.102802 0.150002 0.000956
v 1.102802 0.000000 2.496098
v 1.102802 0.000000 0.000956
v 1.093067 0.150002 2.304890
v 1.093067 0.150002 0.192163
v 1.083333 0.150002 2.497054
v 1.083333 0.150002 2.305337
v 1.083333 0.150002 0.191716
v 1.083333 0.150002 0.000000
v 1.083333 0.147501 2.305337
v 1.083333 0.147501 0.191716
v 1.083333 0.145000 2.305337
v 1.083333 0.145000 0.191716
v 1.083333 0.075001 2.342105
v 1.083333 0.075001 0.154949
v 1.083333 0.000000 2.497054
v 1.083333 0.000000 2.378872
v 1.083333 0.000000 0.118182
v 1.083333 0.000000 0.000000
v 0.216666 0.150002 2.497054
v 0.216666 0.150002 2.305337
v 0.216666 0.150002 0.191716
v 0.216666 0.150002 0.000000
v 0.216666 0.147501 2.305337
v 0.216666 0.147501 0.191716
v 0.216666 0.145000 2.305337
v 0.216666 0.145000 0.191716
v 0.216666 0.075001 2.342105
v 0.216666 0.075001 0.154949
v 0.216666 0.000000 2.497054
v 0.216666 0.000000 2.378872
v 0.216666 0.000000 0.118182
v 0.216666 0.000000 0.000000
v 0.206932 0.150002 2.304890
v 0.206932 0.150002 0.192163
v 0.197198 0.150002 2.496098
v 0.197198 0.150002 0.000956
v 0.197198 0.000000 2.496098
v 0.197198 0.000000 0.000956
v 0.196954 0.150002 2.303493
v 0.196954 0.150002 0.193561
v 0.196954 0.147501 2.303493
v 0.196954 0.145000 2.303493
v 0.196954 0.145000 0.193561
v 0.196954 0.075001 0.156858
v 0.196954 0.000000 2.376899
v 0.196954 0.000000 0.120155
v 0.186858 0.150002 2.301072
v 0.186858 0.150002 0.195982
v 0.177241 0.150002 2.493108
v 0.177241 0.150002 0.003946
v 0.177241 0.000000 2.493108
v 0.177241 0.000000 0.003946
v 0.176790 0.150002 2.297579
v 0.176790 0.150002 0.199474
v 0.176790 0.147501 2.297579
v 0.176790 0.147501 0.199474
v 0.176790 0.145000 2.297579
v 0.176790 0.145000 0.199474
v 0.176790 0.075001 2.334077
v 0.176790 0.075001 0.162977
v 0.176790 0.000000 2.370574
v 0.176790 0.000000 0.126480
v 0.166910 0.150002 2.292993
v 0.166910 0.150002 0.204060
v 0.157386 0.150002 2.287326
v 0.157386 0.150002 0.209727
v 0.157386 0.147501 2.287326
v 0.157386 0.147501 0.209727
v 0.157386 0.145000 2.287326
v 0.157386 0.145000 0.209727
v 0.157386 0.075001 2.323467
v 0.157386 0.075001 0.173587
v 0.157386 0.000000 2.359608
v 0.157386 0.000000 0.137446
v 0.157049 0.150002 2.487930
v 0.157049 0.150002 0.009124
v 0.157049 0.000000 2.487930
v 0.157049 0.000000 0.009124
v 0.148384 0.150002 2.280626
v 0.148384 0.150002 0.216428
v 0.140063 0.150002 2.272974
v 0.140063 0.150002 0.224079
v 0.140063 0.147501 2.272974
v 0.140063 0.147501 0.224079
v 0.140063 0.145000 2.272974
v 0.140063 0.145000 0.224079
v 0.140063 0.075001 2.308616
v 0.140063 0.075001 0.188438
v 0.140063 0.000000 2.344257
v 0.140063 0.000000 0.152796
v 0.136913 0.150002 2.480458
v 0.136913 0.150002 0.016595
v 0.136913 0.000000 2.480458
v 0.136913 0.000000 0.016595
v 0.132562 0.150002 2.264488
v 0.132562 0.150002 0.232566
v 0.125992 0.150002 2.255307
v 0.125992 0.150002 0.241747
v 0.125992 0.147501 2.255307
v 0.125992 0.147501 0.241747
v 0.125992 0.145000 2.255307
v 0.125992 0.145000 0.241747
v 0.125992 0.075001 2.290334
v 0.125992 0.075001 0.206720
v 0.125992 0.000000 2.325360
v 0.125992 0.000000 0.171693
v 0.120436 0.150002 2.245593
v 0.120436 0.150002 0.251461
v 0.117153 0.150002 2.470648
v 0.117153 0.150002 0.026406
v 0.117153 0.000000 2.470648
v 0.117153 0.000000 0.026406
v 0.115939 0.150002 2.235516
v 0.115939 0.150002 0.261538
v 0.115939 0.147501 2.235516
v 0.115939 0.147501 0.261538
v 0.115939 0.145000 2.235516
v 0.115939 0.145000 0.261538
v 0.115939 0.075001 2.269854
v 0.115939 0.000000 2.304192
v 0.115939 0.000000 0.192862
v 0.112515 0.150002 2.225247
v 0.112515 0.150002 0.271807
v 0.110142 0.150002 2.214950
v 0.110142 0.150002 0.282104
v 0.110142 0.147501 2.214950
v 0.110142 0.147501 0.282104
v 0.110142 0.145000 0.282104
v 0.110142 0.075001 2.248572
v 0.110142 0.075001 0.248482
v 0.110142 0.000000 2.282195
v 0.110142 0.000000 0.214859
v 0.108771 0.150002 2.204772
v 0.108771 0.150002 0.292282
v 0.108355 0.145000 2.197038
v 0.108355 0.145000 0.300016
v 0.108344 0.147501 2.195941
v 0.108339 0.145000 0.301115
v 0.108333 0.150002 2.194844
v 0.108333 0.150002 0.302210
v 0.108333 0.147501 2.194844
v 0.108333 0.147501 0.302210
v 0.108333 0.145000 2.197039
v 0.108333 0.145000 2.194844
v 0.108333 0.145000 0.302210
v 0.108333 0.145000 0.300015
v 0.108333 0.075001 2.227767
v 0.108333 0.000000 2.260690
v 0.108333 0.000000 0.236364
v 0.098104 0.150002 2.458525
v 0.098104 0.150002 0.038528
v 0.098104 0.000000 2.458525
v 0.098104 0.000000 0.038528
v 0.080102 0.150002 2.444192
v 0.080102 0.150002 0.052862
v 0.080102 0.000000 2.444192
v 0.080102 0.000000 0.052862
v 0.063460 0.150002 2.427824
v 0.063460 0.150002 0.069229
v 0.063460 0.000000 2.427824
v 0.063460 0.000000 0.069229
v 0.048457 0.150002 2.409670
v 0.048457 0.150002 0.087384
v 0.048457 0.000000 2.409670
v 0.048457 0.000000 0.087384
v 0.035317 0.150002 2.390031
v 0.035317 0.150002 0.107023
v 0.035317 0.000000 2.390031
v 0.035317 0.000000 0.107023
v 0.024205 0.150002 2.369251
v 0.024205 0.150002 0.127803
v 0.024205 0.000000 2.369251
v 0.024205 0.000000 0.127803
v 0.015213 0.150002 2.347694
v 0.015213 0.150002 0.149359
v 0.015213 0.000000 2.347694
v 0.015213 0.000000 0.149359
v 0.008363 0.150002 2.325727
v 0.008363 0.150002 0.171326
v 0.008363 0.000000 2.325727
v 0.008363 0.000000 0.171326
v 0.003617 0.150002 2.303699
v 0.003617 0.150002 0.193354
v 0.003617 0.000000 2.303699
v 0.003617 0.000000 0.193354
v 0.000876 0.150002 2.281929
v 0.000876 0.150002 0.215125
v 0.000876 0.000000 2.281929
v 0.000876 0.000000 0.215125
v 0.000000 0.150002 2.260690
v 0.000000 0.150002 0.236364
v 0.000000 0.000000 2.260690
v 0.000000 0.000000 0.236364

vn 0.173737 0.984789 0.002388
vn 0.184185 0.982879 -0.005066
vn 0.706773 -0.707174 0.019438
vn 0.831923 -0.554773 -0.011437
vn 0.946336 0.316451 0.065621
vn 0.944127 0.316451 -0.092099
vn 0.827920 -0.555001 0.080764
vn 0.829857 -0.555001 -0.057544
vn 0.821962 0.555023 0.127778
vn 0.817910 0.555023 -0.151569
vn 0.817910 -0.555023 0.151569
vn 0.821962 -0.555023 -0.127777
vn 0.807537 0.555046 0.199518
vn 0.801184 0.555046 -0.223670
vn 0.801184 -0.555046 0.223669
vn 0.807537 -0.555046 -0.199519
vn 0.786050 0.555069 0.272073
vn 0.777235 0.555069 -0.296316
vn 0.660401 -0.707446 0.251773
vn 0.667890 -0.707446 -0.231176
vn 0.757050 0.555092 0.344598
vn 0.745647 0.555092 -0.368624
vn 0.745646 -0.555092 0.368625
vn 0.757050 -0.555092 -0.344598
vn 0.720204 0.555115 0.416118
vn 0.706136 0.555115 -0.439567
vn 0.706135 -0.555115 0.439568
vn 0.720204 -0.555115 -0.416117
vn 0.675355 0.555136 0.485509
vn 0.658618 0.555136 -0.507983
vn 0.559596 -0.707507 0.431608
vn 0.573817 -0.707507 -0.412514
vn 0.622571 0.555154 0.551552
vn 0.603242 0.555154 -0.572629
vn 0.603241 -0.555154 0.572630
vn 0.622571 -0.555154 -0.551552
vn 0.562186 0.555168 0.612973
vn 0.540446 0.555168 -0.632224
vn 0.459184 -0.707537 0.537161
vn 0.477655 -0.707537 -0.520804
vn 0.494850 0.555177 0.668508
vn 0.470984 0.555177 -0.685531
vn 0.400163 -0.707545 0.582451
vn 0.420441 -0.707545 -0.567987
vn -0.999813 -0.019349 0.000008
vn -0.999839 -0.015060 0.009773
vn 0.991713 -0.054491 0.116342
vn 0.973320 -0.108452 -0.202205
vn -0.999256 -0.013625 -0.036078
vn -0.287230 -0.957862 0.000000
vn -0.242536 -0.970142 0.000000
vn -1.000000 0.000000 0.000000
vn -0.998892 -0.017785 0.043581
vn -0.634344 -0.772712 -0.022885
vn -0.389302 -0.920843 0.022163
vn -0.999609 -0.007531 0.026939
vn 0.901726 -0.423759 0.085548
vn -0.613867 -0.785465 -0.078811
vn -0.061653 -0.987827 0.142819
vn -0.965615 -0.259966 -0.002323
vn 0.041680 -0.999094 0.008547
vn -0.979350 -0.183716 0.084390
vn 0.984664 -0.044358 0.168730
vn 0.975204 -0.127902 -0.180603
vn 0.811788 -0.556013 0.178463
vn -0.974239 -0.090459 -0.206581
vn -0.978459 -0.083057 0.188995
vn -0.354414 -0.933094 -0.061039
vn -0.481551 -0.870832 0.098794
vn 0.884084 -0.395242 0.249359
vn 0.884080 -0.395252 -0.249356
vn -0.853610 -0.408325 -0.323451
vn -0.882425 -0.406159 0.237405
vn 0.934984 -0.059955 0.349587
vn 0.924784 -0.059959 -0.375738
vn 0.763741 -0.556328 0.327413
vn 0.700659 -0.674564 -0.232466
vn -0.917252 -0.164277 0.362852
vn -0.514151 -0.836362 -0.190125
vn -0.506272 -0.837571 0.205339
vn 0.421518 0.555179 0.717006
vn 0.395917 0.555179 -0.731454
vn 0.336385 -0.707548 0.621467
vn 0.358137 -0.707548 -0.609192
vn 0.762680 -0.517555 0.387886
vn 0.764795 -0.513821 -0.388685
vn 0.103475 -0.992339 0.067495
vn -0.728555 -0.588424 0.350664
vn 0.847450 -0.063826 0.527024
vn 0.831693 -0.063824 -0.551555
vn 0.683331 -0.556454 0.472670
vn 0.713758 -0.556454 -0.425334
vn -0.854885 -0.216804 -0.471347
vn -0.815420 -0.243296 0.525259
vn -0.511555 -0.791492 -0.334442
vn -0.511555 -0.791492 0.334442
vn 0.058172 -0.996106 0.066251
vn 0.630442 -0.591733 -0.502389
vn 0.343443 0.555175 0.757514
vn 0.316570 0.555175 -0.769132
vn 0.316570 -0.555175 0.769132
vn 0.343441 -0.555175 -0.757515
vn 0.113563 -0.987143 0.112484
vn -0.558082 -0.717382 0.417022
vn 0.722730 -0.065372 0.688031
vn 0.701934 -0.065367 -0.709236
vn 0.572718 -0.556519 0.601898
vn 0.612850 -0.556519 -0.560982
vn -0.683240 -0.310888 -0.660706
vn -0.696759 -0.306546 0.648504
vn -0.413133 -0.813134 -0.410042
vn -0.413134 -0.813134 0.410041
vn 0.491785 -0.636769 0.593862
vn 0.068261 -0.992352 -0.102848
vn 0.262078 0.555164 0.789372
vn 0.234462 0.555164 -0.798010
vn 0.199210 -0.707534 0.678020
vn 0.222672 -0.707534 -0.670681
vn -0.400680 -0.799448 -0.447592
vn 0.104474 -0.981948 -0.157684
vn 0.566449 -0.064305 0.821584
vn 0.541820 -0.064304 -0.838031
vn 0.437518 -0.556510 0.706311
vn 0.485048 -0.556510 -0.674556
vn -0.536640 -0.364978 -0.760795
vn -0.539883 -0.363138 0.759379
vn -0.261005 -0.879645 -0.397619
vn -0.261004 -0.879646 0.397619
vn 0.062461 -0.988313 0.139056
vn 0.062464 -0.988313 -0.139050
vn 0.078332 -0.977726 0.194723
vn 0.078331 -0.977726 -0.194723
vn 0.369996 -0.076856 0.925849
vn 0.361642 -0.060787 -0.930333
vn 0.265333 -0.708890 0.653508
vn 0.338243 -0.556424 -0.758936
vn -0.346457 -0.408132 -0.844628
vn -0.346455 -0.408132 0.844628
vn -0.196194 -0.841488 -0.503394
vn -0.196193 -0.841488 0.503394
vn 0.179021 0.555147 0.812258
vn 0.151200 0.555147 -0.817894
vn 0.128465 -0.707518 0.694921
vn 0.152104 -0.707518 -0.690132
vn 0.026967 -0.996349 0.081000
vn 0.209765 -0.666328 -0.715546
vn 0.052043 -0.867974 0.493874
vn -0.155563 -0.872355 0.463462
vn 0.173666 -0.055355 -0.983248
vn 0.168133 -0.448865 0.877640
vn 0.182452 -0.556274 -0.810722
vn -0.183294 -0.431095 -0.883493
vn -0.183293 -0.431095 0.883494
vn -0.088193 -0.847643 -0.523186
vn -0.088194 -0.847643 0.523186
vn 0.095864 0.555124 0.826225
vn 0.068355 0.555124 -0.828954
vn 0.058081 -0.707497 0.704326
vn 0.081452 -0.707497 -0.702007
vn -0.042159 -0.908532 -0.415682
vn 0.015372 -0.982329 -0.186532
vn 0.023131 0.707201 0.706634
vn 0.003133 -0.885137 -0.465320
vn 0.003134 -0.590109 -0.807317
vn 0.008413 0.857554 -0.514326
vn 0.052254 -0.049186 0.997422
vn 0.038566 -0.030372 -0.998794
vn 0.021971 -0.707449 0.706423
vn 0.031965 -0.857712 -0.513135
vn -0.043489 -0.438991 -0.897438
vn -0.043493 -0.438991 0.897438
vn 0.013610 -0.554803 0.831870
vn -0.017219 -0.938525 -0.344780
vn -0.017589 -0.848670 0.528630
vn 0.023126 -0.707201 -0.706634
vn -0.008415 0.857554 0.514326
vn -0.003133 -0.590110 0.807317
vn -0.003134 -0.885135 0.465323
vn -0.023126 0.707201 -0.706634
vn -0.038563 -0.030382 0.998794
vn -0.076032 -0.045481 -0.996068
vn -0.031965 -0.857712 0.513135
vn -0.021971 -0.707449 -0.706423
vn 0.076696 -0.437573 -0.895906
vn 0.043493 -0.438991 0.897438
vn -0.023131 -0.707201 0.706634
vn 0.017588 -0.848670 -0.528630
vn 0.017219 -0.938526 0.344780
vn -0.013607 -0.554803 -0.831870
vn -0.069386 -0.664162 0.744362
vn 0.042160 -0.908529 0.415688
vn -0.068358 0.555124 0.828954
vn -0.095864 0.555124 -0.826225
vn -0.081451 -0.707497 0.702007
vn -0.058078 -0.707497 -0.704326
vn 0.100042 -0.866723 -0.488655
vn -0.067825 -0.933726 -0.351504
vn -0.173667 -0.055367 0.983247
vn -0.182452 -0.556274 0.810722
vn -0.169127 -0.445904 -0.878957
vn 0.187324 -0.430044 0.883160
vn 0.105688 -0.848555 -0.518445
vn 0.088194 -0.847643 0.523186
vn -0.209761 -0.666340 0.715536
vn 0.125005 -0.900480 0.416546
vn -0.151198 0.555147 0.817894
vn -0.179020 0.555147 -0.812258
vn -0.152104 -0.707518 0.690132
vn -0.128466 -0.707518 -0.694921
vn 0.267210 -0.847431 -0.458758
vn -0.078331 -0.977726 -0.194722
vn -0.361643 -0.060787 0.930333
vn -0.348041 -0.071808 -0.934725
vn -0.338243 -0.556424 0.758936
vn -0.265335 -0.708890 -0.653507
vn 0.311365 -0.414573 -0.855091
vn 0.365309 -0.405270 0.838037
vn 0.171581 -0.902603 -0.394800
vn 0.196193 -0.841488 0.503394
vn -0.351277 -0.658989 0.665085
vn -0.062466 -0.988313 -0.139052
vn 0.400678 -0.799448 -0.447593
vn -0.104474 -0.981948 -0.157684
vn -0.541818 -0.064301 0.838033
vn -0.566450 -0.064301 -0.821584
vn -0.485046 -0.556510 0.674557
vn -0.437519 -0.556510 -0.706310
vn 0.515996 -0.370120 -0.772502
vn 0.539882 -0.363139 0.759380
vn 0.261005 -0.879645 -0.397619
vn 0.261004 -0.879645 0.397619
vn -0.234464 0.555164 0.798010
vn -0.262077 0.555164 -0.789372
vn -0.222671 -0.707534 0.670681
vn -0.199208 -0.707534 -0.678021
vn -0.491786 -0.636763 0.593868
vn -0.068263 -0.992352 -0.102851
vn -0.113564 -0.987143 0.112485
vn -0.113563 -0.987143 -0.112484
vn -0.701934 -0.065368 0.709237
vn -0.722732 -0.065362 -0.688030
vn -0.612850 -0.556519 0.560982
vn -0.572717 -0.556519 -0.601898
vn 0.683240 -0.310888 -0.660705
vn 0.699687 -0.304355 0.646379
vn 0.413132 -0.813134 -0.410042
vn 0.413133 -0.813134 0.410041
vn -0.316569 0.555175 0.769132
vn -0.343441 0.555175 -0.757515
vn -0.343442 -0.555175 0.757514
vn -0.316569 -0.555175 -0.769132
vn -0.058175 -0.996105 0.066253
vn -0.058179 -0.996105 -0.066257
vn 0.728552 -0.588426 -0.350666
vn -0.103475 -0.992339 -0.067497
vn -0.831693 -0.063827 0.551555
vn -0.847448 -0.063824 -0.527027
vn -0.713758 -0.556454 0.425334
vn -0.683332 -0.556454 -0.472669
vn 0.830062 -0.234736 -0.505862
vn 0.854884 -0.216804 0.471349
vn 0.511556 -0.791492 -0.334441
vn 0.511556 -0.791492 0.334441
vn -0.764788 -0.513832 0.388685
vn -0.762668 -0.517574 -0.387885
vn -0.395919 0.555179 0.731453
vn -0.421521 0.555179 -0.717005
vn -0.358137 -0.707548 0.609191
vn -0.336385 -0.707548 -0.621467
vn -0.077118 -0.996539 0.031042
vn 0.853609 -0.408324 0.323455
vn -0.924784 -0.059959 0.375740
vn -0.934983 -0.059961 -0.349588
vn -0.700658 -0.674565 0.232467
vn -0.763739 -0.556328 -0.327416
vn 0.920291 -0.160691 -0.356712
vn 0.506271 -0.837571 -0.205340
vn 0.514150 -0.836362 0.190126
vn 0.001846 -0.999865 0.016317
vn -0.884080 -0.395252 -0.249356
vn 0.979350 -0.183717 -0.084390
vn -0.041679 -0.999094 -0.008547
vn -0.975204 -0.127902 0.180604
vn -0.984664 -0.044360 -0.168729
vn -0.811789 -0.556013 -0.178462
vn 0.983029 -0.074162 -0.167793
vn 0.974239 -0.090459 0.206582
vn 0.481551 -0.870832 -0.098794
vn 0.354414 -0.933094 0.061039
vn 0.965614 -0.259969 0.002324
vn 0.061652 -0.987826 -0.142822
vn 0.613867 -0.785465 0.078811
vn -0.715507 -0.695300 -0.067881
vn 0.999609 -0.007531 -0.026938
vn 0.894377 -0.447313 0.000010
vn 0.999839 -0.015060 -0.009773
vn 0.999813 -0.019348 -0.000008
vn -0.973320 -0.108455 0.202204
vn -0.991359 -0.050177 -0.121197
vn 1.000000 0.000000 0.000000
vn 0.242536 -0.970142 0.000000
vn 0.263066 -0.964778 0.000439
vn 0.999303 -0.012750 0.035082
vn 0.998892 -0.017785 -0.043581
vn 0.389302 -0.920843 -0.022163
vn 0.701457 -0.712366 0.022225
vn -0.470984 0.555177 0.685531
vn -0.494850 0.555177 -0.668508
vn -0.420441 -0.707545 0.567986
vn -0.400165 -0.707545 -0.582450
vn -0.540447 0.555168 0.632223
vn -0.562187 0.555168 -0.612972
vn -0.477654 -0.707537 0.520805
vn -0.459183 -0.707537 -0.537161
vn -0.603240 0.555154 0.572631
vn -0.622570 0.555154 -0.551553
vn -0.622570 -0.555154 0.551553
vn -0.603241 -0.555154 -0.572630
vn -0.658617 0.555136 0.507984
vn -0.675355 0.555136 -0.485510
vn -0.573816 -0.707507 0.412515
vn -0.559594 -0.707508 -0.431610
vn -0.706135 0.555115 0.439568
vn -0.720204 0.555115 -0.416117
vn -0.720204 -0.555115 0.416118
vn -0.706136 -0.555115 -0.439567
vn -0.745647 0.555092 0.368623
vn -0.757051 0.555092 -0.344596
vn -0.757051 -0.555092 0.344596
vn -0.745647 -0.555092 -0.368623
vn -0.777237 0.555069 0.296313
vn -0.786050 0.555069 -0.272073
vn -0.667891 -0.707446 0.231174
vn -0.660402 -0.707446 -0.251772
vn -0.801184 0.555046 0.223670
vn -0.807536 0.555046 -0.199521
vn -0.807537 -0.555046 0.199521
vn -0.801184 -0.555046 -0.223671
vn -0.817909 0.555023 0.151570
vn -0.821963 0.555023 -0.127776
vn -0.821963 -0.555023 0.127776
vn -0.817909 -0.555023 -0.151570
vn -0.944128 0.316451 0.092096
vn -0.946337 0.316451 -0.065619
vn -0.829857 -0.555001 0.057543
vn -0.827920 -0.555001 -0.080760
vn -0.184185 0.982879 0.005066
vn -0.173737 0.984789 -0.002388
vn -0.831923 -0.554773 0.011437
vn -0.706773 -0.707174 -0.019438

f 48//48 51//51 58//58
f 60//60 48//48 64//64
f 58//58 64//64 48//48
f 58//58 77//77 64//64
f 75//75 77//77 92//92
f 90//90 92//92 108//108
f 64//64 75//75 71//71
f 60//60 46//46 48//48
f 60//60 64//64 62//62
f 73//73 75//75 86//86
f 75//75 73//73 71//71
f 90//90 88//88 86//86
f 90//90 98//98 88//88
f 106//106 98//98 90//90
f 75//75 90//90 86//86
f 122//122 124//124 136//136
f 114//114 106//106 122//122
f 124//124 122//122 106//106
f 169//169 167//167 149//149
f 146//146 134//134 149//149
f 151//151 149//149 134//134
f 161//161 149//149 167//167
f 130//130 122//122 134//134
f 106//106 114//114 104//104
f 122//122 130//130 120//120
f 120//120 114//114 122//122
f 134//134 146//146 132//132
f 149//149 161//161 148//148
f 167//167 164//164 161//161
f 148//148 146//146 149//149
f 132//132 130//130 134//134
f 98//98 106//106 104//104
f 167//167 169//169 183//183
f 164//164 167//167 181//181
f 181//181 183//183 200//200
f 215//215 213//213 200//200
f 181//181 200//200 213//213
f 243//243 241//241 225//225
f 221//221 213//213 225//225
f 227//227 225//225 213//213
f 237//237 225//225 241//241
f 241//241 243//243 259//259
f 181//181 213//213 197//197
f 181//181 191//191 178//178
f 197//197 191//191 181//181
f 213//213 221//221 211//211
f 225//225 237//237 223//223
f 241//241 239//239 237//237
f 223//223 221//221 225//225
f 211//211 205//205 213//213
f 239//239 241//241 253//253
f 275//275 273//273 257//257
f 265//265 257//257 273//273
f 273//273 275//275 285//285
f 241//241 257//257 253//253
f 285//285 293//293 284//284
f 293//293 295//295 299//299
f 302//302 299//299 295//295
f 280//280 273//273 284//284
f 255//255 253//253 257//257
f 271//271 265//265 273//273
f 255//255 257//257 265//265
f 280//280 284//284 282//282
f 273//273 280//280 271//271
f 291//291 282//282 284//284
f 299//299 297//297 291//291
f 299//299 291//291 284//284
f 298//298 301//301 292//292
f 290//290 298//298 283//283
f 292//292 283//283 298//298
f 292//292 274//274 283//283
f 258//258 256//256 272//272
f 272//272 256//256 264//264
f 240//240 252//252 256//256
f 279//279 283//283 272//272
f 298//298 290//290 296//296
f 283//283 279//279 281//281
f 281//281 290//290 283//283
f 272//272 264//264 270//270
f 256//256 252//252 254//254
f 252//252 240//240 238//238
f 270//270 279//279 272//272
f 256//256 258//258 242//242
f 226//226 224//224 240//240
f 240//240 224//224 236//236
f 224//224 226//226 214//214
f 199//199 198//198 212//212
f 198//198 199//199 182//182
f 204//204 212//212 198//198
f 220//220 224//224 212//212
f 210//210 220//220 212//212
f 222//222 224//224 220//220
f 204//204 198//198 196//196
f 212//212 204//204 210//210
f 190//190 196//196 198//198
f 180//180 177//177 190//190
f 180//180 190//190 198//198
f 238//238 240//240 236//236
f 180//180 182//182 168//168
f 177//177 180//180 166//166
f 166//166 168//168 150//150
f 135//135 133//133 150//150
f 147//147 166//166 150//150
f 121//121 123//123 107//107
f 133//133 121//121 129//129
f 123//123 121//121 133//133
f 105//105 113//113 121//121
f 133//133 147//147 150//150
f 166//166 160//160 163//163
f 133//133 145//145 147//147
f 147//147 160//160 166//166
f 133//133 129//129 131//131
f 121//121 113//113 119//119
f 113//113 105//105 103//103
f 131//131 145//145 133//133
f 89//89 91//91 76//76
f 105//105 89//89 97//97
f 91//91 89//89 105//105
f 65//65 57//57 63//63
f 65//65 63//63 74//74
f 50//50 47//47 57//57
f 74//74 63//63 70//70
f 89//89 74//74 85//85
f 87//87 89//89 85//85
f 74//74 70//70 72//72
f 59//59 61//61 63//63
f 47//47 45//45 59//59
f 47//47 59//59 63//63
f 103//103 105//105 97//97
f 51//51 92//92 77//77
f 77//77 58//58 51//51
f 51//51 108//108 92//92
f 151//151 51//51 169//169
f 51//51 136//136 124//124
f 51//51 151//151 136//136
f 108//108 51//51 124//124
f 50//50 169//169 51//51
f 65//65 50//50 57//57
f 65//65 76//76 50//50
f 91//91 50//50 76//76
f 91//91 107//107 50//50
f 123//123 50//50 107//107
f 50//50 123//123 135//135
f 135//135 150//150 50//50
f 150//150 168//168 50//50
f 168//168 169//169 50//50
f 182//182 183//183 169//169
f 183//183 302//302 200//200
f 215//215 302//302 227//227
f 215//215 200//200 302//302
f 243//243 227//227 302//302
f 275//275 259//259 302//302
f 293//293 285//285 302//302
f 302//302 285//285 275//275
f 302//302 259//259 243//243
f 293//293 302//302 295//295
f 226//226 242//242 301//301
f 214//214 301//301 199//199
f 301//301 214//214 226//226
f 182//182 199//199 301//301
f 242//242 258//258 301//301
f 258//258 274//274 301//301
f 292//292 301//301 274//274
f 302//302 182//182 301//301
f 302//302 183//183 182//182
f 8//8 6//6 2//2
f 16//16 14//14 10//10
f 12//12 10//10 6//6
f 24//24 22//22 18//18
f 32//32 30//30 26//26
f 28//28 26//26 22//22
f 20//20 18//18 14//14
f 36//36 34//34 30//30
f 44//44 42//42 38//38
f 102//102 100//100 82//82
f 84//84 82//82 42//42
f 144//144 142//142 116//116
f 175//175 165//165 157//157
f 159//159 157//157 142//142
f 118//118 116//116 100//100
f 40//40 38//38 34//34
f 165//165 175//175 189//189
f 195//195 193//193 179//179
f 235//235 233//233 207//207
f 209//209 207//207 193//193
f 269//269 267//267 249//249
f 314//314 312//312 308//308
f 310//310 308//308 267//267
f 251//251 249//249 233//233
f 318//318 316//316 312//312
f 326//326 324//324 320//320
f 334//334 332//332 328//328
f 330//330 328//328 324//324
f 342//342 340//340 336//336
f 350//350 348//348 344//344
f 346//346 344//344 340//340
f 338//338 336//336 332//332
f 322//322 320//320 316//316
f 348//348 350//350 349//349
f 345//345 343//343 347//347
f 337//337 335//335 339//339
f 341//341 339//339 343//343
f 329//329 327//327 331//331
f 321//321 319//319 323//323
f 325//325 323//323 327//327
f 333//333 331//331 335//335
f 317//317 315//315 319//319
f 309//309 307//307 311//311
f 250//250 248//248 266//266
f 268//268 266//266 307//307
f 208//208 206//206 232//232
f 186//186 176//176 192//192
f 194//194 192//192 206//206
f 234//234 232//232 248//248
f 313//313 311//311 315//315
f 176//176 186//186 172//172
f 158//158 156//156 162//162
f 117//117 115//115 141//141
f 143//143 141//141 156//156
f 83//83 81//81 99//99
f 39//39 37//37 41//41
f 43//43 41//41 81//81
f 101//101 99//99 115//115
f 35//35 33//33 37//37
f 27//27 25//25 29//29
f 19//19 17//17 21//21
f 23//23 21//21 25//25
f 11//11 9//9 13//13
f 3//3 1//1 5//5
f 7//7 5//5 9//9
f 15//15 13//13 17//17
f 31//31 29//29 33//33
f 1//1 3//3 4//4
f 53//53 51//51 52//52
f 54//54 53//53 55//55
f 57//57 50//50 54//54
f 53//53 54//54 50//50
f 51//51 53//53 50//50
f 66//66 54//54 68//68
f 93//93 66//66 79//79
f 68//68 79//79 66//66
f 49//49 54//54 66//66
f 111//111 109//109 95//95
f 97//97 93//93 109//109
f 109//109 111//111 125//125
f 79//79 95//95 93//93
f 66//66 93//93 72//72
f 59//59 45//45 49//49
f 66//66 59//59 49//49
f 66//66 61//61 59//59
f 70//70 61//61 66//66
f 85//85 72//72 93//93
f 87//87 85//85 93//93
f 87//87 93//93 97//97
f 97//97 109//109 103//103
f 139//139 137//137 127//127
f 129//129 125//125 137//137
f 137//137 139//139 152//152
f 109//109 125//125 119//119
f 173//173 170//170 154//154
f 152//152 170//170 160//160
f 137//137 152//152 147//147
f 113//113 103//103 109//109
f 125//125 129//129 119//119
f 137//137 145//145 131//131
f 152//152 160//160 147//147
f 131//131 129//129 137//137
f 170//170 173//173 187//187
f 163//163 170//170 184//184
f 184//184 187//187 202//202
f 218//218 216//216 202//202
f 184//184 202//202 216//216
f 246//246 244//244 228//228
f 216//216 228//228 210//210
f 230//230 228//228 216//216
f 228//228 244//244 222//222
f 238//238 244//244 252//252
f 196//196 184//184 216//216
f 184//184 190//190 177//177
f 216//216 204//204 196//196
f 196//196 190//190 184//184
f 244//244 238//238 236//236
f 222//222 220//220 228//228
f 210//210 204//204 216//216
f 244//244 246//246 262//262
f 277//277 276//276 260//260
f 260//260 276//276 254//254
f 276//276 277//277 288//288
f 244//244 260//260 252//252
f 305//305 304//304 286//286
f 286//286 304//304 281//281
f 279//279 276//276 286//286
f 290//290 304//304 292//292
f 254//254 252//252 260//260
f 270//270 264//264 276//276
f 279//279 286//286 281//281
f 276//276 279//279 270//270
f 294//294 296//296 290//290
f 294//294 290//290 292//292
f 298//298 296//296 294//294
f 301//301 298//298 292//292
f 294//294 292//292 298//298
f 287//287 306//306 289//289
f 287//287 291//291 303//303
f 306//306 287//287 303//303
f 287//287 289//289 278//278
f 261//261 278//278 263//263
f 261//261 245//245 253//253
f 261//261 263//263 245//245
f 287//287 278//278 261//261
f 287//287 261//261 271//271
f 303//303 291//291 297//297
f 287//287 280//280 282//282
f 282//282 291//291 287//287
f 261//261 265//265 271//271
f 261//261 253//253 255//255
f 253//253 245//245 239//239
f 255//255 265//265 261//261
f 229//229 231//231 217//217
f 237//237 245//245 229//229
f 231//231 229//229 247//247
f 201//201 203//203 185//185
f 205//205 217//217 201//201
f 203//203 201//201 219//219
f 229//229 217//217 221//221
f 223//223 237//237 229//229
f 211//211 221//221 217//217
f 205//205 201//201 197//197
f 217//217 205//205 211//211
f 191//191 197//197 201//201
f 185//185 178//178 191//191
f 185//185 191//191 201//201
f 239//239 245//245 237//237
f 185//185 188//188 174//174
f 178//178 185//185 171//171
f 155//155 153//153 171//171
f 171//171 153//153 161//161
f 153//153 155//155 140//140
f 128//128 126//126 138//138
f 126//126 128//128 112//112
f 130//130 138//138 126//126
f 153//153 138//138 148//148
f 161//161 164//164 171//171
f 132//132 138//138 130//130
f 138//138 132//132 146//146
f 120//120 130//130 126//126
f 114//114 120//120 126//126
f 114//114 110//110 104//104
f 114//114 126//126 110//110
f 110//110 112//112 96//96
f 80//80 78//78 94//94
f 94//94 78//78 88//88
f 78//78 80//80 69//69
f 110//110 94//94 104//104
f 55//55 53//53 67//67
f 67//67 53//53 62//62
f 78//78 67//67 73//73
f 60//60 53//53 58//58
f 73//73 86//86 78//78
f 98//98 94//94 88//88
f 71//71 67//67 62//62
f 56//56 46//46 60//60
f 60//60 58//58 56//56
f 28//28 24//24 69//69
f 28//28 69//69 32//32
f 32//32 80//80 36//36
f 80//80 32//32 69//69
f 36//36 80//80 40//40
f 8//8 4//4 55//55
f 12//12 8//8 55//55
f 55//55 20//20 16//16
f 20//20 55//55 69//69
f 69//69 24//24 20//20
f 12//12 55//55 16//16
f 3//3 54//54 55//55
f 96//96 44//44 40//40
f 102//102 84//84 128//128
f 102//102 128//128 118//118
f 159//159 144//144 155//155
f 140//140 144//144 118//118
f 175//175 159//159 174//174
f 96//96 40//40 80//80
f 112//112 44//44 96//96
f 159//159 155//155 174//174
f 118//118 128//128 140//140
f 144//144 140//140 155//155
f 128//128 84//84 112//112
f 112//112 84//84 44//44
f 11//11 54//54 7//7
f 3//3 7//7 54//54
f 54//54 15//15 19//19
f 11//11 15//15 54//54
f 68//68 54//54 19//19
f 19//19 23//23 68//68
f 23//23 27//27 68//68
f 27//27 31//31 68//68
f 35//35 79//79 31//31
f 35//35 39//39 79//79
f 43//43 95//95 39//39
f 31//31 79//79 68//68
f 43//43 83//83 111//111
f 95//95 43//43 111//111
f 143//143 154//154 139//139
f 117//117 139//139 127//127
f 83//83 127//127 111//111
f 101//101 117//117 127//127
f 127//127 83//83 101//101
f 143//143 158//158 154//154
f 139//139 117//117 143//143
f 173//173 158//158 172//172
f 186//186 187//187 173//173
f 158//158 173//173 154//154
f 79//79 39//39 95//95
f 188//188 189//189 175//175
f 189//189 188//188 195//195
f 195//195 203//203 209//209
f 251//251 235//235 231//231
f 219//219 235//235 209//209
f 269//269 251//251 231//231
f 195//195 188//188 203//203
f 209//209 203//203 219//219
f 269//269 231//231 247//247
f 263//263 278//278 314//314
f 310//310 247//247 263//263
f 231//231 235//235 219//219
f 269//269 247//247 310//310
f 318//318 314//314 278//278
f 322//322 318//318 278//278
f 326//326 322//322 289//289
f 278//278 289//289 322//322
f 330//330 326//326 289//289
f 306//306 334//334 289//289
f 330//330 289//289 334//334
f 338//338 334//334 306//306
f 342//342 306//306 346//346
f 346//346 306//306 350//350
f 338//338 306//306 342//342
f 305//305 349//349 350//350
f 310//310 263//263 314//314
f 234//234 230//230 218//218
f 208//208 218//218 202//202
f 262//262 246//246 309//309
f 309//309 246//246 268//268
f 268//268 246//246 230//230
f 186//186 194//194 187//187
f 194//194 202//202 187//187
f 234//234 218//218 208//208
f 194//194 208//208 202//202
f 230//230 234//234 250//250
f 250//250 268//268 230//230
f 313//313 277//277 262//262
f 305//305 288//288 333//333
f 341//341 305//305 337//337
f 337//337 305//305 333//333
f 341//341 345//345 305//305
f 349//349 305//305 345//345
f 277//277 313//313 317//317
f 313//313 262//262 309//309
f 288//288 325//325 329//329
f 325//325 288//288 321//321
f 321//321 277//277 317//317
f 288//288 329//329 333//333
f 277//277 321//321 288//288
f 48//48 46//46 56//56
f 51//51 48//48 58//58
f 56//56 58//58 48//48
f 49//49 45//45 47//47
f 47//47 50//50 49//49
f 304//304 301//301 300//300
f 306//306 293//293 295//295
f 306//306 304//304 305//305
f 295//295 302//302 306//306
f 304//304 306//306 302//302
f 301//301 304//304 302//302
f 303//303 297//297 299//299
f 303//303 299//299 295//295
f 302//302 295//295 299//299
f 22//22 2//2 18//18
f 26//26 2//2 22//22
f 30//30 2//2 26//26
f 10//10 2//2 6//6
f 2//2 10//10 14//14
f 18//18 2//2 14//14
f 2//2 30//30 34//34
f 2//2 116//116 142//142
f 2//2 142//142 157//157
f 2//2 157//157 165//165
f 2//2 38//38 42//42
f 82//82 100//100 2//2
f 82//82 2//2 42//42
f 2//2 100//100 116//116
f 38//38 2//2 34//34
f 1//1 2//2 165//165
f 9//9 5//5 1//1
f 1//1 13//13 9//9
f 13//13 1//1 17//17
f 21//21 17//17 1//1
f 25//25 21//21 1//1
f 25//25 1//1 29//29
f 29//29 1//1 33//33
f 37//37 33//33 1//1
f 41//41 37//37 1//1
f 1//1 81//81 41//41
f 81//81 1//1 99//99
f 115//115 99//99 1//1
f 1//1 141//141 115//115
f 1//1 156//156 141//141
f 156//156 1//1 162//162
f 162//162 1//1 165//165
f 162//162 165//165 176//176
f 179//179 193//193 348//348
f 207//207 348//348 193//193
f 348//348 207//207 233//233
f 267//267 348//348 249//249
f 348//348 267//267 308//308
f 348//348 233//233 249//249
f 348//348 308//308 312//312
f 320//320 348//348 316//316
f 348//348 320//320 324//324
f 324//324 328//328 348//348
f 348//348 332//332 336//336
f 348//348 340//340 344//344
f 336//336 340//340 348//348
f 328//328 332//332 348//348
f 312//312 316//316 348//348
f 176//176 179//179 348//348
f 266//266 347//347 307//307
f 307//307 347//347 311//311
f 248//248 347//347 266//266
f 347//347 206//206 192//192
f 206//206 347//347 232//232
f 232//232 347//347 248//248
f 176//176 347//347 192//192
f 347//347 339//339 335//335
f 339//339 347//347 343//343
f 347//347 335//335 331//331
f 319//319 315//315 347//347
f 323//323 347//347 327//327
f 347//347 323//323 319//319
f 331//331 327//327 347//347
f 311//311 347//347 315//315
f 347//347 176//176 348//348
f 165//165 179//179 176//176
f 77//77 75//75 64//64
f 75//75 92//92 90//90
f 90//90 108//108 106//106
f 64//64 71//71 62//62
f 122//122 136//136 134//134
f 124//124 106//106 108//108
f 169//169 149//149 151//151
f 151//151 134//134 136//136
f 167//167 183//183 181//181
f 164//164 181//181 178//178
f 243//243 225//225 227//227
f 227//227 213//213 215//215
f 241//241 259//259 257//257
f 213//213 205//205 197//197
f 275//275 257//257 259//259
f 273//273 285//285 284//284
f 293//293 299//299 284//284
f 274//274 272//272 283//283
f 258//258 272//272 274//274
f 256//256 254//254 264//264
f 256//256 242//242 240//240
f 226//226 240//240 242//242
f 224//224 222//222 236//236
f 224//224 214//214 212//212
f 199//199 212//212 214//214
f 198//198 182//182 180//180
f 180//180 168//168 166//166
f 177//177 166//166 163//163
f 121//121 107//107 105//105
f 121//121 119//119 129//129
f 123//123 133//133 135//135
f 89//89 76//76 74//74
f 89//89 87//87 97//97
f 91//91 105//105 107//107
f 57//57 47//47 63//63
f 65//65 74//74 76//76
f 63//63 61//61 70//70
f 74//74 72//72 85//85
f 182//182 169//169 168//168
f 8//8 2//2 4//4
f 16//16 10//10 12//12
f 12//12 6//6 8//8
f 24//24 18//18 20//20
f 32//32 26//26 28//28
f 28//28 22//22 24//24
f 20//20 14//14 16//16
f 36//36 30//30 32//32
f 44//44 38//38 40//40
f 102//102 82//82 84//84
f 84//84 42//42 44//44
f 144//144 116//116 118//118
f 175//175 157//157 159//159
f 159//159 142//142 144//144
f 118//118 100//100 102//102
f 40//40 34//34 36//36
f 165//165 189//189 179//179
f 195//195 179//179 189//189
f 235//235 207//207 209//209
f 209//209 193//193 195//195
f 269//269 249//249 251//251
f 314//314 308//308 310//310
f 310//310 267//267 269//269
f 251//251 233//233 235//235
f 318//318 312//312 314//314
f 326//326 320//320 322//322
f 334//334 328//328 330//330
f 330//330 324//324 326//326
f 342//342 336//336 338//338
f 350//350 344//344 346//346
f 346//346 340//340 342//342
f 338//338 332//332 334//334
f 322//322 316//316 318//318
f 348//348 349//349 347//347
f 345//345 347//347 349//349
f 337//337 339//339 341//341
f 341//341 343//343 345//345
f 329//329 331//331 333//333
f 321//321 323//323 325//325
f 325//325 327//327 329//329
f 333//333 335//335 337//337
f 317//317 319//319 321//321
f 309//309 311//311 313//313
f 250//250 266//266 268//268
f 268//268 307//307 309//309
f 208//208 232//232 234//234
f 186//186 192//192 194//194
f 194//194 206//206 208//208
f 234//234 248//248 250//250
f 313//313 315//315 317//317
f 176//176 172//172 162//162
f 158//158 162//162 172//172
f 117//117 141//141 143//143
f 143//143 156//156 158//158
f 83//83 99//99 101//101
f 39//39 41//41 43//43
f 43//43 81//81 83//83
f 101//101 115//115 117//117
f 35//35 37//37 39//39
f 27//27 29//29 31//31
f 19//19 21//21 23//23
f 23//23 25//25 27//27
f 11//11 13//13 15//15
f 3//3 5//5 7//7
f 7//7 9//9 11//11
f 15//15 17//17 19//19
f 31//31 33//33 35//35
f 1//1 4//4 2//2
f 109//109 93//93 95//95
f 111//111 127//127 125//125
f 66//66 72//72 70//70
f 137//137 125//125 127//127
f 139//139 154//154 152//152
f 109//109 119//119 113//113
f 170//170 152//152 154//154
f 170//170 163//163 160//160
f 137//137 147//147 145//145
f 170//170 187//187 184//184
f 163//163 184//184 177//177
f 246//246 228//228 230//230
f 228//228 220//220 210//210
f 230//230 216//216 218//218
f 244//244 236//236 222//222
f 244//244 262//262 260//260
f 277//277 260//260 262//262
f 276//276 264//264 254//254
f 276//276 288//288 286//286
f 305//305 286//286 288//288
f 304//304 290//290 281//281
f 263//263 247//247 245//245
f 287//287 271//271 280//280
f 231//231 219//219 217//217
f 229//229 245//245 247//247
f 203//203 188//188 185//185
f 201//201 217//217 219//219
f 229//229 221//221 223//223
f 185//185 174//174 171//171
f 178//178 171//171 164//164
f 155//155 171//171 174//174
f 153//153 148//148 161//161
f 153//153 140//140 138//138
f 128//128 138//138 140//140
f 126//126 112//112 110//110
f 138//138 146//146 148//148
f 110//110 96//96 94//94
f 80//80 94//94 96//96
f 78//78 86//86 88//88
f 78//78 69//69 67//67
f 94//94 98//98 104//104
f 55//55 67//67 69//69
f 53//53 60//60 62//62
f 67//67 71//71 73//73
f 3//3 55//55 4//4
f 186//186 173//173 172//172
f 188//188 175//175 174//174
f 305//305 350//350 306//306