# PHANTOM Module: COP1
# Units: meters
o COP1

v 2.340601 1.200001 0.000000
v 2.340601 0.900002 0.000000
v 2.340601 0.600002 0.000000
v 2.340601 0.300003 0.000000
v 2.340601 0.000000 0.000000
v 2.309036 1.200001 0.002522
v 2.309036 0.900002 0.002522
v 2.309036 0.600002 0.002522
v 2.309036 0.300003 0.002522
v 2.309036 0.000000 0.002522
v 2.277815 1.200001 0.010142
v 2.277815 0.900002 0.010142
v 2.277815 0.600002 0.010142
v 2.277815 0.300003 0.010142
v 2.277815 0.000000 0.010142
v 2.247961 1.200001 0.022695
v 2.247961 0.900002 0.022695
v 2.247961 0.600002 0.022695
v 2.247961 0.300003 0.022695
v 2.247961 0.000000 0.022695
v 2.220416 1.200001 0.039697
v 2.220416 0.900002 0.039697
v 2.220416 0.600002 0.039697
v 2.220416 0.300003 0.039697
v 2.220416 0.000000 0.039697
v 2.112499 1.033333 0.118182
v 2.112499 0.166668 0.118182
v 2.112149 1.041389 0.118437
v 2.112149 0.158615 0.118437
v 2.111121 1.049057 0.119184
v 2.111121 0.150948 0.119184
v 2.109453 1.056343 0.120397
v 2.109453 0.143661 0.120397
v 2.107183 1.063259 0.122048
v 2.107183 0.136745 0.122048
v 2.104348 1.069813 0.124110
v 2.104348 0.130188 0.124110
v 2.100985 1.076015 0.126557
v 2.100985 0.123989 0.126557
v 2.092821 1.087391 0.132493
v 2.092821 0.112610 0.132493
v 2.082993 1.097462 0.139642
v 2.082993 0.102543 0.139642
v 2.071795 1.106289 0.147786
v 2.071795 0.093712 0.147786
v 2.046483 1.120506 0.166194
v 2.046483 0.079498 0.166194
v 2.019267 1.130596 0.185988
v 2.019267 0.069405 0.185988
v 1.992527 1.137119 0.205435
v 1.992527 0.062885 0.205435
v 1.968645 1.140621 0.222804
v 1.968645 0.059380 0.222804
v 1.950000 1.141666 0.236364
v 1.950000 0.058334 0.236364
v 1.863032 1.200001 2.536751
v 1.863032 0.900002 2.536751
v 1.863032 0.600002 2.536751
v 1.863032 0.300003 2.536751
v 1.863032 0.000004 2.536751
v 1.835486 1.200001 2.519749
v 1.835486 0.900002 2.519749
v 1.835486 0.600002 2.519749
v 1.835486 0.300003 2.519749
v 1.835486 0.000004 2.519749
v 1.805634 1.200001 2.507196
v 1.805634 0.900002 2.507196
v 1.805634 0.600002 2.507196
v 1.805634 0.300003 2.507196
v 1.805634 0.000004 2.507196
v 1.774411 1.200001 2.499575
v 1.774411 0.900002 2.499575
v 1.774411 0.600002 2.499575
v 1.774411 0.300003 2.499575
v 1.774411 0.000004 2.499575
v 1.742847 1.200001 2.497054
v 1.742847 0.900002 2.497054
v 1.742847 0.600002 2.497054
v 1.742847 0.300003 2.497054
v 1.742847 0.000004 2.497054
v 1.706249 1.139858 0.214859
v 1.706249 1.124008 0.171693
v 1.706249 1.109940 0.152796
v 1.706249 1.092617 0.137446
v 1.706249 1.073212 0.126480
v 1.706249 1.053047 0.120155
v 1.706249 1.033333 0.118182
v 1.706249 0.166668 0.118182
v 1.706249 0.126793 0.126480
v 1.706249 0.107388 0.137446
v 1.706249 0.090065 0.152796
v 1.706249 0.075993 0.171693
v 1.706249 0.065941 0.192862
v 1.706249 0.060143 0.214859
v 1.645948 1.033333 2.378872
v 1.645948 0.166668 2.378872
v 1.645514 1.041462 2.378556
v 1.645514 0.158543 2.378556
v 1.644258 1.049232 2.377642
v 1.644258 0.150772 2.377642
v 1.642249 1.056648 2.376182
v 1.642249 0.143356 2.376182
v 1.639561 1.063705 2.374226
v 1.639561 0.136295 2.374226
v 1.636262 1.070408 2.371827
v 1.636262 0.129593 2.371827
v 1.632423 1.076756 2.369035
v 1.632423 0.123249 2.369035
v 1.623412 1.088375 2.362482
v 1.623412 0.111626 2.362482
v 1.613091 1.098564 2.354976
v 1.613091 0.101437 2.354976
v 1.602028 1.107319 2.346930
v 1.602028 0.092686 2.346930
v 1.579931 1.120506 2.330859
v 1.579931 0.079498 2.330859
v 1.556752 1.130024 2.314002
v 1.556752 0.069977 2.314002
v 1.532529 1.136608 2.296385
v 1.532529 0.063393 2.296385
v 1.507886 1.140430 2.278463
v 1.507886 0.059570 2.278463
v 1.483449 1.141666 2.260690
v 1.483449 0.058334 2.260690
v 1.460335 1.139858 2.282195
v 1.460335 1.134060 2.304192
v 1.460335 1.124008 2.325360
v 1.460335 1.109940 2.344257
v 1.460335 1.092617 2.359608
v 1.460335 1.073212 2.370574
v 1.460335 1.033333 2.378872
v 1.458460 0.166668 2.378872
v 1.458460 0.146954 2.376899
v 1.458460 0.126793 2.370574
v 1.458460 0.107388 2.359608
v 1.458460 0.090065 2.344257
v 1.458460 0.075993 2.325360
v 1.458460 0.060143 2.282195
v 1.396482 1.200001 2.197441
v 1.396482 1.200001 0.638923
v 1.396482 1.200001 0.638922
v 1.396482 1.170834 0.638922
v 1.396482 1.141666 2.197441
v 1.396482 1.141666 0.638923
v 1.396482 1.141666 0.638922
v 1.396482 0.058334 2.197441
v 1.396482 0.058334 0.638923
v 1.396482 0.058334 0.638922
v 1.396482 0.029167 2.197441
v 1.396482 0.029167 0.638922
v 1.396482 0.000000 2.197441
v 1.396482 0.000000 0.638923
v 1.396482 0.000000 0.638922
v 1.385990 1.141666 0.647054
v 1.385990 0.058334 0.647054
v 1.385465 1.141666 2.188877
v 1.385465 0.058334 2.188877
v 1.375832 1.200001 2.180394
v 1.375832 1.200001 0.655970
v 1.375832 1.170834 2.180394
v 1.375832 1.170834 0.655970
v 1.375832 1.141666 0.655970
v 1.375832 0.058334 0.655970
v 1.375832 0.029167 0.655970
v 1.375832 0.000000 2.180394
v 1.375832 0.000000 0.655970
v 1.375030 1.141666 2.179646
v 1.375030 0.058334 2.179646
v 1.366075 1.141666 0.665650
v 1.366075 0.058334 0.665650
v 1.365194 1.141666 2.169785
v 1.365194 0.058334 2.169785
v 1.356791 1.200001 2.160302
v 1.356791 1.200001 0.676062
v 1.356791 1.170834 0.676062
v 1.356791 1.141666 0.676062
v 1.356791 0.058334 0.676062
v 1.356791 0.029167 2.160302
v 1.356791 0.029167 0.676062
v 1.356791 0.000000 2.160302
v 1.356791 0.000000 0.676062
v 1.355977 1.141666 2.159332
v 1.355977 0.058334 2.159332
v 1.348045 1.141666 0.687164
v 1.348045 0.058334 0.687164
v 1.347395 1.141666 2.148320
v 1.347395 0.058334 2.148320
v 1.339901 1.200001 2.137458
v 1.339901 1.200001 0.698905
v 1.339901 1.170834 2.137458
v 1.339901 1.170834 0.698905
v 1.339901 1.141666 0.698905
v 1.339901 0.058334 0.698905
v 1.339901 0.029167 2.137458
v 1.339901 0.029167 0.698905
v 1.339901 0.000000 2.137458
v 1.339901 0.000000 0.698905
v 1.339465 1.141666 2.136788
v 1.339465 0.058334 2.136788
v 1.332415 1.141666 0.711226
v 1.332415 0.058334 0.711226
v 1.332207 1.141666 2.124771
v 1.332207 0.058334 2.124771
v 1.325637 1.200001 2.112305
v 1.325637 1.200001 0.724059
v 1.325637 1.170834 2.112305
v 1.325637 1.170834 0.724059
v 1.325637 1.141666 2.112305
v 1.325637 1.141666 0.724059
v 1.325637 0.058334 2.112305
v 1.325637 0.058334 0.724059
v 1.325637 0.029167 2.112305
v 1.325637 0.029167 0.724059
v 1.325637 0.000000 2.112305
v 1.325637 0.000000 0.724059
v 1.319774 1.141666 2.099427
v 1.319774 0.058334 2.099427
v 1.319609 1.141666 0.737330
v 1.319609 0.058334 0.737330
v 1.314633 1.141666 2.086172
v 1.314633 0.058334 2.086172
v 1.314364 1.200001 2.085405
v 1.314364 1.200001 0.750959
v 1.314364 1.170834 2.085405
v 1.314364 1.170834 0.750959
v 1.314364 1.141666 0.750959
v 1.314364 0.058334 0.750959
v 1.314364 0.029167 2.085405
v 1.314364 0.029167 0.750959
v 1.314364 0.000000 2.085405
v 1.314364 0.000000 0.750959
v 1.310236 1.141666 2.072578
v 1.310236 0.058334 2.072578
v 1.309926 1.141666 0.764864
v 1.309926 0.058334 0.764864
v 1.306599 1.141666 2.058680
v 1.306599 0.058334 2.058680
v 1.306310 1.200001 2.057403
v 1.306310 1.200001 0.778961
v 1.306310 1.170834 2.057403
v 1.306310 1.170834 0.778961
v 1.306310 1.141666 0.778961
v 1.306310 0.058334 0.778961
v 1.306310 0.029167 2.057403
v 1.306310 0.029167 0.778961
v 1.306310 0.000000 2.057403
v 1.306310 0.000000 0.778961
v 1.303739 1.141666 2.044514
v 1.303739 0.058334 2.044514
v 1.303518 1.141666 0.793164
v 1.303518 0.058334 0.793164
v 1.301673 1.141666 2.030117
v 1.301673 0.058334 2.030117
v 1.301547 1.200001 2.028975
v 1.301547 1.200001 0.807389
v 1.301547 1.170834 2.028975
v 1.301547 1.170834 0.807389
v 1.301547 1.141666 0.807389
v 1.301547 0.058334 0.807389
v 1.301547 0.029167 2.028975
v 1.301547 0.029167 0.807389
v 1.301547 0.000000 2.028975
v 1.301547 0.000000 0.807389
v 1.300421 1.141666 2.015525
v 1.300421 0.058334 2.015525
v 1.300382 1.141666 0.821556
v 1.300382 0.058334 0.821556
v 1.299999 1.200001 2.000775
v 1.299999 1.200001 0.835589
v 1.299999 1.170834 2.000775
v 1.299999 1.170834 0.835589
v 1.299999 1.141666 2.260690
v 1.299999 1.141666 2.000775
v 1.299999 1.141666 0.835589
v 1.299999 1.141666 0.236364
v 1.299999 1.139858 0.214859
v 1.299999 1.137486 0.203845
v 1.299999 1.134060 0.192862
v 1.299999 1.129566 0.182083
v 1.299999 1.124008 0.171693
v 1.299999 1.117439 0.161874
v 1.299999 1.109940 0.152796
v 1.299999 1.101616 0.144613
v 1.299999 1.092617 0.137446
v 1.299999 1.083092 0.131385
v 1.299999 1.073212 0.126480
v 1.299999 1.063145 0.122744
v 1.299999 1.053047 0.120155
v 1.299999 1.043068 0.118660
v 1.299999 1.033333 0.118182
v 1.299999 0.166668 0.118182
v 1.299999 0.156933 0.118660
v 1.299999 0.146954 0.120155
v 1.299999 0.136860 0.122744
v 1.299999 0.126793 0.126480
v 1.299999 0.116913 0.131385
v 1.299999 0.107388 0.137446
v 1.299999 0.098385 0.144613
v 1.299999 0.090065 0.152796
v 1.299999 0.082561 0.161874
v 1.299999 0.075993 0.171693
v 1.299999 0.070438 0.182083
v 1.299999 0.065941 0.192862
v 1.299999 0.062515 0.203845
v 1.299999 0.060143 0.214859
v 1.299999 0.058334 2.260690
v 1.299999 0.058334 2.000775
v 1.299999 0.058334 0.835589
v 1.299999 0.058334 0.236364
v 1.299999 0.029167 0.835589
v 1.299999 0.000000 2.000775
v 1.299999 0.000000 0.835589
v 1.299706 1.141121 2.272650
v 1.299706 0.058884 2.272650
v 1.298868 1.139503 2.284307
v 1.298868 0.060497 2.284307
v 1.297549 1.136864 2.295598
v 1.297549 0.063137 2.295598
v 1.295815 1.133247 2.306458
v 1.295815 0.066757 2.306458
v 1.293726 1.128693 2.316825
v 1.293726 0.071308 2.316825
v 1.291348 1.123253 2.326635
v 1.291348 0.076752 2.326635
v 1.288745 1.116962 2.335824
v 1.288745 0.083042 2.335824
v 1.285981 1.109871 2.344330
v 1.285981 0.090130 2.344330
v 1.283184 1.102097 2.352020
v 1.283184 0.097908 2.352020
v 1.280474 1.093693 2.358846
v 1.280474 0.106312 2.358846
v 1.277938 1.084717 2.364758
v 1.277938 0.115288 2.364758
v 1.275665 1.075230 2.369706
v 1.275665 0.124771 2.369706
v 1.273745 1.065292 2.373642
v 1.273745 0.134712 2.373642
v 1.272263 1.054958 2.376514
v 1.272263 0.145046 2.376514
v 1.271309 1.044285 2.378274
v 1.271309 0.155716 2.378274
v 1.270972 1.033333 2.378872
v 1.270972 0.166668 2.378872
v 1.245833 1.141666 0.236364
v 1.245833 0.058334 2.260690
v 1.191667 1.200001 2.260690
v 1.191667 1.200001 0.236364
v 1.191667 1.141666 2.260690
v 1.191667 1.141666 0.236364
v 1.191667 1.139858 2.282195
v 1.191667 1.139858 0.214859
v 1.191667 1.134060 2.304192
v 1.191667 1.124008 2.325360
v 1.191667 1.124008 0.171693
v 1.191667 1.109940 2.344257
v 1.191667 1.109940 0.152796
v 1.191667 1.092617 2.359608
v 1.191667 1.092617 0.137446
v 1.191667 1.073212 2.370574
v 1.191667 1.073212 0.126480
v 1.191667 1.053047 0.120155
v 1.191667 1.033333 2.378872
v 1.191667 1.033333 0.118182
v 1.191667 0.166668 0.118182
v 1.191667 0.146954 2.376899
v 1.191667 0.126793 2.370574
v 1.191667 0.126793 0.126480
v 1.191667 0.107388 2.359608
v 1.191667 0.107388 0.137446
v 1.191667 0.090065 2.344257
v 1.191667 0.090065 0.152796
v 1.191667 0.075993 2.325360
v 1.191667 0.075993 0.171693
v 1.191667 0.065941 0.192862
v 1.191667 0.060143 2.282195
v 1.191667 0.060143 0.214859
v 1.191667 0.058334 2.260690
v 1.191667 0.058334 0.236364
v 1.191667 0.000000 2.260690
v 1.191667 0.000000 0.236364
v 1.190881 1.140884 2.276132
v 1.190881 1.140884 0.220921
v 1.190881 0.059120 2.276132
v 1.190881 0.059120 0.220921
v 1.189857 1.200001 2.282195
v 1.189857 1.200001 0.214859
v 1.189857 0.000000 2.282195
v 1.189857 0.000000 0.214859
v 1.188622 1.138622 2.290360
v 1.188622 1.138622 0.206694
v 1.188622 0.061378 2.290360
v 1.188622 0.061378 0.206694
v 1.187485 1.200001 0.203845
v 1.187485 0.000000 2.293209
v 1.185033 1.135036 2.303402
v 1.185033 1.135036 0.193651
v 1.185033 0.064968 2.303402
v 1.185033 0.064968 0.193651
v 1.184060 1.200001 2.304192
v 1.184060 1.200001 0.192862
v 1.184060 0.000000 2.304192
v 1.184060 0.000000 0.192862
v 1.180260 1.130260 2.315290
v 1.180260 1.130260 0.181763
v 1.180260 0.069740 2.315290
v 1.180260 0.069740 0.181763
v 1.179564 1.200001 0.182083
v 1.179564 0.000000 2.314970
v 1.174447 1.124451 2.326054
v 1.174447 1.124451 0.171000
v 1.174447 0.075554 2.326054
v 1.174447 0.075554 0.171000
v 1.174007 1.200001 2.325360
v 1.174007 1.200001 0.171693
v 1.174007 0.000000 2.325360
v 1.174007 0.000000 0.171693
v 1.167740 1.117741 2.335724
v 1.167740 1.117741 0.161330
v 1.167740 0.082260 2.335724
v 1.167740 0.082260 0.161330
v 1.167438 1.200001 0.161874
v 1.167438 0.000000 2.335180
v 1.160283 1.110283 2.344329
v 1.160283 1.110283 0.152725
v 1.160283 0.089718 2.344329
v 1.160283 0.089718 0.152725
v 1.159936 1.200001 2.344257
v 1.159936 1.200001 0.152796
v 1.159936 0.000000 2.344257
v 1.159936 0.000000 0.152796
v 1.152221 1.102222 2.351901
v 1.152221 1.102222 0.145153
v 1.152221 0.097778 2.351901
v 1.152221 0.097778 0.145153
v 1.151615 1.200001 0.144613
v 1.151615 0.000000 2.352441
v 1.142614 1.200001 2.359608
v 1.142614 1.200001 0.137446
v 1.142614 1.116669 2.359608
v 1.142614 1.116669 0.137446
v 1.142614 0.083336 2.359608
v 1.142614 0.083336 0.137446
v 1.142614 0.000000 2.359608
v 1.142614 0.000000 0.137446
v 1.134862 1.084866 2.364063
v 1.134862 1.084866 0.132991
v 1.134862 0.115139 2.364063
v 1.134862 0.115139 0.132991
v 1.133090 1.200001 0.131385
v 1.133090 0.000000 2.365669
v 1.123210 1.200001 2.370574
v 1.123210 1.200001 0.126480
v 1.123210 1.116669 2.370574
v 1.123210 0.083336 2.370574
v 1.123210 0.000000 2.370574
v 1.123210 0.000000 0.126480
v 1.116821 1.066822 2.372451
v 1.116821 1.066822 0.124603
v 1.116821 0.133179 2.372451
v 1.116821 0.133179 0.124603
v 1.113142 1.200001 0.122744
v 1.113142 0.000000 2.374310
v 1.103045 1.200001 2.376899
v 1.103045 1.200001 0.120155
v 1.103045 1.116669 0.120155
v 1.103045 0.083336 0.120155
v 1.103045 0.000000 2.376899
v 1.103045 0.000000 0.120155
v 1.099259 1.049259 2.377307
v 1.099259 1.049259 0.119747
v 1.099259 0.150742 2.377307
v 1.099259 0.150742 0.119747
v 1.093067 1.200001 0.118660
v 1.093067 0.000000 2.378394
v 1.083333 1.200001 2.378872
v 1.083333 1.200001 0.118182
v 1.083333 1.116669 2.378872
v 1.083333 1.116669 0.118182
v 1.083333 1.033333 2.378872
v 1.083333 1.033333 0.118182
v 1.083333 0.166668 2.378872
v 1.083333 0.166668 0.118182
v 1.083333 0.083336 2.378872
v 1.083333 0.083336 0.118182
v 1.083333 0.000000 2.378872
v 1.083333 0.000000 0.118182
v 0.216666 1.200001 2.497054
v 0.216666 1.200001 2.378872
v 0.216666 1.200001 0.118182
v 0.216666 1.200001 0.000000
v 0.216666 0.799999 2.497054
v 0.216666 0.799999 2.378872
v 0.216666 0.799999 0.118182
v 0.216666 0.799999 0.000000
v 0.216666 0.400002 2.497054
v 0.216666 0.400002 0.118182
v 0.216666 0.400002 0.000000
v 0.216666 0.000000 2.497054
v 0.216666 0.000000 2.378872
v 0.216666 0.000000 0.118182
v 0.216666 0.000000 0.000000
v 0.206932 1.200001 2.378394
v 0.206932 1.200001 0.118660
v 0.206932 0.000000 2.378394
v 0.206932 0.000000 0.118660
v 0.197198 1.200001 0.000956
v 0.197198 0.799999 0.000956
v 0.197198 0.400002 0.000956
v 0.197198 0.000000 0.000956
v 0.196954 1.200001 2.376899
v 0.196954 1.200001 0.120155
v 0.196954 0.799999 2.376899
v 0.196954 0.799999 0.120155
v 0.196954 0.400002 2.376899
v 0.196954 0.400002 0.120155
v 0.196954 0.000000 2.376899
v 0.196954 0.000000 0.120155
v 0.195297 1.200001 2.495901
v 0.195297 0.799999 2.495901
v 0.195297 0.400002 2.495901
v 0.195297 0.000000 2.495901
v 0.186857 1.200001 2.374310
v 0.186857 1.200001 0.122744
v 0.186857 0.000000 2.374310
v 0.186857 0.000000 0.122744
v 0.177241 1.200001 0.003946
v 0.177241 0.799999 0.003946
v 0.177241 0.400002 0.003946
v 0.177241 0.000000 0.003946
v 0.176789 1.200001 2.370574
v 0.176789 1.200001 0.126480
v 0.176789 0.799999 2.370574
v 0.176789 0.799999 0.126480
v 0.176789 0.400002 2.370574
v 0.176789 0.400002 0.126480
v 0.176789 0.000000 2.370574
v 0.176789 0.000000 0.126480
v 0.173369 1.200001 2.492286
v 0.173369 0.799999 2.492286
v 0.173369 0.400002 2.492286
v 0.173369 0.000000 2.492286
v 0.166909 1.200001 2.365669
v 0.166909 1.200001 0.131385
v 0.166909 0.000000 2.365669
v 0.166909 0.000000 0.131385
v 0.157385 1.200001 2.359608
v 0.157385 1.200001 0.137446
v 0.157385 0.799999 2.359608
v 0.157385 0.799999 0.137446
v 0.157385 0.400002 2.359608
v 0.157385 0.400002 0.137446
v 0.157385 0.000000 2.359608
v 0.157385 0.000000 0.137446
v 0.157048 1.200001 0.009124
v 0.157048 0.799999 0.009124
v 0.157048 0.400002 0.009124
v 0.157048 0.000000 0.009124
v 0.151223 1.200001 2.486014
v 0.151223 0.799999 2.486014
v 0.151223 0.400002 2.486014
v 0.151223 0.000000 2.486014
v 0.148384 1.200001 2.352441
v 0.148384 1.200001 0.144613
v 0.148384 0.000000 2.352441
v 0.148384 0.000000 0.144613
v 0.140063 1.200001 2.344257
v 0.140063 1.200001 0.152796
v 0.140063 0.799999 2.344257
v 0.140063 0.799999 0.152796
v 0.140063 0.400002 2.344257
v 0.140063 0.400002 0.152796
v 0.140063 0.000000 2.344257
v 0.140063 0.000000 0.152796
v 0.136912 1.200001 0.016595
v 0.136912 0.799999 0.016595
v 0.136912 0.400002 0.016595
v 0.136912 0.000000 0.016595
v 0.132562 1.200001 2.335180
v 0.132562 1.200001 0.161874
v 0.132562 0.000000 2.335180
v 0.132562 0.000000 0.161874
v 0.130619 1.200001 2.477615
v 0.130619 0.799999 2.477615
v 0.130619 0.400002 2.477615
v 0.130619 0.000000 2.477615
v 0.125992 1.200001 2.325360
v 0.125992 1.200001 0.171693
v 0.125992 0.799999 2.325360
v 0.125992 0.799999 0.171693
v 0.125992 0.400002 2.325360
v 0.125992 0.400002 0.171693
v 0.125992 0.000000 2.325360
v 0.125992 0.000000 0.171693
v 0.120436 1.200001 2.314970
v 0.120436 1.200001 0.182083
v 0.120436 0.000000 2.314970
v 0.120436 0.000000 0.182083
v 0.117152 1.200001 0.026406
v 0.117152 0.799999 0.026406
v 0.117152 0.400002 0.026406
v 0.117152 0.000000 0.026406
v 0.115939 1.200001 2.304192
v 0.115939 1.200001 0.192862
v 0.115939 0.799999 2.304192
v 0.115939 0.799999 0.192862
v 0.115939 0.400002 2.304192
v 0.115939 0.400002 0.192862
v 0.115939 0.000000 2.304192
v 0.115939 0.000000 0.192862
v 0.112514 1.200001 2.293209
v 0.112514 1.200001 0.203845
v 0.112514 0.000000 2.293209
v 0.112514 0.000000 0.203845
v 0.111032 1.200001 2.467059
v 0.111032 0.799999 2.467059
v 0.111032 0.400002 2.467059
v 0.111032 0.000000 2.467059
v 0.110142 1.200001 2.282195
v 0.110142 1.200001 0.214859
v 0.110142 0.799999 2.282195
v 0.110142 0.799999 0.214859
v 0.110142 0.400002 2.282195
v 0.110142 0.400002 0.214859
v 0.110142 0.000000 2.282195
v 0.110142 0.000000 0.214859
v 0.108333 1.200001 2.260690
v 0.108333 1.200001 0.236364
v 0.108333 0.799999 0.236364
v 0.108333 0.400002 2.260690
v 0.108333 0.400002 0.236364
v 0.108333 0.000000 2.260690
v 0.108333 0.000000 0.236364
v 0.098104 1.200001 0.038528
v 0.098104 0.799999 0.038528
v 0.098104 0.400002 0.038528
v 0.098104 0.000000 0.038528
v 0.092656 1.200001 2.454510
v 0.092656 0.799999 2.454510
v 0.092656 0.400002 2.454510
v 0.092656 0.000000 2.454510
v 0.080102 1.200001 0.052862
v 0.080102 0.799999 0.052862
v 0.080102 0.400002 0.052862
v 0.080102 0.000000 0.052862
v 0.075661 1.200001 2.440150
v 0.075661 0.799999 2.440150
v 0.075661 0.400002 2.440150
v 0.075661 0.000000 2.440150
v 0.063459 1.200001 0.069229
v 0.063459 0.799999 0.069229
v 0.063459 0.400002 0.069229
v 0.063459 0.000000 0.069229
v 0.060182 1.200001 2.424170
v 0.060182 0.799999 2.424170
v 0.060182 0.400002 2.424170
v 0.060182 0.000000 2.424170
v 0.048456 1.200001 0.087384
v 0.048456 0.799999 0.087384
v 0.048456 0.400002 0.087384
v 0.048456 0.000000 0.087384
v 0.046329 1.200001 2.406765
v 0.046329 0.799999 2.406765
v 0.046329 0.400002 2.406765
v 0.046329 0.000000 2.406765
v 0.035317 1.200001 0.107023
v 0.035317 0.799999 0.107023
v 0.035317 0.400002 0.107023
v 0.035317 0.000000 0.107023
v 0.034189 1.200001 2.388128
v 0.034189 0.799999 2.388128
v 0.034189 0.400002 2.388128
v 0.034189 0.000000 2.388128
v 0.024205 1.200001 0.127803
v 0.024205 0.799999 0.127803
v 0.024205 0.400002 0.127803
v 0.024205 0.000000 0.127803
v 0.023804 1.200001 2.368401
v 0.023804 0.799999 2.368401
v 0.023804 0.400002 2.368401
v 0.023804 0.000000 2.368401
v 0.015212 1.200001 0.149359
v 0.015212 0.799999 0.149359
v 0.015212 0.400002 0.149359
v 0.015212 0.000000 0.149359
v 0.015071 1.200001 2.347305
v 0.015071 0.799999 2.347305
v 0.015071 0.400002 2.347305
v 0.015071 0.000000 2.347305
v 0.008374 1.200001 2.325771
v 0.008374 0.799999 2.325771
v 0.008374 0.400002 2.325771
v 0.008374 0.000000 2.325771
v 0.008363 1.200001 0.171326
v 0.008363 0.799999 0.171326
v 0.008363 0.400002 0.171326
v 0.008363 0.000000 0.171326
v 0.003698 1.200001 2.304178
v 0.003698 0.799999 2.304178
v 0.003698 0.400002 2.304178
v 0.003698 0.000000 2.304178
v 0.003616 1.200001 0.193354
v 0.003616 0.799999 0.193354
v 0.003616 0.400002 0.193354
v 0.003616 0.000000 0.193354
v 0.000952 1.200001 2.282825
v 0.000952 0.799999 2.282825
v 0.000952 0.400002 2.282825
v 0.000952 0.000000 2.282825
v 0.000000 1.200001 2.260690
v 0.000000 1.200001 0.236364
v 0.000000 0.799999 2.260690
v 0.000000 0.799999 0.236364
v 0.000000 0.400002 2.260690
v 0.000000 0.400002 0.236364
v 0.000000 0.000000 2.260690
v 0.000000 0.000000 0.236364

vn 0.079383 0.996839 -0.003166
vn 0.999206 0.000000 -0.039849
vn 0.999206 0.000000 -0.039848
vn 0.999206 0.000000 -0.039848
vn 0.112264 -0.704872 0.700395
vn 0.079357 0.800815 0.593631
vn 0.170152 0.000000 0.985418
vn 0.158879 0.000000 0.987298
vn 0.143062 0.000000 0.989714
vn 0.130730 -0.708108 0.693896
vn 0.203420 0.708095 0.676181
vn 0.338389 0.000000 0.941006
vn 0.313345 0.000000 0.949639
vn 0.288082 0.000000 0.957606
vn 0.238942 -0.708095 0.664460
vn 0.260344 0.800768 0.539436
vn 0.471554 0.000000 0.881837
vn 0.457805 0.000000 0.889053
vn 0.447916 0.000000 0.894076
vn 0.339419 -0.708050 0.619241
vn 0.461425 0.607565 0.646492
vn 0.557103 -0.000011 0.830444
vn 0.557112 0.000000 0.830438
vn 0.557103 0.000011 0.830444
vn 0.522629 -0.447275 0.725813
vn 0.309254 -0.005560 0.950963
vn 0.370325 0.006661 0.928878
vn 0.309949 -0.040011 0.949911
vn 0.370770 0.026999 0.928332
vn 0.310434 -0.068705 0.948109
vn 0.311147 0.068506 0.947889
vn 0.311205 -0.104529 0.944577
vn 0.250999 0.125903 0.959765
vn 0.250550 -0.175653 0.952035
vn 0.313800 0.140251 0.939074
vn 0.314688 -0.176975 0.932551
vn 0.314691 0.176984 0.932548
vn 0.317183 -0.221855 0.922049
vn 0.317183 0.221874 0.922045
vn 0.256969 -0.331334 0.907846
vn 0.256972 0.331341 0.907843
vn 0.327847 -0.346905 0.878734
vn 0.327844 0.346899 0.878738
vn 0.266667 -0.479256 0.836183
vn 0.266670 0.479237 0.836193
vn 0.274927 -0.580817 0.766203
vn 0.274921 0.580793 0.766223
vn 0.289733 -0.682159 0.671352
vn 0.285419 0.669448 0.685839
vn 0.378368 -0.621130 0.686320
vn 0.297605 0.737791 0.605885
vn 0.394418 -0.664615 0.634603
vn 0.394403 0.664580 0.634649
vn 0.461210 -0.586683 0.665649
vn 0.461209 0.586685 0.665647
vn 0.596263 0.082998 -0.798487
vn -0.392669 0.000000 0.919680
vn 0.830441 0.000000 0.557106
vn -0.392669 0.000000 0.919680
vn 0.591127 -0.076677 -0.802925
vn -0.361355 0.555725 0.748727
vn -0.471550 0.000000 0.881839
vn -0.457803 0.000000 0.889054
vn -0.447916 0.000000 0.894076
vn -0.399599 -0.555710 0.729045
vn -0.239493 0.555775 0.796089
vn -0.338395 0.000000 0.941004
vn -0.313349 0.000000 0.949638
vn -0.288083 0.000000 0.957605
vn -0.281320 -0.555769 0.782291
vn -0.110150 0.555789 0.823994
vn -0.170149 0.000000 0.985418
vn -0.158876 0.000000 0.987299
vn -0.143060 0.000000 0.989714
vn -0.153911 -0.555785 0.816954
vn -0.009657 0.970188 0.242162
vn -0.039848 0.000000 0.999206
vn -0.039848 0.000000 0.999206
vn -0.039848 0.000000 0.999206
vn -0.012873 -0.970180 0.242043
vn -0.000530 -0.975788 0.218719
vn -0.000752 -0.881833 0.471561
vn 0.000368 -0.744829 0.667255
vn 0.001536 -0.592640 0.805466
vn 0.001500 -0.390410 0.920640
vn 0.000600 -0.188047 0.982160
vn 0.000019 -0.040016 0.999199
vn 0.000393 0.089942 0.995947
vn 0.001382 0.346797 0.937939
vn 0.001537 0.592615 0.805484
vn 0.000367 0.744814 0.667272
vn -0.000561 0.862341 0.506327
vn -0.001106 0.940910 0.338654
vn -0.000660 0.986106 0.166117
vn 0.409963 -0.006769 -0.912077
vn 0.353071 0.005833 -0.935578
vn 0.310384 -0.040817 -0.949735
vn 0.247984 0.053570 -0.967282
vn 0.313352 -0.080829 -0.946191
vn 0.310565 0.081677 -0.947037
vn 0.209043 -0.154712 -0.965591
vn 0.311558 0.121582 -0.942417
vn 0.314276 -0.159761 -0.935792
vn 0.250684 0.191231 -0.948993
vn 0.314709 -0.197441 -0.928426
vn 0.314711 0.197498 -0.928413
vn 0.317563 -0.240418 -0.917253
vn 0.317557 0.240445 -0.917248
vn 0.256156 -0.342113 -0.904070
vn 0.256152 0.342085 -0.904082
vn 0.261192 -0.427986 -0.865221
vn 0.261191 0.428027 -0.865200
vn 0.333678 -0.411761 -0.848005
vn 0.333685 0.411810 -0.847978
vn 0.273105 -0.569397 -0.775371
vn 0.273094 0.569333 -0.775422
vn 0.284598 -0.657546 -0.697594
vn 0.361790 0.549038 -0.753435
vn 0.377043 -0.617036 -0.690728
vn 0.379313 0.600131 -0.704248
vn 0.394994 -0.662567 -0.636384
vn 0.394985 0.662582 -0.636373
vn 0.259471 -0.878146 -0.401913
vn 0.346575 0.782762 -0.516884
vn 0.000284 -0.984046 -0.177912
vn 0.000129 -0.937398 -0.348259
vn -0.000075 -0.857454 -0.514561
vn -0.000099 -0.734186 -0.678948
vn -0.000363 -0.585628 -0.810580
vn 0.000417 -0.390806 -0.920473
vn 0.000742 -0.075075 -0.997178
vn -0.000001 0.041826 -0.999125
vn 0.000347 0.201165 -0.979557
vn 0.000322 0.406145 -0.913809
vn -0.000375 0.585625 -0.810582
vn -0.000123 0.734182 -0.678952
vn 0.002004 0.883264 -0.468871
vn 0.000170 0.975811 -0.218617
vn 0.362649 0.800119 -0.477802
vn 0.000000 1.000000 0.000000
vn 0.604577 0.000000 0.796547
vn 0.616702 -0.002334 0.787193
vn 0.507902 -0.559999 -0.654551
vn 0.263039 -0.894426 0.361679
vn 0.612587 0.000000 0.790403
vn 0.424972 0.707152 -0.565097
vn 0.273952 0.894426 0.353485
vn 0.588172 0.000000 0.808736
vn 0.621507 0.004869 -0.783394
vn 0.612663 0.002803 0.790339
vn 0.247407 -0.910418 -0.331557
vn 0.415901 -0.707105 0.571864
vn 0.636630 0.000000 0.771170
vn 0.528395 -0.557512 0.640296
vn 0.528392 0.557510 0.640300
vn 0.448404 -0.711883 -0.540516
vn 0.447892 0.712661 -0.539914
vn 0.378096 0.832527 -0.404897
vn 0.555086 0.555337 0.619258
vn 0.698511 -0.006724 -0.715567
vn 0.688796 -0.004078 0.724944
vn 0.482348 -0.707269 0.516827
vn 0.482348 0.707269 0.516827
vn 0.676033 0.004078 0.736860
vn 0.545999 -0.600708 -0.583982
vn 0.579855 -0.555337 0.596128
vn 0.484642 -0.707345 -0.514572
vn 0.608624 0.457643 -0.648181
vn 0.602432 -0.557608 0.571095
vn 0.602432 0.557608 0.571095
vn 0.511149 -0.713364 -0.479415
vn 0.512442 0.711627 -0.480614
vn 0.631704 0.566470 -0.529208
vn 0.626350 0.555334 0.547073
vn 0.771928 -0.004191 0.635696
vn 0.541747 -0.707270 0.454180
vn 0.541747 0.707270 0.454180
vn 0.759470 0.006019 -0.650515
vn 0.760733 0.004191 0.649051
vn 0.648079 -0.555334 -0.521150
vn 0.648078 -0.555334 0.521151
vn 0.627836 -0.577156 -0.522220
vn 0.544115 0.707351 -0.451213
vn 0.667392 -0.557662 0.493560
vn 0.667392 0.557662 0.493560
vn 0.566634 -0.711798 -0.415054
vn 0.668824 0.557820 -0.491438
vn 0.592373 0.707752 -0.384944
vn 0.688057 0.555323 0.467112
vn 0.826253 -0.004613 -0.563280
vn 0.843178 -0.004246 0.537617
vn 0.592792 -0.707267 0.385189
vn 0.592792 0.707267 0.385189
vn 0.834299 0.004275 -0.551295
vn 0.833768 0.004246 0.552099
vn 0.706322 -0.555323 -0.439004
vn 0.706322 -0.555323 0.439005
vn 0.594061 -0.707295 -0.383177
vn 0.594061 0.707295 -0.383177
vn 0.613438 -0.708974 0.347922
vn 0.722013 0.557679 0.409502
vn 0.722397 -0.557846 -0.408596
vn 0.722397 0.557846 -0.408596
vn 0.739120 0.555305 -0.381232
vn 0.739120 0.555305 0.381232
vn 0.901406 -0.004241 -0.432954
vn 0.901404 -0.004242 0.432958
vn 0.634681 -0.707254 -0.311402
vn 0.634668 -0.707263 0.311408
vn 0.634681 0.707254 -0.311402
vn 0.634668 0.707263 0.311408
vn 0.893907 0.004241 -0.448232
vn 0.893905 0.004242 0.448236
vn 0.753676 -0.555305 -0.351580
vn 0.753677 -0.555305 0.351579
vn 0.765091 -0.557817 -0.321677
vn 0.765091 0.557817 -0.321677
vn 0.765569 -0.557651 0.320827
vn 0.650446 0.708956 0.272582
vn 0.666121 -0.707293 -0.236684
vn 0.666121 0.707293 -0.236684
vn 0.778955 0.555282 -0.291360
vn 0.778955 0.555282 0.291360
vn 0.945725 -0.004212 -0.324942
vn 0.946028 -0.004179 0.324059
vn 0.666924 -0.707257 0.234520
vn 0.666924 0.707257 0.234520
vn 0.940170 0.004212 -0.340679
vn 0.940488 0.004179 0.339801
vn 0.789710 -0.555282 -0.260807
vn 0.789710 -0.555282 0.260807
vn 0.797006 -0.557741 -0.231747
vn 0.677154 0.709009 -0.196898
vn 0.677816 -0.708914 0.194953
vn 0.797777 0.557585 0.229457
vn 0.540188 -0.832192 -0.125114
vn 0.688655 0.707329 -0.159500
vn 0.807430 0.555256 -0.199368
vn 0.807430 0.555256 0.199368
vn 0.976714 -0.004124 -0.214506
vn 0.977020 -0.004059 0.213109
vn 0.689520 -0.707251 0.156071
vn 0.689520 0.707251 0.156071
vn 0.973085 0.004123 -0.230409
vn 0.973414 0.004059 0.229017
vn 0.814433 -0.555256 -0.168493
vn 0.814433 -0.555256 0.168493
vn 0.818298 -0.557528 -0.139827
vn 0.818298 0.557528 -0.139827
vn 0.818789 -0.557480 0.137112
vn 0.818789 0.557480 0.137112
vn 0.702311 -0.707310 -0.080452
vn 0.702311 0.707310 -0.080452
vn 0.824793 0.555228 -0.106955
vn 0.824793 0.555228 0.106955
vn 0.994640 -0.003940 -0.103323
vn 0.994763 -0.003891 0.102136
vn 0.702706 -0.707244 0.077529
vn 0.702706 0.707244 0.077529
vn 0.994156 0.004968 -0.107835
vn 0.993014 0.003891 0.117931
vn 0.702258 -0.707653 -0.077854
vn 0.828191 -0.555228 0.076299
vn 0.829076 -0.557177 -0.046755
vn 0.550465 0.834265 -0.031461
vn 0.829036 -0.557349 0.045408
vn 0.829036 0.557349 0.045408
vn 0.894024 0.447348 -0.024517
vn 0.706516 0.707225 0.025839
vn 0.999732 -0.002215 -0.023035
vn 0.999737 -0.002213 0.022815
vn 0.000000 -0.999984 -0.005696
vn 0.706999 -0.707143 -0.010100
vn 0.707048 -0.707136 0.006421
vn 0.000000 -0.999780 0.020960
vn -0.000917 -0.990449 0.137875
vn 0.001718 -0.967090 0.254428
vn 0.004838 -0.939447 0.342659
vn 0.001917 -0.903421 0.428751
vn 0.000000 -0.857503 0.514478
vn 0.000672 -0.802082 0.597214
vn 0.000000 -0.736987 0.675907
vn 0.000683 -0.663031 0.748592
vn 0.000000 -0.580736 0.814092
vn 0.000667 -0.491637 0.870800
vn 0.000000 -0.396845 0.917886
vn 0.000623 -0.298789 0.954319
vn 0.000000 -0.198516 0.980098
vn 0.000558 -0.099009 0.995086
vn 0.000000 -0.019625 0.999807
vn 0.000000 0.019625 0.999807
vn 0.001643 0.098722 0.995114
vn 0.001749 0.197307 0.980340
vn 0.001894 0.298586 0.954381
vn 0.000000 0.396845 0.917886
vn 0.000667 0.491637 0.870800
vn 0.000000 0.580652 0.814152
vn 0.000685 0.663037 0.748587
vn 0.000000 0.736980 0.675915
vn 0.000673 0.802006 0.597315
vn 0.000000 0.857577 0.514356
vn 0.000633 0.903389 0.428822
vn 0.000000 0.939776 0.341790
vn 0.000579 0.967051 0.254582
vn -0.000938 0.988493 0.151265
vn 0.000000 0.999981 -0.006118
vn 0.891892 0.451866 -0.018597
vn 0.554613 0.832074 0.007556
vn -0.000312 0.999797 0.020157
vn 0.999623 0.001897 0.027388
vn 0.894024 -0.447348 -0.024517
vn 0.554347 -0.832147 0.015202
vn -0.000667 -0.996469 -0.083956
vn -0.000653 0.996493 -0.083676
vn -0.000285 -0.983741 -0.179591
vn -0.000286 0.983786 -0.179343
vn 0.000325 -0.963875 -0.266354
vn 0.001141 0.962276 -0.272072
vn 0.000097 -0.933164 -0.359452
vn 0.002500 0.935107 -0.354356
vn 0.000429 -0.898472 -0.439031
vn 0.000807 0.896058 -0.443936
vn 0.000055 -0.850807 -0.525479
vn 0.000048 0.850728 -0.525606
vn 0.000506 -0.799063 -0.601247
vn 0.000498 0.799090 -0.601212
vn -0.000004 -0.736497 -0.676441
vn 0.000003 0.736504 -0.676433
vn 0.000621 -0.666196 -0.745777
vn 0.000617 0.666135 -0.745831
vn 0.000061 -0.591014 -0.806662
vn 0.000060 0.591013 -0.806662
vn 0.000745 -0.501985 -0.864876
vn 0.000740 0.502032 -0.864848
vn 0.000165 -0.415931 -0.909396
vn 0.000168 0.415947 -0.909389
vn 0.001278 -0.318613 -0.947884
vn 0.000726 0.312054 -0.950064
vn 0.000836 -0.233172 -0.972435
vn 0.000126 0.215617 -0.976478
vn -0.000421 -0.102637 -0.994719
vn 0.001616 0.107003 -0.994257
vn 0.000000 -0.021806 -0.999762
vn 0.001869 0.034843 -0.999391
vn -0.000610 -0.999742 0.022725
vn 0.000068 0.999870 -0.016154
vn -0.371250 0.928448 -0.012512
vn -0.262896 0.964752 0.011819
vn -0.216765 -0.976094 -0.015940
vn -0.351015 -0.936294 0.011869
vn -0.062089 -0.975126 -0.212779
vn -0.082213 -0.964068 0.252613
vn -0.072444 -0.934678 -0.348037
vn -0.029936 -0.850782 -0.524666
vn -0.097389 -0.876516 0.471419
vn -0.008758 -0.731566 -0.681715
vn -0.008970 -0.731688 0.681581
vn 0.001976 -0.584308 -0.811530
vn 0.001546 -0.581347 0.813654
vn 0.004774 -0.404457 -0.914544
vn 0.003647 -0.402683 0.915332
vn 0.002568 -0.210373 0.977618
vn 0.000556 -0.038518 -0.999258
vn 0.000607 -0.049482 0.998775
vn 0.001258 0.056331 0.998411
vn 0.003394 0.195186 -0.980760
vn 0.004272 0.408207 -0.912880
vn 0.003875 0.377787 0.925884
vn 0.001964 0.584294 -0.811540
vn 0.001538 0.581309 0.813682
vn -0.008790 0.731536 -0.681746
vn -0.009003 0.731654 0.681617
vn -0.097300 0.874637 -0.474914
vn -0.030099 0.852475 0.521901
vn -0.072525 0.936323 0.343567
vn -0.081032 0.962692 -0.258181
vn -0.062135 0.975907 0.209152
vn -0.514352 0.857402 -0.017435
vn -0.196009 0.980551 0.009968
vn -0.287126 -0.957806 -0.012908
vn -0.341592 -0.939778 0.011513
vn -0.597481 -0.785741 -0.160085
vn -0.598537 -0.787530 0.146799
vn -0.513527 0.845606 -0.145740
vn -0.598130 0.787358 0.149359
vn -0.699245 0.705169 -0.117444
vn -0.824472 0.551774 0.125666
vn -0.700641 -0.705477 -0.106792
vn -0.822950 -0.551043 0.138222
vn -0.721459 -0.625170 -0.297756
vn -0.777792 -0.555067 0.294856
vn -0.777629 0.555285 -0.294875
vn -0.721274 0.625376 0.297774
vn -0.806617 0.550254 0.215845
vn -0.806617 -0.550254 -0.215844
vn -0.669653 -0.605832 -0.429573
vn -0.838500 -0.358590 0.410281
vn -0.838464 0.358659 -0.410294
vn -0.669467 0.606033 0.429580
vn -0.847410 0.438594 -0.299219
vn -0.667466 0.703980 0.242695
vn -0.667467 -0.703980 -0.242694
vn -0.847410 -0.438594 0.299218
vn -0.617259 -0.568062 -0.544331
vn -0.705542 -0.445093 0.551455
vn -0.705547 0.445088 -0.551454
vn -0.617183 0.568143 0.544333
vn -0.761706 0.549144 0.343868
vn -0.761705 -0.549144 -0.343869
vn -0.547197 -0.520298 -0.655641
vn -0.634709 -0.413074 0.653081
vn -0.634660 0.413134 -0.653091
vn -0.547118 0.520376 0.655645
vn -0.686022 0.594469 -0.419500
vn -0.722382 0.549220 0.420144
vn -0.722381 -0.549220 -0.420147
vn -0.766577 -0.438889 0.468760
vn -0.492172 -0.474093 -0.730070
vn -0.485375 -0.471243 0.736438
vn -0.485378 0.471271 -0.736419
vn -0.492174 0.474120 0.730051
vn -0.674480 0.550485 0.491979
vn -0.573270 -0.704637 -0.418149
vn -0.421761 -0.416540 -0.805364
vn -0.496298 -0.330638 0.802725
vn -0.496324 0.330610 -0.802720
vn -0.421799 0.416501 0.805365
vn -0.652512 0.443586 -0.614377
vn -0.619186 0.552421 0.558067
vn -0.619186 -0.552423 -0.558066
vn -0.652512 -0.443586 0.614377
vn -0.412733 -0.305194 -0.858201
vn -0.358647 -0.355159 0.863270
vn -0.358672 0.355127 -0.863273
vn -0.412753 0.305163 0.858202
vn -0.589660 0.447054 0.672639
vn -0.589658 -0.447056 -0.672640
vn -0.495831 0.555075 -0.667865
vn -0.410339 0.707600 0.575260
vn -0.540806 0.006135 -0.841125
vn -0.521182 0.006323 0.853422
vn -0.562086 -0.006370 -0.827054
vn -0.505915 -0.005882 0.862563
vn -0.410338 -0.707603 -0.575257
vn -0.495834 -0.555075 0.667863
vn -0.269310 -0.261922 -0.926752
vn -0.243223 -0.273907 0.930493
vn -0.269315 0.261913 -0.926753
vn -0.243229 0.273899 0.930494
vn -0.346033 0.710138 0.613160
vn -0.408520 -0.556425 -0.723535
vn -0.357143 0.556593 -0.750102
vn -0.278738 0.713855 0.642430
vn -0.405259 0.004457 -0.914191
vn -0.395945 -0.006128 -0.918254
vn -0.280402 -0.707602 -0.648593
vn -0.280108 -0.711650 0.644278
vn -0.169417 -0.168499 -0.971033
vn -0.134155 -0.211167 0.968200
vn -0.169052 0.168456 -0.971105
vn -0.170810 0.185345 0.967714
vn -0.210262 0.709892 0.672193
vn -0.210244 -0.709966 -0.672121
vn -0.197755 0.373728 -0.906212
vn -0.110027 0.832385 0.543166
vn -0.270775 -0.000384 0.962643
vn -0.261469 0.002823 0.965208
vn -0.196714 -0.377242 -0.904982
vn -0.110805 -0.833383 0.541475
vn -0.066059 -0.087353 -0.993985
vn -0.078486 -0.077623 0.993889
vn -0.093084 0.074080 -0.992899
vn -0.068084 0.106213 0.992010
vn -0.069918 0.708098 0.702644
vn -0.069562 -0.709611 -0.701151
vn -0.027631 0.832369 -0.553533
vn -0.013606 0.832127 0.554418
vn -0.059284 -0.000043 -0.998241
vn -0.057729 0.000917 0.998332
vn -0.016320 -0.016320 -0.999734
vn -0.016321 -0.016321 0.999734
vn -0.012292 0.024657 -0.999620
vn -0.012238 0.012238 0.999850
vn -0.065713 -0.001906 -0.997837
vn -0.059466 0.000086 0.998230
vn -0.013604 -0.832133 -0.554409
vn -0.039852 -0.800318 0.598249
vn -0.010772 0.800093 0.599779
vn 0.010970 0.447294 -0.894320
vn 0.010970 0.447294 0.894320
vn -0.008413 0.857554 -0.514326
vn -0.026938 0.000000 0.999637
vn 0.049740 0.000177 -0.998762
vn 0.049743 0.000177 0.998762
vn -0.024533 0.000000 -0.999699
vn -0.026938 0.000000 0.999637
vn 0.049696 -0.000247 0.998764
vn -0.024533 0.000000 -0.999699
vn -0.019044 -0.707233 0.706724
vn 0.027615 -0.372047 -0.927803
vn 0.009812 -0.600087 0.799875
vn -0.017345 -0.707213 -0.706788
vn 0.069970 0.707545 -0.703196
vn 0.059368 0.800327 0.596617
vn 0.054685 -0.832582 -0.551196
vn 0.069973 -0.707545 0.703196
vn -0.068355 0.555124 -0.828954
vn -0.105817 0.000000 -0.994386
vn -0.088803 0.000000 -0.996049
vn -0.081453 -0.707497 -0.702007
vn 0.110027 0.832385 -0.543166
vn 0.110027 0.832385 0.543166
vn 0.214223 0.000375 -0.976785
vn 0.199830 0.000437 0.979831
vn 0.178469 -0.000558 -0.983945
vn 0.199992 -0.000328 0.979797
vn 0.110027 -0.832385 -0.543166
vn 0.110027 -0.832385 0.543166
vn -0.063772 0.707578 0.703752
vn -0.116206 0.000000 0.993225
vn -0.097522 0.000000 0.995233
vn -0.089437 -0.707578 0.700953
vn 0.211130 0.707590 -0.674345
vn 0.211129 0.707590 0.674345
vn 0.211130 -0.707590 -0.674345
vn 0.248483 -0.555313 0.793652
vn -0.128465 0.707518 -0.694921
vn -0.215227 0.000000 -0.976564
vn -0.181783 0.000000 -0.983339
vn -0.152100 -0.707518 -0.690133
vn 0.219908 0.832406 -0.508665
vn 0.219910 0.832406 0.508664
vn 0.411340 0.000410 -0.911482
vn 0.383684 0.000410 0.923464
vn 0.383685 -0.000410 -0.923464
vn 0.411338 -0.000410 0.911483
vn 0.219908 -0.832406 -0.508665
vn 0.219910 -0.832406 0.508664
vn -0.141010 0.707605 0.692396
vn -0.236219 0.000000 0.971700
vn -0.199559 0.000000 0.979886
vn -0.166914 -0.707605 0.686611
vn 0.347408 0.707612 -0.615299
vn 0.347405 0.707612 0.615301
vn 0.347408 -0.707612 -0.615299
vn 0.347405 -0.707612 0.615301
vn 0.321810 0.832407 -0.451150
vn 0.410339 0.707600 0.575260
vn 0.593026 0.000429 -0.805183
vn 0.568461 0.000429 0.822710
vn 0.568461 -0.000429 -0.822710
vn 0.593027 -0.000429 0.805183
vn 0.321810 -0.832407 -0.451150
vn 0.321810 -0.832408 0.451150
vn -0.199206 0.707534 -0.678021
vn -0.315097 0.000000 -0.949060
vn -0.281890 0.000000 -0.959447
vn -0.188912 -0.800348 -0.568995
vn -0.217581 0.707592 0.672289
vn -0.342967 0.000000 0.939348
vn -0.307918 0.000000 0.951413
vn -0.242348 -0.707592 0.663763
vn 0.468515 0.707608 -0.528946
vn 0.468518 0.707608 0.528944
vn 0.468515 -0.707608 -0.528946
vn 0.468518 -0.707608 0.528944
vn 0.408442 0.832390 -0.374569
vn 0.408439 0.832390 0.374572
vn 0.746546 0.000431 -0.665334
vn 0.726637 0.000431 0.687021
vn 0.726638 -0.000431 -0.687021
vn 0.746544 -0.000431 0.665335
vn 0.408442 -0.832390 -0.374569
vn 0.408439 -0.832390 0.374572
vn -0.268971 0.707544 -0.653480
vn -0.412921 0.000000 -0.910767
vn -0.380617 0.000000 -0.924733
vn -0.291799 -0.707544 -0.643611
vn 0.566737 0.707582 -0.422062
vn 0.566735 0.707583 0.422064
vn 0.566737 -0.707582 -0.422062
vn 0.566735 -0.707583 0.422064
vn -0.289958 0.707558 0.644427
vn -0.442670 0.000000 0.896685
vn -0.410325 0.000000 0.911939
vn -0.312815 -0.707558 0.633647
vn 0.475267 0.832361 -0.285125
vn 0.475268 0.832361 0.285123
vn 0.864195 0.000415 -0.503157
vn 0.849686 0.000415 0.527289
vn 0.849686 -0.000415 -0.527289
vn 0.864196 -0.000415 0.503156
vn 0.475267 -0.832361 -0.285125
vn 0.475268 -0.832361 0.285123
vn 0.638387 0.707543 -0.303060
vn 0.638388 0.707543 0.303058
vn 0.638387 -0.707543 -0.303060
vn 0.638388 -0.707543 0.303058
vn -0.336385 0.707548 -0.621467
vn -0.506805 0.000000 -0.862061
vn -0.476017 0.000000 -0.879436
vn -0.358141 -0.707548 -0.609189
vn 0.520919 0.832327 -0.189408
vn 0.520918 0.832327 0.189409
vn 0.943840 0.000385 -0.330401
vn 0.934728 0.000385 0.355364
vn 0.934728 -0.000385 -0.355365
vn 0.943841 -0.000385 0.330401
vn 0.520919 -0.832327 -0.189408
vn 0.520918 -0.832327 0.189409
vn 0.579867 0.800287 -0.152628
vn 0.683438 0.707497 0.179890
vn 0.579867 -0.800287 -0.152628
vn 0.683438 -0.707497 0.179890
vn -0.356780 0.707539 0.609997
vn -0.534756 0.000000 0.845006
vn -0.504873 0.000000 0.863194
vn -0.377899 -0.707539 0.597144
vn 0.547850 0.832577 -0.081712
vn 0.547850 0.832577 0.081712
vn 0.986710 0.000214 -0.162493
vn 0.986400 0.000161 0.164365
vn 0.981580 -0.000214 -0.191050
vn 0.986710 -0.000214 0.162493
vn 0.700801 -0.707753 -0.089238
vn 0.547850 -0.832577 0.081712
vn 0.799042 0.600338 -0.033551
vn 0.598761 0.800225 0.033542
vn 0.999437 0.000000 0.033561
vn 0.998850 0.000000 -0.047945
vn 0.999120 0.000000 0.041952
vn 0.706554 -0.707384 -0.019767
vn 0.598761 -0.800225 0.033542
vn -0.339496 0.800357 -0.494137
vn -0.594966 0.000000 -0.803751
vn -0.566277 0.000000 -0.824215
vn -0.420443 -0.707545 -0.567985
vn -0.418212 0.707518 0.569663
vn -0.618965 0.000000 0.785419
vn -0.591786 0.000000 0.806095
vn -0.437419 -0.707518 0.555051
vn -0.459180 0.707537 -0.537164
vn -0.675907 0.000000 -0.736987
vn -0.649774 0.000000 -0.760128
vn -0.477647 -0.707537 -0.520811
vn -0.473801 0.707498 0.524365
vn -0.694749 0.000000 0.719253
vn -0.670427 0.000000 0.741975
vn -0.490990 -0.707498 0.508307
vn -0.512534 0.707524 -0.486537
vn -0.748507 0.000000 -0.663127
vn -0.725261 0.000000 -0.688474
vn -0.528961 -0.707524 -0.468625
vn -0.523297 0.707478 0.475009
vn -0.761857 0.000000 0.647745
vn -0.740444 0.000000 0.672118
vn -0.538431 -0.707478 0.457784
vn -0.559599 0.707508 -0.431604
vn -0.811967 0.000000 -0.583703
vn -0.791841 0.000000 -0.610727
vn -0.573822 -0.707508 -0.412506
vn -0.566629 0.707460 0.422412
vn -0.820240 0.000000 0.572019
vn -0.801735 0.000000 0.597679
vn -0.579707 -0.707460 0.404277
vn -0.599981 0.707488 -0.373474
vn -0.865872 0.000000 -0.500266
vn -0.848960 0.000000 -0.528458
vn -0.611933 -0.707488 -0.353551
vn -0.603846 0.707445 0.367276
vn -0.870044 0.000000 0.492974
vn -0.854376 0.000000 0.519655
vn -0.614920 -0.707445 0.348419
vn -0.633553 0.707467 -0.313210
vn -0.910142 0.000000 -0.414297
vn -0.896437 0.000000 -0.443172
vn -0.643239 -0.707467 -0.292803
vn -0.635209 0.707440 0.309900
vn -0.911790 0.000000 0.410656
vn -0.898745 0.000000 0.438472
vn -0.644429 -0.707440 0.290241
vn -0.660396 0.707446 -0.251786
vn -0.944989 0.000000 -0.327102
vn -0.934390 0.000000 -0.356251
vn -0.667887 -0.707447 -0.231185
vn -0.660935 0.707432 0.250411
vn -0.945451 0.000000 0.325763
vn -0.935133 0.000000 0.354297
vn -0.668228 -0.707432 0.230243
vn -0.801226 0.555033 0.223553
vn -0.970703 0.000000 0.240284
vn -0.963210 0.000000 0.268748
vn -0.807458 -0.555033 0.199875
vn -0.680756 0.707425 -0.190056
vn -0.970806 0.000000 -0.239864
vn -0.963168 0.000000 -0.268900
vn -0.686155 -0.707425 -0.169533
vn -0.694784 0.707393 0.129890
vn -0.987801 0.000000 0.155723
vn -0.982970 0.000000 0.183766
vn -0.698198 -0.707393 0.110069
vn -0.696338 0.707754 -0.119154
vn -0.990874 0.000000 -0.134794
vn -0.987664 0.000000 -0.156589
vn -0.700802 -0.707754 -0.089227
vn -0.703319 0.707390 0.070295
vn -0.997041 0.000000 0.076873
vn -0.995815 0.000000 0.091394
vn -0.705028 -0.707390 0.050342
vn -0.706744 0.707179 0.020253
vn -0.893483 0.447528 -0.037497
vn -0.999769 0.000000 0.021485
vn -0.999121 0.000000 -0.041930
vn -0.999769 0.000000 0.021485
vn -0.999121 0.000000 -0.041930
vn -0.706962 -0.707179 0.010127
vn -0.706174 -0.707418 -0.029636

f 81//81 50//50 52//52
f 275//275 276//276 81//81
f 52//52 54//54 81//81
f 81//81 48//48 50//50
f 44//44 46//46 83//83
f 82//82 46//46 48//48
f 46//46 82//82 83//83
f 81//81 82//82 48//48
f 84//84 44//44 83//83
f 81//81 277//277 278//278
f 279//279 82//82 278//278
f 276//276 277//277 81//81
f 280//280 281//281 82//82
f 82//82 279//279 280//280
f 83//83 281//281 282//282
f 83//83 282//282 283//283
f 84//84 83//83 283//283
f 83//83 82//82 281//281
f 42//42 44//44 84//84
f 38//38 40//40 85//85
f 40//40 84//84 85//85
f 42//42 84//84 40//40
f 36//36 38//38 85//85
f 86//86 28//28 30//30
f 32//32 34//34 86//86
f 30//30 32//32 86//86
f 85//85 34//34 36//36
f 26//26 28//28 87//87
f 284//284 285//285 84//84
f 85//85 84//84 285//285
f 85//85 285//285 286//286
f 85//85 286//286 287//287
f 287//287 86//86 85//85
f 86//86 289//289 87//87
f 28//28 86//86 87//87
f 86//86 288//288 289//289
f 287//287 288//288 86//86
f 86//86 34//34 85//85
f 283//283 284//284 84//84
f 27//27 88//88 29//29
f 31//31 29//29 88//88
f 88//88 33//33 31//31
f 37//37 35//35 89//89
f 39//39 89//89 41//41
f 37//37 89//89 39//39
f 89//89 35//35 33//33
f 41//41 90//90 43//43
f 292//292 88//88 291//291
f 88//88 292//292 293//293
f 293//293 294//294 89//89
f 89//89 88//88 293//293
f 89//89 295//295 296//296
f 41//41 89//89 90//90
f 90//90 296//296 297//297
f 298//298 90//90 297//297
f 294//294 295//295 89//89
f 89//89 33//33 88//88
f 45//45 43//43 90//90
f 91//91 47//47 45//45
f 91//91 299//299 300//300
f 47//47 91//91 92//92
f 92//92 49//49 47//47
f 90//90 298//298 91//91
f 93//93 51//51 49//49
f 51//51 94//94 53//53
f 93//93 94//94 51//51
f 55//55 53//53 94//94
f 92//92 93//93 49//49
f 92//92 301//301 302//302
f 299//299 91//91 298//298
f 301//301 92//92 300//300
f 303//303 304//304 93//93
f 93//93 302//302 303//303
f 94//94 304//304 305//305
f 94//94 305//305 309//309
f 309//309 55//55 94//94
f 94//94 93//93 304//304
f 45//45 90//90 91//91
f 13//13 8//8 7//7
f 14//14 9//9 8//8
f 18//18 13//13 12//12
f 19//19 14//14 13//13
f 2//2 1//1 6//6
f 11//11 12//12 7//7
f 12//12 11//11 16//16
f 7//7 8//8 3//3
f 4//4 3//3 8//8
f 5//5 4//4 9//9
f 10//10 9//9 14//14
f 17//17 16//16 21//21
f 18//18 17//17 22//22
f 23//23 24//24 19//19
f 15//15 14//14 19//19
f 24//24 25//25 20//20
f 68//68 67//67 72//72
f 69//69 68//68 73//73
f 63//63 62//62 67//67
f 64//64 63//63 68//68
f 77//77 72//72 71//71
f 66//66 71//71 72//72
f 67//67 62//62 61//61
f 72//72 77//77 78//78
f 79//79 74//74 73//73
f 80//80 75//75 74//74
f 75//75 70//70 69//69
f 62//62 57//57 56//56
f 63//63 58//58 57//57
f 58//58 63//63 64//64
f 70//70 65//65 64//64
f 59//59 64//64 65//65
f 157//157 146//146 149//149
f 168//168 157//157 149//149
f 168//168 178//178 172//172
f 187//187 183//183 178//178
f 194//194 199//199 187//187
f 172//172 178//178 183//183
f 203//203 199//199 194//194
f 149//149 165//165 168//168
f 165//165 178//178 168//168
f 149//149 151//151 165//165
f 165//165 180//180 178//178
f 196//196 214//214 212//212
f 187//187 178//178 194//194
f 194//194 178//178 180//180
f 210//210 203//203 212//212
f 194//194 212//212 203//203
f 221//221 217//217 228//228
f 233//233 221//221 228//228
f 233//233 244//244 237//237
f 253//253 249//249 260//260
f 260//260 265//265 253//253
f 237//237 244//244 249//249
f 307//307 265//265 260//260
f 228//228 212//212 214//214
f 217//217 212//212 228//228
f 230//230 246//246 244//244
f 260//260 244//244 246//246
f 249//249 244//244 260//260
f 260//260 262//262 311//311
f 311//311 307//307 260//260
f 244//244 233//233 228//228
f 210//210 212//212 217//217
f 123//123 143//143 139//139
f 139//139 119//119 121//121
f 139//139 121//121 123//123
f 119//119 139//139 56//56
f 117//117 119//119 56//56
f 56//56 109//109 111//111
f 56//56 111//111 113//113
f 56//56 113//113 115//115
f 115//115 117//117 56//56
f 56//56 105//105 107//107
f 101//101 103//103 56//56
f 105//105 56//56 103//103
f 99//99 101//101 56//56
f 109//109 56//56 107//107
f 97//97 56//56 95//95
f 57//57 58//58 95//95
f 95//95 58//58 96//96
f 95//95 56//56 57//57
f 99//99 56//56 97//97
f 120//120 118//118 60//60
f 60//60 116//116 114//114
f 60//60 114//114 112//112
f 60//60 118//118 116//116
f 124//124 149//149 146//146
f 151//151 124//124 122//122
f 149//149 124//124 151//151
f 120//120 151//151 122//122
f 120//120 60//60 151//151
f 100//100 98//98 60//60
f 96//96 59//59 60//60
f 96//96 58//58 59//59
f 96//96 60//60 98//98
f 60//60 102//102 100//100
f 60//60 110//110 108//108
f 60//60 106//106 104//104
f 108//108 106//106 60//60
f 102//102 60//60 104//104
f 60//60 112//112 110//110
f 160//160 158//158 139//139
f 160//160 143//143 156//156
f 139//139 143//143 160//160
f 160//160 173//173 158//158
f 190//190 188//188 173//173
f 190//190 202//202 206//206
f 190//190 206//206 204//204
f 160//160 190//190 173//173
f 190//190 160//160 182//182
f 160//160 156//156 167//167
f 160//160 171//171 182//182
f 171//171 160//160 167//167
f 190//190 186//186 198//198
f 202//202 208//208 206//206
f 202//202 190//190 198//198
f 186//186 190//190 182//182
f 224//224 240//240 238//238
f 216//216 224//224 206//206
f 222//222 204//204 206//206
f 256//256 270//270 268//268
f 248//248 256//256 240//240
f 254//254 238//238 240//240
f 232//232 240//240 224//224
f 220//220 224//224 216//216
f 236//236 240//240 232//232
f 220//220 232//232 224//224
f 248//248 252//252 256//256
f 240//240 236//236 248//248
f 264//264 256//256 252//252
f 270//270 264//264 273//273
f 270//270 256//256 264//264
f 208//208 216//216 206//206
f 95//95 131//131 97//97
f 99//99 97//97 131//131
f 131//131 101//101 99//99
f 105//105 103//103 130//130
f 107//107 130//130 109//109
f 130//130 107//107 105//105
f 101//101 130//130 103//103
f 129//129 111//111 109//109
f 337//337 130//130 339//339
f 101//101 131//131 339//339
f 343//343 341//341 131//131
f 339//339 131//131 341//341
f 333//333 129//129 130//130
f 109//109 130//130 129//129
f 335//335 333//333 130//130
f 331//331 129//129 333//333
f 329//329 129//129 331//331
f 337//337 335//335 130//130
f 339//339 130//130 101//101
f 128//128 111//111 129//129
f 128//128 115//115 113//113
f 128//128 127//127 115//115
f 117//117 115//115 127//127
f 126//126 117//117 127//127
f 325//325 127//127 128//128
f 129//129 329//329 128//128
f 125//125 121//121 119//119
f 126//126 125//125 119//119
f 123//123 121//121 125//125
f 313//313 123//123 125//125
f 317//317 125//125 126//126
f 117//117 126//126 119//119
f 321//321 126//126 127//127
f 127//127 323//323 321//321
f 128//128 329//329 327//327
f 128//128 327//327 325//325
f 127//127 325//325 323//323
f 123//123 313//313 272//272
f 126//126 319//319 317//317
f 125//125 317//317 315//315
f 125//125 315//315 313//313
f 319//319 126//126 321//321
f 113//113 111//111 128//128
f 138//138 120//120 122//122
f 314//314 138//138 124//124
f 122//122 124//124 138//138
f 118//118 120//120 137//137
f 136//136 114//114 116//116
f 118//118 137//137 116//116
f 136//136 116//116 137//137
f 326//326 136//136 137//137
f 137//137 120//120 138//138
f 330//330 135//135 136//136
f 137//137 138//138 320//320
f 124//124 306//306 314//314
f 138//138 316//316 318//318
f 320//320 138//138 318//318
f 316//316 138//138 314//314
f 137//137 322//322 324//324
f 136//136 326//326 328//328
f 136//136 328//328 330//330
f 326//326 137//137 324//324
f 322//322 137//137 320//320
f 112//112 114//114 136//136
f 108//108 110//110 134//134
f 135//135 110//110 112//112
f 110//110 135//135 134//134
f 330//330 332//332 135//135
f 106//106 108//108 134//134
f 133//133 98//98 100//100
f 102//102 104//104 133//133
f 100//100 102//102 133//133
f 134//134 104//104 106//106
f 96//96 98//98 132//132
f 332//332 334//334 135//135
f 134//134 135//135 334//334
f 334//334 336//336 134//134
f 338//338 134//134 336//336
f 338//338 133//133 134//134
f 342//342 132//132 133//133
f 98//98 133//133 132//132
f 340//340 342//342 133//133
f 344//344 132//132 342//342
f 338//338 340//340 133//133
f 133//133 104//104 134//134
f 112//112 136//136 135//135
f 271//271 274//274 266//266
f 257//257 258//258 250//250
f 257//257 266//266 258//258
f 241//241 242//242 234//234
f 225//225 226//226 218//218
f 225//225 234//234 226//226
f 241//241 250//250 242//242
f 257//257 255//255 269//269
f 257//257 271//271 266//266
f 255//255 257//257 241//241
f 241//241 234//234 225//225
f 250//250 241//241 257//257
f 225//225 223//223 239//239
f 223//223 225//225 207//207
f 209//209 207//207 218//218
f 218//218 207//207 225//225
f 191//191 207//207 200//200
f 192//192 184//184 191//191
f 209//209 200//200 207//207
f 176//176 175//175 184//184
f 162//162 161//161 169//169
f 154//154 161//161 162//162
f 169//169 175//175 176//176
f 145//145 142//142 154//154
f 189//189 191//191 175//175
f 184//184 175//175 191//191
f 191//191 189//189 205//205
f 142//142 141//141 159//159
f 154//154 142//142 161//161
f 161//161 159//159 174//174
f 161//161 175//175 169//169
f 263//263 261//261 310//310
f 310//310 261//261 267//267
f 261//261 263//263 247//247
f 231//231 229//229 245//245
f 245//245 229//229 235//235
f 229//229 213//213 219//219
f 261//261 245//245 251//251
f 310//310 267//267 308//308
f 261//261 251//251 259//259
f 245//245 235//235 243//243
f 229//229 219//219 227//227
f 229//229 231//231 215//215
f 197//197 195//195 213//213
f 213//213 195//195 201//201
f 195//195 197//197 181//181
f 166//166 164//164 179//179
f 164//164 166//166 153//153
f 179//179 164//164 170//170
f 195//195 179//179 185//185
f 193//193 195//195 185//185
f 179//179 170//170 177//177
f 155//155 163//163 164//164
f 150//150 147//147 155//155
f 150//150 155//155 164//164
f 211//211 213//213 201//201
f 716//716 714//714 715//715
f 714//714 712//712 713//713
f 712//712 710//710 711//711
f 699//699 707//707 708//708
f 691//691 699//699 700//700
f 687//687 691//691 692//692
f 679//679 687//687 688//688
f 671//671 679//679 680//680
f 663//663 671//671 672//672
f 655//655 663//663 664//664
f 647//647 655//655 656//656
f 639//639 647//647 648//648
f 616//616 639//639 640//640
f 584//584 616//616 617//617
f 560//560 584//584 585//585
f 540//540 560//560 561//561
f 520//520 540//540 541//541
f 709//709 708//708 714//714
f 693//693 692//692 700//700
f 701//701 700//700 708//708
f 681//681 680//680 688//688
f 665//665 664//664 672//672
f 673//673 672//672 680//680
f 689//689 688//688 692//692
f 708//708 707//707 712//712
f 657//657 656//656 664//664
f 641//641 640//640 648//648
f 586//586 585//585 617//617
f 618//618 617//617 640//640
f 542//542 541//541 561//561
f 499//499 496//496 521//521
f 522//522 521//521 541//541
f 562//562 561//561 585//585
f 656//656 657//657 649//649
f 496//496 492//492 520//520
f 707//707 706//706 710//710
f 691//691 690//690 698//698
f 699//699 698//698 706//706
f 679//679 678//678 686//686
f 663//663 662//662 670//670
f 671//671 670//670 678//678
f 687//687 686//686 690//690
f 655//655 654//654 662//662
f 639//639 638//638 646//646
f 584//584 583//583 615//615
f 616//616 615//615 638//638
f 540//540 539//539 559//559
f 492//492 488//488 519//519
f 520//520 519//519 539//539
f 560//560 559//559 583//583
f 654//654 655//655 647//647
f 695//695 696//696 704//704
f 683//683 684//684 696//696
f 675//675 676//676 684//684
f 667//667 668//668 676//676
f 659//659 660//660 668//668
f 651//651 652//652 660//660
f 643//643 644//644 652//652
f 635//635 636//636 644//644
f 600//600 601//601 636//636
f 576//576 577//577 601//601
f 556//556 557//557 577//577
f 528//528 529//529 557//557
f 508//508 509//509 529//529
f 705//705 717//717 715//715
f 685//685 697//697 696//696
f 697//697 705//705 704//704
f 669//669 677//677 676//676
f 653//653 661//661 660//660
f 661//661 669//669 668//668
f 677//677 685//685 684//684
f 704//704 715//715 713//713
f 652//652 644//644 645//645
f 637//637 645//645 644//644
f 578//578 602//602 601//601
f 602//602 637//637 636//636
f 530//530 558//558 557//557
f 502//502 510//510 509//509
f 510//510 530//530 529//529
f 558//558 578//578 577//577
f 498//498 509//509 508//508
f 703//703 713//713 711//711
f 683//683 695//695 694//694
f 695//695 703//703 702//702
f 667//667 675//675 674//674
f 651//651 659//659 658//658
f 659//659 667//667 666//666
f 675//675 683//683 682//682
f 650//650 642//642 643//643
f 635//635 643//643 642//642
f 576//576 600//600 599//599
f 600//600 635//635 634//634
f 528//528 556//556 555//555
f 495//495 508//508 507//507
f 508//508 528//528 527//527
f 556//556 576//576 575//575
f 394//394 397//397 391//391
f 348//348 383//383 350//350
f 383//383 387//387 391//391
f 429//429 425//425 419//419
f 415//415 411//411 405//405
f 411//411 422//422 419//419
f 408//408 405//405 397//397
f 383//383 348//348 387//387
f 397//397 394//394 401//401
f 394//394 391//391 387//387
f 405//405 408//408 415//415
f 419//419 422//422 429//429
f 422//422 411//411 415//415
f 408//408 397//397 401//401
f 429//429 436//436 425//425
f 447//447 466//466 459//459
f 436//436 441//441 433//433
f 447//447 433//433 441//441
f 447//447 441//441 466//466
f 479//479 481//481 471//471
f 474//474 479//479 466//466
f 471//471 466//466 479//479
f 459//459 466//466 471//471
f 441//441 453//453 466//466
f 441//441 436//436 439//439
f 453//453 441//441 450//450
f 450//450 441//441 439//439
f 466//466 462//462 465//465
f 479//479 474//474 477//477
f 474//474 466//466 465//465
f 425//425 436//436 433//433
f 534//534 536//536 516//516
f 550//550 552//552 536//536
f 570//570 572//572 552//552
f 590//590 592//592 572//572
f 606//606 608//608 592//592
f 622//622 624//624 608//608
f 497//497 506//506 501//501
f 516//516 518//518 506//506
f 497//497 516//516 506//506
f 526//526 518//518 516//516
f 536//536 538//538 526//526
f 516//516 497//497 494//494
f 536//536 546//546 538//538
f 552//552 546//546 536//536
f 554//554 552//552 566//566
f 552//552 554//554 546//546
f 566//566 552//552 572//572
f 504//504 494//494 490//490
f 514//514 494//494 504//504
f 514//514 504//504 512//512
f 514//514 512//512 524//524
f 514//514 524//524 534//534
f 534//534 532//532 544//544
f 550//550 548//548 564//564
f 548//548 550//550 544//544
f 564//564 570//570 550//550
f 566//566 572//572 574//574
f 592//592 594//594 582//582
f 592//592 598//598 594//594
f 582//582 572//572 592//592
f 598//598 592//592 608//608
f 608//608 610//610 598//598
f 574//574 572//572 582//582
f 624//624 626//626 614//614
f 633//633 626//626 624//624
f 631//631 624//624 622//622
f 610//610 608//608 614//614
f 580//580 570//570 568//568
f 590//590 570//570 580//580
f 564//564 568//568 570//570
f 590//590 580//580 588//588
f 590//590 588//588 596//596
f 596//596 606//606 590//590
f 612//612 622//622 606//606
f 622//622 620//620 628//628
f 606//606 604//604 612//612
f 620//620 622//622 612//612
f 596//596 604//604 606//606
f 631//631 630//630 632//632
f 630//630 631//631 629//629
f 630//630 629//629 627//627
f 627//627 629//629 628//628
f 605//605 607//607 623//623
f 589//589 591//591 607//607
f 569//569 571//571 591//591
f 549//549 551//551 571//571
f 533//533 535//535 551//551
f 513//513 515//515 535//535
f 625//625 632//632 630//630
f 623//623 613//613 625//625
f 613//613 623//623 607//607
f 609//609 613//613 607//607
f 621//621 623//623 630//630
f 591//591 593//593 597//597
f 591//591 581//581 593//593
f 591//591 597//597 607//607
f 571//571 573//573 581//581
f 621//621 627//627 619//619
f 630//630 627//627 621//621
f 605//605 621//621 611//611
f 621//621 619//619 611//611
f 605//605 611//611 603//603
f 603//603 595//595 605//605
f 589//589 595//595 587//587
f 605//605 595//595 589//589
f 589//589 579//579 569//569
f 589//589 587//587 579//579
f 571//571 565//565 573//573
f 551//551 553//553 565//565
f 551//551 545//545 553//553
f 545//545 551//551 535//535
f 537//537 545//545 535//535
f 565//565 571//571 551//551
f 515//515 517//517 525//525
f 515//515 505//505 517//517
f 515//515 525//525 535//535
f 500//500 505//505 515//515
f 493//493 500//500 515//515
f 549//549 563//563 547//547
f 569//569 567//567 563//563
f 549//549 543//543 533//533
f 549//549 547//547 543//543
f 531//531 523//523 533//533
f 513//513 523//523 511//511
f 533//533 523//523 513//513
f 515//515 513//513 493//493
f 513//513 511//511 503//503
f 493//493 503//503 489//489
f 484//484 475//475 486//486
f 455//455 463//463 468//468
f 484//484 468//468 475//475
f 455//455 451//451 456//456
f 442//442 437//437 444//444
f 442//442 444//444 451//451
f 455//455 456//456 463//463
f 472//472 460//460 468//468
f 468//468 484//484 472//472
f 484//484 482//482 472//472
f 448//448 442//442 455//455
f 451//451 455//455 442//442
f 442//442 448//448 434//434
f 434//434 437//437 442//442
f 460//460 448//448 455//455
f 468//468 460//460 455//455
f 434//434 426//426 437//437
f 420//420 423//423 430//430
f 406//406 409//409 416//416
f 412//412 416//416 423//423
f 398//398 395//395 402//402
f 384//384 380//380 388//388
f 392//392 388//388 395//395
f 398//398 402//402 409//409
f 416//416 412//412 406//406
f 430//430 426//426 420//420
f 423//423 420//420 412//412
f 380//380 384//384 378//378
f 395//395 398//398 392//392
f 388//388 392//392 384//384
f 398//398 409//409 406//406
f 437//437 426//426 430//430
f 378//378 379//379 381//381
f 379//379 385//385 381//381
f 389//389 381//381 385//385
f 393//393 389//389 385//385
f 403//403 389//389 393//393
f 417//417 403//403 407//407
f 403//403 393//393 399//399
f 403//403 399//399 407//407
f 417//417 413//413 421//421
f 421//421 427//427 431//431
f 413//413 417//417 407//407
f 431//431 417//417 421//421
f 445//445 431//431 435//435
f 457//457 445//445 443//443
f 443//443 445//445 435//435
f 457//457 443//443 467//467
f 469//469 457//457 467//467
f 487//487 469//469 467//467
f 449//449 443//443 435//435
f 443//443 449//449 467//467
f 473//473 485//485 467//467
f 485//485 473//473 483//483
f 461//461 473//473 467//467
f 461//461 467//467 449//449
f 427//427 435//435 431//431
f 478//478 470//470 480//480
f 470//470 478//478 464//464
f 446//446 458//458 454//454
f 458//458 470//470 464//464
f 432//432 446//446 440//440
f 476//476 464//464 478//478
f 454//454 458//458 464//464
f 452//452 454//454 464//464
f 440//440 454//454 452//452
f 432//432 440//440 438//438
f 440//440 446//446 454//454
f 438//438 428//428 432//432
f 414//414 410//410 418//418
f 428//428 418//418 424//424
f 400//400 390//390 396//396
f 400//400 396//396 404//404
f 414//414 404//404 410//410
f 414//414 418//418 428//428
f 400//400 404//404 414//414
f 347//347 349//349 382//382
f 382//382 386//386 347//347
f 390//390 400//400 386//386
f 382//382 390//390 386//386
f 432//432 428//428 424//424
f 347//347 348//348 350//350
f 360//360 337//337 339//339
f 363//363 341//341 343//343
f 341//341 470//470 339//339
f 356//356 327//327 329//329
f 358//358 331//331 333//333
f 360//360 333//333 335//335
f 331//331 358//358 329//329
f 360//360 335//335 337//337
f 470//470 458//458 339//339
f 341//341 363//363 470//470
f 363//363 480//480 470//470
f 446//446 358//358 360//360
f 333//333 360//360 358//358
f 446//446 432//432 358//358
f 356//356 358//358 432//432
f 424//424 356//356 432//432
f 356//356 329//329 358//358
f 458//458 446//446 360//360
f 339//339 458//458 360//360
f 356//356 325//325 327//327
f 321//321 323//323 354//354
f 325//325 354//354 323//323
f 321//321 353//353 319//319
f 349//349 272//272 313//313
f 317//317 353//353 351//351
f 315//315 382//382 313//313
f 353//353 317//317 319//319
f 382//382 349//349 313//313
f 410//410 404//404 354//354
f 354//354 353//353 321//321
f 424//424 418//418 356//356
f 354//354 418//418 410//410
f 418//418 354//354 356//356
f 315//315 317//317 351//351
f 390//390 351//351 353//353
f 353//353 396//396 390//390
f 351//351 390//390 382//382
f 382//382 315//315 351//351
f 404//404 396//396 353//353
f 354//354 404//404 353//353
f 354//354 325//325 356//356
f 346//346 314//314 306//306
f 314//314 384//384 316//316
f 346//346 384//384 314//314
f 322//322 320//320 373//373
f 373//373 324//324 322//322
f 376//376 373//373 320//320
f 318//318 376//376 320//320
f 326//326 324//324 373//373
f 378//378 384//384 346//346
f 384//384 376//376 316//316
f 376//376 384//384 392//392
f 316//316 376//376 318//318
f 398//398 373//373 392//392
f 392//392 373//373 376//376
f 373//373 406//406 412//412
f 373//373 412//412 420//420
f 373//373 371//371 326//326
f 373//373 398//398 406//406
f 373//373 420//420 371//371
f 371//371 330//330 328//328
f 369//369 334//334 332//332
f 369//369 332//332 330//330
f 367//367 338//338 336//336
f 366//366 344//344 342//342
f 366//366 342//342 340//340
f 366//366 340//340 338//338
f 367//367 336//336 334//334
f 434//434 369//369 371//371
f 330//330 371//371 369//369
f 371//371 426//426 434//434
f 369//369 434//434 448//448
f 448//448 367//367 369//369
f 371//371 420//420 426//426
f 460//460 366//366 367//367
f 338//338 367//367 366//366
f 460//460 472//472 366//366
f 482//482 366//366 472//472
f 482//482 344//344 366//366
f 448//448 460//460 367//367
f 367//367 334//334 369//369
f 328//328 326//326 371//371
f 365//365 292//292 291//291
f 368//368 294//294 293//293
f 365//365 293//293 292//292
f 368//368 296//296 295//295
f 370//370 298//298 297//297
f 372//372 299//299 298//298
f 370//370 297//297 296//296
f 368//368 295//295 294//294
f 461//461 368//368 473//473
f 293//293 365//365 473//473
f 365//365 483//483 473//473
f 449//449 370//370 368//368
f 296//296 368//368 370//370
f 449//449 435//435 370//370
f 372//372 370//370 435//435
f 427//427 372//372 435//435
f 372//372 298//298 370//370
f 461//461 449//449 368//368
f 473//473 368//368 293//293
f 372//372 300//300 299//299
f 374//374 301//301 300//300
f 375//375 302//302 374//374
f 372//372 421//421 374//374
f 304//304 303//303 375//375
f 309//309 305//305 385//385
f 377//377 305//305 304//304
f 375//375 303//303 302//302
f 385//385 379//379 309//309
f 407//407 374//374 413//413
f 427//427 421//421 372//372
f 413//413 374//374 421//421
f 393//393 377//377 375//375
f 375//375 399//399 393//393
f 377//377 393//393 385//385
f 385//385 305//305 377//377
f 407//407 399//399 375//375
f 407//407 375//375 374//374
f 374//374 300//300 372//372
f 345//345 276//276 275//275
f 345//345 350//350 383//383
f 276//276 345//345 383//383
f 277//277 352//352 278//278
f 355//355 278//278 352//352
f 280//280 279//279 355//355
f 278//278 355//355 279//279
f 281//281 280//280 355//355
f 391//391 352//352 383//383
f 276//276 383//383 352//352
f 391//391 355//355 352//352
f 352//352 277//277 276//276
f 411//411 355//355 405//405
f 391//391 397//397 355//355
f 355//355 411//411 419//419
f 357//357 281//281 355//355
f 425//425 357//357 419//419
f 397//397 405//405 355//355
f 419//419 357//357 355//355
f 357//357 283//283 282//282
f 359//359 285//285 284//284
f 359//359 284//284 283//283
f 361//361 287//287 286//286
f 362//362 289//289 288//288
f 364//364 290//290 289//289
f 362//362 288//288 287//287
f 361//361 286//286 285//285
f 433//433 359//359 357//357
f 283//283 357//357 359//359
f 433//433 447//447 359//359
f 361//361 359//359 447//447
f 459//459 361//361 447//447
f 361//361 285//285 359//359
f 425//425 433//433 357//357
f 471//471 364//364 362//362
f 289//289 362//362 364//364
f 459//459 471//471 362//362
f 481//481 364//364 471//471
f 361//361 459//459 362//362
f 362//362 287//287 361//361
f 281//281 357//357 282//282
f 310//310 308//308 307//307
f 312//312 310//310 311//311
f 307//307 311//311 310//310
f 271//271 269//269 268//268
f 270//270 273//273 274//274
f 55//55 150//150 152//152
f 150//150 55//55 148//148
f 55//55 25//25 53//53
f 25//25 55//55 152//152
f 25//25 49//49 51//51
f 25//25 45//45 47//47
f 25//25 43//43 45//45
f 47//47 49//49 25//25
f 51//51 53//53 25//25
f 21//21 141//141 54//54
f 54//54 142//142 144//144
f 54//54 141//141 142//142
f 21//21 54//54 52//52
f 21//21 44//44 42//42
f 21//21 48//48 46//46
f 21//21 50//50 48//48
f 46//46 44//44 21//21
f 21//21 52//52 50//50
f 25//25 39//39 41//41
f 25//25 35//35 37//37
f 25//25 33//33 35//35
f 37//37 39//39 25//25
f 29//29 31//31 25//25
f 33//33 25//25 31//31
f 27//27 29//29 24//24
f 25//25 24//24 29//29
f 23//23 27//27 24//24
f 25//25 41//41 43//43
f 26//26 27//27 23//23
f 21//21 34//34 32//32
f 21//21 38//38 36//36
f 21//21 40//40 38//38
f 36//36 34//34 21//21
f 28//28 26//26 22//22
f 21//21 30//30 28//28
f 22//22 21//21 28//28
f 32//32 30//30 21//21
f 42//42 40//40 21//21
f 495//495 491//491 2//2
f 502//502 498//498 4//4
f 498//498 495//495 3//3
f 498//498 3//3 4//4
f 492//492 77//77 488//488
f 499//499 80//80 79//79
f 496//496 79//79 78//78
f 492//492 78//78 77//77
f 309//309 147//147 55//55
f 309//309 170//170 163//163
f 309//309 163//163 155//155
f 309//309 155//155 147//147
f 309//309 185//185 177//177
f 309//309 211//211 201//201
f 309//309 201//201 193//193
f 309//309 193//193 185//185
f 309//309 177//177 170//170
f 379//379 227//227 219//219
f 309//309 379//379 219//219
f 235//235 227//227 379//379
f 243//243 235//235 379//379
f 211//211 309//309 219//219
f 379//379 251//251 243//243
f 379//379 308//308 267//267
f 379//379 267//267 259//259
f 379//379 259//259 251//251
f 378//378 307//307 308//308
f 306//306 183//183 187//187
f 306//306 199//199 203//203
f 306//306 203//203 210//210
f 199//199 306//306 187//187
f 306//306 124//124 146//146
f 306//306 157//157 168//168
f 306//306 168//168 172//172
f 157//157 306//306 146//146
f 306//306 172//172 183//183
f 346//346 237//237 249//249
f 346//346 253//253 265//265
f 378//378 265//265 307//307
f 253//253 346//346 249//249
f 306//306 217//217 221//221
f 306//306 221//221 233//233
f 233//233 346//346 306//306
f 346//346 265//265 378//378
f 306//306 210//210 217//217
f 233//233 237//237 346//346
f 88//88 27//27 26//26
f 291//291 88//88 87//87
f 290//290 364//364 365//365
f 364//364 481//481 483//483
f 501//501 485//485 483//483
f 483//483 497//497 501//501
f 501//501 487//487 485//485
f 494//494 497//497 483//483
f 490//490 481//481 479//479
f 477//477 490//490 479//479
f 494//494 481//481 490//490
f 494//494 483//483 481//481
f 482//482 484//484 500//500
f 486//486 500//500 484//484
f 493//493 480//480 482//482
f 480//480 493//493 489//489
f 489//489 478//478 480//480
f 476//476 478//478 489//489
f 480//480 363//363 482//482
f 132//132 344//344 343//343
f 131//131 96//96 132//132
f 96//96 131//131 95//95
f 132//132 343//343 131//131
f 343//343 344//344 363//363
f 344//344 482//482 363//363
f 677//677 610//610 685//685
f 610//610 677//677 598//598
f 653//653 582//582 661//661
f 669//669 661//661 594//594
f 677//677 669//669 598//598
f 653//653 645//645 574//574
f 705//705 633//633 717//717
f 697//697 626//626 705//705
f 685//685 614//614 697//697
f 705//705 626//626 633//633
f 697//697 614//614 626//626
f 614//614 685//685 610//610
f 716//716 717//717 633//633
f 566//566 645//645 637//637
f 602//602 578//578 546//546
f 578//578 558//558 538//538
f 506//506 518//518 530//530
f 518//518 526//526 558//558
f 530//530 518//518 558//558
f 558//558 526//526 538//538
f 574//574 582//582 653//653
f 594//594 598//598 669//669
f 582//582 594//594 661//661
f 578//578 538//538 546//546
f 554//554 566//566 637//637
f 602//602 546//546 554//554
f 574//574 645//645 566//566
f 554//554 637//637 602//602
f 701//701 709//709 625//625
f 716//716 632//632 709//709
f 625//625 613//613 701//701
f 689//689 693//693 613//613
f 613//613 693//693 701//701
f 632//632 625//625 709//709
f 632//632 716//716 633//633
f 609//609 681//681 689//689
f 597//597 673//673 681//681
f 673//673 593//593 665//665
f 573//573 649//649 657//657
f 581//581 657//657 665//665
f 565//565 641//641 649//649
f 618//618 641//641 553//553
f 609//609 689//689 613//613
f 593//593 581//581 665//665
f 597//597 593//593 673//673
f 573//573 565//565 649//649
f 553//553 545//545 618//618
f 565//565 553//553 641//641
f 581//581 573//573 657//657
f 537//537 562//562 586//586
f 545//545 586//586 618//618
f 562//562 525//525 542//542
f 545//545 537//537 586//586
f 525//525 517//517 542//542
f 505//505 522//522 517//517
f 517//517 522//522 542//542
f 537//537 525//525 562//562
f 609//609 597//597 681//681
f 510//510 506//506 530//530
f 506//506 510//510 501//501
f 502//502 501//501 510//510
f 487//487 501//501 502//502
f 487//487 15//15 469//469
f 25//25 445//445 457//457
f 457//457 469//469 20//20
f 381//381 312//312 380//380
f 10//10 487//487 502//502
f 25//25 417//417 431//431
f 25//25 403//403 417//417
f 263//263 381//381 247//247
f 380//380 312//312 311//311
f 25//25 381//381 389//389
f 389//389 403//403 25//25
f 431//431 445//445 25//25
f 381//381 152//152 166//166
f 381//381 25//25 152//152
f 502//502 5//5 10//10
f 469//469 15//15 20//20
f 487//487 10//10 15//15
f 20//20 25//25 457//457
f 312//312 381//381 263//263
f 262//262 380//380 311//311
f 381//381 181//181 197//197
f 381//381 215//215 231//231
f 381//381 197//197 215//215
f 231//231 247//247 381//381
f 381//381 166//166 181//181
f 246//246 380//380 262//262
f 80//80 444//444 437//437
f 80//80 451//451 444//444
f 151//151 416//416 409//409
f 80//80 430//430 423//423
f 423//423 416//416 151//151
f 80//80 437//437 430//430
f 499//499 505//505 500//500
f 486//486 80//80 499//499
f 500//500 486//486 499//499
f 522//522 505//505 499//499
f 80//80 463//463 456//456
f 80//80 475//475 468//468
f 468//468 463//463 80//80
f 475//475 80//80 486//486
f 456//456 451//451 80//80
f 214//214 380//380 230//230
f 196//196 380//380 214//214
f 380//380 196//196 180//180
f 388//388 380//380 165//165
f 380//380 180//180 165//165
f 151//151 388//388 165//165
f 395//395 388//388 151//151
f 402//402 151//151 409//409
f 151//151 402//402 395//395
f 423//423 151//151 80//80
f 75//75 80//80 151//151
f 70//70 151//151 65//65
f 75//75 151//151 70//70
f 151//151 60//60 65//65
f 246//246 230//230 380//380
f 674//674 682//682 604//604
f 604//604 596//596 674//674
f 650//650 658//658 580//580
f 666//666 588//588 658//658
f 674//674 596//596 666//666
f 650//650 568//568 642//642
f 702//702 711//711 628//628
f 694//694 702//702 620//620
f 682//682 694//694 612//612
f 702//702 628//628 620//620
f 694//694 620//620 612//612
f 612//612 604//604 682//682
f 710//710 628//628 711//711
f 564//564 634//634 642//642
f 599//599 532//532 575//575
f 555//555 575//575 524//524
f 504//504 527//527 512//512
f 512//512 555//555 524//524
f 527//527 555//555 512//512
f 524//524 575//575 532//532
f 568//568 650//650 580//580
f 588//588 666//666 596//596
f 580//580 658//658 588//588
f 599//599 544//544 532//532
f 548//548 634//634 564//564
f 544//544 634//634 548//548
f 568//568 564//564 642//642
f 634//634 544//544 599//599
f 698//698 619//619 706//706
f 710//710 706//706 627//627
f 619//619 698//698 611//611
f 686//686 611//611 690//690
f 611//611 698//698 690//690
f 627//627 706//706 619//619
f 627//627 628//628 710//710
f 662//662 587//587 670//670
f 678//678 670//670 595//595
f 603//603 686//686 678//678
f 567//567 654//654 646//646
f 579//579 662//662 654//654
f 638//638 563//563 646//646
f 615//615 547//547 638//638
f 603//603 611//611 686//686
f 587//587 662//662 579//579
f 595//595 670//670 587//587
f 567//567 646//646 563//563
f 547//547 615//615 543//543
f 563//563 638//638 547//547
f 579//579 654//654 567//567
f 531//531 583//583 559//559
f 543//543 615//615 583//583
f 559//559 539//539 523//523
f 543//543 583//583 531//531
f 523//523 539//539 511//511
f 503//503 511//511 519//519
f 511//511 539//539 519//519
f 531//531 559//559 523//523
f 603//603 678//678 595//595
f 507//507 527//527 504//504
f 490//490 491//491 504//504
f 507//507 504//504 491//491
f 477//477 491//491 490//490
f 477//477 474//474 6//6
f 16//16 465//465 462//462
f 465//465 11//11 474//474
f 6//6 491//491 477//477
f 21//21 453//453 450//450
f 21//21 450//450 439//439
f 21//21 436//436 429//429
f 21//21 422//422 415//415
f 422//422 21//21 429//429
f 436//436 21//21 439//439
f 453//453 16//16 462//462
f 401//401 21//21 408//408
f 21//21 415//415 408//408
f 394//394 21//21 401//401
f 491//491 6//6 1//1
f 16//16 453//453 21//21
f 11//11 465//465 16//16
f 11//11 6//6 474//474
f 21//21 387//387 348//348
f 348//348 255//255 239//239
f 348//348 205//205 189//189
f 387//387 21//21 394//394
f 348//348 159//159 140//140
f 348//348 189//189 174//174
f 348//348 174//174 159//159
f 21//21 348//348 140//140
f 223//223 205//205 348//348
f 386//386 400//400 139//139
f 139//139 400//400 414//414
f 158//158 347//347 386//386
f 269//269 347//347 268//268
f 347//347 254//254 268//268
f 488//488 489//489 503//503
f 476//476 488//488 76//76
f 489//489 488//488 476//476
f 519//519 488//488 503//503
f 76//76 428//428 438//438
f 76//76 452//452 464//464
f 452//452 76//76 438//438
f 464//464 476//476 76//76
f 428//428 76//76 414//414
f 269//269 348//348 347//347
f 347//347 238//238 254//254
f 66//66 61//61 139//139
f 347//347 188//188 204//204
f 347//347 204//204 222//222
f 255//255 348//348 269//269
f 347//347 222//222 238//238
f 347//347 158//158 173//173
f 139//139 414//414 76//76
f 139//139 76//76 71//71
f 158//158 386//386 139//139
f 139//139 71//71 66//66
f 56//56 139//139 61//61
f 347//347 173//173 188//188
f 239//239 223//223 348//348
f 272//272 143//143 123//123
f 272//272 171//171 167//167
f 272//272 167//167 156//156
f 272//272 156//156 143//143
f 272//272 186//186 182//182
f 272//272 208//208 202//202
f 272//272 202//202 198//198
f 272//272 198//198 186//186
f 272//272 182//182 171//171
f 272//272 220//220 216//216
f 236//236 272//272 349//349
f 220//220 272//272 232//232
f 232//232 272//272 236//236
f 208//208 272//272 216//216
f 349//349 248//248 236//236
f 349//349 273//273 264//264
f 349//349 264//264 252//252
f 349//349 252//252 248//248
f 274//274 273//273 349//349
f 275//275 176//176 184//184
f 275//275 192//192 200//200
f 345//345 200//200 209//209
f 192//192 275//275 184//184
f 275//275 54//54 144//144
f 275//275 154//154 162//162
f 275//275 162//162 169//169
f 154//154 275//275 144//144
f 275//275 169//169 176//176
f 350//350 242//242 250//250
f 350//350 258//258 266//266
f 350//350 266//266 274//274
f 258//258 350//350 250//250
f 345//345 218//218 226//226
f 345//345 226//226 234//234
f 209//209 218//218 345//345
f 234//234 350//350 345//345
f 345//345 275//275 200//200
f 242//242 350//350 234//234
f 349//349 350//350 274//274
f 275//275 81//81 54//54
f 81//81 278//278 82//82
f 289//289 290//290 87//87
f 89//89 296//296 90//90
f 91//91 300//300 92//92
f 92//92 302//302 93//93
f 13//13 7//7 12//12
f 14//14 8//8 13//13
f 18//18 12//12 17//17
f 19//19 13//13 18//18
f 2//2 6//6 7//7
f 11//11 7//7 6//6
f 12//12 16//16 17//17
f 7//7 3//3 2//2
f 4//4 8//8 9//9
f 5//5 9//9 10//10
f 10//10 14//14 15//15
f 17//17 21//21 22//22
f 18//18 22//22 23//23
f 23//23 19//19 18//18
f 15//15 19//19 20//20
f 24//24 20//20 19//19
f 68//68 72//72 73//73
f 69//69 73//73 74//74
f 63//63 67//67 68//68
f 64//64 68//68 69//69
f 77//77 71//71 76//76
f 66//66 72//72 67//67
f 67//67 61//61 66//66
f 72//72 78//78 73//73
f 79//79 73//73 78//78
f 80//80 74//74 79//79
f 75//75 69//69 74//74
f 62//62 56//56 61//61
f 63//63 57//57 62//62
f 58//58 64//64 59//59
f 70//70 64//64 69//69
f 59//59 65//65 60//60
f 196//196 212//212 194//194
f 194//194 180//180 196//196
f 228//228 214//214 230//230
f 230//230 244//244 228//228
f 260//260 246//246 262//262
f 190//190 204//204 188//188
f 224//224 238//238 222//222
f 222//222 206//206 224//224
f 256//256 268//268 254//254
f 254//254 240//240 256//256
f 257//257 269//269 271//271
f 255//255 241//241 239//239
f 225//225 239//239 241//241
f 223//223 207//207 205//205
f 191//191 200//200 192//192
f 189//189 175//175 174//174
f 191//191 205//205 207//207
f 142//142 159//159 161//161
f 161//161 174//174 175//175
f 263//263 310//310 312//312
f 261//261 259//259 267//267
f 261//261 247//247 245//245
f 231//231 245//245 247//247
f 229//229 227//227 235//235
f 213//213 211//211 219//219
f 245//245 243//243 251//251
f 229//229 215//215 213//213
f 197//197 213//213 215//215
f 195//195 193//193 201//201
f 195//195 181//181 179//179
f 166//166 179//179 181//181
f 164//164 153//153 150//150
f 164//164 163//163 170//170
f 179//179 177//177 185//185
f 716//716 715//715 717//717
f 714//714 713//713 715//715
f 712//712 711//711 713//713
f 699//699 708//708 700//700
f 691//691 700//700 692//692
f 687//687 692//692 688//688
f 679//679 688//688 680//680
f 671//671 680//680 672//672
f 663//663 672//672 664//664
f 655//655 664//664 656//656
f 647//647 656//656 648//648
f 639//639 648//648 640//640
f 616//616 640//640 617//617
f 584//584 617//617 585//585
f 560//560 585//585 561//561
f 540//540 561//561 541//541
f 520//520 541//541 521//521
f 709//709 714//714 716//716
f 693//693 700//700 701//701
f 701//701 708//708 709//709
f 681//681 688//688 689//689
f 665//665 672//672 673//673
f 673//673 680//680 681//681
f 689//689 692//692 693//693
f 708//708 712//712 714//714
f 657//657 664//664 665//665
f 641//641 648//648 649//649
f 586//586 617//617 618//618
f 618//618 640//640 641//641
f 542//542 561//561 562//562
f 499//499 521//521 522//522
f 522//522 541//541 542//542
f 562//562 585//585 586//586
f 656//656 649//649 648//648
f 496//496 520//520 521//521
f 707//707 710//710 712//712
f 691//691 698//698 699//699
f 699//699 706//706 707//707
f 679//679 686//686 687//687
f 663//663 670//670 671//671
f 671//671 678//678 679//679
f 687//687 690//690 691//691
f 655//655 662//662 663//663
f 639//639 646//646 647//647
f 584//584 615//615 616//616
f 616//616 638//638 639//639
f 540//540 559//559 560//560
f 492//492 519//519 520//520
f 520//520 539//539 540//540
f 560//560 583//583 584//584
f 654//654 647//647 646//646
f 695//695 704//704 703//703
f 683//683 696//696 695//695
f 675//675 684//684 683//683
f 667//667 676//676 675//675
f 659//659 668//668 667//667
f 651//651 660//660 659//659
f 643//643 652//652 651//651
f 635//635 644//644 643//643
f 600//600 636//636 635//635
f 576//576 601//601 600//600
f 556//556 577//577 576//576
f 528//528 557//557 556//556
f 508//508 529//529 528//528
f 705//705 715//715 704//704
f 685//685 696//696 684//684
f 697//697 704//704 696//696
f 669//669 676//676 668//668
f 653//653 660//660 652//652
f 661//661 668//668 660//660
f 677//677 684//684 676//676
f 704//704 713//713 703//703
f 652//652 645//645 653//653
f 637//637 644//644 636//636
f 578//578 601//601 577//577
f 602//602 636//636 601//601
f 530//530 557//557 529//529
f 502//502 509//509 498//498
f 510//510 529//529 509//509
f 558//558 577//577 557//557
f 498//498 508//508 495//495
f 703//703 711//711 702//702
f 683//683 694//694 682//682
f 695//695 702//702 694//694
f 667//667 674//674 666//666
f 651//651 658//658 650//650
f 659//659 666//666 658//658
f 675//675 682//682 674//674
f 650//650 643//643 651//651
f 635//635 642//642 634//634
f 576//576 599//599 575//575
f 600//600 634//634 599//599
f 528//528 555//555 527//527
f 495//495 507//507 491//491
f 508//508 527//527 507//507
f 556//556 575//575 555//555
f 453//453 462//462 466//466
f 534//534 516//516 514//514
f 550//550 536//536 534//534
f 570//570 552//552 550//550
f 590//590 572//572 570//570
f 606//606 592//592 590//590
f 622//622 608//608 606//606
f 536//536 526//526 516//516
f 516//516 494//494 514//514
f 524//524 532//532 534//534
f 534//534 544//544 550//550
f 624//624 614//614 608//608
f 633//633 624//624 631//631
f 631//631 622//622 629//629
f 622//622 628//628 629//629
f 631//631 632//632 633//633
f 605//605 623//623 621//621
f 589//589 607//607 605//605
f 569//569 591//591 589//589
f 549//549 571//571 569//569
f 533//533 551//551 549//549
f 513//513 535//535 533//533
f 625//625 630//630 623//623
f 597//597 609//609 607//607
f 571//571 581//581 591//591
f 579//579 567//567 569//569
f 525//525 537//537 535//535
f 569//569 563//563 549//549
f 543//543 531//531 533//533
f 513//513 503//503 493//493
f 378//378 381//381 380//380
f 487//487 467//467 485//485
f 440//440 452//452 438//438
f 347//347 350//350 349//349
f 302//302 301//301 374//374
f 377//377 304//304 375//375
f 271//271 268//268 270//270
f 270//270 274//274 271//271
f 26//26 23//23 22//22
f 491//491 1//1 2//2
f 502//502 4//4 5//5
f 495//495 2//2 3//3
f 77//77 76//76 488//488
f 499//499 79//79 496//496
f 496//496 78//78 492//492
f 378//378 308//308 379//379
f 88//88 26//26 87//87
f 291//291 87//87 290//290
f 290//290 365//365 291//291
f 364//364 483//483 365//365
f 493//493 482//482 500//500