# PHANTOM Module: COP3
# Units: meters
o COP3

v 2.340601 1.199997 0.000000
v 2.340601 0.899998 0.000000
v 2.340601 0.599998 0.000000
v 2.340601 0.299999 0.000000
v 2.340601 0.000000 0.000000
v 2.309036 1.199997 0.002522
v 2.309036 0.899998 0.002522
v 2.309036 0.599998 0.002522
v 2.309036 0.299999 0.002522
v 2.309036 0.000000 0.002522
v 2.277815 1.199997 0.010142
v 2.277815 0.899998 0.010142
v 2.277815 0.599998 0.010142
v 2.277815 0.299999 0.010142
v 2.277815 0.000000 0.010142
v 2.247961 1.199997 0.022695
v 2.247961 0.899998 0.022695
v 2.247961 0.599998 0.022695
v 2.247961 0.299999 0.022695
v 2.247961 0.000000 0.022695
v 2.220416 1.199997 0.039697
v 2.220416 0.899998 0.039697
v 2.220416 0.599998 0.039697
v 2.220416 0.299999 0.039697
v 2.220416 0.000000 0.039697
v 2.112499 1.033333 0.118182
v 2.112499 0.166664 0.118182
v 2.112149 1.041386 0.118437
v 2.112149 0.158611 0.118437
v 2.111121 1.049053 0.119184
v 2.111121 0.150944 0.119184
v 2.109453 1.056339 0.120397
v 2.109453 0.143658 0.120397
v 2.107183 1.063255 0.122048
v 2.107183 0.136742 0.122048
v 2.104348 1.069809 0.124110
v 2.104348 0.130188 0.124110
v 2.100985 1.076012 0.126557
v 2.100985 0.123985 0.126557
v 2.092821 1.087391 0.132493
v 2.092821 0.112610 0.132493
v 2.082993 1.097458 0.139642
v 2.082993 0.102539 0.139642
v 2.071795 1.106285 0.147786
v 2.071795 0.093712 0.147786
v 2.046483 1.120502 0.166194
v 2.046483 0.079494 0.166194
v 2.019267 1.130596 0.185988
v 2.019267 0.069405 0.185988
v 1.992527 1.137115 0.205435
v 1.992527 0.062881 0.205435
v 1.968645 1.140621 0.222804
v 1.968645 0.059376 0.222804
v 1.950000 1.141666 0.236364
v 1.950000 0.058331 0.236364
v 1.863032 1.199997 2.536751
v 1.863032 0.899998 2.536751
v 1.863032 0.599998 2.536751
v 1.863032 0.299999 2.536751
v 1.863032 0.000000 2.536751
v 1.835486 1.199997 2.519749
v 1.835486 0.899998 2.519749
v 1.835486 0.599998 2.519749
v 1.835486 0.299999 2.519749
v 1.835486 0.000000 2.519749
v 1.805634 1.199997 2.507196
v 1.805634 0.899998 2.507196
v 1.805634 0.599998 2.507196
v 1.805634 0.299999 2.507196
v 1.805634 0.000000 2.507196
v 1.774411 1.199997 2.499575
v 1.774411 0.899998 2.499575
v 1.774411 0.599998 2.499575
v 1.774411 0.299999 2.499575
v 1.774411 0.000000 2.499575
v 1.742847 1.199997 2.497054
v 1.742847 0.899998 2.497054
v 1.742847 0.599998 2.497054
v 1.742847 0.299999 2.497054
v 1.742847 0.000000 2.497054
v 1.706249 1.139858 0.214859
v 1.706249 1.124008 0.171693
v 1.706249 1.109936 0.152796
v 1.706249 1.092613 0.137446
v 1.706249 1.073208 0.126480
v 1.706249 1.053043 0.120155
v 1.706249 1.033333 0.118182
v 1.706249 0.166664 0.118182
v 1.706249 0.126789 0.126480
v 1.706249 0.107384 0.137446
v 1.706249 0.090061 0.152796
v 1.706249 0.075993 0.171693
v 1.706249 0.065937 0.192862
v 1.706249 0.060143 0.214859
v 1.645948 1.033333 2.378872
v 1.645948 0.166664 2.378872
v 1.645514 1.041458 2.378556
v 1.645514 0.158539 2.378556
v 1.644258 1.049229 2.377642
v 1.644258 0.150768 2.377642
v 1.642249 1.056644 2.376182
v 1.642249 0.143353 2.376182
v 1.639561 1.063705 2.374226
v 1.639561 0.136295 2.374226
v 1.636262 1.070408 2.371827
v 1.636262 0.129589 2.371827
v 1.632423 1.076752 2.369035
v 1.632423 0.123245 2.369035
v 1.623412 1.088375 2.362482
v 1.623412 0.111626 2.362482
v 1.613091 1.098560 2.354976
v 1.613091 0.101437 2.354976
v 1.602028 1.107315 2.346930
v 1.602028 0.092682 2.346930
v 1.579931 1.120502 2.330859
v 1.579931 0.079494 2.330859
v 1.556752 1.130020 2.314002
v 1.556752 0.069977 2.314002
v 1.532529 1.136604 2.296385
v 1.532529 0.063393 2.296385
v 1.507886 1.140430 2.278463
v 1.507886 0.059566 2.278463
v 1.483449 1.141666 2.260690
v 1.483449 0.058331 2.260690
v 1.460335 1.139858 2.282195
v 1.460335 1.134060 2.304192
v 1.460335 1.124008 2.325360
v 1.460335 1.109936 2.344257
v 1.460335 1.092613 2.359608
v 1.460335 1.073208 2.370574
v 1.460335 1.033333 2.378872
v 1.458460 0.166664 2.378872
v 1.458460 0.146954 2.376899
v 1.458460 0.126789 2.370574
v 1.458460 0.107384 2.359608
v 1.458460 0.090061 2.344257
v 1.458460 0.075993 2.325360
v 1.458460 0.060143 2.282195
v 1.396482 1.199997 2.197441
v 1.396482 1.199997 0.638923
v 1.396482 1.199997 0.638922
v 1.396482 1.170830 0.638922
v 1.396482 1.141666 2.197441
v 1.396482 1.141666 0.638923
v 1.396482 1.141666 0.638922
v 1.396482 0.058331 2.197441
v 1.396482 0.058331 0.638923
v 1.396482 0.058331 0.638922
v 1.396482 0.029167 2.197441
v 1.396482 0.029167 0.638922
v 1.396482 0.000000 2.197441
v 1.396482 0.000000 0.638923
v 1.396482 0.000000 0.638922
v 1.385990 1.141666 0.647054
v 1.385990 0.058331 0.647054
v 1.385465 1.141666 2.188877
v 1.385465 0.058331 2.188877
v 1.375832 1.199997 2.180394
v 1.375832 1.199997 0.655970
v 1.375832 1.170830 2.180394
v 1.375832 1.170830 0.655970
v 1.375832 1.141666 0.655970
v 1.375832 0.058331 0.655970
v 1.375832 0.029167 0.655970
v 1.375832 0.000000 2.180394
v 1.375832 0.000000 0.655970
v 1.375030 1.141666 2.179646
v 1.375030 0.058331 2.179646
v 1.366075 1.141666 0.665650
v 1.366075 0.058331 0.665650
v 1.365194 1.141666 2.169785
v 1.365194 0.058331 2.169785
v 1.356791 1.199997 2.160302
v 1.356791 1.199997 0.676062
v 1.356791 1.170830 0.676062
v 1.356791 1.141666 0.676062
v 1.356791 0.058331 0.676062
v 1.356791 0.029167 2.160302
v 1.356791 0.029167 0.676062
v 1.356791 0.000000 2.160302
v 1.356791 0.000000 0.676062
v 1.355977 1.141666 2.159332
v 1.355977 0.058331 2.159332
v 1.348045 1.141666 0.687164
v 1.348045 0.058331 0.687164
v 1.347395 1.141666 2.148320
v 1.347395 0.058331 2.148320
v 1.339901 1.199997 2.137458
v 1.339901 1.199997 0.698905
v 1.339901 1.170830 2.137458
v 1.339901 1.170830 0.698905
v 1.339901 1.141666 0.698905
v 1.339901 0.058331 0.698905
v 1.339901 0.029167 2.137458
v 1.339901 0.029167 0.698905
v 1.339901 0.000000 2.137458
v 1.339901 0.000000 0.698905
v 1.339465 1.141666 2.136788
v 1.339465 0.058331 2.136788
v 1.332415 1.141666 0.711226
v 1.332415 0.058331 0.711226
v 1.332207 1.141666 2.124771
v 1.332207 0.058331 2.124771
v 1.325637 1.199997 2.112305
v 1.325637 1.199997 0.724059
v 1.325637 1.170830 2.112305
v 1.325637 1.170830 0.724059
v 1.325637 1.141666 2.112305
v 1.325637 1.141666 0.724059
v 1.325637 0.058331 2.112305
v 1.325637 0.058331 0.724059
v 1.325637 0.029167 2.112305
v 1.325637 0.029167 0.724059
v 1.325637 0.000000 2.112305
v 1.325637 0.000000 0.724059
v 1.319774 1.141666 2.099427
v 1.319774 0.058331 2.099427
v 1.319609 1.141666 0.737330
v 1.319609 0.058331 0.737330
v 1.314633 1.141666 2.086172
v 1.314633 0.058331 2.086172
v 1.314364 1.199997 2.085405
v 1.314364 1.199997 0.750959
v 1.314364 1.170830 2.085405
v 1.314364 1.170830 0.750959
v 1.314364 1.141666 0.750959
v 1.314364 0.058331 0.750959
v 1.314364 0.029167 2.085405
v 1.314364 0.029167 0.750959
v 1.314364 0.000000 2.085405
v 1.314364 0.000000 0.750959
v 1.310236 1.141666 2.072578
v 1.310236 0.058331 2.072578
v 1.309926 1.141666 0.764864
v 1.309926 0.058331 0.764864
v 1.306599 1.141666 2.058680
v 1.306599 0.058331 2.058680
v 1.306310 1.199997 2.057403
v 1.306310 1.199997 0.778961
v 1.306310 1.170830 2.057403
v 1.306310 1.170830 0.778961
v 1.306310 1.141666 0.778961
v 1.306310 0.058331 0.778961
v 1.306310 0.029167 2.057403
v 1.306310 0.029167 0.778961
v 1.306310 0.000000 2.057403
v 1.306310 0.000000 0.778961
v 1.303739 1.141666 2.044514
v 1.303739 0.058331 2.044514
v 1.303518 1.141666 0.793164
v 1.303518 0.058331 0.793164
v 1.301673 1.141666 2.030117
v 1.301673 0.058331 2.030117
v 1.301547 1.199997 2.028975
v 1.301547 1.199997 0.807389
v 1.301547 1.170830 2.028975
v 1.301547 1.170830 0.807389
v 1.301547 1.141666 0.807389
v 1.301547 0.058331 0.807389
v 1.301547 0.029167 2.028975
v 1.301547 0.029167 0.807389
v 1.301547 0.000000 2.028975
v 1.301547 0.000000 0.807389
v 1.300421 1.141666 2.015525
v 1.300421 0.058331 2.015525
v 1.300382 1.141666 0.821556
v 1.300382 0.058331 0.821556
v 1.299999 1.199997 2.000775
v 1.299999 1.199997 0.835589
v 1.299999 1.170830 2.000775
v 1.299999 1.170830 0.835589
v 1.299999 1.141666 2.260690
v 1.299999 1.141666 2.000775
v 1.299999 1.141666 0.835589
v 1.299999 1.141666 0.236364
v 1.299999 1.139858 0.214859
v 1.299999 1.137486 0.203845
v 1.299999 1.134060 0.192862
v 1.299999 1.129562 0.182083
v 1.299999 1.124008 0.171693
v 1.299999 1.117435 0.161874
v 1.299999 1.109936 0.152796
v 1.299999 1.101616 0.144613
v 1.299999 1.092613 0.137446
v 1.299999 1.083088 0.131385
v 1.299999 1.073208 0.126480
v 1.299999 1.063141 0.122744
v 1.299999 1.053043 0.120155
v 1.299999 1.043068 0.118660
v 1.299999 1.033333 0.118182
v 1.299999 0.166664 0.118182
v 1.299999 0.156933 0.118660
v 1.299999 0.146954 0.120155
v 1.299999 0.136856 0.122744
v 1.299999 0.126789 0.126480
v 1.299999 0.116909 0.131385
v 1.299999 0.107384 0.137446
v 1.299999 0.098385 0.144613
v 1.299999 0.090061 0.152796
v 1.299999 0.082561 0.161874
v 1.299999 0.075993 0.171693
v 1.299999 0.070435 0.182083
v 1.299999 0.065937 0.192862
v 1.299999 0.062515 0.203845
v 1.299999 0.060143 0.214859
v 1.299999 0.058331 2.260690
v 1.299999 0.058331 2.000775
v 1.299999 0.058331 0.835589
v 1.299999 0.058331 0.236364
v 1.299999 0.029167 0.835589
v 1.299999 0.000000 2.000775
v 1.299999 0.000000 0.835589
v 1.299706 1.141117 2.272650
v 1.299706 0.058880 2.272650
v 1.298868 1.139500 2.284307
v 1.298868 0.060497 2.284307
v 1.297549 1.136864 2.295598
v 1.297549 0.063137 2.295598
v 1.295815 1.133244 2.306458
v 1.295815 0.066753 2.306458
v 1.293726 1.128693 2.316825
v 1.293726 0.071308 2.316825
v 1.291348 1.123249 2.326635
v 1.291348 0.076748 2.326635
v 1.288745 1.116959 2.335824
v 1.288745 0.083038 2.335824
v 1.285981 1.109871 2.344330
v 1.285981 0.090130 2.344330
v 1.283184 1.102093 2.352020
v 1.283184 0.097904 2.352020
v 1.280474 1.093689 2.358846
v 1.280474 0.106308 2.358846
v 1.277938 1.084713 2.364758
v 1.277938 0.115284 2.364758
v 1.275665 1.075230 2.369706
v 1.275665 0.124767 2.369706
v 1.273745 1.065289 2.373642
v 1.273745 0.134708 2.373642
v 1.272263 1.054955 2.376514
v 1.272263 0.145042 2.376514
v 1.271309 1.044285 2.378274
v 1.271309 0.155716 2.378274
v 1.270972 1.033333 2.378872
v 1.270972 0.166664 2.378872
v 1.245833 1.141666 0.236364
v 1.245833 0.058331 2.260690
v 1.191667 1.199997 2.260690
v 1.191667 1.199997 0.236364
v 1.191667 1.141666 2.260690
v 1.191667 1.141666 0.236364
v 1.191667 1.139858 2.282195
v 1.191667 1.139858 0.214859
v 1.191667 1.134060 2.304192
v 1.191667 1.124008 2.325360
v 1.191667 1.124008 0.171693
v 1.191667 1.109936 2.344257
v 1.191667 1.109936 0.152796
v 1.191667 1.092613 2.359608
v 1.191667 1.092613 0.137446
v 1.191667 1.073208 2.370574
v 1.191667 1.073208 0.126480
v 1.191667 1.053043 0.120155
v 1.191667 1.033333 2.378872
v 1.191667 1.033333 0.118182
v 1.191667 0.166664 0.118182
v 1.191667 0.146954 2.376899
v 1.191667 0.126789 2.370574
v 1.191667 0.126789 0.126480
v 1.191667 0.107384 2.359608
v 1.191667 0.107384 0.137446
v 1.191667 0.090061 2.344257
v 1.191667 0.090061 0.152796
v 1.191667 0.075993 2.325360
v 1.191667 0.075993 0.171693
v 1.191667 0.065937 0.192862
v 1.191667 0.060143 2.282195
v 1.191667 0.060143 0.214859
v 1.191667 0.058331 2.260690
v 1.191667 0.058331 0.236364
v 1.191667 0.000000 2.260690
v 1.191667 0.000000 0.236364
v 1.190881 1.140881 2.276132
v 1.190881 1.140881 0.220921
v 1.190881 0.059116 2.276132
v 1.190881 0.059116 0.220921
v 1.189857 1.199997 2.282195
v 1.189857 1.199997 0.214859
v 1.189857 0.000000 2.282195
v 1.189857 0.000000 0.214859
v 1.188622 1.138622 2.290360
v 1.188622 1.138622 0.206694
v 1.188622 0.061378 2.290360
v 1.188622 0.061378 0.206694
v 1.187485 1.199997 0.203845
v 1.187485 0.000000 2.293209
v 1.185033 1.135033 2.303402
v 1.185033 1.135033 0.193651
v 1.185033 0.064964 2.303402
v 1.185033 0.064964 0.193651
v 1.184060 1.199997 2.304192
v 1.184060 1.199997 0.192862
v 1.184060 0.000000 2.304192
v 1.184060 0.000000 0.192862
v 1.180260 1.130260 2.315290
v 1.180260 1.130260 0.181763
v 1.180260 0.069740 2.315290
v 1.180260 0.069740 0.181763
v 1.179564 1.199997 0.182083
v 1.179564 0.000000 2.314970
v 1.174447 1.124447 2.326054
v 1.174447 1.124447 0.171000
v 1.174447 0.075550 2.326054
v 1.174447 0.075550 0.171000
v 1.174007 1.199997 2.325360
v 1.174007 1.199997 0.171693
v 1.174007 0.000000 2.325360
v 1.174007 0.000000 0.171693
v 1.167740 1.117741 2.335724
v 1.167740 1.117741 0.161330
v 1.167740 0.082260 2.335724
v 1.167740 0.082260 0.161330
v 1.167438 1.199997 0.161874
v 1.167438 0.000000 2.335180
v 1.160283 1.110283 2.344329
v 1.160283 1.110283 0.152725
v 1.160283 0.089714 2.344329
v 1.160283 0.089714 0.152725
v 1.159936 1.199997 2.344257
v 1.159936 1.199997 0.152796
v 1.159936 0.000000 2.344257
v 1.159936 0.000000 0.152796
v 1.152221 1.102219 2.351901
v 1.152221 1.102219 0.145153
v 1.152221 0.097778 2.351901
v 1.152221 0.097778 0.145153
v 1.151615 1.199997 0.144613
v 1.151615 0.000000 2.352441
v 1.142614 1.199997 2.359608
v 1.142614 1.199997 0.137446
v 1.142614 1.116665 2.359608
v 1.142614 1.116665 0.137446
v 1.142614 0.083332 2.359608
v 1.142614 0.083332 0.137446
v 1.142614 0.000000 2.359608
v 1.142614 0.000000 0.137446
v 1.134862 1.084862 2.364063
v 1.134862 1.084862 0.132991
v 1.134862 0.115135 2.364063
v 1.134862 0.115135 0.132991
v 1.133090 1.199997 0.131385
v 1.133090 0.000000 2.365669
v 1.123210 1.199997 2.370574
v 1.123210 1.199997 0.126480
v 1.123210 1.116665 2.370574
v 1.123210 0.083332 2.370574
v 1.123210 0.000000 2.370574
v 1.123210 0.000000 0.126480
v 1.116821 1.066822 2.372451
v 1.116821 1.066822 0.124603
v 1.116821 0.133179 2.372451
v 1.116821 0.133179 0.124603
v 1.113142 1.199997 0.122744
v 1.113142 0.000000 2.374310
v 1.103045 1.199997 2.376899
v 1.103045 1.199997 0.120155
v 1.103045 1.116665 0.120155
v 1.103045 0.083332 0.120155
v 1.103045 0.000000 2.376899
v 1.103045 0.000000 0.120155
v 1.099259 1.049259 2.377307
v 1.099259 1.049259 0.119747
v 1.099259 0.150738 2.377307
v 1.099259 0.150738 0.119747
v 1.093067 1.199997 0.118660
v 1.093067 0.000000 2.378394
v 1.083333 1.199997 2.378872
v 1.083333 1.199997 0.118182
v 1.083333 1.116665 2.378872
v 1.083333 1.116665 0.118182
v 1.083333 1.033333 2.378872
v 1.083333 1.033333 0.118182
v 1.083333 0.166664 2.378872
v 1.083333 0.166664 0.118182
v 1.083333 0.083332 2.378872
v 1.083333 0.083332 0.118182
v 1.083333 0.000000 2.378872
v 1.083333 0.000000 0.118182
v 0.216666 1.199997 2.497054
v 0.216666 1.199997 2.378872
v 0.216666 1.199997 0.118182
v 0.216666 1.199997 0.000000
v 0.216666 1.116665 2.378872
v 0.216666 1.116665 0.118182
v 0.216666 1.033333 2.378872
v 0.216666 1.033333 0.118182
v 0.216666 0.799999 2.497054
v 0.216666 0.799999 0.000000
v 0.216666 0.399998 2.497054
v 0.216666 0.399998 0.000000
v 0.216666 0.166664 2.378872
v 0.216666 0.166664 0.118182
v 0.216666 0.083332 0.118182
v 0.216666 0.000000 2.497054
v 0.216666 0.000000 2.378872
v 0.216666 0.000000 0.118182
v 0.216666 0.000000 0.000000
v 0.206932 1.199997 0.118660
v 0.206932 0.000000 2.378394
v 0.199313 1.050686 2.377120
v 0.199313 1.050686 0.119934
v 0.199313 0.149311 2.377120
v 0.199313 0.149311 0.119934
v 0.197198 1.199997 0.000956
v 0.197198 0.799999 0.000956
v 0.197198 0.399998 0.000956
v 0.197198 0.000000 0.000956
v 0.196954 1.199997 2.376899
v 0.196954 1.199997 0.120155
v 0.196954 1.116665 2.376899
v 0.196954 0.083332 2.376899
v 0.196954 0.000000 2.376899
v 0.196954 0.000000 0.120155
v 0.195297 1.199997 2.495901
v 0.195297 0.799999 2.495901
v 0.195297 0.399998 2.495901
v 0.195297 0.000000 2.495901
v 0.186857 1.199997 0.122744
v 0.186857 0.000000 2.374310
v 0.181081 1.068916 2.371808
v 0.181081 1.068916 0.125246
v 0.181081 0.131081 2.371808
v 0.181081 0.131081 0.125246
v 0.177241 1.199997 0.003946
v 0.177241 0.799999 0.003946
v 0.177241 0.399998 0.003946
v 0.177241 0.000000 0.003946
v 0.176789 1.199997 2.370574
v 0.176789 1.199997 0.126480
v 0.176789 1.116665 0.126480
v 0.176789 0.083332 0.126480
v 0.176789 0.000000 2.370574
v 0.176789 0.000000 0.126480
v 0.173369 1.199997 2.492286
v 0.173369 0.799999 2.492286
v 0.173369 0.399998 2.492286
v 0.173369 0.000000 2.492286
v 0.166909 1.199997 0.131385
v 0.166909 0.000000 2.365669
v 0.162953 1.087044 2.362858
v 0.162953 1.087044 0.134196
v 0.162953 0.112953 2.362858
v 0.162953 0.112953 0.134196
v 0.157385 1.199997 2.359608
v 0.157385 1.199997 0.137446
v 0.157385 1.116665 2.359608
v 0.157385 1.116665 0.137446
v 0.157385 0.083332 2.359608
v 0.157385 0.083332 0.137446
v 0.157385 0.000000 2.359608
v 0.157385 0.000000 0.137446
v 0.157048 1.199997 0.009124
v 0.157048 0.799999 0.009124
v 0.157048 0.399998 0.009124
v 0.157048 0.000000 0.009124
v 0.151223 1.199997 2.486014
v 0.151223 0.799999 2.486014
v 0.151223 0.399998 2.486014
v 0.151223 0.000000 2.486014
v 0.148384 1.199997 0.144613
v 0.148384 0.000000 2.352441
v 0.145915 1.104084 2.350187
v 0.145915 1.104084 0.146867
v 0.145915 0.095913 2.350187
v 0.145915 0.095913 0.146867
v 0.140063 1.199997 2.344257
v 0.140063 1.199997 0.152796
v 0.140063 0.000000 2.344257
v 0.140063 0.000000 0.152796
v 0.138111 1.111885 2.342431
v 0.138111 1.111885 0.154623
v 0.138111 0.088112 2.342431
v 0.138111 0.088112 0.154623
v 0.136912 1.199997 0.016595
v 0.136912 0.799999 0.016595
v 0.136912 0.399998 0.016595
v 0.136912 0.000000 0.016595
v 0.132562 1.199997 0.161874
v 0.132562 0.000000 2.335180
v 0.130949 1.119049 2.333715
v 0.130949 1.119049 0.163338
v 0.130949 0.080948 2.333715
v 0.130949 0.080948 0.163338
v 0.130619 1.199997 2.477615
v 0.130619 0.799999 2.477615
v 0.130619 0.399998 2.477615
v 0.130619 0.000000 2.477615
v 0.125992 1.199997 2.325360
v 0.125992 1.199997 0.171693
v 0.125992 0.000000 2.325360
v 0.125992 0.000000 0.171693
v 0.124551 1.125446 2.324029
v 0.124551 1.125446 0.173025
v 0.124551 0.074551 2.324029
v 0.124551 0.074551 0.173025
v 0.120436 1.199997 0.182083
v 0.120436 0.000000 2.314970
v 0.119040 1.130959 2.313362
v 0.119040 1.130959 0.183691
v 0.119040 0.069038 2.313362
v 0.119040 0.069038 0.183691
v 0.117152 1.199997 0.026406
v 0.117152 0.799999 0.026406
v 0.117152 0.399998 0.026406
v 0.117152 0.000000 0.026406
v 0.115939 1.199997 2.304192
v 0.115939 1.199997 0.192862
v 0.115939 0.000000 2.304192
v 0.115939 0.000000 0.192862
v 0.114541 1.135456 2.301705
v 0.114541 1.135456 0.195348
v 0.114541 0.064541 2.301705
v 0.114541 0.064541 0.195348
v 0.112514 1.199997 0.203845
v 0.112514 0.000000 2.293209
v 0.111174 1.138824 2.289048
v 0.111174 1.138824 0.208006
v 0.111174 0.061172 2.289048
v 0.111174 0.061172 0.208006
v 0.111032 1.199997 2.467059
v 0.111032 0.799999 2.467059
v 0.111032 0.399998 2.467059
v 0.111032 0.000000 2.467059
v 0.110142 1.199997 2.282195
v 0.110142 1.199997 0.214859
v 0.110142 0.000000 2.282195
v 0.110142 0.000000 0.214859
v 0.109064 1.140934 2.275379
v 0.109064 1.140934 0.221675
v 0.109064 0.059063 2.275379
v 0.109064 0.059063 0.221675
v 0.108333 1.199997 2.260690
v 0.108333 1.199997 0.236364
v 0.108333 1.141666 2.260690
v 0.108333 1.141666 0.236364
v 0.108333 1.139858 2.282195
v 0.108333 1.139858 0.214859
v 0.108333 1.134060 2.304192
v 0.108333 1.124008 2.325360
v 0.108333 1.124008 0.171693
v 0.108333 1.109936 2.344257
v 0.108333 1.109936 0.152796
v 0.108333 1.092613 2.359608
v 0.108333 1.092613 0.137446
v 0.108333 1.073208 0.126480
v 0.108333 1.053043 2.376899
v 0.108333 1.053043 0.120155
v 0.108333 1.033333 0.118182
v 0.108333 0.166664 2.378872
v 0.108333 0.146954 2.376899
v 0.108333 0.146954 0.120155
v 0.108333 0.126789 2.370574
v 0.108333 0.107384 2.359608
v 0.108333 0.107384 0.137446
v 0.108333 0.090061 2.344257
v 0.108333 0.090061 0.152796
v 0.108333 0.075993 2.325360
v 0.108333 0.075993 0.171693
v 0.108333 0.065937 0.192862
v 0.108333 0.060139 2.282195
v 0.108333 0.060139 0.214859
v 0.108333 0.058331 2.260690
v 0.108333 0.058331 0.236364
v 0.108333 0.000000 2.260690
v 0.108333 0.000000 0.236364
v 0.098104 1.199997 0.038528
v 0.098104 0.799999 0.038528
v 0.098104 0.399998 0.038528
v 0.098104 0.000000 0.038528
v 0.092656 1.199997 2.454510
v 0.092656 0.799999 2.454510
v 0.092656 0.399998 2.454510
v 0.092656 0.000000 2.454510
v 0.080102 1.199997 0.052862
v 0.080102 0.799999 0.052862
v 0.080102 0.399998 0.052862
v 0.080102 0.000000 0.052862
v 0.075661 1.199997 2.440150
v 0.075661 0.799999 2.440150
v 0.075661 0.399998 2.440150
v 0.075661 0.000000 2.440150
v 0.063459 1.199997 0.069229
v 0.063459 0.799999 0.069229
v 0.063459 0.399998 0.069229
v 0.063459 0.000000 0.069229
v 0.060182 1.199997 2.424170
v 0.060182 0.799999 2.424170
v 0.060182 0.399998 2.424170
v 0.060182 0.000000 2.424170
v 0.054166 1.141666 2.260690
v 0.054166 0.058331 0.236364
v 0.048456 1.199997 0.087384
v 0.048456 0.799999 0.087384
v 0.048456 0.399998 0.087384
v 0.048456 0.000000 0.087384
v 0.046329 1.199997 2.406765
v 0.046329 0.799999 2.406765
v 0.046329 0.399998 2.406765
v 0.046329 0.000000 2.406765
v 0.035317 1.199997 0.107023
v 0.035317 0.799999 0.107023
v 0.035317 0.399998 0.107023
v 0.035317 0.000000 0.107023
v 0.034189 1.199997 2.388128
v 0.034189 0.799999 2.388128
v 0.034189 0.399998 2.388128
v 0.034189 0.000000 2.388128
v 0.029027 1.033333 2.378872
v 0.029027 1.033333 0.118182
v 0.029027 0.744442 2.378872
v 0.029027 0.744442 0.118182
v 0.029027 0.455555 2.378872
v 0.029027 0.455555 0.118182
v 0.029027 0.166664 2.378872
v 0.029027 0.166664 0.118182
v 0.028659 1.044868 2.378208
v 0.028659 1.044868 0.118846
v 0.028659 0.155128 2.378208
v 0.028659 0.155128 0.118846
v 0.027622 1.056026 2.376268
v 0.027622 1.056026 0.120785
v 0.027622 0.143970 2.376268
v 0.027622 0.143970 0.120785
v 0.026025 1.066742 2.373132
v 0.026025 1.066742 0.123921
v 0.026025 0.133255 2.373132
v 0.026025 0.133255 0.123921
v 0.024205 1.199997 0.127803
v 0.024205 0.000000 0.127803
v 0.023972 1.076965 2.368879
v 0.023972 1.076965 0.128175
v 0.023972 0.123032 2.368879
v 0.023972 0.123032 0.128175
v 0.023804 1.199997 2.368401
v 0.023804 0.000000 2.368401
v 0.021568 1.086632 2.363587
v 0.021568 1.086632 0.133466
v 0.021568 0.113365 2.363587
v 0.021568 0.113365 0.133466
v 0.018920 1.095684 2.357336
v 0.018920 1.095684 0.139718
v 0.018920 0.104313 2.357336
v 0.018920 0.104313 0.139718
v 0.016134 1.104061 2.350205
v 0.016134 1.104061 0.146849
v 0.016134 0.095936 2.350205
v 0.016134 0.095936 0.146849
v 0.015212 1.199997 0.149359
v 0.015212 0.000000 0.149359
v 0.015071 1.199997 2.347305
v 0.015071 0.000000 2.347305
v 0.013314 1.111713 2.342272
v 0.013314 1.111713 0.154782
v 0.013314 0.088284 2.342272
v 0.013314 0.088284 0.154782
v 0.010602 1.118553 2.333664
v 0.010602 1.118553 0.163389
v 0.010602 0.081444 2.333664
v 0.010602 0.081444 0.163389
v 0.008374 1.199997 2.325771
v 0.008374 0.000000 2.325771
v 0.008363 1.199997 0.171326
v 0.008363 0.000000 0.171326
v 0.008088 1.124554 2.324474
v 0.008088 1.124554 0.172579
v 0.008088 0.075443 2.324474
v 0.008088 0.075443 0.172579
v 0.005825 1.129692 2.314766
v 0.005825 1.129692 0.182288
v 0.005825 0.070305 2.314766
v 0.005825 0.070305 0.182288
v 0.003860 1.133942 2.304603
v 0.003860 1.133942 0.192451
v 0.003860 0.066055 2.304603
v 0.003860 0.066055 0.192451
v 0.003698 1.199997 2.304178
v 0.003698 0.000000 2.304178
v 0.003616 1.199997 0.193354
v 0.003616 0.000000 0.193354
v 0.002247 1.137287 2.294050
v 0.002247 1.137287 0.203004
v 0.002247 0.062710 2.294050
v 0.002247 0.062710 0.203004
v 0.001032 1.139706 2.283170
v 0.001032 1.139706 0.213883
v 0.001032 0.060291 2.283170
v 0.001032 0.060291 0.213883
v 0.000952 1.199997 2.282825
v 0.000952 0.000000 2.282825
v 0.000266 1.141171 2.272029
v 0.000266 1.141171 0.225025
v 0.000266 0.058826 2.272029
v 0.000266 0.058826 0.225025
v 0.000000 1.199997 2.260690
v 0.000000 1.199997 0.236364
v 0.000000 1.141666 2.260690
v 0.000000 1.141666 0.236364
v 0.000000 0.058331 2.260690
v 0.000000 0.058331 0.236364
v 0.000000 0.000000 2.260690
v 0.000000 0.000000 0.236364

vn 0.079383 0.996839 -0.003166
vn 0.999206 0.000000 -0.039849
vn 0.999206 0.000000 -0.039848
vn 0.999206 0.000000 -0.039848
vn 0.112264 -0.704872 0.700395
vn 0.079357 0.800815 0.593631
vn 0.170152 0.000000 0.985418
vn 0.158879 0.000000 0.987298
vn 0.143062 0.000000 0.989714
vn 0.130730 -0.708108 0.693896
vn 0.203420 0.708095 0.676181
vn 0.338389 0.000000 0.941006
vn 0.313345 0.000000 0.949639
vn 0.288082 0.000000 0.957606
vn 0.238942 -0.708095 0.664460
vn 0.260344 0.800768 0.539436
vn 0.471554 0.000000 0.881837
vn 0.457805 0.000000 0.889053
vn 0.447916 0.000000 0.894076
vn 0.339419 -0.708050 0.619241
vn 0.461425 0.607565 0.646492
vn 0.557103 -0.000011 0.830444
vn 0.557112 0.000000 0.830438
vn 0.557103 0.000011 0.830444
vn 0.522629 -0.447275 0.725813
vn 0.309254 -0.005563 0.950963
vn 0.370325 0.006661 0.928878
vn 0.309949 -0.040017 0.949911
vn 0.370770 0.026999 0.928332
vn 0.310434 -0.068705 0.948109
vn 0.311147 0.068506 0.947889
vn 0.311205 -0.104529 0.944577
vn 0.250999 0.125903 0.959765
vn 0.250550 -0.175653 0.952035
vn 0.313801 0.140294 0.939067
vn 0.314688 -0.176975 0.932551
vn 0.314688 0.176975 0.932551
vn 0.317181 -0.221821 0.922059
vn 0.317183 0.221855 0.922049
vn 0.256972 -0.331341 0.907843
vn 0.256969 0.331334 0.907846
vn 0.327851 -0.346949 0.878715
vn 0.327847 0.346905 0.878734
vn 0.266667 -0.479256 0.836183
vn 0.266667 0.479256 0.836183
vn 0.274918 -0.580772 0.766241
vn 0.274927 0.580817 0.766203
vn 0.289730 -0.682167 0.671345
vn 0.285412 0.669423 0.685866
vn 0.378359 -0.621136 0.686320
vn 0.297608 0.737786 0.605889
vn 0.394403 -0.664580 0.634649
vn 0.394408 0.664572 0.634655
vn 0.461210 -0.586683 0.665649
vn 0.461201 0.586668 0.665669
vn 0.596263 0.082998 -0.798487
vn -0.392669 0.000000 0.919680
vn 0.830441 0.000000 0.557106
vn -0.392669 0.000000 0.919680
vn 0.591127 -0.076677 -0.802926
vn -0.361355 0.555725 0.748727
vn -0.471550 0.000000 0.881839
vn -0.457803 0.000000 0.889054
vn -0.447916 0.000000 0.894076
vn -0.399594 -0.555725 0.729036
vn -0.239493 0.555775 0.796089
vn -0.338395 0.000000 0.941004
vn -0.313349 0.000000 0.949638
vn -0.288083 0.000000 0.957605
vn -0.281319 -0.555775 0.782287
vn -0.110150 0.555789 0.823994
vn -0.170149 0.000000 0.985418
vn -0.158876 0.000000 0.987299
vn -0.143060 0.000000 0.989714
vn -0.153911 -0.555789 0.816952
vn -0.009657 0.970188 0.242162
vn -0.039848 0.000000 0.999206
vn -0.039848 0.000000 0.999206
vn -0.039848 0.000000 0.999206
vn -0.012876 -0.970183 0.242032
vn -0.000533 -0.975788 0.218720
vn -0.000751 -0.881793 0.471637
vn 0.000366 -0.744826 0.667258
vn 0.001536 -0.592637 0.805468
vn 0.001501 -0.390396 0.920646
vn 0.000600 -0.188057 0.982158
vn 0.000019 -0.040023 0.999199
vn 0.000394 0.089944 0.995947
vn 0.001381 0.346797 0.937939
vn 0.001536 0.592640 0.805466
vn 0.000368 0.744829 0.667255
vn -0.000560 0.862329 0.506349
vn -0.001107 0.940919 0.338629
vn -0.000654 0.986104 0.166126
vn 0.409963 -0.006773 -0.912077
vn 0.353071 0.005833 -0.935578
vn 0.310383 -0.040822 -0.949735
vn 0.247985 0.053574 -0.967281
vn 0.313350 -0.080830 -0.946191
vn 0.310566 0.081677 -0.947036
vn 0.209044 -0.154690 -0.965594
vn 0.311563 0.121617 -0.942411
vn 0.314280 -0.159723 -0.935798
vn 0.250685 0.191210 -0.948997
vn 0.314715 -0.197495 -0.928413
vn 0.314710 0.197451 -0.928424
vn 0.317563 -0.240440 -0.917247
vn 0.317561 0.240479 -0.917238
vn 0.256161 -0.342119 -0.904067
vn 0.256148 0.342115 -0.904072
vn 0.261195 -0.428019 -0.865203
vn 0.261183 0.427988 -0.865222
vn 0.333678 -0.411761 -0.848005
vn 0.333681 0.411757 -0.848006
vn 0.273094 -0.569382 -0.775387
vn 0.273108 0.569380 -0.775383
vn 0.284576 -0.657566 -0.697584
vn 0.361802 0.549069 -0.753407
vn 0.377016 -0.617028 -0.690750
vn 0.379310 0.600096 -0.704278
vn 0.394978 -0.662536 -0.636427
vn 0.394995 0.662508 -0.636445
vn 0.259469 -0.878121 -0.401968
vn 0.346577 0.782734 -0.516925
vn 0.000285 -0.984051 -0.177889
vn 0.000116 -0.937401 -0.348252
vn -0.000080 -0.857416 -0.514624
vn -0.000105 -0.734165 -0.678971
vn -0.000361 -0.585648 -0.810565
vn 0.000418 -0.390803 -0.920474
vn 0.000741 -0.075085 -0.997177
vn -0.000001 0.041834 -0.999125
vn 0.000348 0.201166 -0.979557
vn 0.000321 0.406130 -0.913815
vn -0.000381 0.585627 -0.810581
vn -0.000120 0.734185 -0.678950
vn 0.002003 0.883285 -0.468832
vn 0.000184 0.975795 -0.218686
vn 0.362649 0.800119 -0.477802
vn 0.000000 1.000000 0.000000
vn 0.604577 0.000000 0.796547
vn 0.616702 -0.002335 0.787193
vn 0.507902 -0.560000 -0.654550
vn 0.263039 -0.894426 0.361679
vn 0.612587 0.000000 0.790403
vn 0.424972 0.707152 -0.565097
vn 0.273952 0.894426 0.353485
vn 0.588172 0.000000 0.808736
vn 0.621507 0.004870 -0.783394
vn 0.612663 0.002803 0.790339
vn 0.247410 -0.910413 -0.331567
vn 0.415901 -0.707105 0.571864
vn 0.636630 0.000000 0.771170
vn 0.528395 -0.557512 0.640296
vn 0.528392 0.557511 0.640300
vn 0.448403 -0.711883 -0.540515
vn 0.447892 0.712662 -0.539913
vn 0.378096 0.832527 -0.404897
vn 0.555086 0.555337 0.619258
vn 0.698512 -0.006726 -0.715567
vn 0.688796 -0.004079 0.724944
vn 0.482348 -0.707269 0.516827
vn 0.482348 0.707269 0.516827
vn 0.676033 0.004079 0.736860
vn 0.545999 -0.600708 -0.583982
vn 0.579855 -0.555337 0.596128
vn 0.484642 -0.707345 -0.514572
vn 0.608624 0.457644 -0.648181
vn 0.602432 -0.557608 0.571095
vn 0.602432 0.557608 0.571095
vn 0.511148 -0.713365 -0.479414
vn 0.512441 0.711628 -0.480614
vn 0.631704 0.566470 -0.529208
vn 0.626350 0.555334 0.547073
vn 0.771928 -0.004191 0.635696
vn 0.541747 -0.707270 0.454180
vn 0.541747 0.707270 0.454180
vn 0.759470 0.006019 -0.650515
vn 0.760733 0.004191 0.649052
vn 0.648079 -0.555334 -0.521150
vn 0.648078 -0.555334 0.521151
vn 0.627834 -0.577159 -0.522219
vn 0.544115 0.707351 -0.451213
vn 0.667392 -0.557662 0.493560
vn 0.667392 0.557662 0.493560
vn 0.566633 -0.711799 -0.415053
vn 0.668823 0.557821 -0.491438
vn 0.592373 0.707752 -0.384944
vn 0.688057 0.555323 0.467112
vn 0.826253 -0.004615 -0.563280
vn 0.843178 -0.004247 0.537617
vn 0.592792 -0.707267 0.385189
vn 0.592792 0.707267 0.385189
vn 0.834299 0.004276 -0.551295
vn 0.833768 0.004247 0.552099
vn 0.706322 -0.555323 -0.439004
vn 0.706322 -0.555323 0.439005
vn 0.594061 -0.707295 -0.383177
vn 0.594061 0.707295 -0.383177
vn 0.613438 -0.708974 0.347922
vn 0.722013 0.557679 0.409502
vn 0.722397 -0.557846 -0.408596
vn 0.722397 0.557846 -0.408596
vn 0.739120 0.555305 -0.381232
vn 0.739120 0.555305 0.381232
vn 0.901406 -0.004241 -0.432954
vn 0.901404 -0.004243 0.432958
vn 0.634681 -0.707254 -0.311402
vn 0.634668 -0.707263 0.311408
vn 0.634681 0.707254 -0.311402
vn 0.634668 0.707263 0.311408
vn 0.893907 0.004241 -0.448232
vn 0.893905 0.004243 0.448236
vn 0.753676 -0.555305 -0.351580
vn 0.753677 -0.555305 0.351579
vn 0.765091 -0.557818 -0.321677
vn 0.765091 0.557818 -0.321677
vn 0.765568 -0.557652 0.320827
vn 0.650446 0.708956 0.272582
vn 0.666121 -0.707293 -0.236684
vn 0.666121 0.707293 -0.236684
vn 0.778955 0.555282 -0.291360
vn 0.778955 0.555282 0.291360
vn 0.945725 -0.004213 -0.324942
vn 0.946028 -0.004179 0.324059
vn 0.666924 -0.707257 0.234520
vn 0.666924 0.707257 0.234520
vn 0.940170 0.004213 -0.340679
vn 0.940488 0.004179 0.339801
vn 0.789710 -0.555282 -0.260807
vn 0.789710 -0.555282 0.260807
vn 0.797005 -0.557742 -0.231747
vn 0.677154 0.709009 -0.196898
vn 0.677816 -0.708914 0.194953
vn 0.797777 0.557585 0.229457
vn 0.540188 -0.832192 -0.125114
vn 0.688655 0.707329 -0.159500
vn 0.807430 0.555256 -0.199368
vn 0.807430 0.555256 0.199368
vn 0.976714 -0.004124 -0.214506
vn 0.977020 -0.004059 0.213109
vn 0.689520 -0.707251 0.156071
vn 0.689520 0.707251 0.156071
vn 0.973085 0.004124 -0.230409
vn 0.973414 0.004059 0.229017
vn 0.814433 -0.555256 -0.168493
vn 0.814433 -0.555256 0.168493
vn 0.818298 -0.557528 -0.139827
vn 0.818298 0.557528 -0.139827
vn 0.818789 -0.557481 0.137112
vn 0.818789 0.557481 0.137112
vn 0.702311 -0.707310 -0.080452
vn 0.702311 0.707310 -0.080452
vn 0.824793 0.555228 -0.106955
vn 0.824793 0.555228 0.106955
vn 0.994640 -0.003940 -0.103323
vn 0.994763 -0.003891 0.102136
vn 0.702706 -0.707244 0.077529
vn 0.702706 0.707244 0.077529
vn 0.994156 0.004968 -0.107835
vn 0.993014 0.003891 0.117931
vn 0.702258 -0.707653 -0.077854
vn 0.828191 -0.555228 0.076299
vn 0.829076 -0.557178 -0.046755
vn 0.550465 0.834265 -0.031461
vn 0.829036 -0.557349 0.045408
vn 0.829036 0.557349 0.045408
vn 0.894024 0.447348 -0.024517
vn 0.706516 0.707225 0.025839
vn 0.999732 -0.002215 -0.023035
vn 0.999737 -0.002213 0.022815
vn 0.000000 -0.999984 -0.005736
vn 0.706999 -0.707143 -0.010100
vn 0.707048 -0.707136 0.006421
vn 0.000000 -0.999780 0.020960
vn -0.000910 -0.990461 0.137791
vn 0.001718 -0.967090 0.254428
vn 0.004830 -0.939413 0.342754
vn 0.001905 -0.903417 0.428759
vn 0.000000 -0.857508 0.514471
vn 0.000670 -0.802003 0.597320
vn 0.000000 -0.737064 0.675823
vn 0.000685 -0.663037 0.748587
vn 0.000000 -0.580652 0.814152
vn 0.000667 -0.491637 0.870800
vn 0.000000 -0.396845 0.917886
vn 0.000623 -0.298789 0.954319
vn 0.000000 -0.198543 0.980092
vn 0.000558 -0.099034 0.995084
vn 0.000000 -0.019625 0.999807
vn 0.000000 0.019632 0.999807
vn 0.001642 0.098731 0.995113
vn 0.001749 0.197280 0.980346
vn 0.001895 0.298543 0.954394
vn 0.000000 0.396845 0.917886
vn 0.000667 0.491637 0.870800
vn 0.000000 0.580736 0.814092
vn 0.000683 0.663031 0.748592
vn 0.000000 0.736987 0.675907
vn 0.000672 0.802082 0.597214
vn 0.000000 0.857503 0.514478
vn 0.000635 0.903327 0.428952
vn 0.000000 0.939830 0.341641
vn 0.000577 0.967092 0.254427
vn -0.000943 0.988464 0.151455
vn 0.000000 0.999981 -0.006118
vn 0.891892 0.451867 -0.018597
vn 0.554613 0.832074 0.007556
vn -0.000314 0.999796 0.020192
vn 0.999623 0.001897 0.027388
vn 0.894024 -0.447348 -0.024517
vn 0.554347 -0.832147 0.015202
vn -0.000661 -0.996457 -0.084099
vn -0.000657 0.996481 -0.083814
vn -0.000293 -0.983787 -0.179343
vn -0.000286 0.983741 -0.179591
vn 0.000321 -0.963876 -0.266353
vn 0.001137 0.962319 -0.271921
vn 0.000091 -0.933162 -0.359456
vn 0.002498 0.935108 -0.354355
vn 0.000425 -0.898473 -0.439029
vn 0.000807 0.896056 -0.443941
vn 0.000049 -0.850728 -0.525606
vn 0.000054 0.850807 -0.525479
vn 0.000505 -0.799090 -0.601211
vn 0.000498 0.799063 -0.601247
vn 0.000003 -0.736504 -0.676433
vn -0.000004 0.736497 -0.676441
vn 0.000624 -0.666135 -0.745831
vn 0.000614 0.666195 -0.745777
vn 0.000061 -0.591014 -0.806662
vn 0.000060 0.591013 -0.806662
vn 0.000747 -0.502033 -0.864848
vn 0.000740 0.502032 -0.864848
vn 0.000170 -0.415947 -0.909389
vn 0.000168 0.415947 -0.909389
vn 0.001280 -0.318551 -0.947905
vn 0.000728 0.312037 -0.950070
vn 0.000834 -0.233193 -0.972430
vn 0.000129 0.215589 -0.976484
vn -0.000422 -0.102660 -0.994716
vn 0.001616 0.106992 -0.994259
vn 0.000000 -0.021806 -0.999762
vn 0.001869 0.034853 -0.999391
vn -0.000606 -0.999741 0.022764
vn 0.000068 0.999870 -0.016154
vn -0.371250 0.928448 -0.012512
vn -0.262896 0.964752 0.011819
vn -0.216767 -0.976092 -0.016001
vn -0.351016 -0.936294 0.011898
vn -0.061860 -0.975199 -0.212509
vn -0.082006 -0.964131 0.252442
vn -0.072325 -0.934699 -0.348004
vn -0.029907 -0.850757 -0.524707
vn -0.097326 -0.876513 0.471437
vn -0.008782 -0.731516 -0.681768
vn -0.008999 -0.731655 0.681616
vn 0.001976 -0.584308 -0.811530
vn 0.001550 -0.581323 0.813672
vn 0.004775 -0.404478 -0.914535
vn 0.003642 -0.402692 0.915328
vn 0.002564 -0.210385 0.977615
vn 0.000556 -0.038518 -0.999258
vn 0.000607 -0.049487 0.998775
vn 0.001257 0.056335 0.998411
vn 0.003396 0.195176 -0.980762
vn 0.004276 0.408184 -0.912890
vn 0.003880 0.377775 0.925889
vn 0.001976 0.584308 -0.811530
vn 0.001546 0.581347 0.813654
vn -0.008780 0.731557 -0.681724
vn -0.008992 0.731679 0.681590
vn -0.097362 0.874627 -0.474918
vn -0.030118 0.852441 0.521955
vn -0.072457 0.936343 0.343528
vn -0.081238 0.962643 -0.258301
vn -0.062306 0.975865 0.209299
vn -0.514352 0.857402 -0.017435
vn -0.196009 0.980551 0.009968
vn -0.287126 -0.957806 -0.012908
vn -0.341592 -0.939778 0.011513
vn -0.597327 -0.785886 -0.159947
vn -0.598369 -0.787680 0.146681
vn -0.513683 0.845474 -0.145957
vn -0.598290 0.787195 0.149579
vn -0.699245 0.705169 -0.117444
vn -0.824472 0.551773 0.125666
vn -0.700641 -0.705477 -0.106792
vn -0.822950 -0.551043 0.138222
vn -0.721274 -0.625376 -0.297773
vn -0.777628 -0.555287 0.294876
vn -0.777794 0.555065 -0.294855
vn -0.721352 0.625300 0.297743
vn -0.806617 0.550254 0.215845
vn -0.806618 -0.550254 -0.215844
vn -0.669467 -0.606032 -0.429580
vn -0.838463 -0.358661 0.410295
vn -0.838501 0.358588 -0.410281
vn -0.669471 0.606028 0.429579
vn -0.847410 0.438593 -0.299219
vn -0.667466 0.703980 0.242695
vn -0.667467 -0.703980 -0.242694
vn -0.847410 -0.438594 0.299218
vn -0.617183 -0.568142 -0.544334
vn -0.705548 -0.445089 0.551451
vn -0.705541 0.445092 -0.551457
vn -0.617173 0.568121 0.544368
vn -0.761706 0.549144 0.343867
vn -0.761705 -0.549144 -0.343870
vn -0.547119 -0.520376 -0.655644
vn -0.634659 -0.413134 0.653091
vn -0.634710 0.413074 -0.653080
vn -0.547196 0.520298 0.655642
vn -0.686022 0.594468 -0.419500
vn -0.722382 0.549220 0.420144
vn -0.722381 -0.549220 -0.420146
vn -0.766577 -0.438889 0.468760
vn -0.492174 -0.474120 -0.730051
vn -0.485377 -0.471271 0.736419
vn -0.485395 0.471269 -0.736409
vn -0.492191 0.474118 0.730041
vn -0.674481 0.550485 0.491978
vn -0.573270 -0.704635 -0.418152
vn -0.421791 -0.416446 -0.805397
vn -0.496315 -0.330564 0.802744
vn -0.496327 0.330611 -0.802718
vn -0.421802 0.416503 0.805363
vn -0.652512 0.443586 -0.614377
vn -0.619186 0.552421 0.558068
vn -0.619187 -0.552421 -0.558066
vn -0.652512 -0.443586 0.614377
vn -0.412736 -0.305152 -0.858214
vn -0.358654 -0.355110 0.863287
vn -0.358653 0.355112 -0.863286
vn -0.412737 0.305151 0.858214
vn -0.589660 0.447054 0.672640
vn -0.589658 -0.447054 -0.672641
vn -0.495831 0.555075 -0.667865
vn -0.410339 0.707600 0.575260
vn -0.540806 0.006135 -0.841125
vn -0.521182 0.006323 0.853422
vn -0.562085 -0.006369 -0.827055
vn -0.505914 -0.005881 0.862564
vn -0.410339 -0.707600 -0.575260
vn -0.495834 -0.555075 0.667863
vn -0.269313 -0.261933 -0.926748
vn -0.243226 -0.273919 0.930489
vn -0.269310 0.261922 -0.926752
vn -0.243223 0.273907 0.930493
vn -0.346033 0.710138 0.613160
vn -0.408520 -0.556422 -0.723537
vn -0.357143 0.556593 -0.750102
vn -0.278738 0.713855 0.642430
vn -0.405258 0.004458 -0.914191
vn -0.395945 -0.006128 -0.918254
vn -0.280404 -0.707599 -0.648597
vn -0.280108 -0.711650 0.644278
vn -0.169422 -0.168517 -0.971029
vn -0.134165 -0.211178 0.968196
vn -0.169049 0.168444 -0.971107
vn -0.170799 0.185347 0.967716
vn -0.210262 0.709892 0.672193
vn -0.210245 -0.709961 -0.672125
vn -0.197755 0.373728 -0.906212
vn -0.110027 0.832385 0.543166
vn -0.270775 -0.000384 0.962643
vn -0.261468 0.002823 0.965208
vn -0.196714 -0.377240 -0.904983
vn -0.110805 -0.833383 0.541475
vn -0.066061 -0.087361 -0.993984
vn -0.078489 -0.077625 0.993888
vn -0.093086 0.074089 -0.992898
vn -0.068082 0.106222 0.992009
vn -0.069918 0.708098 0.702644
vn -0.069562 -0.709604 -0.701159
vn -0.027631 0.832369 -0.553533
vn -0.011563 0.707201 0.706918
vn -0.049405 -0.000036 -0.998779
vn -0.049485 0.000786 0.998775
vn -0.016320 -0.016320 -0.999734
vn -0.016321 -0.016321 0.999734
vn -0.012292 0.024659 -0.999620
vn -0.013988 0.013988 0.999804
vn -0.056328 -0.001634 -0.998411
vn -0.049558 0.000071 0.998771
vn -0.013605 -0.832127 -0.554418
vn -0.039852 -0.800318 0.598249
vn -0.012696 0.707221 0.706879
vn 0.023486 0.707498 -0.706325
vn 0.017345 0.707213 0.706788
vn -0.008413 0.857554 -0.514326
vn 0.057103 0.000034 -0.998368
vn 0.056911 0.001681 0.998378
vn 0.011157 -0.022282 -0.999689
vn 0.016770 -0.016770 0.999719
vn -0.026938 0.000000 0.999637
vn -0.024533 0.000000 -0.999699
vn -0.026938 0.000000 0.999637
vn -0.024533 0.000000 -0.999699
vn 0.028666 0.014337 -0.999486
vn 0.011158 0.022283 0.999689
vn 0.050085 -0.000019 0.998745
vn -0.019044 -0.707235 0.706722
vn 0.033218 -0.449676 -0.892574
vn 0.023487 -0.707498 0.706325
vn -0.017345 -0.707213 -0.706788
vn 0.044006 0.895173 0.443542
vn 0.054565 -0.833399 -0.549971
vn 0.097367 -0.076473 -0.992306
vn 0.110308 -0.069531 0.991462
vn 0.077269 0.096589 -0.992321
vn 0.128785 0.064398 0.989579
vn -0.068355 0.555124 -0.828954
vn -0.105817 0.000000 -0.994386
vn -0.088803 0.000000 -0.996049
vn -0.081453 -0.707497 -0.702007
vn 0.099857 0.801333 -0.589826
vn 0.156577 0.604749 0.780873
vn 0.266434 -0.000134 -0.963853
vn 0.233235 -0.002725 -0.972417
vn 0.110027 -0.832385 -0.543166
vn 0.139304 -0.709125 0.691184
vn -0.063772 0.707578 0.703752
vn -0.116206 0.000000 0.993225
vn -0.097522 0.000000 0.995233
vn -0.089437 -0.707578 0.700953
vn 0.164928 0.833548 0.527254
vn 0.164942 -0.833514 -0.527304
vn 0.197172 -0.201662 -0.959404
vn 0.149264 -0.211115 0.965997
vn 0.189211 0.186965 -0.963973
vn 0.158794 0.228785 0.960438
vn -0.128465 0.707518 -0.694921
vn -0.215227 0.000000 -0.976564
vn -0.181783 0.000000 -0.983339
vn -0.179016 -0.555147 -0.812259
vn 0.237599 0.803047 -0.546500
vn 0.280406 0.707599 0.648596
vn 0.383232 0.004912 0.923639
vn 0.402245 -0.002669 0.915528
vn 0.278737 -0.713855 -0.642430
vn 0.177134 -0.895416 0.408478
vn -0.165971 0.555241 0.814961
vn -0.236219 0.000000 0.971700
vn -0.199559 0.000000 0.979886
vn -0.166914 -0.707605 0.686611
vn 0.294481 0.800781 0.521566
vn 0.271453 -0.833637 -0.481001
vn 0.281150 -0.279393 -0.918093
vn 0.277904 -0.271699 0.921384
vn 0.219771 0.332267 -0.917224
vn 0.336774 0.215356 0.916627
vn 0.358868 0.800797 -0.479519
vn 0.410339 0.707600 0.575260
vn 0.498329 0.000391 -0.866988
vn 0.566964 0.005875 0.823722
vn 0.513541 -0.002333 -0.858062
vn 0.560347 -0.006568 0.828232
vn 0.321810 -0.832407 -0.451150
vn 0.404642 -0.708257 0.578478
vn -0.199206 0.707534 -0.678021
vn -0.315097 0.000000 -0.949060
vn -0.281890 0.000000 -0.959447
vn -0.222672 -0.707534 -0.670681
vn -0.217581 0.707592 0.672289
vn -0.342967 0.000000 0.939348
vn -0.307918 0.000000 0.951413
vn -0.242348 -0.707592 0.663763
vn 0.461613 0.707557 0.535048
vn 0.461609 -0.707557 -0.535051
vn 0.422454 -0.314431 -0.850097
vn 0.429457 -0.314188 0.846672
vn 0.429457 0.314190 -0.846671
vn 0.422455 0.314429 0.850098
vn 0.522215 0.706218 -0.478066
vn 0.513816 0.706792 0.486250
vn 0.513820 -0.706792 -0.486246
vn 0.522214 -0.706218 0.478068
vn 0.435825 -0.432191 -0.789473
vn 0.526604 -0.344974 0.776969
vn 0.526607 0.344977 -0.776966
vn 0.435823 0.432188 0.789476
vn -0.228190 0.800356 -0.554400
vn -0.412921 0.000000 -0.910767
vn -0.380617 0.000000 -0.924733
vn -0.343440 -0.555175 -0.757515
vn 0.560970 0.705830 0.432569
vn 0.560971 -0.705830 -0.432568
vn 0.498530 -0.484395 -0.718909
vn 0.506170 -0.484904 0.713204
vn 0.506210 0.484896 -0.713181
vn 0.498570 0.484385 0.718888
vn -0.341277 0.555191 0.758481
vn -0.442670 0.000000 0.896685
vn -0.410325 0.000000 0.911939
vn -0.312815 -0.707558 0.633647
vn 0.609645 0.704323 -0.363678
vn 0.602421 0.704964 0.374319
vn 0.602420 -0.704964 -0.374321
vn 0.609645 -0.704323 0.363678
vn 0.554420 -0.534298 -0.638079
vn 0.657139 -0.425535 0.622164
vn 0.657183 0.425476 -0.622158
vn 0.554494 0.534222 0.638078
vn 0.540702 0.798431 0.264857
vn 0.637415 -0.704424 -0.312232
vn 0.617077 -0.577153 -0.534893
vn 0.726472 -0.450067 0.519305
vn 0.726516 0.450003 -0.519299
vn 0.617117 0.577098 0.534906
vn -0.395918 0.555180 -0.731454
vn -0.506805 0.000000 -0.862061
vn -0.476017 0.000000 -0.879436
vn -0.358141 -0.707548 -0.609189
vn 0.670929 0.704126 -0.232509
vn 0.665275 0.704414 0.247406
vn 0.665275 -0.704414 -0.247406
vn 0.670929 -0.704126 0.232508
vn 0.668414 -0.616205 -0.416550
vn 0.808436 -0.433844 0.397757
vn 0.808479 0.433770 -0.397750
vn 0.668416 0.616205 0.416547
vn 0.685656 0.704994 0.181270
vn 0.581665 -0.798761 -0.153778
vn 0.716950 -0.632094 -0.294007
vn 0.774253 -0.561380 0.292208
vn 0.774297 0.561317 -0.292211
vn 0.716949 0.632095 0.294008
vn -0.356780 0.707539 0.609997
vn -0.534756 0.000000 0.845006
vn -0.504873 0.000000 0.863194
vn -0.377899 -0.707539 0.597144
vn 0.592888 0.799217 -0.098675
vn 0.700575 0.705704 0.105718
vn 0.700575 -0.705704 -0.105718
vn 0.699077 -0.705517 0.116349
vn 0.511100 -0.847964 -0.140477
vn 0.594959 -0.788832 0.154166
vn 0.594960 0.788832 -0.154166
vn 0.511099 0.847964 0.140478
vn 0.707193 0.706317 -0.031535
vn 0.800186 0.599155 0.026751
vn 0.831786 -0.554409 -0.027609
vn 0.446845 -0.894038 0.032023
vn 0.052706 -0.976911 -0.207045
vn 0.071496 -0.965196 0.251564
vn 0.063698 -0.938203 -0.340173
vn 0.025561 -0.857050 -0.514599
vn 0.093413 -0.880757 0.464265
vn 0.007581 -0.740524 -0.671987
vn 0.007581 -0.740523 0.671989
vn -0.000921 -0.545086 -0.838379
vn -0.001662 -0.592630 0.805473
vn -0.003711 -0.415788 0.909454
vn -0.004801 -0.244847 -0.969550
vn -0.002937 -0.220068 0.975480
vn -0.000788 -0.044693 0.999000
vn -0.000788 0.044690 -0.999001
vn -0.002937 0.220067 -0.975480
vn -0.004801 0.244849 0.969549
vn -0.003710 0.415789 -0.909453
vn -0.001662 0.592630 -0.805473
vn -0.000922 0.545087 0.838379
vn 0.007589 0.740546 -0.671963
vn 0.007589 0.740544 0.671965
vn 0.093497 0.880740 -0.464280
vn 0.025622 0.857035 0.514621
vn 0.063713 0.938190 0.340206
vn 0.071519 0.965189 -0.251586
vn 0.052704 0.976911 0.207045
vn 0.446845 0.894038 -0.032024
vn 0.831786 0.554409 0.027609
vn 0.800186 -0.599155 -0.026751
vn 0.599989 -0.799561 0.026755
vn -0.339496 0.800357 -0.494137
vn -0.594966 0.000000 -0.803751
vn -0.566277 0.000000 -0.824215
vn -0.494852 -0.555177 -0.668506
vn -0.492219 0.555148 0.670471
vn -0.618965 0.000000 0.785419
vn -0.591786 0.000000 0.806095
vn -0.437419 -0.707518 0.555051
vn -0.459180 0.707537 -0.537164
vn -0.675907 0.000000 -0.736987
vn -0.649774 0.000000 -0.760128
vn -0.477647 -0.707537 -0.520811
vn -0.473801 0.707498 0.524365
vn -0.694749 0.000000 0.719253
vn -0.670427 0.000000 0.741975
vn -0.490990 -0.707498 0.508307
vn -0.512534 0.707524 -0.486537
vn -0.748507 0.000000 -0.663127
vn -0.725261 0.000000 -0.688474
vn -0.622569 -0.555154 -0.551554
vn -0.615887 0.555104 0.559055
vn -0.761857 0.000000 0.647745
vn -0.740444 0.000000 0.672118
vn -0.538431 -0.707478 0.457784
vn -0.000120 -0.999725 -0.023441
vn -0.000120 0.999725 0.023441
vn -0.559599 0.707508 -0.431604
vn -0.811967 0.000000 -0.583703
vn -0.791841 0.000000 -0.610727
vn -0.573822 -0.707508 -0.412506
vn -0.566629 0.707460 0.422412
vn -0.820240 0.000000 0.572019
vn -0.801735 0.000000 0.597679
vn -0.579707 -0.707460 0.404277
vn -0.770549 0.447957 -0.453420
vn -0.858351 0.000000 -0.513063
vn -0.848884 0.000000 -0.528579
vn -0.805327 -0.372177 -0.461446
vn -0.820644 0.316860 0.475544
vn -0.861988 0.000000 0.506930
vn -0.853589 0.000000 0.520946
vn -0.746069 -0.515076 0.421993
vn -0.862868 -0.051589 -0.502789
vn -0.979992 -0.021443 0.197877
vn -0.653005 0.000000 -0.757353
vn -0.863444 0.000000 0.504444
vn -0.979508 0.000000 -0.201404
vn -0.863444 0.000000 0.504444
vn -0.979331 0.021444 -0.201124
vn -0.863845 0.051706 0.501097
vn -0.859762 -0.111156 -0.498451
vn -0.652537 -0.121356 0.747976
vn -0.652268 0.121360 -0.748210
vn -0.860341 0.111098 0.497464
vn -0.966418 -0.163076 -0.198602
vn -0.966811 -0.163295 0.196498
vn -0.966418 0.163076 -0.198602
vn -0.966811 0.163295 0.196498
vn -0.835802 -0.307346 -0.454942
vn -0.637866 -0.341738 0.690175
vn -0.637935 0.341738 -0.690112
vn -0.835672 0.307380 0.455159
vn -0.857774 0.317640 -0.404139
vn -0.808550 -0.448471 -0.380947
vn -0.637563 -0.433481 -0.636874
vn -0.815943 -0.388870 0.427804
vn -0.815935 0.388881 -0.427810
vn -0.637568 0.433473 0.636874
vn -0.809126 0.448435 0.379765
vn -0.809126 -0.448435 0.379764
vn -0.800003 -0.456514 -0.389345
vn -0.617690 -0.516948 0.592642
vn -0.617630 0.516969 -0.592686
vn -0.800103 0.456453 0.389212
vn -0.906781 -0.395759 -0.145338
vn -0.906866 -0.395871 0.144499
vn -0.906781 0.395759 -0.145338
vn -0.906866 0.395871 0.144499
vn -0.597078 -0.644595 -0.477489
vn -0.597067 -0.644596 0.477500
vn -0.597078 0.644595 -0.477489
vn -0.597067 0.644596 0.477500
vn -0.806644 0.515726 -0.288708
vn -0.873622 -0.372847 -0.312680
vn -0.873865 0.372794 0.312066
vn -0.806874 -0.515682 0.288143
vn -0.754795 -0.597555 -0.270577
vn -0.754838 -0.597519 0.270537
vn -0.754795 0.597555 -0.270577
vn -0.754838 0.597519 0.270537
vn -0.744586 -0.625309 -0.233625
vn -0.744628 -0.625327 0.233441
vn -0.744587 0.625320 -0.233593
vn -0.744629 0.625338 0.233409
vn -0.774100 0.600724 0.199746
vn -0.865620 -0.448121 0.223362
vn -0.774088 0.600760 -0.199685
vn -0.774088 -0.600760 -0.199685
vn -0.732841 -0.650918 -0.198116
vn -0.732838 -0.650921 0.198117
vn -0.732851 0.650909 -0.198107
vn -0.732849 0.650911 0.198109
vn -0.725765 -0.668706 -0.161551
vn -0.850717 -0.521607 0.064867
vn -0.850686 0.521691 -0.064592
vn -0.725803 0.668602 0.161809
vn -0.718061 -0.684345 -0.126727
vn -0.570123 -0.798044 0.195158
vn -0.570132 0.798031 -0.195180
vn -0.718063 0.684344 0.126721
vn -0.881148 0.447772 0.151915
vn -0.788022 -0.600470 0.135860
vn -0.846218 0.517256 -0.127908
vn -0.846218 -0.517256 -0.127908
vn -0.714061 -0.693982 -0.092228
vn -0.715957 -0.692108 0.091603
vn -0.839284 0.542490 -0.036140
vn -0.560370 0.815603 0.144145
vn -0.556068 -0.826190 -0.090538
vn -0.712917 -0.698946 0.056781
vn -0.556068 0.826190 -0.090538
vn -0.712917 0.698946 0.056781
vn -0.796338 0.600794 0.069953
vn -0.796338 -0.600794 0.069953
vn -0.707993 -0.705924 -0.020427
vn -0.556094 -0.830321 0.036426
vn -0.707989 0.705909 -0.021055
vn -0.556108 0.830343 0.035685
vn -0.799482 0.600544 0.013279
vn -0.796822 0.603181 -0.035311
vn -0.707209 -0.706968 -0.007156
vn -0.707179 -0.707019 0.004770
vn -0.707179 0.707019 -0.004770
vn -0.707209 0.706968 0.007156
vn -0.706435 -0.707605 0.015646
vn -0.926326 -0.375291 -0.032830

f 81//81 50//50 52//52
f 275//275 276//276 81//81
f 52//52 54//54 81//81
f 81//81 48//48 50//50
f 44//44 46//46 83//83
f 82//82 46//46 48//48
f 46//46 82//82 83//83
f 81//81 82//82 48//48
f 84//84 44//44 83//83
f 81//81 277//277 278//278
f 279//279 82//82 278//278
f 276//276 277//277 81//81
f 280//280 281//281 82//82
f 82//82 279//279 280//280
f 83//83 281//281 282//282
f 83//83 282//282 283//283
f 84//84 83//83 283//283
f 83//83 82//82 281//281
f 42//42 44//44 84//84
f 38//38 40//40 85//85
f 40//40 84//84 85//85
f 42//42 84//84 40//40
f 36//36 38//38 85//85
f 86//86 28//28 30//30
f 32//32 34//34 86//86
f 30//30 32//32 86//86
f 85//85 34//34 36//36
f 26//26 28//28 87//87
f 284//284 285//285 84//84
f 85//85 84//84 285//285
f 85//85 285//285 286//286
f 85//85 286//286 287//287
f 287//287 86//86 85//85
f 86//86 289//289 87//87
f 28//28 86//86 87//87
f 86//86 288//288 289//289
f 287//287 288//288 86//86
f 86//86 34//34 85//85
f 283//283 284//284 84//84
f 27//27 88//88 29//29
f 31//31 29//29 88//88
f 88//88 33//33 31//31
f 37//37 35//35 89//89
f 39//39 89//89 41//41
f 37//37 89//89 39//39
f 89//89 35//35 33//33
f 41//41 90//90 43//43
f 292//292 88//88 291//291
f 88//88 292//292 293//293
f 293//293 294//294 89//89
f 89//89 88//88 293//293
f 89//89 295//295 296//296
f 41//41 89//89 90//90
f 90//90 296//296 297//297
f 298//298 90//90 297//297
f 294//294 295//295 89//89
f 89//89 33//33 88//88
f 45//45 43//43 90//90
f 91//91 47//47 45//45
f 300//300 92//92 91//91
f 47//47 91//91 92//92
f 92//92 49//49 47//47
f 90//90 298//298 91//91
f 93//93 51//51 49//49
f 51//51 94//94 53//53
f 93//93 94//94 51//51
f 55//55 53//53 94//94
f 92//92 93//93 49//49
f 302//302 93//93 92//92
f 299//299 91//91 298//298
f 301//301 92//92 300//300
f 302//302 92//92 301//301
f 299//299 300//300 91//91
f 303//303 304//304 93//93
f 93//93 302//302 303//303
f 94//94 304//304 305//305
f 94//94 305//305 309//309
f 309//309 55//55 94//94
f 94//94 93//93 304//304
f 45//45 90//90 91//91
f 13//13 8//8 7//7
f 14//14 9//9 8//8
f 18//18 13//13 12//12
f 19//19 14//14 13//13
f 2//2 1//1 6//6
f 11//11 12//12 7//7
f 12//12 11//11 16//16
f 7//7 8//8 3//3
f 4//4 3//3 8//8
f 5//5 4//4 9//9
f 10//10 9//9 14//14
f 17//17 16//16 21//21
f 18//18 17//17 22//22
f 23//23 24//24 19//19
f 15//15 14//14 19//19
f 24//24 25//25 20//20
f 68//68 67//67 72//72
f 69//69 68//68 73//73
f 63//63 62//62 67//67
f 64//64 63//63 68//68
f 77//77 72//72 71//71
f 66//66 71//71 72//72
f 67//67 62//62 61//61
f 72//72 77//77 78//78
f 79//79 74//74 73//73
f 80//80 75//75 74//74
f 75//75 70//70 69//69
f 62//62 57//57 56//56
f 63//63 58//58 57//57
f 58//58 63//63 64//64
f 70//70 65//65 64//64
f 59//59 64//64 65//65
f 157//157 146//146 149//149
f 168//168 157//157 149//149
f 168//168 178//178 172//172
f 187//187 183//183 178//178
f 194//194 199//199 187//187
f 172//172 178//178 183//183
f 203//203 199//199 194//194
f 149//149 165//165 168//168
f 165//165 178//178 168//168
f 149//149 151//151 165//165
f 165//165 180//180 178//178
f 196//196 214//214 212//212
f 187//187 178//178 194//194
f 194//194 178//178 180//180
f 210//210 203//203 212//212
f 194//194 212//212 203//203
f 221//221 217//217 228//228
f 233//233 221//221 228//228
f 233//233 244//244 237//237
f 253//253 249//249 260//260
f 260//260 265//265 253//253
f 237//237 244//244 249//249
f 307//307 265//265 260//260
f 228//228 212//212 214//214
f 217//217 212//212 228//228
f 230//230 246//246 244//244
f 260//260 244//244 246//246
f 249//249 244//244 260//260
f 260//260 262//262 311//311
f 311//311 307//307 260//260
f 244//244 233//233 228//228
f 210//210 212//212 217//217
f 123//123 143//143 139//139
f 139//139 119//119 121//121
f 139//139 121//121 123//123
f 119//119 139//139 56//56
f 117//117 119//119 56//56
f 56//56 109//109 111//111
f 56//56 111//111 113//113
f 56//56 113//113 115//115
f 115//115 117//117 56//56
f 56//56 105//105 107//107
f 101//101 103//103 56//56
f 105//105 56//56 103//103
f 99//99 101//101 56//56
f 109//109 56//56 107//107
f 97//97 56//56 95//95
f 57//57 58//58 95//95
f 95//95 58//58 96//96
f 95//95 56//56 57//57
f 99//99 56//56 97//97
f 120//120 118//118 60//60
f 60//60 116//116 114//114
f 60//60 114//114 112//112
f 60//60 118//118 116//116
f 124//124 149//149 146//146
f 151//151 124//124 122//122
f 149//149 124//124 151//151
f 120//120 151//151 122//122
f 120//120 60//60 151//151
f 100//100 98//98 60//60
f 96//96 59//59 60//60
f 96//96 58//58 59//59
f 96//96 60//60 98//98
f 60//60 102//102 100//100
f 60//60 110//110 108//108
f 60//60 106//106 104//104
f 108//108 106//106 60//60
f 102//102 60//60 104//104
f 60//60 112//112 110//110
f 160//160 158//158 139//139
f 160//160 143//143 156//156
f 139//139 143//143 160//160
f 160//160 173//173 158//158
f 190//190 188//188 173//173
f 190//190 202//202 206//206
f 190//190 206//206 204//204
f 160//160 190//190 173//173
f 190//190 160//160 182//182
f 160//160 156//156 167//167
f 160//160 171//171 182//182
f 171//171 160//160 167//167
f 190//190 186//186 198//198
f 202//202 208//208 206//206
f 202//202 190//190 198//198
f 186//186 190//190 182//182
f 224//224 240//240 238//238
f 216//216 224//224 206//206
f 222//222 204//204 206//206
f 256//256 270//270 268//268
f 248//248 256//256 240//240
f 254//254 238//238 240//240
f 232//232 240//240 224//224
f 220//220 224//224 216//216
f 236//236 240//240 232//232
f 220//220 232//232 224//224
f 248//248 252//252 256//256
f 240//240 236//236 248//248
f 264//264 256//256 252//252
f 270//270 264//264 273//273
f 270//270 256//256 264//264
f 208//208 216//216 206//206
f 95//95 131//131 97//97
f 99//99 97//97 131//131
f 131//131 101//101 99//99
f 105//105 103//103 130//130
f 107//107 130//130 109//109
f 130//130 107//107 105//105
f 101//101 130//130 103//103
f 129//129 111//111 109//109
f 337//337 130//130 339//339
f 101//101 131//131 339//339
f 343//343 341//341 131//131
f 339//339 131//131 341//341
f 333//333 129//129 130//130
f 109//109 130//130 129//129
f 335//335 333//333 130//130
f 331//331 129//129 333//333
f 329//329 129//129 331//331
f 337//337 335//335 130//130
f 339//339 130//130 101//101
f 128//128 111//111 129//129
f 128//128 115//115 113//113
f 128//128 127//127 115//115
f 117//117 115//115 127//127
f 126//126 117//117 127//127
f 325//325 127//127 128//128
f 129//129 329//329 128//128
f 125//125 121//121 119//119
f 126//126 125//125 119//119
f 123//123 121//121 125//125
f 313//313 123//123 125//125
f 317//317 125//125 126//126
f 117//117 126//126 119//119
f 321//321 126//126 127//127
f 127//127 323//323 321//321
f 128//128 329//329 327//327
f 128//128 327//327 325//325
f 127//127 325//325 323//323
f 123//123 313//313 272//272
f 126//126 319//319 317//317
f 125//125 317//317 315//315
f 125//125 315//315 313//313
f 319//319 126//126 321//321
f 113//113 111//111 128//128
f 138//138 120//120 122//122
f 314//314 138//138 124//124
f 122//122 124//124 138//138
f 118//118 120//120 137//137
f 136//136 114//114 116//116
f 118//118 137//137 116//116
f 136//136 116//116 137//137
f 326//326 136//136 137//137
f 137//137 120//120 138//138
f 330//330 135//135 136//136
f 137//137 138//138 320//320
f 124//124 306//306 314//314
f 138//138 316//316 318//318
f 320//320 138//138 318//318
f 316//316 138//138 314//314
f 137//137 322//322 324//324
f 136//136 326//326 328//328
f 136//136 328//328 330//330
f 326//326 137//137 324//324
f 322//322 137//137 320//320
f 112//112 114//114 136//136
f 108//108 110//110 134//134
f 135//135 110//110 112//112
f 110//110 135//135 134//134
f 330//330 332//332 135//135
f 106//106 108//108 134//134
f 133//133 98//98 100//100
f 102//102 104//104 133//133
f 100//100 102//102 133//133
f 134//134 104//104 106//106
f 96//96 98//98 132//132
f 332//332 334//334 135//135
f 134//134 135//135 334//334
f 334//334 336//336 134//134
f 338//338 134//134 336//336
f 338//338 133//133 134//134
f 342//342 132//132 133//133
f 98//98 133//133 132//132
f 340//340 342//342 133//133
f 344//344 132//132 342//342
f 338//338 340//340 133//133
f 133//133 104//104 134//134
f 112//112 136//136 135//135
f 271//271 274//274 266//266
f 257//257 258//258 250//250
f 257//257 266//266 258//258
f 241//241 242//242 234//234
f 225//225 226//226 218//218
f 225//225 234//234 226//226
f 241//241 250//250 242//242
f 257//257 255//255 269//269
f 257//257 271//271 266//266
f 255//255 257//257 241//241
f 241//241 234//234 225//225
f 250//250 241//241 257//257
f 225//225 223//223 239//239
f 223//223 225//225 207//207
f 209//209 207//207 218//218
f 218//218 207//207 225//225
f 191//191 207//207 200//200
f 192//192 184//184 191//191
f 209//209 200//200 207//207
f 176//176 175//175 184//184
f 162//162 161//161 169//169
f 154//154 161//161 162//162
f 169//169 175//175 176//176
f 145//145 142//142 154//154
f 189//189 191//191 175//175
f 184//184 175//175 191//191
f 191//191 189//189 205//205
f 142//142 141//141 159//159
f 154//154 142//142 161//161
f 161//161 159//159 174//174
f 161//161 175//175 169//169
f 263//263 261//261 310//310
f 310//310 261//261 267//267
f 261//261 263//263 247//247
f 231//231 229//229 245//245
f 245//245 229//229 235//235
f 229//229 213//213 219//219
f 261//261 245//245 251//251
f 310//310 267//267 308//308
f 261//261 251//251 259//259
f 245//245 235//235 243//243
f 229//229 219//219 227//227
f 229//229 231//231 215//215
f 197//197 195//195 213//213
f 213//213 195//195 201//201
f 195//195 197//197 181//181
f 166//166 164//164 179//179
f 164//164 166//166 153//153
f 179//179 164//164 170//170
f 195//195 179//179 185//185
f 193//193 195//195 185//185
f 179//179 170//170 177//177
f 155//155 163//163 164//164
f 150//150 147//147 155//155
f 150//150 155//155 164//164
f 211//211 213//213 201//201
f 806//806 805//805 803//803
f 706//706 714//714 715//715
f 696//696 706//706 707//707
f 688//688 696//696 697//697
f 680//680 688//688 689//689
f 630//630 680//680 681//681
f 594//594 630//630 631//631
f 566//566 594//594 595//595
f 544//544 566//566 567//567
f 524//524 544//544 545//545
f 801//801 809//809 798//798
f 798//798 795//795 801//801
f 809//809 801//801 807//807
f 791//791 795//795 798//798
f 786//786 770//770 779//779
f 770//770 760//760 767//767
f 751//751 760//760 744//744
f 791//791 786//786 783//783
f 779//779 783//783 786//786
f 791//791 798//798 786//786
f 770//770 767//767 775//775
f 770//770 775//775 779//779
f 760//760 751//751 755//755
f 760//760 755//755 763//763
f 760//760 763//763 767//767
f 744//744 735//735 741//741
f 744//744 741//741 747//747
f 716//716 723//723 727//727
f 716//716 731//731 744//744
f 744//744 731//731 735//735
f 744//744 747//747 751//751
f 727//727 731//731 716//716
f 708//708 707//707 715//715
f 690//690 689//689 697//697
f 682//682 681//681 689//689
f 698//698 697//697 707//707
f 596//596 595//595 631//631
f 568//568 567//567 595//595
f 526//526 525//525 545//545
f 503//503 498//498 525//525
f 546//546 545//545 567//567
f 632//632 631//631 681//681
f 715//715 723//723 716//716
f 498//498 496//496 524//524
f 714//714 721//721 715//715
f 715//715 721//721 723//723
f 759//759 753//753 749//749
f 769//769 773//773 765//765
f 759//759 765//765 761//761
f 759//759 761//761 753//753
f 729//729 725//725 713//713
f 743//743 745//745 739//739
f 743//743 739//739 733//733
f 743//743 733//733 729//729
f 745//745 743//743 749//749
f 797//797 799//799 793//793
f 797//797 793//793 789//789
f 799//799 797//797 803//803
f 805//805 799//799 803//803
f 785//785 797//797 789//789
f 785//785 781//781 777//777
f 789//789 781//781 785//785
f 769//769 785//785 777//777
f 769//769 765//765 759//759
f 759//759 749//749 743//743
f 769//769 777//777 773//773
f 743//743 729//729 713//713
f 706//706 705//705 713//713
f 688//688 687//687 695//695
f 680//680 679//679 687//687
f 696//696 695//695 705//705
f 594//594 593//593 629//629
f 566//566 565//565 593//593
f 524//524 523//523 543//543
f 496//496 488//488 523//523
f 544//544 543//543 565//565
f 630//630 629//629 679//679
f 725//725 717//717 713//713
f 717//717 714//714 713//713
f 717//717 719//719 714//714
f 719//719 721//721 714//714
f 702//702 703//703 711//711
f 692//692 693//693 703//703
f 684//684 685//685 693//693
f 676//676 677//677 685//685
f 612//612 613//613 677//677
f 584//584 585//585 613//613
f 562//562 563//563 585//585
f 534//534 535//535 563//563
f 514//514 515//515 535//535
f 802//802 810//810 808//808
f 788//788 810//810 796//796
f 810//810 802//802 796//796
f 792//792 788//788 796//796
f 780//780 772//772 788//788
f 772//772 768//768 758//758
f 752//752 738//738 758//758
f 784//784 780//780 788//788
f 772//772 780//780 776//776
f 784//784 788//788 792//792
f 772//772 776//776 768//768
f 758//758 756//756 752//752
f 758//758 764//764 756//756
f 758//758 768//768 764//764
f 738//738 742//742 736//736
f 738//738 748//748 742//742
f 728//728 712//712 732//732
f 712//712 738//738 732//732
f 738//738 736//736 732//732
f 738//738 752//752 748//748
f 724//724 712//712 728//728
f 704//704 712//712 711//711
f 686//686 694//694 693//693
f 678//678 686//686 685//685
f 694//694 704//704 703//703
f 586//586 614//614 613//613
f 564//564 586//586 585//585
f 516//516 536//536 535//535
f 506//506 516//516 515//515
f 536//536 564//564 563//563
f 614//614 678//678 677//677
f 711//711 712//712 724//724
f 499//499 515//515 514//514
f 710//710 711//711 722//722
f 711//711 724//724 722//722
f 757//757 750//750 754//754
f 771//771 766//766 774//774
f 757//757 762//762 766//766
f 757//757 754//754 762//762
f 730//730 709//709 726//726
f 737//737 740//740 746//746
f 737//737 734//734 740//740
f 737//737 730//730 734//734
f 746//746 750//750 737//737
f 794//794 787//787 790//790
f 804//804 800//800 806//806
f 794//794 800//800 804//804
f 804//804 787//787 794//794
f 787//787 778//778 782//782
f 790//790 787//787 782//782
f 771//771 778//778 787//787
f 771//771 757//757 766//766
f 757//757 737//737 750//750
f 771//771 774//774 778//778
f 737//737 709//709 730//730
f 702//702 710//710 709//709
f 684//684 692//692 691//691
f 676//676 684//684 683//683
f 692//692 702//702 701//701
f 584//584 612//612 611//611
f 562//562 584//584 583//583
f 514//514 534//534 533//533
f 497//497 514//514 513//513
f 534//534 562//562 561//561
f 612//612 676//676 675//675
f 726//726 709//709 718//718
f 718//718 709//709 710//710
f 718//718 710//710 720//720
f 720//720 710//710 722//722
f 394//394 397//397 391//391
f 348//348 383//383 350//350
f 383//383 387//387 391//391
f 429//429 425//425 419//419
f 415//415 411//411 405//405
f 411//411 422//422 419//419
f 408//408 405//405 397//397
f 383//383 348//348 387//387
f 397//397 394//394 401//401
f 394//394 391//391 387//387
f 405//405 408//408 415//415
f 419//419 422//422 429//429
f 422//422 411//411 415//415
f 408//408 397//397 401//401
f 429//429 436//436 425//425
f 447//447 466//466 459//459
f 436//436 441//441 433//433
f 447//447 433//433 441//441
f 447//447 441//441 466//466
f 479//479 481//481 471//471
f 474//474 479//479 466//466
f 471//471 466//466 479//479
f 459//459 466//466 471//471
f 441//441 453//453 466//466
f 441//441 436//436 439//439
f 453//453 441//441 450//450
f 450//450 441//441 439//439
f 466//466 462//462 465//465
f 479//479 474//474 477//477
f 474//474 466//466 465//465
f 425//425 436//436 433//433
f 493//493 510//510 495//495
f 530//530 510//510 539//539
f 518//518 510//510 493//493
f 556//556 572//572 550//550
f 547//547 556//556 539//539
f 550//550 539//539 556//556
f 556//556 569//569 572//572
f 530//530 539//539 550//550
f 539//539 510//510 518//518
f 493//493 490//490 507//507
f 539//539 518//518 527//527
f 518//518 493//493 507//507
f 539//539 538//538 547//547
f 556//556 554//554 569//569
f 554//554 556//556 547//547
f 538//538 539//539 527//527
f 569//569 576//576 572//572
f 587//587 590//590 580//580
f 605//605 608//608 602//602
f 598//598 602//602 590//590
f 623//623 626//626 620//620
f 642//642 644//644 638//638
f 634//634 638//638 626//626
f 616//616 620//620 608//608
f 580//580 576//576 587//587
f 602//602 598//598 605//605
f 598//598 590//590 587//587
f 620//620 616//616 623//623
f 638//638 634//634 642//642
f 634//634 626//626 623//623
f 616//616 608//608 605//605
f 572//572 576//576 580//580
f 672//672 671//671 673//673
f 639//639 635//635 673//673
f 627//627 624//624 635//635
f 609//609 606//606 617//617
f 591//591 588//588 599//599
f 603//603 599//599 606//606
f 621//621 617//617 624//624
f 673//673 671//671 639//639
f 624//624 627//627 621//621
f 627//627 635//635 639//639
f 606//606 609//609 603//603
f 588//588 591//591 581//581
f 591//591 599//599 603//603
f 609//609 617//617 621//621
f 581//581 577//577 588//588
f 573//573 570//570 577//577
f 557//557 548//548 559//559
f 557//557 559//559 570//570
f 520//520 528//528 541//541
f 520//520 508//508 521//521
f 520//520 521//521 528//528
f 520//520 541//541 557//557
f 551//551 557//557 573//573
f 557//557 570//570 573//573
f 541//541 548//548 557//557
f 531//531 557//557 551//551
f 500//500 504//504 520//520
f 531//531 520//520 557//557
f 520//520 511//511 500//500
f 531//531 511//511 520//520
f 508//508 520//520 504//504
f 581//581 573//573 577//577
f 484//484 475//475 486//486
f 455//455 463//463 468//468
f 484//484 468//468 475//475
f 455//455 451//451 456//456
f 442//442 437//437 444//444
f 442//442 444//444 451//451
f 455//455 456//456 463//463
f 472//472 460//460 468//468
f 468//468 484//484 472//472
f 484//484 482//482 472//472
f 448//448 442//442 455//455
f 451//451 455//455 442//442
f 442//442 448//448 434//434
f 434//434 437//437 442//442
f 460//460 448//448 455//455
f 468//468 460//460 455//455
f 434//434 426//426 437//437
f 420//420 423//423 430//430
f 406//406 409//409 416//416
f 412//412 416//416 423//423
f 398//398 395//395 402//402
f 384//384 380//380 388//388
f 392//392 388//388 395//395
f 398//398 402//402 409//409
f 416//416 412//412 406//406
f 430//430 426//426 420//420
f 423//423 420//420 412//412
f 380//380 384//384 378//378
f 395//395 398//398 392//392
f 388//388 392//392 384//384
f 398//398 409//409 406//406
f 437//437 426//426 430//430
f 378//378 379//379 381//381
f 379//379 385//385 381//381
f 389//389 381//381 385//385
f 393//393 389//389 385//385
f 403//403 389//389 393//393
f 417//417 403//403 407//407
f 403//403 393//393 399//399
f 403//403 399//399 407//407
f 417//417 413//413 421//421
f 421//421 427//427 431//431
f 413//413 417//417 407//407
f 431//431 417//417 421//421
f 445//445 431//431 435//435
f 457//457 445//445 443//443
f 443//443 445//445 435//435
f 457//457 443//443 467//467
f 469//469 457//457 467//467
f 487//487 469//469 467//467
f 449//449 443//443 435//435
f 443//443 449//449 467//467
f 473//473 485//485 467//467
f 485//485 473//473 483//483
f 461//461 473//473 467//467
f 461//461 467//467 449//449
f 427//427 435//435 431//431
f 478//478 470//470 480//480
f 470//470 478//478 464//464
f 446//446 458//458 454//454
f 458//458 470//470 464//464
f 432//432 446//446 440//440
f 476//476 464//464 478//478
f 454//454 458//458 464//464
f 452//452 454//454 464//464
f 440//440 454//454 452//452
f 432//432 440//440 438//438
f 440//440 446//446 454//454
f 438//438 428//428 432//432
f 414//414 410//410 418//418
f 428//428 418//418 424//424
f 400//400 390//390 396//396
f 400//400 396//396 404//404
f 414//414 404//404 410//410
f 414//414 418//418 428//428
f 400//400 404//404 414//414
f 347//347 349//349 382//382
f 382//382 386//386 347//347
f 390//390 400//400 386//386
f 382//382 390//390 386//386
f 432//432 428//428 424//424
f 347//347 348//348 350//350
f 360//360 337//337 339//339
f 363//363 341//341 343//343
f 341//341 470//470 339//339
f 356//356 327//327 329//329
f 358//358 331//331 333//333
f 360//360 333//333 335//335
f 331//331 358//358 329//329
f 360//360 335//335 337//337
f 470//470 458//458 339//339
f 341//341 363//363 470//470
f 363//363 480//480 470//470
f 446//446 358//358 360//360
f 333//333 360//360 358//358
f 446//446 432//432 358//358
f 356//356 358//358 432//432
f 424//424 356//356 432//432
f 356//356 329//329 358//358
f 458//458 446//446 360//360
f 339//339 458//458 360//360
f 356//356 325//325 327//327
f 321//321 323//323 354//354
f 325//325 354//354 323//323
f 321//321 353//353 319//319
f 349//349 272//272 313//313
f 317//317 353//353 351//351
f 315//315 382//382 313//313
f 353//353 317//317 319//319
f 382//382 349//349 313//313
f 410//410 404//404 354//354
f 354//354 353//353 321//321
f 424//424 418//418 356//356
f 354//354 418//418 410//410
f 418//418 354//354 356//356
f 315//315 317//317 351//351
f 390//390 351//351 353//353
f 353//353 396//396 390//390
f 351//351 390//390 382//382
f 382//382 315//315 351//351
f 404//404 396//396 353//353
f 354//354 404//404 353//353
f 354//354 325//325 356//356
f 346//346 314//314 306//306
f 314//314 384//384 316//316
f 346//346 384//384 314//314
f 322//322 320//320 373//373
f 373//373 324//324 322//322
f 376//376 373//373 320//320
f 318//318 376//376 320//320
f 326//326 324//324 373//373
f 378//378 384//384 346//346
f 384//384 376//376 316//316
f 376//376 384//384 392//392
f 316//316 376//376 318//318
f 398//398 373//373 392//392
f 392//392 373//373 376//376
f 373//373 406//406 412//412
f 373//373 412//412 420//420
f 373//373 371//371 326//326
f 373//373 398//398 406//406
f 373//373 420//420 371//371
f 371//371 330//330 328//328
f 369//369 334//334 332//332
f 369//369 332//332 330//330
f 367//367 338//338 336//336
f 366//366 344//344 342//342
f 366//366 342//342 340//340
f 366//366 340//340 338//338
f 367//367 336//336 334//334
f 434//434 369//369 371//371
f 330//330 371//371 369//369
f 371//371 426//426 434//434
f 369//369 434//434 448//448
f 448//448 367//367 369//369
f 371//371 420//420 426//426
f 460//460 366//366 367//367
f 338//338 367//367 366//366
f 460//460 472//472 366//366
f 482//482 366//366 472//472
f 482//482 344//344 366//366
f 448//448 460//460 367//367
f 367//367 334//334 369//369
f 328//328 326//326 371//371
f 365//365 292//292 291//291
f 368//368 294//294 293//293
f 365//365 293//293 292//292
f 368//368 296//296 295//295
f 370//370 298//298 297//297
f 372//372 299//299 298//298
f 370//370 297//297 296//296
f 368//368 295//295 294//294
f 461//461 368//368 473//473
f 293//293 365//365 473//473
f 365//365 483//483 473//473
f 449//449 370//370 368//368
f 296//296 368//368 370//370
f 449//449 435//435 370//370
f 372//372 370//370 435//435
f 427//427 372//372 435//435
f 372//372 298//298 370//370
f 461//461 449//449 368//368
f 473//473 368//368 293//293
f 372//372 300//300 299//299
f 374//374 301//301 300//300
f 375//375 302//302 374//374
f 372//372 421//421 374//374
f 304//304 303//303 375//375
f 309//309 305//305 385//385
f 377//377 305//305 304//304
f 375//375 303//303 302//302
f 385//385 379//379 309//309
f 407//407 374//374 413//413
f 427//427 421//421 372//372
f 413//413 374//374 421//421
f 393//393 377//377 375//375
f 375//375 399//399 393//393
f 377//377 393//393 385//385
f 385//385 305//305 377//377
f 407//407 399//399 375//375
f 407//407 375//375 374//374
f 374//374 300//300 372//372
f 345//345 276//276 275//275
f 345//345 350//350 383//383
f 276//276 345//345 383//383
f 277//277 352//352 278//278
f 355//355 278//278 352//352
f 280//280 279//279 355//355
f 278//278 355//355 279//279
f 281//281 280//280 355//355
f 391//391 352//352 383//383
f 276//276 383//383 352//352
f 391//391 355//355 352//352
f 352//352 277//277 276//276
f 411//411 355//355 405//405
f 391//391 397//397 355//355
f 355//355 411//411 419//419
f 357//357 282//282 281//281
f 425//425 357//357 419//419
f 397//397 405//405 355//355
f 419//419 357//357 355//355
f 357//357 283//283 282//282
f 359//359 285//285 284//284
f 359//359 284//284 283//283
f 361//361 287//287 286//286
f 362//362 289//289 288//288
f 364//364 290//290 289//289
f 362//362 288//288 287//287
f 361//361 286//286 285//285
f 433//433 359//359 357//357
f 283//283 357//357 359//359
f 433//433 447//447 359//359
f 361//361 359//359 447//447
f 459//459 361//361 447//447
f 361//361 285//285 359//359
f 425//425 433//433 357//357
f 471//471 364//364 362//362
f 289//289 362//362 364//364
f 459//459 471//471 362//362
f 481//481 364//364 471//471
f 361//361 459//459 362//362
f 362//362 287//287 361//361
f 310//310 308//308 307//307
f 312//312 310//310 311//311
f 307//307 311//311 310//310
f 271//271 269//269 268//268
f 270//270 273//273 274//274
f 55//55 150//150 152//152
f 150//150 55//55 148//148
f 55//55 25//25 53//53
f 25//25 55//55 152//152
f 25//25 49//49 51//51
f 25//25 45//45 47//47
f 25//25 43//43 45//45
f 47//47 49//49 25//25
f 51//51 53//53 25//25
f 21//21 141//141 54//54
f 54//54 142//142 144//144
f 54//54 141//141 142//142
f 21//21 54//54 52//52
f 21//21 44//44 42//42
f 21//21 48//48 46//46
f 21//21 50//50 48//48
f 46//46 44//44 21//21
f 21//21 52//52 50//50
f 25//25 39//39 41//41
f 25//25 35//35 37//37
f 25//25 33//33 35//35
f 37//37 39//39 25//25
f 29//29 31//31 25//25
f 33//33 25//25 31//31
f 27//27 29//29 24//24
f 25//25 24//24 29//29
f 23//23 27//27 24//24
f 25//25 41//41 43//43
f 26//26 27//27 23//23
f 21//21 34//34 32//32
f 21//21 38//38 36//36
f 21//21 40//40 38//38
f 36//36 34//34 21//21
f 28//28 26//26 22//22
f 21//21 30//30 28//28
f 22//22 21//21 28//28
f 32//32 30//30 21//21
f 42//42 40//40 21//21
f 497//497 491//491 2//2
f 506//506 499//499 4//4
f 499//499 497//497 3//3
f 499//499 3//3 4//4
f 496//496 77//77 488//488
f 503//503 80//80 79//79
f 498//498 79//79 78//78
f 496//496 78//78 77//77
f 309//309 147//147 55//55
f 309//309 170//170 163//163
f 309//309 163//163 155//155
f 309//309 155//155 147//147
f 309//309 185//185 177//177
f 309//309 211//211 201//201
f 309//309 201//201 193//193
f 309//309 193//193 185//185
f 309//309 177//177 170//170
f 379//379 227//227 219//219
f 309//309 379//379 219//219
f 235//235 227//227 379//379
f 243//243 235//235 379//379
f 211//211 309//309 219//219
f 379//379 251//251 243//243
f 379//379 308//308 267//267
f 379//379 267//267 259//259
f 379//379 259//259 251//251
f 378//378 307//307 308//308
f 306//306 183//183 187//187
f 306//306 199//199 203//203
f 306//306 203//203 210//210
f 199//199 306//306 187//187
f 306//306 124//124 146//146
f 306//306 157//157 168//168
f 306//306 168//168 172//172
f 157//157 306//306 146//146
f 306//306 172//172 183//183
f 346//346 237//237 249//249
f 346//346 253//253 265//265
f 378//378 265//265 307//307
f 253//253 346//346 249//249
f 306//306 217//217 221//221
f 306//306 221//221 233//233
f 233//233 346//346 306//306
f 346//346 265//265 378//378
f 306//306 210//210 217//217
f 233//233 237//237 346//346
f 88//88 27//27 26//26
f 485//485 502//502 505//505
f 291//291 88//88 87//87
f 290//290 364//364 365//365
f 364//364 481//481 483//483
f 502//502 485//485 483//483
f 501//501 483//483 481//481
f 479//479 493//493 495//495
f 477//477 490//490 493//493
f 484//484 504//504 500//500
f 504//504 484//484 486//486
f 482//482 484//484 500//500
f 492//492 478//478 480//480
f 489//489 476//476 478//478
f 482//482 500//500 494//494
f 363//363 482//482 480//480
f 132//132 344//344 343//343
f 131//131 96//96 132//132
f 96//96 131//131 95//95
f 344//344 363//363 343//343
f 132//132 343//343 131//131
f 344//344 482//482 363//363
f 618//618 758//758 738//738
f 600//600 738//738 712//712
f 704//704 694//694 578//578
f 704//704 600//600 712//712
f 578//578 694//694 686//686
f 674//674 809//809 810//810
f 788//788 674//674 810//810
f 772//772 636//636 788//788
f 674//674 673//673 809//809
f 758//758 618//618 772//772
f 788//788 636//636 674//674
f 673//673 798//798 809//809
f 560//560 686//686 678//678
f 614//614 586//586 542//542
f 586//586 564//564 542//542
f 505//505 522//522 516//516
f 564//564 536//536 522//522
f 516//516 522//522 536//536
f 564//564 522//522 542//542
f 618//618 636//636 772//772
f 614//614 542//542 560//560
f 578//578 600//600 704//704
f 560//560 578//578 686//686
f 618//618 738//738 600//600
f 614//614 560//560 678//678
f 635//635 798//798 673//673
f 770//770 786//786 624//624
f 635//635 786//786 798//798
f 760//760 624//624 617//617
f 606//606 744//744 617//617
f 760//760 617//617 744//744
f 770//770 624//624 760//760
f 786//786 635//635 624//624
f 744//744 606//606 716//716
f 708//708 716//716 599//599
f 577//577 690//690 698//698
f 588//588 698//698 708//708
f 570//570 682//682 690//690
f 632//632 682//682 559//559
f 606//606 599//599 716//716
f 577//577 570//570 690//690
f 588//588 577//577 698//698
f 559//559 548//548 632//632
f 596//596 548//548 541//541
f 632//632 548//548 596//596
f 570//570 559//559 682//682
f 546//546 568//568 528//528
f 541//541 568//568 596//596
f 546//546 521//521 526//526
f 503//503 526//526 508//508
f 521//521 508//508 526//526
f 528//528 521//521 546//546
f 568//568 541//541 528//528
f 599//599 588//588 708//708
f 506//506 505//505 516//516
f 487//487 505//505 506//506
f 15//15 469//469 487//487
f 25//25 445//445 457//457
f 25//25 417//417 431//431
f 431//431 445//445 25//25
f 457//457 469//469 20//20
f 25//25 389//389 403//403
f 263//263 381//381 247//247
f 381//381 263//263 312//312
f 381//381 312//312 380//380
f 380//380 312//312 311//311
f 25//25 381//381 389//389
f 403//403 417//417 25//25
f 311//311 262//262 380//380
f 381//381 152//152 166//166
f 381//381 25//25 152//152
f 10//10 487//487 506//506
f 469//469 15//15 20//20
f 487//487 10//10 15//15
f 20//20 25//25 457//457
f 381//381 231//231 247//247
f 381//381 181//181 197//197
f 381//381 197//197 215//215
f 215//215 231//231 381//381
f 246//246 380//380 262//262
f 381//381 166//166 181//181
f 10//10 506//506 5//5
f 230//230 380//380 246//246
f 80//80 444//444 437//437
f 80//80 451//451 444//444
f 151//151 416//416 409//409
f 80//80 430//430 423//423
f 423//423 416//416 151//151
f 80//80 437//437 430//430
f 503//503 504//504 486//486
f 486//486 80//80 503//503
f 508//508 504//504 503//503
f 80//80 463//463 456//456
f 80//80 475//475 468//468
f 468//468 463//463 80//80
f 475//475 80//80 486//486
f 456//456 451//451 80//80
f 380//380 165//165 388//388
f 214//214 196//196 380//380
f 380//380 196//196 180//180
f 388//388 165//165 151//151
f 380//380 180//180 165//165
f 395//395 388//388 151//151
f 402//402 395//395 151//151
f 151//151 80//80 423//423
f 402//402 151//151 409//409
f 75//75 80//80 151//151
f 151//151 65//65 70//70
f 75//75 151//151 70//70
f 151//151 60//60 65//65
f 380//380 230//230 214//214
f 709//709 598//598 701//701
f 598//598 587//587 701//701
f 691//691 576//576 683//683
f 691//691 701//701 587//587
f 569//569 675//675 683//683
f 787//787 623//623 771//771
f 757//757 771//771 616//616
f 737//737 605//605 709//709
f 598//598 709//709 605//605
f 605//605 757//757 616//616
f 737//737 757//757 605//605
f 616//616 771//771 623//623
f 547//547 611//611 675//675
f 583//583 527//527 561//561
f 533//533 561//561 518//518
f 507//507 491//491 513//513
f 507//507 533//533 518//518
f 513//513 533//533 507//507
f 518//518 561//561 527//527
f 576//576 691//691 587//587
f 569//569 683//683 576//576
f 583//583 538//538 527//527
f 547//547 675//675 554//554
f 583//583 547//547 538//538
f 569//569 554//554 675//675
f 583//583 611//611 547//547
f 797//797 641//641 803//803
f 804//804 803//803 642//642
f 785//785 633//633 797//797
f 785//785 769//769 633//633
f 759//759 615//615 769//769
f 642//642 803//803 641//641
f 642//642 634//634 804//804
f 713//713 597//597 743//743
f 759//759 743//743 615//615
f 705//705 597//597 713//713
f 695//695 687//687 575//575
f 705//705 695//695 575//575
f 553//553 687//687 679//679
f 797//797 633//633 641//641
f 787//787 804//804 634//634
f 597//597 705//705 575//575
f 679//679 629//629 553//553
f 575//575 687//687 553//553
f 615//615 743//743 597//597
f 565//565 537//537 593//593
f 629//629 593//593 537//537
f 565//565 543//543 517//517
f 517//517 543//543 523//523
f 523//523 489//489 517//517
f 537//537 565//565 517//517
f 537//537 553//553 629//629
f 633//633 769//769 615//615
f 634//634 623//623 787//787
f 490//490 491//491 507//507
f 477//477 491//491 490//490
f 6//6 477//477 474//474
f 16//16 465//465 462//462
f 21//21 453//453 450//450
f 453//453 16//16 462//462
f 465//465 11//11 474//474
f 21//21 439//439 436//436
f 21//21 436//436 429//429
f 21//21 422//422 415//415
f 21//21 408//408 401//401
f 408//408 21//21 415//415
f 422//422 21//21 429//429
f 439//439 21//21 450//450
f 387//387 21//21 394//394
f 21//21 401//401 394//394
f 348//348 21//21 387//387
f 6//6 491//491 477//477
f 16//16 453//453 21//21
f 11//11 465//465 16//16
f 11//11 6//6 474//474
f 223//223 205//205 348//348
f 189//189 348//348 205//205
f 348//348 255//255 239//239
f 348//348 159//159 140//140
f 348//348 189//189 174//174
f 348//348 174//174 159//159
f 140//140 21//21 348//348
f 6//6 1//1 491//491
f 348//348 239//239 223//223
f 386//386 400//400 139//139
f 139//139 400//400 414//414
f 158//158 347//347 386//386
f 347//347 268//268 269//269
f 347//347 254//254 268//268
f 488//488 476//476 489//489
f 476//476 488//488 76//76
f 523//523 488//488 489//489
f 76//76 428//428 438//438
f 76//76 452//452 464//464
f 452//452 76//76 438//438
f 464//464 476//476 76//76
f 428//428 76//76 414//414
f 269//269 348//348 347//347
f 347//347 238//238 254//254
f 347//347 204//204 222//222
f 347//347 173//173 188//188
f 347//347 188//188 204//204
f 61//61 139//139 66//66
f 347//347 222//222 238//238
f 414//414 76//76 139//139
f 71//71 139//139 76//76
f 158//158 386//386 139//139
f 139//139 71//71 66//66
f 56//56 139//139 61//61
f 347//347 158//158 173//173
f 255//255 348//348 269//269
f 272//272 143//143 123//123
f 272//272 171//171 167//167
f 272//272 167//167 156//156
f 272//272 156//156 143//143
f 272//272 186//186 182//182
f 272//272 208//208 202//202
f 272//272 202//202 198//198
f 272//272 198//198 186//186
f 272//272 182//182 171//171
f 272//272 220//220 216//216
f 236//236 272//272 349//349
f 220//220 272//272 232//232
f 232//232 272//272 236//236
f 208//208 272//272 216//216
f 349//349 248//248 236//236
f 349//349 273//273 264//264
f 349//349 264//264 252//252
f 349//349 252//252 248//248
f 274//274 273//273 349//349
f 275//275 176//176 184//184
f 275//275 192//192 200//200
f 345//345 200//200 209//209
f 192//192 275//275 184//184
f 275//275 54//54 144//144
f 275//275 154//154 162//162
f 275//275 162//162 169//169
f 154//154 275//275 144//144
f 275//275 169//169 176//176
f 350//350 242//242 250//250
f 350//350 258//258 266//266
f 350//350 266//266 274//274
f 258//258 350//350 250//250
f 345//345 218//218 226//226
f 345//345 226//226 234//234
f 209//209 218//218 345//345
f 234//234 350//350 345//345
f 345//345 275//275 200//200
f 242//242 350//350 234//234
f 349//349 350//350 274//274
f 501//501 495//495 657//657
f 720//720 657//657 718//718
f 720//720 722//722 657//657
f 501//501 657//657 722//722
f 501//501 722//722 724//724
f 810//810 809//809 807//807
f 502//502 522//522 505//505
f 522//522 502//502 512//512
f 540//540 558//558 560//560
f 522//522 540//540 542//542
f 540//540 522//522 512//512
f 512//512 532//532 540//540
f 502//502 501//501 512//512
f 574//574 558//558 552//552
f 540//540 532//532 552//552
f 560//560 558//558 574//574
f 558//558 540//540 552//552
f 574//574 578//578 560//560
f 600//600 578//578 592//592
f 618//618 600//600 610//610
f 674//674 636//636 640//640
f 628//628 636//636 618//618
f 672//672 674//674 640//640
f 578//578 582//582 592//592
f 600//600 592//592 604//604
f 636//636 628//628 640//640
f 618//618 610//610 622//622
f 618//618 622//622 628//628
f 610//610 600//600 604//604
f 574//574 582//582 578//578
f 642//642 641//641 643//643
f 615//615 607//607 619//619
f 615//615 619//619 625//625
f 575//575 589//589 597//597
f 597//597 589//589 601//601
f 597//597 601//601 607//607
f 641//641 637//637 643//643
f 633//633 637//637 641//641
f 625//625 637//637 633//633
f 615//615 625//625 633//633
f 615//615 597//597 607//607
f 575//575 579//579 589//589
f 555//555 549//549 571//571
f 529//529 549//549 555//555
f 553//553 555//555 571//571
f 509//509 529//529 519//519
f 529//529 555//555 519//519
f 494//494 509//509 492//492
f 553//553 571//571 575//575
f 537//537 555//555 553//553
f 492//492 519//519 517//517
f 509//509 519//519 492//492
f 537//537 517//517 519//519
f 519//519 555//555 537//537
f 579//579 575//575 571//571
f 644//644 643//643 699//699
f 805//805 806//806 699//699
f 644//644 699//699 806//806
f 655//655 509//509 494//494
f 529//529 652//652 549//549
f 509//509 655//655 529//529
f 717//717 655//655 494//494
f 652//652 571//571 549//549
f 652//652 650//650 571//571
f 579//579 571//571 650//650
f 765//765 650//650 761//761
f 753//753 650//650 652//652
f 652//652 529//529 655//655
f 652//652 655//655 739//739
f 655//655 717//717 725//725
f 655//655 729//729 733//733
f 729//729 655//655 725//725
f 652//652 739//739 745//745
f 652//652 749//749 753//753
f 650//650 753//753 761//761
f 749//749 652//652 745//745
f 733//733 739//739 655//655
f 589//589 579//579 650//650
f 648//648 601//601 589//589
f 647//647 607//607 648//648
f 601//601 648//648 607//607
f 650//650 765//765 648//648
f 647//647 625//625 619//619
f 625//625 647//647 645//645
f 637//637 625//625 645//645
f 793//793 637//637 645//645
f 789//789 793//793 645//645
f 607//607 647//647 619//619
f 777//777 647//647 648//648
f 648//648 773//773 777//777
f 781//781 789//789 647//647
f 777//777 781//781 647//647
f 773//773 648//648 765//765
f 637//637 799//799 699//699
f 637//637 793//793 799//799
f 805//805 699//699 799//799
f 789//789 645//645 647//647
f 699//699 643//643 637//637
f 589//589 650//650 648//648
f 494//494 500//500 658//658
f 721//721 658//658 723//723
f 721//721 719//719 658//658
f 494//494 658//658 719//719
f 494//494 719//719 717//717
f 627//627 666//666 621//621
f 795//795 669//669 639//639
f 627//627 639//639 669//669
f 609//609 621//621 666//666
f 666//666 664//664 591//591
f 666//666 603//603 609//609
f 591//591 603//603 666//666
f 627//627 669//669 666//666
f 767//767 664//664 666//666
f 666//666 783//783 779//779
f 671//671 801//801 639//639
f 801//801 795//795 639//639
f 671//671 807//807 801//801
f 666//666 669//669 783//783
f 791//791 669//669 795//795
f 783//783 669//669 791//791
f 779//779 775//775 666//666
f 775//775 767//767 666//666
f 664//664 581//581 591//591
f 662//662 551//551 573//573
f 755//755 662//662 664//664
f 573//573 664//664 662//662
f 662//662 661//661 551//551
f 581//581 664//664 573//573
f 658//658 511//511 659//659
f 659//659 531//531 661//661
f 551//551 661//661 531//531
f 511//511 531//531 659//659
f 735//735 659//659 661//661
f 658//658 500//500 511//511
f 747//747 661//661 662//662
f 741//741 661//661 747//747
f 755//755 664//664 763//763
f 751//751 662//662 755//755
f 747//747 662//662 751//751
f 727//727 723//723 658//658
f 731//731 659//659 735//735
f 727//727 659//659 731//731
f 661//661 741//741 735//735
f 727//727 658//658 659//659
f 767//767 763//763 664//664
f 671//671 672//672 700//700
f 808//808 807//807 700//700
f 671//671 700//700 807//807
f 660//660 512//512 501//501
f 532//532 663//663 552//552
f 512//512 660//660 532//532
f 724//724 660//660 501//501
f 663//663 574//574 552//552
f 663//663 665//665 574//574
f 582//582 574//574 665//665
f 768//768 665//665 764//764
f 756//756 665//665 663//663
f 663//663 532//532 660//660
f 663//663 660//660 742//742
f 660//660 724//724 728//728
f 660//660 732//732 736//736
f 732//732 660//660 728//728
f 663//663 742//742 748//748
f 663//663 752//752 756//756
f 665//665 756//756 764//764
f 752//752 663//663 748//748
f 736//736 742//742 660//660
f 592//592 582//582 665//665
f 667//667 604//604 592//592
f 668//668 610//610 667//667
f 604//604 667//667 610//610
f 665//665 768//768 667//667
f 668//668 628//628 622//622
f 628//628 668//668 670//670
f 640//640 628//628 670//670
f 796//796 640//640 670//670
f 792//792 796//796 670//670
f 610//610 668//668 622//622
f 780//780 668//668 667//667
f 667//667 776//776 780//780
f 784//784 792//792 668//668
f 780//780 784//784 668//668
f 776//776 667//667 768//768
f 640//640 802//802 700//700
f 640//640 796//796 802//802
f 808//808 700//700 802//802
f 792//792 670//670 668//668
f 700//700 672//672 640//640
f 592//592 665//665 667//667
f 626//626 649//649 620//620
f 794//794 646//646 638//638
f 626//626 638//638 646//646
f 608//608 620//620 649//649
f 649//649 651//651 590//590
f 649//649 602//602 608//608
f 590//590 602//602 649//649
f 626//626 646//646 649//649
f 766//766 651//651 649//649
f 649//649 782//782 778//778
f 644//644 800//800 638//638
f 800//800 794//794 638//638
f 644//644 806//806 800//800
f 649//649 646//646 782//782
f 790//790 646//646 794//794
f 782//782 646//646 790//790
f 778//778 774//774 649//649
f 774//774 766//766 649//649
f 651//651 580//580 590//590
f 653//653 550//550 572//572
f 754//754 653//653 651//651
f 572//572 651//651 653//653
f 653//653 654//654 550//550
f 580//580 651//651 572//572
f 657//657 510//510 656//656
f 656//656 530//530 654//654
f 550//550 654//654 530//530
f 510//510 530//530 656//656
f 734//734 656//656 654//654
f 657//657 495//495 510//510
f 746//746 654//654 653//653
f 740//740 654//654 746//746
f 754//754 651//651 762//762
f 750//750 653//653 754//754
f 746//746 653//653 750//750
f 726//726 718//718 657//657
f 730//730 656//656 734//734
f 726//726 656//656 730//730
f 654//654 740//740 734//734
f 726//726 657//657 656//656
f 766//766 762//762 651//651
f 275//275 81//81 54//54
f 81//81 278//278 82//82
f 289//289 290//290 87//87
f 89//89 296//296 90//90
f 13//13 7//7 12//12
f 14//14 8//8 13//13
f 18//18 12//12 17//17
f 19//19 13//13 18//18
f 2//2 6//6 7//7
f 11//11 7//7 6//6
f 12//12 16//16 17//17
f 7//7 3//3 2//2
f 4//4 8//8 9//9
f 5//5 9//9 10//10
f 10//10 14//14 15//15
f 17//17 21//21 22//22
f 18//18 22//22 23//23
f 23//23 19//19 18//18
f 15//15 19//19 20//20
f 24//24 20//20 19//19
f 68//68 72//72 73//73
f 69//69 73//73 74//74
f 63//63 67//67 68//68
f 64//64 68//68 69//69
f 77//77 71//71 76//76
f 66//66 72//72 67//67
f 67//67 61//61 66//66
f 72//72 78//78 73//73
f 79//79 73//73 78//78
f 80//80 74//74 79//79
f 75//75 69//69 74//74
f 62//62 56//56 61//61
f 63//63 57//57 62//62
f 58//58 64//64 59//59
f 70//70 64//64 69//69
f 59//59 65//65 60//60
f 196//196 212//212 194//194
f 194//194 180//180 196//196
f 228//228 214//214 230//230
f 230//230 244//244 228//228
f 260//260 246//246 262//262
f 190//190 204//204 188//188
f 224//224 238//238 222//222
f 222//222 206//206 224//224
f 256//256 268//268 254//254
f 254//254 240//240 256//256
f 257//257 269//269 271//271
f 255//255 241//241 239//239
f 225//225 239//239 241//241
f 223//223 207//207 205//205
f 191//191 200//200 192//192
f 189//189 175//175 174//174
f 191//191 205//205 207//207
f 142//142 159//159 161//161
f 161//161 174//174 175//175
f 263//263 310//310 312//312
f 261//261 259//259 267//267
f 261//261 247//247 245//245
f 231//231 245//245 247//247
f 229//229 227//227 235//235
f 213//213 211//211 219//219
f 245//245 243//243 251//251
f 229//229 215//215 213//213
f 197//197 213//213 215//215
f 195//195 193//193 201//201
f 195//195 181//181 179//179
f 166//166 179//179 181//181
f 164//164 153//153 150//150
f 164//164 163//163 170//170
f 179//179 177//177 185//185
f 806//806 803//803 804//804
f 706//706 715//715 707//707
f 696//696 707//707 697//697
f 688//688 697//697 689//689
f 680//680 689//689 681//681
f 630//630 681//681 631//631
f 594//594 631//631 595//595
f 566//566 595//595 567//567
f 544//544 567//567 545//545
f 524//524 545//545 525//525
f 708//708 715//715 716//716
f 690//690 697//697 698//698
f 682//682 689//689 690//690
f 698//698 707//707 708//708
f 596//596 631//631 632//632
f 568//568 595//595 596//596
f 526//526 545//545 546//546
f 503//503 525//525 526//526
f 546//546 567//567 568//568
f 632//632 681//681 682//682
f 498//498 524//524 525//525
f 706//706 713//713 714//714
f 688//688 695//695 696//696
f 680//680 687//687 688//688
f 696//696 705//705 706//706
f 594//594 629//629 630//630
f 566//566 593//593 594//594
f 524//524 543//543 544//544
f 496//496 523//523 524//524
f 544//544 565//565 566//566
f 630//630 679//679 680//680
f 702//702 711//711 710//710
f 692//692 703//703 702//702
f 684//684 693//693 692//692
f 676//676 685//685 684//684
f 612//612 677//677 676//676
f 584//584 613//613 612//612
f 562//562 585//585 584//584
f 534//534 563//563 562//562
f 514//514 535//535 534//534
f 704//704 711//711 703//703
f 686//686 693//693 685//685
f 678//678 685//685 677//677
f 694//694 703//703 693//693
f 586//586 613//613 585//585
f 564//564 585//585 563//563
f 516//516 535//535 515//515
f 506//506 515//515 499//499
f 536//536 563//563 535//535
f 614//614 677//677 613//613
f 499//499 514//514 497//497
f 702//702 709//709 701//701
f 684//684 691//691 683//683
f 676//676 683//683 675//675
f 692//692 701//701 691//691
f 584//584 611//611 583//583
f 562//562 583//583 561//561
f 514//514 533//533 513//513
f 497//497 513//513 491//491
f 534//534 561//561 533//533
f 612//612 675//675 611//611
f 453//453 462//462 466//466
f 672//672 673//673 674//674
f 378//378 381//381 380//380
f 487//487 467//467 485//485
f 440//440 452//452 438//438
f 347//347 350//350 349//349
f 302//302 301//301 374//374
f 377//377 304//304 375//375
f 357//357 281//281 355//355
f 271//271 268//268 270//270
f 270//270 274//274 271//271
f 26//26 23//23 22//22
f 491//491 1//1 2//2
f 506//506 4//4 5//5
f 497//497 2//2 3//3
f 77//77 76//76 488//488
f 503//503 79//79 498//498
f 498//498 78//78 496//496
f 378//378 308//308 379//379
f 88//88 26//26 87//87
f 485//485 505//505 487//487
f 291//291 87//87 290//290
f 290//290 365//365 291//291
f 364//364 483//483 365//365
f 502//502 483//483 501//501
f 501//501 481//481 495//495
f 479//479 495//495 481//481
f 477//477 493//493 479//479
f 492//492 480//480 494//494
f 489//489 478//478 492//492
f 482//482 494//494 480//480
f 810//810 807//807 808//808
f 540//540 560//560 542//542
f 642//642 643//643 644//644
f 492//492 517//517 489//489