# PHANTOM Module: COP4
# Units: meters
o COP4

v 1.299999 1.200003 2.260690
v 1.299999 1.200003 0.236364
v 1.299999 0.800001 2.260690
v 1.299999 0.800001 0.236364
v 1.299999 0.400000 2.260690
v 1.299999 0.400000 0.236364
v 1.299999 0.000000 2.260690
v 1.299999 0.000000 0.236364
v 1.299123 1.200003 2.281929
v 1.299123 1.200003 0.215125
v 1.299123 0.800001 2.281929
v 1.299123 0.800001 0.215125
v 1.299123 0.400000 2.281929
v 1.299123 0.400000 0.215125
v 1.299123 0.000000 2.281929
v 1.299123 0.000000 0.215125
v 1.296383 1.200003 2.303700
v 1.296383 1.200003 0.193354
v 1.296383 0.800001 2.303700
v 1.296383 0.800001 0.193354
v 1.296383 0.400000 2.303700
v 1.296383 0.400000 0.193354
v 1.296383 0.000000 2.303700
v 1.296383 0.000000 0.193354
v 1.291636 1.200003 2.325727
v 1.291636 1.200003 0.171326
v 1.291636 0.800001 2.325727
v 1.291636 0.800001 0.171326
v 1.291636 0.400000 2.325727
v 1.291636 0.400000 0.171326
v 1.291636 0.000000 2.325727
v 1.291636 0.000000 0.171326
v 1.284787 1.200003 2.347694
v 1.284787 1.200003 0.149359
v 1.284787 0.800001 2.347694
v 1.284787 0.800001 0.149359
v 1.284787 0.400000 2.347694
v 1.284787 0.400000 0.149359
v 1.284787 0.000000 2.347694
v 1.284787 0.000000 0.149359
v 1.275794 1.200003 2.369251
v 1.275794 1.200003 0.127803
v 1.275794 0.800001 2.369251
v 1.275794 0.800001 0.127803
v 1.275794 0.400000 2.369251
v 1.275794 0.400000 0.127803
v 1.275794 0.000000 2.369251
v 1.275794 0.000000 0.127803
v 1.264682 1.200003 2.390031
v 1.264682 1.200003 0.107023
v 1.264682 0.800001 2.390031
v 1.264682 0.800001 0.107023
v 1.264682 0.400000 2.390031
v 1.264682 0.400000 0.107023
v 1.264682 0.000000 2.390031
v 1.264682 0.000000 0.107023
v 1.251543 1.200003 2.409670
v 1.251543 1.200003 0.087384
v 1.251543 0.800001 2.409670
v 1.251543 0.800001 0.087384
v 1.251543 0.400000 2.409670
v 1.251543 0.400000 0.087384
v 1.251543 0.000000 2.409670
v 1.251543 0.000000 0.087384
v 1.236540 1.200003 2.427824
v 1.236540 1.200003 0.069229
v 1.236540 0.800001 2.427824
v 1.236540 0.800001 0.069229
v 1.236540 0.400000 2.427824
v 1.236540 0.400000 0.069229
v 1.236540 0.000000 2.427824
v 1.236540 0.000000 0.069229
v 1.219897 1.200003 2.444192
v 1.219897 1.200003 0.052862
v 1.219897 0.800001 2.444192
v 1.219897 0.800001 0.052862
v 1.219897 0.400000 2.444192
v 1.219897 0.400000 0.052862
v 1.219897 0.000000 2.444192
v 1.219897 0.000000 0.052862
v 1.201895 1.200003 2.458525
v 1.201895 1.200003 0.038528
v 1.201895 0.800001 2.458525
v 1.201895 0.800001 0.038528
v 1.201895 0.400000 2.458525
v 1.201895 0.400000 0.038528
v 1.201895 0.000000 2.458525
v 1.201895 0.000000 0.038528
v 1.191667 1.200003 2.260690
v 1.191667 1.200003 0.236364
v 1.191667 0.800001 2.260690
v 1.191667 0.800001 0.236364
v 1.191667 0.400000 2.260690
v 1.191667 0.400000 0.236364
v 1.191667 0.000000 2.260690
v 1.191667 0.000000 0.236364
v 1.189857 1.200003 2.282195
v 1.189857 1.200003 0.214859
v 1.189857 0.800001 2.282195
v 1.189857 0.800001 0.214859
v 1.189857 0.400000 2.282195
v 1.189857 0.400000 0.214859
v 1.189857 0.000000 2.282195
v 1.189857 0.000000 0.214859
v 1.184060 1.200003 2.304192
v 1.184060 1.200003 0.192862
v 1.184060 0.800001 2.304192
v 1.184060 0.800001 0.192862
v 1.184060 0.400000 2.304192
v 1.184060 0.400000 0.192862
v 1.184060 0.000000 2.304192
v 1.184060 0.000000 0.192862
v 1.182847 1.200003 2.470648
v 1.182847 1.200003 0.026406
v 1.182847 0.800001 2.470648
v 1.182847 0.800001 0.026406
v 1.182847 0.400000 2.470648
v 1.182847 0.400000 0.026406
v 1.182847 0.000000 2.470648
v 1.182847 0.000000 0.026406
v 1.174007 1.200003 2.325360
v 1.174007 1.200003 0.171693
v 1.174007 0.800001 2.325360
v 1.174007 0.800001 0.171693
v 1.174007 0.400000 2.325360
v 1.174007 0.400000 0.171693
v 1.174007 0.000000 2.325360
v 1.174007 0.000000 0.171693
v 1.163087 1.200003 2.480458
v 1.163087 1.200003 0.016595
v 1.163087 0.800001 2.480458
v 1.163087 0.800001 0.016595
v 1.163087 0.400000 2.480458
v 1.163087 0.400000 0.016595
v 1.163087 0.000000 2.480458
v 1.163087 0.000000 0.016595
v 1.159936 1.200003 2.344257
v 1.159936 1.200003 0.152796
v 1.159936 0.800001 2.344257
v 1.159936 0.800001 0.152796
v 1.159936 0.400000 2.344257
v 1.159936 0.400000 0.152796
v 1.159936 0.000000 2.344257
v 1.159936 0.000000 0.152796
v 1.142951 1.200003 2.487930
v 1.142951 1.200003 0.009124
v 1.142951 0.800001 2.487930
v 1.142951 0.800001 0.009124
v 1.142951 0.400000 2.487930
v 1.142951 0.400000 0.009124
v 1.142951 0.000000 2.487930
v 1.142951 0.000000 0.009124
v 1.142614 1.200003 2.359608
v 1.142614 1.200003 0.137446
v 1.142614 0.800001 2.359608
v 1.142614 0.800001 0.137446
v 1.142614 0.400000 2.359608
v 1.142614 0.400000 0.137446
v 1.142614 0.000000 2.359608
v 1.142614 0.000000 0.137446
v 1.123210 1.200003 2.370574
v 1.123210 1.200003 0.126480
v 1.123210 0.800001 2.370574
v 1.123210 0.800001 0.126480
v 1.123210 0.400000 2.370574
v 1.123210 0.400000 0.126480
v 1.123210 0.000000 2.370574
v 1.123210 0.000000 0.126480
v 1.122758 1.200003 2.493108
v 1.122758 1.200003 0.003946
v 1.122758 0.800001 2.493108
v 1.122758 0.800001 0.003946
v 1.122758 0.400000 2.493108
v 1.122758 0.400000 0.003946
v 1.122758 0.000000 2.493108
v 1.122758 0.000000 0.003946
v 1.103045 1.200003 2.376899
v 1.103045 1.200003 0.120155
v 1.103045 0.800001 2.376899
v 1.103045 0.800001 0.120155
v 1.103045 0.400000 2.376899
v 1.103045 0.400000 0.120155
v 1.103045 0.000000 2.376899
v 1.103045 0.000000 0.120155
v 1.102801 1.200003 2.496098
v 1.102801 1.200003 0.000956
v 1.102801 0.800001 2.496098
v 1.102801 0.800001 0.000956
v 1.102801 0.400000 2.496098
v 1.102801 0.400000 0.000956
v 1.102801 0.000000 2.496098
v 1.102801 0.000000 0.000956
v 1.083333 1.200003 2.497054
v 1.083333 1.200003 2.378872
v 1.083333 1.200003 0.118182
v 1.083333 1.200003 0.000000
v 1.083333 0.800001 2.497054
v 1.083333 0.800001 2.378872
v 1.083333 0.800001 0.118182
v 1.083333 0.800001 0.000000
v 1.083333 0.400000 2.497054
v 1.083333 0.400000 2.378872
v 1.083333 0.400000 0.118182
v 1.083333 0.400000 0.000000
v 1.083333 0.000000 2.497054
v 1.083333 0.000000 2.378872
v 1.083333 0.000000 0.118182
v 1.083333 0.000000 0.000000
v 0.216666 1.200003 2.497054
v 0.216666 1.200003 2.378872
v 0.216666 1.200003 0.118182
v 0.216666 1.200003 0.000000
v 0.216666 1.116667 2.378872
v 0.216666 1.116667 0.118182
v 0.216666 1.033335 2.378872
v 0.216666 1.033335 0.118182
v 0.216666 0.800001 2.497054
v 0.216666 0.800001 0.000000
v 0.216666 0.400000 2.497054
v 0.216666 0.400000 0.000000
v 0.216666 0.166666 2.378872
v 0.216666 0.166666 0.118182
v 0.216666 0.083334 2.378872
v 0.216666 0.083334 0.118182
v 0.216666 0.000000 2.497054
v 0.216666 0.000000 2.378872
v 0.216666 0.000000 0.118182
v 0.216666 0.000000 0.000000
v 0.199313 1.050688 2.377120
v 0.199313 1.050688 0.119934
v 0.199313 0.149313 2.377120
v 0.199313 0.149313 0.119934
v 0.197198 1.200003 2.496098
v 0.197198 1.200003 0.000956
v 0.197198 0.800001 2.496098
v 0.197198 0.800001 0.000956
v 0.197198 0.400000 2.496098
v 0.197198 0.400000 0.000956
v 0.197198 0.000000 2.496098
v 0.197198 0.000000 0.000956
v 0.196954 1.200003 2.376899
v 0.196954 1.200003 0.120155
v 0.196954 1.116667 0.120155
v 0.196954 0.083334 0.120155
v 0.196954 0.000000 2.376899
v 0.196954 0.000000 0.120155
v 0.181081 1.068918 2.371808
v 0.181081 1.068918 0.125246
v 0.181081 0.131083 2.371808
v 0.181081 0.131083 0.125246
v 0.177241 1.200003 2.493108
v 0.177241 1.200003 0.003946
v 0.177241 0.800001 2.493108
v 0.177241 0.800001 0.003946
v 0.177241 0.400000 2.493108
v 0.177241 0.400000 0.003946
v 0.177241 0.000000 2.493108
v 0.177241 0.000000 0.003946
v 0.176789 1.200003 2.370574
v 0.176789 1.200003 0.126480
v 0.176789 1.116667 2.370574
v 0.176789 0.083334 2.370574
v 0.176789 0.000000 2.370574
v 0.176789 0.000000 0.126480
v 0.162953 1.087046 2.362858
v 0.162953 1.087046 0.134196
v 0.162953 0.112955 2.362858
v 0.162953 0.112955 0.134196
v 0.157385 1.200003 2.359608
v 0.157385 1.200003 0.137446
v 0.157385 1.116667 2.359608
v 0.157385 1.116667 0.137446
v 0.157385 0.083334 2.359608
v 0.157385 0.083334 0.137446
v 0.157385 0.000000 2.359608
v 0.157385 0.000000 0.137446
v 0.157048 1.200003 2.487930
v 0.157048 1.200003 0.009124
v 0.157048 0.800001 2.487930
v 0.157048 0.800001 0.009124
v 0.157048 0.400000 2.487930
v 0.157048 0.400000 0.009124
v 0.157048 0.000000 2.487930
v 0.157048 0.000000 0.009124
v 0.145915 1.104086 2.350187
v 0.145915 1.104086 0.146867
v 0.145915 0.095917 2.350187
v 0.145915 0.095917 0.146867
v 0.140063 1.200003 2.344257
v 0.140063 1.200003 0.152796
v 0.140063 0.000000 2.344257
v 0.140063 0.000000 0.152796
v 0.138111 1.111891 2.342431
v 0.138111 1.111891 0.154623
v 0.138111 0.088112 2.342431
v 0.138111 0.088112 0.154623
v 0.136912 1.200003 2.480458
v 0.136912 1.200003 0.016595
v 0.136912 0.800001 2.480458
v 0.136912 0.800001 0.016595
v 0.136912 0.400000 2.480458
v 0.136912 0.400000 0.016595
v 0.136912 0.000000 2.480458
v 0.136912 0.000000 0.016595
v 0.130949 1.119051 2.333715
v 0.130949 1.119051 0.163338
v 0.130949 0.080950 2.333715
v 0.130949 0.080950 0.163338
v 0.125992 1.200003 2.325360
v 0.125992 1.200003 0.171693
v 0.125992 0.000000 2.325360
v 0.125992 0.000000 0.171693
v 0.124551 1.125448 2.324029
v 0.124551 1.125448 0.173025
v 0.124551 0.074553 2.324029
v 0.124551 0.074553 0.173025
v 0.119040 1.130960 2.313363
v 0.119040 1.130960 0.183691
v 0.119040 0.069042 2.313363
v 0.119040 0.069042 0.183691
v 0.117152 1.200003 2.470648
v 0.117152 1.200003 0.026406
v 0.117152 0.800001 2.470648
v 0.117152 0.800001 0.026406
v 0.117152 0.400000 2.470648
v 0.117152 0.400000 0.026406
v 0.117152 0.000000 2.470648
v 0.117152 0.000000 0.026406
v 0.115939 1.200003 2.304192
v 0.115939 1.200003 0.192862
v 0.115939 0.000000 2.304192
v 0.115939 0.000000 0.192862
v 0.114541 1.135462 2.301705
v 0.114541 1.135462 0.195348
v 0.114541 0.064543 2.301705
v 0.114541 0.064543 0.195348
v 0.111174 1.138826 2.289048
v 0.111174 1.138826 0.208006
v 0.111174 0.061174 2.289048
v 0.111174 0.061174 0.208006
v 0.110142 1.200003 2.282195
v 0.110142 1.200003 0.214859
v 0.110142 0.000000 2.282195
v 0.110142 0.000000 0.214859
v 0.109064 1.140936 2.275379
v 0.109064 1.140936 0.221675
v 0.109064 0.059065 2.275379
v 0.109064 0.059065 0.221675
v 0.108333 1.200003 2.260690
v 0.108333 1.200003 0.236364
v 0.108333 1.141668 2.260690
v 0.108333 1.141668 0.236364
v 0.108333 1.139860 2.282195
v 0.108333 1.139860 0.214859
v 0.108333 1.134062 2.304192
v 0.108333 1.124010 2.325360
v 0.108333 1.124010 0.171693
v 0.108333 1.109938 2.344257
v 0.108333 1.109938 0.152796
v 0.108333 1.092615 2.359608
v 0.108333 1.092615 0.137446
v 0.108333 1.073210 0.126480
v 0.108333 1.053045 2.376899
v 0.108333 1.053045 0.120155
v 0.108333 1.033335 0.118182
v 0.108333 0.166666 2.378872
v 0.108333 0.146955 2.376899
v 0.108333 0.146955 0.120155
v 0.108333 0.126791 2.370574
v 0.108333 0.107386 2.359608
v 0.108333 0.107386 0.137446
v 0.108333 0.090065 2.344257
v 0.108333 0.090065 0.152796
v 0.108333 0.075993 2.325360
v 0.108333 0.075993 0.171693
v 0.108333 0.065941 0.192862
v 0.108333 0.060143 2.282195
v 0.108333 0.060143 0.214859
v 0.108333 0.058334 2.260690
v 0.108333 0.058334 0.236364
v 0.108333 0.000000 2.260690
v 0.108333 0.000000 0.236364
v 0.098104 1.200003 2.458525
v 0.098104 1.200003 0.038528
v 0.098104 0.800001 2.458525
v 0.098104 0.800001 0.038528
v 0.098104 0.400000 2.458525
v 0.098104 0.400000 0.038528
v 0.098104 0.000000 2.458525
v 0.098104 0.000000 0.038528
v 0.080102 1.200003 2.444192
v 0.080102 1.200003 0.052862
v 0.080102 0.800001 2.444192
v 0.080102 0.800001 0.052862
v 0.080102 0.400000 2.444192
v 0.080102 0.400000 0.052862
v 0.080102 0.000000 2.444192
v 0.080102 0.000000 0.052862
v 0.063459 1.200003 2.427824
v 0.063459 1.200003 0.069229
v 0.063459 0.800001 2.427824
v 0.063459 0.800001 0.069229
v 0.063459 0.400000 2.427824
v 0.063459 0.400000 0.069229
v 0.063459 0.000000 2.427824
v 0.063459 0.000000 0.069229
v 0.054166 1.141668 2.260690
v 0.054166 0.058334 0.236364
v 0.048456 1.200003 2.409670
v 0.048456 1.200003 0.087384
v 0.048456 0.800001 2.409670
v 0.048456 0.800001 0.087384
v 0.048456 0.400000 2.409670
v 0.048456 0.400000 0.087384
v 0.048456 0.000000 2.409670
v 0.048456 0.000000 0.087384
v 0.035317 1.200003 2.390031
v 0.035317 1.200003 0.107023
v 0.035317 0.800001 2.390031
v 0.035317 0.800001 0.107023
v 0.035317 0.400000 2.390031
v 0.035317 0.400000 0.107023
v 0.035317 0.000000 2.390031
v 0.035317 0.000000 0.107023
v 0.029027 1.033335 2.378872
v 0.029027 1.033335 0.118182
v 0.029027 0.744444 2.378872
v 0.029027 0.744444 0.118182
v 0.029027 0.455557 2.378872
v 0.029027 0.455557 0.118182
v 0.029027 0.166666 2.378872
v 0.029027 0.166666 0.118182
v 0.028659 1.044870 2.378208
v 0.028659 1.044870 0.118846
v 0.028659 0.155130 2.378208
v 0.028659 0.155130 0.118846
v 0.027622 1.056028 2.376268
v 0.027622 1.056028 0.120785
v 0.027622 0.143972 2.376268
v 0.027622 0.143972 0.120785
v 0.026025 1.066748 2.373132
v 0.026025 1.066748 0.123921
v 0.026025 0.133257 2.373132
v 0.026025 0.133257 0.123921
v 0.024205 1.200003 2.369251
v 0.024205 1.200003 0.127803
v 0.024205 0.000000 2.369251
v 0.024205 0.000000 0.127803
v 0.023972 1.076967 2.368879
v 0.023972 1.076967 0.128175
v 0.023972 0.123034 2.368879
v 0.023972 0.123034 0.128175
v 0.021568 1.086634 2.363587
v 0.021568 1.086634 0.133466
v 0.021568 0.113369 2.363587
v 0.021568 0.113369 0.133466
v 0.018920 1.095686 2.357336
v 0.018920 1.095686 0.139718
v 0.018920 0.104317 2.357336
v 0.018920 0.104317 0.139718
v 0.016134 1.104067 2.350205
v 0.016134 1.104067 0.146849
v 0.016134 0.095936 2.350205
v 0.016134 0.095936 0.146849
v 0.015212 1.200003 2.347694
v 0.015212 1.200003 0.149359
v 0.015212 0.000000 2.347694
v 0.015212 0.000000 0.149359
v 0.013314 1.111715 2.342272
v 0.013314 1.111715 0.154782
v 0.013314 0.088287 2.342272
v 0.013314 0.088287 0.154782
v 0.010602 1.118555 2.333664
v 0.010602 1.118555 0.163389
v 0.010602 0.081446 2.333664
v 0.010602 0.081446 0.163389
v 0.008363 1.200003 2.325727
v 0.008363 1.200003 0.171326
v 0.008363 0.000000 2.325727
v 0.008363 0.000000 0.171326
v 0.008088 1.124556 2.324474
v 0.008088 1.124556 0.172579
v 0.008088 0.075445 2.324474
v 0.008088 0.075445 0.172579
v 0.005825 1.129694 2.314766
v 0.005825 1.129694 0.182288
v 0.005825 0.070309 2.314766
v 0.005825 0.070309 0.182288
v 0.003860 1.133947 2.304603
v 0.003860 1.133947 0.192451
v 0.003860 0.066055 2.304603
v 0.003860 0.066055 0.192451
v 0.003616 1.200003 2.303700
v 0.003616 1.200003 0.193354
v 0.003616 0.000000 2.303700
v 0.003616 0.000000 0.193354
v 0.002247 1.137293 2.294050
v 0.002247 1.137293 0.203004
v 0.002247 0.062710 2.294050
v 0.002247 0.062710 0.203004
v 0.001032 1.139708 2.283170
v 0.001032 1.139708 0.213883
v 0.001032 0.060293 2.283170
v 0.001032 0.060293 0.213883
v 0.000876 1.200003 2.281929
v 0.000876 1.200003 0.215125
v 0.000876 0.000000 2.281929
v 0.000876 0.000000 0.215125
v 0.000266 1.141172 2.272029
v 0.000266 1.141172 0.225025
v 0.000266 0.058828 2.272029
v 0.000266 0.058828 0.225025
v 0.000000 1.200003 2.260690
v 0.000000 1.200003 0.236364
v 0.000000 1.141668 2.260690
v 0.000000 1.141668 0.236364
v 0.000000 0.058334 2.260690
v 0.000000 0.058334 0.236364
v 0.000000 0.000000 2.260690
v 0.000000 0.000000 0.236364

vn 0.706973 0.707174 0.009719
vn 0.831687 0.554773 -0.022874
vn 0.999787 0.000000 0.020620
vn 0.999787 0.000000 -0.020620
vn 0.999787 0.000000 0.020620
vn 0.999787 0.000000 -0.020620
vn 0.706773 -0.707174 0.019438
vn 0.831923 -0.554773 -0.011437
vn 0.829858 0.555001 0.057533
vn 0.827922 0.555001 -0.080742
vn 0.996023 0.000000 0.089099
vn 0.997202 0.000000 -0.074748
vn 0.997202 0.000000 0.074748
vn 0.996023 0.000000 -0.089099
vn 0.827922 -0.555001 0.080742
vn 0.829858 -0.555001 -0.057534
vn 0.821965 0.555023 0.127758
vn 0.817911 0.555024 -0.151561
vn 0.983261 0.000000 0.182202
vn 0.988135 0.000000 -0.153586
vn 0.988135 0.000000 0.153586
vn 0.983261 0.000000 -0.182201
vn 0.817911 -0.555023 0.151562
vn 0.821965 -0.555023 -0.127758
vn 0.807536 0.555046 0.199525
vn 0.801182 0.555046 -0.223676
vn 0.963168 0.000000 0.268900
vn 0.970806 0.000000 -0.239864
vn 0.970806 0.000000 0.239865
vn 0.963168 0.000000 -0.268900
vn 0.801182 -0.555046 0.223676
vn 0.807536 -0.555046 -0.199524
vn 0.667887 0.707446 0.231184
vn 0.660396 0.707446 -0.251786
vn 0.934391 0.000000 0.356250
vn 0.944989 0.000000 -0.327102
vn 0.944989 0.000000 0.327101
vn 0.934390 0.000000 -0.356251
vn 0.660396 -0.707447 0.251786
vn 0.667887 -0.707447 -0.231185
vn 0.757046 0.555092 0.344608
vn 0.745646 0.555092 -0.368625
vn 0.896436 0.000000 0.443173
vn 0.910142 0.000000 -0.414297
vn 0.910142 0.000000 0.414297
vn 0.896437 0.000000 -0.443172
vn 0.745646 -0.555092 0.368626
vn 0.757046 -0.555092 -0.344608
vn 0.720209 0.555115 0.416110
vn 0.706142 0.555115 -0.439557
vn 0.848959 0.000000 0.528459
vn 0.865872 0.000000 -0.500266
vn 0.865871 0.000000 0.500268
vn 0.848960 0.000000 -0.528458
vn 0.706142 -0.555115 0.439558
vn 0.720209 -0.555115 -0.416108
vn 0.573822 0.707508 0.412507
vn 0.559599 0.707508 -0.431604
vn 0.791842 0.000000 0.610726
vn 0.811967 0.000000 -0.583703
vn 0.811967 0.000000 0.583703
vn 0.791841 0.000000 -0.610727
vn 0.559599 -0.707508 0.431603
vn 0.573822 -0.707508 -0.412506
vn 0.622570 0.555154 0.551553
vn 0.603234 0.555154 -0.572637
vn 0.725263 0.000000 0.688472
vn 0.748507 0.000000 -0.663127
vn 0.748508 0.000000 0.663125
vn 0.725261 0.000000 -0.688474
vn 0.603236 -0.555154 0.572635
vn 0.622569 -0.555154 -0.551555
vn 0.477648 0.707537 0.520811
vn 0.459180 0.707537 -0.537164
vn 0.649772 0.000000 0.760129
vn 0.675907 0.000000 -0.736987
vn 0.675907 0.000000 0.736987
vn 0.649774 0.000000 -0.760128
vn 0.459178 -0.707537 0.537165
vn 0.477647 -0.707537 -0.520811
vn 0.420442 0.707545 0.567986
vn 0.400170 0.707545 -0.582447
vn 0.566278 0.000000 0.824214
vn 0.594966 0.000000 -0.803751
vn 0.594964 0.000000 0.803752
vn 0.566277 0.000000 -0.824215
vn 0.400171 -0.707545 0.582446
vn 0.420443 -0.707545 -0.567985
vn -0.446234 0.894567 -0.024997
vn -0.393505 0.919257 0.011009
vn -0.999120 0.000000 -0.041952
vn -0.999120 0.000000 0.041952
vn -0.999120 0.000000 -0.041952
vn -0.999120 0.000000 0.041952
vn -0.446759 -0.894567 -0.012499
vn -0.393043 -0.919257 0.022018
vn -0.503013 0.858253 -0.101879
vn -0.508076 0.858253 0.072524
vn -0.988259 0.000000 -0.152790
vn -0.983256 0.000000 0.182227
vn -0.983256 0.000000 -0.182227
vn -0.988259 0.000000 0.152790
vn -0.508076 -0.858253 -0.072524
vn -0.503013 -0.858253 0.101879
vn -0.555486 0.801102 -0.222869
vn -0.568237 0.801102 0.187994
vn -0.949392 0.000000 -0.314094
vn -0.928088 0.000000 0.372361
vn -0.928087 0.000000 -0.372363
vn -0.949392 0.000000 0.314094
vn -0.568237 -0.801102 -0.187994
vn -0.555486 -0.801102 0.222868
vn 0.358142 0.707548 0.609188
vn 0.336385 0.707548 -0.621467
vn 0.476016 0.000000 0.879437
vn 0.506805 0.000000 -0.862061
vn 0.506806 0.000000 0.862060
vn 0.476017 0.000000 -0.879436
vn 0.336384 -0.707548 0.621467
vn 0.358141 -0.707548 -0.609189
vn -0.592278 0.708627 -0.383478
vn -0.616195 0.708627 0.343733
vn -0.873312 0.000000 -0.487162
vn -0.839414 0.000000 0.543492
vn -0.839415 0.000000 -0.543491
vn -0.873312 0.000000 0.487161
vn -0.616194 -0.708627 -0.343734
vn -0.592277 -0.708627 0.383479
vn 0.343437 0.555175 0.757517
vn 0.316572 0.555175 -0.769131
vn 0.380614 0.000000 0.924734
vn 0.412921 0.000000 -0.910767
vn 0.412917 0.000000 0.910769
vn 0.380617 0.000000 -0.924733
vn 0.316570 -0.555175 0.769132
vn 0.343440 -0.555175 -0.757515
vn -0.502881 0.708767 -0.494732
vn -0.535676 0.708767 0.459021
vn -0.759350 0.000000 -0.650683
vn -0.712857 0.000000 0.701309
vn -0.712860 0.000000 -0.701307
vn -0.759347 0.000000 0.650685
vn -0.535677 -0.708767 -0.459019
vn -0.502880 -0.708767 0.494733
vn 0.222672 0.707534 0.670681
vn 0.199206 0.707534 -0.678021
vn 0.281892 0.000000 0.959446
vn 0.315097 0.000000 -0.949060
vn 0.315097 0.000000 0.949060
vn 0.281890 0.000000 -0.959447
vn 0.199207 -0.707534 0.678021
vn 0.222672 -0.707534 -0.670681
vn -0.330037 0.801420 -0.498800
vn -0.364345 0.801420 0.474320
vn -0.609168 0.000000 -0.793041
vn -0.551809 0.000000 0.833971
vn -0.551807 0.000000 -0.833972
vn -0.609168 0.000000 0.793042
vn -0.364345 -0.801420 -0.474320
vn -0.330038 -0.801420 0.498800
vn -0.257683 0.708847 -0.656609
vn -0.303223 0.708847 0.636861
vn -0.429880 0.000000 -0.902886
vn -0.365321 0.000000 0.930882
vn -0.365320 0.000000 -0.930882
vn -0.429882 0.000000 0.902885
vn -0.303221 -0.708847 -0.636862
vn -0.257684 -0.708847 0.656609
vn 0.152103 0.707518 0.690133
vn 0.128465 0.707518 -0.694921
vn 0.181788 0.000000 0.983338
vn 0.215227 0.000000 -0.976564
vn 0.215232 0.000000 0.976563
vn 0.181783 0.000000 -0.983339
vn 0.128469 -0.707518 0.694920
vn 0.152100 -0.707518 -0.690133
vn -0.117759 0.708745 -0.695567
vn -0.164937 0.708745 0.685913
vn -0.214794 0.000000 -0.976659
vn -0.180369 0.000000 0.983599
vn -0.180367 0.000000 -0.983599
vn -0.214795 0.000000 0.976659
vn -0.164937 -0.708745 -0.685913
vn -0.117761 -0.708745 0.695567
vn 0.081455 0.707497 0.702007
vn 0.058078 0.707497 -0.704326
vn 0.088804 0.000000 0.996049
vn 0.105817 0.000000 -0.994386
vn 0.105819 0.000000 0.994385
vn 0.088803 0.000000 -0.996049
vn 0.058079 -0.707497 0.704326
vn 0.081453 -0.707497 -0.702007
vn 0.027213 0.554803 0.831537
vn -0.017613 0.707437 -0.706557
vn -0.034190 0.514948 0.856539
vn 0.011563 0.707201 -0.706918
vn 0.024532 0.000000 0.999699
vn -0.059824 0.000000 -0.998209
vn -0.059826 0.000000 0.998209
vn 0.024533 0.000000 -0.999699
vn 0.024532 0.000000 0.999699
vn -0.049856 0.000000 -0.998756
vn -0.049858 0.000000 0.998756
vn 0.024533 0.000000 -0.999699
vn 0.013606 -0.554803 0.831870
vn -0.031128 -0.625150 -0.779884
vn -0.019930 -0.600358 0.799483
vn 0.023126 -0.707201 -0.706634
vn -0.011563 0.707201 0.706918
vn 0.027631 0.832369 -0.553533
vn 0.022275 0.894650 0.446213
vn -0.027214 0.554803 -0.831537
vn 0.060095 0.000022 -0.998193
vn 0.066616 0.000039 0.997779
vn 0.010040 -0.020052 -0.999749
vn 0.014372 -0.014372 0.999793
vn -0.024532 0.000000 0.999699
vn -0.024533 0.000000 -0.999699
vn -0.024532 0.000000 0.999699
vn -0.024533 0.000000 -0.999699
vn 0.016769 0.016769 -0.999719
vn 0.011158 0.022283 0.999689
vn 0.060095 -0.000022 -0.998193
vn 0.060005 -0.000047 0.998198
vn -0.023125 -0.707201 0.706634
vn 0.027631 -0.832369 -0.553533
vn 0.039852 -0.800318 0.598249
vn -0.013607 -0.554803 -0.831870
vn 0.128783 -0.064397 -0.989580
vn 0.081038 -0.080391 0.993464
vn 0.110306 0.069530 -0.991463
vn 0.097369 0.076474 0.992306
vn -0.058079 0.707497 0.704326
vn -0.081453 0.707497 -0.702007
vn -0.105819 0.000000 0.994385
vn -0.088803 0.000000 -0.996049
vn -0.088804 0.000000 0.996049
vn -0.105817 0.000000 -0.994386
vn -0.081455 -0.707497 0.702007
vn -0.058078 -0.707497 -0.704326
vn 0.157714 0.602299 -0.782536
vn 0.117761 0.708745 0.695567
vn 0.266435 -0.000133 0.963853
vn 0.242857 0.000114 0.970062
vn 0.157714 -0.602299 -0.782536
vn 0.110804 -0.833383 0.541475
vn 0.158793 -0.228785 -0.960439
vn 0.189211 -0.186964 0.963973
vn 0.149264 0.211116 -0.965997
vn 0.197172 0.201660 0.959404
vn -0.128469 0.707518 0.694920
vn -0.152100 0.707518 -0.690133
vn -0.215232 0.000000 0.976563
vn -0.181783 0.000000 -0.983339
vn -0.181788 0.000000 0.983338
vn -0.215227 0.000000 -0.976564
vn -0.152103 -0.707518 0.690133
vn -0.128465 -0.707518 -0.694921
vn 0.303221 0.708847 -0.636862
vn 0.280108 0.711650 0.644278
vn 0.386802 0.003113 -0.922158
vn 0.402243 -0.002668 -0.915529
vn 0.219838 -0.833466 -0.506957
vn 0.280108 -0.711650 0.644278
vn 0.336773 -0.215357 -0.916627
vn 0.219772 -0.332264 0.917225
vn 0.277902 0.271708 -0.921382
vn 0.281150 0.279406 0.918089
vn 0.358869 0.800797 -0.479517
vn 0.358869 0.800797 0.479517
vn 0.546927 0.005254 -0.837164
vn 0.498330 0.000393 0.866987
vn 0.560346 -0.006568 -0.828233
vn 0.498330 -0.000393 0.866988
vn 0.404642 -0.708257 -0.578478
vn 0.358869 -0.800797 0.479517
vn -0.199207 0.707534 0.678021
vn -0.222672 0.707534 -0.670681
vn -0.315097 0.000000 0.949060
vn -0.281890 0.000000 -0.959447
vn -0.281892 0.000000 0.959446
vn -0.315097 0.000000 -0.949060
vn -0.222672 -0.707534 0.670681
vn -0.199206 -0.707534 -0.678021
vn 0.422459 -0.314391 -0.850110
vn 0.422456 -0.314389 0.850112
vn 0.422458 0.314408 -0.850104
vn 0.422455 0.314406 0.850106
vn 0.591023 0.598291 -0.541055
vn 0.591021 0.598291 0.541057
vn 0.591023 -0.598291 -0.541055
vn 0.591020 -0.598291 0.541058
vn 0.435867 -0.432155 -0.789470
vn 0.435865 -0.432151 0.789473
vn 0.435859 0.432127 -0.789489
vn 0.435857 0.432124 0.789492
vn -0.316570 0.555175 0.769132
vn -0.343440 0.555175 -0.757515
vn -0.412917 0.000000 0.910769
vn -0.380617 0.000000 -0.924733
vn -0.380614 0.000000 0.924734
vn -0.412921 0.000000 -0.910767
vn -0.343437 -0.555175 0.757517
vn -0.316572 -0.555175 -0.769131
vn 0.498551 -0.484415 -0.718881
vn 0.498551 -0.484416 0.718879
vn 0.498568 0.484381 -0.718891
vn 0.498569 0.484383 0.718889
vn 0.689887 0.595554 -0.411548
vn 0.689888 0.595554 0.411546
vn 0.689887 -0.595554 -0.411548
vn 0.689888 -0.595554 0.411546
vn 0.554419 -0.534293 -0.638084
vn 0.554420 -0.534297 0.638079
vn 0.554467 0.534280 -0.638053
vn 0.554468 0.534285 0.638048
vn 0.617117 -0.577074 -0.534932
vn 0.719169 -0.450740 0.528799
vn 0.719210 0.450742 -0.528742
vn 0.617115 0.577116 0.534889
vn -0.336384 0.707548 0.621467
vn -0.358141 0.707548 -0.609189
vn -0.506806 0.000000 0.862060
vn -0.476017 0.000000 -0.879436
vn -0.476016 0.000000 0.879437
vn -0.506805 0.000000 -0.862061
vn -0.358142 -0.707548 0.609188
vn -0.336385 -0.707548 -0.621467
vn 0.670929 0.704126 -0.232508
vn 0.670929 0.704127 0.232508
vn 0.670929 -0.704126 -0.232508
vn 0.670929 -0.704127 0.232508
vn 0.668602 -0.616008 -0.416539
vn 0.729177 -0.546623 0.411709
vn 0.729086 0.546711 -0.411752
vn 0.668492 0.616098 0.416584
vn 0.717025 -0.632033 -0.293953
vn 0.770115 -0.562465 0.300925
vn 0.770192 0.562358 -0.300927
vn 0.717165 0.631870 0.293965
vn 0.508132 0.857117 -0.084569
vn 0.508132 0.857117 0.084570
vn 0.508132 -0.857117 -0.084569
vn 0.508132 -0.857117 0.084570
vn 0.511100 -0.847964 -0.140477
vn 0.594959 -0.788832 0.154166
vn 0.595093 0.788723 -0.154207
vn 0.511232 0.847882 0.140492
vn 0.496077 0.868120 -0.016584
vn 0.447060 0.894282 0.019935
vn 0.706669 -0.706668 -0.035191
vn 0.599724 -0.799694 0.028644
vn 0.052699 -0.976925 -0.206979
vn 0.071485 -0.965212 0.251508
vn 0.063814 -0.938170 -0.340243
vn 0.025563 -0.857049 -0.514601
vn 0.093455 -0.880732 0.464303
vn 0.007599 -0.740538 -0.671972
vn 0.007599 -0.740535 0.671975
vn -0.000923 -0.545066 -0.838393
vn -0.001665 -0.592604 0.805492
vn -0.003714 -0.415805 0.909446
vn -0.004805 -0.244851 -0.969549
vn -0.002939 -0.220055 0.975483
vn -0.000788 -0.044692 0.999000
vn -0.000788 0.044690 -0.999001
vn -0.002937 0.220067 -0.975480
vn -0.004801 0.244848 0.969549
vn -0.003710 0.415798 -0.909450
vn -0.001662 0.592623 -0.805478
vn -0.000920 0.545088 0.838378
vn 0.007603 0.740525 -0.671986
vn 0.007604 0.740522 0.671989
vn 0.093480 0.880738 -0.464287
vn 0.025589 0.857062 0.514578
vn 0.063817 0.938171 0.340240
vn 0.071738 0.965169 -0.251599
vn 0.053021 0.976883 0.207093
vn 0.599723 0.799697 -0.028585
vn 0.706669 0.706671 0.035145
vn 0.393731 -0.919058 -0.017557
vn 0.554689 -0.831851 0.018544
vn -0.400171 0.707545 0.582446
vn -0.420443 0.707545 -0.567985
vn -0.594964 0.000000 0.803752
vn -0.566277 0.000000 -0.824215
vn -0.566278 0.000000 0.824214
vn -0.594966 0.000000 -0.803751
vn -0.420442 -0.707545 0.567986
vn -0.400170 -0.707545 -0.582447
vn -0.459178 0.707537 0.537165
vn -0.477648 0.707537 -0.520811
vn -0.675907 0.000000 0.736987
vn -0.649774 0.000000 -0.760128
vn -0.649772 0.000000 0.760129
vn -0.675907 0.000000 -0.736987
vn -0.477648 -0.707537 0.520811
vn -0.459180 -0.707537 -0.537164
vn -0.603236 0.555154 0.572635
vn -0.622569 0.555154 -0.551555
vn -0.748508 0.000000 0.663125
vn -0.725261 0.000000 -0.688474
vn -0.725263 0.000000 0.688472
vn -0.748507 0.000000 -0.663127
vn -0.622570 -0.555154 0.551553
vn -0.603234 -0.555154 -0.572637
vn -0.000120 -0.999725 -0.023441
vn -0.000121 0.999727 0.023367
vn -0.559599 0.707508 0.431603
vn -0.573822 0.707508 -0.412506
vn -0.811967 0.000000 0.583703
vn -0.791841 0.000000 -0.610727
vn -0.791842 0.000000 0.610726
vn -0.811967 0.000000 -0.583703
vn -0.573822 -0.707508 0.412507
vn -0.559599 -0.707508 -0.431604
vn -0.817409 0.316992 0.480998
vn -0.805327 0.372177 -0.461446
vn -0.855729 0.000000 0.517424
vn -0.848884 0.000000 -0.528579
vn -0.851754 0.000000 0.523942
vn -0.858351 0.000000 -0.513063
vn -0.805325 -0.372177 0.461449
vn -0.817410 -0.316992 -0.480995
vn -0.863846 -0.051704 -0.501095
vn -0.979992 -0.021443 0.197876
vn -0.863444 0.000000 -0.504445
vn -0.980283 0.000000 0.197599
vn -0.863444 0.000000 -0.504445
vn -0.653522 0.000000 0.756908
vn -0.979993 0.021441 -0.197872
vn -0.863845 0.051706 0.501097
vn -0.860344 -0.111097 -0.497460
vn -0.652538 -0.121357 0.747976
vn -0.652539 0.121354 -0.747975
vn -0.860341 0.111098 0.497463
vn -0.966815 -0.163262 -0.196507
vn -0.966814 -0.163262 0.196508
vn -0.966811 0.163295 -0.196497
vn -0.966811 0.163295 0.196498
vn -0.835678 -0.307393 -0.455139
vn -0.637871 -0.341748 0.690166
vn -0.637866 0.341738 -0.690175
vn -0.835672 0.307380 0.455159
vn -0.857774 0.317639 0.404141
vn -0.857774 0.317640 -0.404140
vn -0.857774 -0.317639 0.404140
vn -0.857774 -0.317640 -0.404139
vn -0.637572 -0.433509 -0.636845
vn -0.815935 -0.388920 0.427775
vn -0.815940 0.388900 -0.427783
vn -0.637563 0.433497 0.636862
vn -0.800103 -0.456452 -0.389213
vn -0.617690 -0.516948 0.592642
vn -0.617683 0.516970 -0.592630
vn -0.800092 0.456484 0.389198
vn -0.906879 -0.395823 -0.144550
vn -0.906879 -0.395822 0.144550
vn -0.906878 0.395825 -0.144553
vn -0.906878 0.395824 0.144553
vn -0.597075 -0.644598 -0.477489
vn -0.597075 -0.644597 0.477489
vn -0.597069 0.644610 -0.477479
vn -0.597070 0.644610 0.477479
vn -0.806644 0.515726 0.288706
vn -0.806644 0.515726 -0.288708
vn -0.806644 -0.515726 0.288706
vn -0.806644 -0.515726 -0.288708
vn -0.754823 -0.597574 -0.270458
vn -0.754823 -0.597574 0.270459
vn -0.754829 0.597546 -0.270503
vn -0.754829 0.597546 0.270504
vn -0.744628 -0.625328 -0.233440
vn -0.744628 -0.625327 0.233441
vn -0.744636 0.625308 -0.233467
vn -0.744637 0.625307 0.233468
vn -0.865613 0.448168 0.223295
vn -0.865613 0.448168 -0.223295
vn -0.865613 -0.448168 0.223295
vn -0.865613 -0.448168 -0.223295
vn -0.732838 -0.650921 -0.198117
vn -0.732838 -0.650921 0.198117
vn -0.732839 0.650938 -0.198060
vn -0.732838 0.650938 0.198060
vn -0.725804 -0.668591 -0.161851
vn -0.850725 -0.521582 0.064956
vn -0.850719 0.521597 -0.064915
vn -0.725801 0.668602 0.161814
vn -0.718088 -0.684299 -0.126826
vn -0.570135 -0.798014 0.195243
vn -0.570135 0.798014 -0.195244
vn -0.718088 0.684299 0.126825
vn -0.881264 0.447823 0.151089
vn -0.881264 0.447823 -0.151088
vn -0.881264 -0.447823 0.151089
vn -0.881264 -0.447823 -0.151088
vn -0.714108 -0.693860 -0.092781
vn -0.839333 -0.542371 0.036794
vn -0.839338 0.542360 -0.036840
vn -0.714112 0.693851 0.092819
vn -0.556085 -0.826191 -0.090433
vn -0.556085 -0.826191 0.090434
vn -0.556097 0.826170 -0.090554
vn -0.556097 0.826170 0.090555
vn -0.890585 0.448209 0.077244
vn -0.890585 0.448209 -0.077244
vn -0.890585 -0.448209 0.077244
vn -0.890585 -0.448209 -0.077244
vn -0.707929 -0.705976 -0.020840
vn -0.707925 -0.705961 0.021468
vn -0.707925 0.705963 -0.021398
vn -0.707929 0.705978 0.020766
vn -0.831381 0.555413 0.017934
vn -0.799522 0.600497 -0.012934
vn -0.832136 -0.554543 -0.005613
vn -0.554761 -0.831991 0.005613
vn -0.554760 0.831992 -0.005567
vn -0.832135 0.554545 0.005566
vn -0.893976 -0.447881 0.014462
vn -0.706487 -0.707562 -0.015240

f 5//5 7//7 8//8
f 1//1 3//3 4//4
f 3//3 5//5 6//6
f 20//20 12//12 14//14
f 28//28 20//20 22//22
f 36//36 28//28 30//30
f 44//44 36//36 38//38
f 52//52 44//44 46//46
f 60//60 52//52 54//54
f 68//68 60//60 62//62
f 76//76 68//68 70//70
f 84//84 76//76 78//78
f 116//116 84//84 86//86
f 132//132 116//116 118//118
f 148//148 132//132 134//134
f 172//172 148//148 150//150
f 188//188 172//172 174//174
f 16//16 14//14 6//6
f 32//32 30//30 22//22
f 24//24 22//22 14//14
f 14//14 12//12 4//4
f 30//30 32//32 40//40
f 48//48 46//46 38//38
f 64//64 62//62 54//54
f 56//56 54//54 46//46
f 72//72 70//70 62//62
f 12//12 10//10 2//2
f 28//28 26//26 18//18
f 20//20 18//18 10//10
f 26//26 28//28 36//36
f 44//44 42//42 34//34
f 52//52 50//50 42//42
f 60//60 58//58 50//50
f 58//58 60//60 68//68
f 70//70 72//72 80//80
f 88//88 86//86 78//78
f 118//118 120//120 136//136
f 120//120 118//118 86//86
f 176//176 174//174 150//150
f 208//208 204//204 190//190
f 192//192 190//190 174//174
f 152//152 150//150 134//134
f 204//204 200//200 188//188
f 84//84 82//82 74//74
f 114//114 116//116 132//132
f 116//116 114//114 82//82
f 76//76 74//74 66//66
f 172//172 170//170 146//146
f 200//200 196//196 186//186
f 188//188 186//186 170//170
f 148//148 146//146 130//130
f 204//204 208//208 228//228
f 196//196 200//200 218//218
f 200//200 204//204 220//220
f 254//254 236//236 238//238
f 280//280 254//254 256//256
f 300//300 280//280 282//282
f 324//324 300//300 302//302
f 386//386 324//324 326//326
f 394//394 386//386 388//388
f 402//402 394//394 396//396
f 412//412 402//402 404//404
f 420//420 412//412 414//414
f 240//240 238//238 220//220
f 284//284 282//282 256//256
f 304//304 302//302 282//282
f 258//258 256//256 238//238
f 238//238 236//236 218//218
f 328//328 326//326 302//302
f 390//390 388//388 326//326
f 398//398 396//396 388//388
f 406//406 404//404 396//396
f 416//416 414//414 404//404
f 424//424 422//422 414//414
f 422//422 430//430 428//428
f 422//422 424//424 432//432
f 428//428 420//420 422//422
f 236//236 234//234 212//212
f 280//280 278//278 252//252
f 300//300 298//298 278//278
f 254//254 252//252 234//234
f 324//324 322//322 298//298
f 394//394 392//392 384//384
f 402//402 400//400 392//392
f 420//420 418//418 410//410
f 428//428 426//426 420//420
f 412//412 410//410 400//400
f 426//426 418//418 420//420
f 386//386 384//384 322//322
f 418//418 426//426 434//434
f 456//456 448//448 460//460
f 468//468 460//460 448//448
f 472//472 464//464 468//468
f 460//460 468//468 464//464
f 476//476 472//472 468//468
f 436//436 432//432 424//424
f 440//440 436//436 424//424
f 448//448 452//452 444//444
f 448//448 456//456 452//452
f 444//444 440//440 448//448
f 440//440 424//424 448//448
f 496//496 488//488 480//480
f 508//508 500//500 496//496
f 518//518 512//512 520//520
f 508//508 520//520 512//512
f 508//508 512//512 504//504
f 480//480 484//484 476//476
f 480//480 488//488 484//484
f 496//496 500//500 492//492
f 508//508 504//504 500//500
f 492//492 488//488 496//496
f 468//468 480//480 476//476
f 446//446 442//442 450//450
f 446//446 438//438 442//442
f 418//418 438//438 446//446
f 458//458 446//446 454//454
f 450//450 454//454 446//446
f 466//466 446//446 458//458
f 466//466 462//462 470//470
f 474//474 466//466 470//470
f 458//458 462//462 466//466
f 434//434 438//438 418//418
f 478//478 482//482 486//486
f 478//478 474//474 482//482
f 506//506 498//498 502//502
f 494//494 490//490 498//498
f 494//494 486//486 490//490
f 494//494 478//478 486//486
f 506//506 494//494 498//498
f 514//514 510//510 516//516
f 506//506 510//510 514//514
f 502//502 510//510 506//506
f 466//466 474//474 478//478
f 518//518 520//520 519//519
f 411//411 419//419 421//421
f 401//401 411//411 413//413
f 393//393 401//401 403//403
f 385//385 393//393 395//395
f 323//323 385//385 387//387
f 299//299 323//323 325//325
f 279//279 299//299 301//301
f 253//253 279//279 281//281
f 235//235 253//253 255//255
f 519//519 511//511 517//517
f 507//507 511//511 519//519
f 495//495 499//499 507//507
f 479//479 487//487 495//495
f 507//507 503//503 511//511
f 507//507 499//499 503//503
f 495//495 487//487 491//491
f 479//479 483//483 487//487
f 491//491 499//499 495//495
f 483//483 479//479 475//475
f 471//471 475//475 467//467
f 479//479 467//467 475//475
f 463//463 471//471 467//467
f 463//463 467//467 459//459
f 447//447 459//459 467//467
f 455//455 459//459 447//447
f 447//447 451//451 455//455
f 447//447 443//443 451//451
f 439//439 423//423 435//435
f 435//435 423//423 431//431
f 439//439 443//443 447//447
f 447//447 423//423 439//439
f 505//505 501//501 497//497
f 477//477 485//485 481//481
f 493//493 489//489 485//485
f 493//493 497//497 489//489
f 513//513 515//515 509//509
f 505//505 513//513 509//509
f 501//501 505//505 509//509
f 493//493 505//505 497//497
f 493//493 485//485 477//477
f 477//477 481//481 473//473
f 445//445 449//449 441//441
f 445//445 453//453 449//449
f 417//417 445//445 437//437
f 445//445 441//441 437//437
f 465//465 473//473 469//469
f 461//461 465//465 469//469
f 477//477 473//473 465//465
f 465//465 457//457 445//445
f 453//453 445//445 457//457
f 461//461 457//457 465//465
f 417//417 437//437 433//433
f 429//429 431//431 421//421
f 415//415 413//413 421//421
f 397//397 395//395 403//403
f 389//389 387//387 395//395
f 405//405 403//403 413//413
f 421//421 419//419 427//427
f 387//387 389//389 327//327
f 423//423 421//421 431//431
f 303//303 301//301 325//325
f 283//283 281//281 301//301
f 239//239 237//237 255//255
f 225//225 219//219 237//237
f 257//257 255//255 281//281
f 219//219 217//217 235//235
f 411//411 409//409 417//417
f 393//393 391//391 399//399
f 385//385 383//383 391//391
f 401//401 399//399 409//409
f 419//419 417//417 425//425
f 433//433 425//425 417//417
f 383//383 385//385 323//323
f 299//299 297//297 321//321
f 279//279 277//277 297//297
f 235//235 233//233 251//251
f 217//217 209//209 233//233
f 253//253 251//251 277//277
f 219//219 225//225 205//205
f 209//209 217//217 197//197
f 217//217 219//219 201//201
f 171//171 187//187 189//189
f 147//147 171//171 173//173
f 131//131 147//147 149//149
f 115//115 131//131 133//133
f 83//83 115//115 117//117
f 75//75 83//83 85//85
f 67//67 75//75 77//77
f 59//59 67//67 69//69
f 51//51 59//59 61//61
f 43//43 51//51 53//53
f 35//35 43//43 45//45
f 27//27 35//35 37//37
f 19//19 27//27 29//29
f 11//11 19//19 21//21
f 191//191 189//189 201//201
f 151//151 149//149 173//173
f 175//175 173//173 189//189
f 189//189 187//187 197//197
f 149//149 151//151 135//135
f 119//119 117//117 133//133
f 79//79 77//77 85//85
f 87//87 85//85 117//117
f 71//71 69//69 77//77
f 187//187 185//185 193//193
f 147//147 145//145 169//169
f 171//171 169//169 185//185
f 145//145 147//147 131//131
f 115//115 113//113 129//129
f 83//83 81//81 113//113
f 75//75 73//73 81//81
f 73//73 75//75 67//67
f 69//69 71//71 63//63
f 55//55 53//53 61//61
f 45//45 47//47 39//39
f 47//47 45//45 53//53
f 23//23 21//21 29//29
f 7//7 5//5 13//13
f 15//15 13//13 21//21
f 31//31 29//29 37//37
f 5//5 3//3 11//11
f 51//51 49//49 57//57
f 41//41 43//43 35//35
f 43//43 41//41 49//49
f 59//59 57//57 65//65
f 19//19 17//17 25//25
f 3//3 1//1 9//9
f 11//11 9//9 17//17
f 27//27 25//25 33//33
f 107//107 99//99 101//101
f 123//123 107//107 109//109
f 139//139 123//123 125//125
f 155//155 139//139 141//141
f 163//163 155//155 157//157
f 179//179 163//163 165//165
f 103//103 101//101 93//93
f 101//101 99//99 91//91
f 101//101 103//103 111//111
f 127//127 125//125 109//109
f 125//125 127//127 143//143
f 99//99 97//97 89//89
f 97//97 99//99 107//107
f 123//123 121//121 105//105
f 121//121 123//123 139//139
f 141//141 143//143 159//159
f 157//157 159//159 167//167
f 206//206 202//202 181//181
f 183//183 181//181 165//165
f 202//202 198//198 179//179
f 153//153 155//155 163//163
f 155//155 153//153 137//137
f 198//198 194//194 177//177
f 179//179 177//177 161//161
f 221//221 202//202 206//206
f 202//202 215//215 198//198
f 198//198 215//215 194//194
f 206//206 226//226 223//223
f 206//206 223//223 221//221
f 194//194 215//215 213//213
f 194//194 213//213 210//210
f 202//202 221//221 215//215
f 223//223 226//226 245//245
f 245//245 231//231 223//223
f 262//262 263//263 275//275
f 245//245 263//263 262//262
f 262//262 231//231 245//245
f 231//231 262//262 249//249
f 223//223 231//231 221//221
f 287//287 267//267 273//273
f 262//262 267//267 249//249
f 275//275 287//287 273//273
f 273//273 267//267 262//262
f 287//287 275//275 291//291
f 311//311 307//307 291//291
f 331//331 319//319 311//311
f 381//381 347//347 343//343
f 339//339 331//331 343//343
f 379//379 347//347 381//381
f 291//291 307//307 295//295
f 311//311 315//315 307//307
f 343//343 347//347 339//339
f 331//331 335//335 319//319
f 331//331 339//339 335//335
f 319//319 315//315 311//311
f 287//287 291//291 295//295
f 379//379 381//381 382//382
f 330//330 334//334 318//318
f 330//330 338//338 334//334
f 290//290 310//310 306//306
f 310//310 314//314 306//306
f 310//310 318//318 314//314
f 350//350 352//352 346//346
f 342//342 350//350 346//346
f 338//338 342//342 346//346
f 330//330 342//342 338//338
f 330//330 318//318 310//310
f 290//290 306//306 294//294
f 272//272 286//286 266//266
f 248//248 272//272 266//266
f 270//270 286//286 272//272
f 230//230 243//243 248//248
f 248//248 243//243 272//272
f 216//216 214//214 230//230
f 270//270 290//290 286//286
f 260//260 270//270 272//272
f 214//214 211//211 242//242
f 230//230 214//214 243//243
f 260//260 243//243 242//242
f 243//243 260//260 272//272
f 294//294 286//286 290//290
f 207//207 224//224 227//227
f 216//216 222//222 203//203
f 195//195 214//214 216//216
f 222//222 224//224 207//207
f 211//211 214//214 195//195
f 195//195 216//216 199//199
f 207//207 203//203 222//222
f 164//164 180//180 182//182
f 156//156 164//164 166//166
f 140//140 156//156 158//158
f 124//124 140//140 142//142
f 108//108 124//124 126//126
f 100//100 108//108 110//110
f 184//184 182//182 203//203
f 182//182 180//180 199//199
f 182//182 184//184 168//168
f 160//160 158//158 166//166
f 158//158 160//160 144//144
f 180//180 178//178 195//195
f 178//178 180//180 164//164
f 156//156 154//154 162//162
f 154//154 156//156 140//140
f 142//142 144//144 128//128
f 126//126 128//128 112//112
f 96//96 94//94 102//102
f 104//104 102//102 110//110
f 94//94 92//92 100//100
f 122//122 124//124 108//108
f 124//124 122//122 138//138
f 92//92 90//90 98//98
f 100//100 98//98 106//106
f 94//94 96//96 95//95
f 90//90 92//92 91//91
f 92//92 94//94 93//93
f 423//423 447//447 343//343
f 423//423 343//343 415//415
f 415//415 331//331 405//405
f 331//331 415//415 343//343
f 405//405 331//331 397//397
f 507//507 519//519 381//381
f 495//495 507//507 381//381
f 381//381 467//467 479//479
f 467//467 381//381 343//343
f 343//343 447//447 467//467
f 495//495 381//381 479//479
f 381//381 519//519 520//520
f 311//311 389//389 397//397
f 303//303 327//327 275//275
f 303//303 275//275 283//283
f 239//239 257//257 245//245
f 263//263 257//257 283//283
f 225//225 239//239 226//226
f 311//311 397//397 331//331
f 291//291 389//389 311//311
f 239//239 245//245 226//226
f 283//283 275//275 263//263
f 257//257 263//263 245//245
f 275//275 327//327 291//291
f 225//225 226//226 206//206
f 291//291 327//327 389//389
f 496//496 382//382 508//508
f 520//520 508//508 382//382
f 382//382 480//480 468//468
f 496//496 480//480 382//382
f 344//344 382//382 468//468
f 468//468 448//448 344//344
f 448//448 424//424 344//344
f 424//424 416//416 344//344
f 406//406 332//332 416//416
f 406//406 398//398 332//332
f 390//390 312//312 398//398
f 416//416 332//332 344//344
f 390//390 328//328 292//292
f 312//312 390//390 292//292
f 258//258 246//246 264//264
f 284//284 264//264 276//276
f 328//328 276//276 292//292
f 304//304 284//284 276//276
f 276//276 328//328 304//304
f 258//258 240//240 246//246
f 264//264 284//284 258//258
f 227//227 240//240 228//228
f 227//227 228//228 208//208
f 240//240 227//227 246//246
f 332//332 398//398 312//312
f 205//205 206//206 191//191
f 191//191 183//183 175//175
f 135//135 151//151 159//159
f 167//167 151//151 175//175
f 119//119 135//135 159//159
f 191//191 206//206 183//183
f 175//175 183//183 167//167
f 119//119 159//159 143//143
f 127//127 111//111 79//79
f 87//87 143//143 127//127
f 159//159 151//151 167//167
f 119//119 143//143 87//87
f 71//71 79//79 111//111
f 63//63 71//71 111//111
f 55//55 63//63 103//103
f 111//111 103//103 63//63
f 47//47 55//55 103//103
f 95//95 39//39 103//103
f 47//47 103//103 39//39
f 31//31 39//39 95//95
f 23//23 95//95 15//15
f 15//15 95//95 7//7
f 31//31 95//95 23//23
f 7//7 95//95 96//96
f 87//87 127//127 79//79
f 152//152 160//160 168//168
f 176//176 168//168 184//184
f 128//128 144//144 88//88
f 88//88 144//144 120//120
f 120//120 144//144 160//160
f 208//208 192//192 207//207
f 192//192 184//184 207//207
f 152//152 168//168 176//176
f 192//192 176//176 184//184
f 160//160 152//152 136//136
f 136//136 120//120 160//160
f 80//80 112//112 128//128
f 96//96 104//104 40//40
f 24//24 96//96 32//32
f 32//32 96//96 40//40
f 24//24 16//16 96//96
f 8//8 96//96 16//16
f 112//112 80//80 72//72
f 80//80 128//128 88//88
f 104//104 56//56 48//48
f 56//56 104//104 64//64
f 64//64 112//112 72//72
f 104//104 48//48 40//40
f 112//112 64//64 104//104
f 417//417 341//341 445//445
f 417//417 409//409 341//341
f 409//409 399//399 329//329
f 329//329 341//341 409//409
f 399//399 391//391 329//329
f 505//505 349//349 513//513
f 493//493 349//349 505//505
f 349//349 477//477 465//465
f 465//465 341//341 349//349
f 341//341 465//465 445//445
f 493//493 477//477 349//349
f 349//349 350//350 514//514
f 309//309 391//391 383//383
f 297//297 269//269 321//321
f 297//297 277//277 269//269
f 233//233 241//241 251//251
f 259//259 277//277 251//251
f 209//209 210//210 233//233
f 309//309 329//329 391//391
f 289//289 309//309 383//383
f 233//233 210//210 241//241
f 277//277 259//259 269//269
f 251//251 241//241 259//259
f 269//269 289//289 321//321
f 209//209 193//193 194//194
f 289//289 383//383 321//321
f 494//494 506//506 350//350
f 514//514 350//350 506//506
f 350//350 466//466 478//478
f 494//494 350//350 478//478
f 342//342 466//466 350//350
f 466//466 342//342 446//446
f 446//446 342//342 418//418
f 418//418 342//342 410//410
f 400//400 410//410 330//330
f 400//400 330//330 392//392
f 384//384 392//392 310//310
f 410//410 342//342 330//330
f 384//384 290//290 322//322
f 310//310 290//290 384//384
f 252//252 260//260 242//242
f 278//278 270//270 260//260
f 322//322 290//290 270//270
f 298//298 270//270 278//278
f 270//270 298//298 322//322
f 252//252 242//242 234//234
f 260//260 252//252 278//278
f 211//211 212//212 234//234
f 211//211 195//195 196//196
f 234//234 242//242 211//211
f 330//330 310//310 392//392
f 193//193 185//185 194//194
f 185//185 169//169 177//177
f 129//129 153//153 145//145
f 161//161 169//169 145//145
f 113//113 153//153 129//129
f 185//185 177//177 194//194
f 169//169 161//161 177//177
f 113//113 137//137 153//153
f 121//121 73//73 105//105
f 81//81 121//121 137//137
f 153//153 161//161 145//145
f 113//113 81//81 137//137
f 65//65 105//105 73//73
f 57//57 105//105 65//65
f 49//49 97//97 57//57
f 105//105 57//57 97//97
f 41//41 97//97 49//49
f 89//89 97//97 33//33
f 41//41 33//33 97//97
f 25//25 89//89 33//33
f 17//17 9//9 89//89
f 9//9 1//1 89//89
f 25//25 17//17 89//89
f 1//1 2//2 90//90
f 81//81 73//73 121//121
f 146//146 162//162 154//154
f 170//170 178//178 162//162
f 122//122 82//82 138//138
f 82//82 114//114 138//138
f 114//114 154//154 138//138
f 196//196 195//195 186//186
f 186//186 195//195 178//178
f 146//146 170//170 162//162
f 186//186 178//178 170//170
f 154//154 130//130 146//146
f 130//130 154//154 114//114
f 74//74 122//122 106//106
f 90//90 34//34 98//98
f 18//18 26//26 90//90
f 26//26 34//34 90//90
f 18//18 90//90 10//10
f 2//2 10//10 90//90
f 106//106 66//66 74//74
f 74//74 82//82 122//122
f 98//98 42//42 50//50
f 50//50 58//58 98//98
f 58//58 66//66 106//106
f 98//98 34//34 42//42
f 106//106 98//98 58//58
f 352//352 351//351 407//407
f 515//515 516//516 407//407
f 352//352 407//407 516//516
f 363//363 229//229 215//215
f 247//247 360//360 265//265
f 229//229 363//363 247//247
f 425//425 363//363 215//215
f 360//360 285//285 265//265
f 360//360 358//358 285//285
f 293//293 285//285 358//358
f 473//473 358//358 469//469
f 461//461 358//358 360//360
f 360//360 247//247 363//363
f 360//360 363//363 449//449
f 363//363 425//425 433//433
f 363//363 437//437 441//441
f 437//437 363//363 433//433
f 360//360 449//449 453//453
f 360//360 457//457 461//461
f 358//358 461//461 469//469
f 457//457 360//360 453//453
f 441//441 449//449 363//363
f 305//305 293//293 358//358
f 356//356 313//313 305//305
f 355//355 317//317 356//356
f 313//313 356//356 317//317
f 358//358 473//473 356//356
f 355//355 337//337 333//333
f 337//337 355//355 353//353
f 345//345 337//337 353//353
f 501//501 345//345 353//353
f 497//497 501//501 353//353
f 317//317 355//355 333//333
f 485//485 355//355 356//356
f 356//356 481//481 485//485
f 489//489 497//497 355//355
f 485//485 489//489 355//355
f 481//481 356//356 473//473
f 345//345 509//509 407//407
f 345//345 501//501 509//509
f 515//515 407//407 509//509
f 497//497 353//353 355//355
f 407//407 351//351 345//345
f 305//305 358//358 356//356
f 215//215 221//221 366//366
f 429//429 366//366 431//431
f 429//429 427//427 366//366
f 215//215 366//366 427//427
f 215//215 427//427 425//425
f 339//339 374//374 335//335
f 503//503 377//377 347//347
f 339//339 347//347 377//377
f 319//319 335//335 374//374
f 374//374 372//372 307//307
f 374//374 315//315 319//319
f 307//307 315//315 374//374
f 339//339 377//377 374//374
f 475//475 372//372 374//374
f 374//374 491//491 487//487
f 379//379 511//511 347//347
f 511//511 503//503 347//347
f 379//379 517//517 511//511
f 374//374 377//377 491//491
f 499//499 377//377 503//503
f 491//491 377//377 499//499
f 487//487 483//483 374//374
f 483//483 475//475 374//374
f 372//372 295//295 307//307
f 370//370 267//267 287//287
f 463//463 370//370 372//372
f 287//287 372//372 370//370
f 370//370 369//369 267//267
f 295//295 372//372 287//287
f 366//366 231//231 367//367
f 367//367 249//249 369//369
f 267//267 369//369 249//249
f 231//231 249//249 367//367
f 443//443 367//367 369//369
f 366//366 221//221 231//231
f 455//455 369//369 370//370
f 451//451 369//369 455//455
f 463//463 372//372 471//471
f 459//459 370//370 463//463
f 455//455 370//370 459//459
f 435//435 431//431 366//366
f 439//439 367//367 443//443
f 435//435 367//367 439//439
f 369//369 451//451 443//443
f 435//435 366//366 367//367
f 475//475 471//471 372//372
f 379//379 380//380 408//408
f 518//518 517//517 408//408
f 379//379 408//408 517//517
f 368//368 232//232 222//222
f 250//250 371//371 268//268
f 232//232 368//368 250//250
f 432//432 368//368 222//222
f 371//371 288//288 268//268
f 371//371 373//373 288//288
f 296//296 288//288 373//373
f 476//476 373//373 472//472
f 464//464 373//373 371//371
f 371//371 250//250 368//368
f 371//371 368//368 452//452
f 368//368 432//432 436//436
f 368//368 440//440 444//444
f 440//440 368//368 436//436
f 371//371 452//452 456//456
f 371//371 460//460 464//464
f 373//373 464//464 472//472
f 460//460 371//371 456//456
f 444//444 452//452 368//368
f 308//308 296//296 373//373
f 375//375 316//316 308//308
f 376//376 320//320 375//375
f 316//316 375//375 320//320
f 373//373 476//476 375//375
f 376//376 340//340 336//336
f 340//340 376//376 378//378
f 348//348 340//340 378//378
f 504//504 348//348 378//378
f 500//500 504//504 378//378
f 320//320 376//376 336//336
f 488//488 376//376 375//375
f 375//375 484//484 488//488
f 492//492 500//500 376//376
f 488//488 492//492 376//376
f 484//484 375//375 476//476
f 348//348 512//512 408//408
f 348//348 504//504 512//512
f 518//518 408//408 512//512
f 500//500 378//378 376//376
f 408//408 380//380 348//348
f 308//308 373//373 375//375
f 222//222 216//216 365//365
f 428//428 365//365 426//426
f 428//428 430//430 365//365
f 222//222 365//365 430//430
f 222//222 430//430 432//432
f 338//338 357//357 334//334
f 502//502 354//354 346//346
f 338//338 346//346 354//354
f 318//318 334//334 357//357
f 357//357 359//359 306//306
f 357//357 314//314 318//318
f 306//306 314//314 357//357
f 338//338 354//354 357//357
f 474//474 359//359 357//357
f 357//357 490//490 486//486
f 352//352 510//510 346//346
f 510//510 502//502 346//346
f 352//352 516//516 510//510
f 357//357 354//354 490//490
f 498//498 354//354 502//502
f 490//490 354//354 498//498
f 486//486 482//482 357//357
f 482//482 474//474 357//357
f 359//359 294//294 306//306
f 361//361 266//266 286//286
f 462//462 361//361 359//359
f 286//286 359//359 361//361
f 361//361 362//362 266//266
f 294//294 359//359 286//286
f 365//365 230//230 364//364
f 364//364 248//248 362//362
f 266//266 362//362 248//248
f 230//230 248//248 364//364
f 442//442 364//364 362//362
f 365//365 216//216 230//230
f 454//454 362//362 361//361
f 450//450 362//362 454//454
f 462//462 359//359 470//470
f 458//458 361//361 462//462
f 454//454 361//361 458//458
f 434//434 426//426 365//365
f 438//438 364//364 442//442
f 434//434 364//364 438//438
f 362//362 450//450 442//442
f 434//434 365//365 364//364
f 474//474 470//470 359//359
f 514//514 516//516 515//515
f 213//213 215//215 229//229
f 229//229 241//241 213//213
f 265//265 261//261 247//247
f 247//247 261//261 229//229
f 285//285 271//271 265//265
f 210//210 213//213 241//241
f 261//261 241//241 229//229
f 259//259 241//241 261//261
f 271//271 269//269 259//259
f 285//285 269//269 271//271
f 271//271 261//261 265//265
f 269//269 285//285 289//289
f 309//309 305//305 313//313
f 289//289 293//293 305//305
f 329//329 333//333 337//337
f 329//329 317//317 333//333
f 309//309 313//313 317//317
f 309//309 289//289 305//305
f 329//329 309//309 317//317
f 349//349 345//345 351//351
f 345//345 349//349 341//341
f 337//337 341//341 329//329
f 345//345 341//341 337//337
f 285//285 293//293 289//289
f 349//349 351//351 352//352
f 380//380 382//382 348//348
f 344//344 348//348 382//382
f 340//340 348//348 344//344
f 332//332 340//340 344//344
f 312//312 320//320 332//332
f 332//332 336//336 340//340
f 332//332 320//320 336//336
f 312//312 308//308 316//316
f 308//308 292//292 296//296
f 316//316 320//320 312//312
f 292//292 308//308 312//312
f 276//276 288//288 292//292
f 264//264 274//274 276//276
f 274//274 288//288 276//276
f 264//264 244//244 274//274
f 246//246 244//244 264//264
f 227//227 224//224 244//244
f 268//268 288//288 274//274
f 268//268 274//274 250//250
f 232//232 244//244 224//224
f 224//224 222//222 232//232
f 250//250 244//244 232//232
f 244//244 250//250 274//274
f 296//296 292//292 288//288
f 5//5 8//8 6//6
f 1//1 4//4 2//2
f 3//3 6//6 4//4
f 20//20 14//14 22//22
f 28//28 22//22 30//30
f 36//36 30//30 38//38
f 44//44 38//38 46//46
f 52//52 46//46 54//54
f 60//60 54//54 62//62
f 68//68 62//62 70//70
f 76//76 70//70 78//78
f 84//84 78//78 86//86
f 116//116 86//86 118//118
f 132//132 118//118 134//134
f 148//148 134//134 150//150
f 172//172 150//150 174//174
f 188//188 174//174 190//190
f 16//16 6//6 8//8
f 32//32 22//22 24//24
f 24//24 14//14 16//16
f 14//14 4//4 6//6
f 30//30 40//40 38//38
f 48//48 38//38 40//40
f 64//64 54//54 56//56
f 56//56 46//46 48//48
f 72//72 62//62 64//64
f 12//12 2//2 4//4
f 28//28 18//18 20//20
f 20//20 10//10 12//12
f 26//26 36//36 34//34
f 44//44 34//34 36//36
f 52//52 42//42 44//44
f 60//60 50//50 52//52
f 58//58 68//68 66//66
f 70//70 80//80 78//78
f 88//88 78//78 80//80
f 118//118 136//136 134//134
f 120//120 86//86 88//88
f 176//176 150//150 152//152
f 208//208 190//190 192//192
f 192//192 174//174 176//176
f 152//152 134//134 136//136
f 204//204 188//188 190//190
f 84//84 74//74 76//76
f 114//114 132//132 130//130
f 116//116 82//82 84//84
f 76//76 66//66 68//68
f 172//172 146//146 148//148
f 200//200 186//186 188//188
f 188//188 170//170 172//172
f 148//148 130//130 132//132
f 204//204 228//228 220//220
f 196//196 218//218 212//212
f 200//200 220//220 218//218
f 254//254 238//238 256//256
f 280//280 256//256 282//282
f 300//300 282//282 302//302
f 324//324 302//302 326//326
f 386//386 326//326 388//388
f 394//394 388//388 396//396
f 402//402 396//396 404//404
f 412//412 404//404 414//414
f 420//420 414//414 422//422
f 240//240 220//220 228//228
f 284//284 256//256 258//258
f 304//304 282//282 284//284
f 258//258 238//238 240//240
f 238//238 218//218 220//220
f 328//328 302//302 304//304
f 390//390 326//326 328//328
f 398//398 388//388 390//390
f 406//406 396//396 398//398
f 416//416 404//404 406//406
f 424//424 414//414 416//416
f 422//422 432//432 430//430
f 236//236 212//212 218//218
f 280//280 252//252 254//254
f 300//300 278//278 280//280
f 254//254 234//234 236//236
f 324//324 298//298 300//300
f 394//394 384//384 386//386
f 402//402 392//392 394//394
f 420//420 410//410 412//412
f 412//412 400//400 402//402
f 386//386 322//322 324//324
f 518//518 519//519 517//517
f 411//411 421//421 413//413
f 401//401 413//413 403//403
f 393//393 403//403 395//395
f 385//385 395//395 387//387
f 323//323 387//387 325//325
f 299//299 325//325 301//301
f 279//279 301//301 281//281
f 253//253 281//281 255//255
f 235//235 255//255 237//237
f 415//415 421//421 423//423
f 397//397 403//403 405//405
f 389//389 395//395 397//397
f 405//405 413//413 415//415
f 421//421 427//427 429//429
f 387//387 327//327 325//325
f 303//303 325//325 327//327
f 283//283 301//301 303//303
f 239//239 255//255 257//257
f 225//225 237//237 239//239
f 257//257 281//281 283//283
f 219//219 235//235 237//237
f 411//411 417//417 419//419
f 393//393 399//399 401//401
f 385//385 391//391 393//393
f 401//401 409//409 411//411
f 419//419 425//425 427//427
f 383//383 323//323 321//321
f 299//299 321//321 323//323
f 279//279 297//297 299//299
f 235//235 251//251 253//253
f 217//217 233//233 235//235
f 253//253 277//277 279//279
f 219//219 205//205 201//201
f 209//209 197//197 193//193
f 217//217 201//201 197//197
f 171//171 189//189 173//173
f 147//147 173//173 149//149
f 131//131 149//149 133//133
f 115//115 133//133 117//117
f 83//83 117//117 85//85
f 75//75 85//85 77//77
f 67//67 77//77 69//69
f 59//59 69//69 61//61
f 51//51 61//61 53//53
f 43//43 53//53 45//45
f 35//35 45//45 37//37
f 27//27 37//37 29//29
f 19//19 29//29 21//21
f 11//11 21//21 13//13
f 191//191 201//201 205//205
f 151//151 173//173 175//175
f 175//175 189//189 191//191
f 189//189 197//197 201//201
f 149//149 135//135 133//133
f 119//119 133//133 135//135
f 79//79 85//85 87//87
f 87//87 117//117 119//119
f 71//71 77//77 79//79
f 187//187 193//193 197//197
f 147//147 169//169 171//171
f 171//171 185//185 187//187
f 145//145 131//131 129//129
f 115//115 129//129 131//131
f 83//83 113//113 115//115
f 75//75 81//81 83//83
f 73//73 67//67 65//65
f 69//69 63//63 61//61
f 55//55 61//61 63//63
f 45//45 39//39 37//37
f 47//47 53//53 55//55
f 23//23 29//29 31//31
f 7//7 13//13 15//15
f 15//15 21//21 23//23
f 31//31 37//37 39//39
f 5//5 11//11 13//13
f 51//51 57//57 59//59
f 41//41 35//35 33//33
f 43//43 49//49 51//51
f 59//59 65//65 67//67
f 19//19 25//25 27//27
f 3//3 9//9 11//11
f 11//11 17//17 19//19
f 27//27 33//33 35//35
f 107//107 101//101 109//109
f 123//123 109//109 125//125
f 139//139 125//125 141//141
f 155//155 141//141 157//157
f 163//163 157//157 165//165
f 179//179 165//165 181//181
f 103//103 93//93 95//95
f 101//101 91//91 93//93
f 101//101 111//111 109//109
f 127//127 109//109 111//111
f 125//125 143//143 141//141
f 99//99 89//89 91//91
f 97//97 107//107 105//105
f 123//123 105//105 107//107
f 121//121 139//139 137//137
f 141//141 159//159 157//157
f 157//157 167//167 165//165
f 206//206 181//181 183//183
f 183//183 165//165 167//167
f 202//202 179//179 181//181
f 153//153 163//163 161//161
f 155//155 137//137 139//139
f 198//198 177//177 179//179
f 179//179 161//161 163//163
f 262//262 275//275 273//273
f 379//379 382//382 380//380
f 214//214 242//242 243//243
f 216//216 203//203 199//199
f 164//164 182//182 166//166
f 156//156 166//166 158//158
f 140//140 158//158 142//142
f 124//124 142//142 126//126
f 108//108 126//126 110//110
f 100//100 110//110 102//102
f 184//184 203//203 207//207
f 182//182 199//199 203//203
f 182//182 168//168 166//166
f 160//160 166//166 168//168
f 158//158 144//144 142//142
f 180//180 195//195 199//199
f 178//178 164//164 162//162
f 156//156 162//162 164//164
f 154//154 140//140 138//138
f 142//142 128//128 126//126
f 126//126 112//112 110//110
f 96//96 102//102 104//104
f 104//104 110//110 112//112
f 94//94 100//100 102//102
f 122//122 108//108 106//106
f 124//124 138//138 140//140
f 92//92 98//98 100//100
f 100//100 106//106 108//108
f 94//94 95//95 93//93
f 90//90 91//91 89//89
f 92//92 93//93 91//91
f 381//381 520//520 382//382
f 225//225 206//206 205//205
f 227//227 208//208 207//207
f 7//7 96//96 8//8
f 349//349 514//514 513//513
f 209//209 194//194 210//210
f 211//211 196//196 212//212
f 1//1 90//90 89//89
f 514//514 515//515 513//513
f 271//271 259//259 261//261
f 349//349 352//352 350//350
f 227//227 244//244 246//246