# PHANTOM Module: COR0
# Units: meters
o COR0

v 1.300000 0.150000 2.260690
v 1.300000 0.150000 0.236364
v 1.300000 0.000000 2.260690
v 1.300000 0.000000 0.236364
v 1.299123 0.150000 2.281929
v 1.299123 0.150000 0.215125
v 1.299123 0.000000 2.281929
v 1.299123 0.000000 0.215125
v 1.296383 0.150000 2.303699
v 1.296383 0.150000 0.193354
v 1.296383 0.000000 2.303699
v 1.296383 0.000000 0.193354
v 1.291636 0.150000 2.325727
v 1.291636 0.150000 0.171326
v 1.291636 0.000000 2.325727
v 1.291636 0.000000 0.171326
v 1.284787 0.150000 2.347694
v 1.284787 0.150000 0.149359
v 1.284787 0.000000 2.347694
v 1.284787 0.000000 0.149359
v 1.275795 0.150000 2.369251
v 1.275795 0.150000 0.127803
v 1.275795 0.000000 2.369251
v 1.275795 0.000000 0.127803
v 1.264682 0.150000 2.390031
v 1.264682 0.150000 0.107023
v 1.264682 0.000000 2.390031
v 1.264682 0.000000 0.107023
v 1.251543 0.150000 2.409670
v 1.251543 0.150000 0.087384
v 1.251543 0.000000 2.409670
v 1.251543 0.000000 0.087384
v 1.236540 0.150000 2.427824
v 1.236540 0.150000 0.069229
v 1.236540 0.000000 2.427824
v 1.236540 0.000000 0.069229
v 1.219898 0.150000 2.444192
v 1.219898 0.150000 0.052862
v 1.219898 0.000000 2.444192
v 1.219898 0.000000 0.052862
v 1.201895 0.150000 2.458525
v 1.201895 0.150000 0.038528
v 1.201895 0.000000 2.458525
v 1.201895 0.000000 0.038528
v 1.191667 0.150000 2.260690
v 1.191667 0.150000 0.236364
v 1.191667 0.075001 2.260690
v 1.191667 0.075001 0.236364
v 1.191667 0.000000 2.260690
v 1.191667 0.000000 0.236364
v 1.189858 0.150000 2.282195
v 1.189858 0.150000 0.214859
v 1.189858 0.075001 0.214859
v 1.189858 0.000000 2.282195
v 1.189858 0.000000 0.214859
v 1.184060 0.150000 2.304192
v 1.184060 0.150000 0.192862
v 1.184060 0.075001 2.304192
v 1.184060 0.075001 0.192862
v 1.184060 0.000000 2.304192
v 1.184060 0.000000 0.192862
v 1.182847 0.150000 2.470648
v 1.182847 0.150000 0.026406
v 1.182847 0.000000 2.470648
v 1.182847 0.000000 0.026406
v 1.174008 0.150000 2.325360
v 1.174008 0.150000 0.171693
v 1.174008 0.075001 2.325360
v 1.174008 0.075001 0.171693
v 1.174008 0.000000 2.325360
v 1.174008 0.000000 0.171693
v 1.163087 0.150000 2.480458
v 1.163087 0.150000 0.016595
v 1.163087 0.000000 2.480458
v 1.163087 0.000000 0.016595
v 1.159936 0.150000 2.344257
v 1.159936 0.150000 0.152796
v 1.159936 0.075001 2.344257
v 1.159936 0.075001 0.152796
v 1.159936 0.000000 2.344257
v 1.159936 0.000000 0.152796
v 1.142951 0.150000 2.487930
v 1.142951 0.150000 0.009124
v 1.142951 0.000000 2.487930
v 1.142951 0.000000 0.009124
v 1.142614 0.150000 2.359608
v 1.142614 0.150000 0.137446
v 1.142614 0.075001 2.359608
v 1.142614 0.075001 0.137446
v 1.142614 0.000000 2.359608
v 1.142614 0.000000 0.137446
v 1.123210 0.150000 2.370574
v 1.123210 0.150000 0.126480
v 1.123210 0.075001 2.370574
v 1.123210 0.075001 0.126480
v 1.123210 0.000000 2.370574
v 1.123210 0.000000 0.126480
v 1.122759 0.150000 2.493108
v 1.122759 0.150000 0.003946
v 1.122759 0.000000 2.493108
v 1.122759 0.000000 0.003946
v 1.103046 0.150000 2.376899
v 1.103046 0.150000 0.120155
v 1.103046 0.075001 2.376899
v 1.103046 0.000000 2.376899
v 1.103046 0.000000 0.120155
v 1.102802 0.150000 2.496098
v 1.102802 0.150000 0.000956
v 1.102802 0.000000 2.496098
v 1.102802 0.000000 0.000956
v 1.083333 0.150000 2.497054
v 1.083333 0.150000 2.378872
v 1.083333 0.150000 0.118182
v 1.083333 0.150000 0.000000
v 1.083333 0.075001 2.378872
v 1.083333 0.075001 0.118182
v 1.083333 0.000000 2.497054
v 1.083333 0.000000 2.378872
v 1.083333 0.000000 0.118182
v 1.083333 0.000000 0.000000
v 0.216666 0.150000 2.497054
v 0.216666 0.150000 2.378872
v 0.216666 0.150000 0.118182
v 0.216666 0.150000 0.000000
v 0.216666 0.075001 2.378872
v 0.216666 0.075001 0.118182
v 0.216666 0.000000 2.497054
v 0.216666 0.000000 2.378872
v 0.216666 0.000000 0.118182
v 0.216666 0.000000 0.000000
v 0.197198 0.150000 2.496098
v 0.197198 0.150000 0.000956
v 0.197198 0.000000 2.496098
v 0.197198 0.000000 0.000956
v 0.196954 0.150000 2.376899
v 0.196954 0.150000 0.120155
v 0.196954 0.075001 0.120155
v 0.196954 0.000000 2.376899
v 0.196954 0.000000 0.120155
v 0.177241 0.150000 2.493108
v 0.177241 0.150000 0.003946
v 0.177241 0.000000 2.493108
v 0.177241 0.000000 0.003946
v 0.176790 0.150000 2.370574
v 0.176790 0.150000 0.126480
v 0.176790 0.075001 2.370574
v 0.176790 0.075001 0.126480
v 0.176790 0.000000 2.370574
v 0.176790 0.000000 0.126480
v 0.157386 0.150000 2.359608
v 0.157386 0.150000 0.137446
v 0.157386 0.075001 2.359608
v 0.157386 0.075001 0.137446
v 0.157386 0.000000 2.359608
v 0.157386 0.000000 0.137446
v 0.157049 0.150000 2.487930
v 0.157049 0.150000 0.009124
v 0.157049 0.000000 2.487930
v 0.157049 0.000000 0.009124
v 0.140063 0.150000 2.344257
v 0.140063 0.150000 0.152796
v 0.140063 0.075001 2.344257
v 0.140063 0.075001 0.152796
v 0.140063 0.000000 2.344257
v 0.140063 0.000000 0.152796
v 0.136913 0.150000 2.480458
v 0.136913 0.150000 0.016595
v 0.136913 0.000000 2.480458
v 0.136913 0.000000 0.016595
v 0.125992 0.150000 2.325360
v 0.125992 0.150000 0.171693
v 0.125992 0.075001 2.325360
v 0.125992 0.075001 0.171693
v 0.125992 0.000000 2.325360
v 0.125992 0.000000 0.171693
v 0.117153 0.150000 2.470648
v 0.117153 0.150000 0.026406
v 0.117153 0.000000 2.470648
v 0.117153 0.000000 0.026406
v 0.115939 0.150000 2.304192
v 0.115939 0.150000 0.192862
v 0.115939 0.075001 2.304192
v 0.115939 0.075001 0.192862
v 0.115939 0.000000 2.304192
v 0.115939 0.000000 0.192862
v 0.110142 0.150000 2.282195
v 0.110142 0.150000 0.214859
v 0.110142 0.075001 2.282195
v 0.110142 0.000000 2.282195
v 0.110142 0.000000 0.214859
v 0.108333 0.150000 2.260690
v 0.108333 0.150000 0.236364
v 0.108333 0.075001 2.260690
v 0.108333 0.075001 0.236364
v 0.108333 0.000000 2.260690
v 0.108333 0.000000 0.236364
v 0.098104 0.150000 2.458525
v 0.098104 0.150000 0.038528
v 0.098104 0.000000 2.458525
v 0.098104 0.000000 0.038528
v 0.080102 0.150000 2.444192
v 0.080102 0.150000 0.052862
v 0.080102 0.000000 2.444192
v 0.080102 0.000000 0.052862
v 0.063460 0.150000 2.427824
v 0.063460 0.150000 0.069229
v 0.063460 0.000000 2.427824
v 0.063460 0.000000 0.069229
v 0.048457 0.150000 2.409670
v 0.048457 0.150000 0.087384
v 0.048457 0.000000 2.409670
v 0.048457 0.000000 0.087384
v 0.035317 0.150000 2.390031
v 0.035317 0.150000 0.107023
v 0.035317 0.000000 2.390031
v 0.035317 0.000000 0.107023
v 0.024205 0.150000 2.369251
v 0.024205 0.150000 0.127803
v 0.024205 0.000000 2.369251
v 0.024205 0.000000 0.127803
v 0.015213 0.150000 2.347694
v 0.015213 0.150000 0.149359
v 0.015213 0.000000 2.347694
v 0.015213 0.000000 0.149359
v 0.008363 0.150000 2.325727
v 0.008363 0.150000 0.171326
v 0.008363 0.000000 2.325727
v 0.008363 0.000000 0.171326
v 0.003617 0.150000 2.303699
v 0.003617 0.150000 0.193354
v 0.003617 0.000000 2.303699
v 0.003617 0.000000 0.193354
v 0.000876 0.150000 2.281929
v 0.000876 0.150000 0.215125
v 0.000876 0.000000 2.281929
v 0.000876 0.000000 0.215125
v 0.000000 0.150000 2.260690
v 0.000000 0.150000 0.236364
v 0.000000 0.000000 2.260690
v 0.000000 0.000000 0.236364

vn 0.706973 0.707174 0.009719
vn 0.831687 0.554773 -0.022874
vn 0.706773 -0.707174 0.019438
vn 0.831923 -0.554773 -0.011437
vn 0.829857 0.555001 0.057544
vn 0.827920 0.555001 -0.080763
vn 0.827920 -0.555001 0.080764
vn 0.829857 -0.555001 -0.057544
vn 0.821962 0.555023 0.127778
vn 0.817910 0.555023 -0.151569
vn 0.817910 -0.555023 0.151569
vn 0.821962 -0.555023 -0.127777
vn 0.807537 0.555046 0.199518
vn 0.801184 0.555046 -0.223670
vn 0.801184 -0.555046 0.223669
vn 0.807537 -0.555046 -0.199519
vn 0.667891 0.707446 0.231175
vn 0.660401 0.707446 -0.251774
vn 0.660401 -0.707446 0.251773
vn 0.667890 -0.707446 -0.231176
vn 0.757050 0.555092 0.344598
vn 0.745647 0.555092 -0.368624
vn 0.745646 -0.555092 0.368625
vn 0.757050 -0.555092 -0.344598
vn 0.720204 0.555115 0.416118
vn 0.706136 0.555115 -0.439567
vn 0.706135 -0.555115 0.439568
vn 0.720204 -0.555115 -0.416117
vn 0.573817 0.707507 0.412514
vn 0.559595 0.707507 -0.431609
vn 0.559596 -0.707507 0.431608
vn 0.573817 -0.707507 -0.412514
vn 0.622571 0.555154 0.551552
vn 0.603242 0.555154 -0.572629
vn 0.603241 -0.555154 0.572630
vn 0.622571 -0.555154 -0.551552
vn 0.477654 0.707537 0.520805
vn 0.459183 0.707537 -0.537161
vn 0.459184 -0.707537 0.537161
vn 0.477655 -0.707537 -0.520804
vn 0.420441 0.707545 0.567987
vn 0.400164 0.707545 -0.582450
vn 0.400163 -0.707545 0.582451
vn 0.420441 -0.707545 -0.567987
vn -0.315699 0.948767 -0.013253
vn -0.393505 0.919257 0.011006
vn -0.997307 0.000000 -0.073336
vn -0.999120 0.000000 0.041941
vn -0.446759 -0.894567 -0.012495
vn -0.393043 -0.919257 0.022012
vn -0.504059 0.859242 -0.087340
vn -0.508076 0.858254 0.072518
vn -0.985449 0.000000 0.169974
vn -0.504059 -0.859242 -0.087340
vn -0.503012 -0.858254 0.101879
vn -0.555486 0.801102 -0.222869
vn -0.568236 0.801102 0.187997
vn -0.951386 0.000000 -0.308001
vn -0.939191 0.000000 0.343395
vn -0.418570 -0.895197 -0.153042
vn -0.555486 -0.801102 0.222869
vn 0.358136 0.707548 0.609192
vn 0.336384 0.707548 -0.621468
vn 0.336385 -0.707548 0.621467
vn 0.358137 -0.707548 -0.609192
vn -0.592279 0.708627 -0.383476
vn -0.616196 0.708627 0.343730
vn -0.856829 0.000000 -0.515601
vn -0.856828 0.000000 0.515602
vn -0.616196 -0.708627 -0.343731
vn -0.592279 -0.708627 0.383476
vn 0.343443 0.555175 0.757514
vn 0.316570 0.555175 -0.769132
vn 0.316570 -0.555175 0.769132
vn 0.343441 -0.555175 -0.757515
vn -0.502873 0.708768 -0.494739
vn -0.535674 0.708768 0.459022
vn -0.736533 0.000000 -0.676402
vn -0.736533 0.000000 0.676402
vn -0.535675 -0.708768 -0.459022
vn -0.502875 -0.708768 0.494738
vn 0.222672 0.707534 0.670681
vn 0.199208 0.707534 -0.678020
vn 0.199210 -0.707534 0.678020
vn 0.222672 -0.707534 -0.670681
vn -0.330039 0.801419 -0.498800
vn -0.364341 0.801419 0.474324
vn -0.580845 0.000000 -0.814014
vn -0.580845 0.000000 0.814014
vn -0.364340 -0.801419 -0.474324
vn -0.330038 -0.801419 0.498800
vn -0.257688 0.708847 -0.656607
vn -0.303227 0.708847 0.636859
vn -0.397856 0.000000 -0.917448
vn -0.357800 0.000000 0.933798
vn -0.303229 -0.708847 -0.636858
vn -0.219842 -0.833466 0.506955
vn 0.152104 0.707518 0.690132
vn 0.128466 0.707518 -0.694921
vn 0.128465 -0.707518 0.694921
vn 0.152104 -0.707518 -0.690132
vn -0.117760 0.708745 -0.695567
vn -0.141611 0.711626 0.688138
vn -0.200480 0.000000 -0.979698
vn -0.164938 -0.708745 -0.685913
vn -0.141611 -0.711626 0.688138
vn 0.081451 0.707497 0.702007
vn 0.058078 0.707497 -0.704326
vn 0.058081 -0.707497 0.704326
vn 0.081452 -0.707497 -0.702007
vn 0.027219 0.554803 0.831536
vn -0.019925 0.800318 -0.599244
vn -0.027632 0.832369 0.553533
vn 0.011563 0.707201 -0.706918
vn -0.049855 0.000000 -0.998756
vn -0.086963 0.000000 0.996212
vn 0.013610 -0.554803 0.831870
vn -0.039850 -0.800318 -0.598250
vn -0.023487 -0.707498 0.706325
vn 0.023126 -0.707201 -0.706634
vn -0.011565 0.707201 0.706918
vn 0.027631 0.832369 -0.553533
vn 0.019926 0.800318 0.599244
vn -0.027214 0.554803 -0.831537
vn 0.086962 0.000000 -0.996212
vn 0.049857 0.000000 0.998756
vn -0.023131 -0.707201 0.706634
vn 0.023486 -0.707498 -0.706325
vn 0.039852 -0.800318 0.598249
vn -0.013607 -0.554803 -0.831870
vn -0.058081 0.707497 0.704326
vn -0.081452 0.707497 -0.702007
vn -0.081451 -0.707497 0.702007
vn -0.058078 -0.707497 -0.704326
vn 0.141610 0.711627 -0.688138
vn 0.117761 0.708745 0.695567
vn 0.200481 0.000000 0.979698
vn 0.141610 -0.711626 -0.688138
vn 0.164939 -0.708745 0.685913
vn -0.128465 0.707518 0.694921
vn -0.152104 0.707518 -0.690132
vn -0.152104 -0.707518 0.690132
vn -0.128466 -0.707518 -0.694921
vn 0.303230 0.708847 -0.636857
vn 0.257687 0.708847 0.656607
vn 0.357803 0.000000 -0.933797
vn 0.397854 0.000000 0.917449
vn 0.219844 -0.833466 -0.506954
vn 0.303228 -0.708847 0.636859
vn 0.364339 0.801419 -0.474325
vn 0.330039 0.801419 0.498800
vn 0.580845 0.000000 -0.814014
vn 0.580845 0.000000 0.814014
vn 0.330040 -0.801419 -0.498800
vn 0.364340 -0.801419 0.474324
vn -0.199209 0.707534 0.678020
vn -0.222671 0.707534 -0.670681
vn -0.222671 -0.707534 0.670681
vn -0.199208 -0.707534 -0.678021
vn 0.535675 0.708768 -0.459021
vn 0.502874 0.708768 0.494738
vn 0.736533 0.000000 -0.676402
vn 0.736533 0.000000 0.676401
vn 0.502873 -0.708768 -0.494739
vn 0.535675 -0.708768 0.459021
vn -0.316569 0.555175 0.769132
vn -0.343441 0.555175 -0.757515
vn -0.343442 -0.555175 0.757514
vn -0.316569 -0.555175 -0.769132
vn 0.616195 0.708626 -0.343732
vn 0.592279 0.708627 0.383476
vn 0.856828 0.000000 -0.515602
vn 0.856828 0.000000 0.515602
vn 0.592280 -0.708626 -0.383475
vn 0.616196 -0.708627 0.343732
vn -0.336386 0.707548 0.621467
vn -0.358138 0.707548 -0.609191
vn -0.358137 -0.707548 0.609191
vn -0.336385 -0.707548 -0.621467
vn 0.568236 0.801102 -0.187998
vn 0.555485 0.801102 0.222870
vn 0.939190 0.000000 -0.343398
vn 0.951386 0.000000 0.308002
vn 0.555485 -0.801102 -0.222871
vn 0.418570 -0.895197 0.153042
vn 0.508076 0.858254 -0.072518
vn 0.504059 0.859242 0.087340
vn 0.985449 0.000000 -0.169974
vn 0.503012 -0.858254 -0.101878
vn 0.504059 -0.859242 0.087340
vn 0.393505 0.919257 -0.011006
vn 0.315699 0.948767 0.013252
vn 0.999120 0.000000 -0.041941
vn 0.997307 0.000000 0.073336
vn 0.393043 -0.919257 -0.022012
vn 0.446759 -0.894567 0.012495
vn -0.400164 0.707545 0.582450
vn -0.420441 0.707545 -0.567987
vn -0.420441 -0.707545 0.567986
vn -0.400165 -0.707545 -0.582450
vn -0.459184 0.707537 0.537161
vn -0.477655 0.707537 -0.520804
vn -0.477654 -0.707537 0.520805
vn -0.459183 -0.707537 -0.537161
vn -0.603240 0.555154 0.572631
vn -0.622570 0.555154 -0.551553
vn -0.622570 -0.555154 0.551553
vn -0.603241 -0.555154 -0.572630
vn -0.559595 0.707507 0.431610
vn -0.573816 0.707508 -0.412514
vn -0.573816 -0.707507 0.412515
vn -0.559594 -0.707508 -0.431610
vn -0.706135 0.555115 0.439568
vn -0.720204 0.555115 -0.416117
vn -0.720204 -0.555115 0.416118
vn -0.706136 -0.555115 -0.439567
vn -0.745647 0.555092 0.368623
vn -0.757051 0.555092 -0.344596
vn -0.757051 -0.555092 0.344596
vn -0.745647 -0.555092 -0.368623
vn -0.660402 0.707446 0.251771
vn -0.667891 0.707446 -0.231174
vn -0.667891 -0.707446 0.231174
vn -0.660402 -0.707446 -0.251772
vn -0.801184 0.555046 0.223670
vn -0.807536 0.555046 -0.199521
vn -0.807537 -0.555046 0.199521
vn -0.801184 -0.555046 -0.223671
vn -0.817909 0.555023 0.151570
vn -0.821963 0.555023 -0.127776
vn -0.821963 -0.555023 0.127776
vn -0.817909 -0.555023 -0.151570
vn -0.827920 0.555001 0.080761
vn -0.829857 0.555001 -0.057543
vn -0.829857 -0.555001 0.057543
vn -0.827920 -0.555001 -0.080760
vn -0.831687 0.554773 0.022874
vn -0.706973 0.707174 -0.009719
vn -0.831923 -0.554773 0.011437
vn -0.706773 -0.707174 -0.019438

f 8//8 6//6 2//2
f 16//16 14//14 10//10
f 12//12 10//10 6//6
f 24//24 22//22 18//18
f 32//32 30//30 26//26
f 28//28 26//26 22//22
f 20//20 18//18 14//14
f 36//36 34//34 30//30
f 44//44 42//42 38//38
f 75//75 73//73 63//63
f 65//65 63//63 42//42
f 101//101 99//99 83//83
f 120//120 114//114 108//108
f 110//110 108//108 99//99
f 85//85 83//83 73//73
f 40//40 38//38 34//34
f 114//114 120//120 130//130
f 134//134 132//132 124//124
f 159//159 157//157 141//141
f 143//143 141//141 132//132
f 179//179 177//177 167//167
f 204//204 202//202 198//198
f 200//200 198//198 177//177
f 169//169 167//167 157//157
f 208//208 206//206 202//202
f 216//216 214//214 210//210
f 224//224 222//222 218//218
f 220//220 218//218 214//214
f 232//232 230//230 226//226
f 240//240 238//238 234//234
f 236//236 234//234 230//230
f 228//228 226//226 222//222
f 212//212 210//210 206//206
f 238//238 240//240 239//239
f 235//235 233//233 237//237
f 227//227 225//225 229//229
f 231//231 229//229 233//233
f 219//219 217//217 221//221
f 211//211 209//209 213//213
f 215//215 213//213 217//217
f 223//223 221//221 225//225
f 207//207 205//205 209//209
f 199//199 197//197 201//201
f 168//168 166//166 176//176
f 178//178 176//176 197//197
f 142//142 140//140 156//156
f 127//127 121//121 131//131
f 133//133 131//131 140//140
f 158//158 156//156 166//166
f 203//203 201//201 205//205
f 121//121 127//127 117//117
f 109//109 107//107 111//111
f 84//84 82//82 98//98
f 100//100 98//98 107//107
f 64//64 62//62 72//72
f 39//39 37//37 41//41
f 43//43 41//41 62//62
f 74//74 72//72 82//82
f 35//35 33//33 37//37
f 27//27 25//25 29//29
f 19//19 17//17 21//21
f 23//23 21//21 25//25
f 11//11 9//9 13//13
f 3//3 1//1 5//5
f 7//7 5//5 9//9
f 15//15 13//13 17//17
f 31//31 29//29 33//33
f 1//1 3//3 4//4
f 48//48 50//50 49//49
f 46//46 48//48 47//47
f 47//47 49//49 54//54
f 54//54 58//58 47//47
f 60//60 58//58 54//54
f 70//70 68//68 58//58
f 80//80 78//78 68//68
f 45//45 47//47 51//51
f 58//58 51//51 47//47
f 56//56 51//51 58//58
f 66//66 68//68 78//78
f 68//68 66//66 56//56
f 78//78 80//80 90//90
f 88//88 90//90 96//96
f 76//76 78//78 88//88
f 105//105 104//104 94//94
f 118//118 115//115 104//104
f 94//94 92//92 86//86
f 115//115 112//112 102//102
f 104//104 102//102 92//92
f 115//115 118//118 128//128
f 112//112 115//115 125//125
f 125//125 128//128 138//138
f 146//146 125//125 138//138
f 154//154 152//152 146//146
f 164//164 162//162 152//152
f 122//122 125//125 135//135
f 125//125 146//146 135//135
f 150//150 152//152 162//162
f 152//152 150//150 144//144
f 162//162 164//164 174//174
f 172//172 174//174 184//184
f 160//160 162//162 172//172
f 189//189 188//188 182//182
f 195//195 193//193 188//188
f 182//182 180//180 170//170
f 193//193 191//191 186//186
f 188//188 186//186 180//180
f 193//193 195//195 196//196
f 191//191 193//193 194//194
f 194//194 196//196 190//190
f 190//190 183//183 194//194
f 185//185 183//183 190//190
f 175//175 173//173 183//183
f 165//165 163//163 173//173
f 192//192 194//194 187//187
f 183//183 187//187 194//194
f 181//181 187//187 183//183
f 171//171 173//173 163//163
f 173//173 171//171 181//181
f 163//163 165//165 155//155
f 153//153 155//155 149//149
f 161//161 163//163 153//153
f 139//139 137//137 147//147
f 129//129 126//126 137//137
f 147//147 145//145 151//151
f 126//126 123//123 136//136
f 137//137 136//136 145//145
f 126//126 129//129 119//119
f 123//123 126//126 116//116
f 116//116 119//119 106//106
f 106//106 95//95 116//116
f 97//97 95//95 106//106
f 91//91 89//89 95//95
f 81//81 79//79 89//89
f 113//113 116//116 103//103
f 95//95 103//103 116//116
f 93//93 103//103 95//95
f 87//87 89//89 79//79
f 89//89 87//87 93//93
f 79//79 81//81 71//71
f 69//69 71//71 61//61
f 77//77 79//79 69//69
f 55//55 53//53 59//59
f 50//50 48//48 53//53
f 59//59 57//57 67//67
f 48//48 46//46 52//52
f 53//53 52//52 57//57
f 28//28 24//24 55//55
f 28//28 55//55 32//32
f 32//32 61//61 36//36
f 61//61 32//32 55//55
f 36//36 61//61 40//40
f 8//8 4//4 50//50
f 12//12 8//8 50//50
f 50//50 20//20 16//16
f 20//20 50//50 55//55
f 55//55 24//24 20//20
f 12//12 50//50 16//16
f 50//50 4//4 3//3
f 71//71 44//44 40//40
f 75//75 65//65 91//91
f 75//75 91//91 85//85
f 110//110 101//101 106//106
f 97//97 101//101 85//85
f 120//120 110//110 119//119
f 71//71 40//40 61//61
f 81//81 44//44 71//71
f 110//110 106//106 119//119
f 85//85 91//91 97//97
f 101//101 97//97 106//106
f 91//91 65//65 81//81
f 81//81 65//65 44//44
f 11//11 49//49 7//7
f 3//3 7//7 49//49
f 49//49 15//15 19//19
f 11//11 15//15 49//49
f 54//54 49//49 19//19
f 19//19 23//23 54//54
f 23//23 27//27 54//54
f 27//27 31//31 54//54
f 35//35 60//60 31//31
f 35//35 39//39 60//60
f 43//43 70//70 39//39
f 31//31 60//60 54//54
f 43//43 64//64 80//80
f 70//70 43//43 80//80
f 100//100 105//105 96//96
f 84//84 96//96 90//90
f 64//64 90//90 80//80
f 74//74 84//84 90//90
f 90//90 64//64 74//74
f 100//100 109//109 105//105
f 96//96 84//84 100//100
f 118//118 109//109 117//117
f 118//118 117//117 127//127
f 109//109 118//118 105//105
f 60//60 39//39 70//70
f 129//129 130//130 120//120
f 130//130 129//129 134//134
f 134//134 139//139 143//143
f 169//169 159//159 155//155
f 149//149 159//159 143//143
f 179//179 169//169 155//155
f 134//134 129//129 139//139
f 143//143 139//139 149//149
f 179//179 155//155 165//165
f 175//175 185//185 204//204
f 200//200 165//165 175//175
f 155//155 159//159 149//149
f 179//179 165//165 200//200
f 208//208 204//204 185//185
f 212//212 208//208 185//185
f 216//216 212//212 190//190
f 185//185 190//190 212//212
f 220//220 216//216 190//190
f 196//196 224//224 190//190
f 220//220 190//190 224//224
f 228//228 224//224 196//196
f 232//232 196//196 236//236
f 236//236 196//196 240//240
f 228//228 196//196 232//232
f 195//195 239//239 240//240
f 200//200 175//175 204//204
f 158//158 154//154 148//148
f 142//142 148//148 138//138
f 174//174 164//164 199//199
f 199//199 164//164 178//178
f 178//178 164//164 154//154
f 127//127 133//133 128//128
f 133//133 138//138 128//128
f 158//158 148//148 142//142
f 133//133 142//142 138//138
f 154//154 158//158 168//168
f 168//168 178//178 154//154
f 203//203 184//184 174//174
f 195//195 189//189 223//223
f 231//231 195//195 227//227
f 227//227 195//195 223//223
f 231//231 235//235 195//195
f 239//239 195//195 235//235
f 184//184 203//203 207//207
f 203//203 174//174 199//199
f 189//189 215//215 219//219
f 215//215 189//189 211//211
f 211//211 184//184 207//207
f 189//189 219//219 223//223
f 184//184 211//211 189//189
f 26//26 52//52 22//22
f 26//26 30//30 52//52
f 30//30 34//34 57//57
f 57//57 52//52 30//30
f 34//34 38//38 57//57
f 6//6 46//46 2//2
f 10//10 46//46 6//6
f 46//46 14//14 18//18
f 18//18 52//52 46//46
f 52//52 18//18 22//22
f 10//10 14//14 46//46
f 46//46 45//45 1//1
f 67//67 38//38 42//42
f 73//73 87//87 63//63
f 73//73 83//83 87//87
f 108//108 103//103 99//99
f 93//93 83//83 99//99
f 114//114 113//113 108//108
f 67//67 57//57 38//38
f 77//77 67//67 42//42
f 108//108 113//113 103//103
f 83//83 93//93 87//87
f 99//99 103//103 93//93
f 87//87 77//77 63//63
f 77//77 42//42 63//63
f 9//9 5//5 45//45
f 1//1 45//45 5//5
f 45//45 17//17 13//13
f 9//9 45//45 13//13
f 51//51 17//17 45//45
f 17//17 51//51 21//21
f 21//21 51//51 25//25
f 25//25 51//51 29//29
f 33//33 29//29 56//56
f 33//33 56//56 37//37
f 41//41 37//37 66//66
f 29//29 51//51 56//56
f 41//41 76//76 62//62
f 66//66 76//76 41//41
f 98//98 92//92 102//102
f 82//82 86//86 92//92
f 62//62 76//76 86//86
f 72//72 86//86 82//82
f 86//86 72//72 62//62
f 98//98 102//102 107//107
f 92//92 98//98 82//82
f 112//112 111//111 107//107
f 112//112 122//122 121//121
f 107//107 102//102 112//112
f 56//56 66//66 37//37
f 123//123 113//113 114//114
f 124//124 132//132 123//123
f 132//132 141//141 136//136
f 167//167 151//151 157//157
f 145//145 141//141 157//157
f 177//177 151//151 167//167
f 132//132 136//136 123//123
f 141//141 145//145 136//136
f 177//177 161//161 151//151
f 171//171 202//202 181//181
f 198//198 171//171 161//161
f 151//151 145//145 157//157
f 177//177 198//198 161//161
f 206//206 181//181 202//202
f 210//210 181//181 206//206
f 214//214 187//187 210//210
f 181//181 210//210 187//187
f 218//218 187//187 214//214
f 192//192 187//187 222//222
f 218//218 222//222 187//187
f 226//226 192//192 222//222
f 230//230 234//234 192//192
f 234//234 238//238 192//192
f 226//226 230//230 192//192
f 191//191 192//192 238//238
f 198//198 202//202 171//171
f 156//156 144//144 150//150
f 140//140 135//135 144//144
f 170//170 197//197 160//160
f 197//197 176//176 160//160
f 176//176 150//150 160//160
f 121//121 122//122 131//131
f 131//131 122//122 135//135
f 156//156 140//140 144//144
f 131//131 135//135 140//140
f 150//150 166//166 156//156
f 166//166 150//150 176//176
f 201//201 170//170 180//180
f 191//191 221//221 186//186
f 229//229 225//225 191//191
f 225//225 221//221 191//191
f 229//229 191//191 233//233
f 237//237 233//233 191//191
f 180//180 205//205 201//201
f 201//201 197//197 170//170
f 186//186 217//217 213//213
f 213//213 209//209 186//186
f 209//209 205//205 180//180
f 186//186 221//221 217//217
f 180//180 186//186 209//209
f 8//8 2//2 4//4
f 16//16 10//10 12//12
f 12//12 6//6 8//8
f 24//24 18//18 20//20
f 32//32 26//26 28//28
f 28//28 22//22 24//24
f 20//20 14//14 16//16
f 36//36 30//30 32//32
f 44//44 38//38 40//40
f 75//75 63//63 65//65
f 65//65 42//42 44//44
f 101//101 83//83 85//85
f 120//120 108//108 110//110
f 110//110 99//99 101//101
f 85//85 73//73 75//75
f 40//40 34//34 36//36
f 114//114 130//130 124//124
f 134//134 124//124 130//130
f 159//159 141//141 143//143
f 143//143 132//132 134//134
f 179//179 167//167 169//169
f 204//204 198//198 200//200
f 200//200 177//177 179//179
f 169//169 157//157 159//159
f 208//208 202//202 204//204
f 216//216 210//210 212//212
f 224//224 218//218 220//220
f 220//220 214//214 216//216
f 232//232 226//226 228//228
f 240//240 234//234 236//236
f 236//236 230//230 232//232
f 228//228 222//222 224//224
f 212//212 206//206 208//208
f 238//238 239//239 237//237
f 235//235 237//237 239//239
f 227//227 229//229 231//231
f 231//231 233//233 235//235
f 219//219 221//221 223//223
f 211//211 213//213 215//215
f 215//215 217//217 219//219
f 223//223 225//225 227//227
f 207//207 209//209 211//211
f 199//199 201//201 203//203
f 168//168 176//176 178//178
f 178//178 197//197 199//199
f 142//142 156//156 158//158
f 127//127 131//131 133//133
f 133//133 140//140 142//142
f 158//158 166//166 168//168
f 203//203 205//205 207//207
f 121//121 117//117 111//111
f 109//109 111//111 117//117
f 84//84 98//98 100//100
f 100//100 107//107 109//109
f 64//64 72//72 74//74
f 39//39 41//41 43//43
f 43//43 62//62 64//64
f 74//74 82//82 84//84
f 35//35 37//37 39//39
f 27//27 29//29 31//31
f 19//19 21//21 23//23
f 23//23 25//25 27//27
f 11//11 13//13 15//15
f 3//3 5//5 7//7
f 7//7 9//9 11//11
f 15//15 17//17 19//19
f 31//31 33//33 35//35
f 1//1 4//4 2//2
f 48//48 49//49 47//47
f 46//46 47//47 45//45
f 70//70 58//58 60//60
f 80//80 68//68 70//70
f 66//66 78//78 76//76
f 68//68 56//56 58//58
f 78//78 90//90 88//88
f 88//88 96//96 94//94
f 76//76 88//88 86//86
f 105//105 94//94 96//96
f 118//118 104//104 105//105
f 94//94 86//86 88//88
f 115//115 102//102 104//104
f 104//104 92//92 94//94
f 115//115 128//128 125//125
f 112//112 125//125 122//122
f 146//146 138//138 148//148
f 154//154 146//146 148//148
f 164//164 152//152 154//154
f 146//146 144//144 135//135
f 150//150 162//162 160//160
f 152//152 144//144 146//146
f 162//162 174//174 172//172
f 172//172 184//184 182//182
f 160//160 172//172 170//170
f 189//189 182//182 184//184
f 195//195 188//188 189//189
f 182//182 170//170 172//172
f 193//193 186//186 188//188
f 188//188 180//180 182//182
f 193//193 196//196 194//194
f 191//191 194//194 192//192
f 175//175 183//183 185//185
f 165//165 173//173 175//175
f 171//171 163//163 161//161
f 173//173 181//181 183//183
f 163//163 155//155 153//153
f 153//153 149//149 147//147
f 161//161 153//153 151//151
f 139//139 147//147 149//149
f 129//129 137//137 139//139
f 147//147 151//151 153//153
f 126//126 136//136 137//137
f 137//137 145//145 147//147
f 126//126 119//119 116//116
f 123//123 116//116 113//113
f 91//91 95//95 97//97
f 81//81 89//89 91//91
f 87//87 79//79 77//77
f 89//89 93//93 95//95
f 79//79 71//71 69//69
f 69//69 61//61 59//59
f 77//77 69//69 67//67
f 55//55 59//59 61//61
f 50//50 53//53 55//55
f 59//59 67//67 69//69
f 48//48 52//52 53//53
f 53//53 57//57 59//59
f 50//50 3//3 49//49
f 118//118 127//127 128//128
f 129//129 120//120 119//119
f 195//195 240//240 196//196
f 46//46 1//1 2//2
f 112//112 121//121 111//111
f 123//123 114//114 124//124
f 191//191 238//238 237//237