# PHANTOM Module: COR10
# Units: meters
o COR10

v 1.300000 0.375742 2.260690
v 1.300000 0.375742 2.197430
v 1.300000 0.375742 2.134170
v 1.300000 0.375742 2.070910
v 1.300000 0.375742 2.007649
v 1.300000 0.375742 1.944389
v 1.300000 0.375742 1.881129
v 1.300000 0.375742 1.817869
v 1.300000 0.375742 1.754609
v 1.300000 0.375742 1.691348
v 1.300000 0.375742 1.628088
v 1.300000 0.375742 1.564828
v 1.300000 0.375742 1.501568
v 1.300000 0.375742 1.438308
v 1.300000 0.375742 1.375047
v 1.300000 0.375742 1.311787
v 1.300000 0.375742 1.248527
v 1.300000 0.375742 1.185267
v 1.300000 0.375742 1.122006
v 1.300000 0.375742 1.058746
v 1.300000 0.375742 0.995486
v 1.300000 0.375742 0.932226
v 1.300000 0.375742 0.868966
v 1.300000 0.375742 0.805705
v 1.300000 0.375742 0.742445
v 1.300000 0.375742 0.679185
v 1.300000 0.375742 0.615925
v 1.300000 0.375742 0.552665
v 1.300000 0.375742 0.489404
v 1.300000 0.375742 0.426144
v 1.300000 0.375742 0.362884
v 1.300000 0.375742 0.299624
v 1.300000 0.375742 0.236364
v 1.299123 0.375742 2.281929
v 1.299123 0.375742 0.215125
v 1.296383 0.375742 2.303699
v 1.296383 0.375742 0.193354
v 1.291636 0.375742 2.325727
v 1.291636 0.375742 0.171326
v 1.285915 0.266609 0.171326
v 1.285142 0.109665 0.215125
v 1.284787 0.375742 2.347694
v 1.284787 0.375742 0.149359
v 1.280250 0.000000 2.260690
v 1.280250 0.000000 2.197430
v 1.280250 0.000000 2.134170
v 1.280250 0.000000 2.070910
v 1.280250 0.000000 2.007649
v 1.280250 0.000000 1.944389
v 1.280250 0.000000 1.881129
v 1.280250 0.000000 1.817869
v 1.280250 0.000000 1.754609
v 1.280250 0.000000 1.691348
v 1.280250 0.000000 1.628088
v 1.280250 0.000000 1.564828
v 1.280250 0.000000 1.501568
v 1.280250 0.000000 1.438308
v 1.280250 0.000000 1.375047
v 1.280250 0.000000 1.311787
v 1.280250 0.000000 1.248527
v 1.280250 0.000000 1.185267
v 1.280250 0.000000 1.122006
v 1.280250 0.000000 1.058746
v 1.280250 0.000000 0.995486
v 1.280250 0.000000 0.932226
v 1.280250 0.000000 0.868966
v 1.280250 0.000000 0.805705
v 1.280250 0.000000 0.742445
v 1.280250 0.000000 0.679185
v 1.280250 0.000000 0.615925
v 1.280250 0.000000 0.552665
v 1.280250 0.000000 0.489404
v 1.280250 0.000000 0.426144
v 1.280250 0.000000 0.362884
v 1.280250 0.000000 0.299624
v 1.280250 0.000000 0.236364
v 1.279387 0.000153 2.281929
v 1.279387 0.000153 0.215125
v 1.276688 0.000628 2.303699
v 1.276688 0.000628 0.193354
v 1.275795 0.375742 2.369251
v 1.275795 0.375742 0.127803
v 1.272013 0.001451 2.325727
v 1.272013 0.001451 0.171326
v 1.265269 0.002642 2.347694
v 1.265269 0.002642 0.149359
v 1.264682 0.375742 2.390031
v 1.264682 0.375742 0.107023
v 1.256413 0.004204 2.369251
v 1.256413 0.004204 0.127803
v 1.251543 0.375742 2.409670
v 1.251543 0.375742 0.087384
v 1.251071 0.113901 0.107023
v 1.245469 0.006132 2.390031
v 1.245469 0.006132 0.107023
v 1.239226 0.007233 2.336273
v 1.238073 0.115519 2.409670
v 1.236540 0.375742 2.427824
v 1.236540 0.375742 0.069229
v 1.232529 0.008413 2.409670
v 1.232529 0.008413 0.087384
v 1.231532 0.008591 2.355000
v 1.223231 0.117363 0.069229
v 1.222025 0.010267 2.373052
v 1.219898 0.375742 2.444192
v 1.219898 0.375742 0.052862
v 1.219555 0.375742 0.222957
v 1.217825 0.375742 0.209213
v 1.217754 0.011019 2.427824
v 1.217754 0.011019 0.069229
v 1.214494 0.270241 2.444192
v 1.210784 0.012249 2.390113
v 1.204828 0.375742 0.167833
v 1.201895 0.375742 2.458525
v 1.201895 0.375742 0.038528
v 1.201365 0.013908 2.444192
v 1.201365 0.013908 0.052862
v 1.201027 0.013969 0.222957
v 1.197948 0.014511 2.405885
v 1.196571 0.271152 2.458525
v 1.191667 0.375742 2.260690
v 1.191667 0.375742 2.197430
v 1.191667 0.375742 2.134170
v 1.191667 0.375742 2.070910
v 1.191667 0.375742 2.007649
v 1.191667 0.375742 1.944389
v 1.191667 0.375742 1.881129
v 1.191667 0.375742 1.817869
v 1.191667 0.375742 1.754609
v 1.191667 0.375742 1.691348
v 1.191667 0.375742 1.628088
v 1.191667 0.375742 1.564828
v 1.191667 0.375742 1.501568
v 1.191667 0.375742 1.438308
v 1.191667 0.375742 1.375047
v 1.191667 0.375742 1.311787
v 1.191667 0.375742 1.248527
v 1.191667 0.375742 1.185267
v 1.191667 0.375742 1.122006
v 1.191667 0.375742 1.058746
v 1.191667 0.375742 0.995486
v 1.191667 0.375742 0.932226
v 1.191667 0.375742 0.868966
v 1.191667 0.375742 0.805705
v 1.191667 0.375742 0.742445
v 1.191667 0.375742 0.679185
v 1.191667 0.375742 0.615925
v 1.191667 0.375742 0.552665
v 1.191667 0.375742 0.489404
v 1.191667 0.375742 0.426144
v 1.191667 0.375742 0.362884
v 1.191667 0.375742 0.299624
v 1.191667 0.375742 0.236364
v 1.189858 0.375742 2.282195
v 1.189858 0.375742 0.214859
v 1.188960 0.121626 0.038528
v 1.188399 0.311317 2.260690
v 1.187485 0.375742 2.293209
v 1.187485 0.375742 0.203845
v 1.186595 0.311373 2.282195
v 1.186595 0.311373 0.214859
v 1.186332 0.375742 2.432556
v 1.184060 0.375742 2.304192
v 1.184060 0.375742 0.192862
v 1.183711 0.017023 2.420104
v 1.183636 0.017035 2.458525
v 1.183636 0.017035 0.038528
v 1.182847 0.375742 2.470648
v 1.182847 0.375742 0.026406
v 1.182615 0.197277 2.260690
v 1.182615 0.197277 2.007649
v 1.182615 0.197277 1.754609
v 1.182615 0.197277 1.501568
v 1.182615 0.197277 1.248527
v 1.182615 0.197277 0.995486
v 1.182615 0.197277 0.742445
v 1.182615 0.197277 0.489404
v 1.182615 0.197277 0.236364
v 1.180820 0.197433 2.282195
v 1.180813 0.311556 2.304192
v 1.180048 0.375742 2.366197
v 1.180048 0.375742 0.130857
v 1.179564 0.375742 2.314970
v 1.179564 0.375742 0.182083
v 1.176830 0.083237 2.260690
v 1.175066 0.197937 2.304192
v 1.175066 0.197937 0.192862
v 1.175044 0.083494 2.282195
v 1.175044 0.083494 0.214859
v 1.174008 0.375742 2.325360
v 1.174008 0.375742 0.171693
v 1.173562 0.018812 2.260690
v 1.173562 0.018812 2.197430
v 1.173562 0.018812 2.134170
v 1.173562 0.018812 2.070910
v 1.173562 0.018812 2.007649
v 1.173562 0.018812 1.944389
v 1.173562 0.018812 1.881129
v 1.173562 0.018812 1.817869
v 1.173562 0.018812 1.754609
v 1.173562 0.018812 1.691348
v 1.173562 0.018812 1.628088
v 1.173562 0.018812 1.564828
v 1.173562 0.018812 1.501568
v 1.173562 0.018812 1.438308
v 1.173562 0.018812 1.375047
v 1.173562 0.018812 1.311787
v 1.173562 0.018812 1.248527
v 1.173562 0.018812 1.185267
v 1.173562 0.018812 1.122006
v 1.173562 0.018812 1.058746
v 1.173562 0.018812 0.995486
v 1.173562 0.018812 0.932226
v 1.173562 0.018812 0.868966
v 1.173562 0.018812 0.805705
v 1.173562 0.018812 0.742445
v 1.173562 0.018812 0.679185
v 1.173562 0.018812 0.615925
v 1.173562 0.018812 0.552665
v 1.173562 0.018812 0.489404
v 1.173562 0.018812 0.426144
v 1.173562 0.018812 0.362884
v 1.173562 0.018812 0.299624
v 1.173562 0.018812 0.236364
v 1.171781 0.019125 2.282195
v 1.171781 0.019125 0.214859
v 1.170788 0.311871 2.325360
v 1.170788 0.311871 0.171693
v 1.170117 0.123968 2.470648
v 1.170117 0.123968 0.026406
v 1.169444 0.019537 2.293209
v 1.169444 0.019537 0.203845
v 1.169319 0.084320 2.304192
v 1.169319 0.084320 0.192862
v 1.167438 0.375742 2.335180
v 1.167438 0.375742 0.161874
v 1.166072 0.020132 2.304192
v 1.166072 0.020132 0.192862
v 1.165090 0.198811 2.325360
v 1.165090 0.198811 0.171693
v 1.164877 0.020344 2.470648
v 1.164877 0.020344 0.026406
v 1.163087 0.375742 2.480458
v 1.163087 0.375742 0.016595
v 1.161644 0.020914 2.314970
v 1.161644 0.020914 0.182083
v 1.159936 0.375742 2.344257
v 1.159936 0.375742 0.152796
v 1.159391 0.085751 2.325360
v 1.159391 0.085751 0.171693
v 1.156756 0.312311 2.344257
v 1.156172 0.021877 2.325360
v 1.156172 0.021877 0.171693
v 1.152618 0.375742 0.045444
v 1.151616 0.375742 2.352441
v 1.151616 0.375742 0.144613
v 1.151125 0.200031 2.344257
v 1.151125 0.200031 0.152796
v 1.150569 0.126400 0.016595
v 1.149702 0.023018 2.335180
v 1.149702 0.023018 0.161874
v 1.145495 0.087753 2.344257
v 1.145417 0.023775 2.480458
v 1.145417 0.023775 0.016595
v 1.142951 0.375742 2.487930
v 1.142951 0.375742 0.009124
v 1.142614 0.375742 2.359608
v 1.142614 0.375742 0.137446
v 1.142314 0.024321 2.344257
v 1.142314 0.024321 0.152796
v 1.139481 0.312855 2.359608
v 1.139481 0.312855 0.137446
v 1.135125 0.375742 0.038953
v 1.134120 0.025766 2.352441
v 1.134120 0.025766 0.144613
v 1.133935 0.201536 2.359608
v 1.133935 0.201536 0.137446
v 1.133679 0.375742 2.399423
v 1.133090 0.375742 2.365669
v 1.133090 0.375742 0.131385
v 1.130650 0.128876 2.487930
v 1.130650 0.128876 0.009124
v 1.128741 0.026714 0.103824
v 1.128389 0.090218 0.137446
v 1.125587 0.027271 2.487930
v 1.125587 0.027271 0.009124
v 1.125255 0.027328 2.359608
v 1.125255 0.027328 0.137446
v 1.123210 0.375742 2.370574
v 1.123210 0.375742 0.126480
v 1.122759 0.375742 2.493108
v 1.122759 0.375742 0.003946
v 1.120130 0.313463 2.370574
v 1.120130 0.313463 0.126480
v 1.116456 0.028881 2.399423
v 1.115876 0.028984 2.365669
v 1.115876 0.028984 0.131385
v 1.114678 0.203220 2.370574
v 1.114678 0.203220 0.126480
v 1.113142 0.375742 2.374310
v 1.113142 0.375742 0.122744
v 1.109226 0.092979 2.370574
v 1.109226 0.092979 0.126480
v 1.106146 0.030699 2.370574
v 1.106146 0.030699 0.126480
v 1.105701 0.030777 2.493108
v 1.105701 0.030777 0.003946
v 1.103046 0.375742 2.376899
v 1.103046 0.375742 0.120155
v 1.102802 0.375742 2.496098
v 1.102802 0.375742 0.000956
v 1.100021 0.314095 2.376899
v 1.097917 0.276169 0.000956
v 1.096231 0.032448 2.374310
v 1.096231 0.032448 0.122744
v 1.095623 0.375742 2.409296
v 1.094667 0.204971 2.376899
v 1.094667 0.204971 0.120155
v 1.093067 0.375742 2.378394
v 1.093067 0.375742 0.118660
v 1.090933 0.133816 2.496098
v 1.089313 0.095848 2.376899
v 1.089313 0.095848 0.120155
v 1.086288 0.034201 2.376899
v 1.086288 0.034201 0.120155
v 1.086048 0.034243 2.496098
v 1.086048 0.034243 0.000956
v 1.083531 0.034687 2.465196
v 1.083333 0.375742 2.497054
v 1.083333 0.375742 2.378872
v 1.083333 0.375742 0.118182
v 1.083333 0.375742 0.000000
v 1.078534 0.277155 0.000000
v 1.076461 0.035933 2.378394
v 1.076461 0.035933 0.118660
v 1.075104 0.206682 2.378872
v 1.075104 0.206682 0.118182
v 1.069846 0.098654 2.378872
v 1.066875 0.037624 2.497054
v 1.066875 0.037624 2.466027
v 1.066875 0.037624 2.378872
v 1.066875 0.037624 0.118182
v 1.066875 0.037624 0.000000
v 1.029167 0.375742 2.497054
v 1.029167 0.375742 2.378872
v 1.029167 0.375742 0.118182
v 1.029167 0.375742 0.000000
v 1.013531 0.047029 2.497054
v 1.013531 0.047029 2.378872
v 1.013531 0.047029 0.118182
v 1.013531 0.047029 0.000000
v 0.975000 0.375742 2.497054
v 0.975000 0.375742 2.378872
v 0.975000 0.375742 0.118182
v 0.975000 0.375742 0.000000
v 0.960187 0.056435 2.497054
v 0.960187 0.056435 2.378872
v 0.960187 0.056435 0.118182
v 0.960187 0.056435 0.000000
v 0.920833 0.375742 2.497054
v 0.920833 0.375742 2.378872
v 0.920833 0.375742 0.118182
v 0.920833 0.375742 0.000000
v 0.906844 0.065842 2.497054
v 0.906844 0.065842 2.378872
v 0.906844 0.065842 0.118182
v 0.906844 0.065842 0.000000
v 0.866667 0.375742 2.497054
v 0.866667 0.375742 2.378872
v 0.866667 0.375742 0.118182
v 0.866667 0.375742 0.000000
v 0.853500 0.075247 2.497054
v 0.853500 0.075247 2.378872
v 0.853500 0.075247 0.118182
v 0.853500 0.075247 0.000000
v 0.812500 0.375742 2.497054
v 0.812500 0.375742 2.378872
v 0.812500 0.375742 0.118182
v 0.812500 0.375742 0.000000
v 0.800156 0.084654 2.497054
v 0.800156 0.084654 2.378872
v 0.800156 0.084654 0.118182
v 0.800156 0.084654 0.000000
v 0.758333 0.375742 2.497054
v 0.758333 0.375742 2.378872
v 0.758333 0.375742 0.118182
v 0.758333 0.375742 0.000000
v 0.746812 0.094059 2.497054
v 0.746812 0.094059 2.378872
v 0.746812 0.094059 0.118182
v 0.746812 0.094059 0.000000
v 0.704167 0.375742 2.497054
v 0.704167 0.375742 2.378872
v 0.704167 0.375742 0.118182
v 0.704167 0.375742 0.000000
v 0.693469 0.103464 2.497054
v 0.693469 0.103464 2.378872
v 0.693469 0.103464 0.118182
v 0.693469 0.103464 0.000000
v 0.650000 0.375742 2.497054
v 0.650000 0.375742 2.378872
v 0.650000 0.375742 0.118182
v 0.650000 0.375742 0.000000
v 0.645062 0.244307 2.378872
v 0.645062 0.244307 0.118182
v 0.640125 0.112871 2.497054
v 0.640125 0.112871 2.378872
v 0.640125 0.112871 0.118182
v 0.640125 0.112871 0.000000
v 0.595833 0.375742 2.497054
v 0.595833 0.375742 2.378872
v 0.595833 0.375742 0.118182
v 0.595833 0.375742 0.000000
v 0.586781 0.122276 2.497054
v 0.586781 0.122276 2.378872
v 0.586781 0.122276 0.118182
v 0.586781 0.122276 0.000000
v 0.541667 0.375742 2.497054
v 0.541667 0.375742 2.378872
v 0.541667 0.375742 0.118182
v 0.541667 0.375742 0.000000
v 0.533437 0.131683 2.497054
v 0.533437 0.131683 2.378872
v 0.533437 0.131683 0.118182
v 0.533437 0.131683 0.000000
v 0.487500 0.375742 2.497054
v 0.487500 0.375742 2.378872
v 0.487500 0.375742 0.118182
v 0.487500 0.375742 0.000000
v 0.480094 0.141088 2.497054
v 0.480094 0.141088 2.378872
v 0.480094 0.141088 0.118182
v 0.480094 0.141088 0.000000
v 0.433333 0.375742 2.497054
v 0.433333 0.375742 2.378872
v 0.433333 0.375742 0.118182
v 0.433333 0.375742 0.000000
v 0.426750 0.150496 2.497054
v 0.426750 0.150496 2.378872
v 0.426750 0.150496 0.118182
v 0.426750 0.150496 0.000000
v 0.379167 0.375742 2.497054
v 0.379167 0.375742 2.378872
v 0.379167 0.375742 0.118182
v 0.379167 0.375742 0.000000
v 0.373406 0.159901 2.497054
v 0.373406 0.159901 2.378872
v 0.373406 0.159901 0.118182
v 0.373406 0.159901 0.000000
v 0.325000 0.375742 2.497054
v 0.325000 0.375742 2.378872
v 0.325000 0.375742 0.118182
v 0.325000 0.375742 0.000000
v 0.320062 0.169306 2.497054
v 0.320062 0.169306 2.378872
v 0.320062 0.169306 0.118182
v 0.320062 0.169306 0.000000
v 0.270833 0.375742 2.497054
v 0.270833 0.375742 2.378872
v 0.270833 0.375742 0.118182
v 0.270833 0.375742 0.000000
v 0.266719 0.178713 2.497054
v 0.266719 0.178713 2.378872
v 0.266719 0.178713 0.118182
v 0.266719 0.178713 0.000000
v 0.216666 0.375742 2.497054
v 0.216666 0.375742 2.378872
v 0.216666 0.375742 0.118182
v 0.216666 0.375742 0.000000
v 0.215021 0.281931 2.378872
v 0.215021 0.281931 0.118182
v 0.213375 0.188118 2.497054
v 0.213375 0.188118 2.466027
v 0.213375 0.188118 2.378872
v 0.213375 0.188118 0.118182
v 0.213375 0.188118 0.000000
v 0.206932 0.375742 2.378394
v 0.206932 0.375742 0.118660
v 0.203789 0.189810 2.378394
v 0.203789 0.189810 0.118660
v 0.197198 0.375742 2.496098
v 0.197198 0.375742 0.000956
v 0.196954 0.375742 2.376899
v 0.196954 0.375742 0.120155
v 0.196719 0.191055 2.465196
v 0.196414 0.342495 2.376899
v 0.196414 0.342495 0.120155
v 0.196325 0.322021 0.000956
v 0.195458 0.283642 2.376899
v 0.195458 0.283642 0.120155
v 0.194502 0.224791 2.376899
v 0.194502 0.224791 0.120155
v 0.194202 0.191500 2.496098
v 0.194202 0.191500 0.000956
v 0.193962 0.191542 2.376899
v 0.193962 0.191542 0.120155
v 0.191779 0.375742 2.407408
v 0.186858 0.375742 2.374310
v 0.186858 0.375742 0.122744
v 0.184019 0.193295 2.374310
v 0.184019 0.193295 0.122744
v 0.177241 0.375742 2.493108
v 0.177241 0.375742 0.003946
v 0.176790 0.375742 2.370574
v 0.176790 0.375742 0.126480
v 0.176305 0.343126 2.370574
v 0.176305 0.343126 0.126480
v 0.175447 0.285393 2.370574
v 0.175447 0.285393 0.126480
v 0.175334 0.247675 0.003946
v 0.174589 0.227659 2.370574
v 0.174589 0.227659 0.126480
v 0.174549 0.194965 2.493108
v 0.174549 0.194965 0.003946
v 0.174104 0.195044 2.370574
v 0.174104 0.195044 0.126480
v 0.166910 0.375742 2.365669
v 0.166910 0.375742 0.131385
v 0.164374 0.196758 2.365669
v 0.164374 0.196758 0.131385
v 0.163794 0.196861 0.097631
v 0.162370 0.197113 2.458101
v 0.157386 0.375742 2.359608
v 0.157386 0.375742 0.137446
v 0.157049 0.375742 2.487930
v 0.157049 0.375742 0.009124
v 0.156954 0.343735 2.359608
v 0.156954 0.343735 0.137446
v 0.156190 0.287077 2.359608
v 0.156190 0.287077 0.137446
v 0.155426 0.230421 2.359608
v 0.155426 0.230421 0.137446
v 0.154994 0.198412 2.359608
v 0.154994 0.198412 0.137446
v 0.154663 0.198471 2.487930
v 0.154663 0.198471 0.009124
v 0.153847 0.375742 2.393230
v 0.148384 0.375742 2.352441
v 0.148384 0.375742 0.144613
v 0.147382 0.375742 2.451610
v 0.146130 0.199976 2.352441
v 0.146130 0.199976 0.144613
v 0.140063 0.375742 2.344257
v 0.140063 0.375742 0.152796
v 0.139668 0.201115 2.385577
v 0.138999 0.288582 2.344257
v 0.138999 0.288582 0.152796
v 0.137935 0.201420 2.344257
v 0.137935 0.201420 0.152796
v 0.136913 0.375742 2.480458
v 0.136913 0.375742 0.016595
v 0.135439 0.252636 2.480458
v 0.135439 0.252636 0.016595
v 0.134833 0.201967 2.480458
v 0.134833 0.201967 0.016595
v 0.132562 0.375742 2.335180
v 0.132562 0.375742 0.161874
v 0.130548 0.202723 2.335180
v 0.130548 0.202723 0.161874
v 0.125992 0.375742 2.325360
v 0.125992 0.375742 0.171693
v 0.125647 0.344719 2.325360
v 0.125647 0.344719 0.171693
v 0.125035 0.289803 2.325360
v 0.125035 0.289803 0.171693
v 0.124424 0.234888 2.325360
v 0.124424 0.234888 0.171693
v 0.124078 0.203863 2.325360
v 0.124078 0.203863 0.171693
v 0.120436 0.375742 2.314970
v 0.120436 0.375742 0.182083
v 0.118606 0.204828 2.314970
v 0.118606 0.204828 0.182083
v 0.117153 0.375742 2.470648
v 0.117153 0.375742 0.026406
v 0.115939 0.375742 2.304192
v 0.115939 0.375742 0.192862
v 0.115892 0.255068 2.470648
v 0.115622 0.345034 2.304192
v 0.115622 0.345034 0.192862
v 0.115373 0.205399 2.470648
v 0.115373 0.205399 0.026406
v 0.115059 0.290676 2.304192
v 0.115059 0.290676 0.192862
v 0.114496 0.236319 2.304192
v 0.114178 0.205610 2.304192
v 0.114178 0.205610 0.192862
v 0.112515 0.375742 2.293209
v 0.112515 0.375742 0.203845
v 0.110806 0.206203 2.293209
v 0.110806 0.206203 0.203845
v 0.110142 0.375742 2.282195
v 0.110142 0.375742 0.214859
v 0.109840 0.345215 2.282195
v 0.109840 0.345215 0.214859
v 0.109305 0.291180 2.282195
v 0.109305 0.291180 0.214859
v 0.108771 0.237143 2.282195
v 0.108771 0.237143 0.214859
v 0.108469 0.206615 2.282195
v 0.108469 0.206615 0.214859
v 0.108333 0.375742 2.260690
v 0.108333 0.375742 2.197430
v 0.108333 0.375742 2.134170
v 0.108333 0.375742 2.070910
v 0.108333 0.375742 2.007649
v 0.108333 0.375742 1.944389
v 0.108333 0.375742 1.881129
v 0.108333 0.375742 1.817869
v 0.108333 0.375742 1.754609
v 0.108333 0.375742 1.691348
v 0.108333 0.375742 1.628088
v 0.108333 0.375742 1.564828
v 0.108333 0.375742 1.501568
v 0.108333 0.375742 1.438308
v 0.108333 0.375742 1.375047
v 0.108333 0.375742 1.311787
v 0.108333 0.375742 1.248527
v 0.108333 0.375742 1.185267
v 0.108333 0.375742 1.122006
v 0.108333 0.375742 1.058746
v 0.108333 0.375742 0.995486
v 0.108333 0.375742 0.932226
v 0.108333 0.375742 0.868966
v 0.108333 0.375742 0.805705
v 0.108333 0.375742 0.742445
v 0.108333 0.375742 0.679185
v 0.108333 0.375742 0.615925
v 0.108333 0.375742 0.552665
v 0.108333 0.375742 0.489404
v 0.108333 0.375742 0.426144
v 0.108333 0.375742 0.362884
v 0.108333 0.375742 0.299624
v 0.108333 0.375742 0.236364
v 0.108036 0.345272 2.260690
v 0.108036 0.345272 0.236364
v 0.107510 0.291336 2.260690
v 0.107510 0.291336 2.007649
v 0.107510 0.291336 1.754609
v 0.107510 0.291336 1.501568
v 0.107510 0.291336 1.248527
v 0.107510 0.291336 0.995486
v 0.107510 0.291336 0.742445
v 0.107510 0.291336 0.489404
v 0.107510 0.291336 0.236364
v 0.106984 0.237400 2.260690
v 0.106984 0.237400 0.236364
v 0.106687 0.206930 2.260690
v 0.106687 0.206930 2.197430
v 0.106687 0.206930 2.134170
v 0.106687 0.206930 2.070910
v 0.106687 0.206930 2.007649
v 0.106687 0.206930 1.944389
v 0.106687 0.206930 1.881129
v 0.106687 0.206930 1.817869
v 0.106687 0.206930 1.754609
v 0.106687 0.206930 1.691348
v 0.106687 0.206930 1.628088
v 0.106687 0.206930 1.564828
v 0.106687 0.206930 1.501568
v 0.106687 0.206930 1.438308
v 0.106687 0.206930 1.375047
v 0.106687 0.206930 1.311787
v 0.106687 0.206930 1.248527
v 0.106687 0.206930 1.185267
v 0.106687 0.206930 1.122006
v 0.106687 0.206930 1.058746
v 0.106687 0.206930 0.995486
v 0.106687 0.206930 0.932226
v 0.106687 0.206930 0.868966
v 0.106687 0.206930 0.805705
v 0.106687 0.206930 0.742445
v 0.106687 0.206930 0.679185
v 0.106687 0.206930 0.615925
v 0.106687 0.206930 0.552665
v 0.106687 0.206930 0.489404
v 0.106687 0.206930 0.426144
v 0.106687 0.206930 0.362884
v 0.106687 0.206930 0.299624
v 0.106687 0.206930 0.236364
v 0.098104 0.375742 2.458525
v 0.098104 0.375742 0.038528
v 0.098029 0.375742 2.420104
v 0.097049 0.257410 0.038528
v 0.096614 0.208706 2.458525
v 0.096614 0.208706 0.038528
v 0.085171 0.375742 2.301746
v 0.082302 0.211231 0.091169
v 0.080927 0.211473 2.287841
v 0.080445 0.375742 2.274097
v 0.080445 0.375742 0.222957
v 0.080102 0.375742 2.444192
v 0.080102 0.375742 0.052862
v 0.079747 0.327950 0.052862
v 0.079223 0.211773 0.222957
v 0.078885 0.211832 2.444192
v 0.078885 0.211832 0.052862
v 0.063460 0.375742 2.427824
v 0.063460 0.375742 0.069229
v 0.062496 0.214722 2.427824
v 0.062496 0.214722 0.069229
v 0.048457 0.375742 2.409670
v 0.048457 0.375742 0.087384
v 0.047720 0.217327 2.409670
v 0.047720 0.217327 0.087384
v 0.041657 0.375742 2.336273
v 0.041024 0.218508 0.160780
v 0.035317 0.375742 2.390031
v 0.035317 0.375742 0.107023
v 0.034781 0.219610 2.390031
v 0.034781 0.219610 0.107023
v 0.031584 0.375742 2.298054
v 0.028441 0.375742 2.260690
v 0.024205 0.375742 2.369251
v 0.024205 0.375742 0.127803
v 0.023837 0.221539 2.369251
v 0.023837 0.221539 0.127803
v 0.015213 0.375742 2.347694
v 0.015213 0.375742 0.149359
v 0.014981 0.223101 2.347694
v 0.014981 0.223101 0.149359
v 0.008363 0.375742 2.325727
v 0.008363 0.375742 0.171326
v 0.008236 0.224291 2.325727
v 0.008236 0.224291 0.171326
v 0.003617 0.375742 2.303699
v 0.003617 0.375742 0.193354
v 0.003562 0.225115 2.303699
v 0.003562 0.225115 0.193354
v 0.000876 0.375742 2.281929
v 0.000876 0.375742 0.215125
v 0.000872 0.331963 0.215125
v 0.000863 0.225590 2.281929
v 0.000863 0.225590 0.215125
v 0.000000 0.375742 2.260690
v 0.000000 0.375742 2.197430
v 0.000000 0.375742 2.134170
v 0.000000 0.375742 2.070910
v 0.000000 0.375742 2.007649
v 0.000000 0.375742 1.944389
v 0.000000 0.375742 1.881129
v 0.000000 0.375742 1.817869
v 0.000000 0.375742 1.754609
v 0.000000 0.375742 1.691348
v 0.000000 0.375742 1.628088
v 0.000000 0.375742 1.564828
v 0.000000 0.375742 1.501568
v 0.000000 0.375742 1.438308
v 0.000000 0.375742 1.375047
v 0.000000 0.375742 1.311787
v 0.000000 0.375742 1.248527
v 0.000000 0.375742 1.185267
v 0.000000 0.375742 1.122006
v 0.000000 0.375742 1.058746
v 0.000000 0.375742 0.995486
v 0.000000 0.375742 0.932226
v 0.000000 0.375742 0.868966
v 0.000000 0.375742 0.805705
v 0.000000 0.375742 0.742445
v 0.000000 0.375742 0.679185
v 0.000000 0.375742 0.615925
v 0.000000 0.375742 0.552665
v 0.000000 0.375742 0.489404
v 0.000000 0.375742 0.426144
v 0.000000 0.375742 0.362884
v 0.000000 0.375742 0.299624
v 0.000000 0.375742 0.236364
v 0.000000 0.225742 2.260690
v 0.000000 0.225742 2.197430
v 0.000000 0.225742 2.134170
v 0.000000 0.225742 2.070910
v 0.000000 0.225742 2.007649
v 0.000000 0.225742 1.944389
v 0.000000 0.225742 1.881129
v 0.000000 0.225742 1.817869
v 0.000000 0.225742 1.754609
v 0.000000 0.225742 1.691348
v 0.000000 0.225742 1.628088
v 0.000000 0.225742 1.564828
v 0.000000 0.225742 1.501568
v 0.000000 0.225742 1.438308
v 0.000000 0.225742 1.375047
v 0.000000 0.225742 1.311787
v 0.000000 0.225742 1.248527
v 0.000000 0.225742 1.185267
v 0.000000 0.225742 1.122006
v 0.000000 0.225742 1.058746
v 0.000000 0.225742 0.995486
v 0.000000 0.225742 0.932226
v 0.000000 0.225742 0.868966
v 0.000000 0.225742 0.805705
v 0.000000 0.225742 0.742445
v 0.000000 0.225742 0.679185
v 0.000000 0.225742 0.615925
v 0.000000 0.225742 0.552665
v 0.000000 0.225742 0.489404
v 0.000000 0.225742 0.426144
v 0.000000 0.225742 0.362884
v 0.000000 0.225742 0.299624
v 0.000000 0.225742 0.236364

vn 0.725079 0.688379 0.019881
vn 0.725427 0.688299 0.000000
vn 0.725427 0.688299 0.000000
vn 0.725427 0.688299 0.000000
vn 0.725427 0.688299 0.000000
vn 0.725427 0.688299 0.000000
vn 0.725427 0.688299 0.000000
vn 0.725427 0.688299 0.000000
vn 0.725427 0.688299 0.000000
vn 0.725427 0.688299 0.000000
vn 0.725427 0.688299 0.000000
vn 0.725427 0.688299 0.000000
vn 0.725427 0.688299 0.000000
vn 0.725427 0.688299 0.000000
vn 0.725427 0.688299 0.000000
vn 0.725427 0.688299 0.000000
vn 0.725427 0.688299 0.000000
vn 0.725427 0.688299 0.000000
vn 0.725427 0.688299 0.000000
vn 0.725427 0.688299 0.000000
vn 0.725427 0.688299 0.000000
vn 0.725427 0.688299 0.000000
vn 0.725427 0.688299 0.000000
vn 0.725427 0.688299 0.000000
vn 0.725427 0.688299 0.000000
vn 0.725427 0.688299 0.000000
vn 0.725427 0.688299 0.000000
vn 0.725427 0.688299 0.000000
vn 0.725427 0.688299 0.000000
vn 0.725427 0.688299 0.000000
vn 0.725427 0.688299 0.000000
vn 0.725427 0.688299 0.000000
vn 0.819580 0.572717 -0.016867
vn 0.721644 0.688694 0.070214
vn 0.565500 0.823398 -0.047179
vn 0.712720 0.688961 0.131770
vn 0.838949 0.523648 -0.148177
vn 0.697822 0.689392 0.194379
vn 0.548350 0.823714 -0.144249
vn 0.958829 -0.052456 -0.279096
vn 0.993498 -0.052187 -0.101186
vn 0.676515 0.689996 0.257357
vn 0.683480 0.686375 -0.248485
vn 0.622297 -0.782714 0.010298
vn 0.622453 -0.782657 0.000000
vn 0.622453 -0.782657 0.000000
vn 0.622453 -0.782657 0.000000
vn 0.622453 -0.782657 0.000000
vn 0.622453 -0.782657 0.000000
vn 0.622453 -0.782657 0.000000
vn 0.622453 -0.782657 0.000000
vn 0.622453 -0.782657 0.000000
vn 0.622453 -0.782657 0.000000
vn 0.622453 -0.782657 0.000000
vn 0.622453 -0.782657 0.000000
vn 0.622453 -0.782657 0.000000
vn 0.622453 -0.782657 0.000000
vn 0.622453 -0.782657 0.000000
vn 0.622453 -0.782657 0.000000
vn 0.622453 -0.782657 0.000000
vn 0.622453 -0.782657 0.000000
vn 0.622453 -0.782657 0.000000
vn 0.622453 -0.782657 0.000000
vn 0.622453 -0.782657 0.000000
vn 0.622453 -0.782657 0.000000
vn 0.622453 -0.782657 0.000000
vn 0.622453 -0.782657 0.000000
vn 0.622453 -0.782657 0.000000
vn 0.622453 -0.782657 0.000000
vn 0.622453 -0.782657 0.000000
vn 0.622453 -0.782657 0.000000
vn 0.622453 -0.782657 0.000000
vn 0.622453 -0.782657 0.000000
vn 0.622453 -0.782657 0.000000
vn 0.622453 -0.782657 0.000000
vn 0.622076 -0.782686 -0.020611
vn 0.620237 -0.782701 0.051823
vn 0.619361 -0.782637 -0.062217
vn 0.612775 -0.781831 0.115096
vn 0.768120 -0.624311 -0.142223
vn 0.643551 0.690171 0.330918
vn 0.779231 0.521383 -0.347790
vn 0.752612 -0.623983 0.210287
vn 0.290447 -0.949510 -0.118626
vn 0.578928 -0.777829 0.244591
vn 0.572100 -0.773472 -0.272841
vn 0.485756 0.824084 0.291423
vn 0.484863 0.824802 -0.290879
vn 0.650790 -0.662459 0.370972
vn 0.378311 -0.891203 -0.250276
vn 0.578380 0.692766 0.430758
vn 0.680478 0.529878 -0.506142
vn 0.870660 -0.042267 -0.490066
vn 0.350747 -0.887228 0.299672
vn 0.348363 -0.888607 -0.298364
vn -0.173656 -0.984806 0.000036
vn 0.815019 -0.040775 0.577998
vn 0.620261 0.531746 0.576647
vn 0.530575 0.694062 -0.486588
vn 0.315200 -0.883907 0.345482
vn 0.469503 -0.763491 -0.443451
vn -0.173642 -0.984809 0.000012
vn 0.737621 -0.036335 -0.674236
vn -0.173643 -0.984809 -0.000014
vn 0.466910 0.695715 0.545872
vn 0.560828 0.534332 -0.632425
vn 0.000000 1.000000 0.000000
vn 0.000000 1.000000 0.000000
vn 0.422726 -0.758531 0.495916
vn 0.276580 -0.878417 -0.389727
vn 0.680200 -0.034870 0.732197
vn -0.173644 -0.984809 -0.000030
vn 0.000000 1.000000 0.000000
vn 0.416350 0.697098 0.583701
vn 0.344482 0.794140 -0.500674
vn 0.362089 -0.752401 0.550258
vn 0.363152 -0.750970 -0.551511
vn -0.173637 -0.984810 0.000019
vn -0.173667 -0.984804 0.000007
vn 0.581084 -0.029582 0.813305
vn -0.540683 0.840920 -0.022697
vn -0.541473 0.840718 0.000000
vn -0.780227 0.625497 -0.000000
vn -0.541473 0.840718 0.000000
vn -0.541473 0.840718 0.000000
vn -0.541473 0.840718 0.000000
vn -0.688964 0.724795 0.000000
vn -0.541473 0.840718 0.000000
vn -0.541473 0.840718 0.000000
vn -0.541473 0.840718 0.000000
vn -0.688964 0.724795 0.000000
vn -0.541473 0.840718 0.000000
vn -0.541473 0.840718 0.000000
vn -0.541473 0.840718 0.000000
vn -0.688964 0.724795 0.000000
vn -0.541473 0.840718 0.000000
vn -0.541473 0.840718 0.000000
vn -0.541473 0.840718 0.000000
vn -0.688964 0.724795 0.000000
vn -0.541473 0.840718 0.000000
vn -0.541473 0.840718 0.000000
vn -0.541473 0.840718 0.000000
vn -0.688964 0.724795 0.000000
vn -0.541473 0.840718 0.000000
vn -0.541473 0.840718 0.000000
vn -0.541473 0.840718 0.000000
vn -0.688964 0.724795 0.000000
vn -0.541473 0.840718 0.000000
vn -0.541473 0.840718 0.000000
vn -0.541473 0.840718 0.000000
vn -0.688964 0.724795 0.000000
vn -0.541473 0.840718 0.000000
vn -0.583994 0.811100 0.032687
vn -0.682977 0.725247 -0.086945
vn -0.534950 0.841107 0.079794
vn 0.600427 -0.029633 -0.799130
vn -0.997575 0.050590 -0.047804
vn -0.665738 0.725329 -0.175187
vn -0.663796 0.727247 0.174603
vn -0.980350 0.050998 -0.190562
vn -0.975434 0.053213 0.213769
vn 0.000000 1.000000 0.000000
vn -0.509297 0.840433 -0.185173
vn -0.640521 0.731533 0.233651
vn -0.173673 -0.984803 -0.000006
vn 0.456218 -0.481491 0.748352
vn 0.299979 -0.745139 -0.595634
vn 0.362878 0.698427 0.616862
vn 0.400718 0.541221 -0.739259
vn -0.998077 0.050619 -0.035765
vn -0.998716 0.050657 0.000000
vn -0.998716 0.050657 0.000000
vn -0.998716 0.050657 0.000000
vn -0.998716 0.050657 0.000000
vn -0.998716 0.050657 0.000000
vn -0.998716 0.050657 0.000000
vn -0.998716 0.050657 0.000000
vn -0.998329 0.050634 0.027832
vn -0.984320 0.049883 -0.169192
vn -0.933704 0.049600 -0.354594
vn 0.000000 1.000000 0.000000
vn 0.000000 1.000000 0.000000
vn -0.622894 0.724302 -0.295618
vn -0.620845 0.726435 0.294692
vn -0.997850 0.050609 -0.041652
vn -0.938494 0.047463 -0.342018
vn -0.933193 0.044024 0.356670
vn -0.985684 0.048639 -0.161433
vn -0.983409 0.048699 0.174744
vn -0.376325 0.898559 -0.225767
vn -0.592764 0.722614 0.355611
vn -0.661065 -0.750009 -0.021871
vn -0.661761 -0.749715 0.000000
vn -0.853944 -0.520366 0.000000
vn -0.661760 -0.749716 0.000000
vn -0.661760 -0.749716 0.000000
vn -0.661760 -0.749716 0.000000
vn -0.782085 -0.623171 0.000000
vn -0.661760 -0.749716 0.000000
vn -0.661760 -0.749716 0.000000
vn -0.661760 -0.749716 0.000000
vn -0.782085 -0.623171 0.000000
vn -0.661760 -0.749716 0.000000
vn -0.661760 -0.749716 0.000000
vn -0.661760 -0.749716 0.000000
vn -0.782085 -0.623171 0.000000
vn -0.661760 -0.749716 0.000000
vn -0.661760 -0.749716 0.000000
vn -0.661760 -0.749716 0.000000
vn -0.782085 -0.623171 0.000000
vn -0.661760 -0.749716 0.000000
vn -0.661760 -0.749716 0.000000
vn -0.661760 -0.749716 0.000000
vn -0.782085 -0.623171 0.000000
vn -0.661760 -0.749716 0.000000
vn -0.661760 -0.749716 0.000000
vn -0.661760 -0.749716 0.000000
vn -0.782085 -0.623171 0.000000
vn -0.661760 -0.749716 0.000000
vn -0.661760 -0.749716 0.000000
vn -0.661760 -0.749716 0.000000
vn -0.782085 -0.623171 0.000000
vn -0.661760 -0.749716 0.000000
vn -0.696865 -0.716510 0.031492
vn -0.693184 -0.717244 -0.071110
vn -0.774789 -0.624631 0.097657
vn -0.849055 0.045359 -0.526354
vn -0.854915 0.049866 0.516366
vn 0.473259 -0.022974 0.880624
vn 0.492826 -0.024923 -0.869771
vn -0.853446 -0.481564 -0.199314
vn -0.760803 -0.626683 0.168663
vn -0.943449 0.045353 -0.328401
vn -0.939115 0.044722 0.340681
vn -0.653616 0.579635 -0.486630
vn -0.434091 0.840865 0.323283
vn -0.744680 -0.627641 -0.226974
vn -0.632205 -0.753905 0.178728
vn -0.856760 0.043176 -0.513905
vn -0.856743 0.043182 0.513932
vn 0.132824 -0.858163 0.495897
vn 0.336686 -0.585461 -0.737481
vn 0.333815 0.542593 0.770818
vn 0.271855 0.700771 -0.659556
vn -0.721263 -0.631176 -0.285303
vn -0.721257 -0.631179 0.285309
vn -0.511084 0.720490 -0.468709
vn -0.595060 0.589990 0.545724
vn -0.864712 0.041022 -0.500589
vn -0.837090 0.037311 0.545791
vn -0.726411 0.039110 -0.686147
vn -0.591771 -0.759342 -0.270568
vn -0.591767 -0.759339 0.270584
vn 0.000000 1.000000 0.000000
vn -0.460093 0.720145 -0.519332
vn -0.458351 0.722471 0.517639
vn -0.750699 0.037686 -0.659569
vn -0.737129 0.036957 0.674741
vn 0.407629 -0.020496 -0.912918
vn -0.657678 -0.638314 -0.400019
vn -0.562578 -0.764924 0.313685
vn -0.710715 0.030615 -0.702813
vn 0.241810 -0.574522 0.781954
vn 0.284365 -0.468184 -0.836624
vn 0.212518 0.702321 0.679398
vn 0.212517 0.702321 -0.679398
vn -0.404356 0.717731 -0.566885
vn -0.256354 0.897284 0.359394
vn -0.531842 -0.767386 -0.358138
vn -0.611751 -0.651173 0.449148
vn -0.568538 0.031032 -0.822071
vn -0.613272 0.035607 0.789069
vn 0.000000 1.000000 0.000000
vn -0.493153 -0.774291 -0.396577
vn -0.437036 -0.840076 0.321359
vn -0.595911 0.033318 -0.802359
vn -0.564653 0.028096 0.824850
vn 0.000000 1.000000 0.000000
vn -0.342724 0.717104 -0.606879
vn -0.403768 0.570768 0.714979
vn 0.300498 -0.013399 0.953688
vn 0.287444 -0.014340 -0.957690
vn -0.173660 -0.984806 -0.000005
vn -0.629965 0.025810 0.776195
vn 0.022262 -0.842724 0.537885
vn -0.021530 -0.901344 -0.432568
vn -0.512727 -0.662215 -0.546427
vn -0.516401 -0.653025 0.553974
vn -0.277636 0.714489 -0.642202
vn -0.277639 0.714489 0.642201
vn 0.141399 0.703423 0.696565
vn 0.160385 0.548387 -0.820700
vn -0.383869 0.021602 -0.923135
vn -0.344976 0.026221 0.938245
vn -0.173660 -0.984806 -0.000001
vn -0.456774 -0.663020 -0.593095
vn -0.492953 -0.513689 0.702226
vn -0.398806 0.019734 -0.916823
vn -0.398803 0.019733 0.916824
vn -0.246513 0.565171 -0.787282
vn -0.163617 0.836450 0.523050
vn -0.454180 0.016975 -0.890748
vn -0.413398 0.017849 0.910376
vn -0.395045 -0.666507 -0.632224
vn -0.395051 -0.666497 0.632231
vn 0.071222 -0.559376 0.825849
vn 0.023839 -0.712499 -0.701268
vn -0.109532 0.834045 -0.540714
vn -0.137117 0.723314 0.676768
vn 0.069939 0.705835 0.704915
vn 0.044195 0.894219 -0.445444
vn -0.178577 0.012378 -0.983848
vn 0.111972 -0.005511 -0.993696
vn -0.340330 -0.526975 -0.778763
vn -0.328892 -0.674754 0.660709
vn 0.000000 1.000000 0.000000
vn -0.201029 0.009877 -0.979535
vn -0.213935 0.009686 0.976800
vn -0.069313 0.712121 -0.698626
vn -0.111547 0.611011 0.783724
vn 0.121153 -0.005086 0.992621
vn -0.215627 0.008173 -0.976442
vn -0.195259 0.006436 0.980731
vn -0.252344 -0.805069 -0.536830
vn -0.252334 -0.805070 0.536833
vn -0.090004 -0.827198 0.554656
vn -0.090038 -0.827186 -0.554668
vn -0.173663 -0.984805 -0.000006
vn 0.019687 0.599501 0.800132
vn -0.029647 0.801941 -0.596667
vn -0.013598 0.832331 0.554112
vn 0.023167 0.706636 -0.707198
vn 0.019665 -0.000957 -0.999806
vn -0.178344 -0.540975 -0.821912
vn -0.198543 -0.813775 0.546216
vn -0.023062 0.001126 -0.999733
vn -0.024934 0.001426 0.999688
vn -0.058509 0.001515 -0.998286
vn -0.069108 -0.548759 0.833119
vn -0.173658 -0.984806 -0.000003
vn -0.158012 -0.817644 -0.553616
vn -0.157888 -0.694682 0.701775
vn -0.099790 -0.699035 -0.708090
vn 0.000000 0.707107 0.707107
vn 0.000000 0.832050 -0.554700
vn 0.000000 0.832050 0.554700
vn 0.000000 0.600000 -0.800000
vn -0.122778 -0.696366 0.707107
vn -0.138907 -0.787848 -0.600000
vn -0.144472 -0.819412 0.554700
vn -0.122778 -0.696366 -0.707107
vn 0.000000 0.707107 0.707107
vn 0.000000 0.832050 -0.554700
vn 0.000000 0.832050 0.554700
vn 0.000000 0.707107 -0.707107
vn -0.122786 -0.696365 0.707107
vn -0.144491 -0.819408 -0.554700
vn -0.144481 -0.819410 0.554700
vn -0.122794 -0.696363 -0.707107
vn 0.000000 0.707107 0.707107
vn 0.000000 0.832050 -0.554700
vn 0.000000 0.832050 0.554700
vn 0.000000 0.707107 -0.707107
vn -0.122794 -0.696363 0.707107
vn -0.144481 -0.819410 -0.554700
vn -0.144491 -0.819408 0.554700
vn -0.122786 -0.696365 -0.707107
vn 0.000000 0.707107 0.707107
vn 0.000000 0.707107 -0.707107
vn 0.000000 0.707107 0.707107
vn 0.000000 0.707107 -0.707107
vn -0.122786 -0.696365 0.707107
vn -0.122794 -0.696363 -0.707107
vn -0.122786 -0.696365 0.707107
vn -0.122794 -0.696363 -0.707107
vn 0.000000 0.707107 0.707107
vn 0.000000 0.832050 -0.554700
vn 0.000000 0.832050 0.554700
vn 0.000000 0.707107 -0.707107
vn -0.122794 -0.696363 0.707107
vn -0.144481 -0.819410 -0.554700
vn -0.144491 -0.819408 0.554700
vn -0.122786 -0.696365 -0.707107
vn 0.000000 0.707107 0.707107
vn 0.000000 0.832050 -0.554700
vn 0.000000 0.832050 0.554700
vn 0.000000 0.707107 -0.707107
vn -0.122778 -0.696366 0.707107
vn -0.144472 -0.819412 -0.554700
vn -0.144472 -0.819412 0.554700
vn -0.122778 -0.696366 -0.707107
vn 0.000000 0.707107 0.707107
vn 0.000000 0.832050 -0.554700
vn 0.000000 0.832050 0.554700
vn 0.000000 0.707107 -0.707107
vn -0.122786 -0.696365 0.707107
vn -0.144491 -0.819408 -0.554700
vn -0.144482 -0.819410 0.554700
vn -0.122794 -0.696363 -0.707107
vn 0.000000 0.707107 0.707107
vn 0.000000 0.832050 -0.554700
vn 0.000000 0.832050 0.554700
vn 0.000000 0.707107 -0.707107
vn 0.000000 0.000000 -1.000000
vn 0.000000 0.000000 1.000000
vn -0.122794 -0.696363 0.707107
vn -0.144482 -0.819410 -0.554700
vn -0.144491 -0.819408 0.554700
vn -0.122786 -0.696365 -0.707107
vn 0.000000 0.707107 0.707107
vn 0.000000 0.832050 -0.554700
vn 0.000000 0.832050 0.554700
vn 0.000000 0.707107 -0.707107
vn -0.122786 -0.696365 0.707107
vn -0.144491 -0.819408 -0.554700
vn -0.144481 -0.819410 0.554700
vn -0.122794 -0.696363 -0.707107
vn 0.000000 0.707107 0.707107
vn 0.000000 0.832050 -0.554700
vn 0.000000 0.832050 0.554700
vn 0.000000 0.707107 -0.707107
vn -0.122794 -0.696363 0.707107
vn -0.144481 -0.819410 -0.554700
vn -0.144491 -0.819408 0.554700
vn -0.122786 -0.696365 -0.707107
vn 0.000000 0.707107 0.707107
vn 0.000000 0.832050 -0.554700
vn 0.000000 0.832050 0.554700
vn 0.000000 0.707107 -0.707107
vn -0.122786 -0.696365 0.707107
vn -0.144491 -0.819408 -0.554700
vn -0.144481 -0.819410 0.554700
vn -0.122794 -0.696363 -0.707107
vn 0.000000 0.707107 0.707107
vn 0.000000 0.707107 -0.707107
vn 0.000000 0.707107 0.707107
vn 0.000000 0.707107 -0.707107
vn -0.122794 -0.696363 0.707107
vn -0.122786 -0.696365 -0.707107
vn -0.122794 -0.696363 0.707107
vn -0.122786 -0.696365 -0.707107
vn 0.000000 0.707107 0.707107
vn 0.000000 0.832050 -0.554700
vn 0.000000 0.832050 0.554700
vn 0.000000 0.707107 -0.707107
vn -0.122778 -0.696366 0.707107
vn -0.144472 -0.819412 -0.554700
vn -0.144472 -0.819412 0.554700
vn -0.122778 -0.696366 -0.707107
vn 0.000000 0.707107 0.707107
vn 0.000000 0.832050 -0.554700
vn 0.000000 0.832050 0.554700
vn 0.000000 0.707107 -0.707107
vn -0.122786 -0.696365 0.707107
vn -0.144491 -0.819408 -0.554700
vn -0.144481 -0.819410 0.554700
vn -0.122794 -0.696363 -0.707107
vn 0.000000 0.707107 0.707107
vn 0.000000 0.832050 -0.554700
vn 0.000000 0.832050 0.554700
vn 0.000000 0.707107 -0.707107
vn -0.138921 -0.787846 0.600000
vn -0.144481 -0.819410 -0.554700
vn -0.144491 -0.819408 0.554700
vn -0.122786 -0.696365 -0.707107
vn -0.019742 0.800198 0.599411
vn 0.034936 0.710684 -0.702643
vn 0.029647 0.802256 0.596244
vn -0.027255 0.555122 -0.831322
vn 0.028657 -0.000484 -0.999589
vn 0.028658 -0.000484 0.999589
vn -0.109997 -0.545482 0.830873
vn -0.173658 -0.984806 0.000003
vn -0.088606 -0.703568 -0.705082
vn -0.109882 -0.793755 0.598230
vn -0.099649 -0.439470 -0.892713
vn 0.069297 0.712339 -0.698406
vn 0.054377 0.834700 0.548013
vn -0.054163 -0.708839 -0.703288
vn -0.090671 -0.829213 0.551530
vn -0.096288 0.556176 0.825467
vn -0.054678 0.832641 -0.551107
vn 0.140521 0.706431 -0.693693
vn 0.110193 0.831836 0.543972
vn -0.173675 -0.984803 0.000002
vn 0.194347 0.002798 -0.980929
vn 0.194348 0.002799 0.980929
vn -0.099166 0.001589 -0.995070
vn 0.222018 -0.003523 -0.975036
vn 0.222020 -0.003523 0.975036
vn 0.179223 -0.009636 -0.983761
vn 0.179224 -0.009637 0.983761
vn -0.180356 -0.691283 0.699714
vn -0.203376 -0.689134 -0.695509
vn -0.033675 -0.833833 -0.550988
vn -0.033669 -0.833840 0.550979
vn 0.000000 1.000000 0.000000
vn 0.211334 0.707775 -0.674087
vn 0.211333 0.707775 0.674087
vn 0.157291 -0.566311 -0.809044
vn 0.157291 -0.566310 0.809044
vn -0.194208 0.553905 0.809613
vn -0.128413 0.708496 -0.693934
vn 0.220505 0.831403 -0.510045
vn 0.220507 0.831403 0.510044
vn 0.412252 -0.000987 -0.911069
vn 0.412251 -0.000988 0.911070
vn 0.400014 -0.005901 -0.916490
vn 0.400012 -0.005901 0.916491
vn -0.221930 0.005009 -0.975050
vn 0.386472 -0.010807 -0.922238
vn 0.386472 -0.010807 0.922238
vn -0.270420 -0.574277 0.772709
vn -0.242037 -0.868719 -0.432141
vn 0.080097 -0.848416 -0.523235
vn 0.165898 -0.724552 0.668956
vn 0.409490 0.554581 -0.724401
vn 0.347944 0.707148 0.615530
vn 0.326974 -0.577386 -0.748140
vn 0.326973 -0.577379 0.748146
vn -0.173634 -0.984810 -0.000007
vn -0.173644 -0.984809 -0.000005
vn 0.322966 0.831075 -0.452778
vn 0.322966 0.831075 0.452777
vn -0.165861 0.831471 0.530232
vn -0.211889 0.707804 -0.673882
vn 0.628448 0.002890 -0.777846
vn 0.628447 0.002889 0.777847
vn 0.565610 -0.007763 -0.824636
vn 0.565609 -0.007763 0.824637
vn 0.616123 -0.018209 -0.787440
vn 0.616122 -0.018207 0.787440
vn 0.305629 -0.737940 -0.601694
vn 0.110466 -0.919811 0.376491
vn -0.329396 -0.670040 0.665240
vn -0.340433 -0.527428 -0.778412
vn 0.000000 1.000000 0.000000
vn 0.466092 0.711119 -0.526373
vn 0.365665 0.834121 0.412954
vn 0.000000 1.000000 0.000000
vn 0.363955 -0.750336 -0.551844
vn 0.363946 -0.750348 0.551834
vn 0.601614 0.578689 -0.550618
vn 0.510387 0.722009 0.467128
vn -0.173628 -0.984811 0.000008
vn 0.739245 -0.009087 -0.673376
vn 0.739245 -0.009087 0.673375
vn 0.313034 -0.852661 -0.418305
vn 0.533276 -0.616276 0.579500
vn -0.343626 0.557910 0.755419
vn -0.219426 0.833215 -0.507548
vn -0.356310 0.007548 0.934337
vn -0.399622 0.008038 -0.916645
vn -0.393790 -0.672001 0.627171
vn -0.393792 -0.671991 -0.627181
vn 0.356772 0.895610 -0.265701
vn 0.442311 0.834177 0.329408
vn 0.317931 -0.882180 -0.347388
vn 0.472590 -0.760617 0.445106
vn 0.477353 0.830736 -0.286377
vn 0.477354 0.830736 0.286375
vn 0.836851 0.000634 -0.547431
vn 0.836851 0.000634 0.547431
vn 0.868362 -0.009528 -0.495840
vn 0.858270 -0.009558 0.513109
vn 0.828694 -0.020692 -0.559319
vn 0.857357 -0.023576 0.514181
vn 0.356170 -0.884092 -0.302531
vn 0.243100 -0.939458 0.241497
vn 0.752863 0.552918 -0.357041
vn 0.639802 0.706109 0.303420
vn 0.557987 -0.763947 -0.324093
vn 0.553495 -0.768089 0.321999
vn -0.271715 0.833284 0.481466
vn -0.348226 0.708094 -0.614281
vn 0.523251 0.830672 -0.190245
vn 0.523251 0.830672 0.190246
vn -0.533188 0.008965 0.845949
vn 0.944070 -0.004719 -0.329712
vn 0.944070 -0.004720 0.329712
vn -0.445279 -0.667483 0.596819
vn -0.492104 -0.518567 -0.699229
vn 0.939837 -0.009774 -0.341482
vn 0.934550 -0.003353 0.355816
vn 0.935808 -0.014769 -0.352200
vn 0.407166 -0.890729 -0.202034
vn 0.721128 -0.625113 0.298679
vn 0.806078 0.552545 -0.211970
vn 0.685052 0.705869 0.180145
vn 0.764664 -0.603532 -0.225917
vn 0.420220 -0.894975 0.149781
vn 0.550312 0.830915 -0.082084
vn 0.828634 0.549768 0.105458
vn 0.988514 -0.007373 -0.150951
vn 0.986748 -0.006978 0.162112
vn 0.985569 -0.009800 -0.168989
vn 0.985569 -0.009800 0.168990
vn 0.984655 -0.012190 -0.174086
vn 0.977029 -0.017758 0.212365
vn 0.629167 -0.769105 -0.112364
vn 0.629182 -0.769093 0.112365
vn 0.709171 0.703920 -0.039668
vn 0.448947 0.893559 0.000000
vn 0.803731 0.594992 0.000000
vn 0.557186 0.830388 0.000000
vn 0.557186 0.830388 0.000000
vn 0.557186 0.830388 0.000000
vn 0.710545 0.703652 0.000000
vn 0.557186 0.830388 0.000000
vn 0.557186 0.830388 0.000000
vn 0.557186 0.830388 0.000000
vn 0.710545 0.703652 0.000000
vn 0.557186 0.830388 0.000000
vn 0.557186 0.830388 0.000000
vn 0.557186 0.830388 0.000000
vn 0.710545 0.703652 0.000000
vn 0.557186 0.830388 0.000000
vn 0.557186 0.830388 0.000000
vn 0.557186 0.830388 0.000000
vn 0.710545 0.703652 0.000000
vn 0.557186 0.830388 0.000000
vn 0.557186 0.830388 0.000000
vn 0.557186 0.830388 0.000000
vn 0.710545 0.703652 0.000000
vn 0.557186 0.830388 0.000000
vn 0.557186 0.830388 0.000000
vn 0.557186 0.830388 0.000000
vn 0.710545 0.703652 0.000000
vn 0.557186 0.830388 0.000000
vn 0.557186 0.830388 0.000000
vn 0.557186 0.830388 0.000000
vn 0.803731 0.594992 -0.000000
vn 0.557187 0.830387 0.000000
vn 0.556354 0.830617 0.023355
vn 0.999392 -0.009743 -0.033468
vn 0.999075 -0.009764 0.041871
vn 0.999313 -0.009763 -0.035756
vn 0.999952 -0.009749 0.000000
vn 0.999952 -0.009749 0.000000
vn 0.999952 -0.009749 0.000000
vn 0.999952 -0.009749 0.000000
vn 0.999952 -0.009749 0.000000
vn 0.999952 -0.009749 0.000000
vn 0.999952 -0.009749 0.000000
vn 0.999313 -0.009763 0.035756
vn 0.999089 -0.009765 -0.041539
vn 0.999089 -0.009765 0.041539
vn 0.500832 -0.864792 -0.036079
vn 0.445284 -0.895390 0.000000
vn 0.758012 -0.652240 0.000000
vn 0.445283 -0.895390 0.000000
vn 0.445283 -0.895390 0.000000
vn 0.445283 -0.895390 0.000000
vn 0.639044 -0.769170 0.000000
vn 0.445283 -0.895390 0.000000
vn 0.445283 -0.895390 0.000000
vn 0.445283 -0.895390 0.000000
vn 0.639044 -0.769170 0.000000
vn 0.445283 -0.895390 0.000000
vn 0.445283 -0.895390 0.000000
vn 0.445283 -0.895390 0.000000
vn 0.639044 -0.769170 0.000000
vn 0.445283 -0.895390 0.000000
vn 0.445283 -0.895390 0.000000
vn 0.445283 -0.895390 0.000000
vn 0.639044 -0.769170 0.000000
vn 0.445283 -0.895390 0.000000
vn 0.445283 -0.895390 0.000000
vn 0.445283 -0.895390 0.000000
vn 0.639044 -0.769170 0.000000
vn 0.445283 -0.895390 0.000000
vn 0.445283 -0.895390 0.000000
vn 0.445283 -0.895390 0.000000
vn 0.639044 -0.769170 0.000000
vn 0.445283 -0.895390 0.000000
vn 0.445283 -0.895390 0.000000
vn 0.445283 -0.895390 0.000000
vn 0.758012 -0.652240 -0.000000
vn 0.445284 -0.895390 0.000000
vn 0.637402 -0.769347 0.042701
vn -0.322361 0.831770 0.451931
vn -0.419751 0.709316 -0.566286
vn 0.000000 1.000000 0.000000
vn -0.565338 0.007130 -0.824828
vn -0.516559 -0.652693 0.554219
vn -0.401878 -0.846677 -0.348758
vn 0.000000 1.000000 0.000000
vn -0.173639 -0.984809 0.000018
vn -0.173668 -0.984804 0.000020
vn 0.000000 1.000000 0.000000
vn 0.000000 1.000000 0.000000
vn -0.585823 0.448156 0.675254
vn -0.366554 0.833238 -0.413947
vn -0.698006 0.001323 -0.716091
vn -0.173658 -0.984806 0.000004
vn -0.603413 -0.508731 0.614073
vn -0.610841 -0.517155 -0.599519
vn -0.622641 0.557569 0.549031
vn -0.412017 0.829127 -0.377877
vn -0.602008 -0.654736 0.457064
vn -0.612620 -0.649924 -0.449772
vn -0.573721 0.708750 0.410509
vn -0.638559 0.596536 -0.486197
vn -0.642694 -0.651640 0.402876
vn -0.708536 -0.509165 -0.488597
vn 0.000000 1.000000 0.000000
vn -0.173655 -0.984807 0.000000
vn -0.519078 0.800906 0.298508
vn -0.611806 0.708455 -0.351831
vn -0.677097 -0.649108 0.346697
vn -0.608457 -0.736766 -0.294883
vn 0.000000 1.000000 0.000000
vn 0.000000 1.000000 0.000000
vn -0.756973 0.556210 0.342961
vn -0.643123 0.708160 -0.291379
vn -0.705351 -0.647099 0.289382
vn -0.789309 -0.509703 -0.342337
vn -0.785982 0.555787 0.270800
vn -0.667796 0.707892 -0.230081
vn -0.651472 -0.732616 0.197127
vn -0.816073 -0.508773 -0.274181
vn -0.686093 0.707669 0.168761
vn -0.587747 0.797502 -0.136177
vn -0.836180 -0.508133 0.206408
vn -0.888914 -0.410315 -0.203651
vn -0.821935 0.555185 0.127248
vn -0.704170 0.699828 -0.119938
vn -0.850135 -0.507709 0.139650
vn -0.644559 -0.759736 -0.085703
vn -0.705124 0.707407 0.048746
vn -0.704315 0.707451 -0.058759
vn -0.992775 -0.003062 -0.119950
vn -0.858457 -0.507464 0.074370
vn -0.763839 -0.643190 -0.053452
vn -0.831923 0.554773 0.011437
vn -0.707107 0.707107 0.000000
vn -0.707107 0.707107 0.000000
vn -0.707107 0.707107 0.000000
vn -0.707107 0.707107 0.000000
vn -0.707107 0.707107 0.000000
vn -0.707107 0.707107 0.000000
vn -0.707107 0.707107 0.000000
vn -0.707107 0.707107 0.000000
vn -0.707107 0.707107 0.000000
vn -0.707107 0.707107 0.000000
vn -0.707107 0.707107 0.000000
vn -0.707107 0.707107 0.000000
vn -0.707107 0.707107 0.000000
vn -0.707107 0.707107 0.000000
vn -0.707107 0.707107 0.000000
vn -0.707107 0.707107 0.000000
vn -0.707107 0.707107 0.000000
vn -0.707107 0.707107 0.000000
vn -0.707107 0.707107 0.000000
vn -0.707107 0.707107 0.000000
vn -0.707107 0.707107 0.000000
vn -0.707107 0.707107 0.000000
vn -0.707107 0.707107 0.000000
vn -0.707107 0.707107 0.000000
vn -0.707107 0.707107 0.000000
vn -0.707107 0.707107 0.000000
vn -0.707107 0.707107 0.000000
vn -0.707107 0.707107 0.000000
vn -0.707107 0.707107 0.000000
vn -0.707107 0.707107 0.000000
vn -0.707107 0.707107 0.000000
vn -0.599693 0.800061 -0.016455
vn -0.765781 -0.642855 0.017810
vn -0.766045 -0.642786 0.000000
vn -0.766045 -0.642786 0.000000
vn -0.766045 -0.642786 0.000000
vn -0.766045 -0.642786 0.000000
vn -0.766045 -0.642786 0.000000
vn -0.766045 -0.642786 0.000000
vn -0.766045 -0.642786 0.000000
vn -0.766045 -0.642786 0.000000
vn -0.766045 -0.642786 0.000000
vn -0.766045 -0.642786 0.000000
vn -0.766045 -0.642786 0.000000
vn -0.766045 -0.642786 0.000000
vn -0.766045 -0.642786 0.000000
vn -0.766045 -0.642786 0.000000
vn -0.766045 -0.642786 0.000000
vn -0.766045 -0.642786 0.000000
vn -0.766045 -0.642786 0.000000
vn -0.766045 -0.642786 0.000000
vn -0.766045 -0.642786 0.000000
vn -0.766045 -0.642786 0.000000
vn -0.766045 -0.642786 0.000000
vn -0.766045 -0.642786 0.000000
vn -0.766045 -0.642786 0.000000
vn -0.766045 -0.642786 0.000000
vn -0.766045 -0.642786 0.000000
vn -0.766045 -0.642786 0.000000
vn -0.766045 -0.642786 0.000000
vn -0.766045 -0.642786 0.000000
vn -0.766045 -0.642786 0.000000
vn -0.766045 -0.642786 0.000000
vn -0.766045 -0.642786 0.000000
vn -0.765872 -0.642855 -0.013321

f 31//31 32//32 152//152
f 29//29 30//30 150//150
f 28//28 29//29 149//149
f 30//30 31//31 151//151
f 26//26 27//27 147//147
f 24//24 25//25 145//145
f 23//23 24//24 144//144
f 25//25 26//26 146//146
f 27//27 28//28 148//148
f 21//21 22//22 142//142
f 19//19 20//20 140//140
f 18//18 19//19 139//139
f 20//20 21//21 141//141
f 16//16 17//17 137//137
f 15//15 16//16 136//136
f 13//13 14//14 134//134
f 12//12 13//13 133//133
f 14//14 15//15 135//135
f 17//17 18//18 138//138
f 22//22 23//23 143//143
f 10//10 11//11 131//131
f 8//8 9//9 129//129
f 7//7 8//8 128//128
f 9//9 10//10 130//130
f 5//5 6//6 126//126
f 3//3 4//4 124//124
f 2//2 3//3 123//123
f 4//4 5//5 125//125
f 6//6 7//7 127//127
f 1//1 121//121 34//34
f 38//38 36//36 158//158
f 42//42 38//38 163//163
f 154//154 36//36 34//34
f 87//87 81//81 190//190
f 87//87 181//181 91//91
f 98//98 181//181 105//105
f 181//181 162//162 105//105
f 181//181 98//98 91//91
f 81//81 42//42 183//183
f 1//1 2//2 122//122
f 11//11 12//12 132//132
f 162//162 168//168 114//114
f 243//243 278//278 265//265
f 265//265 278//278 291//291
f 278//278 243//243 168//168
f 310//310 316//316 329//329
f 352//352 344//344 345//345
f 360//360 352//352 353//353
f 344//344 329//329 330//330
f 316//316 310//310 291//291
f 376//376 368//368 369//369
f 392//392 384//384 385//385
f 384//384 376//376 377//377
f 400//400 392//392 393//393
f 368//368 360//360 361//361
f 418//418 410//410 411//411
f 426//426 418//418 419//419
f 442//442 434//434 435//435
f 450//450 442//442 443//443
f 434//434 426//426 427//427
f 410//410 400//400 401//401
f 162//162 114//114 105//105
f 466//466 458//458 459//459
f 481//481 497//497 502//502
f 502//502 497//497 525//525
f 497//497 481//481 466//466
f 540//540 550//550 525//525
f 574//574 537//537 681//681
f 683//683 692//692 681//681
f 574//574 550//550 540//540
f 540//540 525//525 497//497
f 683//683 702//702 698//698
f 708//708 702//702 556//556
f 683//683 698//698 692//692
f 537//537 574//574 540//540
f 560//560 706//706 708//708
f 537//537 683//683 681//681
f 706//706 718//718 714//714
f 706//706 722//722 718//718
f 726//726 722//722 712//712
f 706//706 712//712 722//722
f 712//712 690//690 713//713
f 730//730 726//726 712//712
f 706//706 714//714 708//708
f 706//706 687//687 712//712
f 458//458 450//450 451//451
f 702//702 683//683 556//556
f 32//32 33//33 153//153
f 713//713 735//735 730//730
f 737//737 736//736 603//603
f 738//738 737//737 604//604
f 736//736 735//735 713//713
f 740//740 739//739 606//606
f 742//742 741//741 608//608
f 743//743 742//742 609//609
f 741//741 740//740 607//607
f 739//739 738//738 605//605
f 745//745 744//744 611//611
f 747//747 746//746 613//613
f 748//748 747//747 614//614
f 746//746 745//745 612//612
f 750//750 749//749 616//616
f 751//751 750//750 617//617
f 753//753 752//752 619//619
f 754//754 753//753 620//620
f 752//752 751//751 618//618
f 749//749 748//748 615//615
f 744//744 743//743 610//610
f 756//756 755//755 622//622
f 758//758 757//757 624//624
f 759//759 758//758 625//625
f 757//757 756//756 623//623
f 761//761 760//760 627//627
f 764//764 763//763 630//630
f 765//765 764//764 631//631
f 762//762 761//761 628//628
f 760//760 759//759 626//626
f 767//767 766//766 633//633
f 731//731 691//691 727//727
f 727//727 691//691 723//723
f 691//691 731//731 767//767
f 715//715 719//719 571//571
f 709//709 715//715 561//561
f 699//699 703//703 544//544
f 693//693 699//699 539//539
f 703//703 709//709 557//557
f 719//719 723//723 577//577
f 766//766 765//765 632//632
f 755//755 754//754 621//621
f 575//575 682//682 518//518
f 526//526 551//551 499//499
f 503//503 526//526 484//484
f 551//551 575//575 505//505
f 469//469 482//482 468//468
f 453//453 461//461 460//460
f 445//445 453//453 452//452
f 461//461 469//469 468//468
f 482//482 503//503 478//478
f 429//429 437//437 436//436
f 413//413 421//421 420//420
f 421//421 429//429 428//428
f 403//403 413//413 412//412
f 437//437 445//445 444//444
f 395//395 403//403 402//402
f 387//387 395//395 394//394
f 371//371 379//379 378//378
f 363//363 371//371 370//370
f 379//379 387//387 386//386
f 682//682 693//693 524//524
f 763//763 762//762 629//629
f 347//347 355//355 354//354
f 311//311 332//332 331//331
f 320//320 273//273 311//311
f 332//332 347//347 346//346
f 273//273 266//266 292//292
f 244//244 266//266 273//273
f 254//254 115//115 169//169
f 115//115 182//182 106//106
f 169//169 244//244 254//254
f 292//292 311//311 273//273
f 99//99 182//182 92//92
f 182//182 88//88 92//92
f 106//106 182//182 99//99
f 254//254 273//273 301//301
f 113//113 82//82 88//88
f 82//82 113//113 43//43
f 43//43 113//113 39//39
f 35//35 37//37 108//108
f 35//35 107//107 33//33
f 108//108 37//37 39//39
f 268//268 115//115 254//254
f 355//355 363//363 362//362
f 603//603 736//736 713//713
f 713//713 730//730 712//712
f 278//278 168//168 162//162
f 279//279 162//162 267//267
f 316//316 278//278 308//308
f 523//523 683//683 537//537
f 498//498 504//504 540//540
f 712//712 687//687 690//690
f 498//498 540//540 497//497
f 255//255 162//162 181//181
f 121//121 154//154 34//34
f 87//87 190//190 181//181
f 181//181 235//235 247//247
f 181//181 247//247 255//255
f 181//181 190//190 235//235
f 162//162 279//279 278//278
f 278//278 289//289 300//300
f 278//278 279//279 289//289
f 255//255 267//267 162//162
f 316//316 319//319 330//330
f 316//316 308//308 319//319
f 466//466 467//467 497//497
f 497//497 477//477 483//483
f 497//497 483//483 498//498
f 497//497 467//467 477//477
f 537//537 504//504 517//517
f 523//523 538//538 683//683
f 538//538 543//543 683//683
f 537//537 517//517 523//523
f 560//560 570//570 706//706
f 570//570 576//576 706//706
f 687//687 576//576 588//588
f 687//687 588//588 592//592
f 706//706 576//576 687//687
f 543//543 556//556 683//683
f 690//690 687//687 592//592
f 592//592 602//602 690//690
f 88//88 182//182 113//113
f 108//108 113//113 164//164
f 113//113 182//182 236//236
f 108//108 155//155 107//107
f 589//589 723//723 691//691
f 39//39 113//113 108//108
f 691//691 593//593 589//589
f 691//691 634//634 593//593
f 713//713 690//690 602//602
f 320//320 309//309 273//273
f 290//290 280//280 254//254
f 309//309 301//301 273//273
f 115//115 268//268 182//182
f 182//182 256//256 248//248
f 182//182 248//248 236//236
f 182//182 268//268 256//256
f 113//113 191//191 184//184
f 113//113 184//184 164//164
f 108//108 159//159 155//155
f 107//107 155//155 153//153
f 280//280 268//268 254//254
f 278//278 316//316 291//291
f 74//74 222//222 223//223
f 72//72 220//220 221//221
f 71//71 219//219 220//220
f 73//73 221//221 222//222
f 69//69 217//217 218//218
f 67//67 215//215 216//216
f 66//66 214//214 215//215
f 68//68 216//216 217//217
f 70//70 218//218 219//219
f 64//64 212//212 213//213
f 62//62 210//210 211//211
f 61//61 209//209 210//210
f 63//63 211//211 212//212
f 59//59 207//207 208//208
f 58//58 206//206 207//207
f 56//56 204//204 205//205
f 55//55 203//203 204//204
f 57//57 205//205 206//206
f 60//60 208//208 209//209
f 65//65 213//213 214//214
f 53//53 201//201 202//202
f 51//51 199//199 200//200
f 50//50 198//198 199//199
f 52//52 200//200 201//201
f 48//48 196//196 197//197
f 46//46 194//194 195//195
f 45//45 193//193 194//194
f 47//47 195//195 196//196
f 49//49 197//197 198//198
f 44//44 77//77 192//192
f 225//225 79//79 96//96
f 96//96 79//79 83//83
f 225//225 77//77 79//79
f 89//89 102//102 85//85
f 94//94 104//104 89//89
f 109//109 119//119 100//100
f 116//116 165//165 109//109
f 100//100 112//112 94//94
f 85//85 96//96 83//83
f 44//44 192//192 193//193
f 54//54 202//202 203//203
f 166//166 241//241 165//165
f 295//295 285//285 328//328
f 328//328 285//285 306//306
f 295//295 241//241 263//263
f 339//339 340//340 326//326
f 356//356 357//357 349//349
f 364//364 365//365 357//357
f 348//348 340//340 339//339
f 326//326 328//328 306//306
f 102//102 245//245 96//96
f 116//116 166//166 165//165
f 112//112 260//260 104//104
f 119//119 269//269 112//112
f 285//285 295//295 263//263
f 104//104 252//252 102//102
f 380//380 381//381 373//373
f 388//388 389//389 381//381
f 396//396 397//397 389//389
f 372//372 373//373 365//365
f 340//340 341//341 328//328
f 406//406 407//407 397//397
f 349//349 341//341 340//340
f 414//414 415//415 407//407
f 430//430 431//431 423//423
f 438//438 439//439 431//431
f 422//422 423//423 415//415
f 454//454 455//455 447//447
f 462//462 472//472 473//473
f 493//493 485//485 473//473
f 462//462 463//463 455//455
f 446//446 447//447 439//439
f 513//513 535//535 522//522
f 554//554 581//581 522//522
f 581//581 685//685 545//545
f 522//522 535//535 554//554
f 696//696 700//700 545//545
f 704//704 558//558 548//548
f 716//716 572//572 568//568
f 720//720 586//586 572//572
f 710//710 568//568 558//558
f 545//545 685//685 696//696
f 485//485 493//493 513//513
f 724//724 689//689 720//720
f 75//75 223//223 224//224
f 689//689 724//724 728//728
f 689//689 733//733 768//768
f 769//769 649//649 648//648
f 733//733 689//689 728//728
f 771//771 651//651 650//650
f 773//773 653//653 652//652
f 774//774 654//654 653//653
f 772//772 652//652 651//651
f 770//770 650//650 649//649
f 777//777 657//657 656//656
f 779//779 659//659 658//658
f 780//780 660//660 659//659
f 778//778 658//658 657//657
f 782//782 662//662 661//661
f 783//783 663//663 662//662
f 785//785 665//665 664//664
f 786//786 666//666 665//665
f 784//784 664//664 663//663
f 781//781 661//661 660//660
f 776//776 656//656 655//655
f 788//788 668//668 667//667
f 790//790 670//670 669//669
f 791//791 671//671 670//670
f 789//789 669//669 668//668
f 793//793 673//673 672//672
f 795//795 675//675 674//674
f 796//796 676//676 675//675
f 794//794 674//674 673//673
f 792//792 672//672 671//671
f 798//798 678//678 677//677
f 800//800 680//680 679//679
f 695//695 680//680 800//800
f 799//799 679//679 678//678
f 695//695 729//729 707//707
f 707//707 729//729 725//725
f 707//707 721//721 717//717
f 707//707 717//717 711//711
f 721//721 707//707 725//725
f 695//695 734//734 729//729
f 797//797 677//677 676//676
f 787//787 667//667 666//666
f 705//705 701//701 688//688
f 697//697 686//686 688//688
f 686//686 582//582 521//521
f 688//688 701//701 697//697
f 555//555 536//536 521//521
f 494//494 480//480 514//514
f 476//476 475//475 494//494
f 521//521 536//536 514//514
f 521//521 582//582 555//555
f 457//457 456//456 464//464
f 441//441 440//440 448//448
f 449//449 448//448 456//456
f 433//433 432//432 440//440
f 465//465 464//464 475//475
f 425//425 424//424 432//432
f 417//417 416//416 424//424
f 399//399 398//398 408//408
f 391//391 390//390 398//398
f 409//409 408//408 416//416
f 383//383 382//382 390//390
f 711//711 705//705 688//688
f 375//375 374//374 382//382
f 359//359 358//358 366//366
f 351//351 350//350 358//358
f 367//367 366//366 374//374
f 327//327 335//335 342//342
f 307//307 325//325 335//335
f 286//286 264//264 283//283
f 264//264 242//242 283//283
f 286//286 315//315 325//325
f 343//343 342//342 350//350
f 167//167 117//117 283//283
f 101//101 261//261 270//270
f 95//95 253//253 261//261
f 110//110 270//270 275//275
f 86//86 238//238 246//246
f 84//84 232//232 238//238
f 80//80 78//78 118//118
f 78//78 76//76 118//118
f 118//118 84//84 80//80
f 90//90 246//246 253//253
f 283//283 242//242 167//167
f 711//711 569//569 707//707
f 775//775 655//655 654//654
f 165//165 295//295 287//287
f 522//522 485//485 513//513
f 495//495 485//485 522//522
f 485//485 479//479 474//474
f 295//295 328//328 324//324
f 545//545 515//515 522//522
f 548//548 545//545 700//700
f 522//522 581//581 545//545
f 192//192 77//77 225//225
f 231//231 96//96 237//237
f 225//225 96//96 231//231
f 165//165 274//274 119//119
f 295//295 296//296 287//287
f 295//295 314//314 304//304
f 295//295 324//324 314//314
f 295//295 304//304 296//296
f 165//165 287//287 274//274
f 324//324 328//328 334//334
f 474//474 463//463 473//473
f 485//485 495//495 479//479
f 522//522 500//500 495//495
f 545//545 519//519 515//515
f 545//545 541//541 533//533
f 545//545 548//548 541//541
f 545//545 533//533 519//519
f 689//689 586//586 720//720
f 590//590 586//586 689//689
f 522//522 515//515 500//500
f 600//600 590//590 689//689
f 600//600 689//689 648//648
f 283//283 117//117 275//275
f 573//573 587//587 707//707
f 521//521 534//534 686//686
f 496//496 521//521 514//514
f 707//707 591//591 695//695
f 688//688 686//686 534//534
f 695//695 591//591 601//601
f 591//591 707//707 587//587
f 695//695 601//601 680//680
f 707//707 569//569 573//573
f 768//768 648//648 689//689
f 711//711 688//688 569//569
f 688//688 549//549 559//559
f 688//688 542//542 549//549
f 688//688 559//559 569//569
f 521//521 520//520 534//534
f 521//521 501//501 516//516
f 521//521 496//496 501//501
f 521//521 516//516 520//520
f 688//688 534//534 542//542
f 286//286 283//283 315//315
f 283//283 305//305 315//315
f 283//283 288//288 297//297
f 283//283 275//275 288//288
f 118//118 226//226 232//232
f 118//118 224//224 226//226
f 84//84 118//118 232//232
f 283//283 297//297 305//305
f 295//295 165//165 241//241
f 161//161 153//153 155//155
f 161//161 155//155 159//159
f 228//228 164//164 184//184
f 228//228 184//184 191//191
f 164//164 161//161 159//159
f 228//228 236//236 248//248
f 272//272 248//248 256//256
f 272//272 268//268 280//280
f 294//294 290//290 301//301
f 290//290 294//294 280//280
f 268//268 272//272 256//256
f 236//236 228//228 191//191
f 294//294 309//309 320//320
f 337//337 320//320 331//331
f 337//337 346//346 354//354
f 337//337 354//354 362//362
f 346//346 337//337 331//331
f 378//378 405//405 370//370
f 386//386 405//405 378//378
f 405//405 394//394 402//402
f 405//405 412//412 420//420
f 412//412 405//405 402//402
f 394//394 405//405 386//386
f 370//370 337//337 362//362
f 309//309 294//294 301//301
f 405//405 428//428 436//436
f 444//444 471//471 436//436
f 471//471 452//452 460//460
f 471//471 460//460 468//468
f 444//444 452//452 471//471
f 487//487 478//478 484//484
f 487//487 484//484 499//499
f 507//507 505//505 518//518
f 528//528 524//524 539//539
f 524//524 528//528 518//518
f 505//505 507//507 499//499
f 478//478 487//487 468//468
f 563//563 544//544 557//557
f 563//563 557//557 561//561
f 580//580 571//571 577//577
f 580//580 577//577 589//589
f 571//571 563//563 561//561
f 634//634 636//636 593//593
f 636//636 634//634 633//633
f 644//644 632//632 631//631
f 644//644 630//630 629//629
f 630//630 644//644 631//631
f 632//632 636//636 633//633
f 593//593 595//595 589//589
f 544//544 528//528 539//539
f 428//428 405//405 420//420
f 272//272 228//228 248//248
f 280//280 294//294 272//272
f 187//187 161//161 228//228
f 228//228 272//272 258//258
f 178//178 161//161 189//189
f 187//187 189//189 161//161
f 240//240 250//250 187//187
f 228//228 240//240 187//187
f 178//178 153//153 161//161
f 272//272 294//294 299//299
f 528//528 544//544 563//563
f 509//509 490//490 487//487
f 528//528 530//530 507//507
f 563//563 571//571 580//580
f 471//471 405//405 436//436
f 528//528 563//563 547//547
f 580//580 584//584 563//563
f 595//595 597//597 580//580
f 487//487 499//499 507//507
f 320//320 318//318 294//294
f 580//580 589//589 595//595
f 240//240 228//228 258//258
f 518//518 528//528 507//507
f 272//272 277//277 258//258
f 284//284 258//258 277//277
f 303//303 284//284 277//277
f 318//318 320//320 337//337
f 323//323 318//318 337//337
f 337//337 366//366 358//358
f 337//337 370//370 405//405
f 318//318 323//323 299//299
f 294//294 318//318 299//299
f 487//487 490//490 471//471
f 492//492 471//471 490//490
f 490//490 509//509 512//512
f 528//528 547//547 530//530
f 532//532 530//530 547//547
f 567//567 565//565 584//584
f 565//565 567//567 547//547
f 563//563 565//565 547//547
f 530//530 532//532 509//509
f 424//424 405//405 432//432
f 468//468 487//487 471//471
f 258//258 250//250 240//240
f 643//643 628//628 627//627
f 643//643 627//627 626//626
f 643//643 625//625 624//624
f 642//642 624//624 623//623
f 625//625 643//643 626//626
f 642//642 622//622 621//621
f 642//642 621//621 620//620
f 641//641 619//619 618//618
f 641//641 617//617 616//616
f 617//617 641//641 618//618
f 619//619 641//641 620//620
f 622//622 642//642 623//623
f 597//597 595//595 645//645
f 645//645 647//647 597//597
f 632//632 644//644 645//645
f 644//644 629//629 628//628
f 643//643 674//674 644//644
f 642//642 669//669 670//670
f 643//643 624//624 642//642
f 644//644 677//677 678//678
f 620//620 641//641 642//642
f 640//640 615//615 614//614
f 640//640 614//614 613//613
f 613//613 612//612 640//640
f 640//640 661//661 662//662
f 612//612 611//611 639//639
f 639//639 640//640 612//612
f 640//640 616//616 615//615
f 616//616 640//640 641//641
f 641//641 666//666 642//642
f 636//636 632//632 645//645
f 597//597 599//599 584//584
f 161//161 164//164 228//228
f 639//639 610//610 609//609
f 639//639 609//609 608//608
f 638//638 607//607 606//606
f 638//638 606//606 605//605
f 607//607 638//638 608//608
f 635//635 604//604 603//603
f 635//635 603//603 602//602
f 594//594 592//592 588//588
f 579//579 576//576 570//570
f 576//576 579//579 588//588
f 592//592 594//594 602//602
f 604//604 638//638 605//605
f 562//562 560//560 556//556
f 562//562 556//556 543//543
f 527//527 538//538 523//523
f 527//527 523//523 517//517
f 538//538 527//527 543//543
f 506//506 504//504 498//498
f 486//486 498//498 483//483
f 486//486 477//477 467//467
f 459//459 451//451 470//470
f 470//470 467//467 459//459
f 477//477 486//486 483//483
f 504//504 506//506 517//517
f 560//560 562//562 570//570
f 470//470 443//443 435//435
f 470//470 435//435 404//404
f 419//419 411//411 404//404
f 411//411 401//401 404//404
f 404//404 385//385 377//377
f 404//404 377//377 369//369
f 361//361 336//336 369//369
f 345//345 330//330 336//336
f 336//336 353//353 345//345
f 369//369 336//336 404//404
f 404//404 393//393 385//385
f 312//312 330//330 319//319
f 312//312 319//319 308//308
f 293//293 300//300 289//289
f 293//293 289//289 279//279
f 300//300 312//312 308//308
f 271//271 267//267 255//255
f 251//251 255//255 247//247
f 227//227 235//235 190//190
f 180//180 183//183 163//163
f 183//183 227//227 190//190
f 235//235 251//251 247//247
f 267//267 271//271 279//279
f 330//330 312//312 336//336
f 443//443 470//470 451//451
f 158//158 154//154 160//160
f 293//293 312//312 300//300
f 271//271 293//293 279//279
f 235//235 227//227 251//251
f 251//251 271//271 255//255
f 227//227 239//239 257//257
f 227//227 183//183 180//180
f 293//293 298//298 317//317
f 158//158 160//160 180//180
f 121//121 122//122 157//157
f 122//122 123//123 157//157
f 124//124 125//125 171//171
f 171//171 123//123 124//124
f 126//126 171//171 125//125
f 160//160 154//154 157//157
f 158//158 180//180 163//163
f 579//579 583//583 596//596
f 594//594 588//588 579//579
f 596//596 637//637 594//594
f 527//527 562//562 543//543
f 638//638 604//604 637//637
f 638//638 654//654 639//639
f 650//650 638//638 637//637
f 604//604 635//635 637//637
f 638//638 639//639 608//608
f 562//562 564//564 583//583
f 179//179 186//186 160//160
f 257//257 276//276 251//251
f 293//293 271//271 298//298
f 157//157 170//170 179//179
f 486//486 506//506 498//498
f 562//562 527//527 546//546
f 401//401 393//393 404//404
f 486//486 489//489 508//508
f 506//506 508//508 529//529
f 470//470 489//489 486//486
f 527//527 517//517 506//506
f 227//227 180//180 239//239
f 123//123 170//170 157//157
f 562//562 579//579 570//570
f 594//594 635//635 602//602
f 171//171 126//126 127//127
f 127//127 128//128 172//172
f 128//128 129//129 172//172
f 130//130 131//131 172//172
f 131//131 132//132 173//173
f 172//172 129//129 130//130
f 133//133 134//134 173//173
f 134//134 135//135 173//173
f 136//136 137//137 174//174
f 138//138 139//139 174//174
f 174//174 137//137 138//138
f 174//174 135//135 136//136
f 173//173 132//132 133//133
f 140//140 141//141 175//175
f 141//141 142//142 175//175
f 143//143 144//144 176//176
f 145//145 146//146 176//176
f 176//176 144//144 145//145
f 175//175 142//142 143//143
f 147//147 148//148 177//177
f 148//148 149//149 177//177
f 150//150 151//151 177//177
f 152//152 153//153 178//178
f 178//178 151//151 152//152
f 177//177 149//149 150//150
f 176//176 146//146 147//147
f 175//175 139//139 140//140
f 639//639 611//611 610//610
f 639//639 657//657 658//658
f 234//234 232//232 189//189
f 178//178 189//189 224//224
f 224//224 189//189 226//226
f 234//234 238//238 232//232
f 246//246 238//238 234//234
f 323//323 315//315 303//303
f 323//323 337//337 342//342
f 253//253 250//250 261//261
f 297//297 284//284 303//303
f 250//250 284//284 270//270
f 246//246 250//250 253//253
f 246//246 234//234 250//250
f 270//270 261//261 250//250
f 250//250 258//258 284//284
f 284//284 275//275 270//270
f 284//284 288//288 275//275
f 303//303 305//305 297//297
f 284//284 297//297 288//288
f 323//323 335//335 325//325
f 323//323 342//342 335//335
f 350//350 337//337 358//358
f 374//374 405//405 382//382
f 337//337 374//374 366//366
f 342//342 337//337 350//350
f 323//323 325//325 315//315
f 405//405 390//390 382//382
f 637//637 596//596 646//646
f 492//492 512//512 501//501
f 547//547 567//567 532//532
f 532//532 567//567 549//549
f 599//599 591//591 587//587
f 584//584 599//599 567//567
f 532//532 520//520 512//512
f 646//646 598//598 648//648
f 583//583 585//585 598//598
f 564//564 566//566 585//585
f 585//585 586//586 590//590
f 566//566 546//546 531//531
f 566//566 564//564 546//546
f 566//566 572//572 585//585
f 562//562 546//546 564//564
f 647//647 645//645 678//678
f 405//405 408//408 398//398
f 405//405 416//416 408//408
f 405//405 440//440 432//432
f 448//448 440//440 471//471
f 424//424 416//416 405//405
f 471//471 440//440 405//405
f 471//471 456//456 448//448
f 456//456 471//471 464//464
f 475//475 464//464 471//471
f 647//647 680//680 599//599
f 475//475 471//471 492//492
f 667//667 668//668 642//642
f 405//405 398//398 390//390
f 337//337 405//405 374//374
f 480//480 475//475 492//492
f 189//189 187//187 234//234
f 492//492 496//496 480//480
f 492//492 501//501 496//496
f 532//532 534//534 520//520
f 512//512 516//516 501//501
f 532//532 549//549 542//542
f 567//567 559//559 549//549
f 567//567 573//573 569//569
f 567//567 587//587 573//573
f 567//567 569//569 559//559
f 532//532 542//542 534//534
f 647//647 679//679 680//680
f 677//677 644//644 676//676
f 647//647 678//678 679//679
f 674//674 643//643 673//673
f 672//672 643//643 671//671
f 671//671 643//643 670//670
f 673//673 643//643 672//672
f 676//676 644//644 675//675
f 599//599 601//601 591//591
f 666//666 641//641 665//665
f 664//664 641//641 663//663
f 663//663 641//641 662//662
f 665//665 641//641 664//664
f 661//661 640//640 660//660
f 660//660 640//640 659//659
f 656//656 639//639 655//655
f 657//657 639//639 656//656
f 659//659 640//640 658//658
f 654//654 638//638 653//653
f 653//653 638//638 652//652
f 651//651 638//638 650//650
f 646//646 649//649 650//650
f 650//650 637//637 646//646
f 652//652 638//638 651//651
f 598//598 600//600 648//648
f 598//598 590//590 600//600
f 566//566 558//558 568//568
f 566//566 568//568 572//572
f 646//646 648//648 649//649
f 669//669 642//642 668//668
f 558//558 566//566 548//548
f 529//529 531//531 546//546
f 548//548 566//566 531//531
f 541//541 548//548 531//531
f 531//531 529//529 508//508
f 531//531 533//533 541//541
f 531//531 519//519 533//533
f 511//511 515//515 519//519
f 489//489 491//491 511//511
f 491//491 489//489 470//470
f 491//491 500//500 511//511
f 470//470 474//474 491//491
f 431//431 404//404 423//423
f 470//470 447//447 455//455
f 491//491 495//495 500//500
f 491//491 479//479 495//495
f 470//470 463//463 474//474
f 470//470 455//455 463//463
f 491//491 474//474 479//479
f 439//439 404//404 431//431
f 404//404 439//439 470//470
f 404//404 415//415 423//423
f 404//404 397//397 407//407
f 404//404 407//407 415//415
f 404//404 427//427 419//419
f 447//447 470//470 439//439
f 389//389 397//397 404//404
f 336//336 317//317 338//338
f 298//298 302//302 322//322
f 262//262 276//276 257//257
f 239//239 249//249 262//262
f 276//276 302//302 298//298
f 186//186 179//179 233//233
f 170//170 185//185 188//188
f 127//127 172//172 171//171
f 172//172 199//199 198//198
f 135//135 174//174 173//173
f 174//174 207//207 206//206
f 202//202 172//172 173//173
f 131//131 173//173 172//172
f 171//171 195//195 194//194
f 123//123 171//171 170//170
f 233//233 249//249 186//186
f 338//338 322//322 334//334
f 302//302 304//304 314//314
f 262//262 302//302 276//276
f 249//249 260//260 262//262
f 262//262 287//287 302//302
f 245//245 249//249 233//233
f 336//336 338//338 349//349
f 143//143 176//176 175//175
f 176//176 215//215 214//214
f 177//177 219//219 218//218
f 147//147 177//177 176//176
f 175//175 211//211 210//210
f 233//233 188//188 231//231
f 194//194 185//185 170//170
f 178//178 223//223 222//222
f 185//185 192//192 225//225
f 151//151 178//178 177//177
f 373//373 381//381 404//404
f 357//357 365//365 336//336
f 139//139 175//175 174//174
f 404//404 381//381 389//389
f 373//373 336//336 365//365
f 336//336 373//373 404//404
f 336//336 349//349 357//357
f 338//338 341//341 349//349
f 336//336 361//361 353//353
f 322//322 324//324 334//334
f 322//322 314//314 324//324
f 302//302 296//296 304//304
f 262//262 274//274 287//287
f 302//302 287//287 296//296
f 338//338 334//334 341//341
f 249//249 252//252 260//260
f 233//233 237//237 245//245
f 233//233 231//231 237//237
f 249//249 245//245 252//252
f 185//185 193//193 192//192
f 171//171 197//197 196//196
f 171//171 196//196 195//195
f 185//185 194//194 193//193
f 188//188 225//225 231//231
f 262//262 269//269 274//274
f 172//172 200//200 199//199
f 172//172 202//202 201//201
f 173//173 203//203 202//202
f 172//172 201//201 200//200
f 173//173 205//205 204//204
f 173//173 206//206 205//205
f 174//174 208//208 207//207
f 174//174 210//210 209//209
f 174//174 209//209 208//208
f 173//173 204//204 203//203
f 175//175 212//212 211//211
f 175//175 213//213 212//212
f 176//176 217//217 216//216
f 176//176 216//216 215//215
f 175//175 214//214 213//213
f 177//177 220//220 219//219
f 177//177 222//222 221//221
f 178//178 224//224 223//223
f 177//177 221//221 220//220
f 176//176 218//218 217//217
f 171//171 198//198 197//197
f 527//527 529//529 546//546
f 41//41 35//35 33//33
f 40//40 39//39 37//37
f 40//40 43//43 39//39
f 37//37 35//35 41//41
f 93//93 88//88 82//82
f 92//92 103//103 99//99
f 106//106 156//156 115//115
f 92//92 88//88 93//93
f 82//82 43//43 40//40
f 230//230 169//169 115//115
f 244//244 259//259 282//282
f 282//282 313//313 292//292
f 244//244 169//169 259//259
f 332//332 311//311 313//313
f 333//333 347//347 332//332
f 363//363 355//355 367//367
f 371//371 363//363 375//375
f 355//355 347//347 359//359
f 311//311 292//292 313//313
f 387//387 379//379 391//391
f 403//403 395//395 409//409
f 413//413 403//403 417//417
f 395//395 387//387 399//399
f 437//437 429//429 441//441
f 445//445 437//437 449//449
f 461//461 453//453 465//465
f 469//469 461//461 476//476
f 453//453 445//445 457//457
f 429//429 421//421 433//433
f 488//488 482//482 469//469
f 503//503 510//510 526//526
f 526//526 553//553 551//551
f 503//503 482//482 488//488
f 682//682 684//684 694//694
f 694//694 693//693 682//682
f 694//694 703//703 699//699
f 709//709 703//703 711//711
f 699//699 693//693 694//694
f 684//684 682//682 575//575
f 488//488 469//469 476//476
f 379//379 371//371 383//383
f 723//723 719//719 725//725
f 732//732 727//727 723//723
f 732//732 731//731 727//727
f 732//732 723//723 725//725
f 766//766 767//767 800//800
f 764//764 765//765 798//798
f 763//763 764//764 797//797
f 765//765 766//766 799//799
f 767//767 731//731 732//732
f 86//86 93//93 40//40
f 37//37 41//41 40//40
f 259//259 230//230 264//264
f 106//106 99//99 103//103
f 103//103 92//92 93//93
f 80//80 40//40 41//41
f 266//266 282//282 292//292
f 719//719 715//715 721//721
f 715//715 709//709 717//717
f 510//510 503//503 488//488
f 762//762 763//763 796//796
f 421//421 413//413 425//425
f 553//553 575//575 551//551
f 333//333 313//313 343//343
f 703//703 694//694 705//705
f 351//351 347//347 333//333
f 761//761 762//762 795//795
f 739//739 740//740 773//773
f 40//40 93//93 82//82
f 760//760 761//761 794//794
f 758//758 759//759 792//792
f 757//757 758//758 791//791
f 759//759 760//760 793//793
f 755//755 756//756 789//789
f 754//754 755//755 788//788
f 752//752 753//753 786//786
f 751//751 752//752 785//785
f 753//753 754//754 787//787
f 756//756 757//757 790//790
f 749//749 750//750 783//783
f 747//747 748//748 781//781
f 746//746 747//747 780//780
f 748//748 749//749 782//782
f 744//744 745//745 778//778
f 743//743 744//744 777//777
f 741//741 742//742 775//775
f 740//740 741//741 774//774
f 742//742 743//743 776//776
f 745//745 746//746 779//779
f 750//750 751//751 784//784
f 800//800 767//767 732//732
f 738//738 739//739 772//772
f 735//735 736//736 769//769
f 730//730 735//735 768//768
f 737//737 738//738 771//771
f 722//722 726//726 728//728
f 714//714 718//718 720//720
f 708//708 714//714 716//716
f 718//718 722//722 724//724
f 726//726 730//730 733//733
f 698//698 702//702 704//704
f 692//692 578//578 681//681
f 681//681 578//578 574//574
f 692//692 698//698 700//700
f 550//550 552//552 525//525
f 525//525 552//552 502//502
f 466//466 481//481 493//493
f 458//458 466//466 472//472
f 481//481 502//502 513//513
f 550//550 574//574 578//578
f 702//702 708//708 710//710
f 442//442 450//450 454//454
f 426//426 434//434 438//438
f 418//418 426//426 430//430
f 434//434 442//442 446//446
f 400//400 410//410 414//414
f 392//392 400//400 406//406
f 376//376 384//384 388//388
f 368//368 376//376 380//380
f 384//384 392//392 396//396
f 410//410 418//418 422//422
f 352//352 360//360 364//364
f 329//329 344//344 348//348
f 321//321 310//310 329//329
f 344//344 352//352 356//356
f 291//291 281//281 265//265
f 265//265 281//281 243//243
f 168//168 229//229 120//120
f 120//120 114//114 168//168
f 229//229 168//168 243//243
f 321//321 291//291 310//310
f 360//360 368//368 372//372
f 450//450 458//458 462//462
f 111//111 98//98 105//105
f 91//91 97//97 87//87
f 87//87 97//97 81//81
f 97//97 91//91 98//98
f 38//38 42//42 85//85
f 36//36 38//38 83//83
f 1//1 34//34 77//77
f 2//2 1//1 44//44
f 34//34 36//36 79//79
f 42//42 81//81 89//89
f 4//4 3//3 46//46
f 5//5 4//4 47//47
f 3//3 2//2 45//45
f 116//116 111//111 166//166
f 6//6 5//5 48//48
f 111//111 105//105 120//120
f 7//7 6//6 49//49
f 8//8 7//7 50//50
f 10//10 9//9 52//52
f 11//11 10//10 53//53
f 9//9 8//8 51//51
f 12//12 11//11 54//54
f 120//120 105//105 114//114
f 13//13 12//12 55//55
f 15//15 14//14 57//57
f 16//16 15//15 58//58
f 14//14 13//13 56//56
f 18//18 17//17 60//60
f 19//19 18//18 61//61
f 21//21 20//20 63//63
f 22//22 21//21 64//64
f 20//20 19//19 62//62
f 17//17 16//16 59//59
f 24//24 23//23 66//66
f 26//26 25//25 68//68
f 27//27 26//26 69//69
f 25//25 24//24 67//67
f 29//29 28//28 71//71
f 30//30 29//29 72//72
f 32//32 31//31 74//74
f 33//33 32//32 75//75
f 31//31 30//30 73//73
f 28//28 27//27 70//70
f 23//23 22//22 65//65
f 97//97 98//98 111//111
f 736//736 737//737 770//770
f 78//78 80//80 41//41
f 84//84 86//86 40//40
f 86//86 90//90 93//93
f 80//80 84//84 40//40
f 103//103 156//156 106//106
f 156//156 242//242 230//230
f 117//117 156//156 103//103
f 101//101 93//93 95//95
f 282//282 259//259 264//264
f 93//93 90//90 95//95
f 93//93 101//101 103//103
f 76//76 78//78 41//41
f 103//103 101//101 110//110
f 156//156 117//117 167//167
f 156//156 167//167 242//242
f 103//103 110//110 117//117
f 282//282 264//264 286//286
f 282//282 286//286 307//307
f 343//343 351//351 333//333
f 307//307 327//327 313//313
f 684//684 575//575 553//553
f 553//553 526//526 510//510
f 510//510 536//536 553//553
f 684//684 553//553 582//582
f 476//476 494//494 488//488
f 510//510 514//514 536//536
f 553//553 536//536 555//555
f 510//510 494//494 514//514
f 555//555 582//582 553//553
f 684//684 582//582 686//686
f 697//697 701//701 694//694
f 701//701 705//705 694//694
f 684//684 686//686 697//697
f 725//725 729//729 732//732
f 729//729 734//734 732//732
f 552//552 578//578 581//581
f 692//692 696//696 578//578
f 578//578 685//685 581//581
f 578//578 696//696 685//685
f 552//552 535//535 513//513
f 552//552 554//554 535//535
f 281//281 291//291 321//321
f 229//229 243//243 281//281
f 116//116 109//109 111//111
f 306//306 281//281 321//321
f 263//263 229//229 281//281
f 321//321 339//339 326//326
f 281//281 306//306 285//285
f 281//281 285//285 263//263
f 321//321 326//326 306//306
f 263//263 241//241 229//229
f 552//552 513//513 502//502
f 229//229 241//241 166//166
f 111//111 109//109 97//97
f 97//97 109//109 100//100
f 97//97 94//94 89//89
f 97//97 100//100 94//94
f 97//97 89//89 81//81
f 313//313 282//282 307//307
f 31//31 152//152 151//151
f 29//29 150//150 149//149
f 28//28 149//149 148//148
f 30//30 151//151 150//150
f 26//26 147//147 146//146
f 24//24 145//145 144//144
f 23//23 144//144 143//143
f 25//25 146//146 145//145
f 27//27 148//148 147//147
f 21//21 142//142 141//141
f 19//19 140//140 139//139
f 18//18 139//139 138//138
f 20//20 141//141 140//140
f 16//16 137//137 136//136
f 15//15 136//136 135//135
f 13//13 134//134 133//133
f 12//12 133//133 132//132
f 14//14 135//135 134//134
f 17//17 138//138 137//137
f 22//22 143//143 142//142
f 10//10 131//131 130//130
f 8//8 129//129 128//128
f 7//7 128//128 127//127
f 9//9 130//130 129//129
f 5//5 126//126 125//125
f 3//3 124//124 123//123
f 2//2 123//123 122//122
f 4//4 125//125 124//124
f 6//6 127//127 126//126
f 36//36 154//154 158//158
f 38//38 158//158 163//163
f 81//81 183//183 190//190
f 42//42 163//163 183//183
f 1//1 122//122 121//121
f 11//11 132//132 131//131
f 316//316 330//330 329//329
f 352//352 345//345 353//353
f 360//360 353//353 361//361
f 344//344 330//330 345//345
f 376//376 369//369 377//377
f 392//392 385//385 393//393
f 384//384 377//377 385//385
f 400//400 393//393 401//401
f 368//368 361//361 369//369
f 418//418 411//411 419//419
f 426//426 419//419 427//427
f 442//442 435//435 443//443
f 450//450 443//443 451//451
f 434//434 427//427 435//435
f 410//410 401//401 411//411
f 466//466 459//459 467//467
f 708//708 556//556 560//560
f 537//537 540//540 504//504
f 458//458 451//451 459//459
f 32//32 153//153 152//152
f 737//737 603//603 604//604
f 738//738 604//604 605//605
f 740//740 606//606 607//607
f 742//742 608//608 609//609
f 743//743 609//609 610//610
f 741//741 607//607 608//608
f 739//739 605//605 606//606
f 745//745 611//611 612//612
f 747//747 613//613 614//614
f 748//748 614//614 615//615
f 746//746 612//612 613//613
f 750//750 616//616 617//617
f 751//751 617//617 618//618
f 753//753 619//619 620//620
f 754//754 620//620 621//621
f 752//752 618//618 619//619
f 749//749 615//615 616//616
f 744//744 610//610 611//611
f 756//756 622//622 623//623
f 758//758 624//624 625//625
f 759//759 625//625 626//626
f 757//757 623//623 624//624
f 761//761 627//627 628//628
f 764//764 630//630 631//631
f 765//765 631//631 632//632
f 762//762 628//628 629//629
f 760//760 626//626 627//627
f 767//767 633//633 634//634
f 691//691 767//767 634//634
f 719//719 577//577 571//571
f 715//715 571//571 561//561
f 703//703 557//557 544//544
f 699//699 544//544 539//539
f 709//709 561//561 557//557
f 723//723 589//589 577//577
f 766//766 632//632 633//633
f 755//755 621//621 622//622
f 682//682 524//524 518//518
f 551//551 505//505 499//499
f 526//526 499//499 484//484
f 575//575 518//518 505//505
f 482//482 478//478 468//468
f 453//453 460//460 452//452
f 445//445 452//452 444//444
f 461//461 468//468 460//460
f 503//503 484//484 478//478
f 429//429 436//436 428//428
f 413//413 420//420 412//412
f 421//421 428//428 420//420
f 403//403 412//412 402//402
f 437//437 444//444 436//436
f 395//395 402//402 394//394
f 387//387 394//394 386//386
f 371//371 378//378 370//370
f 363//363 370//370 362//362
f 379//379 386//386 378//378
f 693//693 539//539 524//524
f 763//763 629//629 630//630
f 347//347 354//354 346//346
f 311//311 331//331 320//320
f 332//332 346//346 331//331
f 244//244 273//273 254//254
f 254//254 301//301 290//290
f 35//35 108//108 107//107
f 107//107 153//153 33//33
f 355//355 362//362 354//354
f 603//603 713//713 602//602
f 278//278 300//300 308//308
f 108//108 164//164 159//159
f 113//113 236//236 191//191
f 74//74 223//223 75//75
f 72//72 221//221 73//73
f 71//71 220//220 72//72
f 73//73 222//222 74//74
f 69//69 218//218 70//70
f 67//67 216//216 68//68
f 66//66 215//215 67//67
f 68//68 217//217 69//69
f 70//70 219//219 71//71
f 64//64 213//213 65//65
f 62//62 211//211 63//63
f 61//61 210//210 62//62
f 63//63 212//212 64//64
f 59//59 208//208 60//60
f 58//58 207//207 59//59
f 56//56 205//205 57//57
f 55//55 204//204 56//56
f 57//57 206//206 58//58
f 60//60 209//209 61//61
f 65//65 214//214 66//66
f 53//53 202//202 54//54
f 51//51 200//200 52//52
f 50//50 199//199 51//51
f 52//52 201//201 53//53
f 48//48 197//197 49//49
f 46//46 195//195 47//47
f 45//45 194//194 46//46
f 47//47 196//196 48//48
f 49//49 198//198 50//50
f 102//102 96//96 85//85
f 104//104 102//102 89//89
f 119//119 112//112 100//100
f 165//165 119//119 109//109
f 112//112 104//104 94//94
f 44//44 193//193 45//45
f 54//54 203//203 55//55
f 340//340 328//328 326//326
f 356//356 349//349 348//348
f 364//364 357//357 356//356
f 245//245 237//237 96//96
f 260//260 252//252 104//104
f 269//269 260//260 112//112
f 252//252 245//245 102//102
f 380//380 373//373 372//372
f 388//388 381//381 380//380
f 396//396 389//389 388//388
f 372//372 365//365 364//364
f 341//341 334//334 328//328
f 406//406 397//397 396//396
f 349//349 340//340 348//348
f 414//414 407//407 406//406
f 430//430 423//423 422//422
f 438//438 431//431 430//430
f 422//422 415//415 414//414
f 454//454 447//447 446//446
f 493//493 473//473 472//472
f 462//462 455//455 454//454
f 446//446 439//439 438//438
f 704//704 548//548 700//700
f 716//716 568//568 710//710
f 720//720 572//572 716//716
f 710//710 558//558 704//704
f 75//75 224//224 76//76
f 769//769 648//648 768//768
f 771//771 650//650 770//770
f 773//773 652//652 772//772
f 774//774 653//653 773//773
f 772//772 651//651 771//771
f 770//770 649//649 769//769
f 777//777 656//656 776//776
f 779//779 658//658 778//778
f 780//780 659//659 779//779
f 778//778 657//657 777//777
f 782//782 661//661 781//781
f 783//783 662//662 782//782
f 785//785 664//664 784//784
f 786//786 665//665 785//785
f 784//784 663//663 783//783
f 781//781 660//660 780//780
f 776//776 655//655 775//775
f 788//788 667//667 787//787
f 790//790 669//669 789//789
f 791//791 670//670 790//790
f 789//789 668//668 788//788
f 793//793 672//672 792//792
f 795//795 674//674 794//794
f 796//796 675//675 795//795
f 794//794 673//673 793//793
f 792//792 671//671 791//791
f 798//798 677//677 797//797
f 800//800 679//679 799//799
f 695//695 800//800 734//734
f 799//799 678//678 798//798
f 797//797 676//676 796//796
f 787//787 666//666 786//786
f 480//480 496//496 514//514
f 475//475 480//480 494//494
f 457//457 464//464 465//465
f 441//441 448//448 449//449
f 449//449 456//456 457//457
f 433//433 440//440 441//441
f 465//465 475//475 476//476
f 425//425 432//432 433//433
f 417//417 424//424 425//425
f 399//399 408//408 409//409
f 391//391 398//398 399//399
f 409//409 416//416 417//417
f 383//383 390//390 391//391
f 375//375 382//382 383//383
f 359//359 366//366 367//367
f 351//351 358//358 359//359
f 367//367 374//374 375//375
f 327//327 342//342 343//343
f 307//307 335//335 327//327
f 286//286 325//325 307//307
f 343//343 350//350 351//351
f 101//101 270//270 110//110
f 95//95 261//261 101//101
f 110//110 275//275 117//117
f 86//86 246//246 90//90
f 84//84 238//238 86//86
f 76//76 224//224 118//118
f 90//90 253//253 95//95
f 775//775 654//654 774//774
f 485//485 474//474 473//473
f 274//274 269//269 119//119
f 463//463 462//462 473//473
f 636//636 595//595 593//593
f 250//250 234//234 187//187
f 272//272 299//299 277//277
f 509//509 487//487 507//507
f 530//530 509//509 507//507
f 584//584 565//565 563//563
f 597//597 584//584 580//580
f 303//303 277//277 299//299
f 323//323 303//303 299//299
f 490//490 512//512 492//492
f 532//532 512//512 509//509
f 595//595 636//636 645//645
f 647//647 599//599 597//597
f 644//644 628//628 643//643
f 674//674 675//675 644//644
f 642//642 670//670 643//643
f 644//644 678//678 645//645
f 640//640 662//662 641//641
f 666//666 667//667 642//642
f 435//435 427//427 404//404
f 312//312 317//317 336//336
f 227//227 257//257 251//251
f 293//293 317//317 312//312
f 154//154 121//121 157//157
f 579//579 596//596 594//594
f 637//637 635//635 594//594
f 654//654 655//655 639//639
f 562//562 583//583 579//579
f 186//186 180//180 160//160
f 276//276 271//271 251//251
f 271//271 276//276 298//298
f 157//157 179//179 160//160
f 486//486 508//508 506//506
f 506//506 529//529 527//527
f 470//470 486//486 467//467
f 180//180 186//186 239//239
f 639//639 658//658 640//640
f 232//232 226//226 189//189
f 315//315 305//305 303//303
f 596//596 598//598 646//646
f 599//599 587//587 567//567
f 520//520 516//516 512//512
f 583//583 598//598 596//596
f 564//564 585//585 583//583
f 585//585 590//590 598//598
f 572//572 586//586 585//585
f 680//680 601//601 599//599
f 531//531 508//508 511//511
f 511//511 519//519 531//531
f 489//489 511//511 508//508
f 500//500 515//515 511//511
f 317//317 322//322 338//338
f 298//298 322//322 317//317
f 239//239 262//262 257//257
f 179//179 188//188 233//233
f 170//170 188//188 179//179
f 172//172 198//198 171//171
f 174//174 206//206 173//173
f 171//171 194//194 170//170
f 249//249 239//239 186//186
f 302//302 314//314 322//322
f 260//260 269//269 262//262
f 176//176 214//214 175//175
f 177//177 218//218 176//176
f 175//175 210//210 174//174
f 178//178 222//222 177//177
f 185//185 225//225 188//188
f 41//41 33//33 76//76
f 230//230 115//115 156//156
f 244//244 282//282 266//266
f 169//169 230//230 259//259
f 332//332 313//313 333//333
f 355//355 359//359 367//367
f 363//363 367//367 375//375
f 347//347 351//351 359//359
f 379//379 383//383 391//391
f 395//395 399//399 409//409
f 403//403 409//409 417//417
f 387//387 391//391 399//399
f 429//429 433//433 441//441
f 437//437 441//441 449//449
f 453//453 457//457 465//465
f 461//461 465//465 476//476
f 445//445 449//449 457//457
f 421//421 425//425 433//433
f 684//684 697//697 694//694
f 703//703 705//705 711//711
f 371//371 375//375 383//383
f 719//719 721//721 725//725
f 766//766 800//800 799//799
f 764//764 798//798 797//797
f 763//763 797//797 796//796
f 765//765 799//799 798//798
f 230//230 242//242 264//264
f 715//715 717//717 721//721
f 709//709 711//711 717//717
f 510//510 488//488 494//494
f 762//762 796//796 795//795
f 413//413 417//417 425//425
f 313//313 327//327 343//343
f 761//761 795//795 794//794
f 739//739 773//773 772//772
f 760//760 794//794 793//793
f 758//758 792//792 791//791
f 757//757 791//791 790//790
f 759//759 793//793 792//792
f 755//755 789//789 788//788
f 754//754 788//788 787//787
f 752//752 786//786 785//785
f 751//751 785//785 784//784
f 753//753 787//787 786//786
f 756//756 790//790 789//789
f 749//749 783//783 782//782
f 747//747 781//781 780//780
f 746//746 780//780 779//779
f 748//748 782//782 781//781
f 744//744 778//778 777//777
f 743//743 777//777 776//776
f 741//741 775//775 774//774
f 740//740 774//774 773//773
f 742//742 776//776 775//775
f 745//745 779//779 778//778
f 750//750 784//784 783//783
f 800//800 732//732 734//734
f 738//738 772//772 771//771
f 735//735 769//769 768//768
f 730//730 768//768 733//733
f 737//737 771//771 770//770
f 722//722 728//728 724//724
f 714//714 720//720 716//716
f 708//708 716//716 710//710
f 718//718 724//724 720//720
f 726//726 733//733 728//728
f 698//698 704//704 700//700
f 692//692 700//700 696//696
f 466//466 493//493 472//472
f 458//458 472//472 462//462
f 481//481 513//513 493//493
f 550//550 578//578 552//552
f 702//702 710//710 704//704
f 442//442 454//454 446//446
f 426//426 438//438 430//430
f 418//418 430//430 422//422
f 434//434 446//446 438//438
f 400//400 414//414 406//406
f 392//392 406//406 396//396
f 376//376 388//388 380//380
f 368//368 380//380 372//372
f 384//384 396//396 388//388
f 410//410 422//422 414//414
f 352//352 364//364 356//356
f 329//329 348//348 339//339
f 321//321 329//329 339//339
f 344//344 356//356 348//348
f 229//229 166//166 120//120
f 360//360 372//372 364//364
f 450//450 462//462 454//454
f 38//38 85//85 83//83
f 36//36 83//83 79//79
f 1//1 77//77 44//44
f 2//2 44//44 45//45
f 34//34 79//79 77//77
f 42//42 89//89 85//85
f 4//4 46//46 47//47
f 5//5 47//47 48//48
f 3//3 45//45 46//46
f 111//111 120//120 166//166
f 6//6 48//48 49//49
f 7//7 49//49 50//50
f 8//8 50//50 51//51
f 10//10 52//52 53//53
f 11//11 53//53 54//54
f 9//9 51//51 52//52
f 12//12 54//54 55//55
f 13//13 55//55 56//56
f 15//15 57//57 58//58
f 16//16 58//58 59//59
f 14//14 56//56 57//57
f 18//18 60//60 61//61
f 19//19 61//61 62//62
f 21//21 63//63 64//64
f 22//22 64//64 65//65
f 20//20 62//62 63//63
f 17//17 59//59 60//60
f 24//24 66//66 67//67
f 26//26 68//68 69//69
f 27//27 69//69 70//70
f 25//25 67//67 68//68
f 29//29 71//71 72//72
f 30//30 72//72 73//73
f 32//32 74//74 75//75
f 33//33 75//75 76//76
f 31//31 73//73 74//74
f 28//28 70//70 71//71
f 23//23 65//65 66//66
f 736//736 770//770 769//769
f 552//552 581//581 554//554