# PHANTOM Module: COR5
# Units: meters
o COR5

v 1.300000 0.263304 2.260690
v 1.300000 0.263304 2.197430
v 1.300000 0.263304 2.134170
v 1.300000 0.263304 2.070910
v 1.300000 0.263304 2.007649
v 1.300000 0.263304 1.944389
v 1.300000 0.263304 1.881129
v 1.300000 0.263304 1.817869
v 1.300000 0.263304 1.754609
v 1.300000 0.263304 1.691348
v 1.300000 0.263304 1.628088
v 1.300000 0.263304 1.564828
v 1.300000 0.263304 1.501568
v 1.300000 0.263304 1.438308
v 1.300000 0.263304 1.375047
v 1.300000 0.263304 1.311787
v 1.300000 0.263304 1.248527
v 1.300000 0.263304 1.185267
v 1.300000 0.263304 1.122006
v 1.300000 0.263304 1.058746
v 1.300000 0.263304 0.995486
v 1.300000 0.263304 0.932226
v 1.300000 0.263304 0.868966
v 1.300000 0.263304 0.805705
v 1.300000 0.263304 0.742445
v 1.300000 0.263304 0.679185
v 1.300000 0.263304 0.615925
v 1.300000 0.263304 0.552665
v 1.300000 0.263304 0.489404
v 1.300000 0.263304 0.426144
v 1.300000 0.263304 0.362884
v 1.300000 0.263304 0.299624
v 1.300000 0.263304 0.236364
v 1.299123 0.263304 2.281929
v 1.299123 0.263304 0.215125
v 1.298558 0.186531 2.260690
v 1.297682 0.186552 2.281929
v 1.296383 0.263304 2.303699
v 1.296383 0.263304 0.193354
v 1.295053 0.000000 2.260690
v 1.295053 0.000000 2.197430
v 1.295053 0.000000 2.134170
v 1.295053 0.000000 2.070910
v 1.295053 0.000000 2.007649
v 1.295053 0.000000 1.944389
v 1.295053 0.000000 1.881129
v 1.295053 0.000000 1.817869
v 1.295053 0.000000 1.754609
v 1.295053 0.000000 1.691348
v 1.295053 0.000000 1.628088
v 1.295053 0.000000 1.564828
v 1.295053 0.000000 1.501568
v 1.295053 0.000000 1.438308
v 1.295053 0.000000 1.375047
v 1.295053 0.000000 1.311787
v 1.295053 0.000000 1.248527
v 1.295053 0.000000 1.185267
v 1.295053 0.000000 1.122006
v 1.295053 0.000000 1.058746
v 1.295053 0.000000 0.995486
v 1.295053 0.000000 0.932226
v 1.295053 0.000000 0.868966
v 1.295053 0.000000 0.805705
v 1.295053 0.000000 0.742445
v 1.295053 0.000000 0.679185
v 1.295053 0.000000 0.615925
v 1.295053 0.000000 0.552665
v 1.295053 0.000000 0.489404
v 1.295053 0.000000 0.426144
v 1.295053 0.000000 0.362884
v 1.295053 0.000000 0.299624
v 1.295053 0.000000 0.236364
v 1.294180 0.000076 2.281929
v 1.294180 0.000076 0.215125
v 1.292888 0.076996 0.193354
v 1.291636 0.263304 2.325727
v 1.291636 0.263304 0.171326
v 1.291450 0.000317 2.303699
v 1.291450 0.000317 0.193354
v 1.286721 0.000729 2.325727
v 1.286721 0.000729 0.171326
v 1.284787 0.263304 2.347694
v 1.284787 0.263304 0.149359
v 1.279898 0.001326 2.347694
v 1.279898 0.001326 0.149359
v 1.275795 0.263304 2.369251
v 1.275795 0.263304 0.127803
v 1.271558 0.263304 2.260690
v 1.270940 0.002110 2.369251
v 1.270940 0.002110 0.127803
v 1.264682 0.263304 2.390031
v 1.264682 0.263304 0.107023
v 1.259870 0.003078 2.390031
v 1.259870 0.003078 0.107023
v 1.251543 0.263304 2.409670
v 1.251543 0.263304 0.087384
v 1.246781 0.004223 2.409670
v 1.246781 0.004223 0.087384
v 1.236540 0.263304 2.427824
v 1.236540 0.263304 0.069229
v 1.231834 0.005531 2.427824
v 1.231834 0.005531 0.069229
v 1.219898 0.263304 2.444192
v 1.219898 0.263304 0.052862
v 1.219555 0.263304 2.274097
v 1.216429 0.263304 0.091169
v 1.215256 0.006981 2.444192
v 1.215256 0.006981 0.052862
v 1.214828 0.263304 2.301746
v 1.213190 0.007162 2.287841
v 1.211800 0.007284 2.405885
v 1.211800 0.007284 0.091169
v 1.210505 0.263304 0.181441
v 1.205899 0.007801 0.181441
v 1.204828 0.263304 0.167833
v 1.201895 0.263304 2.458525
v 1.201895 0.263304 0.038528
v 1.200562 0.189024 2.458525
v 1.197813 0.263304 0.154715
v 1.197322 0.008551 2.458525
v 1.197322 0.008551 0.038528
v 1.193255 0.008907 2.342339
v 1.193255 0.008907 0.154715
v 1.191667 0.263304 2.260690
v 1.191667 0.263304 2.197430
v 1.191667 0.263304 2.134170
v 1.191667 0.263304 2.070910
v 1.191667 0.263304 2.007649
v 1.191667 0.263304 1.944389
v 1.191667 0.263304 1.881129
v 1.191667 0.263304 1.817869
v 1.191667 0.263304 1.754609
v 1.191667 0.263304 1.691348
v 1.191667 0.263304 1.628088
v 1.191667 0.263304 1.564828
v 1.191667 0.263304 1.501568
v 1.191667 0.263304 1.438308
v 1.191667 0.263304 1.375047
v 1.191667 0.263304 1.311787
v 1.191667 0.263304 1.248527
v 1.191667 0.263304 1.185267
v 1.191667 0.263304 1.122006
v 1.191667 0.263304 1.058746
v 1.191667 0.263304 0.995486
v 1.191667 0.263304 0.932226
v 1.191667 0.263304 0.868966
v 1.191667 0.263304 0.805705
v 1.191667 0.263304 0.742445
v 1.191667 0.263304 0.679185
v 1.191667 0.263304 0.615925
v 1.191667 0.263304 0.552665
v 1.191667 0.263304 0.489404
v 1.191667 0.263304 0.426144
v 1.191667 0.263304 0.362884
v 1.191667 0.263304 0.299624
v 1.191667 0.263304 0.236364
v 1.190884 0.219496 2.260690
v 1.189858 0.263304 2.282195
v 1.189858 0.263304 0.214859
v 1.189519 0.263304 2.354736
v 1.189399 0.136374 2.260690
v 1.189399 0.136374 2.007649
v 1.189399 0.136374 1.754609
v 1.189399 0.136374 1.501568
v 1.189399 0.136374 1.248527
v 1.189399 0.136374 0.995486
v 1.189399 0.136374 0.742445
v 1.189399 0.136374 0.489404
v 1.189399 0.136374 0.236364
v 1.189077 0.219522 0.214859
v 1.187594 0.136452 2.282195
v 1.187485 0.263304 2.293209
v 1.187485 0.263304 0.203845
v 1.187132 0.009441 2.260690
v 1.187132 0.009441 2.197430
v 1.187132 0.009441 2.134170
v 1.187132 0.009441 2.070910
v 1.187132 0.009441 2.007649
v 1.187132 0.009441 1.944389
v 1.187132 0.009441 1.881129
v 1.187132 0.009441 1.817869
v 1.187132 0.009441 1.754609
v 1.187132 0.009441 1.691348
v 1.187132 0.009441 1.628088
v 1.187132 0.009441 1.564828
v 1.187132 0.009441 1.501568
v 1.187132 0.009441 1.438308
v 1.187132 0.009441 1.375047
v 1.187132 0.009441 1.311787
v 1.187132 0.009441 1.248527
v 1.187132 0.009441 1.185267
v 1.187132 0.009441 1.122006
v 1.187132 0.009441 1.058746
v 1.187132 0.009441 0.995486
v 1.187132 0.009441 0.932226
v 1.187132 0.009441 0.868966
v 1.187132 0.009441 0.805705
v 1.187132 0.009441 0.742445
v 1.187132 0.009441 0.679185
v 1.187132 0.009441 0.615925
v 1.187132 0.009441 0.552665
v 1.187132 0.009441 0.489404
v 1.187132 0.009441 0.426144
v 1.187132 0.009441 0.362884
v 1.187132 0.009441 0.299624
v 1.187132 0.009441 0.236364
v 1.186112 0.053381 2.282195
v 1.186112 0.053381 0.214859
v 1.185330 0.009600 2.282195
v 1.185330 0.009600 0.214859
v 1.184992 0.009630 2.354736
v 1.184060 0.263304 2.304192
v 1.184060 0.263304 0.192862
v 1.183283 0.219610 2.304192
v 1.183283 0.219610 0.192862
v 1.182966 0.009808 2.293209
v 1.182966 0.009808 0.203845
v 1.182847 0.263304 2.470648
v 1.182847 0.263304 0.026406
v 1.181807 0.136703 2.304192
v 1.181807 0.136703 0.192862
v 1.180332 0.053799 0.192862
v 1.179564 0.263304 2.314970
v 1.179564 0.263304 0.182083
v 1.179555 0.010105 2.304192
v 1.179555 0.010105 0.192862
v 1.178346 0.010212 2.470648
v 1.178346 0.010212 0.026406
v 1.175075 0.010498 2.314970
v 1.175075 0.010498 0.182083
v 1.174008 0.263304 2.325360
v 1.174008 0.263304 0.171693
v 1.173237 0.219761 2.325360
v 1.171774 0.137142 2.325360
v 1.171774 0.137142 0.171693
v 1.170311 0.054523 2.325360
v 1.169784 0.263304 2.443087
v 1.169784 0.263304 0.053966
v 1.169542 0.263304 2.376529
v 1.169540 0.010981 2.325360
v 1.169540 0.010981 0.171693
v 1.167438 0.263304 2.335180
v 1.167438 0.263304 0.161874
v 1.163087 0.263304 2.480458
v 1.163087 0.263304 0.016595
v 1.162996 0.011555 2.335180
v 1.162996 0.011555 0.161874
v 1.159936 0.263304 2.344257
v 1.159936 0.263304 0.152796
v 1.159175 0.219973 2.344257
v 1.158661 0.011932 2.480458
v 1.158661 0.011932 0.016595
v 1.158178 0.263304 2.385577
v 1.158178 0.263304 0.111476
v 1.157730 0.137754 2.344257
v 1.157730 0.137754 0.152796
v 1.156284 0.055538 2.344257
v 1.155523 0.012207 2.344257
v 1.155523 0.012207 0.152796
v 1.152618 0.263304 0.045444
v 1.151616 0.263304 2.352441
v 1.151616 0.263304 0.144613
v 1.148232 0.012846 0.045444
v 1.147233 0.012934 2.352441
v 1.147233 0.012934 0.144613
v 1.142951 0.263304 2.487930
v 1.142951 0.263304 0.009124
v 1.142614 0.263304 2.359608
v 1.142614 0.263304 0.137446
v 1.141864 0.220234 2.359608
v 1.140440 0.138510 2.359608
v 1.140440 0.138510 0.137446
v 1.139870 0.086470 0.009124
v 1.139017 0.056787 2.359608
v 1.138602 0.013689 2.487930
v 1.138602 0.013689 0.009124
v 1.138266 0.013718 2.359608
v 1.138266 0.013718 0.137446
v 1.133090 0.263304 2.365669
v 1.133090 0.263304 0.131385
v 1.129365 0.014496 2.399423
v 1.128778 0.014547 2.365669
v 1.128778 0.014547 0.131385
v 1.123210 0.263304 2.370574
v 1.123210 0.263304 0.126480
v 1.122759 0.263304 2.493108
v 1.122759 0.263304 0.003946
v 1.122473 0.220526 2.370574
v 1.121513 0.191034 2.493108
v 1.121073 0.139357 2.370574
v 1.121073 0.139357 0.126480
v 1.120968 0.263304 2.404140
v 1.119674 0.058187 2.370574
v 1.119674 0.058187 0.126480
v 1.118936 0.015409 2.370574
v 1.118936 0.015409 0.126480
v 1.118486 0.015448 2.493108
v 1.118486 0.015448 0.003946
v 1.116702 0.015604 2.404140
v 1.113142 0.263304 2.374310
v 1.113142 0.263304 0.122744
v 1.108906 0.016287 2.374310
v 1.108906 0.016287 0.122744
v 1.108221 0.263304 2.407408
v 1.103046 0.263304 2.376899
v 1.103046 0.263304 0.120155
v 1.102802 0.263304 2.496098
v 1.102802 0.263304 0.000956
v 1.100947 0.140234 2.376899
v 1.100947 0.140234 0.120155
v 1.100246 0.263304 0.031858
v 1.099573 0.059641 0.120155
v 1.098848 0.017166 2.376899
v 1.098848 0.017166 0.120155
v 1.098605 0.017187 2.496098
v 1.098605 0.017187 0.000956
v 1.093067 0.263304 2.378394
v 1.093067 0.263304 0.118660
v 1.088908 0.018036 2.378394
v 1.088908 0.018036 0.118660
v 1.083333 0.263304 2.497054
v 1.083333 0.263304 2.409899
v 1.083333 0.263304 2.378872
v 1.083333 0.263304 0.118182
v 1.083333 0.263304 0.000000
v 1.082622 0.221125 2.378872
v 1.081272 0.141094 2.378872
v 1.081272 0.141094 0.118182
v 1.079922 0.061062 2.378872
v 1.079211 0.018885 2.497054
v 1.079211 0.018885 2.409899
v 1.079211 0.018885 2.378872
v 1.079211 0.018885 0.118182
v 1.079211 0.018885 0.000000
v 1.029167 0.263304 2.497054
v 1.029167 0.263304 2.378872
v 1.029167 0.263304 0.118182
v 1.029167 0.263304 0.000000
v 1.025250 0.023605 2.497054
v 1.025250 0.023605 2.378872
v 1.025250 0.023605 0.118182
v 1.025250 0.023605 0.000000
v 0.975000 0.263304 2.497054
v 0.975000 0.263304 2.378872
v 0.975000 0.263304 0.118182
v 0.975000 0.263304 0.000000
v 0.971290 0.028326 2.497054
v 0.971290 0.028326 2.378872
v 0.971290 0.028326 0.118182
v 0.971290 0.028326 0.000000
v 0.920833 0.263304 2.497054
v 0.920833 0.263304 2.378872
v 0.920833 0.263304 0.118182
v 0.920833 0.263304 0.000000
v 0.917329 0.033047 2.497054
v 0.917329 0.033047 2.378872
v 0.917329 0.033047 0.118182
v 0.917329 0.033047 0.000000
v 0.866667 0.263304 2.497054
v 0.866667 0.263304 2.378872
v 0.866667 0.263304 0.118182
v 0.866667 0.263304 0.000000
v 0.863369 0.037767 2.497054
v 0.863369 0.037767 2.378872
v 0.863369 0.037767 0.118182
v 0.863369 0.037767 0.000000
v 0.812500 0.263304 2.497054
v 0.812500 0.263304 2.378872
v 0.812500 0.263304 0.118182
v 0.812500 0.263304 0.000000
v 0.809408 0.042488 2.497054
v 0.809408 0.042488 2.378872
v 0.809408 0.042488 0.118182
v 0.809408 0.042488 0.000000
v 0.758333 0.263304 2.497054
v 0.758333 0.263304 2.378872
v 0.758333 0.263304 0.118182
v 0.758333 0.263304 0.000000
v 0.755448 0.047211 2.497054
v 0.755448 0.047211 2.378872
v 0.755448 0.047211 0.118182
v 0.755448 0.047211 0.000000
v 0.704167 0.263304 2.497054
v 0.704167 0.263304 2.378872
v 0.704167 0.263304 0.118182
v 0.704167 0.263304 0.000000
v 0.701487 0.051931 2.497054
v 0.701487 0.051931 2.378872
v 0.701487 0.051931 0.118182
v 0.701487 0.051931 0.000000
v 0.650000 0.263304 2.497054
v 0.650000 0.263304 2.378872
v 0.650000 0.263304 0.118182
v 0.650000 0.263304 0.000000
v 0.648763 0.159977 2.378872
v 0.648763 0.159977 0.118182
v 0.647527 0.056652 2.497054
v 0.647527 0.056652 2.378872
v 0.647527 0.056652 0.118182
v 0.647527 0.056652 0.000000
v 0.595833 0.263304 2.497054
v 0.595833 0.263304 2.378872
v 0.595833 0.263304 0.118182
v 0.595833 0.263304 0.000000
v 0.593566 0.061373 2.497054
v 0.593566 0.061373 2.378872
v 0.593566 0.061373 0.118182
v 0.593566 0.061373 0.000000
v 0.541667 0.263304 2.497054
v 0.541667 0.263304 2.378872
v 0.541667 0.263304 0.118182
v 0.541667 0.263304 0.000000
v 0.539605 0.066093 2.497054
v 0.539605 0.066093 2.378872
v 0.539605 0.066093 0.118182
v 0.539605 0.066093 0.000000
v 0.487500 0.263304 2.497054
v 0.487500 0.263304 2.378872
v 0.487500 0.263304 0.118182
v 0.487500 0.263304 0.000000
v 0.485645 0.070814 2.497054
v 0.485645 0.070814 2.378872
v 0.485645 0.070814 0.118182
v 0.485645 0.070814 0.000000
v 0.433333 0.263304 2.497054
v 0.433333 0.263304 2.378872
v 0.433333 0.263304 0.118182
v 0.433333 0.263304 0.000000
v 0.431684 0.075535 2.497054
v 0.431684 0.075535 2.378872
v 0.431684 0.075535 0.118182
v 0.431684 0.075535 0.000000
v 0.379167 0.263304 2.497054
v 0.379167 0.263304 2.378872
v 0.379167 0.263304 0.118182
v 0.379167 0.263304 0.000000
v 0.377724 0.080256 2.497054
v 0.377724 0.080256 2.378872
v 0.377724 0.080256 0.118182
v 0.377724 0.080256 0.000000
v 0.325000 0.263304 2.497054
v 0.325000 0.263304 2.378872
v 0.325000 0.263304 0.118182
v 0.325000 0.263304 0.000000
v 0.323763 0.084978 2.497054
v 0.323763 0.084978 2.378872
v 0.323763 0.084978 0.118182
v 0.323763 0.084978 0.000000
v 0.270833 0.263304 2.497054
v 0.270833 0.263304 2.378872
v 0.270833 0.263304 0.118182
v 0.270833 0.263304 0.000000
v 0.269803 0.089699 2.497054
v 0.269803 0.089699 2.378872
v 0.269803 0.089699 0.118182
v 0.269803 0.089699 0.000000
v 0.216666 0.263304 2.497054
v 0.216666 0.263304 2.378872
v 0.216666 0.263304 0.118182
v 0.216666 0.263304 0.000000
v 0.216426 0.214060 0.000000
v 0.216254 0.178862 2.378872
v 0.216254 0.178862 0.118182
v 0.215842 0.094419 2.497054
v 0.215842 0.094419 2.378872
v 0.215842 0.094419 0.118182
v 0.215842 0.094419 0.000000
v 0.206932 0.263304 2.378394
v 0.206932 0.263304 0.118660
v 0.206145 0.095268 2.378394
v 0.206145 0.095268 0.118660
v 0.199754 0.263304 0.031858
v 0.198994 0.095894 0.031858
v 0.197198 0.263304 2.496098
v 0.197198 0.263304 0.000956
v 0.196954 0.263304 2.376899
v 0.196954 0.263304 0.120155
v 0.196825 0.234455 2.376899
v 0.196666 0.144863 0.000956
v 0.196579 0.179720 2.376899
v 0.196579 0.179720 0.120155
v 0.196448 0.096115 2.496098
v 0.196448 0.096115 0.000956
v 0.196204 0.096138 2.376899
v 0.196204 0.096138 0.120155
v 0.186858 0.263304 2.374310
v 0.186858 0.263304 0.122744
v 0.186147 0.097017 2.374310
v 0.186147 0.097017 0.122744
v 0.179032 0.263304 0.092914
v 0.178350 0.097700 2.404140
v 0.178350 0.097700 0.092914
v 0.177241 0.263304 2.493108
v 0.177241 0.263304 0.003946
v 0.177045 0.215063 2.493108
v 0.176790 0.263304 2.370574
v 0.176790 0.263304 0.126480
v 0.176674 0.234758 2.370574
v 0.176674 0.234758 0.126480
v 0.176567 0.097855 2.493108
v 0.176567 0.097855 0.003946
v 0.176453 0.180599 2.370574
v 0.176453 0.180599 0.126480
v 0.176233 0.126438 0.126480
v 0.176117 0.097895 2.370574
v 0.176117 0.097895 0.126480
v 0.166910 0.263304 2.365669
v 0.166910 0.263304 0.131385
v 0.166321 0.263304 2.399423
v 0.166275 0.098755 2.365669
v 0.166275 0.098755 0.131385
v 0.165688 0.098806 0.097631
v 0.157386 0.263304 2.359608
v 0.157386 0.263304 0.137446
v 0.157086 0.181444 2.359608
v 0.157086 0.181444 0.137446
v 0.157049 0.263304 2.487930
v 0.157049 0.263304 0.009124
v 0.156787 0.099586 2.359608
v 0.156787 0.099586 0.137446
v 0.156451 0.099615 2.487930
v 0.156451 0.099615 0.009124
v 0.148384 0.263304 2.352441
v 0.148384 0.263304 0.144613
v 0.147820 0.100370 2.352441
v 0.147820 0.100370 0.144613
v 0.141822 0.263304 2.385577
v 0.141282 0.100943 2.385577
v 0.141282 0.100943 0.111476
v 0.140063 0.263304 2.344257
v 0.140063 0.263304 0.152796
v 0.139971 0.235312 2.344257
v 0.139797 0.182199 2.344257
v 0.139797 0.182199 0.152796
v 0.139622 0.129087 2.344257
v 0.139530 0.101095 2.344257
v 0.139530 0.101095 0.152796
v 0.136913 0.263304 2.480458
v 0.136913 0.263304 0.016595
v 0.136392 0.101370 2.480458
v 0.136392 0.101370 0.016595
v 0.132562 0.263304 2.335180
v 0.132562 0.263304 0.161874
v 0.132057 0.101749 2.335180
v 0.132057 0.101749 0.161874
v 0.130458 0.263304 2.376529
v 0.129961 0.101933 2.376529
v 0.129961 0.101933 0.120525
v 0.125992 0.263304 2.325360
v 0.125992 0.263304 0.171693
v 0.125909 0.235523 2.325360
v 0.125752 0.182812 2.325360
v 0.125752 0.182812 0.171693
v 0.125595 0.130102 2.325360
v 0.125513 0.102322 2.325360
v 0.125513 0.102322 0.171693
v 0.120436 0.263304 2.314970
v 0.120436 0.263304 0.182083
v 0.119977 0.102806 2.314970
v 0.119977 0.102806 0.182083
v 0.117153 0.263304 2.470648
v 0.117153 0.263304 0.026406
v 0.116707 0.103092 2.470648
v 0.116707 0.103092 0.026406
v 0.115939 0.263304 2.304192
v 0.115939 0.263304 0.192862
v 0.115719 0.183250 2.304192
v 0.115719 0.183250 0.192862
v 0.115498 0.103199 2.304192
v 0.115498 0.103199 0.192862
v 0.113668 0.263304 0.064498
v 0.112515 0.263304 2.293209
v 0.112515 0.263304 0.203845
v 0.112087 0.103497 2.293209
v 0.112087 0.103497 0.203845
v 0.110142 0.263304 2.282195
v 0.110142 0.263304 0.214859
v 0.110070 0.235762 2.282195
v 0.110060 0.103674 0.142318
v 0.109932 0.183504 2.282195
v 0.109932 0.183504 0.214859
v 0.109723 0.103703 2.282195
v 0.109723 0.103703 0.214859
v 0.108333 0.263304 2.260690
v 0.108333 0.263304 2.197430
v 0.108333 0.263304 2.134170
v 0.108333 0.263304 2.070910
v 0.108333 0.263304 2.007649
v 0.108333 0.263304 1.944389
v 0.108333 0.263304 1.881129
v 0.108333 0.263304 1.817869
v 0.108333 0.263304 1.754609
v 0.108333 0.263304 1.691348
v 0.108333 0.263304 1.628088
v 0.108333 0.263304 1.564828
v 0.108333 0.263304 1.501568
v 0.108333 0.263304 1.438308
v 0.108333 0.263304 1.375047
v 0.108333 0.263304 1.311787
v 0.108333 0.263304 1.248527
v 0.108333 0.263304 1.185267
v 0.108333 0.263304 1.122006
v 0.108333 0.263304 1.058746
v 0.108333 0.263304 0.995486
v 0.108333 0.263304 0.932226
v 0.108333 0.263304 0.868966
v 0.108333 0.263304 0.805705
v 0.108333 0.263304 0.742445
v 0.108333 0.263304 0.679185
v 0.108333 0.263304 0.615925
v 0.108333 0.263304 0.552665
v 0.108333 0.263304 0.489404
v 0.108333 0.263304 0.426144
v 0.108333 0.263304 0.362884
v 0.108333 0.263304 0.299624
v 0.108333 0.263304 0.236364
v 0.108127 0.183582 2.260690
v 0.108127 0.183582 2.007649
v 0.108127 0.183582 1.754609
v 0.108127 0.183582 1.501568
v 0.108127 0.183582 1.248527
v 0.108127 0.183582 0.995486
v 0.108127 0.183582 0.742445
v 0.108127 0.183582 0.489404
v 0.108127 0.183582 0.236364
v 0.107921 0.103861 2.260690
v 0.107921 0.103861 2.197430
v 0.107921 0.103861 2.134170
v 0.107921 0.103861 2.070910
v 0.107921 0.103861 2.007649
v 0.107921 0.103861 1.944389
v 0.107921 0.103861 1.881129
v 0.107921 0.103861 1.817869
v 0.107921 0.103861 1.754609
v 0.107921 0.103861 1.691348
v 0.107921 0.103861 1.628088
v 0.107921 0.103861 1.564828
v 0.107921 0.103861 1.501568
v 0.107921 0.103861 1.438308
v 0.107921 0.103861 1.375047
v 0.107921 0.103861 1.311787
v 0.107921 0.103861 1.248527
v 0.107921 0.103861 1.185267
v 0.107921 0.103861 1.122006
v 0.107921 0.103861 1.058746
v 0.107921 0.103861 0.995486
v 0.107921 0.103861 0.932226
v 0.107921 0.103861 0.868966
v 0.107921 0.103861 0.805705
v 0.107921 0.103861 0.742445
v 0.107921 0.103861 0.679185
v 0.107921 0.103861 0.615925
v 0.107921 0.103861 0.552665
v 0.107921 0.103861 0.489404
v 0.107921 0.103861 0.426144
v 0.107921 0.103861 0.362884
v 0.107921 0.103861 0.299624
v 0.107921 0.103861 0.236364
v 0.098104 0.263304 2.458525
v 0.098104 0.263304 0.038528
v 0.097731 0.104753 2.458525
v 0.097731 0.104753 0.038528
v 0.089154 0.105503 2.315613
v 0.089154 0.105503 0.181441
v 0.085171 0.263304 2.301746
v 0.084847 0.105879 0.195308
v 0.080445 0.263304 2.274097
v 0.080139 0.106291 0.222957
v 0.080102 0.263304 2.444192
v 0.080102 0.263304 0.052862
v 0.080013 0.217531 2.444192
v 0.079797 0.106321 2.444192
v 0.079797 0.106321 0.052862
v 0.079588 0.106340 2.260690
v 0.063460 0.263304 2.427824
v 0.063460 0.263304 0.069229
v 0.063289 0.153120 2.427824
v 0.063219 0.107773 2.427824
v 0.063219 0.107773 0.069229
v 0.048457 0.263304 2.409670
v 0.048457 0.263304 0.087384
v 0.048326 0.154047 2.409670
v 0.048326 0.154047 0.087384
v 0.048272 0.109079 2.409670
v 0.048272 0.109079 0.087384
v 0.035317 0.263304 2.390031
v 0.035317 0.263304 0.107023
v 0.035278 0.218670 2.390031
v 0.035278 0.218670 0.107023
v 0.035183 0.110226 2.390031
v 0.035183 0.110226 0.107023
v 0.028333 0.110825 0.236364
v 0.024205 0.263304 2.369251
v 0.024205 0.263304 0.127803
v 0.024113 0.111193 2.369251
v 0.024113 0.111193 0.127803
v 0.015213 0.263304 2.347694
v 0.015213 0.263304 0.149359
v 0.015196 0.219179 2.347694
v 0.015172 0.156099 0.149359
v 0.015155 0.111977 2.347694
v 0.015155 0.111977 0.149359
v 0.008363 0.263304 2.325727
v 0.008363 0.263304 0.171326
v 0.008354 0.219355 0.171326
v 0.008332 0.112574 2.325727
v 0.008332 0.112574 0.171326
v 0.003617 0.263304 2.303699
v 0.003617 0.263304 0.193354
v 0.003603 0.112988 2.303699
v 0.003603 0.112988 0.193354
v 0.000876 0.263304 2.281929
v 0.000876 0.263304 0.215125
v 0.000875 0.219543 2.281929
v 0.000873 0.113226 2.281929
v 0.000873 0.113226 0.215125
v 0.000000 0.263304 2.260690
v 0.000000 0.263304 2.197430
v 0.000000 0.263304 2.134170
v 0.000000 0.263304 2.070910
v 0.000000 0.263304 2.007649
v 0.000000 0.263304 1.944389
v 0.000000 0.263304 1.881129
v 0.000000 0.263304 1.817869
v 0.000000 0.263304 1.754609
v 0.000000 0.263304 1.691348
v 0.000000 0.263304 1.628088
v 0.000000 0.263304 1.564828
v 0.000000 0.263304 1.501568
v 0.000000 0.263304 1.438308
v 0.000000 0.263304 1.375047
v 0.000000 0.263304 1.311787
v 0.000000 0.263304 1.248527
v 0.000000 0.263304 1.185267
v 0.000000 0.263304 1.122006
v 0.000000 0.263304 1.058746
v 0.000000 0.263304 0.995486
v 0.000000 0.263304 0.932226
v 0.000000 0.263304 0.868966
v 0.000000 0.263304 0.805705
v 0.000000 0.263304 0.742445
v 0.000000 0.263304 0.679185
v 0.000000 0.263304 0.615925
v 0.000000 0.263304 0.552665
v 0.000000 0.263304 0.489404
v 0.000000 0.263304 0.426144
v 0.000000 0.263304 0.362884
v 0.000000 0.263304 0.299624
v 0.000000 0.263304 0.236364
v 0.000000 0.113302 2.260690
v 0.000000 0.113302 2.197430
v 0.000000 0.113302 2.134170
v 0.000000 0.113302 2.070910
v 0.000000 0.113302 2.007649
v 0.000000 0.113302 1.944389
v 0.000000 0.113302 1.881129
v 0.000000 0.113302 1.817869
v 0.000000 0.113302 1.754609
v 0.000000 0.113302 1.691348
v 0.000000 0.113302 1.628088
v 0.000000 0.113302 1.564828
v 0.000000 0.113302 1.501568
v 0.000000 0.113302 1.438308
v 0.000000 0.113302 1.375047
v 0.000000 0.113302 1.311787
v 0.000000 0.113302 1.248527
v 0.000000 0.113302 1.185267
v 0.000000 0.113302 1.122006
v 0.000000 0.113302 1.058746
v 0.000000 0.113302 0.995486
v 0.000000 0.113302 0.932226
v 0.000000 0.113302 0.868966
v 0.000000 0.113302 0.805705
v 0.000000 0.113302 0.742445
v 0.000000 0.113302 0.679185
v 0.000000 0.113302 0.615925
v 0.000000 0.113302 0.552665
v 0.000000 0.113302 0.489404
v 0.000000 0.113302 0.426144
v 0.000000 0.113302 0.362884
v 0.000000 0.113302 0.299624
v 0.000000 0.113302 0.236364

vn 0.713488 0.700513 0.014715
vn 0.713717 0.700434 -0.000000
vn 0.713717 0.700434 0.000000
vn 0.713717 0.700434 0.000000
vn 0.713717 0.700434 0.000000
vn 0.713717 0.700434 0.000000
vn 0.713717 0.700434 0.000000
vn 0.713717 0.700434 0.000000
vn 0.713717 0.700434 0.000000
vn 0.713717 0.700434 0.000000
vn 0.713717 0.700434 0.000000
vn 0.713717 0.700434 0.000000
vn 0.713717 0.700434 0.000000
vn 0.713717 0.700434 0.000000
vn 0.713717 0.700434 0.000000
vn 0.713717 0.700434 0.000000
vn 0.713717 0.700434 0.000000
vn 0.713717 0.700434 0.000000
vn 0.713717 0.700434 0.000000
vn 0.713717 0.700434 0.000000
vn 0.713717 0.700434 0.000000
vn 0.713717 0.700434 0.000000
vn 0.713717 0.700434 0.000000
vn 0.713717 0.700434 0.000000
vn 0.713717 0.700434 0.000000
vn 0.713717 0.700434 0.000000
vn 0.713717 0.700434 0.000000
vn 0.713717 0.700434 0.000000
vn 0.713717 0.700434 0.000000
vn 0.713717 0.700434 0.000000
vn 0.713717 0.700434 0.000000
vn 0.713717 0.700434 0.000000
vn 0.807529 0.589287 -0.025244
vn 0.711711 0.700737 0.049346
vn 0.558405 0.828259 -0.046590
vn 0.999547 -0.018777 0.023541
vn 0.991057 -0.020697 0.131826
vn 0.554140 0.827055 0.094387
vn 0.551093 0.829147 -0.093877
vn 0.497857 -0.867179 0.011791
vn 0.773400 -0.633918 -0.000000
vn 0.668637 -0.743589 0.000000
vn 0.668637 -0.743589 0.000000
vn 0.668637 -0.743589 0.000000
vn 0.668637 -0.743589 0.000000
vn 0.668637 -0.743589 0.000000
vn 0.668637 -0.743589 0.000000
vn 0.668637 -0.743589 0.000000
vn 0.668637 -0.743589 0.000000
vn 0.668637 -0.743589 0.000000
vn 0.668637 -0.743589 0.000000
vn 0.668637 -0.743589 0.000000
vn 0.668637 -0.743589 0.000000
vn 0.668637 -0.743589 0.000000
vn 0.668637 -0.743589 0.000000
vn 0.668637 -0.743589 0.000000
vn 0.668637 -0.743589 0.000000
vn 0.668637 -0.743589 0.000000
vn 0.668637 -0.743589 0.000000
vn 0.668637 -0.743589 0.000000
vn 0.668637 -0.743589 0.000000
vn 0.668637 -0.743589 0.000000
vn 0.668637 -0.743589 0.000000
vn 0.668637 -0.743589 0.000000
vn 0.668637 -0.743589 0.000000
vn 0.668637 -0.743589 0.000000
vn 0.668637 -0.743589 0.000000
vn 0.668637 -0.743589 0.000000
vn 0.668637 -0.743589 0.000000
vn 0.668637 -0.743589 0.000000
vn 0.668637 -0.743589 0.000000
vn 0.670682 -0.741114 -0.030596
vn 0.807203 -0.587283 0.059347
vn 0.498668 -0.865475 -0.047790
vn 0.985454 -0.015519 -0.169234
vn 0.875454 0.430263 0.220123
vn 0.691501 0.699098 -0.181901
vn 0.659446 -0.741637 0.122906
vn 0.489348 -0.866798 -0.095916
vn 0.787684 -0.584777 0.193881
vn 0.648204 -0.738217 -0.186729
vn 0.783521 0.544981 0.298481
vn 0.761749 0.590224 -0.267160
vn 0.513104 -0.834162 0.202234
vn 0.768262 -0.580875 -0.268993
vn 0.541863 0.796702 0.267677
vn 0.638900 0.701567 -0.315612
vn 0.000000 1.000000 0.000000
vn 0.730119 -0.584167 0.354507
vn 0.600711 -0.740239 -0.301981
vn 0.711367 0.546041 0.442489
vn 0.711367 0.546041 -0.442488
vn 0.567561 -0.738440 0.364116
vn 0.691260 -0.582577 -0.427509
vn 0.663197 0.546729 0.511134
vn 0.563804 0.702358 -0.434532
vn 0.527322 -0.736260 0.424090
vn 0.527323 -0.736259 -0.424090
vn 0.509785 0.699459 0.500875
vn 0.607117 0.547512 -0.575882
vn 0.626016 -0.465308 0.625773
vn 0.588737 -0.578389 -0.564672
vn 0.372050 0.827667 0.420175
vn 0.462069 0.703378 -0.540141
vn 0.000000 1.000000 0.000000
vn 0.000000 1.000000 0.000000
vn 0.418735 -0.728061 0.542760
vn 0.525671 -0.575832 -0.626169
vn 0.000000 1.000000 0.000000
vn -0.087163 -0.996194 0.000004
vn -0.087165 -0.996194 -0.000004
vn -0.087160 -0.996194 0.000009
vn 0.000000 1.000000 0.000000
vn -0.087167 -0.996194 -0.000005
vn 0.000000 1.000000 0.000000
vn 0.323347 0.830634 0.453314
vn 0.402388 0.703953 -0.585263
vn 0.580998 -0.014253 0.813780
vn 0.000000 1.000000 0.000000
vn 0.184785 -0.910721 0.369381
vn 0.293096 -0.820121 -0.491422
vn -0.087163 -0.996194 0.000016
vn -0.087151 -0.996195 0.000000
vn -0.549282 0.835319 -0.023058
vn -0.443981 0.896036 0.000000
vn -0.793102 0.609089 -0.000000
vn -0.550096 0.835102 0.000000
vn -0.550096 0.835102 0.000000
vn -0.550096 0.835102 0.000000
vn -0.700764 0.713393 0.000000
vn -0.550096 0.835102 0.000000
vn -0.550096 0.835102 0.000000
vn -0.550096 0.835102 0.000000
vn -0.700764 0.713393 0.000000
vn -0.550096 0.835102 0.000000
vn -0.550096 0.835102 0.000000
vn -0.550096 0.835102 0.000000
vn -0.700764 0.713393 0.000000
vn -0.550096 0.835102 0.000000
vn -0.550096 0.835102 0.000000
vn -0.550096 0.835102 0.000000
vn -0.700764 0.713393 0.000000
vn -0.550096 0.835102 0.000000
vn -0.550096 0.835102 0.000000
vn -0.550096 0.835102 0.000000
vn -0.700764 0.713393 0.000000
vn -0.550096 0.835102 0.000000
vn -0.550096 0.835102 0.000000
vn -0.550096 0.835102 0.000000
vn -0.700764 0.713393 0.000000
vn -0.550096 0.835102 0.000000
vn -0.550096 0.835102 0.000000
vn -0.550096 0.835102 0.000000
vn -0.700764 0.713393 0.000000
vn -0.550096 0.835102 0.000000
vn -0.699406 0.713651 0.039161
vn -0.997095 0.020774 -0.073282
vn -0.683767 0.721689 -0.107833
vn -0.438443 0.896377 0.065398
vn 0.000000 1.000000 0.000000
vn -0.999347 0.017849 -0.031406
vn -0.999840 0.017860 0.000000
vn -0.999840 0.017860 0.000000
vn -0.999840 0.017860 0.000000
vn -0.999840 0.017860 0.000000
vn -0.999840 0.017860 0.000000
vn -0.999840 0.017860 0.000000
vn -0.999840 0.017860 0.000000
vn -0.999451 0.017851 0.027921
vn -0.984254 0.019235 0.175709
vn -0.985317 0.012939 -0.170243
vn -0.673472 0.717667 -0.177172
vn -0.796560 0.567041 0.209661
vn -0.647252 -0.761587 -0.032390
vn -0.607969 -0.793961 0.000000
vn -0.743280 -0.668981 0.000000
vn -0.607969 -0.793961 0.000000
vn -0.607969 -0.793961 0.000000
vn -0.607969 -0.793961 0.000000
vn -0.743280 -0.668981 0.000000
vn -0.607969 -0.793961 0.000000
vn -0.607969 -0.793961 0.000000
vn -0.607969 -0.793961 0.000000
vn -0.743280 -0.668981 0.000000
vn -0.607969 -0.793961 0.000000
vn -0.607969 -0.793961 0.000000
vn -0.607969 -0.793961 0.000000
vn -0.743280 -0.668981 0.000000
vn -0.607969 -0.793961 0.000000
vn -0.607969 -0.793961 0.000000
vn -0.607969 -0.793961 0.000000
vn -0.743280 -0.668981 0.000000
vn -0.607969 -0.793961 0.000000
vn -0.607969 -0.793961 0.000000
vn -0.607969 -0.793961 0.000000
vn -0.743280 -0.668981 0.000000
vn -0.607969 -0.793961 0.000000
vn -0.607969 -0.793961 0.000000
vn -0.607969 -0.793961 0.000000
vn -0.743280 -0.668981 0.000000
vn -0.607969 -0.793961 0.000000
vn -0.607969 -0.793961 0.000000
vn -0.607969 -0.793961 0.000000
vn -0.743280 -0.668981 0.000000
vn -0.607969 -0.793961 0.000000
vn -0.742009 -0.669305 0.038131
vn -0.976815 0.011642 -0.213768
vn -0.984356 0.015886 0.175476
vn -0.735467 -0.670061 -0.100532
vn -0.505869 -0.860237 0.063940
vn -0.087136 -0.996196 -0.000031
vn -0.658609 0.713367 -0.239459
vn -0.658609 0.713367 0.239460
vn -0.950263 0.023308 -0.310576
vn -0.919934 0.029553 0.390959
vn -0.717627 -0.674711 -0.172559
vn -0.826244 -0.524821 0.204656
vn 0.351578 0.698803 0.622950
vn 0.385387 0.548363 -0.742142
vn -0.938966 0.021879 -0.343314
vn -0.945397 0.016834 0.325486
vn -0.920772 0.003247 0.390087
vn -0.536439 0.804606 -0.254643
vn -0.398879 0.897249 0.189312
vn -0.605651 -0.771306 -0.195636
vn -0.703337 -0.671423 0.233471
vn 0.292550 -0.721324 0.627779
vn 0.397764 -0.454619 -0.796935
vn -0.675358 -0.677496 -0.291359
vn -0.554568 -0.799977 0.229112
vn -0.601374 0.712873 -0.360777
vn -0.585273 0.730905 0.351047
vn -0.849613 0.018838 -0.527069
vn -0.856989 0.015170 -0.515111
vn -0.867459 0.015364 0.497272
vn -0.883785 0.007811 -0.467829
vn 0.000000 1.000000 0.000000
vn 0.000000 1.000000 0.000000
vn 0.000000 1.000000 0.000000
vn -0.648862 -0.674311 -0.352538
vn -0.634153 -0.693139 0.342649
vn -0.661353 0.565737 -0.492498
vn -0.648967 0.617911 0.443878
vn 0.320968 0.589767 0.741049
vn 0.221247 0.830149 -0.511765
vn -0.610836 -0.677776 -0.409266
vn -0.688078 -0.581169 0.434502
vn -0.405986 0.834597 -0.372323
vn -0.517405 0.712132 0.474509
vn -0.726631 0.016735 -0.686824
vn 0.270289 -0.609611 0.745197
vn 0.224931 -0.714557 -0.662431
vn 0.000000 1.000000 0.000000
vn 0.000000 1.000000 0.000000
vn -0.736847 0.012952 -0.675936
vn -0.737081 0.012958 0.675680
vn -0.747253 0.009179 -0.664476
vn -0.470340 -0.803223 -0.365532
vn -0.568529 -0.678512 0.465184
vn 0.000000 1.000000 0.000000
vn -0.547357 0.564377 -0.617964
vn -0.465590 0.712083 0.525513
vn -0.087151 -0.996195 -0.000001
vn -0.587069 -0.534731 -0.607793
vn -0.589452 -0.442970 0.675517
vn 0.166948 0.829003 0.533744
vn 0.165840 0.831513 -0.530172
vn -0.320299 0.834130 -0.449039
vn -0.408254 0.711160 0.572346
vn -0.568504 0.013880 -0.822564
vn -0.581237 0.010128 -0.813671
vn -0.573345 0.012225 0.819223
vn 0.300245 -0.001673 -0.953861
vn -0.593909 0.006380 -0.804507
vn 0.152137 -0.713939 0.683481
vn 0.151303 -0.716092 -0.681410
vn -0.332397 -0.872702 -0.357636
vn -0.326600 -0.878391 0.348944
vn -0.345206 0.712061 -0.611394
vn -0.345798 0.710999 0.612294
vn -0.087164 -0.996194 -0.000008
vn -0.450199 -0.540022 -0.711124
vn -0.400648 -0.692130 0.600364
vn -0.219211 0.833571 -0.507055
vn -0.219213 0.833571 0.507055
vn 0.140534 0.706361 0.693761
vn 0.140960 0.704219 -0.695849
vn -0.344076 0.013870 -0.938839
vn 0.200219 -0.006879 0.979727
vn -0.417461 0.007215 -0.908666
vn -0.383914 0.007935 0.923335
vn 0.000000 1.000000 0.000000
vn -0.362151 -0.000805 -0.932119
vn -0.451230 -0.006157 0.892387
vn -0.337971 -0.690507 -0.639513
vn -0.337969 -0.690518 0.639501
vn 0.079509 -0.712281 0.697377
vn 0.011611 -0.896577 -0.442735
vn -0.087161 -0.996194 -0.000004
vn -0.209026 0.714014 -0.668200
vn -0.210512 0.709760 0.672254
vn -0.235244 -0.820821 -0.520493
vn -0.294205 -0.545916 0.784486
vn 0.000000 1.000000 0.000000
vn -0.138813 0.720089 -0.679855
vn -0.140058 0.708763 0.691403
vn 0.055114 0.829737 0.555427
vn 0.100106 0.444457 -0.890189
vn -0.201545 0.003451 -0.979473
vn -0.199915 0.004833 0.979801
vn 0.000000 1.000000 0.000000
vn -0.194503 -0.001267 0.980901
vn -0.200549 -0.709007 -0.676084
vn -0.181635 -0.822059 0.539655
vn -0.017546 -0.831853 0.554719
vn 0.032928 -0.706651 -0.706796
vn -0.054375 0.834630 -0.548120
vn -0.082234 0.556758 0.826594
vn -0.131093 -0.705338 -0.696644
vn -0.126877 -0.827670 0.546685
vn 0.033376 0.442111 0.896339
vn 0.000000 1.000000 0.000000
vn -0.017341 0.707359 -0.706641
vn -0.010967 0.894518 0.446897
vn 0.011565 0.707104 -0.707015
vn -0.100904 0.008327 -0.994861
vn -0.016628 0.000280 -0.999862
vn -0.024883 0.000710 0.999690
vn -0.101624 -0.004884 -0.994811
vn -0.006827 -0.552314 0.833608
vn -0.087168 -0.996194 0.000001
vn -0.078966 -0.703620 -0.706175
vn -0.099427 -0.797080 0.595633
vn -0.021141 -0.553742 -0.832420
vn 0.000000 0.800000 0.600000
vn 0.000000 0.707107 -0.707107
vn 0.000000 0.832050 0.554700
vn 0.000000 0.707107 -0.707107
vn -0.069721 -0.796956 0.600000
vn -0.061625 -0.704416 -0.707107
vn -0.072514 -0.828884 0.554700
vn -0.061625 -0.704416 -0.707107
vn 0.000000 0.707107 0.707107
vn 0.000000 0.832050 -0.554700
vn 0.000000 0.832050 0.554700
vn 0.000000 0.707107 -0.707107
vn -0.061625 -0.704416 0.707107
vn -0.072514 -0.828884 -0.554700
vn -0.072514 -0.828884 0.554700
vn -0.061625 -0.704416 -0.707107
vn 0.000000 0.707107 0.707107
vn 0.000000 0.832050 -0.554700
vn 0.000000 0.832050 0.554700
vn 0.000000 0.707107 -0.707107
vn -0.061625 -0.704416 0.707107
vn -0.072514 -0.828884 -0.554700
vn -0.072514 -0.828884 0.554700
vn -0.061625 -0.704416 -0.707107
vn 0.000000 0.707107 0.707107
vn 0.000000 0.707107 -0.707107
vn 0.000000 0.707107 0.707107
vn 0.000000 0.707107 -0.707107
vn -0.061625 -0.704416 0.707107
vn -0.061625 -0.704416 -0.707107
vn -0.061625 -0.704416 0.707107
vn -0.061625 -0.704416 -0.707107
vn 0.000000 0.707107 0.707107
vn 0.000000 0.832050 -0.554700
vn 0.000000 0.832050 0.554700
vn 0.000000 0.707107 -0.707107
vn -0.061642 -0.704415 0.707107
vn -0.072524 -0.828884 -0.554700
vn -0.072534 -0.828883 0.554700
vn -0.061634 -0.704416 -0.707107
vn 0.000000 0.707107 0.707107
vn 0.000000 0.832050 -0.554700
vn 0.000000 0.832050 0.554700
vn 0.000000 0.707107 -0.707107
vn -0.061633 -0.704416 0.707107
vn -0.072534 -0.828883 -0.554700
vn -0.072524 -0.828884 0.554700
vn -0.061642 -0.704415 -0.707107
vn 0.000000 0.707107 0.707107
vn 0.000000 0.832050 -0.554700
vn 0.000000 0.832050 0.554700
vn 0.000000 0.707107 -0.707107
vn -0.061625 -0.704416 0.707107
vn -0.072514 -0.828884 -0.554700
vn -0.072514 -0.828884 0.554700
vn -0.061625 -0.704416 -0.707107
vn 0.000000 0.707107 0.707107
vn 0.000000 0.832050 -0.554700
vn 0.000000 0.832050 0.554700
vn 0.000000 0.707107 -0.707107
vn 0.000000 0.000000 -1.000000
vn 0.000000 0.000000 1.000000
vn -0.061625 -0.704416 0.707107
vn -0.072514 -0.828884 -0.554700
vn -0.072514 -0.828884 0.554700
vn -0.061625 -0.704416 -0.707107
vn 0.000000 0.707107 0.707107
vn 0.000000 0.832050 -0.554700
vn 0.000000 0.832050 0.554700
vn 0.000000 0.707107 -0.707107
vn -0.061625 -0.704416 0.707107
vn -0.072514 -0.828884 -0.554700
vn -0.072514 -0.828884 0.554700
vn -0.061625 -0.704416 -0.707107
vn 0.000000 0.707107 0.707107
vn 0.000000 0.832050 -0.554700
vn 0.000000 0.832050 0.554700
vn 0.000000 0.707107 -0.707107
vn -0.061625 -0.704416 0.707107
vn -0.072514 -0.828884 -0.554700
vn -0.072514 -0.828884 0.554700
vn -0.061625 -0.704416 -0.707107
vn 0.000000 0.707107 0.707107
vn 0.000000 0.832050 -0.554700
vn 0.000000 0.832050 0.554700
vn 0.000000 0.707107 -0.707107
vn -0.061625 -0.704416 0.707107
vn -0.072514 -0.828884 -0.554700
vn -0.072514 -0.828884 0.554700
vn -0.061625 -0.704416 -0.707107
vn 0.000000 0.707107 0.707107
vn 0.000000 0.707107 -0.707107
vn 0.000000 0.707107 0.707107
vn 0.000000 0.707107 -0.707107
vn -0.061625 -0.704416 0.707107
vn -0.061625 -0.704416 -0.707107
vn -0.061625 -0.704416 0.707107
vn -0.061625 -0.704416 -0.707107
vn 0.000000 0.707107 0.707107
vn 0.000000 0.832050 -0.554700
vn 0.000000 0.832050 0.554700
vn 0.000000 0.707107 -0.707107
vn -0.061642 -0.704415 0.707107
vn -0.072524 -0.828884 -0.554700
vn -0.072534 -0.828883 0.554700
vn -0.061633 -0.704416 -0.707107
vn 0.000000 0.707107 0.707107
vn 0.000000 0.832050 -0.554700
vn 0.000000 0.832050 0.554700
vn 0.000000 0.707107 -0.707107
vn -0.061633 -0.704416 0.707107
vn -0.072534 -0.828883 -0.554700
vn -0.072524 -0.828884 0.554700
vn -0.061642 -0.704415 -0.707107
vn 0.000000 0.707107 0.707107
vn 0.000000 0.832050 -0.554700
vn 0.000000 0.832050 0.554700
vn 0.000000 0.707107 -0.707107
vn -0.061625 -0.704416 0.707107
vn -0.072514 -0.828884 -0.554700
vn -0.072514 -0.828884 0.554700
vn -0.052291 -0.597717 -0.800000
vn -0.041536 0.547204 0.835968
vn 0.029582 0.802727 -0.595613
vn 0.013607 0.832107 0.554448
vn -0.010968 0.894492 -0.446950
vn -0.024561 0.000117 -0.999698
vn 0.024886 -0.000537 -0.999690
vn 0.021284 -0.000101 0.999773
vn -0.072013 -0.442059 0.894091
vn -0.067001 -0.891853 -0.447335
vn -0.058943 -0.829803 0.554936
vn -0.089286 -0.795913 -0.598791
vn 0.054287 0.835298 -0.547111
vn 0.124411 0.467121 0.875397
vn 0.008477 -0.708629 -0.705530
vn 0.084307 -0.468599 0.879379
vn 0.000000 1.000000 0.000000
vn -0.087152 -0.996195 0.000016
vn -0.055234 0.828955 0.556581
vn -0.068356 0.555340 -0.828809
vn 0.110074 0.832234 -0.543388
vn 0.106094 0.845491 0.523344
vn 0.193970 0.005931 -0.980990
vn -0.142735 0.003741 -0.989754
vn 0.200175 -0.002983 -0.979756
vn 0.222289 -0.000968 0.974980
vn -0.121920 -0.887385 0.444615
vn -0.131118 -0.701693 -0.700311
vn 0.079762 -0.711400 -0.698246
vn 0.033036 -0.849016 0.527333
vn 0.248063 0.558016 -0.791886
vn 0.209000 0.714112 0.668104
vn 0.202882 -0.561747 -0.802047
vn 0.092748 -0.842876 0.530054
vn 0.000000 1.000000 0.000000
vn -0.087147 -0.996195 0.000005
vn -0.087115 -0.996198 -0.000013
vn -0.088667 0.894733 0.437710
vn -0.110420 0.831064 -0.545105
vn -0.199833 -0.004323 0.979820
vn 0.280630 0.707030 -0.649119
vn 0.280633 0.707030 0.649117
vn 0.451829 0.010784 -0.892039
vn 0.398061 0.027282 0.916953
vn -0.200784 -0.698553 0.686811
vn -0.182315 -0.818849 -0.544287
vn 0.384291 -0.003557 -0.923205
vn 0.398418 -0.001621 0.917203
vn 0.396827 -0.030575 0.917384
vn 0.223296 -0.718030 -0.659220
vn 0.223303 -0.718019 0.659230
vn 0.269981 0.835605 -0.478408
vn 0.269980 0.835604 0.478410
vn 0.000000 1.000000 0.000000
vn 0.371357 -0.629694 -0.682333
vn 0.201575 -0.849770 0.487092
vn -0.087123 -0.996198 -0.000011
vn 0.399778 0.726355 -0.559094
vn 0.393488 0.735280 0.551843
vn 0.590883 -0.008030 -0.806717
vn 0.563653 -0.002082 0.826009
vn -0.213146 0.700126 0.681463
vn -0.256840 0.445674 -0.857559
vn 0.241464 -0.863553 -0.442686
vn 0.242265 -0.862732 0.443848
vn -0.270664 -0.692119 0.669113
vn -0.268075 -0.538879 -0.798590
vn 0.463789 0.714561 -0.523739
vn 0.557649 0.467419 0.685965
vn 0.413807 -0.734509 -0.537830
vn 0.528900 -0.479452 0.700279
vn 0.000000 1.000000 0.000000
vn -0.087162 -0.996194 0.000002
vn -0.087174 -0.996193 0.000006
vn 0.521423 0.706721 -0.478188
vn 0.329563 0.894449 0.302240
vn 0.709157 0.009374 -0.704988
vn 0.750967 -0.002418 -0.660335
vn 0.737349 -0.002421 0.675508
vn 0.696947 -0.024800 -0.716693
vn 0.474894 -0.729545 -0.492178
vn 0.346587 -0.855357 0.385021
vn -0.345930 0.440950 0.828189
vn -0.291914 0.707996 -0.643061
vn -0.348110 -0.541173 0.765475
vn -0.325991 -0.692970 -0.643057
vn 0.479934 0.801253 -0.357291
vn 0.567038 0.707391 0.421978
vn 0.424091 -0.827316 -0.368368
vn 0.638913 -0.574563 0.511536
vn 0.000000 1.000000 0.000000
vn -0.087145 -0.996196 0.000009
vn -0.087144 -0.996196 -0.000006
vn 0.475826 0.831926 -0.285461
vn 0.475828 0.831926 0.285459
vn 0.883384 0.009773 -0.468547
vn 0.846846 -0.002572 -0.531832
vn 0.857573 -0.002556 0.514356
vn 0.874879 -0.021119 -0.483881
vn 0.417315 -0.859767 -0.294361
vn 0.565714 -0.733657 0.376451
vn 0.496547 0.835399 -0.235691
vn 0.638700 0.707290 0.302990
vn 0.593540 -0.742141 -0.311346
vn 0.599779 -0.735866 0.314271
vn -0.371780 0.702200 0.607202
vn -0.421645 0.555955 -0.716331
vn -0.446895 -0.582905 0.678607
vn -0.390918 -0.690148 -0.608998
vn 0.763524 0.582712 -0.278348
vn 0.521544 0.831886 0.189625
vn 0.935895 -0.007946 -0.352189
vn 0.939692 -0.002594 0.342013
vn 0.599532 -0.763098 -0.241336
vn 0.466003 -0.862776 0.196111
vn 0.000000 1.000000 0.000000
vn 0.678000 0.713099 -0.178342
vn 0.683770 0.707183 0.179861
vn 0.833590 -0.484387 -0.265511
vn 0.785679 -0.578436 0.219363
vn 0.548503 0.832136 -0.081814
vn 0.701712 0.706840 0.089316
vn 0.976792 0.006606 -0.214089
vn -0.087161 -0.996194 -0.000005
vn 0.986762 -0.003664 -0.162136
vn 0.985595 -0.002598 0.169100
vn 0.376439 -0.923947 -0.067942
vn 0.494807 -0.864859 0.084757
vn 0.706639 0.706467 -0.039563
vn 0.555361 0.831609 0.000000
vn 0.708020 0.706193 0.000000
vn 0.555361 0.831609 0.000000
vn 0.555361 0.831609 0.000000
vn 0.555361 0.831609 0.000000
vn 0.708020 0.706193 0.000000
vn 0.555361 0.831609 0.000000
vn 0.555361 0.831609 0.000000
vn 0.555361 0.831609 0.000000
vn 0.708020 0.706193 0.000000
vn 0.555361 0.831609 0.000000
vn 0.555361 0.831609 0.000000
vn 0.555361 0.831609 0.000000
vn 0.708020 0.706193 0.000000
vn 0.555361 0.831609 0.000000
vn 0.555361 0.831609 0.000000
vn 0.555361 0.831609 0.000000
vn 0.708020 0.706193 0.000000
vn 0.555361 0.831609 0.000000
vn 0.555361 0.831609 0.000000
vn 0.555361 0.831609 0.000000
vn 0.708020 0.706193 0.000000
vn 0.555361 0.831609 0.000000
vn 0.555361 0.831609 0.000000
vn 0.555361 0.831609 0.000000
vn 0.708020 0.706193 0.000000
vn 0.555361 0.831609 0.000000
vn 0.555361 0.831609 0.000000
vn 0.555361 0.831609 0.000000
vn 0.708020 0.706193 0.000000
vn 0.555361 0.831609 0.000000
vn 0.446966 0.894354 0.018763
vn 0.999607 -0.002589 -0.027918
vn 0.999997 -0.002585 0.000000
vn 0.999997 -0.002585 0.000000
vn 0.999997 -0.002585 0.000000
vn 0.999997 -0.002585 0.000000
vn 0.999997 -0.002585 0.000000
vn 0.999997 -0.002585 0.000000
vn 0.999997 -0.002585 0.000000
vn 0.999607 -0.002589 0.027923
vn 0.814575 -0.578042 -0.048318
vn 0.502179 -0.864764 0.000004
vn 0.674638 -0.738149 0.000000
vn 0.502185 -0.864760 0.000000
vn 0.502185 -0.864760 0.000000
vn 0.502185 -0.864760 0.000000
vn 0.674638 -0.738149 0.000000
vn 0.502185 -0.864760 0.000000
vn 0.502185 -0.864760 0.000000
vn 0.502185 -0.864760 0.000000
vn 0.674638 -0.738149 0.000000
vn 0.502185 -0.864760 0.000000
vn 0.502185 -0.864760 0.000000
vn 0.502185 -0.864760 0.000000
vn 0.674638 -0.738149 0.000000
vn 0.502185 -0.864760 0.000000
vn 0.502185 -0.864760 0.000000
vn 0.502185 -0.864760 0.000000
vn 0.674638 -0.738149 0.000000
vn 0.502185 -0.864760 0.000000
vn 0.502185 -0.864760 0.000000
vn 0.502185 -0.864760 0.000000
vn 0.674638 -0.738149 0.000000
vn 0.502185 -0.864760 0.000000
vn 0.502185 -0.864760 0.000000
vn 0.502185 -0.864760 0.000000
vn 0.674638 -0.738149 0.000000
vn 0.502185 -0.864760 0.000000
vn 0.502185 -0.864760 0.000000
vn 0.502185 -0.864760 0.000000
vn 0.674638 -0.738149 0.000000
vn 0.382423 -0.923987 -0.000004
vn 0.673119 -0.738385 0.041218
vn -0.415459 0.698713 0.582403
vn -0.494937 0.555942 -0.667807
vn -0.463607 -0.683339 0.564018
vn -0.508975 -0.540049 -0.670292
vn -0.087142 -0.996196 0.000008
vn -0.087147 -0.996195 -0.000003
vn 0.000000 1.000000 0.000000
vn -0.087134 -0.996197 -0.000036
vn 0.000000 1.000000 0.000000
vn -0.087159 -0.996194 0.000024
vn -0.367171 0.832620 0.414644
vn -0.574413 0.551949 -0.604485
vn -0.628213 -0.002659 0.778037
vn -0.525199 -0.684477 0.505625
vn -0.578021 -0.574897 -0.579124
vn -0.087158 -0.996195 -0.000005
vn -0.658985 0.448511 0.603802
vn -0.410339 0.830668 -0.376315
vn -0.730835 0.001189 0.682553
vn -0.652774 -0.536455 0.534885
vn -0.472902 -0.800544 -0.368094
vn -0.573630 0.707821 0.412235
vn -0.573630 0.707821 -0.412235
vn -0.798351 0.000995 0.602191
vn -0.774859 0.004941 -0.632115
vn -0.501881 -0.803482 0.320207
vn -0.608505 -0.681071 -0.407264
vn -0.475104 0.832489 0.285023
vn -0.475104 0.832489 -0.285023
vn -0.868278 -0.001400 0.496076
vn -0.868305 0.000729 -0.496030
vn -0.559900 -0.770162 0.305553
vn -0.730866 -0.534529 -0.424398
vn -0.087146 -0.996196 0.000018
vn -0.543840 0.798541 0.258013
vn -0.637969 0.705847 -0.307856
vn -0.773947 -0.531497 0.344262
vn -0.678021 -0.676385 -0.287735
vn -0.664067 0.707616 0.241443
vn -0.667811 0.707556 -0.231069
vn -0.951368 -0.006546 0.307988
vn -0.932897 0.000392 -0.360143
vn -0.698215 -0.677449 0.231429
vn -0.698215 -0.677449 -0.231430
vn -0.691235 0.699373 0.181855
vn -0.536022 0.832344 -0.141007
vn -0.976199 -0.003082 -0.216853
vn -0.718999 -0.673145 0.172963
vn -0.713321 -0.676792 -0.182008
vn -0.705267 0.696705 0.131151
vn -0.551885 0.828603 -0.094024
vn -0.637310 -0.763300 0.105875
vn -0.598242 -0.796281 -0.089684
vn -0.704338 0.707428 0.058761
vn -0.800187 0.594971 -0.075565
vn -0.993439 -0.003710 0.114307
vn -0.734779 -0.675977 0.056160
vn -0.734860 -0.673972 -0.075782
vn -0.706879 0.707184 0.014569
vn -0.707107 0.707107 0.000000
vn -0.707107 0.707107 0.000000
vn -0.707107 0.707107 0.000000
vn -0.707107 0.707107 0.000000
vn -0.707107 0.707107 0.000000
vn -0.707107 0.707107 0.000000
vn -0.707107 0.707107 0.000000
vn -0.707107 0.707107 0.000000
vn -0.707107 0.707107 0.000000
vn -0.707107 0.707107 0.000000
vn -0.707107 0.707107 0.000000
vn -0.707107 0.707107 0.000000
vn -0.707107 0.707107 0.000000
vn -0.707107 0.707107 0.000000
vn -0.707107 0.707107 0.000000
vn -0.707107 0.707107 0.000000
vn -0.707107 0.707107 0.000000
vn -0.707107 0.707107 0.000000
vn -0.707107 0.707107 0.000000
vn -0.707107 0.707107 0.000000
vn -0.707107 0.707107 0.000000
vn -0.707107 0.707107 0.000000
vn -0.707107 0.707107 0.000000
vn -0.707107 0.707107 0.000000
vn -0.707107 0.707107 0.000000
vn -0.707107 0.707107 0.000000
vn -0.707107 0.707107 0.000000
vn -0.707107 0.707107 0.000000
vn -0.707107 0.707107 0.000000
vn -0.707107 0.707107 0.000000
vn -0.707107 0.707107 0.000000
vn -0.706881 0.707182 -0.014579
vn -0.846652 -0.531694 0.021951
vn -0.643347 -0.765574 0.000003
vn -0.737276 -0.675592 0.000000
vn -0.737276 -0.675592 0.000000
vn -0.737276 -0.675592 0.000000
vn -0.737276 -0.675592 0.000000
vn -0.737276 -0.675592 0.000000
vn -0.737276 -0.675592 0.000000
vn -0.737276 -0.675592 0.000000
vn -0.737276 -0.675592 0.000000
vn -0.737276 -0.675592 0.000000
vn -0.737276 -0.675592 0.000000
vn -0.737276 -0.675592 0.000000
vn -0.737276 -0.675592 0.000000
vn -0.737276 -0.675592 0.000000
vn -0.737276 -0.675592 0.000000
vn -0.737276 -0.675592 0.000000
vn -0.737276 -0.675592 0.000000
vn -0.737276 -0.675592 0.000000
vn -0.737276 -0.675592 0.000000
vn -0.737276 -0.675592 0.000000
vn -0.737276 -0.675592 0.000000
vn -0.737276 -0.675592 0.000000
vn -0.737276 -0.675592 0.000000
vn -0.737276 -0.675592 0.000000
vn -0.737276 -0.675592 0.000000
vn -0.737276 -0.675592 0.000000
vn -0.737276 -0.675592 0.000000
vn -0.737276 -0.675592 0.000000
vn -0.737276 -0.675592 0.000000
vn -0.737276 -0.675592 0.000000
vn -0.737272 -0.675596 -0.000004
vn -0.902259 -0.430826 -0.017798

f 170//170 156//156 159//159
f 170//170 159//159 173//173
f 215//215 213//213 224//224
f 215//215 224//224 232//232
f 213//213 215//215 173//173
f 256//256 243//243 249//249
f 256//256 249//249 262//262
f 272//272 269//269 280//280
f 291//291 280//280 285//285
f 269//269 272//272 262//262
f 243//243 215//215 232//232
f 310//310 301//301 306//306
f 310//310 306//306 318//318
f 328//328 324//324 337//337
f 328//328 337//337 345//345
f 324//324 328//328 318//318
f 328//328 353//353 361//361
f 369//369 396//396 361//361
f 396//396 377//377 385//385
f 396//396 385//385 393//393
f 369//369 377//377 396//396
f 353//353 328//328 345//345
f 301//301 291//291 285//285
f 396//396 403//403 411//411
f 396//396 411//411 419//419
f 435//435 463//463 427//427
f 443//443 463//463 435//435
f 427//427 396//396 419//419
f 463//463 451//451 459//459
f 463//463 459//459 469//469
f 499//499 477//477 487//487
f 499//499 487//487 497//497
f 477//477 499//499 469//469
f 451//451 463//463 443//443
f 499//499 508//508 514//514
f 499//499 514//514 524//524
f 534//534 531//531 543//543
f 553//553 543//543 550//550
f 531//531 534//534 524//524
f 568//568 558//558 566//566
f 568//568 566//566 573//573
f 616//616 625//625 577//577
f 625//625 615//615 614//614
f 615//615 625//625 616//616
f 577//577 581//581 573//573
f 558//558 553//553 550//550
f 508//508 499//499 497//497
f 403//403 396//396 393//393
f 221//221 170//170 215//215
f 156//156 170//170 169//169
f 208//208 169//169 170//170
f 235//235 215//215 243//243
f 215//215 235//235 221//221
f 222//222 221//221 235//235
f 247//247 235//235 256//256
f 235//235 243//243 256//256
f 170//170 221//221 208//208
f 262//262 272//272 256//256
f 624//624 613//613 612//612
f 524//524 516//516 499//499
f 581//581 568//568 573//573
f 310//310 291//291 301//301
f 294//294 272//272 291//291
f 291//291 310//310 312//312
f 396//396 427//427 463//463
f 272//272 280//280 291//291
f 328//328 310//310 318//318
f 272//272 265//265 256//256
f 170//170 173//173 215//215
f 328//328 361//361 396//396
f 328//328 357//357 349//349
f 396//396 423//423 415//415
f 463//463 469//469 481//481
f 499//499 503//503 481//481
f 504//504 481//481 503//503
f 504//504 503//503 516//516
f 499//499 516//516 503//503
f 481//481 471//471 463//463
f 469//469 499//499 481//481
f 534//534 543//543 553//553
f 545//545 534//534 553//553
f 560//560 553//553 568//568
f 553//553 558//558 568//568
f 625//625 614//614 624//624
f 625//625 658//658 581//581
f 656//656 625//625 624//624
f 614//614 613//613 624//624
f 581//581 575//575 568//568
f 534//534 526//526 516//516
f 516//516 524//524 534//534
f 328//328 312//312 310//310
f 611//611 624//624 612//612
f 610//610 624//624 611//611
f 623//623 610//610 609//609
f 623//623 608//608 607//607
f 623//623 607//607 606//606
f 608//608 623//623 609//609
f 622//622 605//605 604//604
f 622//622 604//604 603//603
f 621//621 602//602 601//601
f 621//621 601//601 600//600
f 602//602 622//622 603//603
f 605//605 622//622 606//606
f 621//621 599//599 598//598
f 598//598 597//597 620//620
f 622//622 602//602 621//621
f 648//648 623//623 622//622
f 621//621 643//643 644//644
f 600//600 599//599 621//621
f 622//622 623//623 606//606
f 621//621 598//598 620//620
f 620//620 596//596 595//595
f 620//620 595//595 594//594
f 593//593 619//619 594//594
f 620//620 594//594 619//619
f 591//591 619//619 592//592
f 593//593 592//592 619//619
f 619//619 636//636 620//620
f 620//620 597//597 596//596
f 620//620 640//640 621//621
f 610//610 623//623 624//624
f 623//623 652//652 624//624
f 590//590 619//619 591//591
f 618//618 590//590 589//589
f 618//618 588//588 587//587
f 618//618 587//587 586//586
f 588//588 618//618 589//589
f 584//584 578//578 617//617
f 578//578 584//584 576//576
f 578//578 572//572 565//565
f 551//551 565//565 557//557
f 572//572 578//578 576//576
f 617//617 586//586 585//585
f 551//551 549//549 542//542
f 532//532 542//542 530//530
f 532//532 523//523 513//513
f 498//498 513//513 507//507
f 523//523 532//532 530//530
f 498//498 496//496 486//486
f 478//478 486//486 476//476
f 478//478 468//468 458//458
f 458//458 450//450 462//462
f 468//468 478//478 476//476
f 496//496 498//498 507//507
f 549//549 551//551 557//557
f 462//462 442//442 434//434
f 462//462 434//434 426//426
f 418//418 395//395 426//426
f 410//410 402//402 395//395
f 426//426 395//395 462//462
f 384//384 376//376 395//395
f 395//395 376//376 368//368
f 395//395 360//360 327//327
f 360//360 395//395 368//368
f 395//395 402//402 392//392
f 327//327 336//336 326//326
f 326//326 336//336 323//323
f 326//326 317//317 305//305
f 288//288 305//305 300//300
f 317//317 326//326 323//323
f 288//288 284//284 279//279
f 270//270 279//279 268//268
f 250//250 261//261 248//248
f 233//233 242//242 231//231
f 242//242 250//250 248//248
f 261//261 270//270 268//268
f 284//284 288//288 300//300
f 327//327 344//344 336//336
f 462//462 450//450 442//442
f 214//214 223//223 212//212
f 214//214 212//212 172//172
f 157//157 158//158 124//124
f 157//157 124//124 125//125
f 158//158 214//214 172//172
f 126//126 127//127 162//162
f 127//127 128//128 162//162
f 129//129 130//130 162//162
f 130//130 131//131 163//163
f 162//162 128//128 129//129
f 126//126 157//157 125//125
f 498//498 532//532 513//513
f 578//578 551//551 567//567
f 532//532 533//533 552//552
f 486//486 478//478 498//498
f 480//480 502//502 478//478
f 392//392 384//384 395//395
f 498//498 515//515 532//532
f 462//462 480//480 478//478
f 584//584 617//617 585//585
f 288//288 326//326 305//305
f 231//231 223//223 233//233
f 270//270 288//288 279//279
f 326//326 288//288 309//309
f 261//261 250//250 270//270
f 233//233 250//250 242//242
f 250//250 255//255 271//271
f 220//220 234//234 214//214
f 171//171 214//214 157//157
f 233//233 234//234 255//255
f 223//223 214//214 233//233
f 288//288 270//270 290//290
f 158//158 157//157 214//214
f 126//126 161//161 157//157
f 532//532 551//551 542//542
f 551//551 578//578 565//565
f 163//163 131//131 132//132
f 132//132 133//133 163//163
f 133//133 134//134 163//163
f 135//135 136//136 164//164
f 136//136 137//137 164//164
f 164//164 134//134 135//135
f 138//138 139//139 165//165
f 139//139 140//140 165//165
f 141//141 142//142 165//165
f 142//142 143//143 166//166
f 165//165 140//140 141//141
f 164//164 137//137 138//138
f 144//144 145//145 166//166
f 145//145 146//146 166//166
f 147//147 148//148 167//167
f 148//148 149//149 167//167
f 167//167 146//146 147//147
f 150//150 151//151 168//168
f 151//151 152//152 168//168
f 153//153 154//154 168//168
f 155//155 156//156 169//169
f 169//169 154//154 155//155
f 168//168 152//152 153//153
f 167//167 149//149 150//150
f 166//166 143//143 144//144
f 618//618 586//586 617//617
f 590//590 618//618 619//619
f 618//618 632//632 619//619
f 208//208 222//222 217//217
f 235//235 247//247 222//222
f 169//169 208//208 206//206
f 206//206 208//208 210//210
f 208//208 217//217 210//210
f 222//222 226//226 217//217
f 230//230 226//226 222//222
f 294//294 312//312 303//303
f 230//230 222//222 241//241
f 247//247 241//241 222//222
f 312//312 328//328 333//333
f 259//259 247//247 256//256
f 265//265 259//259 256//256
f 265//265 272//272 294//294
f 294//294 278//278 265//265
f 294//294 283//283 278//278
f 294//294 303//303 296//296
f 312//312 314//314 303//303
f 294//294 296//296 283//283
f 312//312 333//333 320//320
f 333//333 328//328 341//341
f 328//328 365//365 357//357
f 365//365 396//396 373//373
f 341//341 328//328 349//349
f 312//312 320//320 314//314
f 396//396 381//381 373//373
f 580//580 582//582 626//626
f 516//516 526//526 504//504
f 396//396 365//365 328//328
f 396//396 389//389 381//381
f 399//399 389//389 396//396
f 407//407 399//399 396//396
f 623//623 649//649 650//650
f 578//578 567//567 580//580
f 574//574 567//567 554//554
f 554//554 567//567 552//552
f 551//551 552//552 567//567
f 554//554 552//552 533//533
f 535//535 536//536 544//544
f 515//515 535//535 533//533
f 567//567 574//574 580//580
f 415//415 407//407 396//396
f 431//431 423//423 396//396
f 431//431 463//463 439//439
f 431//431 396//396 463//463
f 447//447 463//463 455//455
f 447//447 439//439 463//463
f 466//466 463//463 471//471
f 481//481 504//504 471//471
f 504//504 489//489 485//485
f 504//504 511//511 506//506
f 504//504 506//506 489//489
f 504//504 485//485 471//471
f 455//455 463//463 466//466
f 520//520 511//511 504//504
f 208//208 221//221 222//222
f 504//504 526//526 520//520
f 526//526 534//534 537//537
f 545//545 553//553 556//556
f 556//556 553//553 560//560
f 537//537 534//534 545//545
f 570//570 568//568 575//575
f 575//575 581//581 583//583
f 658//658 625//625 657//657
f 657//657 625//625 656//656
f 560//560 568//568 570//570
f 655//655 624//624 654//654
f 654//654 624//624 653//653
f 652//652 623//623 651//651
f 651//651 623//623 650//650
f 653//653 624//624 652//652
f 648//648 622//622 647//647
f 647//647 622//622 646//646
f 645//645 622//622 644//644
f 646//646 622//622 645//645
f 649//649 623//623 648//648
f 656//656 624//624 655//655
f 642//642 621//621 641//641
f 641//641 621//621 640//640
f 639//639 620//620 638//638
f 638//638 620//620 637//637
f 640//640 620//620 639//639
f 636//636 619//619 635//635
f 635//635 619//619 634//634
f 633//633 619//619 632//632
f 632//632 618//618 631//631
f 634//634 619//619 633//633
f 637//637 620//620 636//636
f 630//630 618//618 629//629
f 629//629 618//618 628//628
f 617//617 627//627 628//628
f 617//617 626//626 627//627
f 618//618 617//617 628//628
f 554//554 569//569 574//574
f 554//554 555//555 559//559
f 554//554 544//544 555//555
f 554//554 559//559 569//569
f 631//631 618//618 630//630
f 643//643 621//621 642//642
f 525//525 536//536 535//535
f 510//510 515//515 502//502
f 525//525 535//535 519//519
f 510//510 519//519 535//535
f 498//498 502//502 515//515
f 535//535 515//515 510//510
f 502//502 505//505 510//510
f 488//488 505//505 502//502
f 462//462 465//465 470//470
f 395//395 414//414 422//422
f 446//446 462//462 438//438
f 480//480 484//484 488//488
f 480//480 470//470 484//484
f 488//488 502//502 480//480
f 462//462 454//454 465//465
f 462//462 446//446 454//454
f 430//430 395//395 422//422
f 430//430 462//462 395//395
f 430//430 438//438 462//462
f 395//395 406//406 414//414
f 395//395 398//398 406//406
f 395//395 380//380 388//388
f 395//395 364//364 372//372
f 395//395 388//388 398//398
f 395//395 418//418 410//410
f 356//356 364//364 327//327
f 326//326 309//309 327//327
f 329//329 327//327 309//309
f 293//293 309//309 290//290
f 288//288 290//290 309//309
f 255//255 257//257 274//274
f 234//234 236//236 257//257
f 274//274 293//293 271//271
f 214//214 171//171 220//220
f 207//207 220//220 171//171
f 207//207 171//171 161//161
f 157//157 161//161 171//171
f 130//130 163//163 162//162
f 163//163 181//181 180//180
f 164//164 184//184 163//163
f 134//134 164//164 163//163
f 176//176 161//161 162//162
f 126//126 162//162 161//161
f 220//220 236//236 234//234
f 257//257 258//258 264//264
f 313//313 329//329 293//293
f 327//327 329//329 340//340
f 282//282 293//293 274//274
f 364//364 395//395 327//327
f 246//246 257//257 236//236
f 142//142 166//166 165//165
f 166//166 193//193 192//192
f 166//166 167//167 196//196
f 146//146 167//167 166//166
f 168//168 200//200 167//167
f 236//236 207//207 225//225
f 154//154 169//169 168//168
f 168//168 169//169 204//204
f 161//161 174//174 207//207
f 164//164 165//165 188//188
f 220//220 207//207 236//236
f 150//150 168//168 167//167
f 352//352 344//344 327//327
f 329//329 309//309 293//293
f 327//327 348//348 356//356
f 138//138 165//165 164//164
f 380//380 395//395 372//372
f 327//327 340//340 348//348
f 329//329 332//332 340//340
f 329//329 313//313 319//319
f 293//293 302//302 313//313
f 329//329 319//319 332//332
f 293//293 282//282 295//295
f 274//274 277//277 282//282
f 257//257 246//246 258//258
f 274//274 264//264 277//277
f 293//293 295//295 302//302
f 236//236 229//229 240//240
f 236//236 225//225 229//229
f 207//207 209//209 216//216
f 207//207 174//174 209//209
f 207//207 216//216 225//225
f 161//161 176//176 175//175
f 162//162 177//177 176//176
f 162//162 179//179 178//178
f 162//162 180//180 179//179
f 162//162 178//178 177//177
f 161//161 175//175 174//174
f 236//236 240//240 246//246
f 163//163 183//183 182//182
f 164//164 186//186 185//185
f 164//164 187//187 186//186
f 164//164 185//185 184//184
f 165//165 189//189 188//188
f 165//165 190//190 189//189
f 165//165 192//192 191//191
f 165//165 191//191 190//190
f 164//164 188//188 187//187
f 166//166 195//195 194//194
f 166//166 196//196 195//195
f 167//167 198//198 197//197
f 167//167 199//199 198//198
f 167//167 197//197 196//196
f 168//168 201//201 200//200
f 168//168 202//202 201//201
f 168//168 204//204 203//203
f 169//169 206//206 205//205
f 169//169 205//205 204//204
f 168//168 203//203 202//202
f 167//167 200//200 199//199
f 166//166 194//194 193//193
f 163//163 182//182 181//181
f 532//532 515//515 533//533
f 35//35 75//75 39//39
f 77//77 75//75 83//83
f 87//87 83//83 90//90
f 75//75 77//77 39//39
f 96//96 92//92 98//98
f 104//104 100//100 108//108
f 117//117 104//104 121//121
f 100//100 96//96 102//102
f 92//92 87//87 94//94
f 219//219 273//273 245//245
f 267//267 273//273 287//287
f 287//287 273//273 308//308
f 273//273 267//267 245//245
f 338//338 325//325 342//342
f 346//346 338//338 350//350
f 362//362 354//354 366//366
f 370//370 362//362 374//374
f 354//354 346//346 358//358
f 325//325 308//308 334//334
f 219//219 117//117 228//228
f 386//386 378//378 390//390
f 404//404 394//394 408//408
f 412//412 404//404 416//416
f 394//394 386//386 400//400
f 428//428 420//420 432//432
f 444//444 436//436 448//448
f 452//452 444//444 456//456
f 436//436 428//428 440//440
f 420//420 412//412 424//424
f 461//461 460//460 452//452
f 475//475 479//479 494//494
f 494//494 479//479 518//518
f 475//475 460//460 461//461
f 562//562 539//539 564//564
f 670//670 660//660 673//673
f 676//676 683//683 681//681
f 681//681 683//683 689//689
f 683//683 676//676 670//670
f 539//539 518//518 541//541
f 452//452 456//456 461//461
f 378//378 370//370 382//382
f 689//689 694//694 687//687
f 705//705 704//704 698//698
f 705//705 709//709 704//704
f 698//698 700//700 705//705
f 749//749 713//713 782//782
f 747//747 748//748 781//781
f 746//746 747//747 780//780
f 748//748 749//749 782//782
f 713//713 709//709 705//705
f 744//744 745//745 778//778
f 745//745 746//746 779//779
f 479//479 475//475 461//461
f 689//689 700//700 694//694
f 694//694 700//700 698//698
f 687//687 681//681 689//689
f 743//743 744//744 777//777
f 742//742 743//743 776//776
f 741//741 742//742 775//775
f 739//739 740//740 773//773
f 738//738 739//739 772//772
f 740//740 741//741 774//774
f 737//737 738//738 771//771
f 660//660 562//562 662//662
f 736//736 737//737 770//770
f 734//734 735//735 768//768
f 733//733 734//734 767//767
f 735//735 736//736 769//769
f 730//730 731//731 764//764
f 729//729 730//730 763//763
f 727//727 728//728 761//761
f 726//726 727//727 760//760
f 728//728 729//729 762//762
f 731//731 732//732 765//765
f 724//724 725//725 758//758
f 722//722 723//723 756//756
f 721//721 722//722 755//755
f 723//723 724//724 757//757
f 719//719 720//720 753//753
f 718//718 719//719 752//752
f 717//717 750//750 714//714
f 717//717 718//718 751//751
f 712//712 717//717 714//714
f 720//720 721//721 754//754
f 725//725 726//726 759//759
f 732//732 733//733 766//766
f 714//714 699//699 708//708
f 75//75 35//35 33//33
f 708//708 712//712 714//714
f 699//699 697//697 703//703
f 699//699 693//693 697//697
f 703//703 708//708 699//699
f 680//680 682//682 675//675
f 671//671 669//669 675//675
f 671//671 659//659 669//669
f 675//675 677//677 671//671
f 688//688 680//680 686//686
f 538//538 561//561 563//563
f 517//517 495//495 493//493
f 493//493 495//495 474//474
f 495//495 517//517 538//538
f 449//449 457//457 464//464
f 441//441 449//449 453//453
f 425//425 433//433 437//437
f 417//417 425//425 429//429
f 433//433 441//441 445//445
f 495//495 457//457 474//474
f 561//561 659//659 671//671
f 401//401 409//409 413//413
f 375//375 383//383 387//387
f 367//367 375//375 379//379
f 383//383 391//391 397//397
f 351//351 359//359 363//363
f 335//335 343//343 347//347
f 321//321 335//335 339//339
f 343//343 351//351 355//355
f 359//359 367//367 371//371
f 289//289 307//307 321//321
f 289//289 266//266 286//286
f 289//289 244//244 266//266
f 286//286 307//307 289//289
f 118//118 116//116 218//218
f 118//118 103//103 116//116
f 95//95 99//99 101//101
f 91//91 95//95 97//97
f 99//99 103//103 118//118
f 218//218 244//244 118//118
f 289//289 321//321 330//330
f 409//409 417//417 421//421
f 76//76 82//82 84//84
f 37//37 38//38 76//76
f 37//37 34//34 38//38
f 37//37 76//76 80//80
f 36//36 2//2 1//1
f 4//4 3//3 42//42
f 5//5 4//4 43//43
f 3//3 2//2 41//41
f 1//1 34//34 36//36
f 82//82 86//86 89//89
f 34//34 37//37 36//36
f 99//99 118//118 101//101
f 86//86 91//91 93//93
f 244//244 289//289 251//251
f 37//37 73//73 36//36
f 671//671 563//563 561//561
f 6//6 5//5 44//44
f 7//7 6//6 45//45
f 8//8 7//7 46//46
f 10//10 9//9 48//48
f 11//11 10//10 49//49
f 9//9 8//8 47//47
f 12//12 11//11 50//50
f 251//251 118//118 244//244
f 391//391 401//401 405//405
f 13//13 12//12 51//51
f 15//15 14//14 53//53
f 16//16 15//15 54//54
f 14//14 13//13 52//52
f 18//18 17//17 56//56
f 19//19 18//18 57//57
f 21//21 20//20 59//59
f 22//22 21//21 60//60
f 20//20 19//19 58//58
f 17//17 16//16 55//55
f 24//24 23//23 62//62
f 26//26 25//25 64//64
f 27//27 26//26 65//65
f 25//25 24//24 63//63
f 29//29 28//28 67//67
f 30//30 29//29 68//68
f 32//32 31//31 70//70
f 33//33 32//32 71//71
f 31//31 30//30 69//69
f 28//28 27//27 66//66
f 23//23 22//22 61//61
f 41//41 2//2 36//36
f 688//688 686//686 693//693
f 716//716 713//713 705//705
f 74//74 75//75 72//72
f 33//33 72//72 75//75
f 75//75 74//74 79//79
f 75//75 79//79 81//81
f 85//85 75//75 81//81
f 316//316 308//308 273//273
f 219//219 228//228 273//273
f 273//273 228//228 252//252
f 273//273 276//276 298//298
f 273//273 298//298 316//316
f 273//273 252//252 276//276
f 479//479 522//522 518//518
f 696//696 689//689 691//691
f 479//479 467//467 483//483
f 479//479 501//501 522//522
f 479//479 483//483 501//501
f 683//683 673//673 679//679
f 683//683 679//679 685//685
f 670//670 673//673 683//683
f 689//689 696//696 700//700
f 700//700 702//702 707//707
f 707//707 711//711 705//705
f 700//700 696//696 702//702
f 683//683 685//685 691//691
f 711//711 716//716 705//705
f 714//714 715//715 710//710
f 714//714 710//710 699//699
f 699//699 710//710 706//706
f 701//701 699//699 706//706
f 682//682 680//680 688//688
f 678//678 677//677 682//682
f 688//688 699//699 695//695
f 693//693 699//699 688//688
f 688//688 695//695 690//690
f 682//682 684//684 678//678
f 677//677 678//678 672//672
f 682//682 690//690 684//684
f 661//661 563//563 671//671
f 538//538 540//540 495//495
f 495//495 521//521 500//500
f 495//495 500//500 482//482
f 495//495 540//540 521//521
f 672//672 661//661 671//671
f 464//464 495//495 482//482
f 330//330 315//315 289//289
f 315//315 297//297 289//289
f 275//275 251//251 289//289
f 251//251 227//227 118//118
f 297//297 275//275 289//289
f 118//118 227//227 120//120
f 120//120 107//107 118//118
f 107//107 101//101 118//118
f 80//80 78//78 37//37
f 78//78 73//73 37//37
f 40//40 41//41 36//36
f 495//495 464//464 457//457
f 85//85 83//83 75//75
f 154//154 31//31 32//32
f 152//152 29//29 30//30
f 151//151 28//28 29//29
f 153//153 30//30 31//31
f 149//149 26//26 27//27
f 147//147 24//24 25//25
f 146//146 23//23 24//24
f 148//148 25//25 26//26
f 150//150 27//27 28//28
f 144//144 21//21 22//22
f 142//142 19//19 20//20
f 141//141 18//18 19//19
f 143//143 20//20 21//21
f 139//139 16//16 17//17
f 138//138 15//15 16//16
f 136//136 13//13 14//14
f 135//135 12//12 13//13
f 137//137 14//14 15//15
f 140//140 17//17 18//18
f 145//145 22//22 23//23
f 133//133 10//10 11//11
f 131//131 8//8 9//9
f 130//130 7//7 8//8
f 132//132 9//9 10//10
f 128//128 5//5 6//6
f 127//127 4//4 5//5
f 125//125 2//2 3//3
f 125//125 124//124 88//88
f 126//126 3//3 4//4
f 129//129 6//6 7//7
f 158//158 109//109 105//105
f 109//109 172//172 212//212
f 109//109 212//212 223//223
f 172//172 109//109 158//158
f 160//160 231//231 242//242
f 160//160 242//242 248//248
f 268//268 253//253 239//239
f 253//253 268//268 279//279
f 261//261 239//239 248//248
f 231//231 160//160 223//223
f 124//124 105//105 88//88
f 134//134 11//11 12//12
f 292//292 284//284 300//300
f 304//304 305//305 317//317
f 322//322 317//317 323//323
f 305//305 292//292 300//300
f 344//344 343//343 335//335
f 360//360 359//359 351//351
f 368//368 367//367 359//359
f 352//352 351//351 343//343
f 336//336 322//322 323//323
f 239//239 160//160 248//248
f 223//223 86//86 109//109
f 279//279 284//284 237//237
f 253//253 116//116 103//103
f 237//237 116//116 253//253
f 237//237 284//284 292//292
f 239//239 103//103 99//99
f 384//384 383//383 375//375
f 392//392 391//391 383//383
f 376//376 375//375 367//367
f 292//292 304//304 266//266
f 335//335 322//322 336//336
f 322//322 304//304 317//317
f 305//305 304//304 292//292
f 402//402 401//401 391//391
f 109//109 38//38 105//105
f 86//86 223//223 160//160
f 418//418 417//417 409//409
f 434//434 433//433 425//425
f 442//442 441//441 433//433
f 426//426 425//425 417//417
f 458//458 457//457 449//449
f 468//468 474//474 458//458
f 493//493 476//476 509//509
f 509//509 476//476 486//486
f 476//476 493//493 468//468
f 450//450 449//449 441//441
f 509//509 496//496 507//507
f 513//513 527//527 507//507
f 509//509 507//507 527//527
f 509//509 527//527 561//561
f 527//527 513//513 546//546
f 509//509 486//486 496//496
f 546//546 523//523 530//530
f 546//546 530//530 542//542
f 693//693 557//557 665//665
f 549//549 686//686 542//542
f 557//557 693//693 549//549
f 546//546 669//669 527//527
f 410//410 409//409 401//401
f 304//304 322//322 307//307
f 155//155 32//32 33//33
f 665//665 565//565 572//572
f 576//576 584//584 667//667
f 585//585 718//718 717//717
f 576//576 665//665 572//572
f 587//587 720//720 719//719
f 589//589 722//722 721//721
f 590//590 723//723 722//722
f 588//588 721//721 720//720
f 586//586 719//719 718//718
f 592//592 725//725 724//724
f 594//594 727//727 726//726
f 595//595 728//728 727//727
f 593//593 726//726 725//725
f 597//597 730//730 729//729
f 598//598 731//731 730//730
f 600//600 733//733 732//732
f 601//601 734//734 733//733
f 599//599 732//732 731//731
f 596//596 729//729 728//728
f 591//591 724//724 723//723
f 604//604 737//737 736//736
f 606//606 739//739 738//738
f 607//607 740//740 739//739
f 605//605 738//738 737//737
f 609//609 742//742 741//741
f 610//610 743//743 742//742
f 612//612 745//745 744//744
f 613//613 746//746 745//745
f 611//611 744//744 743//743
f 608//608 741//741 740//740
f 615//615 748//748 747//747
f 577//577 713//713 616//616
f 573//573 704//704 709//709
f 616//616 749//749 748//748
f 558//558 694//694 698//698
f 550//550 687//687 694//694
f 531//531 676//676 681//681
f 531//531 524//524 571//571
f 543//543 681//681 687//687
f 566//566 698//698 704//704
f 614//614 747//747 746//746
f 602//602 735//735 734//734
f 514//514 508//508 571//571
f 490//490 508//508 497//497
f 490//490 497//497 487//487
f 490//490 571//571 508//508
f 477//477 469//469 472//472
f 451//451 452//452 460//460
f 443//443 444//444 452//452
f 469//469 459//459 472//472
f 477//477 490//490 487//487
f 427//427 428//428 436//436
f 419//419 420//420 428//428
f 435//435 436//436 444//444
f 667//667 665//665 576//576
f 411//411 412//412 420//420
f 571//571 524//524 514//514
f 403//403 404//404 412//412
f 393//393 394//394 404//404
f 377//377 378//378 386//386
f 361//361 362//362 370//370
f 385//385 386//386 394//394
f 369//369 370//370 378//378
f 603//603 736//736 735//735
f 345//345 346//346 354//354
f 324//324 325//325 338//338
f 311//311 325//325 324//324
f 337//337 338//338 346//346
f 306//306 301//301 311//311
f 301//301 285//285 260//260
f 280//280 269//269 254//254
f 269//269 262//262 254//254
f 238//238 260//260 285//285
f 311//311 318//318 306//306
f 249//249 243//243 106//106
f 232//232 224//224 119//119
f 119//119 224//224 115//115
f 119//119 243//243 232//232
f 113//113 213//213 173//173
f 113//113 173//173 159//159
f 156//156 33//33 35//35
f 115//115 224//224 113//113
f 113//113 83//83 115//115
f 113//113 159//159 39//39
f 262//262 249//249 106//106
f 353//353 354//354 362//362
f 490//490 477//477 472//472
f 665//665 557//557 565//565
f 546//546 542//542 680//680
f 244//244 237//237 292//292
f 95//95 91//91 160//160
f 88//88 1//1 2//2
f 88//88 34//34 1//1
f 125//125 88//88 2//2
f 38//38 109//109 76//76
f 76//76 109//109 82//82
f 86//86 160//160 91//91
f 95//95 160//160 99//99
f 82//82 109//109 86//86
f 237//237 218//218 116//116
f 237//237 244//244 218//218
f 307//307 322//322 321//321
f 321//321 322//322 335//335
f 286//286 304//304 307//307
f 244//244 292//292 266//266
f 517//517 509//509 538//538
f 538//538 509//509 561//561
f 669//669 546//546 675//675
f 561//561 527//527 659//659
f 493//493 509//509 517//517
f 693//693 665//665 697//697
f 697//697 665//665 703//703
f 665//665 667//667 708//708
f 667//667 712//712 708//708
f 667//667 717//717 712//712
f 703//703 665//665 708//708
f 675//675 546//546 680//680
f 518//518 490//490 494//494
f 490//490 539//539 571//571
f 119//119 106//106 243//243
f 311//311 301//301 260//260
f 106//106 254//254 262//262
f 260//260 238//238 245//245
f 280//280 254//254 238//238
f 106//106 104//104 254//254
f 311//311 260//260 267//267
f 96//96 106//106 119//119
f 713//713 577//577 709//709
f 571//571 670//670 676//676
f 571//571 660//660 670//670
f 531//531 571//571 676//676
f 571//571 539//539 562//562
f 490//490 472//472 494//494
f 472//472 475//475 494//494
f 539//539 490//490 518//518
f 571//571 562//562 660//660
f 472//472 460//460 475//475
f 311//311 308//308 325//325
f 311//311 287//287 308//308
f 260//260 245//245 267//267
f 238//238 219//219 245//245
f 311//311 267//267 287//287
f 254//254 104//104 117//117
f 106//106 96//96 100//100
f 119//119 92//92 96//96
f 106//106 100//100 104//104
f 83//83 113//113 77//77
f 39//39 159//159 35//35
f 77//77 113//113 39//39
f 119//119 115//115 87//87
f 238//238 117//117 219//219
f 667//667 584//584 717//717
f 204//204 205//205 71//71
f 202//202 203//203 69//69
f 201//201 202//202 68//68
f 203//203 204//204 70//70
f 199//199 200//200 66//66
f 197//197 198//198 64//64
f 196//196 197//197 63//63
f 198//198 199//199 65//65
f 200//200 201//201 67//67
f 194//194 195//195 61//61
f 192//192 193//193 59//59
f 191//191 192//192 58//58
f 193//193 194//194 60//60
f 189//189 190//190 56//56
f 188//188 189//189 55//55
f 186//186 187//187 53//53
f 185//185 186//186 52//52
f 187//187 188//188 54//54
f 190//190 191//191 57//57
f 195//195 196//196 62//62
f 183//183 184//184 50//50
f 181//181 182//182 48//48
f 180//180 181//181 47//47
f 182//182 183//183 49//49
f 178//178 179//179 45//45
f 177//177 178//178 44//44
f 175//175 176//176 42//42
f 174//174 175//175 41//41
f 176//176 177//177 43//43
f 179//179 180//180 46//46
f 110//110 209//209 174//174
f 110//110 225//225 216//216
f 122//122 229//229 225//225
f 216//216 209//209 110//110
f 246//246 240//240 122//122
f 211//211 258//258 246//246
f 264//264 111//111 277//277
f 281//281 282//282 277//277
f 111//111 264//264 258//258
f 240//240 229//229 122//122
f 110//110 174//174 40//40
f 184//184 185//185 51//51
f 281//281 302//302 295//295
f 331//331 319//319 313//313
f 331//331 332//332 319//319
f 313//313 302//302 299//299
f 348//348 340//340 339//339
f 364//364 356//356 355//355
f 372//372 364//364 363//363
f 356//356 348//348 347//347
f 340//340 332//332 331//331
f 281//281 277//277 120//120
f 299//299 331//331 313//313
f 111//111 258//258 211//211
f 211//211 122//122 93//93
f 302//302 281//281 299//299
f 282//282 281//281 295//295
f 110//110 84//84 225//225
f 315//315 331//331 299//299
f 388//388 380//380 379//379
f 398//398 388//388 387//387
f 414//414 406//406 405//405
f 406//406 398//398 397//397
f 422//422 414//414 413//413
f 380//380 372//372 371//371
f 275//275 299//299 251//251
f 84//84 122//122 225//225
f 438//438 430//430 429//429
f 454//454 446//446 445//445
f 465//465 454//454 453//453
f 446//446 438//438 437//437
f 470//470 491//491 484//484
f 484//484 491//491 488//488
f 505//505 491//491 510//510
f 510//510 528//528 519//519
f 491//491 505//505 488//488
f 470//470 465//465 482//482
f 525//525 547//547 536//536
f 555//555 544//544 690//690
f 690//690 663//663 555//555
f 547//547 544//544 536//536
f 663//663 569//569 559//559
f 663//663 574//574 569//569
f 674//674 626//626 582//582
f 574//574 663//663 582//582
f 674//674 627//627 626//626
f 663//663 559//559 555//555
f 525//525 519//519 547//547
f 430//430 422//422 421//421
f 339//339 340//340 331//331
f 205//205 206//206 72//72
f 628//628 627//627 751//751
f 630//630 629//629 753//753
f 631//631 630//630 754//754
f 629//629 628//628 752//752
f 633//633 632//632 756//756
f 635//635 634//634 758//758
f 636//636 635//635 759//759
f 634//634 633//633 757//757
f 632//632 631//631 755//755
f 638//638 637//637 761//761
f 640//640 639//639 763//763
f 641//641 640//640 764//764
f 639//639 638//638 762//762
f 644//644 643//643 767//767
f 645//645 644//644 768//768
f 647//647 646//646 770//770
f 648//648 647//647 771//771
f 646//646 645//645 769//769
f 643//643 642//642 766//766
f 637//637 636//636 760//760
f 650//650 649//649 773//773
f 652//652 651//651 775//775
f 653//653 652//652 776//776
f 651//651 650//650 774//774
f 655//655 654//654 778//778
f 656//656 655//655 779//779
f 692//692 658//658 657//657
f 658//658 692//692 668//668
f 657//657 656//656 780//780
f 654//654 653//653 777//777
f 666//666 575//575 583//583
f 664//664 560//560 570//570
f 579//579 556//556 560//560
f 570//570 575//575 666//666
f 579//579 537//537 545//545
f 548//548 526//526 537//537
f 529//529 511//511 520//520
f 512//512 506//506 511//511
f 520//520 526//526 548//548
f 545//545 556//556 579//579
f 583//583 658//658 668//668
f 649//649 648//648 772//772
f 492//492 485//485 489//489
f 471//471 473//473 466//466
f 455//455 466//466 467//467
f 473//473 471//471 485//485
f 439//439 447//447 448//448
f 423//423 431//431 432//432
f 415//415 423//423 424//424
f 431//431 439//439 440//440
f 447//447 455//455 456//456
f 579//579 560//560 664//664
f 666//666 668//668 711//711
f 579//579 664//664 696//696
f 548//548 579//579 679//679
f 512//512 511//511 529//529
f 664//664 666//666 707//707
f 548//548 537//537 579//579
f 399//399 407//407 408//408
f 389//389 399//399 400//400
f 512//512 492//492 489//489
f 512//512 529//529 564//564
f 492//492 512//512 541//541
f 407//407 415//415 416//416
f 381//381 389//389 390//390
f 529//529 548//548 673//673
f 373//373 381//381 382//382
f 357//357 365//365 366//366
f 349//349 357//357 358//358
f 365//365 373//373 374//374
f 333//333 341//341 342//342
f 320//320 333//333 316//316
f 314//314 263//263 303//303
f 303//303 263//263 296//296
f 314//314 320//320 298//298
f 341//341 349//349 350//350
f 283//283 263//263 278//278
f 265//265 112//112 259//259
f 259//259 112//112 247//247
f 112//112 265//265 278//278
f 241//241 123//123 230//230
f 230//230 114//114 226//226
f 217//217 114//114 210//210
f 206//206 210//210 74//74
f 114//114 217//217 226//226
f 123//123 241//241 247//247
f 263//263 283//283 296//296
f 485//485 492//492 473//473
f 642//642 641//641 765//765
f 663//663 710//710 582//582
f 528//528 491//491 563//563
f 547//547 528//528 672//672
f 547//547 684//684 544//544
f 663//663 695//695 701//701
f 120//120 277//277 111//111
f 674//674 751//751 627//627
f 73//73 78//78 110//110
f 78//78 80//80 110//110
f 84//84 89//89 122//122
f 89//89 93//93 122//122
f 80//80 84//84 110//110
f 40//40 73//73 110//110
f 111//111 101//101 107//107
f 111//111 107//107 120//120
f 111//111 97//97 101//101
f 227//227 251//251 281//281
f 275//275 297//297 299//299
f 297//297 315//315 299//299
f 120//120 227//227 281//281
f 330//330 339//339 331//331
f 315//315 330//330 331//331
f 470//470 482//482 491//491
f 491//491 482//482 500//500
f 491//491 521//521 540//540
f 491//491 500//500 521//521
f 547//547 678//678 684//684
f 547//547 672//672 678//678
f 701//701 706//706 663//663
f 706//706 710//710 663//663
f 674//674 710//710 715//715
f 674//674 715//715 750//750
f 582//582 710//710 674//674
f 690//690 695//695 663//663
f 528//528 563//563 661//661
f 751//751 674//674 750//750
f 123//123 90//90 114//114
f 123//123 114//114 230//230
f 112//112 123//123 247//247
f 112//112 98//98 123//123
f 263//263 121//121 278//278
f 679//679 673//673 548//548
f 278//278 121//121 112//112
f 692//692 782//782 716//716
f 716//716 711//711 668//668
f 702//702 696//696 664//664
f 692//692 781//781 782//782
f 691//691 685//685 579//579
f 492//492 501//501 473//473
f 473//473 501//501 483//483
f 522//522 501//501 492//492
f 564//564 541//541 512//512
f 473//473 483//483 467//467
f 314//314 298//298 263//263
f 263//263 276//276 252//252
f 263//263 252//252 228//228
f 263//263 298//298 276//276
f 112//112 121//121 108//108
f 112//112 102//102 98//98
f 123//123 98//98 94//94
f 112//112 108//108 102//102
f 114//114 90//90 85//85
f 114//114 85//85 81//81
f 79//79 74//74 210//210
f 114//114 81//81 79//79
f 123//123 94//94 90//90
f 263//263 228//228 121//121
f 79//79 210//210 114//114
f 491//491 528//528 510//510
f 625//625 581//581 577//577
f 291//291 312//312 294//294
f 658//658 583//583 581//581
f 621//621 644//644 622//622
f 578//578 580//580 617//617
f 360//360 352//352 327//327
f 532//532 552//552 551//551
f 502//502 498//498 478//478
f 462//462 478//478 458//458
f 250//250 271//271 270//270
f 234//234 233//233 214//214
f 233//233 255//255 250//250
f 270//270 271//271 290//290
f 580//580 626//626 617//617
f 554//554 533//533 535//535
f 535//535 544//544 554//554
f 574//574 582//582 580//580
f 462//462 470//470 480//480
f 255//255 274//274 271//271
f 234//234 257//257 255//255
f 293//293 290//290 271//271
f 163//163 180//180 162//162
f 184//184 183//183 163//163
f 257//257 264//264 274//274
f 166//166 192//192 165//165
f 83//83 85//85 90//90
f 92//92 94//94 98//98
f 100//100 102//102 108//108
f 104//104 108//108 121//121
f 96//96 98//98 102//102
f 87//87 90//90 94//94
f 325//325 334//334 342//342
f 338//338 342//342 350//350
f 354//354 358//358 366//366
f 362//362 366//366 374//374
f 346//346 350//350 358//358
f 308//308 316//316 334//334
f 117//117 121//121 228//228
f 378//378 382//382 390//390
f 394//394 400//400 408//408
f 404//404 408//408 416//416
f 386//386 390//390 400//400
f 420//420 424//424 432//432
f 436//436 440//440 448//448
f 444//444 448//448 456//456
f 428//428 432//432 440//440
f 412//412 416//416 424//424
f 539//539 541//541 564//564
f 660//660 662//662 673//673
f 683//683 691//691 689//689
f 518//518 522//522 541//541
f 456//456 467//467 461//461
f 370//370 374//374 382//382
f 700//700 707//707 705//705
f 713//713 716//716 782//782
f 747//747 781//781 780//780
f 746//746 780//780 779//779
f 748//748 782//782 781//781
f 744//744 778//778 777//777
f 745//745 779//779 778//778
f 479//479 461//461 467//467
f 743//743 777//777 776//776
f 742//742 776//776 775//775
f 741//741 775//775 774//774
f 739//739 773//773 772//772
f 738//738 772//772 771//771
f 740//740 774//774 773//773
f 737//737 771//771 770//770
f 562//562 564//564 662//662
f 736//736 770//770 769//769
f 734//734 768//768 767//767
f 733//733 767//767 766//766
f 735//735 769//769 768//768
f 730//730 764//764 763//763
f 729//729 763//763 762//762
f 727//727 761//761 760//760
f 726//726 760//760 759//759
f 728//728 762//762 761//761
f 731//731 765//765 764//764
f 724//724 758//758 757//757
f 722//722 756//756 755//755
f 721//721 755//755 754//754
f 723//723 757//757 756//756
f 719//719 753//753 752//752
f 718//718 752//752 751//751
f 750//750 715//715 714//714
f 717//717 751//751 750//750
f 720//720 754//754 753//753
f 725//725 759//759 758//758
f 732//732 766//766 765//765
f 682//682 677//677 675//675
f 677//677 672//672 671//671
f 538//538 563//563 540//540
f 449//449 464//464 453//453
f 441//441 453//453 445//445
f 425//425 437//437 429//429
f 417//417 429//429 421//421
f 433//433 445//445 437//437
f 401//401 413//413 405//405
f 375//375 387//387 379//379
f 367//367 379//379 371//371
f 383//383 397//397 387//387
f 351//351 363//363 355//355
f 335//335 347//347 339//339
f 321//321 339//339 330//330
f 343//343 355//355 347//347
f 359//359 371//371 363//363
f 95//95 101//101 97//97
f 91//91 97//97 93//93
f 409//409 421//421 413//413
f 76//76 84//84 80//80
f 4//4 42//42 43//43
f 5//5 43//43 44//44
f 3//3 41//41 42//42
f 82//82 89//89 84//84
f 86//86 93//93 89//89
f 73//73 40//40 36//36
f 6//6 44//44 45//45
f 7//7 45//45 46//46
f 8//8 46//46 47//47
f 10//10 48//48 49//49
f 11//11 49//49 50//50
f 9//9 47//47 48//48
f 12//12 50//50 51//51
f 391//391 405//405 397//397
f 13//13 51//51 52//52
f 15//15 53//53 54//54
f 16//16 54//54 55//55
f 14//14 52//52 53//53
f 18//18 56//56 57//57
f 19//19 57//57 58//58
f 21//21 59//59 60//60
f 22//22 60//60 61//61
f 20//20 58//58 59//59
f 17//17 55//55 56//56
f 24//24 62//62 63//63
f 26//26 64//64 65//65
f 27//27 65//65 66//66
f 25//25 63//63 64//64
f 29//29 67//67 68//68
f 30//30 68//68 69//69
f 32//32 70//70 71//71
f 33//33 71//71 72//72
f 31//31 69//69 70//70
f 28//28 66//66 67//67
f 23//23 61//61 62//62
f 682//682 688//688 690//690
f 699//699 701//701 695//695
f 154//154 32//32 155//155
f 152//152 30//30 153//153
f 151//151 29//29 152//152
f 153//153 31//31 154//154
f 149//149 27//27 150//150
f 147//147 25//25 148//148
f 146//146 24//24 147//147
f 148//148 26//26 149//149
f 150//150 28//28 151//151
f 144//144 22//22 145//145
f 142//142 20//20 143//143
f 141//141 19//19 142//142
f 143//143 21//21 144//144
f 139//139 17//17 140//140
f 138//138 16//16 139//139
f 136//136 14//14 137//137
f 135//135 13//13 136//136
f 137//137 15//15 138//138
f 140//140 18//18 141//141
f 145//145 23//23 146//146
f 133//133 11//11 134//134
f 131//131 9//9 132//132
f 130//130 8//8 131//131
f 132//132 10//10 133//133
f 128//128 6//6 129//129
f 127//127 5//5 128//128
f 125//125 3//3 126//126
f 126//126 4//4 127//127
f 129//129 7//7 130//130
f 158//158 105//105 124//124
f 268//268 239//239 261//261
f 105//105 34//34 88//88
f 134//134 12//12 135//135
f 344//344 335//335 336//336
f 360//360 351//351 352//352
f 368//368 359//359 360//360
f 352//352 343//343 344//344
f 253//253 103//103 239//239
f 237//237 253//253 279//279
f 239//239 99//99 160//160
f 384//384 375//375 376//376
f 392//392 383//383 384//384
f 376//376 367//367 368//368
f 304//304 286//286 266//266
f 402//402 391//391 392//392
f 38//38 34//34 105//105
f 418//418 409//409 410//410
f 434//434 425//425 426//426
f 442//442 433//433 434//434
f 426//426 417//417 418//418
f 458//458 449//449 450//450
f 474//474 457//457 458//458
f 493//493 474//474 468//468
f 450//450 441//441 442//442
f 513//513 523//523 546//546
f 686//686 680//680 542//542
f 693//693 686//686 549//549
f 669//669 659//659 527//527
f 410//410 401//401 402//402
f 155//155 33//33 156//156
f 585//585 717//717 584//584
f 587//587 719//719 586//586
f 589//589 721//721 588//588
f 590//590 722//722 589//589
f 588//588 720//720 587//587
f 586//586 718//718 585//585
f 592//592 724//724 591//591
f 594//594 726//726 593//593
f 595//595 727//727 594//594
f 593//593 725//725 592//592
f 597//597 729//729 596//596
f 598//598 730//730 597//597
f 600//600 732//732 599//599
f 601//601 733//733 600//600
f 599//599 731//731 598//598
f 596//596 728//728 595//595
f 591//591 723//723 590//590
f 604//604 736//736 603//603
f 606//606 738//738 605//605
f 607//607 739//739 606//606
f 605//605 737//737 604//604
f 609//609 741//741 608//608
f 610//610 742//742 609//609
f 612//612 744//744 611//611
f 613//613 745//745 612//612
f 611//611 743//743 610//610
f 608//608 740//740 607//607
f 615//615 747//747 614//614
f 713//713 749//749 616//616
f 573//573 709//709 577//577
f 616//616 748//748 615//615
f 558//558 698//698 566//566
f 550//550 694//694 558//558
f 531//531 681//681 543//543
f 543//543 687//687 550//550
f 566//566 704//704 573//573
f 614//614 746//746 613//613
f 602//602 734//734 601//601
f 451//451 460//460 459//459
f 443//443 452//452 451//451
f 459//459 460//460 472//472
f 427//427 436//436 435//435
f 419//419 428//428 427//427
f 435//435 444//444 443//443
f 411//411 420//420 419//419
f 403//403 412//412 411//411
f 393//393 404//404 403//403
f 377//377 386//386 385//385
f 361//361 370//370 369//369
f 385//385 394//394 393//393
f 369//369 378//378 377//377
f 603//603 735//735 602//602
f 345//345 354//354 353//353
f 324//324 338//338 337//337
f 311//311 324//324 318//318
f 337//337 346//346 345//345
f 238//238 285//285 280//280
f 156//156 35//35 159//159
f 224//224 213//213 113//113
f 83//83 87//87 115//115
f 353//353 362//362 361//361
f 254//254 117//117 238//238
f 119//119 87//87 92//92
f 204//204 71//71 70//70
f 202//202 69//69 68//68
f 201//201 68//68 67//67
f 203//203 70//70 69//69
f 199//199 66//66 65//65
f 197//197 64//64 63//63
f 196//196 63//63 62//62
f 198//198 65//65 64//64
f 200//200 67//67 66//66
f 194//194 61//61 60//60
f 192//192 59//59 58//58
f 191//191 58//58 57//57
f 193//193 60//60 59//59
f 189//189 56//56 55//55
f 188//188 55//55 54//54
f 186//186 53//53 52//52
f 185//185 52//52 51//51
f 187//187 54//54 53//53
f 190//190 57//57 56//56
f 195//195 62//62 61//61
f 183//183 50//50 49//49
f 181//181 48//48 47//47
f 180//180 47//47 46//46
f 182//182 49//49 48//48
f 178//178 45//45 44//44
f 177//177 44//44 43//43
f 175//175 42//42 41//41
f 174//174 41//41 40//40
f 176//176 43//43 42//42
f 179//179 46//46 45//45
f 246//246 122//122 211//211
f 184//184 51//51 50//50
f 348//348 339//339 347//347
f 364//364 355//355 363//363
f 372//372 363//363 371//371
f 356//356 347//347 355//355
f 111//111 211//211 97//97
f 211//211 93//93 97//97
f 388//388 379//379 387//387
f 398//398 387//387 397//397
f 414//414 405//405 413//413
f 406//406 397//397 405//405
f 422//422 413//413 421//421
f 380//380 371//371 379//379
f 299//299 281//281 251//251
f 438//438 429//429 437//437
f 454//454 445//445 453//453
f 465//465 453//453 464//464
f 446//446 437//437 445//445
f 465//465 464//464 482//482
f 544//544 684//684 690//690
f 519//519 528//528 547//547
f 430//430 421//421 429//429
f 205//205 72//72 71//71
f 628//628 751//751 752//752
f 630//630 753//753 754//754
f 631//631 754//754 755//755
f 629//629 752//752 753//753
f 633//633 756//756 757//757
f 635//635 758//758 759//759
f 636//636 759//759 760//760
f 634//634 757//757 758//758
f 632//632 755//755 756//756
f 638//638 761//761 762//762
f 640//640 763//763 764//764
f 641//641 764//764 765//765
f 639//639 762//762 763//763
f 644//644 767//767 768//768
f 645//645 768//768 769//769
f 647//647 770//770 771//771
f 648//648 771//771 772//772
f 646//646 769//769 770//770
f 643//643 766//766 767//767
f 637//637 760//760 761//761
f 650//650 773//773 774//774
f 652//652 775//775 776//776
f 653//653 776//776 777//777
f 651//651 774//774 775//775
f 655//655 778//778 779//779
f 656//656 779//779 780//780
f 692//692 657//657 781//781
f 692//692 716//716 668//668
f 657//657 780//780 781//781
f 654//654 777//777 778//778
f 570//570 666//666 664//664
f 520//520 548//548 529//529
f 583//583 668//668 666//666
f 649//649 772//772 773//773
f 473//473 467//467 466//466
f 455//455 467//467 456//456
f 439//439 448//448 440//440
f 423//423 432//432 424//424
f 415//415 424//424 416//416
f 431//431 440//440 432//432
f 447//447 456//456 448//448
f 666//666 711//711 707//707
f 579//579 696//696 691//691
f 579//579 685//685 679//679
f 664//664 707//707 702//702
f 399//399 408//408 400//400
f 389//389 400//400 390//390
f 512//512 489//489 506//506
f 529//529 662//662 564//564
f 492//492 541//541 522//522
f 407//407 416//416 408//408
f 381//381 390//390 382//382
f 529//529 673//673 662//662
f 373//373 382//382 374//374
f 357//357 366//366 358//358
f 349//349 358//358 350//350
f 365//365 374//374 366//366
f 333//333 342//342 334//334
f 333//333 334//334 316//316
f 320//320 316//316 298//298
f 341//341 350//350 342//342
f 206//206 74//74 72//72
f 642//642 765//765 766//766
f 491//491 540//540 563//563
f 528//528 661//661 672//672