# PHANTOM Module: L0_18
# Units: meters
o L0_18

v 1.300000 1.800001 2.260690
v 1.300000 1.800001 0.236364
v 1.300000 1.350000 2.260690
v 1.300000 1.350000 0.236364
v 1.300000 0.900002 2.260690
v 1.300000 0.900002 0.236364
v 1.300000 0.450001 2.260690
v 1.300000 0.450001 0.236364
v 1.300000 0.000000 2.260690
v 1.300000 0.000000 0.236364
v 1.299124 1.800001 2.281929
v 1.299124 1.800001 0.215125
v 1.299124 1.350000 2.281929
v 1.299124 1.350000 0.215125
v 1.299124 0.900002 2.281929
v 1.299124 0.900002 0.215125
v 1.299124 0.450001 2.281929
v 1.299124 0.450001 0.215125
v 1.299124 0.000000 2.281929
v 1.299124 0.000000 0.215125
v 1.296383 1.800001 2.303700
v 1.296383 1.800001 0.193354
v 1.296383 1.350000 2.303700
v 1.296383 1.350000 0.193354
v 1.296383 0.900002 2.303700
v 1.296383 0.900002 0.193354
v 1.296383 0.450001 2.303700
v 1.296383 0.450001 0.193354
v 1.296383 0.000000 2.303700
v 1.296383 0.000000 0.193354
v 1.291636 1.800001 2.325727
v 1.291636 1.800001 0.171326
v 1.291636 1.350000 2.325727
v 1.291636 1.350000 0.171326
v 1.291636 0.900002 2.325727
v 1.291636 0.900002 0.171326
v 1.291636 0.450001 2.325727
v 1.291636 0.450001 0.171326
v 1.291636 0.000000 2.325727
v 1.291636 0.000000 0.171326
v 1.284788 1.800001 2.347694
v 1.284788 1.800001 0.149359
v 1.284788 1.350000 2.347694
v 1.284788 1.350000 0.149359
v 1.284788 0.900002 2.347694
v 1.284788 0.900002 0.149359
v 1.284788 0.450001 2.347694
v 1.284788 0.450001 0.149359
v 1.284788 0.000000 2.347694
v 1.284788 0.000000 0.149359
v 1.275795 1.800001 2.369251
v 1.275795 1.800001 0.127803
v 1.275795 1.350000 2.369251
v 1.275795 1.350000 0.127803
v 1.275795 0.900002 2.369251
v 1.275795 0.900002 0.127803
v 1.275795 0.450001 2.369251
v 1.275795 0.450001 0.127803
v 1.275795 0.000000 2.369251
v 1.275795 0.000000 0.127803
v 1.264682 1.800001 2.390031
v 1.264682 1.800001 0.107023
v 1.264682 1.350000 2.390031
v 1.264682 1.350000 0.107023
v 1.264682 0.900002 2.390031
v 1.264682 0.900002 0.107023
v 1.264682 0.450001 2.390031
v 1.264682 0.450001 0.107023
v 1.264682 0.000000 2.390031
v 1.264682 0.000000 0.107023
v 1.251544 1.800001 2.409670
v 1.251544 1.800001 0.087384
v 1.251544 1.350000 2.409670
v 1.251544 1.350000 0.087384
v 1.251544 0.900002 2.409670
v 1.251544 0.900002 0.087384
v 1.251544 0.450001 2.409670
v 1.251544 0.450001 0.087384
v 1.251544 0.000000 2.409670
v 1.251544 0.000000 0.087384
v 1.236540 1.800001 2.427824
v 1.236540 1.800001 0.069229
v 1.236540 1.350000 2.427824
v 1.236540 1.350000 0.069229
v 1.236540 0.900002 2.427824
v 1.236540 0.900002 0.069229
v 1.236540 0.450001 2.427824
v 1.236540 0.450001 0.069229
v 1.236540 0.000000 2.427824
v 1.236540 0.000000 0.069229
v 1.219898 1.800001 2.444192
v 1.219898 1.800001 0.052862
v 1.219898 1.350000 2.444192
v 1.219898 1.350000 0.052862
v 1.219898 0.900002 2.444192
v 1.219898 0.900002 0.052862
v 1.219898 0.450001 2.444192
v 1.219898 0.450001 0.052862
v 1.219898 0.000000 2.444192
v 1.219898 0.000000 0.052862
v 1.201896 1.800001 2.458525
v 1.201896 1.800001 0.038528
v 1.201896 1.350000 2.458525
v 1.201896 1.350000 0.038528
v 1.201896 0.900002 2.458525
v 1.201896 0.900002 0.038528
v 1.201896 0.450001 2.458525
v 1.201896 0.450001 0.038528
v 1.201896 0.000000 2.458525
v 1.201896 0.000000 0.038528
v 1.191667 1.800001 2.260690
v 1.191667 1.800001 0.236364
v 1.191667 1.350000 2.260690
v 1.191667 1.350000 0.236364
v 1.191667 0.900002 2.260690
v 1.191667 0.900002 0.236364
v 1.191667 0.450001 2.260690
v 1.191667 0.450001 0.236364
v 1.191667 0.000000 2.260690
v 1.191667 0.000000 0.236364
v 1.189858 1.800001 2.282195
v 1.189858 1.800001 0.214859
v 1.189858 1.350000 2.282195
v 1.189858 1.350000 0.214859
v 1.189858 0.900002 2.282195
v 1.189858 0.900002 0.214859
v 1.189858 0.450001 2.282195
v 1.189858 0.450001 0.214859
v 1.189858 0.000000 2.282195
v 1.189858 0.000000 0.214859
v 1.184061 1.800001 2.304192
v 1.184061 1.800001 0.192862
v 1.184061 1.350000 2.304192
v 1.184061 1.350000 0.192862
v 1.184061 0.900002 2.304192
v 1.184061 0.900002 0.192862
v 1.184061 0.450001 2.304192
v 1.184061 0.450001 0.192862
v 1.184061 0.000000 2.304192
v 1.184061 0.000000 0.192862
v 1.182847 1.800001 2.470648
v 1.182847 1.800001 0.026406
v 1.182847 1.350000 2.470648
v 1.182847 1.350000 0.026406
v 1.182847 0.900002 2.470648
v 1.182847 0.900002 0.026406
v 1.182847 0.450001 2.470648
v 1.182847 0.450001 0.026406
v 1.182847 0.000000 2.470648
v 1.182847 0.000000 0.026406
v 1.174008 1.800001 2.325360
v 1.174008 1.800001 0.171693
v 1.174008 1.350000 2.325360
v 1.174008 1.350000 0.171693
v 1.174008 0.900002 2.325360
v 1.174008 0.900002 0.171693
v 1.174008 0.450001 2.325360
v 1.174008 0.450001 0.171693
v 1.174008 0.000000 2.325360
v 1.174008 0.000000 0.171693
v 1.163087 1.800001 2.480458
v 1.163087 1.800001 0.016595
v 1.163087 1.350000 2.480458
v 1.163087 1.350000 0.016595
v 1.163087 0.900002 2.480458
v 1.163087 0.900002 0.016595
v 1.163087 0.450001 2.480458
v 1.163087 0.450001 0.016595
v 1.163087 0.000000 2.480458
v 1.163087 0.000000 0.016595
v 1.159937 1.800001 2.344257
v 1.159937 1.800001 0.152796
v 1.159937 1.350000 2.344257
v 1.159937 1.350000 0.152796
v 1.159937 0.900002 2.344257
v 1.159937 0.900002 0.152796
v 1.159937 0.450001 2.344257
v 1.159937 0.450001 0.152796
v 1.159937 0.000000 2.344257
v 1.159937 0.000000 0.152796
v 1.142951 1.800001 2.487930
v 1.142951 1.800001 0.009124
v 1.142951 1.350000 2.487930
v 1.142951 1.350000 0.009124
v 1.142951 0.900002 2.487930
v 1.142951 0.900002 0.009124
v 1.142951 0.450001 2.487930
v 1.142951 0.450001 0.009124
v 1.142951 0.000000 2.487930
v 1.142951 0.000000 0.009124
v 1.142614 1.800001 2.359608
v 1.142614 1.800001 0.137446
v 1.142614 1.350000 2.359608
v 1.142614 1.350000 0.137446
v 1.142614 0.900002 2.359608
v 1.142614 0.900002 0.137446
v 1.142614 0.450001 2.359608
v 1.142614 0.450001 0.137446
v 1.142614 0.000000 2.359608
v 1.142614 0.000000 0.137446
v 1.123210 1.800001 2.370574
v 1.123210 1.800001 0.126480
v 1.123210 1.350000 2.370574
v 1.123210 1.350000 0.126480
v 1.123210 0.900002 2.370574
v 1.123210 0.900002 0.126480
v 1.123210 0.450001 2.370574
v 1.123210 0.450001 0.126480
v 1.123210 0.000000 2.370574
v 1.123210 0.000000 0.126480
v 1.122759 1.800001 2.493108
v 1.122759 1.800001 0.003946
v 1.122759 1.350000 2.493108
v 1.122759 1.350000 0.003946
v 1.122759 0.900002 2.493108
v 1.122759 0.900002 0.003946
v 1.122759 0.450001 2.493108
v 1.122759 0.450001 0.003946
v 1.122759 0.000000 2.493108
v 1.122759 0.000000 0.003946
v 1.103046 1.800001 2.376899
v 1.103046 1.800001 0.120155
v 1.103046 1.350000 2.376899
v 1.103046 1.350000 0.120155
v 1.103046 0.900002 2.376899
v 1.103046 0.900002 0.120155
v 1.103046 0.450001 2.376899
v 1.103046 0.450001 0.120155
v 1.103046 0.000000 2.376899
v 1.103046 0.000000 0.120155
v 1.102802 1.800001 2.496098
v 1.102802 1.800001 0.000956
v 1.102802 1.350000 2.496098
v 1.102802 1.350000 0.000956
v 1.102802 0.900002 2.496098
v 1.102802 0.900002 0.000956
v 1.102802 0.450001 2.496098
v 1.102802 0.450001 0.000956
v 1.102802 0.000000 2.496098
v 1.102802 0.000000 0.000956
v 1.083333 1.800001 2.497054
v 1.083333 1.800001 2.378872
v 1.083333 1.800001 0.118182
v 1.083333 1.800001 0.000000
v 1.083333 1.350000 2.497054
v 1.083333 1.350000 2.378872
v 1.083333 1.350000 0.118182
v 1.083333 1.350000 0.000000
v 1.083333 0.900002 2.497054
v 1.083333 0.900002 2.378872
v 1.083333 0.900002 0.118182
v 1.083333 0.900002 0.000000
v 1.083333 0.450001 2.497054
v 1.083333 0.450001 2.378872
v 1.083333 0.450001 0.118182
v 1.083333 0.450001 0.000000
v 1.083333 0.000000 2.497054
v 1.083333 0.000000 2.378872
v 1.083333 0.000000 0.118182
v 1.083333 0.000000 0.000000
v 0.216667 1.800001 2.497054
v 0.216667 1.800001 2.378872
v 0.216667 1.800001 0.118182
v 0.216667 1.800001 0.000000
v 0.216667 1.350000 2.497054
v 0.216667 1.350000 2.378872
v 0.216667 1.350000 0.118182
v 0.216667 1.350000 0.000000
v 0.216667 0.900002 2.497054
v 0.216667 0.900002 2.378872
v 0.216667 0.900002 0.118182
v 0.216667 0.900002 0.000000
v 0.216667 0.450001 2.497054
v 0.216667 0.450001 2.378872
v 0.216667 0.450001 0.118182
v 0.216667 0.450001 0.000000
v 0.216667 0.000000 2.497054
v 0.216667 0.000000 2.378872
v 0.216667 0.000000 0.118182
v 0.216667 0.000000 0.000000
v 0.197198 1.800001 2.496098
v 0.197198 1.800001 0.000956
v 0.197198 1.350000 2.496098
v 0.197198 1.350000 0.000956
v 0.197198 0.900002 2.496098
v 0.197198 0.900002 0.000956
v 0.197198 0.450001 2.496098
v 0.197198 0.450001 0.000956
v 0.197198 0.000000 2.496098
v 0.197198 0.000000 0.000956
v 0.196954 1.800001 2.376899
v 0.196954 1.800001 0.120155
v 0.196954 1.350000 2.376899
v 0.196954 1.350000 0.120155
v 0.196954 0.900002 2.376899
v 0.196954 0.900002 0.120155
v 0.196954 0.450001 2.376899
v 0.196954 0.450001 0.120155
v 0.196954 0.000000 2.376899
v 0.196954 0.000000 0.120155
v 0.177241 1.800001 2.493108
v 0.177241 1.800001 0.003946
v 0.177241 1.350000 2.493108
v 0.177241 1.350000 0.003946
v 0.177241 0.900002 2.493108
v 0.177241 0.900002 0.003946
v 0.177241 0.450001 2.493108
v 0.177241 0.450001 0.003946
v 0.177241 0.000000 2.493108
v 0.177241 0.000000 0.003946
v 0.176790 1.800001 2.370574
v 0.176790 1.800001 0.126480
v 0.176790 1.350000 2.370574
v 0.176790 1.350000 0.126480
v 0.176790 0.900002 2.370574
v 0.176790 0.900002 0.126480
v 0.176790 0.450001 2.370574
v 0.176790 0.450001 0.126480
v 0.176790 0.000000 2.370574
v 0.176790 0.000000 0.126480
v 0.157386 1.800001 2.359608
v 0.157386 1.800001 0.137446
v 0.157386 1.350000 2.359608
v 0.157386 1.350000 0.137446
v 0.157386 0.900002 2.359608
v 0.157386 0.900002 0.137446
v 0.157386 0.450001 2.359608
v 0.157386 0.450001 0.137446
v 0.157386 0.000000 2.359608
v 0.157386 0.000000 0.137446
v 0.157049 1.800001 2.487930
v 0.157049 1.800001 0.009124
v 0.157049 1.350000 2.487930
v 0.157049 1.350000 0.009124
v 0.157049 0.900002 2.487930
v 0.157049 0.900002 0.009124
v 0.157049 0.450001 2.487930
v 0.157049 0.450001 0.009124
v 0.157049 0.000000 2.487930
v 0.157049 0.000000 0.009124
v 0.140064 1.800001 2.344257
v 0.140064 1.800001 0.152796
v 0.140064 1.350000 2.344257
v 0.140064 1.350000 0.152796
v 0.140064 0.900002 2.344257
v 0.140064 0.900002 0.152796
v 0.140064 0.450001 2.344257
v 0.140064 0.450001 0.152796
v 0.140064 0.000000 2.344257
v 0.140064 0.000000 0.152796
v 0.136913 1.800001 2.480458
v 0.136913 1.800001 0.016595
v 0.136913 1.350000 2.480458
v 0.136913 1.350000 0.016595
v 0.136913 0.900002 2.480458
v 0.136913 0.900002 0.016595
v 0.136913 0.450001 2.480458
v 0.136913 0.450001 0.016595
v 0.136913 0.000000 2.480458
v 0.136913 0.000000 0.016595
v 0.125992 1.800001 2.325360
v 0.125992 1.800001 0.171693
v 0.125992 1.350000 2.325360
v 0.125992 1.350000 0.171693
v 0.125992 0.900002 2.325360
v 0.125992 0.900002 0.171693
v 0.125992 0.450001 2.325360
v 0.125992 0.450001 0.171693
v 0.125992 0.000000 2.325360
v 0.125992 0.000000 0.171693
v 0.117153 1.800001 2.470648
v 0.117153 1.800001 0.026406
v 0.117153 1.350000 2.470648
v 0.117153 1.350000 0.026406
v 0.117153 0.900002 2.470648
v 0.117153 0.900002 0.026406
v 0.117153 0.450001 2.470648
v 0.117153 0.450001 0.026406
v 0.117153 0.000000 2.470648
v 0.117153 0.000000 0.026406
v 0.115940 1.800001 2.304192
v 0.115940 1.800001 0.192862
v 0.115940 1.350000 2.304192
v 0.115940 1.350000 0.192862
v 0.115940 0.900002 2.304192
v 0.115940 0.900002 0.192862
v 0.115940 0.450001 2.304192
v 0.115940 0.450001 0.192862
v 0.115940 0.000000 2.304192
v 0.115940 0.000000 0.192862
v 0.110142 1.800001 2.282195
v 0.110142 1.800001 0.214859
v 0.110142 1.350000 2.282195
v 0.110142 1.350000 0.214859
v 0.110142 0.900002 2.282195
v 0.110142 0.900002 0.214859
v 0.110142 0.450001 2.282195
v 0.110142 0.450001 0.214859
v 0.110142 0.000000 2.282195
v 0.110142 0.000000 0.214859
v 0.108334 1.800001 2.260690
v 0.108334 1.800001 0.236364
v 0.108334 1.350000 2.260690
v 0.108334 1.350000 0.236364
v 0.108334 0.900002 2.260690
v 0.108334 0.900002 0.236364
v 0.108334 0.450001 2.260690
v 0.108334 0.450001 0.236364
v 0.108334 0.000000 2.260690
v 0.108334 0.000000 0.236364
v 0.098104 1.800001 2.458525
v 0.098104 1.800001 0.038528
v 0.098104 1.350000 2.458525
v 0.098104 1.350000 0.038528
v 0.098104 0.900002 2.458525
v 0.098104 0.900002 0.038528
v 0.098104 0.450001 2.458525
v 0.098104 0.450001 0.038528
v 0.098104 0.000000 2.458525
v 0.098104 0.000000 0.038528
v 0.080102 1.800001 2.444192
v 0.080102 1.800001 0.052862
v 0.080102 1.350000 2.444192
v 0.080102 1.350000 0.052862
v 0.080102 0.900002 2.444192
v 0.080102 0.900002 0.052862
v 0.080102 0.450001 2.444192
v 0.080102 0.450001 0.052862
v 0.080102 0.000000 2.444192
v 0.080102 0.000000 0.052862
v 0.063460 1.800001 2.427824
v 0.063460 1.800001 0.069229
v 0.063460 1.350000 2.427824
v 0.063460 1.350000 0.069229
v 0.063460 0.900002 2.427824
v 0.063460 0.900002 0.069229
v 0.063460 0.450001 2.427824
v 0.063460 0.450001 0.069229
v 0.063460 0.000000 2.427824
v 0.063460 0.000000 0.069229
v 0.048457 1.800001 2.409670
v 0.048457 1.800001 0.087384
v 0.048457 1.350000 2.409670
v 0.048457 1.350000 0.087384
v 0.048457 0.900002 2.409670
v 0.048457 0.900002 0.087384
v 0.048457 0.450001 2.409670
v 0.048457 0.450001 0.087384
v 0.048457 0.000000 2.409670
v 0.048457 0.000000 0.087384
v 0.035318 1.800001 2.390031
v 0.035318 1.800001 0.107023
v 0.035318 1.350000 2.390031
v 0.035318 1.350000 0.107023
v 0.035318 0.900002 2.390031
v 0.035318 0.900002 0.107023
v 0.035318 0.450001 2.390031
v 0.035318 0.450001 0.107023
v 0.035318 0.000000 2.390031
v 0.035318 0.000000 0.107023
v 0.024205 1.800001 2.369251
v 0.024205 1.800001 0.127803
v 0.024205 1.350000 2.369251
v 0.024205 1.350000 0.127803
v 0.024205 0.900002 2.369251
v 0.024205 0.900002 0.127803
v 0.024205 0.450001 2.369251
v 0.024205 0.450001 0.127803
v 0.024205 0.000000 2.369251
v 0.024205 0.000000 0.127803
v 0.015213 1.800001 2.347694
v 0.015213 1.800001 0.149359
v 0.015213 1.350000 2.347694
v 0.015213 1.350000 0.149359
v 0.015213 0.900002 2.347694
v 0.015213 0.900002 0.149359
v 0.015213 0.450001 2.347694
v 0.015213 0.450001 0.149359
v 0.015213 0.000000 2.347694
v 0.015213 0.000000 0.149359
v 0.008364 1.800001 2.325727
v 0.008364 1.800001 0.171326
v 0.008364 1.350000 2.325727
v 0.008364 1.350000 0.171326
v 0.008364 0.900002 2.325727
v 0.008364 0.900002 0.171326
v 0.008364 0.450001 2.325727
v 0.008364 0.450001 0.171326
v 0.008364 0.000000 2.325727
v 0.008364 0.000000 0.171326
v 0.003617 1.800001 2.303700
v 0.003617 1.800001 0.193354
v 0.003617 1.350000 2.303700
v 0.003617 1.350000 0.193354
v 0.003617 0.900002 2.303700
v 0.003617 0.900002 0.193354
v 0.003617 0.450001 2.303700
v 0.003617 0.450001 0.193354
v 0.003617 0.000000 2.303700
v 0.003617 0.000000 0.193354
v 0.000876 1.800001 2.281929
v 0.000876 1.800001 0.215125
v 0.000876 1.350000 2.281929
v 0.000876 1.350000 0.215125
v 0.000876 0.900002 2.281929
v 0.000876 0.900002 0.215125
v 0.000876 0.450001 2.281929
v 0.000876 0.450001 0.215125
v 0.000876 0.000000 2.281929
v 0.000876 0.000000 0.215125
v 0.000000 1.800001 2.260690
v 0.000000 1.800001 0.236364
v 0.000000 1.350000 2.260690
v 0.000000 1.350000 0.236364
v 0.000000 0.900002 2.260690
v 0.000000 0.900002 0.236364
v 0.000000 0.450001 2.260690
v 0.000000 0.450001 0.236364
v 0.000000 0.000000 2.260690
v 0.000000 0.000000 0.236364

vn 0.706973 0.707174 0.009719
vn 0.831687 0.554773 -0.022874
vn 0.999787 0.000000 0.020620
vn 0.999787 0.000000 -0.020620
vn 0.999787 0.000000 0.020620
vn 0.999787 0.000000 -0.020620
vn 0.999787 0.000000 0.020620
vn 0.999787 0.000000 -0.020620
vn 0.706773 -0.707174 0.019438
vn 0.831923 -0.554773 -0.011437
vn 0.829857 0.555001 0.057545
vn 0.827919 0.555001 -0.080766
vn 0.996021 0.000000 0.089123
vn 0.997201 0.000000 -0.074765
vn 0.996538 0.000000 0.083143
vn 0.996538 0.000000 -0.083143
vn 0.997201 0.000000 0.074765
vn 0.996021 0.000000 -0.089124
vn 0.827919 -0.555001 0.080766
vn 0.829857 -0.555001 -0.057546
vn 0.821962 0.555023 0.127782
vn 0.817909 0.555023 -0.151573
vn 0.983258 0.000000 0.182217
vn 0.988131 0.000000 -0.153614
vn 0.985798 0.000000 0.167933
vn 0.985798 0.000000 -0.167932
vn 0.988131 0.000000 0.153615
vn 0.983259 0.000000 -0.182215
vn 0.817909 -0.555023 0.151574
vn 0.821962 -0.555023 -0.127782
vn 0.807537 0.555046 0.199519
vn 0.801185 0.555046 -0.223666
vn 0.963172 0.000000 0.268887
vn 0.970808 0.000000 -0.239858
vn 0.967099 0.000000 0.254402
vn 0.967099 0.000000 -0.254401
vn 0.970808 0.000000 0.239859
vn 0.963172 0.000000 -0.268887
vn 0.801185 -0.555046 0.223666
vn 0.807537 -0.555046 -0.199519
vn 0.667892 0.707447 0.231171
vn 0.660401 0.707447 -0.251774
vn 0.934398 0.000000 0.356232
vn 0.944995 0.000000 -0.327084
vn 0.939810 0.000000 0.341698
vn 0.939809 0.000000 -0.341700
vn 0.944996 0.000000 0.327083
vn 0.934397 0.000000 -0.356233
vn 0.660401 -0.707447 0.251773
vn 0.667891 -0.707447 -0.231172
vn 0.757048 0.555092 0.344603
vn 0.745644 0.555092 -0.368629
vn 0.896434 0.000000 0.443178
vn 0.910144 0.000000 -0.414291
vn 0.903405 0.000000 0.428789
vn 0.903405 0.000000 -0.428789
vn 0.910144 0.000000 0.414291
vn 0.896434 0.000000 -0.443177
vn 0.745643 -0.555092 0.368630
vn 0.757048 -0.555092 -0.344603
vn 0.720204 0.555115 0.416118
vn 0.706140 0.555115 -0.439562
vn 0.848956 0.000000 0.528464
vn 0.865866 0.000000 -0.500276
vn 0.857526 0.000000 0.514441
vn 0.857527 0.000000 -0.514439
vn 0.865865 0.000000 0.500278
vn 0.848956 0.000000 -0.528463
vn 0.706139 -0.555115 0.439563
vn 0.720204 -0.555115 -0.416117
vn 0.573820 0.707508 0.412509
vn 0.559594 0.707508 -0.431610
vn 0.791836 0.000000 0.610734
vn 0.811964 0.000000 -0.583707
vn 0.802014 0.000000 0.597306
vn 0.802013 0.000000 -0.597306
vn 0.811964 0.000000 0.583708
vn 0.791835 0.000000 -0.610735
vn 0.559595 -0.707508 0.431609
vn 0.573820 -0.707508 -0.412509
vn 0.622570 0.555153 0.551554
vn 0.603242 0.555153 -0.572628
vn 0.725273 0.000000 0.688462
vn 0.748506 0.000000 -0.663128
vn 0.736999 0.000000 0.675894
vn 0.736997 0.000000 -0.675896
vn 0.748508 0.000000 0.663126
vn 0.725271 0.000000 -0.688464
vn 0.603244 -0.555153 0.572627
vn 0.622568 -0.555153 -0.551555
vn 0.477657 0.707537 0.520802
vn 0.459185 0.707537 -0.537160
vn 0.649779 0.000000 0.760123
vn 0.675921 0.000000 -0.736974
vn 0.662951 0.000000 0.748663
vn 0.662952 0.000000 -0.748662
vn 0.675921 0.000000 0.736974
vn 0.649781 0.000000 -0.760122
vn 0.459183 -0.707537 0.537161
vn 0.477657 -0.707537 -0.520802
vn 0.420440 0.707545 0.567988
vn 0.400165 0.707545 -0.582450
vn 0.566272 0.000000 0.824219
vn 0.594963 0.000000 -0.803753
vn 0.580707 0.000000 0.814113
vn 0.580707 0.000000 -0.814113
vn 0.594961 0.000000 0.803754
vn 0.566270 0.000000 -0.824220
vn 0.400166 -0.707545 0.582449
vn 0.420441 -0.707545 -0.567987
vn -0.446235 0.894567 -0.024984
vn -0.393505 0.919257 0.011003
vn -0.999121 0.000000 -0.041930
vn -0.999121 0.000000 0.041930
vn -0.999121 0.000000 -0.041930
vn -0.999121 0.000000 0.041930
vn -0.999121 0.000000 -0.041930
vn -0.999121 0.000000 0.041930
vn -0.446759 -0.894567 -0.012492
vn -0.393044 -0.919257 0.022006
vn -0.503012 0.858254 -0.101878
vn -0.508077 0.858254 0.072512
vn -0.988261 0.000000 -0.152772
vn -0.983258 0.000000 0.182220
vn -0.985450 0.000000 -0.169968
vn -0.985450 0.000000 0.169968
vn -0.983258 0.000000 -0.182220
vn -0.988261 0.000000 0.152772
vn -0.508077 -0.858254 -0.072512
vn -0.503012 -0.858254 0.101878
vn -0.555485 0.801102 -0.222873
vn -0.568235 0.801102 0.188001
vn -0.949388 0.000000 -0.314107
vn -0.928085 0.000000 0.372367
vn -0.939188 0.000000 -0.343403
vn -0.939188 0.000000 0.343402
vn -0.928085 0.000000 -0.372369
vn -0.949388 0.000000 0.314106
vn -0.568235 -0.801102 -0.188002
vn -0.555485 -0.801102 0.222872
vn 0.358138 0.707548 0.609191
vn 0.336383 0.707548 -0.621468
vn 0.476012 0.000000 0.879439
vn 0.506798 0.000000 -0.862065
vn 0.491483 0.000000 0.870887
vn 0.491483 0.000000 -0.870887
vn 0.506799 0.000000 0.862064
vn 0.476014 0.000000 -0.879438
vn 0.336381 -0.707548 0.621469
vn 0.358137 -0.707548 -0.609191
vn -0.592282 0.708626 -0.383472
vn -0.616197 0.708626 0.343730
vn -0.873314 0.000000 -0.487157
vn -0.839420 0.000000 0.543483
vn -0.856831 0.000000 -0.515598
vn -0.856830 0.000000 0.515598
vn -0.839421 0.000000 -0.543482
vn -0.873315 0.000000 0.487157
vn -0.616197 -0.708626 -0.343730
vn -0.592281 -0.708626 0.383473
vn 0.343435 0.555175 0.757517
vn 0.316568 0.555175 -0.769133
vn 0.380609 0.000000 0.924736
vn 0.412919 0.000000 -0.910768
vn 0.396824 0.000000 0.917895
vn 0.396827 0.000000 -0.917893
vn 0.412915 0.000000 0.910770
vn 0.380612 0.000000 -0.924735
vn 0.316566 -0.555175 0.769134
vn 0.343438 -0.555175 -0.757516
vn -0.502874 0.708768 -0.494738
vn -0.535676 0.708768 0.459020
vn -0.759351 0.000000 -0.650681
vn -0.712848 0.000000 0.701318
vn -0.736536 0.000000 -0.676399
vn -0.736534 0.000000 0.676401
vn -0.712851 0.000000 -0.701316
vn -0.759349 0.000000 0.650684
vn -0.535678 -0.708768 -0.459018
vn -0.502873 -0.708768 0.494739
vn 0.222671 0.707534 0.670681
vn 0.199209 0.707534 -0.678020
vn 0.281897 0.000000 0.959445
vn 0.315095 0.000000 -0.949060
vn 0.298541 0.000000 0.954397
vn 0.298540 0.000000 -0.954397
vn 0.315095 0.000000 0.949060
vn 0.281895 0.000000 -0.959445
vn 0.199211 -0.707534 0.678020
vn 0.222671 -0.707534 -0.670681
vn -0.330036 0.801419 -0.498802
vn -0.364338 0.801419 0.474326
vn -0.609156 0.000000 -0.793050
vn -0.551807 0.000000 0.833972
vn -0.580841 0.000000 -0.814017
vn -0.580842 0.000000 0.814016
vn -0.551805 0.000000 -0.833973
vn -0.609156 0.000000 0.793051
vn -0.364338 -0.801419 -0.474326
vn -0.330038 -0.801419 0.498801
vn -0.257685 0.708847 -0.656608
vn -0.303227 0.708847 0.636859
vn -0.429886 0.000000 -0.902883
vn -0.365324 0.000000 0.930880
vn -0.397851 0.000000 -0.917450
vn -0.397853 0.000000 0.917449
vn -0.365323 0.000000 -0.930881
vn -0.429889 0.000000 0.902882
vn -0.303226 -0.708847 -0.636860
vn -0.257686 -0.708847 0.656608
vn 0.152108 0.707518 0.690131
vn 0.128466 0.707518 -0.694921
vn 0.181790 0.000000 0.983337
vn 0.215234 0.000000 -0.976563
vn 0.198543 0.000000 0.980092
vn 0.198538 0.000000 -0.980093
vn 0.215238 0.000000 0.976562
vn 0.181784 0.000000 -0.983338
vn 0.128470 -0.707518 0.694920
vn 0.152105 -0.707518 -0.690132
vn -0.117759 0.708745 -0.695567
vn -0.164937 0.708745 0.685913
vn -0.214794 0.000000 -0.976659
vn -0.180369 0.000000 0.983599
vn -0.200479 0.000000 -0.979698
vn -0.200480 0.000000 0.979698
vn -0.180367 0.000000 -0.983599
vn -0.214795 0.000000 0.976659
vn -0.164937 -0.708745 -0.685913
vn -0.117761 -0.708745 0.695567
vn 0.081453 0.707497 0.702007
vn 0.058078 0.707497 -0.704326
vn 0.088803 0.000000 0.996049
vn 0.105815 0.000000 -0.994386
vn 0.098731 0.000000 0.995114
vn 0.098730 0.000000 -0.995114
vn 0.105817 0.000000 0.994386
vn 0.088802 0.000000 -0.996049
vn 0.058078 -0.707497 0.704326
vn 0.081451 -0.707497 -0.702007
vn 0.027213 0.554803 0.831537
vn -0.019925 0.800318 -0.599244
vn -0.046974 0.707498 0.705153
vn 0.011563 0.707201 -0.706918
vn 0.024532 0.000000 0.999699
vn -0.049856 0.000000 -0.998756
vn -0.049858 0.000000 0.998756
vn 0.024533 0.000000 -0.999699
vn 0.024532 0.000000 0.999699
vn -0.049856 0.000000 -0.998756
vn -0.049858 0.000000 0.998756
vn 0.024533 0.000000 -0.999699
vn 0.024532 0.000000 0.999699
vn -0.049856 0.000000 -0.998756
vn -0.049858 0.000000 0.998756
vn 0.024533 0.000000 -0.999699
vn 0.013606 -0.554803 0.831870
vn -0.039851 -0.800318 -0.598249
vn -0.023487 -0.707498 0.706325
vn 0.023126 -0.707201 -0.706634
vn -0.011563 0.707201 0.706918
vn 0.046972 0.707498 -0.705153
vn 0.019926 0.800318 0.599244
vn -0.027214 0.554803 -0.831537
vn -0.024532 0.000000 0.999699
vn 0.049856 0.000000 -0.998756
vn 0.049858 0.000000 0.998756
vn -0.024533 0.000000 -0.999699
vn -0.024532 0.000000 0.999699
vn 0.049856 0.000000 -0.998756
vn 0.049858 0.000000 0.998756
vn -0.024533 0.000000 -0.999699
vn -0.024532 0.000000 0.999699
vn 0.049856 0.000000 -0.998756
vn 0.049858 0.000000 0.998756
vn -0.024533 0.000000 -0.999699
vn -0.023125 -0.707201 0.706634
vn 0.023486 -0.707498 -0.706325
vn 0.039852 -0.800318 0.598249
vn -0.013607 -0.554803 -0.831870
vn -0.058078 0.707497 0.704326
vn -0.081451 0.707497 -0.702007
vn -0.105817 0.000000 0.994386
vn -0.088802 0.000000 -0.996049
vn -0.098731 0.000000 0.995114
vn -0.098730 0.000000 -0.995114
vn -0.088803 0.000000 0.996049
vn -0.105815 0.000000 -0.994386
vn -0.081453 -0.707497 0.702007
vn -0.058078 -0.707497 -0.704326
vn 0.164937 0.708745 -0.685913
vn 0.117761 0.708745 0.695567
vn 0.180367 0.000000 -0.983599
vn 0.214795 0.000000 0.976659
vn 0.200479 0.000000 -0.979698
vn 0.200480 0.000000 0.979698
vn 0.214794 0.000000 -0.976659
vn 0.180369 0.000000 0.983599
vn 0.117759 -0.708745 -0.695567
vn 0.164937 -0.708745 0.685913
vn -0.128470 0.707518 0.694920
vn -0.152105 0.707518 -0.690132
vn -0.215238 0.000000 0.976562
vn -0.181784 0.000000 -0.983338
vn -0.198543 0.000000 0.980092
vn -0.198538 0.000000 -0.980093
vn -0.181790 0.000000 0.983337
vn -0.215234 0.000000 -0.976563
vn -0.152108 -0.707518 0.690131
vn -0.128466 -0.707518 -0.694921
vn 0.303226 0.708847 -0.636860
vn 0.257686 0.708847 0.656608
vn 0.365323 0.000000 -0.930881
vn 0.429889 0.000000 0.902882
vn 0.397851 0.000000 -0.917450
vn 0.397853 0.000000 0.917449
vn 0.429886 0.000000 -0.902883
vn 0.365324 0.000000 0.930880
vn 0.257685 -0.708847 -0.656608
vn 0.303227 -0.708847 0.636859
vn 0.364342 0.801419 -0.474322
vn 0.330040 0.801419 0.498799
vn 0.551809 0.000000 -0.833970
vn 0.609163 0.000000 0.793045
vn 0.580847 0.000000 -0.814013
vn 0.580848 0.000000 0.814012
vn 0.609163 0.000000 -0.793045
vn 0.551811 0.000000 0.833969
vn 0.330039 -0.801419 -0.498800
vn 0.364342 -0.801419 0.474322
vn -0.199211 0.707534 0.678020
vn -0.222671 0.707534 -0.670681
vn -0.315095 0.000000 0.949060
vn -0.281895 0.000000 -0.959445
vn -0.298541 0.000000 0.954397
vn -0.298540 0.000000 -0.954397
vn -0.281897 0.000000 0.959445
vn -0.315095 0.000000 -0.949060
vn -0.222671 -0.707534 0.670681
vn -0.199209 -0.707534 -0.678020
vn 0.535675 0.708767 -0.459022
vn 0.502875 0.708767 0.494738
vn 0.712853 0.000000 -0.701313
vn 0.759345 0.000000 0.650689
vn 0.736535 0.000000 -0.676399
vn 0.736533 0.000000 0.676402
vn 0.759347 0.000000 -0.650686
vn 0.712851 0.000000 0.701316
vn 0.502877 -0.708767 -0.494736
vn 0.535674 -0.708767 0.459023
vn -0.316568 0.555175 0.769133
vn -0.343443 0.555175 -0.757514
vn -0.412921 0.000000 0.910767
vn -0.380615 0.000000 -0.924733
vn -0.396828 0.000000 0.917893
vn -0.396831 0.000000 -0.917892
vn -0.380612 0.000000 0.924735
vn -0.412925 0.000000 -0.910765
vn -0.343440 -0.555175 0.757515
vn -0.316570 -0.555175 -0.769132
vn 0.616194 0.708627 -0.343734
vn 0.592277 0.708627 0.383479
vn 0.839415 0.000000 -0.543491
vn 0.873312 0.000000 0.487161
vn 0.856826 0.000000 -0.515605
vn 0.856826 0.000000 0.515605
vn 0.873312 0.000000 -0.487162
vn 0.839414 0.000000 0.543492
vn 0.592278 -0.708627 -0.383478
vn 0.616195 -0.708627 0.343733
vn -0.336383 0.707548 0.621468
vn -0.358134 0.707548 -0.609193
vn -0.506796 0.000000 0.862066
vn -0.476016 0.000000 -0.879436
vn -0.491482 0.000000 0.870888
vn -0.491482 0.000000 -0.870888
vn -0.476015 0.000000 0.879437
vn -0.506794 0.000000 -0.862067
vn -0.358135 -0.707548 0.609193
vn -0.336384 -0.707548 -0.621467
vn 0.568237 0.801102 -0.187994
vn 0.555486 0.801102 0.222868
vn 0.928087 0.000000 -0.372363
vn 0.949392 0.000000 0.314094
vn 0.939192 0.000000 -0.343393
vn 0.939192 0.000000 0.343393
vn 0.949392 0.000000 -0.314094
vn 0.928088 0.000000 0.372361
vn 0.555486 -0.801102 -0.222869
vn 0.568237 -0.801102 0.187994
vn 0.508077 0.858254 -0.072516
vn 0.503013 0.858254 0.101875
vn 0.983258 0.000000 -0.182218
vn 0.988261 0.000000 0.152777
vn 0.985449 0.000000 -0.169969
vn 0.985449 0.000000 0.169969
vn 0.988261 0.000000 -0.152777
vn 0.983258 0.000000 0.182218
vn 0.503013 -0.858254 -0.101875
vn 0.508077 -0.858254 0.072516
vn 0.393505 0.919257 -0.011006
vn 0.446234 0.894567 0.024991
vn 0.999120 0.000000 -0.041941
vn 0.999120 0.000000 0.041941
vn 0.999120 0.000000 -0.041941
vn 0.999120 0.000000 0.041941
vn 0.999120 0.000000 -0.041941
vn 0.999120 0.000000 0.041941
vn 0.393043 -0.919257 -0.022012
vn 0.446759 -0.894567 0.012495
vn -0.400164 0.707545 0.582450
vn -0.420444 0.707545 -0.567985
vn -0.594965 0.000000 0.803751
vn -0.566268 0.000000 -0.824221
vn -0.580707 0.000000 0.814112
vn -0.580707 0.000000 -0.814112
vn -0.566269 0.000000 0.824220
vn -0.594967 0.000000 -0.803750
vn -0.420443 -0.707545 0.567985
vn -0.400163 -0.707545 -0.582451
vn -0.459186 0.707537 0.537159
vn -0.477655 0.707537 -0.520805
vn -0.675917 0.000000 0.736977
vn -0.649784 0.000000 -0.760119
vn -0.662951 0.000000 0.748663
vn -0.662951 0.000000 -0.748662
vn -0.649782 0.000000 0.760121
vn -0.675917 0.000000 -0.736978
vn -0.477655 -0.707537 0.520804
vn -0.459187 -0.707537 -0.537158
vn -0.603241 0.555154 0.572629
vn -0.622571 0.555154 -0.551552
vn -0.748512 0.000000 0.663122
vn -0.725268 0.000000 -0.688467
vn -0.737000 0.000000 0.675893
vn -0.736998 0.000000 -0.675895
vn -0.725270 0.000000 0.688465
vn -0.748510 0.000000 -0.663124
vn -0.622573 -0.555154 0.551550
vn -0.603240 -0.555154 -0.572631
vn -0.559597 0.707507 0.431607
vn -0.573817 0.707507 -0.412513
vn -0.811960 0.000000 0.583712
vn -0.791838 0.000000 -0.610731
vn -0.802013 0.000000 0.597306
vn -0.802013 0.000000 -0.597307
vn -0.791839 0.000000 0.610730
vn -0.811961 0.000000 -0.583712
vn -0.573817 -0.707507 0.412513
vn -0.559597 -0.707507 -0.431607
vn -0.706134 0.555115 0.439571
vn -0.720202 0.555115 -0.416121
vn -0.865862 0.000000 0.500283
vn -0.848951 0.000000 -0.528472
vn -0.857522 0.000000 0.514448
vn -0.857523 0.000000 -0.514446
vn -0.848950 0.000000 0.528474
vn -0.865863 0.000000 -0.500281
vn -0.720201 -0.555115 0.416122
vn -0.706135 -0.555115 -0.439569
vn -0.745643 0.555092 0.368630
vn -0.757048 0.555092 -0.344603
vn -0.910144 0.000000 0.414291
vn -0.896434 0.000000 -0.443177
vn -0.903405 0.000000 0.428789
vn -0.903405 0.000000 -0.428789
vn -0.896434 0.000000 0.443178
vn -0.910144 0.000000 -0.414291
vn -0.757048 -0.555092 0.344603
vn -0.745644 -0.555092 -0.368629
vn -0.660401 0.707447 0.251773
vn -0.667891 0.707447 -0.231172
vn -0.944996 0.000000 0.327083
vn -0.934397 0.000000 -0.356233
vn -0.939810 0.000000 0.341698
vn -0.939809 0.000000 -0.341700
vn -0.934398 0.000000 0.356232
vn -0.944995 0.000000 -0.327084
vn -0.667892 -0.707447 0.231171
vn -0.660401 -0.707447 -0.251774
vn -0.801185 0.555046 0.223666
vn -0.807537 0.555046 -0.199519
vn -0.970808 0.000000 0.239859
vn -0.963172 0.000000 -0.268887
vn -0.967099 0.000000 0.254402
vn -0.967099 0.000000 -0.254401
vn -0.963172 0.000000 0.268887
vn -0.970808 0.000000 -0.239858
vn -0.807537 -0.555046 0.199519
vn -0.801185 -0.555046 -0.223666
vn -0.817909 0.555023 0.151574
vn -0.821962 0.555023 -0.127782
vn -0.988131 0.000000 0.153615
vn -0.983259 0.000000 -0.182215
vn -0.985798 0.000000 0.167933
vn -0.985798 0.000000 -0.167932
vn -0.983258 0.000000 0.182217
vn -0.988131 0.000000 -0.153614
vn -0.821962 -0.555023 0.127782
vn -0.817909 -0.555023 -0.151573
vn -0.827919 0.555001 0.080766
vn -0.829857 0.555001 -0.057546
vn -0.997201 0.000000 0.074765
vn -0.996021 0.000000 -0.089124
vn -0.996538 0.000000 0.083143
vn -0.996538 0.000000 -0.083143
vn -0.996021 0.000000 0.089123
vn -0.997201 0.000000 -0.074765
vn -0.829857 -0.555001 0.057545
vn -0.827919 -0.555001 -0.080766
vn -0.831687 0.554773 0.022874
vn -0.706973 0.707174 -0.009719
vn -0.999787 0.000000 0.020620
vn -0.999787 0.000000 -0.020620
vn -0.999787 0.000000 0.020620
vn -0.999787 0.000000 -0.020620
vn -0.999787 0.000000 0.020620
vn -0.999787 0.000000 -0.020620
vn -0.831923 -0.554773 0.011437
vn -0.706773 -0.707174 -0.019438

f 7//7 9//9 10//10
f 3//3 5//5 6//6
f 1//1 3//3 4//4
f 5//5 7//7 8//8
f 26//26 16//16 18//18
f 24//24 14//14 16//16
f 36//36 26//26 28//28
f 34//34 24//24 26//26
f 46//46 36//36 38//38
f 44//44 34//34 36//36
f 56//56 46//46 48//48
f 54//54 44//44 46//46
f 66//66 56//56 58//58
f 64//64 54//54 56//56
f 76//76 66//66 68//68
f 74//74 64//64 66//66
f 86//86 76//76 78//78
f 84//84 74//74 76//76
f 96//96 86//86 88//88
f 94//94 84//84 86//86
f 106//106 96//96 98//98
f 104//104 94//94 96//96
f 146//146 106//106 108//108
f 144//144 104//104 106//106
f 166//166 146//146 148//148
f 164//164 144//144 146//146
f 186//186 166//166 168//168
f 184//184 164//164 166//166
f 216//216 186//186 188//188
f 214//214 184//184 186//186
f 236//236 216//216 218//218
f 234//234 214//214 216//216
f 20//20 18//18 8//8
f 40//40 38//38 28//28
f 30//30 28//28 18//18
f 18//18 16//16 6//6
f 50//50 48//48 38//38
f 70//70 68//68 58//58
f 90//90 88//88 78//78
f 80//80 78//78 68//68
f 60//60 58//58 48//48
f 88//88 90//90 100//100
f 4//4 6//6 16//16
f 14//14 12//12 2//2
f 22//22 24//24 34//34
f 24//24 22//22 12//12
f 54//54 52//52 42//42
f 74//74 72//72 62//62
f 64//64 62//62 52//52
f 44//44 42//42 32//32
f 72//72 74//74 84//84
f 110//110 108//108 98//98
f 170//170 168//168 148//148
f 150//150 148//148 108//108
f 190//190 188//188 168//168
f 220//220 218//218 188//188
f 240//240 238//238 218//218
f 260//260 256//256 238//238
f 256//256 252//252 236//236
f 252//252 248//248 234//234
f 94//94 92//92 82//82
f 144//144 142//142 102//102
f 104//104 102//102 92//92
f 164//164 162//162 142//142
f 214//214 212//212 182//182
f 248//248 244//244 232//232
f 234//234 232//232 212//212
f 184//184 182//182 162//162
f 256//256 260//260 280//280
f 248//248 252//252 272//272
f 244//244 248//248 268//268
f 252//252 256//256 276//276
f 306//306 286//286 288//288
f 304//304 284//284 286//286
f 336//336 306//306 308//308
f 334//334 304//304 306//306
f 356//356 336//336 338//338
f 354//354 334//334 336//336
f 376//376 356//356 358//358
f 374//374 354//354 356//356
f 416//416 376//376 378//378
f 414//414 374//374 376//376
f 426//426 416//416 418//418
f 424//424 414//414 416//416
f 436//436 426//426 428//428
f 434//434 424//424 426//426
f 446//446 436//436 438//438
f 444//444 434//434 436//436
f 456//456 446//446 448//448
f 454//454 444//444 446//446
f 466//466 456//456 458//458
f 464//464 454//454 456//456
f 476//476 466//466 468//468
f 474//474 464//464 466//466
f 486//486 476//476 478//478
f 484//484 474//474 476//476
f 496//496 486//486 488//488
f 494//494 484//484 486//486
f 506//506 496//496 498//498
f 504//504 494//494 496//496
f 290//290 288//288 276//276
f 340//340 338//338 308//308
f 310//310 308//308 288//288
f 288//288 286//286 272//272
f 360//360 358//358 338//338
f 420//420 418//418 378//378
f 440//440 438//438 428//428
f 430//430 428//428 418//418
f 380//380 378//378 358//358
f 438//438 440//440 450//450
f 268//268 272//272 286//286
f 284//284 282//282 264//264
f 302//302 304//304 334//334
f 304//304 302//302 282//282
f 374//374 372//372 352//352
f 424//424 422//422 412//412
f 414//414 412//412 372//372
f 354//354 352//352 332//332
f 422//422 424//424 434//434
f 460//460 458//458 448//448
f 480//480 478//478 468//468
f 470//470 468//468 458//458
f 490//490 488//488 478//478
f 500//500 498//498 488//488
f 510//510 508//508 498//498
f 520//520 518//518 508//508
f 518//518 516//516 506//506
f 516//516 514//514 504//504
f 444//444 442//442 432//432
f 464//464 462//462 452//452
f 454//454 452//452 442//442
f 474//474 472//472 462//462
f 494//494 492//492 482//482
f 514//514 512//512 502//502
f 504//504 502//502 492//492
f 484//484 482//482 472//472
f 518//518 520//520 519//519
f 514//514 516//516 515//515
f 512//512 514//514 513//513
f 516//516 518//518 517//517
f 495//495 505//505 507//507
f 493//493 503//503 505//505
f 485//485 495//495 497//497
f 483//483 493//493 495//495
f 475//475 485//485 487//487
f 473//473 483//483 485//485
f 465//465 475//475 477//477
f 463//463 473//473 475//475
f 455//455 465//465 467//467
f 453//453 463//463 465//465
f 445//445 455//455 457//457
f 443//443 453//453 455//455
f 435//435 445//445 447//447
f 433//433 443//443 445//445
f 425//425 435//435 437//437
f 423//423 433//433 435//435
f 415//415 425//425 427//427
f 413//413 423//423 425//425
f 375//375 415//415 417//417
f 373//373 413//413 415//415
f 355//355 375//375 377//377
f 353//353 373//373 375//375
f 335//335 355//355 357//357
f 333//333 353//353 355//355
f 305//305 335//335 337//337
f 303//303 333//333 335//335
f 285//285 305//305 307//307
f 283//283 303//303 305//305
f 509//509 507//507 517//517
f 489//489 487//487 497//497
f 499//499 497//497 507//507
f 507//507 505//505 515//515
f 479//479 477//477 487//487
f 459//459 457//457 467//467
f 439//439 437//437 447//447
f 449//449 447//447 457//457
f 469//469 467//467 477//477
f 437//437 439//439 429//429
f 513//513 515//515 505//505
f 503//503 501//501 511//511
f 491//491 493//493 483//483
f 493//493 491//491 501//501
f 463//463 461//461 471//471
f 443//443 441//441 451//451
f 453//453 451//451 461//461
f 473//473 471//471 481//481
f 441//441 443//443 433//433
f 419//419 417//417 427//427
f 359//359 357//357 377//377
f 379//379 377//377 417//417
f 339//339 337//337 357//357
f 309//309 307//307 337//337
f 289//289 287//287 307//307
f 277//277 273//273 287//287
f 273//273 269//269 285//285
f 269//269 265//265 283//283
f 423//423 421//421 431//431
f 373//373 371//371 411//411
f 413//413 411//411 421//421
f 353//353 351//351 371//371
f 303//303 301//301 331//331
f 265//265 261//261 281//281
f 283//283 281//281 301//301
f 333//333 331//331 351//351
f 273//273 277//277 257//257
f 265//265 269//269 249//249
f 261//261 265//265 245//245
f 269//269 273//273 253//253
f 215//215 235//235 237//237
f 213//213 233//233 235//235
f 185//185 215//215 217//217
f 183//183 213//213 215//215
f 165//165 185//185 187//187
f 163//163 183//183 185//185
f 145//145 165//165 167//167
f 143//143 163//163 165//165
f 105//105 145//145 147//147
f 103//103 143//143 145//145
f 95//95 105//105 107//107
f 93//93 103//103 105//105
f 85//85 95//95 97//97
f 83//83 93//93 95//95
f 75//75 85//85 87//87
f 73//73 83//83 85//85
f 65//65 75//75 77//77
f 63//63 73//73 75//75
f 55//55 65//65 67//67
f 53//53 63//63 65//65
f 45//45 55//55 57//57
f 43//43 53//53 55//55
f 35//35 45//45 47//47
f 33//33 43//43 45//45
f 25//25 35//35 37//37
f 23//23 33//33 35//35
f 15//15 25//25 27//27
f 13//13 23//23 25//25
f 239//239 237//237 253//253
f 189//189 187//187 217//217
f 219//219 217//217 237//237
f 237//237 235//235 249//249
f 169//169 167//167 187//187
f 109//109 107//107 147//147
f 89//89 87//87 97//97
f 99//99 97//97 107//107
f 149//149 147//147 167//167
f 87//87 89//89 79//79
f 245//245 249//249 235//235
f 233//233 231//231 241//241
f 211//211 213//213 183//183
f 213//213 211//211 231//231
f 143//143 141//141 161//161
f 93//93 91//91 101//101
f 103//103 101//101 141//141
f 163//163 161//161 181//181
f 91//91 93//93 83//83
f 69//69 67//67 77//77
f 49//49 47//47 57//57
f 59//59 57//57 67//67
f 39//39 37//37 47//47
f 29//29 27//27 37//37
f 19//19 17//17 27//27
f 9//9 7//7 17//17
f 7//7 5//5 15//15
f 5//5 3//3 13//13
f 73//73 71//71 81//81
f 53//53 51//51 61//61
f 63//63 61//61 71//71
f 43//43 41//41 51//51
f 23//23 21//21 31//31
f 3//3 1//1 11//11
f 13//13 11//11 21//21
f 33//33 31//31 41//41
f 135//135 125//125 127//127
f 133//133 123//123 125//125
f 155//155 135//135 137//137
f 153//153 133//133 135//135
f 175//175 155//155 157//157
f 173//173 153//153 155//155
f 195//195 175//175 177//177
f 193//193 173//173 175//175
f 205//205 195//195 197//197
f 203//203 193//193 195//195
f 225//225 205//205 207//207
f 223//223 203//203 205//205
f 129//129 127//127 117//117
f 127//127 129//129 139//139
f 127//127 125//125 115//115
f 179//179 177//177 157//157
f 159//159 157//157 137//137
f 177//177 179//179 199//199
f 125//125 123//123 113//113
f 111//111 113//113 123//123
f 153//153 151//151 131//131
f 133//133 131//131 121//121
f 151//151 153//153 173//173
f 209//209 207//207 197//197
f 207//207 209//209 229//229
f 258//258 254//254 227//227
f 254//254 250//250 225//225
f 250//250 246//246 223//223
f 193//193 191//191 171//171
f 191//191 193//193 203//203
f 246//246 242//242 221//221
f 223//223 221//221 201//201
f 254//254 258//258 278//278
f 246//246 250//250 270//270
f 242//242 246//246 266//266
f 250//250 254//254 274//274
f 315//315 295//295 297//297
f 313//313 293//293 295//295
f 325//325 315//315 317//317
f 323//323 313//313 315//315
f 345//345 325//325 327//327
f 343//343 323//323 325//325
f 365//365 345//345 347//347
f 363//363 343//343 345//345
f 385//385 365//365 367//367
f 383//383 363//363 365//365
f 395//395 385//385 387//387
f 393//393 383//383 385//385
f 299//299 297//297 274//274
f 297//297 299//299 319//319
f 297//297 295//295 270//270
f 349//349 347//347 327//327
f 329//329 327//327 317//317
f 347//347 349//349 369//369
f 295//295 293//293 266//266
f 262//262 266//266 293//293
f 323//323 321//321 311//311
f 313//313 311//311 291//291
f 321//321 323//323 343//343
f 389//389 387//387 367//367
f 387//387 389//389 399//399
f 409//409 407//407 397//397
f 407//407 405//405 395//395
f 405//405 403//403 393//393
f 363//363 361//361 341//341
f 361//361 363//363 383//383
f 403//403 401//401 391//391
f 393//393 391//391 381//381
f 407//407 409//409 410//410
f 403//403 405//405 406//406
f 401//401 403//403 404//404
f 405//405 407//407 408//408
f 386//386 396//396 398//398
f 384//384 394//394 396//396
f 366//366 386//386 388//388
f 364//364 384//384 386//386
f 346//346 366//366 368//368
f 344//344 364//364 366//366
f 326//326 346//346 348//348
f 324//324 344//344 346//346
f 316//316 326//326 328//328
f 314//314 324//324 326//326
f 296//296 316//316 318//318
f 294//294 314//314 316//316
f 400//400 398//398 408//408
f 398//398 400//400 390//390
f 398//398 396//396 406//406
f 350//350 348//348 368//368
f 370//370 368//368 388//388
f 348//348 350//350 330//330
f 396//396 394//394 404//404
f 402//402 404//404 394//394
f 364//364 362//362 382//382
f 384//384 382//382 392//392
f 362//362 364//364 344//344
f 320//320 318//318 328//328
f 318//318 320//320 300//300
f 279//279 275//275 298//298
f 275//275 271//271 296//296
f 271//271 267//267 294//294
f 324//324 322//322 342//342
f 322//322 324//324 314//314
f 267//267 263//263 292//292
f 294//294 292//292 312//312
f 275//275 279//279 259//259
f 267//267 271//271 251//251
f 263//263 267//267 247//247
f 271//271 275//275 255//255
f 206//206 226//226 228//228
f 204//204 224//224 226//226
f 196//196 206//206 208//208
f 194//194 204//204 206//206
f 176//176 196//196 198//198
f 174//174 194//194 196//196
f 156//156 176//176 178//178
f 154//154 174//174 176//176
f 136//136 156//156 158//158
f 134//134 154//154 156//156
f 126//126 136//136 138//138
f 124//124 134//134 136//136
f 230//230 228//228 255//255
f 228//228 230//230 210//210
f 228//228 226//226 251//251
f 180//180 178//178 198//198
f 200//200 198//198 208//208
f 178//178 180//180 160//160
f 226//226 224//224 247//247
f 243//243 247//247 224//224
f 194//194 192//192 202//202
f 204//204 202//202 222//222
f 192//192 194//194 174//174
f 140//140 138//138 158//158
f 138//138 140//140 130//130
f 120//120 118//118 128//128
f 118//118 116//116 126//126
f 116//116 114//114 124//124
f 154//154 152//152 172//172
f 152//152 154//154 134//134
f 114//114 112//112 122//122
f 124//124 122//122 132//132
f 118//118 120//120 119//119
f 114//114 116//116 115//115
f 112//112 114//114 113//113
f 116//116 118//118 117//117
f 459//459 469//469 399//399
f 459//459 399//399 449//449
f 449//449 389//389 439//439
f 389//389 449//449 399//399
f 439//439 389//389 429//429
f 509//509 519//519 409//409
f 499//499 509//509 409//409
f 409//409 479//479 489//489
f 479//479 409//409 399//399
f 399//399 469//469 479//479
f 499//499 409//409 489//489
f 409//409 519//519 520//520
f 369//369 419//419 429//429
f 359//359 379//379 329//329
f 359//359 329//329 339//339
f 289//289 309//309 299//299
f 319//319 309//309 339//339
f 277//277 289//289 278//278
f 369//369 429//429 389//389
f 349//349 419//419 369//369
f 289//289 299//299 278//278
f 339//339 329//329 319//319
f 309//309 319//319 299//299
f 329//329 379//379 349//349
f 277//277 278//278 258//258
f 349//349 379//379 419//419
f 500//500 410//410 510//510
f 520//520 510//510 410//410
f 410//410 490//490 480//480
f 500//500 490//490 410//410
f 400//400 410//410 480//480
f 480//480 470//470 400//400
f 470//470 460//460 400//400
f 460//460 450//450 400//400
f 440//440 390//390 450//450
f 440//440 430//430 390//390
f 420//420 370//370 430//430
f 450//450 390//390 400//400
f 420//420 380//380 350//350
f 370//370 420//420 350//350
f 310//310 300//300 320//320
f 340//340 320//320 330//330
f 380//380 330//330 350//350
f 360//360 340//340 330//330
f 330//330 380//380 360//360
f 310//310 290//290 300//300
f 320//320 340//340 310//310
f 279//279 290//290 280//280
f 279//279 280//280 260//260
f 290//290 279//279 300//300
f 390//390 430//430 370//370
f 257//257 258//258 239//239
f 239//239 229//229 219//219
f 169//169 189//189 199//199
f 209//209 189//189 219//219
f 149//149 169//169 199//199
f 239//239 258//258 229//229
f 219//219 229//229 209//209
f 149//149 199//199 179//179
f 159//159 139//139 99//99
f 109//109 179//179 159//159
f 199//199 189//189 209//209
f 149//149 179//179 109//109
f 89//89 99//99 139//139
f 79//79 89//89 139//139
f 69//69 79//79 129//129
f 139//139 129//129 79//79
f 59//59 69//69 129//129
f 119//119 49//49 129//129
f 59//59 129//129 49//49
f 39//39 49//49 119//119
f 29//29 119//119 19//19
f 19//19 119//119 9//9
f 39//39 119//119 29//29
f 9//9 119//119 120//120
f 109//109 159//159 99//99
f 190//190 200//200 210//210
f 220//220 210//210 230//230
f 160//160 180//180 110//110
f 110//110 180//180 150//150
f 150//150 180//180 200//200
f 260//260 240//240 259//259
f 240//240 230//230 259//259
f 190//190 210//210 220//220
f 240//240 220//220 230//230
f 200//200 190//190 170//170
f 170//170 150//150 200//200
f 100//100 140//140 160//160
f 120//120 130//130 50//50
f 30//30 120//120 40//40
f 40//40 120//120 50//50
f 30//30 20//20 120//120
f 10//10 120//120 20//20
f 140//140 100//100 90//90
f 100//100 160//160 110//110
f 130//130 70//70 60//60
f 70//70 130//130 80//80
f 80//80 140//140 90//90
f 130//130 60//60 50//50
f 140//140 80//80 130//130
f 451//451 391//391 461//461
f 451//451 441//441 391//391
f 441//441 431//431 381//381
f 381//381 391//391 441//441
f 431//431 421//421 381//381
f 501//501 401//401 511//511
f 491//491 401//401 501//501
f 401//401 481//481 471//471
f 471//471 391//391 401//401
f 391//391 471//471 461//461
f 491//491 481//481 401//401
f 401//401 402//402 512//512
f 361//361 421//421 411//411
f 351//351 321//321 371//371
f 351//351 331//331 321//321
f 281//281 291//291 301//301
f 311//311 331//331 301//301
f 261//261 262//262 281//281
f 361//361 381//381 421//421
f 341//341 361//361 411//411
f 281//281 262//262 291//291
f 331//331 311//311 321//321
f 301//301 291//291 311//311
f 321//321 341//341 371//371
f 261//261 241//241 242//242
f 341//341 411//411 371//371
f 492//492 502//502 402//402
f 512//512 402//402 502//502
f 402//402 472//472 482//482
f 492//492 402//402 482//482
f 392//392 472//472 402//402
f 472//472 392//392 462//462
f 462//462 392//392 452//452
f 452//452 392//392 442//442
f 432//432 442//442 382//382
f 432//432 382//382 422//422
f 412//412 422//422 362//362
f 442//442 392//392 382//382
f 412//412 342//342 372//372
f 362//362 342//342 412//412
f 302//302 312//312 292//292
f 332//332 322//322 312//312
f 372//372 342//342 322//322
f 352//352 322//322 332//332
f 322//322 352//352 372//372
f 302//302 292//292 282//282
f 312//312 302//302 332//332
f 263//263 264//264 282//282
f 263//263 243//243 244//244
f 282//282 292//292 263//263
f 382//382 362//362 422//422
f 241//241 231//231 242//242
f 231//231 211//211 221//221
f 161//161 191//191 181//181
f 201//201 211//211 181//181
f 141//141 191//191 161//161
f 231//231 221//221 242//242
f 211//211 201//201 221//221
f 141//141 171//171 191//191
f 151//151 91//91 131//131
f 101//101 151//151 171//171
f 191//191 201//201 181//181
f 141//141 101//101 171//171
f 81//81 131//131 91//91
f 71//71 131//131 81//81
f 61//61 121//121 71//71
f 131//131 71//71 121//121
f 51//51 121//121 61//61
f 111//111 121//121 41//41
f 51//51 41//41 121//121
f 31//31 111//111 41//41
f 21//21 11//11 111//111
f 11//11 1//1 111//111
f 31//31 21//21 111//111
f 1//1 2//2 112//112
f 101//101 91//91 151//151
f 182//182 202//202 192//192
f 212//212 222//222 202//202
f 152//152 102//102 172//172
f 102//102 142//142 172//172
f 142//142 192//192 172//172
f 244//244 243//243 232//232
f 232//232 243//243 222//222
f 182//182 212//212 202//202
f 232//232 222//222 212//212
f 192//192 162//162 182//182
f 162//162 192//192 142//142
f 92//92 152//152 132//132
f 112//112 42//42 122//122
f 22//22 32//32 112//112
f 32//32 42//42 112//112
f 22//22 112//112 12//12
f 2//2 12//12 112//112
f 132//132 82//82 92//92
f 92//92 102//102 152//152
f 122//122 52//52 62//62
f 62//62 72//72 122//122
f 72//72 82//82 132//132
f 122//122 42//42 52//52
f 132//132 122//122 72//72
f 7//7 10//10 8//8
f 3//3 6//6 4//4
f 1//1 4//4 2//2
f 5//5 8//8 6//6
f 26//26 18//18 28//28
f 24//24 16//16 26//26
f 36//36 28//28 38//38
f 34//34 26//26 36//36
f 46//46 38//38 48//48
f 44//44 36//36 46//46
f 56//56 48//48 58//58
f 54//54 46//46 56//56
f 66//66 58//58 68//68
f 64//64 56//56 66//66
f 76//76 68//68 78//78
f 74//74 66//66 76//76
f 86//86 78//78 88//88
f 84//84 76//76 86//86
f 96//96 88//88 98//98
f 94//94 86//86 96//96
f 106//106 98//98 108//108
f 104//104 96//96 106//106
f 146//146 108//108 148//148
f 144//144 106//106 146//146
f 166//166 148//148 168//168
f 164//164 146//146 166//166
f 186//186 168//168 188//188
f 184//184 166//166 186//186
f 216//216 188//188 218//218
f 214//214 186//186 216//216
f 236//236 218//218 238//238
f 234//234 216//216 236//236
f 20//20 8//8 10//10
f 40//40 28//28 30//30
f 30//30 18//18 20//20
f 18//18 6//6 8//8
f 50//50 38//38 40//40
f 70//70 58//58 60//60
f 90//90 78//78 80//80
f 80//80 68//68 70//70
f 60//60 48//48 50//50
f 88//88 100//100 98//98
f 4//4 16//16 14//14
f 14//14 2//2 4//4
f 22//22 34//34 32//32
f 24//24 12//12 14//14
f 54//54 42//42 44//44
f 74//74 62//62 64//64
f 64//64 52//52 54//54
f 44//44 32//32 34//34
f 72//72 84//84 82//82
f 110//110 98//98 100//100
f 170//170 148//148 150//150
f 150//150 108//108 110//110
f 190//190 168//168 170//170
f 220//220 188//188 190//190
f 240//240 218//218 220//220
f 260//260 238//238 240//240
f 256//256 236//236 238//238
f 252//252 234//234 236//236
f 94//94 82//82 84//84
f 144//144 102//102 104//104
f 104//104 92//92 94//94
f 164//164 142//142 144//144
f 214//214 182//182 184//184
f 248//248 232//232 234//234
f 234//234 212//212 214//214
f 184//184 162//162 164//164
f 256//256 280//280 276//276
f 248//248 272//272 268//268
f 244//244 268//268 264//264
f 252//252 276//276 272//272
f 306//306 288//288 308//308
f 304//304 286//286 306//306
f 336//336 308//308 338//338
f 334//334 306//306 336//336
f 356//356 338//338 358//358
f 354//354 336//336 356//356
f 376//376 358//358 378//378
f 374//374 356//356 376//376
f 416//416 378//378 418//418
f 414//414 376//376 416//416
f 426//426 418//418 428//428
f 424//424 416//416 426//426
f 436//436 428//428 438//438
f 434//434 426//426 436//436
f 446//446 438//438 448//448
f 444//444 436//436 446//446
f 456//456 448//448 458//458
f 454//454 446//446 456//456
f 466//466 458//458 468//468
f 464//464 456//456 466//466
f 476//476 468//468 478//478
f 474//474 466//466 476//476
f 486//486 478//478 488//488
f 484//484 476//476 486//486
f 496//496 488//488 498//498
f 494//494 486//486 496//496
f 506//506 498//498 508//508
f 504//504 496//496 506//506
f 290//290 276//276 280//280
f 340//340 308//308 310//310
f 310//310 288//288 290//290
f 288//288 272//272 276//276
f 360//360 338//338 340//340
f 420//420 378//378 380//380
f 440//440 428//428 430//430
f 430//430 418//418 420//420
f 380//380 358//358 360//360
f 438//438 450//450 448//448
f 268//268 286//286 284//284
f 284//284 264//264 268//268
f 302//302 334//334 332//332
f 304//304 282//282 284//284
f 374//374 352//352 354//354
f 424//424 412//412 414//414
f 414//414 372//372 374//374
f 354//354 332//332 334//334
f 422//422 434//434 432//432
f 460//460 448//448 450//450
f 480//480 468//468 470//470
f 470//470 458//458 460//460
f 490//490 478//478 480//480
f 500//500 488//488 490//490
f 510//510 498//498 500//500
f 520//520 508//508 510//510
f 518//518 506//506 508//508
f 516//516 504//504 506//506
f 444//444 432//432 434//434
f 464//464 452//452 454//454
f 454//454 442//442 444//444
f 474//474 462//462 464//464
f 494//494 482//482 484//484
f 514//514 502//502 504//504
f 504//504 492//492 494//494
f 484//484 472//472 474//474
f 518//518 519//519 517//517
f 514//514 515//515 513//513
f 512//512 513//513 511//511
f 516//516 517//517 515//515
f 495//495 507//507 497//497
f 493//493 505//505 495//495
f 485//485 497//497 487//487
f 483//483 495//495 485//485
f 475//475 487//487 477//477
f 473//473 485//485 475//475
f 465//465 477//477 467//467
f 463//463 475//475 465//465
f 455//455 467//467 457//457
f 453//453 465//465 455//455
f 445//445 457//457 447//447
f 443//443 455//455 445//445
f 435//435 447//447 437//437
f 433//433 445//445 435//435
f 425//425 437//437 427//427
f 423//423 435//435 425//425
f 415//415 427//427 417//417
f 413//413 425//425 415//415
f 375//375 417//417 377//377
f 373//373 415//415 375//375
f 355//355 377//377 357//357
f 353//353 375//375 355//355
f 335//335 357//357 337//337
f 333//333 355//355 335//335
f 305//305 337//337 307//307
f 303//303 335//335 305//305
f 285//285 307//307 287//287
f 283//283 305//305 285//285
f 509//509 517//517 519//519
f 489//489 497//497 499//499
f 499//499 507//507 509//509
f 507//507 515//515 517//517
f 479//479 487//487 489//489
f 459//459 467//467 469//469
f 439//439 447//447 449//449
f 449//449 457//457 459//459
f 469//469 477//477 479//479
f 437//437 429//429 427//427
f 513//513 505//505 503//503
f 503//503 511//511 513//513
f 491//491 483//483 481//481
f 493//493 501//501 503//503
f 463//463 471//471 473//473
f 443//443 451//451 453//453
f 453//453 461//461 463//463
f 473//473 481//481 483//483
f 441//441 433//433 431//431
f 419//419 427//427 429//429
f 359//359 377//377 379//379
f 379//379 417//417 419//419
f 339//339 357//357 359//359
f 309//309 337//337 339//339
f 289//289 307//307 309//309
f 277//277 287//287 289//289
f 273//273 285//285 287//287
f 269//269 283//283 285//285
f 423//423 431//431 433//433
f 373//373 411//411 413//413
f 413//413 421//421 423//423
f 353//353 371//371 373//373
f 303//303 331//331 333//333
f 265//265 281//281 283//283
f 283//283 301//301 303//303
f 333//333 351//351 353//353
f 273//273 257//257 253//253
f 265//265 249//249 245//245
f 261//261 245//245 241//241
f 269//269 253//253 249//249
f 215//215 237//237 217//217
f 213//213 235//235 215//215
f 185//185 217//217 187//187
f 183//183 215//215 185//185
f 165//165 187//187 167//167
f 163//163 185//185 165//165
f 145//145 167//167 147//147
f 143//143 165//165 145//145
f 105//105 147//147 107//107
f 103//103 145//145 105//105
f 95//95 107//107 97//97
f 93//93 105//105 95//95
f 85//85 97//97 87//87
f 83//83 95//95 85//85
f 75//75 87//87 77//77
f 73//73 85//85 75//75
f 65//65 77//77 67//67
f 63//63 75//75 65//65
f 55//55 67//67 57//57
f 53//53 65//65 55//55
f 45//45 57//57 47//47
f 43//43 55//55 45//45
f 35//35 47//47 37//37
f 33//33 45//45 35//35
f 25//25 37//37 27//27
f 23//23 35//35 25//25
f 15//15 27//27 17//17
f 13//13 25//25 15//15
f 239//239 253//253 257//257
f 189//189 217//217 219//219
f 219//219 237//237 239//239
f 237//237 249//249 253//253
f 169//169 187//187 189//189
f 109//109 147//147 149//149
f 89//89 97//97 99//99
f 99//99 107//107 109//109
f 149//149 167//167 169//169
f 87//87 79//79 77//77
f 245//245 235//235 233//233
f 233//233 241//241 245//245
f 211//211 183//183 181//181
f 213//213 231//231 233//233
f 143//143 161//161 163//163
f 93//93 101//101 103//103
f 103//103 141//141 143//143
f 163//163 181//181 183//183
f 91//91 83//83 81//81
f 69//69 77//77 79//79
f 49//49 57//57 59//59
f 59//59 67//67 69//69
f 39//39 47//47 49//49
f 29//29 37//37 39//39
f 19//19 27//27 29//29
f 9//9 17//17 19//19
f 7//7 15//15 17//17
f 5//5 13//13 15//15
f 73//73 81//81 83//83
f 53//53 61//61 63//63
f 63//63 71//71 73//73
f 43//43 51//51 53//53
f 23//23 31//31 33//33
f 3//3 11//11 13//13
f 13//13 21//21 23//23
f 33//33 41//41 43//43
f 135//135 127//127 137//137
f 133//133 125//125 135//135
f 155//155 137//137 157//157
f 153//153 135//135 155//155
f 175//175 157//157 177//177
f 173//173 155//155 175//175
f 195//195 177//177 197//197
f 193//193 175//175 195//195
f 205//205 197//197 207//207
f 203//203 195//195 205//205
f 225//225 207//207 227//227
f 223//223 205//205 225//225
f 129//129 117//117 119//119
f 127//127 139//139 137//137
f 127//127 115//115 117//117
f 179//179 157//157 159//159
f 159//159 137//137 139//139
f 177//177 199//199 197//197
f 125//125 113//113 115//115
f 111//111 123//123 121//121
f 153//153 131//131 133//133
f 133//133 121//121 123//123
f 151//151 173//173 171//171
f 209//209 197//197 199//199
f 207//207 229//229 227//227
f 258//258 227//227 229//229
f 254//254 225//225 227//227
f 250//250 223//223 225//225
f 193//193 171//171 173//173
f 191//191 203//203 201//201
f 246//246 221//221 223//223
f 223//223 201//201 203//203
f 254//254 278//278 274//274
f 246//246 270//270 266//266
f 242//242 266//266 262//262
f 250//250 274//274 270//270
f 315//315 297//297 317//317
f 313//313 295//295 315//315
f 325//325 317//317 327//327
f 323//323 315//315 325//325
f 345//345 327//327 347//347
f 343//343 325//325 345//345
f 365//365 347//347 367//367
f 363//363 345//345 365//365
f 385//385 367//367 387//387
f 383//383 365//365 385//385
f 395//395 387//387 397//397
f 393//393 385//385 395//395
f 299//299 274//274 278//278
f 297//297 319//319 317//317
f 297//297 270//270 274//274
f 349//349 327//327 329//329
f 329//329 317//317 319//319
f 347//347 369//369 367//367
f 295//295 266//266 270//270
f 262//262 293//293 291//291
f 323//323 311//311 313//313
f 313//313 291//291 293//293
f 321//321 343//343 341//341
f 389//389 367//367 369//369
f 387//387 399//399 397//397
f 409//409 397//397 399//399
f 407//407 395//395 397//397
f 405//405 393//393 395//395
f 363//363 341//341 343//343
f 361//361 383//383 381//381
f 403//403 391//391 393//393
f 393//393 381//381 383//383
f 407//407 410//410 408//408
f 403//403 406//406 404//404
f 401//401 404//404 402//402
f 405//405 408//408 406//406
f 386//386 398//398 388//388
f 384//384 396//396 386//386
f 366//366 388//388 368//368
f 364//364 386//386 366//366
f 346//346 368//368 348//348
f 344//344 366//366 346//346
f 326//326 348//348 328//328
f 324//324 346//346 326//326
f 316//316 328//328 318//318
f 314//314 326//326 316//316
f 296//296 318//318 298//298
f 294//294 316//316 296//296
f 400//400 408//408 410//410
f 398//398 390//390 388//388
f 398//398 406//406 408//408
f 350//350 368//368 370//370
f 370//370 388//388 390//390
f 348//348 330//330 328//328
f 396//396 404//404 406//406
f 402//402 394//394 392//392
f 364//364 382//382 384//384
f 384//384 392//392 394//394
f 362//362 344//344 342//342
f 320//320 328//328 330//330
f 318//318 300//300 298//298
f 279//279 298//298 300//300
f 275//275 296//296 298//298
f 271//271 294//294 296//296
f 324//324 342//342 344//344
f 322//322 314//314 312//312
f 267//267 292//292 294//294
f 294//294 312//312 314//314
f 275//275 259//259 255//255
f 267//267 251//251 247//247
f 263//263 247//247 243//243
f 271//271 255//255 251//251
f 206//206 228//228 208//208
f 204//204 226//226 206//206
f 196//196 208//208 198//198
f 194//194 206//206 196//196
f 176//176 198//198 178//178
f 174//174 196//196 176//176
f 156//156 178//178 158//158
f 154//154 176//176 156//156
f 136//136 158//158 138//138
f 134//134 156//156 136//136
f 126//126 138//138 128//128
f 124//124 136//136 126//126
f 230//230 255//255 259//259
f 228//228 210//210 208//208
f 228//228 251//251 255//255
f 180//180 198//198 200//200
f 200//200 208//208 210//210
f 178//178 160//160 158//158
f 226//226 247//247 251//251
f 243//243 224//224 222//222
f 194//194 202//202 204//204
f 204//204 222//222 224//224
f 192//192 174//174 172//172
f 140//140 158//158 160//160
f 138//138 130//130 128//128
f 120//120 128//128 130//130
f 118//118 126//126 128//128
f 116//116 124//124 126//126
f 154//154 172//172 174//174
f 152//152 134//134 132//132
f 114//114 122//122 124//124
f 124//124 132//132 134//134
f 118//118 119//119 117//117
f 114//114 115//115 113//113
f 112//112 113//113 111//111
f 116//116 117//117 115//115
f 409//409 520//520 410//410
f 277//277 258//258 257//257
f 279//279 260//260 259//259
f 9//9 120//120 10//10
f 401//401 512//512 511//511
f 261//261 242//242 262//262
f 263//263 244//244 264//264
f 1//1 112//112 111//111