# PHANTOM Module: L0_12
# Units: meters
o L0_12

v 1.300000 1.200001 2.260690
v 1.300000 1.200001 0.236364
v 1.300000 0.800001 2.260690
v 1.300000 0.800001 0.236364
v 1.300000 0.400002 2.260690
v 1.300000 0.400002 0.236364
v 1.300000 0.000000 2.260690
v 1.300000 0.000000 0.236364
v 1.299124 1.200001 2.281929
v 1.299124 1.200001 0.215125
v 1.299124 0.800001 2.281929
v 1.299124 0.800001 0.215125
v 1.299124 0.400002 2.281929
v 1.299124 0.400002 0.215125
v 1.299124 0.000000 2.281929
v 1.299124 0.000000 0.215125
v 1.296383 1.200001 2.303700
v 1.296383 1.200001 0.193354
v 1.296383 0.800001 2.303700
v 1.296383 0.800001 0.193354
v 1.296383 0.400002 2.303700
v 1.296383 0.400002 0.193354
v 1.296383 0.000000 2.303700
v 1.296383 0.000000 0.193354
v 1.291636 1.200001 2.325727
v 1.291636 1.200001 0.171326
v 1.291636 0.800001 2.325727
v 1.291636 0.800001 0.171326
v 1.291636 0.400002 2.325727
v 1.291636 0.400002 0.171326
v 1.291636 0.000000 2.325727
v 1.291636 0.000000 0.171326
v 1.284787 1.200001 2.347694
v 1.284787 1.200001 0.149359
v 1.284787 0.800001 2.347694
v 1.284787 0.800001 0.149359
v 1.284787 0.400002 2.347694
v 1.284787 0.400002 0.149359
v 1.284787 0.000000 2.347694
v 1.284787 0.000000 0.149359
v 1.275795 1.200001 2.369251
v 1.275795 1.200001 0.127803
v 1.275795 0.800001 2.369251
v 1.275795 0.800001 0.127803
v 1.275795 0.400002 2.369251
v 1.275795 0.400002 0.127803
v 1.275795 0.000000 2.369251
v 1.275795 0.000000 0.127803
v 1.264682 1.200001 2.390031
v 1.264682 1.200001 0.107023
v 1.264682 0.800001 2.390031
v 1.264682 0.800001 0.107023
v 1.264682 0.400002 2.390031
v 1.264682 0.400002 0.107023
v 1.264682 0.000000 2.390031
v 1.264682 0.000000 0.107023
v 1.251543 1.200001 2.409670
v 1.251543 1.200001 0.087384
v 1.251543 0.800001 2.409670
v 1.251543 0.800001 0.087384
v 1.251543 0.400002 2.409670
v 1.251543 0.400002 0.087384
v 1.251543 0.000000 2.409670
v 1.251543 0.000000 0.087384
v 1.236540 1.200001 2.427824
v 1.236540 1.200001 0.069229
v 1.236540 0.800001 2.427824
v 1.236540 0.800001 0.069229
v 1.236540 0.400002 2.427824
v 1.236540 0.400002 0.069229
v 1.236540 0.000000 2.427824
v 1.236540 0.000000 0.069229
v 1.219898 1.200001 2.444192
v 1.219898 1.200001 0.052862
v 1.219898 0.800001 2.444192
v 1.219898 0.800001 0.052862
v 1.219898 0.400002 2.444192
v 1.219898 0.400002 0.052862
v 1.219898 0.000000 2.444192
v 1.219898 0.000000 0.052862
v 1.201895 1.200001 2.458525
v 1.201895 1.200001 0.038528
v 1.201895 0.800001 2.458525
v 1.201895 0.800001 0.038528
v 1.201895 0.400002 2.458525
v 1.201895 0.400002 0.038528
v 1.201895 0.000000 2.458525
v 1.201895 0.000000 0.038528
v 1.191667 1.200001 2.260690
v 1.191667 1.200001 0.236364
v 1.191667 0.800001 2.260690
v 1.191667 0.800001 0.236364
v 1.191667 0.400002 2.260690
v 1.191667 0.400002 0.236364
v 1.191667 0.000000 2.260690
v 1.191667 0.000000 0.236364
v 1.189858 1.200001 2.282195
v 1.189858 1.200001 0.214859
v 1.189858 0.800001 2.282195
v 1.189858 0.800001 0.214859
v 1.189858 0.400002 2.282195
v 1.189858 0.400002 0.214859
v 1.189858 0.000000 2.282195
v 1.189858 0.000000 0.214859
v 1.184060 1.200001 2.304192
v 1.184060 1.200001 0.192862
v 1.184060 0.800001 2.304192
v 1.184060 0.800001 0.192862
v 1.184060 0.400002 2.304192
v 1.184060 0.400002 0.192862
v 1.184060 0.000000 2.304192
v 1.184060 0.000000 0.192862
v 1.182847 1.200001 2.470648
v 1.182847 1.200001 0.026406
v 1.182847 0.800001 2.470648
v 1.182847 0.800001 0.026406
v 1.182847 0.400002 2.470648
v 1.182847 0.400002 0.026406
v 1.182847 0.000000 2.470648
v 1.182847 0.000000 0.026406
v 1.174008 1.200001 2.325360
v 1.174008 1.200001 0.171693
v 1.174008 0.800001 2.325360
v 1.174008 0.800001 0.171693
v 1.174008 0.400002 2.325360
v 1.174008 0.400002 0.171693
v 1.174008 0.000000 2.325360
v 1.174008 0.000000 0.171693
v 1.163087 1.200001 2.480458
v 1.163087 1.200001 0.016595
v 1.163087 0.800001 2.480458
v 1.163087 0.800001 0.016595
v 1.163087 0.400002 2.480458
v 1.163087 0.400002 0.016595
v 1.163087 0.000000 2.480458
v 1.163087 0.000000 0.016595
v 1.159937 1.200001 2.344257
v 1.159937 1.200001 0.152796
v 1.159937 0.800001 2.344257
v 1.159937 0.800001 0.152796
v 1.159937 0.400002 2.344257
v 1.159937 0.400002 0.152796
v 1.159937 0.000000 2.344257
v 1.159937 0.000000 0.152796
v 1.142951 1.200001 2.487930
v 1.142951 1.200001 0.009124
v 1.142951 0.800001 2.487930
v 1.142951 0.800001 0.009124
v 1.142951 0.400002 2.487930
v 1.142951 0.400002 0.009124
v 1.142951 0.000000 2.487930
v 1.142951 0.000000 0.009124
v 1.142614 1.200001 2.359608
v 1.142614 1.200001 0.137446
v 1.142614 0.800001 2.359608
v 1.142614 0.800001 0.137446
v 1.142614 0.400002 2.359608
v 1.142614 0.400002 0.137446
v 1.142614 0.000000 2.359608
v 1.142614 0.000000 0.137446
v 1.123210 1.200001 2.370574
v 1.123210 1.200001 0.126480
v 1.123210 0.800001 2.370574
v 1.123210 0.800001 0.126480
v 1.123210 0.400002 2.370574
v 1.123210 0.400002 0.126480
v 1.123210 0.000000 2.370574
v 1.123210 0.000000 0.126480
v 1.122759 1.200001 2.493108
v 1.122759 1.200001 0.003946
v 1.122759 0.800001 2.493108
v 1.122759 0.800001 0.003946
v 1.122759 0.400002 2.493108
v 1.122759 0.400002 0.003946
v 1.122759 0.000000 2.493108
v 1.122759 0.000000 0.003946
v 1.103046 1.200001 2.376899
v 1.103046 1.200001 0.120155
v 1.103046 0.800001 2.376899
v 1.103046 0.800001 0.120155
v 1.103046 0.400002 2.376899
v 1.103046 0.400002 0.120155
v 1.103046 0.000000 2.376899
v 1.103046 0.000000 0.120155
v 1.102802 1.200001 2.496098
v 1.102802 1.200001 0.000956
v 1.102802 0.800001 2.496098
v 1.102802 0.800001 0.000956
v 1.102802 0.400002 2.496098
v 1.102802 0.400002 0.000956
v 1.102802 0.000000 2.496098
v 1.102802 0.000000 0.000956
v 1.083333 1.200001 2.497054
v 1.083333 1.200001 2.378872
v 1.083333 1.200001 0.118182
v 1.083333 1.200001 0.000000
v 1.083333 0.800001 2.497054
v 1.083333 0.800001 2.378872
v 1.083333 0.800001 0.118182
v 1.083333 0.800001 0.000000
v 1.083333 0.400002 2.497054
v 1.083333 0.400002 2.378872
v 1.083333 0.400002 0.118182
v 1.083333 0.400002 0.000000
v 1.083333 0.000000 2.497054
v 1.083333 0.000000 2.378872
v 1.083333 0.000000 0.118182
v 1.083333 0.000000 0.000000
v 0.216667 1.200001 2.497054
v 0.216667 1.200001 2.378872
v 0.216667 1.200001 0.118182
v 0.216667 1.200001 0.000000
v 0.216667 0.800001 2.497054
v 0.216667 0.800001 2.378872
v 0.216667 0.800001 0.118182
v 0.216667 0.800001 0.000000
v 0.216667 0.400002 2.497054
v 0.216667 0.400002 2.378872
v 0.216667 0.400002 0.118182
v 0.216667 0.400002 0.000000
v 0.216667 0.000000 2.497054
v 0.216667 0.000000 2.378872
v 0.216667 0.000000 0.118182
v 0.216667 0.000000 0.000000
v 0.197198 1.200001 2.496098
v 0.197198 1.200001 0.000956
v 0.197198 0.800001 2.496098
v 0.197198 0.800001 0.000956
v 0.197198 0.400002 2.496098
v 0.197198 0.400002 0.000956
v 0.197198 0.000000 2.496098
v 0.197198 0.000000 0.000956
v 0.196954 1.200001 2.376899
v 0.196954 1.200001 0.120155
v 0.196954 0.800001 2.376899
v 0.196954 0.800001 0.120155
v 0.196954 0.400002 2.376899
v 0.196954 0.400002 0.120155
v 0.196954 0.000000 2.376899
v 0.196954 0.000000 0.120155
v 0.177241 1.200001 2.493108
v 0.177241 1.200001 0.003946
v 0.177241 0.800001 2.493108
v 0.177241 0.800001 0.003946
v 0.177241 0.400002 2.493108
v 0.177241 0.400002 0.003946
v 0.177241 0.000000 2.493108
v 0.177241 0.000000 0.003946
v 0.176790 1.200001 2.370574
v 0.176790 1.200001 0.126480
v 0.176790 0.800001 2.370574
v 0.176790 0.800001 0.126480
v 0.176790 0.400002 2.370574
v 0.176790 0.400002 0.126480
v 0.176790 0.000000 2.370574
v 0.176790 0.000000 0.126480
v 0.157386 1.200001 2.359608
v 0.157386 1.200001 0.137446
v 0.157386 0.800001 2.359608
v 0.157386 0.800001 0.137446
v 0.157386 0.400002 2.359608
v 0.157386 0.400002 0.137446
v 0.157386 0.000000 2.359608
v 0.157386 0.000000 0.137446
v 0.157049 1.200001 2.487930
v 0.157049 1.200001 0.009124
v 0.157049 0.800001 2.487930
v 0.157049 0.800001 0.009124
v 0.157049 0.400002 2.487930
v 0.157049 0.400002 0.009124
v 0.157049 0.000000 2.487930
v 0.157049 0.000000 0.009124
v 0.140064 1.200001 2.344257
v 0.140064 1.200001 0.152796
v 0.140064 0.800001 2.344257
v 0.140064 0.800001 0.152796
v 0.140064 0.400002 2.344257
v 0.140064 0.400002 0.152796
v 0.140064 0.000000 2.344257
v 0.140064 0.000000 0.152796
v 0.136913 1.200001 2.480458
v 0.136913 1.200001 0.016595
v 0.136913 0.800001 2.480458
v 0.136913 0.800001 0.016595
v 0.136913 0.400002 2.480458
v 0.136913 0.400002 0.016595
v 0.136913 0.000000 2.480458
v 0.136913 0.000000 0.016595
v 0.125992 1.200001 2.325360
v 0.125992 1.200001 0.171693
v 0.125992 0.800001 2.325360
v 0.125992 0.800001 0.171693
v 0.125992 0.400002 2.325360
v 0.125992 0.400002 0.171693
v 0.125992 0.000000 2.325360
v 0.125992 0.000000 0.171693
v 0.117153 1.200001 2.470648
v 0.117153 1.200001 0.026406
v 0.117153 0.800001 2.470648
v 0.117153 0.800001 0.026406
v 0.117153 0.400002 2.470648
v 0.117153 0.400002 0.026406
v 0.117153 0.000000 2.470648
v 0.117153 0.000000 0.026406
v 0.115940 1.200001 2.304192
v 0.115940 1.200001 0.192862
v 0.115940 0.800001 2.304192
v 0.115940 0.800001 0.192862
v 0.115940 0.400002 2.304192
v 0.115940 0.400002 0.192862
v 0.115940 0.000000 2.304192
v 0.115940 0.000000 0.192862
v 0.110142 1.200001 2.282195
v 0.110142 1.200001 0.214859
v 0.110142 0.800001 2.282195
v 0.110142 0.800001 0.214859
v 0.110142 0.400002 2.282195
v 0.110142 0.400002 0.214859
v 0.110142 0.000000 2.282195
v 0.110142 0.000000 0.214859
v 0.108333 1.200001 2.260690
v 0.108333 1.200001 0.236364
v 0.108333 0.800001 2.260690
v 0.108333 0.800001 0.236364
v 0.108333 0.400002 2.260690
v 0.108333 0.400002 0.236364
v 0.108333 0.000000 2.260690
v 0.108333 0.000000 0.236364
v 0.098104 1.200001 2.458525
v 0.098104 1.200001 0.038528
v 0.098104 0.800001 2.458525
v 0.098104 0.800001 0.038528
v 0.098104 0.400002 2.458525
v 0.098104 0.400002 0.038528
v 0.098104 0.000000 2.458525
v 0.098104 0.000000 0.038528
v 0.080102 1.200001 2.444192
v 0.080102 1.200001 0.052862
v 0.080102 0.800001 2.444192
v 0.080102 0.800001 0.052862
v 0.080102 0.400002 2.444192
v 0.080102 0.400002 0.052862
v 0.080102 0.000000 2.444192
v 0.080102 0.000000 0.052862
v 0.063460 1.200001 2.427824
v 0.063460 1.200001 0.069229
v 0.063460 0.800001 2.427824
v 0.063460 0.800001 0.069229
v 0.063460 0.400002 2.427824
v 0.063460 0.400002 0.069229
v 0.063460 0.000000 2.427824
v 0.063460 0.000000 0.069229
v 0.048457 1.200001 2.409670
v 0.048457 1.200001 0.087384
v 0.048457 0.800001 2.409670
v 0.048457 0.800001 0.087384
v 0.048457 0.400002 2.409670
v 0.048457 0.400002 0.087384
v 0.048457 0.000000 2.409670
v 0.048457 0.000000 0.087384
v 0.035318 1.200001 2.390031
v 0.035318 1.200001 0.107023
v 0.035318 0.800001 2.390031
v 0.035318 0.800001 0.107023
v 0.035318 0.400002 2.390031
v 0.035318 0.400002 0.107023
v 0.035318 0.000000 2.390031
v 0.035318 0.000000 0.107023
v 0.024205 1.200001 2.369251
v 0.024205 1.200001 0.127803
v 0.024205 0.800001 2.369251
v 0.024205 0.800001 0.127803
v 0.024205 0.400002 2.369251
v 0.024205 0.400002 0.127803
v 0.024205 0.000000 2.369251
v 0.024205 0.000000 0.127803
v 0.015213 1.200001 2.347694
v 0.015213 1.200001 0.149359
v 0.015213 0.800001 2.347694
v 0.015213 0.800001 0.149359
v 0.015213 0.400002 2.347694
v 0.015213 0.400002 0.149359
v 0.015213 0.000000 2.347694
v 0.015213 0.000000 0.149359
v 0.008363 1.200001 2.325727
v 0.008363 1.200001 0.171326
v 0.008363 0.800001 2.325727
v 0.008363 0.800001 0.171326
v 0.008363 0.400002 2.325727
v 0.008363 0.400002 0.171326
v 0.008363 0.000000 2.325727
v 0.008363 0.000000 0.171326
v 0.003617 1.200001 2.303700
v 0.003617 1.200001 0.193354
v 0.003617 0.800001 2.303700
v 0.003617 0.800001 0.193354
v 0.003617 0.400002 2.303700
v 0.003617 0.400002 0.193354
v 0.003617 0.000000 2.303700
v 0.003617 0.000000 0.193354
v 0.000876 1.200001 2.281929
v 0.000876 1.200001 0.215125
v 0.000876 0.800001 2.281929
v 0.000876 0.800001 0.215125
v 0.000876 0.400002 2.281929
v 0.000876 0.400002 0.215125
v 0.000876 0.000000 2.281929
v 0.000876 0.000000 0.215125
v 0.000000 1.200001 2.260690
v 0.000000 1.200001 0.236364
v 0.000000 0.800001 2.260690
v 0.000000 0.800001 0.236364
v 0.000000 0.400002 2.260690
v 0.000000 0.400002 0.236364
v 0.000000 0.000000 2.260690
v 0.000000 0.000000 0.236364

vn 0.706973 0.707174 0.009719
vn 0.831687 0.554773 -0.022874
vn 0.999787 0.000000 0.020620
vn 0.999787 0.000000 -0.020620
vn 0.999787 0.000000 0.020620
vn 0.999787 0.000000 -0.020620
vn 0.706773 -0.707174 0.019438
vn 0.831923 -0.554773 -0.011437
vn 0.829857 0.555001 0.057542
vn 0.827920 0.555001 -0.080760
vn 0.996021 0.000000 0.089117
vn 0.997202 0.000000 -0.074761
vn 0.997202 0.000000 0.074761
vn 0.996021 0.000000 -0.089118
vn 0.827920 -0.555001 0.080760
vn 0.829857 -0.555001 -0.057543
vn 0.821963 0.555023 0.127776
vn 0.817909 0.555023 -0.151570
vn 0.983259 0.000000 0.182213
vn 0.988132 0.000000 -0.153607
vn 0.988132 0.000000 0.153608
vn 0.983259 0.000000 -0.182212
vn 0.817909 -0.555023 0.151571
vn 0.821963 -0.555023 -0.127776
vn 0.807536 0.555046 0.199522
vn 0.801184 0.555046 -0.223671
vn 0.963170 0.000000 0.268893
vn 0.970807 0.000000 -0.239861
vn 0.970807 0.000000 0.239862
vn 0.963170 0.000000 -0.268894
vn 0.801184 -0.555046 0.223671
vn 0.807536 -0.555046 -0.199521
vn 0.667890 0.707446 0.231176
vn 0.660400 0.707446 -0.251776
vn 0.934396 0.000000 0.356235
vn 0.944993 0.000000 -0.327090
vn 0.944994 0.000000 0.327089
vn 0.934396 0.000000 -0.356236
vn 0.660401 -0.707446 0.251775
vn 0.667890 -0.707446 -0.231177
vn 0.757049 0.555092 0.344600
vn 0.745646 0.555092 -0.368625
vn 0.896436 0.000000 0.443173
vn 0.910146 0.000000 -0.414288
vn 0.910146 0.000000 0.414288
vn 0.896437 0.000000 -0.443172
vn 0.745646 -0.555092 0.368626
vn 0.757049 -0.555092 -0.344600
vn 0.720205 0.555115 0.416116
vn 0.706138 0.555115 -0.439563
vn 0.848954 0.000000 0.528466
vn 0.865867 0.000000 -0.500274
vn 0.865866 0.000000 0.500275
vn 0.848955 0.000000 -0.528465
vn 0.706138 -0.555115 0.439564
vn 0.720206 -0.555115 -0.416115
vn 0.573818 0.707508 0.412511
vn 0.559595 0.707508 -0.431609
vn 0.791837 0.000000 0.610732
vn 0.811962 0.000000 -0.583710
vn 0.811962 0.000000 0.583710
vn 0.791837 0.000000 -0.610733
vn 0.559596 -0.707508 0.431608
vn 0.573818 -0.707508 -0.412511
vn 0.622571 0.555154 0.551552
vn 0.603241 0.555154 -0.572630
vn 0.725271 0.000000 0.688463
vn 0.748508 0.000000 -0.663126
vn 0.748510 0.000000 0.663124
vn 0.725269 0.000000 -0.688465
vn 0.603243 -0.555154 0.572628
vn 0.622570 -0.555154 -0.551553
vn 0.477655 0.707537 0.520804
vn 0.459183 0.707537 -0.537161
vn 0.649777 0.000000 0.760125
vn 0.675918 0.000000 -0.736977
vn 0.675918 0.000000 0.736977
vn 0.649779 0.000000 -0.760123
vn 0.459182 -0.707537 0.537162
vn 0.477655 -0.707537 -0.520804
vn 0.420440 0.707545 0.567988
vn 0.400165 0.707545 -0.582450
vn 0.566272 0.000000 0.824219
vn 0.594963 0.000000 -0.803753
vn 0.594961 0.000000 0.803754
vn 0.566270 0.000000 -0.824220
vn 0.400166 -0.707545 0.582449
vn 0.420441 -0.707545 -0.567987
vn -0.446234 0.894567 -0.024991
vn -0.393505 0.919257 0.011006
vn -0.999120 0.000000 -0.041941
vn -0.999120 0.000000 0.041941
vn -0.999120 0.000000 -0.041941
vn -0.999120 0.000000 0.041941
vn -0.446759 -0.894567 -0.012495
vn -0.393043 -0.919257 0.022012
vn -0.503012 0.858254 -0.101878
vn -0.508076 0.858254 0.072518
vn -0.988260 0.000000 -0.152781
vn -0.983257 0.000000 0.182224
vn -0.983257 0.000000 -0.182224
vn -0.988260 0.000000 0.152781
vn -0.508076 -0.858254 -0.072518
vn -0.503012 -0.858254 0.101879
vn -0.555487 0.801102 -0.222868
vn -0.568237 0.801102 0.187996
vn -0.949391 0.000000 -0.314097
vn -0.928089 0.000000 0.372359
vn -0.928088 0.000000 -0.372360
vn -0.949391 0.000000 0.314097
vn -0.568237 -0.801102 -0.187996
vn -0.555487 -0.801102 0.222867
vn 0.358138 0.707548 0.609191
vn 0.336383 0.707548 -0.621468
vn 0.476012 0.000000 0.879439
vn 0.506798 0.000000 -0.862065
vn 0.506799 0.000000 0.862064
vn 0.476014 0.000000 -0.879438
vn 0.336381 -0.707548 0.621469
vn 0.358137 -0.707548 -0.609191
vn -0.592281 0.708627 -0.383473
vn -0.616198 0.708627 0.343728
vn -0.873316 0.000000 -0.487154
vn -0.839419 0.000000 0.543485
vn -0.839420 0.000000 -0.543484
vn -0.873316 0.000000 0.487154
vn -0.616197 -0.708627 -0.343728
vn -0.592280 -0.708627 0.383474
vn 0.343436 0.555175 0.757517
vn 0.316570 0.555175 -0.769132
vn 0.380612 0.000000 0.924735
vn 0.412920 0.000000 -0.910767
vn 0.412916 0.000000 0.910769
vn 0.380615 0.000000 -0.924734
vn 0.316568 -0.555175 0.769133
vn 0.343439 -0.555175 -0.757515
vn -0.502876 0.708768 -0.494737
vn -0.535675 0.708768 0.459022
vn -0.759349 0.000000 -0.650684
vn -0.712850 0.000000 0.701317
vn -0.712852 0.000000 -0.701315
vn -0.759347 0.000000 0.650686
vn -0.535676 -0.708768 -0.459020
vn -0.502874 -0.708768 0.494738
vn 0.222672 0.707534 0.670681
vn 0.199209 0.707534 -0.678020
vn 0.281896 0.000000 0.959445
vn 0.315097 0.000000 -0.949060
vn 0.315097 0.000000 0.949059
vn 0.281894 0.000000 -0.959446
vn 0.199210 -0.707534 0.678020
vn 0.222672 -0.707534 -0.670681
vn -0.330036 0.801419 -0.498802
vn -0.364339 0.801419 0.474325
vn -0.609159 0.000000 -0.793049
vn -0.551806 0.000000 0.833972
vn -0.551804 0.000000 -0.833974
vn -0.609158 0.000000 0.793049
vn -0.364339 -0.801419 -0.474324
vn -0.330037 -0.801419 0.498801
vn -0.257686 0.708847 -0.656608
vn -0.303226 0.708847 0.636860
vn -0.429884 0.000000 -0.902884
vn -0.365324 0.000000 0.930880
vn -0.365324 0.000000 -0.930880
vn -0.429886 0.000000 0.902883
vn -0.303224 -0.708847 -0.636861
vn -0.257686 -0.708847 0.656608
vn 0.152107 0.707518 0.690132
vn 0.128466 0.707518 -0.694921
vn 0.181790 0.000000 0.983337
vn 0.215232 0.000000 -0.976563
vn 0.215237 0.000000 0.976562
vn 0.181785 0.000000 -0.983338
vn 0.128470 -0.707518 0.694920
vn 0.152104 -0.707518 -0.690132
vn -0.117760 0.708745 -0.695567
vn -0.164939 0.708745 0.685913
vn -0.214795 0.000000 -0.976659
vn -0.180369 0.000000 0.983599
vn -0.180367 0.000000 -0.983599
vn -0.214797 0.000000 0.976659
vn -0.164938 -0.708745 -0.685913
vn -0.117761 -0.708745 0.695567
vn 0.081454 0.707497 0.702007
vn 0.058078 0.707497 -0.704326
vn 0.088803 0.000000 0.996049
vn 0.105816 0.000000 -0.994386
vn 0.105818 0.000000 0.994385
vn 0.088802 0.000000 -0.996049
vn 0.058078 -0.707497 0.704326
vn 0.081452 -0.707497 -0.702007
vn 0.027212 0.554803 0.831537
vn -0.019925 0.800318 -0.599244
vn -0.046973 0.707498 0.705153
vn 0.011563 0.707201 -0.706918
vn 0.024532 0.000000 0.999699
vn -0.049855 0.000000 -0.998756
vn -0.049857 0.000000 0.998756
vn 0.024533 0.000000 -0.999699
vn 0.024532 0.000000 0.999699
vn -0.049855 0.000000 -0.998756
vn -0.049857 0.000000 0.998756
vn 0.024533 0.000000 -0.999699
vn 0.013606 -0.554803 0.831871
vn -0.039850 -0.800318 -0.598250
vn -0.023487 -0.707498 0.706325
vn 0.023126 -0.707201 -0.706634
vn -0.011562 0.707201 0.706918
vn 0.046971 0.707498 -0.705153
vn 0.019926 0.800318 0.599244
vn -0.027214 0.554803 -0.831537
vn -0.024532 0.000000 0.999699
vn 0.049855 0.000000 -0.998756
vn 0.049857 0.000000 0.998756
vn -0.024533 0.000000 -0.999699
vn -0.024532 0.000000 0.999699
vn 0.049855 0.000000 -0.998756
vn 0.049857 0.000000 0.998756
vn -0.024533 0.000000 -0.999699
vn -0.023125 -0.707201 0.706634
vn 0.023486 -0.707498 -0.706325
vn 0.039852 -0.800318 0.598249
vn -0.013607 -0.554803 -0.831870
vn -0.058078 0.707497 0.704326
vn -0.081452 0.707497 -0.702007
vn -0.105818 0.000000 0.994385
vn -0.088802 0.000000 -0.996049
vn -0.088803 0.000000 0.996049
vn -0.105816 0.000000 -0.994386
vn -0.081454 -0.707497 0.702007
vn -0.058078 -0.707497 -0.704326
vn 0.164938 0.708745 -0.685913
vn 0.117761 0.708745 0.695567
vn 0.180367 0.000000 -0.983599
vn 0.214797 0.000000 0.976659
vn 0.214795 0.000000 -0.976659
vn 0.180369 0.000000 0.983599
vn 0.117760 -0.708745 -0.695567
vn 0.164939 -0.708745 0.685913
vn -0.128470 0.707518 0.694920
vn -0.152104 0.707518 -0.690132
vn -0.215237 0.000000 0.976562
vn -0.181785 0.000000 -0.983338
vn -0.181790 0.000000 0.983337
vn -0.215232 0.000000 -0.976563
vn -0.152107 -0.707518 0.690132
vn -0.128466 -0.707518 -0.694921
vn 0.303224 0.708847 -0.636861
vn 0.257686 0.708847 0.656608
vn 0.365324 0.000000 -0.930880
vn 0.429886 0.000000 0.902883
vn 0.429884 0.000000 -0.902884
vn 0.365324 0.000000 0.930880
vn 0.257686 -0.708847 -0.656608
vn 0.303226 -0.708847 0.636860
vn 0.364341 0.801420 -0.474323
vn 0.330038 0.801419 0.498800
vn 0.551806 0.000000 -0.833972
vn 0.609162 0.000000 0.793046
vn 0.609162 0.000000 -0.793046
vn 0.551808 0.000000 0.833971
vn 0.330037 -0.801420 -0.498801
vn 0.364341 -0.801419 0.474323
vn -0.199210 0.707534 0.678020
vn -0.222672 0.707534 -0.670681
vn -0.315097 0.000000 0.949059
vn -0.281894 0.000000 -0.959446
vn -0.281896 0.000000 0.959445
vn -0.315097 0.000000 -0.949060
vn -0.222672 -0.707534 0.670681
vn -0.199209 -0.707534 -0.678020
vn 0.535675 0.708767 -0.459022
vn 0.502875 0.708767 0.494738
vn 0.712853 0.000000 -0.701313
vn 0.759345 0.000000 0.650689
vn 0.759347 0.000000 -0.650686
vn 0.712851 0.000000 0.701316
vn 0.502877 -0.708767 -0.494736
vn 0.535674 -0.708767 0.459023
vn -0.316569 0.555175 0.769132
vn -0.343442 0.555175 -0.757514
vn -0.412919 0.000000 0.910768
vn -0.380616 0.000000 -0.924733
vn -0.380613 0.000000 0.924734
vn -0.412923 0.000000 -0.910766
vn -0.343438 -0.555175 0.757516
vn -0.316571 -0.555175 -0.769131
vn 0.616196 0.708627 -0.343730
vn 0.592278 0.708627 0.383477
vn 0.839417 0.000000 -0.543488
vn 0.873315 0.000000 0.487156
vn 0.873315 0.000000 -0.487157
vn 0.839416 0.000000 0.543489
vn 0.592279 -0.708627 -0.383476
vn 0.616197 -0.708627 0.343729
vn -0.336382 0.707548 0.621468
vn -0.358135 0.707548 -0.609192
vn -0.506797 0.000000 0.862065
vn -0.476015 0.000000 -0.879437
vn -0.476013 0.000000 0.879438
vn -0.506796 0.000000 -0.862066
vn -0.358136 -0.707548 0.609192
vn -0.336384 -0.707548 -0.621468
vn 0.568237 0.801102 -0.187996
vn 0.555487 0.801102 0.222867
vn 0.928088 0.000000 -0.372360
vn 0.949391 0.000000 0.314097
vn 0.949391 0.000000 -0.314097
vn 0.928089 0.000000 0.372359
vn 0.555487 -0.801102 -0.222868
vn 0.568237 -0.801102 0.187996
vn 0.508076 0.858254 -0.072518
vn 0.503012 0.858254 0.101879
vn 0.983257 0.000000 -0.182224
vn 0.988260 0.000000 0.152781
vn 0.988260 0.000000 -0.152781
vn 0.983257 0.000000 0.182224
vn 0.503012 -0.858254 -0.101878
vn 0.508076 -0.858254 0.072518
vn 0.393505 0.919257 -0.011006
vn 0.446234 0.894567 0.024991
vn 0.999120 0.000000 -0.041941
vn 0.999120 0.000000 0.041941
vn 0.999120 0.000000 -0.041941
vn 0.999120 0.000000 0.041941
vn 0.393043 -0.919257 -0.022012
vn 0.446759 -0.894567 0.012495
vn -0.400164 0.707545 0.582451
vn -0.420440 0.707545 -0.567988
vn -0.594960 0.000000 0.803756
vn -0.566267 0.000000 -0.824222
vn -0.566269 0.000000 0.824221
vn -0.594961 0.000000 -0.803754
vn -0.420439 -0.707545 0.567988
vn -0.400163 -0.707545 -0.582451
vn -0.459182 0.707537 0.537162
vn -0.477655 0.707537 -0.520804
vn -0.675918 0.000000 0.736977
vn -0.649779 0.000000 -0.760123
vn -0.649777 0.000000 0.760125
vn -0.675918 0.000000 -0.736977
vn -0.477655 -0.707537 0.520804
vn -0.459183 -0.707537 -0.537161
vn -0.603244 0.555154 0.572626
vn -0.622573 0.555154 -0.551550
vn -0.748513 0.000000 0.663120
vn -0.725271 0.000000 -0.688464
vn -0.725273 0.000000 0.688461
vn -0.748511 0.000000 -0.663122
vn -0.622574 -0.555154 0.551548
vn -0.603243 -0.555154 -0.572628
vn -0.559597 0.707507 0.431607
vn -0.573817 0.707507 -0.412513
vn -0.811960 0.000000 0.583712
vn -0.791838 0.000000 -0.610731
vn -0.791839 0.000000 0.610730
vn -0.811961 0.000000 -0.583712
vn -0.573817 -0.707507 0.412513
vn -0.559597 -0.707507 -0.431607
vn -0.706135 0.555115 0.439568
vn -0.720204 0.555115 -0.416117
vn -0.865865 0.000000 0.500278
vn -0.848952 0.000000 -0.528470
vn -0.848951 0.000000 0.528471
vn -0.865866 0.000000 -0.500276
vn -0.720204 -0.555115 0.416118
vn -0.706136 -0.555115 -0.439567
vn -0.745646 0.555092 0.368626
vn -0.757049 0.555092 -0.344600
vn -0.910146 0.000000 0.414288
vn -0.896437 0.000000 -0.443172
vn -0.896436 0.000000 0.443173
vn -0.910146 0.000000 -0.414288
vn -0.757049 -0.555092 0.344600
vn -0.745646 -0.555092 -0.368625
vn -0.660401 0.707446 0.251775
vn -0.667890 0.707446 -0.231177
vn -0.944994 0.000000 0.327089
vn -0.934396 0.000000 -0.356236
vn -0.934396 0.000000 0.356235
vn -0.944993 0.000000 -0.327090
vn -0.667890 -0.707446 0.231176
vn -0.660400 -0.707446 -0.251776
vn -0.801184 0.555046 0.223671
vn -0.807536 0.555046 -0.199521
vn -0.970807 0.000000 0.239862
vn -0.963170 0.000000 -0.268894
vn -0.963170 0.000000 0.268893
vn -0.970807 0.000000 -0.239861
vn -0.807536 -0.555046 0.199522
vn -0.801184 -0.555046 -0.223671
vn -0.817909 0.555023 0.151571
vn -0.821963 0.555023 -0.127776
vn -0.988132 0.000000 0.153608
vn -0.983259 0.000000 -0.182212
vn -0.983259 0.000000 0.182213
vn -0.988132 0.000000 -0.153607
vn -0.821963 -0.555023 0.127776
vn -0.817909 -0.555023 -0.151570
vn -0.827920 0.555001 0.080760
vn -0.829857 0.555001 -0.057543
vn -0.997202 0.000000 0.074761
vn -0.996021 0.000000 -0.089118
vn -0.996021 0.000000 0.089117
vn -0.997202 0.000000 -0.074761
vn -0.829857 -0.555001 0.057542
vn -0.827920 -0.555001 -0.080760
vn -0.831687 0.554773 0.022874
vn -0.706973 0.707174 -0.009719
vn -0.999787 0.000000 0.020620
vn -0.999787 0.000000 -0.020620
vn -0.999787 0.000000 0.020620
vn -0.999787 0.000000 -0.020620
vn -0.831923 -0.554773 0.011437
vn -0.706773 -0.707174 -0.019438

f 5//5 7//7 8//8
f 1//1 3//3 4//4
f 3//3 5//5 6//6
f 20//20 12//12 14//14
f 28//28 20//20 22//22
f 36//36 28//28 30//30
f 44//44 36//36 38//38
f 52//52 44//44 46//46
f 60//60 52//52 54//54
f 68//68 60//60 62//62
f 76//76 68//68 70//70
f 84//84 76//76 78//78
f 116//116 84//84 86//86
f 132//132 116//116 118//118
f 148//148 132//132 134//134
f 172//172 148//148 150//150
f 188//188 172//172 174//174
f 16//16 14//14 6//6
f 32//32 30//30 22//22
f 24//24 22//22 14//14
f 14//14 12//12 4//4
f 30//30 32//32 40//40
f 48//48 46//46 38//38
f 64//64 62//62 54//54
f 56//56 54//54 46//46
f 72//72 70//70 62//62
f 12//12 10//10 2//2
f 28//28 26//26 18//18
f 20//20 18//18 10//10
f 26//26 28//28 36//36
f 44//44 42//42 34//34
f 52//52 50//50 42//42
f 60//60 58//58 50//50
f 58//58 60//60 68//68
f 70//70 72//72 80//80
f 88//88 86//86 78//78
f 118//118 120//120 136//136
f 120//120 118//118 86//86
f 176//176 174//174 150//150
f 208//208 204//204 190//190
f 192//192 190//190 174//174
f 152//152 150//150 134//134
f 204//204 200//200 188//188
f 84//84 82//82 74//74
f 114//114 116//116 132//132
f 116//116 114//114 82//82
f 76//76 74//74 66//66
f 172//172 170//170 146//146
f 200//200 196//196 186//186
f 188//188 186//186 170//170
f 148//148 146//146 130//130
f 204//204 208//208 224//224
f 196//196 200//200 216//216
f 200//200 204//204 220//220
f 244//244 228//228 230//230
f 268//268 244//244 246//246
f 284//284 268//268 270//270
f 300//300 284//284 286//286
f 332//332 300//300 302//302
f 340//340 332//332 334//334
f 348//348 340//340 342//342
f 356//356 348//348 350//350
f 364//364 356//356 358//358
f 372//372 364//364 366//366
f 380//380 372//372 374//374
f 388//388 380//380 382//382
f 396//396 388//388 390//390
f 404//404 396//396 398//398
f 232//232 230//230 220//220
f 272//272 270//270 246//246
f 248//248 246//246 230//230
f 230//230 228//228 216//216
f 270//270 272//272 288//288
f 304//304 302//302 286//286
f 344//344 342//342 334//334
f 336//336 334//334 302//302
f 352//352 350//350 342//342
f 228//228 226//226 212//212
f 268//268 266//266 242//242
f 244//244 242//242 226//226
f 266//266 268//268 284//284
f 300//300 298//298 282//282
f 332//332 330//330 298//298
f 340//340 338//338 330//330
f 338//338 340//340 348//348
f 350//350 352//352 360//360
f 368//368 366//366 358//358
f 374//374 376//376 384//384
f 376//376 374//374 366//366
f 400//400 398//398 390//390
f 416//416 414//414 406//406
f 408//408 406//406 398//398
f 392//392 390//390 382//382
f 414//414 412//412 404//404
f 364//364 362//362 354//354
f 370//370 372//372 380//380
f 372//372 370//370 362//362
f 356//356 354//354 346//346
f 396//396 394//394 386//386
f 412//412 410//410 402//402
f 404//404 402//402 394//394
f 388//388 386//386 378//378
f 414//414 416//416 415//415
f 410//410 412//412 411//411
f 412//412 414//414 413//413
f 395//395 403//403 405//405
f 387//387 395//395 397//397
f 379//379 387//387 389//389
f 371//371 379//379 381//381
f 363//363 371//371 373//373
f 355//355 363//363 365//365
f 347//347 355//355 357//357
f 339//339 347//347 349//349
f 331//331 339//339 341//341
f 299//299 331//331 333//333
f 283//283 299//299 301//301
f 267//267 283//283 285//285
f 243//243 267//267 269//269
f 227//227 243//243 245//245
f 407//407 405//405 413//413
f 391//391 389//389 397//397
f 399//399 397//397 405//405
f 405//405 403//403 411//411
f 389//389 391//391 383//383
f 375//375 373//373 381//381
f 359//359 357//357 365//365
f 367//367 365//365 373//373
f 351//351 349//349 357//357
f 403//403 401//401 409//409
f 387//387 385//385 393//393
f 395//395 393//393 401//401
f 385//385 387//387 379//379
f 371//371 369//369 377//377
f 363//363 361//361 369//369
f 355//355 353//353 361//361
f 353//353 355//355 347//347
f 349//349 351//351 343//343
f 335//335 333//333 341//341
f 301//301 303//303 287//287
f 303//303 301//301 333//333
f 247//247 245//245 269//269
f 221//221 217//217 229//229
f 231//231 229//229 245//245
f 271//271 269//269 285//285
f 217//217 213//213 227//227
f 331//331 329//329 337//337
f 297//297 299//299 283//283
f 299//299 297//297 329//329
f 339//339 337//337 345//345
f 243//243 241//241 265//265
f 213//213 209//209 225//225
f 227//227 225//225 241//241
f 267//267 265//265 281//281
f 217//217 221//221 205//205
f 209//209 213//213 197//197
f 213//213 217//217 201//201
f 171//171 187//187 189//189
f 147//147 171//171 173//173
f 131//131 147//147 149//149
f 115//115 131//131 133//133
f 83//83 115//115 117//117
f 75//75 83//83 85//85
f 67//67 75//75 77//77
f 59//59 67//67 69//69
f 51//51 59//59 61//61
f 43//43 51//51 53//53
f 35//35 43//43 45//45
f 27//27 35//35 37//37
f 19//19 27//27 29//29
f 11//11 19//19 21//21
f 191//191 189//189 201//201
f 151//151 149//149 173//173
f 175//175 173//173 189//189
f 189//189 187//187 197//197
f 149//149 151//151 135//135
f 119//119 117//117 133//133
f 79//79 77//77 85//85
f 87//87 85//85 117//117
f 71//71 69//69 77//77
f 187//187 185//185 193//193
f 147//147 145//145 169//169
f 171//171 169//169 185//185
f 145//145 147//147 131//131
f 115//115 113//113 129//129
f 83//83 81//81 113//113
f 75//75 73//73 81//81
f 73//73 75//75 67//67
f 69//69 71//71 63//63
f 55//55 53//53 61//61
f 45//45 47//47 39//39
f 47//47 45//45 53//53
f 23//23 21//21 29//29
f 7//7 5//5 13//13
f 15//15 13//13 21//21
f 31//31 29//29 37//37
f 5//5 3//3 11//11
f 51//51 49//49 57//57
f 41//41 43//43 35//35
f 43//43 41//41 49//49
f 59//59 57//57 65//65
f 19//19 17//17 25//25
f 3//3 1//1 9//9
f 11//11 9//9 17//17
f 27//27 25//25 33//33
f 107//107 99//99 101//101
f 123//123 107//107 109//109
f 139//139 123//123 125//125
f 155//155 139//139 141//141
f 163//163 155//155 157//157
f 179//179 163//163 165//165
f 103//103 101//101 93//93
f 101//101 99//99 91//91
f 101//101 103//103 111//111
f 127//127 125//125 109//109
f 125//125 127//127 143//143
f 99//99 97//97 89//89
f 97//97 99//99 107//107
f 123//123 121//121 105//105
f 121//121 123//123 139//139
f 141//141 143//143 159//159
f 157//157 159//159 167//167
f 206//206 202//202 181//181
f 183//183 181//181 165//165
f 202//202 198//198 179//179
f 153//153 155//155 163//163
f 155//155 153//153 137//137
f 198//198 194//194 177//177
f 179//179 177//177 161//161
f 202//202 206//206 222//222
f 194//194 198//198 214//214
f 198//198 202//202 218//218
f 251//251 235//235 237//237
f 259//259 251//251 253//253
f 275//275 259//259 261//261
f 291//291 275//275 277//277
f 307//307 291//291 293//293
f 315//315 307//307 309//309
f 239//239 237//237 218//218
f 237//237 235//235 214//214
f 237//237 239//239 255//255
f 263//263 261//261 253//253
f 261//261 263//263 279//279
f 235//235 233//233 210//210
f 233//233 235//235 251//251
f 259//259 257//257 249//249
f 257//257 259//259 275//275
f 277//277 279//279 295//295
f 293//293 295//295 311//311
f 327//327 325//325 317//317
f 319//319 317//317 309//309
f 325//325 323//323 315//315
f 289//289 291//291 307//307
f 291//291 289//289 273//273
f 323//323 321//321 313//313
f 315//315 313//313 305//305
f 325//325 327//327 328//328
f 321//321 323//323 324//324
f 323//323 325//325 326//326
f 308//308 316//316 318//318
f 292//292 308//308 310//310
f 276//276 292//292 294//294
f 260//260 276//276 278//278
f 252//252 260//260 262//262
f 236//236 252//252 254//254
f 320//320 318//318 326//326
f 318//318 316//316 324//324
f 318//318 320//320 312//312
f 296//296 294//294 310//310
f 294//294 296//296 280//280
f 316//316 314//314 322//322
f 314//314 316//316 308//308
f 292//292 290//290 306//306
f 290//290 292//292 276//276
f 278//278 280//280 264//264
f 262//262 264//264 256//256
f 223//223 219//219 238//238
f 240//240 238//238 254//254
f 219//219 215//215 236//236
f 258//258 260//260 252//252
f 260//260 258//258 274//274
f 215//215 211//211 234//234
f 236//236 234//234 250//250
f 219//219 223//223 207//207
f 211//211 215//215 199//199
f 215//215 219//219 203//203
f 164//164 180//180 182//182
f 156//156 164//164 166//166
f 140//140 156//156 158//158
f 124//124 140//140 142//142
f 108//108 124//124 126//126
f 100//100 108//108 110//110
f 184//184 182//182 203//203
f 182//182 180//180 199//199
f 182//182 184//184 168//168
f 160//160 158//158 166//166
f 158//158 160//160 144//144
f 180//180 178//178 195//195
f 178//178 180//180 164//164
f 156//156 154//154 162//162
f 154//154 156//156 140//140
f 142//142 144//144 128//128
f 126//126 128//128 112//112
f 96//96 94//94 102//102
f 104//104 102//102 110//110
f 94//94 92//92 100//100
f 122//122 124//124 108//108
f 124//124 122//122 138//138
f 92//92 90//90 98//98
f 100//100 98//98 106//106
f 94//94 96//96 95//95
f 90//90 92//92 91//91
f 92//92 94//94 93//93
f 367//367 375//375 319//319
f 367//367 319//319 359//359
f 359//359 311//311 351//351
f 311//311 359//359 319//319
f 351//351 311//311 343//343
f 407//407 415//415 327//327
f 399//399 407//407 327//327
f 327//327 383//383 391//391
f 383//383 327//327 319//319
f 319//319 375//375 383//383
f 399//399 327//327 391//391
f 327//327 415//415 416//416
f 295//295 335//335 343//343
f 287//287 303//303 263//263
f 287//287 263//263 271//271
f 231//231 247//247 239//239
f 255//255 247//247 271//271
f 221//221 231//231 222//222
f 295//295 343//343 311//311
f 279//279 335//335 295//295
f 231//231 239//239 222//222
f 271//271 263//263 255//255
f 247//247 255//255 239//239
f 263//263 303//303 279//279
f 221//221 222//222 206//206
f 279//279 303//303 335//335
f 400//400 328//328 408//408
f 416//416 408//408 328//328
f 328//328 392//392 384//384
f 400//400 392//392 328//328
f 320//320 328//328 384//384
f 384//384 376//376 320//320
f 376//376 368//368 320//320
f 368//368 360//360 320//320
f 352//352 312//312 360//360
f 352//352 344//344 312//312
f 336//336 296//296 344//344
f 360//360 312//312 320//320
f 336//336 304//304 280//280
f 296//296 336//336 280//280
f 248//248 240//240 256//256
f 272//272 256//256 264//264
f 304//304 264//264 280//280
f 288//288 272//272 264//264
f 264//264 304//304 288//288
f 248//248 232//232 240//240
f 256//256 272//272 248//248
f 223//223 232//232 224//224
f 223//223 224//224 208//208
f 232//232 223//223 240//240
f 312//312 344//344 296//296
f 205//205 206//206 191//191
f 191//191 183//183 175//175
f 135//135 151//151 159//159
f 167//167 151//151 175//175
f 119//119 135//135 159//159
f 191//191 206//206 183//183
f 175//175 183//183 167//167
f 119//119 159//159 143//143
f 127//127 111//111 79//79
f 87//87 143//143 127//127
f 159//159 151//151 167//167
f 119//119 143//143 87//87
f 71//71 79//79 111//111
f 63//63 71//71 111//111
f 55//55 63//63 103//103
f 111//111 103//103 63//63
f 47//47 55//55 103//103
f 95//95 39//39 103//103
f 47//47 103//103 39//39
f 31//31 39//39 95//95
f 23//23 95//95 15//15
f 15//15 95//95 7//7
f 31//31 95//95 23//23
f 7//7 95//95 96//96
f 87//87 127//127 79//79
f 152//152 160//160 168//168
f 176//176 168//168 184//184
f 128//128 144//144 88//88
f 88//88 144//144 120//120
f 120//120 144//144 160//160
f 208//208 192//192 207//207
f 192//192 184//184 207//207
f 152//152 168//168 176//176
f 192//192 176//176 184//184
f 160//160 152//152 136//136
f 136//136 120//120 160//160
f 80//80 112//112 128//128
f 96//96 104//104 40//40
f 24//24 96//96 32//32
f 32//32 96//96 40//40
f 24//24 16//16 96//96
f 8//8 96//96 16//16
f 112//112 80//80 72//72
f 80//80 128//128 88//88
f 104//104 56//56 48//48
f 56//56 104//104 64//64
f 64//64 112//112 72//72
f 104//104 48//48 40//40
f 112//112 64//64 104//104
f 361//361 313//313 369//369
f 361//361 353//353 313//313
f 353//353 345//345 305//305
f 305//305 313//313 353//353
f 345//345 337//337 305//305
f 401//401 321//321 409//409
f 393//393 321//321 401//401
f 321//321 385//385 377//377
f 377//377 313//313 321//321
f 313//313 377//377 369//369
f 393//393 385//385 321//321
f 321//321 322//322 410//410
f 289//289 337//337 329//329
f 281//281 257//257 297//297
f 281//281 265//265 257//257
f 225//225 233//233 241//241
f 249//249 265//265 241//241
f 209//209 210//210 225//225
f 289//289 305//305 337//337
f 273//273 289//289 329//329
f 225//225 210//210 233//233
f 265//265 249//249 257//257
f 241//241 233//233 249//249
f 257//257 273//273 297//297
f 209//209 193//193 194//194
f 273//273 329//329 297//297
f 394//394 402//402 322//322
f 410//410 322//322 402//402
f 322//322 378//378 386//386
f 394//394 322//322 386//386
f 314//314 378//378 322//322
f 378//378 314//314 370//370
f 370//370 314//314 362//362
f 362//362 314//314 354//354
f 346//346 354//354 306//306
f 346//346 306//306 338//338
f 330//330 338//338 290//290
f 354//354 314//314 306//306
f 330//330 274//274 298//298
f 290//290 274//274 330//330
f 242//242 250//250 234//234
f 266//266 258//258 250//250
f 298//298 274//274 258//258
f 282//282 258//258 266//266
f 258//258 282//282 298//298
f 242//242 234//234 226//226
f 250//250 242//242 266//266
f 211//211 212//212 226//226
f 211//211 195//195 196//196
f 226//226 234//234 211//211
f 306//306 290//290 338//338
f 193//193 185//185 194//194
f 185//185 169//169 177//177
f 129//129 153//153 145//145
f 161//161 169//169 145//145
f 113//113 153//153 129//129
f 185//185 177//177 194//194
f 169//169 161//161 177//177
f 113//113 137//137 153//153
f 121//121 73//73 105//105
f 81//81 121//121 137//137
f 153//153 161//161 145//145
f 113//113 81//81 137//137
f 65//65 105//105 73//73
f 57//57 105//105 65//65
f 49//49 97//97 57//57
f 105//105 57//57 97//97
f 41//41 97//97 49//49
f 89//89 97//97 33//33
f 41//41 33//33 97//97
f 25//25 89//89 33//33
f 17//17 9//9 89//89
f 9//9 1//1 89//89
f 25//25 17//17 89//89
f 1//1 2//2 90//90
f 81//81 73//73 121//121
f 146//146 162//162 154//154
f 170//170 178//178 162//162
f 122//122 82//82 138//138
f 82//82 114//114 138//138
f 114//114 154//154 138//138
f 196//196 195//195 186//186
f 186//186 195//195 178//178
f 146//146 170//170 162//162
f 186//186 178//178 170//170
f 154//154 130//130 146//146
f 130//130 154//154 114//114
f 74//74 122//122 106//106
f 90//90 34//34 98//98
f 18//18 26//26 90//90
f 26//26 34//34 90//90
f 18//18 90//90 10//10
f 2//2 10//10 90//90
f 106//106 66//66 74//74
f 74//74 82//82 122//122
f 98//98 42//42 50//50
f 50//50 58//58 98//98
f 58//58 66//66 106//106
f 98//98 34//34 42//42
f 106//106 98//98 58//58
f 5//5 8//8 6//6
f 1//1 4//4 2//2
f 3//3 6//6 4//4
f 20//20 14//14 22//22
f 28//28 22//22 30//30
f 36//36 30//30 38//38
f 44//44 38//38 46//46
f 52//52 46//46 54//54
f 60//60 54//54 62//62
f 68//68 62//62 70//70
f 76//76 70//70 78//78
f 84//84 78//78 86//86
f 116//116 86//86 118//118
f 132//132 118//118 134//134
f 148//148 134//134 150//150
f 172//172 150//150 174//174
f 188//188 174//174 190//190
f 16//16 6//6 8//8
f 32//32 22//22 24//24
f 24//24 14//14 16//16
f 14//14 4//4 6//6
f 30//30 40//40 38//38
f 48//48 38//38 40//40
f 64//64 54//54 56//56
f 56//56 46//46 48//48
f 72//72 62//62 64//64
f 12//12 2//2 4//4
f 28//28 18//18 20//20
f 20//20 10//10 12//12
f 26//26 36//36 34//34
f 44//44 34//34 36//36
f 52//52 42//42 44//44
f 60//60 50//50 52//52
f 58//58 68//68 66//66
f 70//70 80//80 78//78
f 88//88 78//78 80//80
f 118//118 136//136 134//134
f 120//120 86//86 88//88
f 176//176 150//150 152//152
f 208//208 190//190 192//192
f 192//192 174//174 176//176
f 152//152 134//134 136//136
f 204//204 188//188 190//190
f 84//84 74//74 76//76
f 114//114 132//132 130//130
f 116//116 82//82 84//84
f 76//76 66//66 68//68
f 172//172 146//146 148//148
f 200//200 186//186 188//188
f 188//188 170//170 172//172
f 148//148 130//130 132//132
f 204//204 224//224 220//220
f 196//196 216//216 212//212
f 200//200 220//220 216//216
f 244//244 230//230 246//246
f 268//268 246//246 270//270
f 284//284 270//270 286//286
f 300//300 286//286 302//302
f 332//332 302//302 334//334
f 340//340 334//334 342//342
f 348//348 342//342 350//350
f 356//356 350//350 358//358
f 364//364 358//358 366//366
f 372//372 366//366 374//374
f 380//380 374//374 382//382
f 388//388 382//382 390//390
f 396//396 390//390 398//398
f 404//404 398//398 406//406
f 232//232 220//220 224//224
f 272//272 246//246 248//248
f 248//248 230//230 232//232
f 230//230 216//216 220//220
f 270//270 288//288 286//286
f 304//304 286//286 288//288
f 344//344 334//334 336//336
f 336//336 302//302 304//304
f 352//352 342//342 344//344
f 228//228 212//212 216//216
f 268//268 242//242 244//244
f 244//244 226//226 228//228
f 266//266 284//284 282//282
f 300//300 282//282 284//284
f 332//332 298//298 300//300
f 340//340 330//330 332//332
f 338//338 348//348 346//346
f 350//350 360//360 358//358
f 368//368 358//358 360//360
f 374//374 384//384 382//382
f 376//376 366//366 368//368
f 400//400 390//390 392//392
f 416//416 406//406 408//408
f 408//408 398//398 400//400
f 392//392 382//382 384//384
f 414//414 404//404 406//406
f 364//364 354//354 356//356
f 370//370 380//380 378//378
f 372//372 362//362 364//364
f 356//356 346//346 348//348
f 396//396 386//386 388//388
f 412//412 402//402 404//404
f 404//404 394//394 396//396
f 388//388 378//378 380//380
f 414//414 415//415 413//413
f 410//410 411//411 409//409
f 412//412 413//413 411//411
f 395//395 405//405 397//397
f 387//387 397//397 389//389
f 379//379 389//389 381//381
f 371//371 381//381 373//373
f 363//363 373//373 365//365
f 355//355 365//365 357//357
f 347//347 357//357 349//349
f 339//339 349//349 341//341
f 331//331 341//341 333//333
f 299//299 333//333 301//301
f 283//283 301//301 285//285
f 267//267 285//285 269//269
f 243//243 269//269 245//245
f 227//227 245//245 229//229
f 407//407 413//413 415//415
f 391//391 397//397 399//399
f 399//399 405//405 407//407
f 405//405 411//411 413//413
f 389//389 383//383 381//381
f 375//375 381//381 383//383
f 359//359 365//365 367//367
f 367//367 373//373 375//375
f 351//351 357//357 359//359
f 403//403 409//409 411//411
f 387//387 393//393 395//395
f 395//395 401//401 403//403
f 385//385 379//379 377//377
f 371//371 377//377 379//379
f 363//363 369//369 371//371
f 355//355 361//361 363//363
f 353//353 347//347 345//345
f 349//349 343//343 341//341
f 335//335 341//341 343//343
f 301//301 287//287 285//285
f 303//303 333//333 335//335
f 247//247 269//269 271//271
f 221//221 229//229 231//231
f 231//231 245//245 247//247
f 271//271 285//285 287//287
f 217//217 227//227 229//229
f 331//331 337//337 339//339
f 297//297 283//283 281//281
f 299//299 329//329 331//331
f 339//339 345//345 347//347
f 243//243 265//265 267//267
f 213//213 225//225 227//227
f 227//227 241//241 243//243
f 267//267 281//281 283//283
f 217//217 205//205 201//201
f 209//209 197//197 193//193
f 213//213 201//201 197//197
f 171//171 189//189 173//173
f 147//147 173//173 149//149
f 131//131 149//149 133//133
f 115//115 133//133 117//117
f 83//83 117//117 85//85
f 75//75 85//85 77//77
f 67//67 77//77 69//69
f 59//59 69//69 61//61
f 51//51 61//61 53//53
f 43//43 53//53 45//45
f 35//35 45//45 37//37
f 27//27 37//37 29//29
f 19//19 29//29 21//21
f 11//11 21//21 13//13
f 191//191 201//201 205//205
f 151//151 173//173 175//175
f 175//175 189//189 191//191
f 189//189 197//197 201//201
f 149//149 135//135 133//133
f 119//119 133//133 135//135
f 79//79 85//85 87//87
f 87//87 117//117 119//119
f 71//71 77//77 79//79
f 187//187 193//193 197//197
f 147//147 169//169 171//171
f 171//171 185//185 187//187
f 145//145 131//131 129//129
f 115//115 129//129 131//131
f 83//83 113//113 115//115
f 75//75 81//81 83//83
f 73//73 67//67 65//65
f 69//69 63//63 61//61
f 55//55 61//61 63//63
f 45//45 39//39 37//37
f 47//47 53//53 55//55
f 23//23 29//29 31//31
f 7//7 13//13 15//15
f 15//15 21//21 23//23
f 31//31 37//37 39//39
f 5//5 11//11 13//13
f 51//51 57//57 59//59
f 41//41 35//35 33//33
f 43//43 49//49 51//51
f 59//59 65//65 67//67
f 19//19 25//25 27//27
f 3//3 9//9 11//11
f 11//11 17//17 19//19
f 27//27 33//33 35//35
f 107//107 101//101 109//109
f 123//123 109//109 125//125
f 139//139 125//125 141//141
f 155//155 141//141 157//157
f 163//163 157//157 165//165
f 179//179 165//165 181//181
f 103//103 93//93 95//95
f 101//101 91//91 93//93
f 101//101 111//111 109//109
f 127//127 109//109 111//111
f 125//125 143//143 141//141
f 99//99 89//89 91//91
f 97//97 107//107 105//105
f 123//123 105//105 107//107
f 121//121 139//139 137//137
f 141//141 159//159 157//157
f 157//157 167//167 165//165
f 206//206 181//181 183//183
f 183//183 165//165 167//167
f 202//202 179//179 181//181
f 153//153 163//163 161//161
f 155//155 137//137 139//139
f 198//198 177//177 179//179
f 179//179 161//161 163//163
f 202//202 222//222 218//218
f 194//194 214//214 210//210
f 198//198 218//218 214//214
f 251//251 237//237 253//253
f 259//259 253//253 261//261
f 275//275 261//261 277//277
f 291//291 277//277 293//293
f 307//307 293//293 309//309
f 315//315 309//309 317//317
f 239//239 218//218 222//222
f 237//237 214//214 218//218
f 237//237 255//255 253//253
f 263//263 253//253 255//255
f 261//261 279//279 277//277
f 235//235 210//210 214//214
f 233//233 251//251 249//249
f 259//259 249//249 251//251
f 257//257 275//275 273//273
f 277//277 295//295 293//293
f 293//293 311//311 309//309
f 327//327 317//317 319//319
f 319//319 309//309 311//311
f 325//325 315//315 317//317
f 289//289 307//307 305//305
f 291//291 273//273 275//275
f 323//323 313//313 315//315
f 315//315 305//305 307//307
f 325//325 328//328 326//326
f 321//321 324//324 322//322
f 323//323 326//326 324//324
f 308//308 318//318 310//310
f 292//292 310//310 294//294
f 276//276 294//294 278//278
f 260//260 278//278 262//262
f 252//252 262//262 254//254
f 236//236 254//254 238//238
f 320//320 326//326 328//328
f 318//318 324//324 326//326
f 318//318 312//312 310//310
f 296//296 310//310 312//312
f 294//294 280//280 278//278
f 316//316 322//322 324//324
f 314//314 308//308 306//306
f 292//292 306//306 308//308
f 290//290 276//276 274//274
f 278//278 264//264 262//262
f 262//262 256//256 254//254
f 223//223 238//238 240//240
f 240//240 254//254 256//256
f 219//219 236//236 238//238
f 258//258 252//252 250//250
f 260//260 274//274 276//276
f 215//215 234//234 236//236
f 236//236 250//250 252//252
f 219//219 207//207 203//203
f 211//211 199//199 195//195
f 215//215 203//203 199//199
f 164//164 182//182 166//166
f 156//156 166//166 158//158
f 140//140 158//158 142//142
f 124//124 142//142 126//126
f 108//108 126//126 110//110
f 100//100 110//110 102//102
f 184//184 203//203 207//207
f 182//182 199//199 203//203
f 182//182 168//168 166//166
f 160//160 166//166 168//168
f 158//158 144//144 142//142
f 180//180 195//195 199//199
f 178//178 164//164 162//162
f 156//156 162//162 164//164
f 154//154 140//140 138//138
f 142//142 128//128 126//126
f 126//126 112//112 110//110
f 96//96 102//102 104//104
f 104//104 110//110 112//112
f 94//94 100//100 102//102
f 122//122 108//108 106//106
f 124//124 138//138 140//140
f 92//92 98//98 100//100
f 100//100 106//106 108//108
f 94//94 95//95 93//93
f 90//90 91//91 89//89
f 92//92 93//93 91//91
f 327//327 416//416 328//328
f 221//221 206//206 205//205
f 223//223 208//208 207//207
f 7//7 96//96 8//8
f 321//321 410//410 409//409
f 209//209 194//194 210//210
f 211//211 196//196 212//212
f 1//1 90//90 89//89