# PHANTOM Module: L10_18
# Units: meters
o L10_18

v 1.300000 1.799999 2.606932
v 1.300000 1.799999 0.582606
v 1.300000 1.349999 2.520372
v 1.300000 1.349999 0.496045
v 1.300000 0.900000 2.433811
v 1.300000 0.900000 0.409485
v 1.300000 0.450000 2.347251
v 1.300000 0.450000 0.322924
v 1.300000 0.000000 2.260690
v 1.300000 0.000000 0.236364
v 1.299124 1.799999 2.628170
v 1.299124 1.799999 0.561367
v 1.299124 1.349999 2.541610
v 1.299124 1.349999 0.474807
v 1.299124 0.900000 2.455050
v 1.299124 0.900000 0.388246
v 1.299124 0.450000 2.368489
v 1.299124 0.450000 0.301686
v 1.299124 0.000000 2.281929
v 1.299124 0.000000 0.215125
v 1.296383 1.799999 2.649942
v 1.296383 1.799999 0.539596
v 1.296383 1.349999 2.563381
v 1.296383 1.349999 0.453036
v 1.296383 0.900000 2.476821
v 1.296383 0.900000 0.366475
v 1.296383 0.450000 2.390260
v 1.296383 0.450000 0.279915
v 1.296383 0.000000 2.303700
v 1.296383 0.000000 0.193354
v 1.291636 1.799999 2.671970
v 1.291636 1.799999 0.517568
v 1.291636 1.349999 2.585409
v 1.291636 1.349999 0.431008
v 1.291636 0.900000 2.498849
v 1.291636 0.900000 0.344447
v 1.291636 0.450000 2.412288
v 1.291636 0.450000 0.257887
v 1.291636 0.000000 2.325727
v 1.291636 0.000000 0.171326
v 1.284788 1.799999 2.693936
v 1.284788 1.799999 0.495602
v 1.284788 1.349999 2.607376
v 1.284788 1.349999 0.409041
v 1.284788 0.900000 2.520815
v 1.284788 0.900000 0.322480
v 1.284788 0.450000 2.434255
v 1.284788 0.450000 0.235920
v 1.284788 0.000000 2.347694
v 1.284788 0.000000 0.149359
v 1.275795 1.799999 2.715493
v 1.275795 1.799999 0.474045
v 1.275795 1.349999 2.628932
v 1.275795 1.349999 0.387485
v 1.275795 0.900000 2.542372
v 1.275795 0.900000 0.300924
v 1.275795 0.450000 2.455811
v 1.275795 0.450000 0.214364
v 1.275795 0.000000 2.369251
v 1.275795 0.000000 0.127803
v 1.264682 1.799999 2.736273
v 1.264682 1.799999 0.453265
v 1.264682 1.349999 2.649712
v 1.264682 1.349999 0.366705
v 1.264682 0.900000 2.563152
v 1.264682 0.900000 0.280144
v 1.264682 0.450000 2.476591
v 1.264682 0.450000 0.193584
v 1.264682 0.000000 2.390031
v 1.264682 0.000000 0.107023
v 1.251544 1.799999 2.755912
v 1.251544 1.799999 0.433626
v 1.251544 1.349999 2.669351
v 1.251544 1.349999 0.347066
v 1.251544 0.900000 2.582791
v 1.251544 0.900000 0.260505
v 1.251544 0.450000 2.496230
v 1.251544 0.450000 0.173945
v 1.251544 0.000000 2.409670
v 1.251544 0.000000 0.087384
v 1.236540 1.799999 2.774067
v 1.236540 1.799999 0.415471
v 1.236540 1.349999 2.687506
v 1.236540 1.349999 0.328911
v 1.236540 0.900000 2.600945
v 1.236540 0.900000 0.242350
v 1.236540 0.450000 2.514385
v 1.236540 0.450000 0.155790
v 1.236540 0.000000 2.427824
v 1.236540 0.000000 0.069229
v 1.219898 1.799999 2.790434
v 1.219898 1.799999 0.399104
v 1.219898 1.349999 2.703873
v 1.219898 1.349999 0.312544
v 1.219898 0.900000 2.617313
v 1.219898 0.900000 0.225983
v 1.219898 0.450000 2.530752
v 1.219898 0.450000 0.139422
v 1.219898 0.000000 2.444192
v 1.219898 0.000000 0.052862
v 1.201896 1.799999 2.804768
v 1.201896 1.799999 0.384770
v 1.201896 1.349999 2.718207
v 1.201896 1.349999 0.298210
v 1.201896 0.900000 2.631646
v 1.201896 0.900000 0.211649
v 1.201896 0.450000 2.545086
v 1.201896 0.450000 0.125089
v 1.201896 0.000000 2.458525
v 1.201896 0.000000 0.038528
v 1.191667 1.799999 2.606932
v 1.191667 1.799999 0.582606
v 1.191667 1.349999 2.520372
v 1.191667 1.349999 0.496045
v 1.191667 0.900000 2.433811
v 1.191667 0.900000 0.409485
v 1.191667 0.450000 2.347251
v 1.191667 0.450000 0.322924
v 1.191667 0.000000 2.260690
v 1.191667 0.000000 0.236364
v 1.189858 1.799999 2.628437
v 1.189858 1.799999 0.561101
v 1.189858 1.349999 2.541877
v 1.189858 1.349999 0.474540
v 1.189858 0.900000 2.455316
v 1.189858 0.900000 0.387980
v 1.189858 0.450000 2.368755
v 1.189858 0.450000 0.301419
v 1.189858 0.000000 2.282195
v 1.189858 0.000000 0.214859
v 1.184061 1.799999 2.650434
v 1.184061 1.799999 0.539104
v 1.184061 1.349999 2.563874
v 1.184061 1.349999 0.452543
v 1.184061 0.900000 2.477313
v 1.184061 0.900000 0.365983
v 1.184061 0.450000 2.390753
v 1.184061 0.450000 0.279422
v 1.184061 0.000000 2.304192
v 1.184061 0.000000 0.192862
v 1.182847 1.799999 2.816890
v 1.182847 1.799999 0.372648
v 1.182847 1.349999 2.730330
v 1.182847 1.349999 0.286087
v 1.182847 0.900000 2.643769
v 1.182847 0.900000 0.199527
v 1.182847 0.450000 2.557209
v 1.182847 0.450000 0.112966
v 1.182847 0.000000 2.470648
v 1.182847 0.000000 0.026406
v 1.174008 1.799999 2.671602
v 1.174008 1.799999 0.517935
v 1.174008 1.349999 2.585042
v 1.174008 1.349999 0.431375
v 1.174008 0.900000 2.498482
v 1.174008 0.900000 0.344814
v 1.174008 0.450000 2.411921
v 1.174008 0.450000 0.258254
v 1.174008 0.000000 2.325360
v 1.174008 0.000000 0.171693
v 1.163087 1.799999 2.826700
v 1.163087 1.799999 0.362838
v 1.163087 1.349999 2.740140
v 1.163087 1.349999 0.276277
v 1.163087 0.900000 2.653579
v 1.163087 0.900000 0.189717
v 1.163087 0.450000 2.567019
v 1.163087 0.450000 0.103156
v 1.163087 0.000000 2.480458
v 1.163087 0.000000 0.016595
v 1.159937 1.799999 2.690499
v 1.159937 1.799999 0.499039
v 1.159937 1.349999 2.603939
v 1.159937 1.349999 0.412478
v 1.159937 0.900000 2.517378
v 1.159937 0.900000 0.325918
v 1.159937 0.450000 2.430818
v 1.159937 0.450000 0.239357
v 1.159937 0.000000 2.344257
v 1.159937 0.000000 0.152796
v 1.142951 1.799999 2.834172
v 1.142951 1.799999 0.355366
v 1.142951 1.349999 2.747612
v 1.142951 1.349999 0.268805
v 1.142951 0.900000 2.661051
v 1.142951 0.900000 0.182245
v 1.142951 0.450000 2.574491
v 1.142951 0.450000 0.095684
v 1.142951 0.000000 2.487930
v 1.142951 0.000000 0.009124
v 1.142614 1.799999 2.705850
v 1.142614 1.799999 0.483688
v 1.142614 1.349999 2.619289
v 1.142614 1.349999 0.397128
v 1.142614 0.900000 2.532729
v 1.142614 0.900000 0.310567
v 1.142614 0.450000 2.446168
v 1.142614 0.450000 0.224007
v 1.142614 0.000000 2.359608
v 1.142614 0.000000 0.137446
v 1.123210 1.799999 2.716816
v 1.123210 1.799999 0.472722
v 1.123210 1.349999 2.630256
v 1.123210 1.349999 0.386161
v 1.123210 0.900000 2.543695
v 1.123210 0.900000 0.299601
v 1.123210 0.450000 2.457135
v 1.123210 0.450000 0.213040
v 1.123210 0.000000 2.370574
v 1.123210 0.000000 0.126480
v 1.122759 1.799999 2.839350
v 1.122759 1.799999 0.350188
v 1.122759 1.349999 2.752789
v 1.122759 1.349999 0.263628
v 1.122759 0.900000 2.666229
v 1.122759 0.900000 0.177067
v 1.122759 0.450000 2.579668
v 1.122759 0.450000 0.090507
v 1.122759 0.000000 2.493108
v 1.122759 0.000000 0.003946
v 1.103046 1.799999 2.723141
v 1.103046 1.799999 0.466397
v 1.103046 1.349999 2.636580
v 1.103046 1.349999 0.379836
v 1.103046 0.900000 2.550020
v 1.103046 0.900000 0.293276
v 1.103046 0.450000 2.463459
v 1.103046 0.450000 0.206715
v 1.103046 0.000000 2.376899
v 1.103046 0.000000 0.120155
v 1.102802 1.799999 2.842340
v 1.102802 1.799999 0.347198
v 1.102802 1.349999 2.755779
v 1.102802 1.349999 0.260638
v 1.102802 0.900000 2.669219
v 1.102802 0.900000 0.174077
v 1.102802 0.450000 2.582658
v 1.102802 0.450000 0.087517
v 1.102802 0.000000 2.496098
v 1.102802 0.000000 0.000956
v 1.083333 1.799999 2.843296
v 1.083333 1.799999 2.725114
v 1.083333 1.799999 0.464424
v 1.083333 1.799999 0.346242
v 1.083333 1.349999 2.756735
v 1.083333 1.349999 2.638554
v 1.083333 1.349999 0.377863
v 1.083333 1.349999 0.259682
v 1.083333 0.900000 2.670175
v 1.083333 0.900000 2.551993
v 1.083333 0.900000 0.291303
v 1.083333 0.900000 0.173121
v 1.083333 0.450000 2.583614
v 1.083333 0.450000 2.465432
v 1.083333 0.450000 0.204742
v 1.083333 0.450000 0.086561
v 1.083333 0.000000 2.497054
v 1.083333 0.000000 2.378872
v 1.083333 0.000000 0.118182
v 1.083333 0.000000 0.000000
v 0.216667 1.799999 2.843296
v 0.216667 1.799999 2.725114
v 0.216667 1.799999 0.464424
v 0.216667 1.799999 0.346242
v 0.216667 1.349999 2.756735
v 0.216667 1.349999 2.638554
v 0.216667 1.349999 0.377863
v 0.216667 1.349999 0.259682
v 0.216667 0.900000 2.670175
v 0.216667 0.900000 2.551993
v 0.216667 0.900000 0.291303
v 0.216667 0.900000 0.173121
v 0.216667 0.450000 2.583614
v 0.216667 0.450000 2.465432
v 0.216667 0.450000 0.204742
v 0.216667 0.450000 0.086561
v 0.216667 0.000000 2.497054
v 0.216667 0.000000 2.378872
v 0.216667 0.000000 0.118182
v 0.216667 0.000000 0.000000
v 0.197198 1.799999 2.842340
v 0.197198 1.799999 0.347198
v 0.197198 1.349999 2.755779
v 0.197198 1.349999 0.260638
v 0.197198 0.900000 2.669219
v 0.197198 0.900000 0.174077
v 0.197198 0.450000 2.582658
v 0.197198 0.450000 0.087517
v 0.197198 0.000000 2.496098
v 0.197198 0.000000 0.000956
v 0.196954 1.799999 2.723141
v 0.196954 1.799999 0.466397
v 0.196954 1.349999 2.636580
v 0.196954 1.349999 0.379836
v 0.196954 0.900000 2.550020
v 0.196954 0.900000 0.293276
v 0.196954 0.450000 2.463459
v 0.196954 0.450000 0.206715
v 0.196954 0.000000 2.376899
v 0.196954 0.000000 0.120155
v 0.177241 1.799999 2.839350
v 0.177241 1.799999 0.350188
v 0.177241 1.349999 2.752789
v 0.177241 1.349999 0.263628
v 0.177241 0.900000 2.666229
v 0.177241 0.900000 0.177067
v 0.177241 0.450000 2.579668
v 0.177241 0.450000 0.090507
v 0.177241 0.000000 2.493108
v 0.177241 0.000000 0.003946
v 0.176790 1.799999 2.716816
v 0.176790 1.799999 0.472722
v 0.176790 1.349999 2.630256
v 0.176790 1.349999 0.386161
v 0.176790 0.900000 2.543695
v 0.176790 0.900000 0.299601
v 0.176790 0.450000 2.457135
v 0.176790 0.450000 0.213040
v 0.176790 0.000000 2.370574
v 0.176790 0.000000 0.126480
v 0.157386 1.799999 2.705850
v 0.157386 1.799999 0.483688
v 0.157386 1.349999 2.619289
v 0.157386 1.349999 0.397128
v 0.157386 0.900000 2.532729
v 0.157386 0.900000 0.310567
v 0.157386 0.450000 2.446168
v 0.157386 0.450000 0.224007
v 0.157386 0.000000 2.359608
v 0.157386 0.000000 0.137446
v 0.157049 1.799999 2.834172
v 0.157049 1.799999 0.355366
v 0.157049 1.349999 2.747612
v 0.157049 1.349999 0.268805
v 0.157049 0.900000 2.661051
v 0.157049 0.900000 0.182245
v 0.157049 0.450000 2.574491
v 0.157049 0.450000 0.095684
v 0.157049 0.000000 2.487930
v 0.157049 0.000000 0.009124
v 0.140064 1.799999 2.690499
v 0.140064 1.799999 0.499039
v 0.140064 1.349999 2.603939
v 0.140064 1.349999 0.412478
v 0.140064 0.900000 2.517378
v 0.140064 0.900000 0.325918
v 0.140064 0.450000 2.430818
v 0.140064 0.450000 0.239357
v 0.140064 0.000000 2.344257
v 0.140064 0.000000 0.152796
v 0.136913 1.799999 2.826700
v 0.136913 1.799999 0.362838
v 0.136913 1.349999 2.740140
v 0.136913 1.349999 0.276277
v 0.136913 0.900000 2.653579
v 0.136913 0.900000 0.189717
v 0.136913 0.450000 2.567019
v 0.136913 0.450000 0.103156
v 0.136913 0.000000 2.480458
v 0.136913 0.000000 0.016595
v 0.125992 1.799999 2.671602
v 0.125992 1.799999 0.517935
v 0.125992 1.349999 2.585042
v 0.125992 1.349999 0.431375
v 0.125992 0.900000 2.498482
v 0.125992 0.900000 0.344814
v 0.125992 0.450000 2.411921
v 0.125992 0.450000 0.258254
v 0.125992 0.000000 2.325360
v 0.125992 0.000000 0.171693
v 0.117153 1.799999 2.816890
v 0.117153 1.799999 0.372648
v 0.117153 1.349999 2.730330
v 0.117153 1.349999 0.286087
v 0.117153 0.900000 2.643769
v 0.117153 0.900000 0.199527
v 0.117153 0.450000 2.557209
v 0.117153 0.450000 0.112966
v 0.117153 0.000000 2.470648
v 0.117153 0.000000 0.026406
v 0.115940 1.799999 2.650434
v 0.115940 1.799999 0.539104
v 0.115940 1.349999 2.563874
v 0.115940 1.349999 0.452543
v 0.115940 0.900000 2.477313
v 0.115940 0.900000 0.365983
v 0.115940 0.450000 2.390753
v 0.115940 0.450000 0.279422
v 0.115940 0.000000 2.304192
v 0.115940 0.000000 0.192862
v 0.110142 1.799999 2.628437
v 0.110142 1.799999 0.561101
v 0.110142 1.349999 2.541877
v 0.110142 1.349999 0.474540
v 0.110142 0.900000 2.455316
v 0.110142 0.900000 0.387980
v 0.110142 0.450000 2.368755
v 0.110142 0.450000 0.301419
v 0.110142 0.000000 2.282195
v 0.110142 0.000000 0.214859
v 0.108334 1.799999 2.606932
v 0.108334 1.799999 0.582606
v 0.108334 1.349999 2.520372
v 0.108334 1.349999 0.496045
v 0.108334 0.900000 2.433811
v 0.108334 0.900000 0.409485
v 0.108334 0.450000 2.347251
v 0.108334 0.450000 0.322924
v 0.108334 0.000000 2.260690
v 0.108334 0.000000 0.236364
v 0.098104 1.799999 2.804768
v 0.098104 1.799999 0.384770
v 0.098104 1.349999 2.718207
v 0.098104 1.349999 0.298210
v 0.098104 0.900000 2.631646
v 0.098104 0.900000 0.211649
v 0.098104 0.450000 2.545086
v 0.098104 0.450000 0.125089
v 0.098104 0.000000 2.458525
v 0.098104 0.000000 0.038528
v 0.080102 1.799999 2.790434
v 0.080102 1.799999 0.399104
v 0.080102 1.349999 2.703873
v 0.080102 1.349999 0.312544
v 0.080102 0.900000 2.617313
v 0.080102 0.900000 0.225983
v 0.080102 0.450000 2.530752
v 0.080102 0.450000 0.139422
v 0.080102 0.000000 2.444192
v 0.080102 0.000000 0.052862
v 0.063460 1.799999 2.774067
v 0.063460 1.799999 0.415471
v 0.063460 1.349999 2.687506
v 0.063460 1.349999 0.328911
v 0.063460 0.900000 2.600945
v 0.063460 0.900000 0.242350
v 0.063460 0.450000 2.514385
v 0.063460 0.450000 0.155790
v 0.063460 0.000000 2.427824
v 0.063460 0.000000 0.069229
v 0.048457 1.799999 2.755912
v 0.048457 1.799999 0.433626
v 0.048457 1.349999 2.669351
v 0.048457 1.349999 0.347066
v 0.048457 0.900000 2.582791
v 0.048457 0.900000 0.260505
v 0.048457 0.450000 2.496230
v 0.048457 0.450000 0.173945
v 0.048457 0.000000 2.409670
v 0.048457 0.000000 0.087384
v 0.035318 1.799999 2.736273
v 0.035318 1.799999 0.453265
v 0.035318 1.349999 2.649712
v 0.035318 1.349999 0.366705
v 0.035318 0.900000 2.563152
v 0.035318 0.900000 0.280144
v 0.035318 0.450000 2.476591
v 0.035318 0.450000 0.193584
v 0.035318 0.000000 2.390031
v 0.035318 0.000000 0.107023
v 0.024205 1.799999 2.715493
v 0.024205 1.799999 0.474045
v 0.024205 1.349999 2.628932
v 0.024205 1.349999 0.387485
v 0.024205 0.900000 2.542372
v 0.024205 0.900000 0.300924
v 0.024205 0.450000 2.455811
v 0.024205 0.450000 0.214364
v 0.024205 0.000000 2.369251
v 0.024205 0.000000 0.127803
v 0.015213 1.799999 2.693936
v 0.015213 1.799999 0.495602
v 0.015213 1.349999 2.607376
v 0.015213 1.349999 0.409041
v 0.015213 0.900000 2.520815
v 0.015213 0.900000 0.322480
v 0.015213 0.450000 2.434255
v 0.015213 0.450000 0.235920
v 0.015213 0.000000 2.347694
v 0.015213 0.000000 0.149359
v 0.008364 1.799999 2.671970
v 0.008364 1.799999 0.517568
v 0.008364 1.349999 2.585409
v 0.008364 1.349999 0.431008
v 0.008364 0.900000 2.498849
v 0.008364 0.900000 0.344447
v 0.008364 0.450000 2.412288
v 0.008364 0.450000 0.257887
v 0.008364 0.000000 2.325727
v 0.008364 0.000000 0.171326
v 0.003617 1.799999 2.649942
v 0.003617 1.799999 0.539596
v 0.003617 1.349999 2.563381
v 0.003617 1.349999 0.453036
v 0.003617 0.900000 2.476821
v 0.003617 0.900000 0.366475
v 0.003617 0.450000 2.390260
v 0.003617 0.450000 0.279915
v 0.003617 0.000000 2.303700
v 0.003617 0.000000 0.193354
v 0.000876 1.799999 2.628170
v 0.000876 1.799999 0.561367
v 0.000876 1.349999 2.541610
v 0.000876 1.349999 0.474807
v 0.000876 0.900000 2.455050
v 0.000876 0.900000 0.388246
v 0.000876 0.450000 2.368489
v 0.000876 0.450000 0.301686
v 0.000876 0.000000 2.281929
v 0.000876 0.000000 0.215125
v 0.000000 1.799999 2.606932
v 0.000000 1.799999 0.582606
v 0.000000 1.349999 2.520372
v 0.000000 1.349999 0.496045
v 0.000000 0.900000 2.433811
v 0.000000 0.900000 0.409485
v 0.000000 0.450000 2.347251
v 0.000000 0.450000 0.322924
v 0.000000 0.000000 2.260690
v 0.000000 0.000000 0.236364

vn 0.708637 0.705305 0.019489
vn 0.830905 0.556297 -0.011423
vn 0.999780 -0.003966 0.020619
vn 0.999780 0.003966 -0.020620
vn 0.999780 -0.003966 0.020619
vn 0.999780 0.003966 -0.020620
vn 0.999780 -0.003966 0.020619
vn 0.999780 0.003966 -0.020620
vn 0.706035 -0.708110 0.009706
vn 0.833712 -0.551724 -0.022929
vn 0.834998 0.544192 0.081452
vn 0.824726 0.562634 -0.057186
vn 0.996411 -0.015990 0.083127
vn 0.996411 0.015990 -0.083127
vn 0.996411 -0.015990 0.083127
vn 0.996411 0.015990 -0.083127
vn 0.996411 -0.015990 0.083127
vn 0.996411 0.015990 -0.083127
vn 0.824726 -0.562634 0.057186
vn 0.834998 -0.544192 -0.081452
vn 0.830949 0.534615 0.153981
vn 0.810618 0.571856 -0.126010
vn 0.985287 -0.032284 0.167833
vn 0.985287 0.032284 -0.167834
vn 0.985287 -0.032284 0.167833
vn 0.985287 0.032284 -0.167834
vn 0.985287 -0.032284 0.167834
vn 0.985287 0.032284 -0.167834
vn 0.810618 -0.571856 0.126010
vn 0.830949 -0.534615 -0.153981
vn 0.819903 0.524760 0.228878
vn 0.790040 0.581155 -0.195182
vn 0.965948 -0.048874 0.254080
vn 0.965948 0.048874 -0.254080
vn 0.965948 -0.048874 0.254080
vn 0.965948 0.048874 -0.254080
vn 0.965948 -0.048874 0.254080
vn 0.965948 0.048874 -0.254080
vn 0.790040 -0.581155 0.195182
vn 0.819903 -0.524761 -0.228877
vn 0.682597 0.682897 0.260218
vn 0.646580 0.729285 -0.223779
vn 0.937795 -0.065582 0.340940
vn 0.937795 0.065582 -0.340940
vn 0.937795 -0.065582 0.340940
vn 0.937795 0.065582 -0.340940
vn 0.937795 -0.065582 0.340940
vn 0.937795 0.065582 -0.340940
vn 0.646580 -0.729285 0.223779
vn 0.682597 -0.682897 -0.260218
vn 0.773926 0.504649 0.382581
vn 0.728417 0.599573 -0.331544
vn 0.900362 -0.082196 0.427308
vn 0.900362 0.082196 -0.427308
vn 0.900362 -0.082196 0.427309
vn 0.900362 0.082196 -0.427308
vn 0.900362 -0.082196 0.427309
vn 0.900362 0.082196 -0.427308
vn 0.728417 -0.599573 0.331544
vn 0.773925 -0.504649 -0.382583
vn 0.737827 0.494672 0.459251
vn 0.687157 0.608452 -0.396991
vn 0.853380 -0.098468 0.511904
vn 0.853379 0.098469 -0.511906
vn 0.853380 -0.098468 0.511905
vn 0.853379 0.098469 -0.511906
vn 0.853379 -0.098469 0.511907
vn 0.853380 0.098469 -0.511906
vn 0.687156 -0.608452 0.396992
vn 0.737827 -0.494672 -0.459251
vn 0.591352 0.665060 0.456068
vn 0.540874 0.745852 -0.388793
vn 0.796797 -0.114139 0.593369
vn 0.796799 0.114138 -0.593367
vn 0.796799 -0.114138 0.593367
vn 0.796799 0.114138 -0.593367
vn 0.796799 -0.114138 0.593366
vn 0.796799 0.114138 -0.593367
vn 0.540874 -0.745852 0.388793
vn 0.591353 -0.665060 -0.456067
vn 0.637967 0.475733 0.605538
vn 0.584389 0.624892 -0.517686
vn 0.730880 -0.128921 0.670220
vn 0.730879 0.128921 -0.670220
vn 0.730879 -0.128921 0.670220
vn 0.730879 0.128921 -0.670220
vn 0.730880 -0.128921 0.670219
vn 0.730879 0.128921 -0.670220
vn 0.584390 -0.624892 0.517685
vn 0.637966 -0.475733 -0.605538
vn 0.491305 0.654491 0.574683
vn 0.442893 0.755445 -0.482855
vn 0.656220 -0.142534 0.740985
vn 0.656220 0.142534 -0.740986
vn 0.656219 -0.142534 0.740986
vn 0.656220 0.142534 -0.740986
vn 0.656219 -0.142534 0.740986
vn 0.656220 0.142534 -0.740986
vn 0.442893 -0.755445 0.482855
vn 0.491305 -0.654491 -0.574684
vn 0.430385 0.649936 0.626380
vn 0.387016 0.759548 -0.522786
vn 0.573754 -0.154709 0.804283
vn 0.573753 0.154709 -0.804284
vn 0.573754 -0.154709 0.804283
vn 0.573753 0.154709 -0.804284
vn 0.573753 -0.154709 0.804284
vn 0.573753 0.154709 -0.804284
vn 0.387016 -0.759548 0.522787
vn 0.430386 -0.649936 -0.626379
vn -0.444293 0.895536 -0.024874
vn -0.394258 0.918934 0.011023
vn -0.999088 0.008065 -0.041926
vn -0.999088 -0.008065 0.041926
vn -0.999088 0.008065 -0.041926
vn -0.999088 -0.008065 0.041926
vn -0.999088 0.008065 -0.041926
vn -0.999088 -0.008065 0.041926
vn -0.447706 -0.894093 -0.012518
vn -0.391491 -0.919921 0.021918
vn -0.494369 0.863469 -0.100107
vn -0.514035 0.854628 0.073341
vn -0.984931 0.032668 -0.169832
vn -0.984931 -0.032668 0.169832
vn -0.984932 0.032668 -0.169831
vn -0.984932 -0.032668 0.169831
vn -0.984932 0.032668 -0.169831
vn -0.984932 -0.032668 0.169831
vn -0.514035 -0.854628 -0.073341
vn -0.494369 -0.863469 0.100106
vn -0.535996 0.816385 -0.214996
vn -0.584323 0.788172 0.193265
vn -0.937182 0.065894 -0.342560
vn -0.937182 -0.065894 0.342560
vn -0.937183 0.065894 -0.342559
vn -0.937182 -0.065894 0.342560
vn -0.937182 0.065894 -0.342560
vn -0.937182 -0.065894 0.342560
vn -0.584323 -0.788172 -0.193266
vn -0.535996 -0.816385 0.214996
vn 0.363386 0.646002 0.671292
vn 0.327561 0.763089 -0.557134
vn 0.484765 -0.165215 0.858899
vn 0.484766 0.165215 -0.858898
vn 0.484764 -0.165215 0.858899
vn 0.484766 0.165215 -0.858898
vn 0.484766 -0.165215 0.858898
vn 0.484766 0.165215 -0.858898
vn 0.327562 -0.763089 0.557133
vn 0.363384 -0.646002 -0.671293
vn -0.560681 0.744269 -0.362904
vn -0.644320 0.675096 0.359301
vn -0.852729 0.098669 -0.512950
vn -0.852729 -0.098669 0.512950
vn -0.852729 0.098669 -0.512950
vn -0.852729 -0.098669 0.512950
vn -0.852730 0.098669 -0.512949
vn -0.852729 -0.098669 0.512949
vn -0.644321 -0.675096 -0.359301
vn -0.560682 -0.744269 0.362903
vn 0.340447 0.447265 0.827073
vn 0.314203 0.648896 -0.692972
vn 0.390818 -0.173871 0.903897
vn 0.390816 0.173871 -0.903898
vn 0.390818 -0.173871 0.903897
vn 0.390816 0.173871 -0.903898
vn 0.390815 -0.173871 0.903898
vn 0.390816 0.173871 -0.903898
vn 0.314200 -0.648896 0.692973
vn 0.340447 -0.447265 -0.827073
vn -0.468134 0.754239 -0.460405
vn -0.568039 0.663752 0.486585
vn -0.730508 0.128996 -0.670610
vn -0.730508 -0.128996 0.670610
vn -0.730508 0.128996 -0.670610
vn -0.730508 -0.128996 0.670610
vn -0.730508 0.128996 -0.670610
vn -0.730508 -0.128996 0.670610
vn -0.568040 -0.663752 -0.486584
vn -0.468134 -0.754240 0.460406
vn 0.216554 0.640272 0.736991
vn 0.201707 0.768294 -0.607486
vn 0.293655 -0.180566 0.938703
vn 0.293659 0.180566 -0.938701
vn 0.293658 -0.180566 0.938702
vn 0.293659 0.180566 -0.938702
vn 0.293662 -0.180566 0.938701
vn 0.293659 0.180566 -0.938701
vn 0.201709 -0.768294 0.607485
vn 0.216555 -0.640272 -0.736991
vn -0.303724 0.834982 -0.458864
vn -0.389516 0.768960 0.506929
vn -0.574003 0.154676 -0.804112
vn -0.574004 -0.154676 0.804111
vn -0.574003 0.154676 -0.804112
vn -0.574004 -0.154676 0.804111
vn -0.574003 0.154676 -0.804112
vn -0.574003 -0.154676 0.804111
vn -0.389516 -0.768961 -0.506929
vn -0.303724 -0.834982 0.458864
vn -0.233968 0.768182 -0.595949
vn -0.328253 0.645960 0.689192
vn -0.391930 0.173782 -0.903433
vn -0.391930 -0.173781 0.903433
vn -0.391928 0.173782 -0.903434
vn -0.391930 -0.173781 0.903433
vn -0.391928 0.173782 -0.903434
vn -0.391930 -0.173781 0.903433
vn -0.328251 -0.645960 -0.689193
vn -0.233969 -0.768182 0.595949
vn 0.139912 0.638545 0.756760
vn 0.137361 0.769914 -0.623189
vn 0.195120 -0.185263 0.963123
vn 0.195118 0.185263 -0.963123
vn 0.195118 -0.185263 0.963123
vn 0.195119 0.185263 -0.963123
vn 0.195118 -0.185263 0.963123
vn 0.195119 0.185263 -0.963123
vn 0.137361 -0.769914 0.623188
vn 0.139911 -0.638545 -0.756760
vn -0.106275 0.771357 -0.627467
vn -0.179521 0.640889 0.746347
vn -0.197085 0.185189 -0.962737
vn -0.197083 -0.185189 0.962738
vn -0.197085 0.185189 -0.962737
vn -0.197083 -0.185189 0.962738
vn -0.197081 0.185189 -0.962738
vn -0.197083 -0.185189 0.962737
vn -0.179520 -0.640889 -0.746347
vn -0.106273 -0.771357 0.627467
vn 0.063314 0.637569 0.767787
vn 0.073417 0.770891 -0.632722
vn 0.096977 -0.188004 0.977369
vn 0.096978 0.188004 -0.977369
vn 0.096979 -0.188003 0.977369
vn 0.096978 0.188004 -0.977369
vn 0.096979 -0.188003 0.977369
vn 0.096978 0.188004 -0.977369
vn 0.073419 -0.770890 0.632722
vn 0.063317 -0.637569 -0.767787
vn 0.018912 0.636988 0.770642
vn -0.018009 0.840527 -0.541470
vn -0.051214 0.637486 0.768758
vn 0.017732 0.691125 -0.722518
vn 0.024091 -0.188839 0.981713
vn -0.048970 0.188667 -0.980819
vn -0.048967 -0.188667 0.980820
vn 0.024092 0.188839 -0.981712
vn 0.024091 -0.188839 0.981713
vn -0.048970 0.188667 -0.980819
vn -0.048967 -0.188667 0.980820
vn 0.024092 0.188839 -0.981712
vn 0.024091 -0.188839 0.981713
vn -0.048966 0.188667 -0.980820
vn -0.048967 -0.188667 0.980820
vn 0.024093 0.188839 -0.981712
vn 0.020083 -0.574345 0.818367
vn -0.043246 -0.759400 -0.649185
vn -0.021157 -0.771252 0.636178
vn 0.014704 -0.800495 -0.599160
vn -0.012608 0.636961 0.770793
vn 0.025049 0.864683 -0.501694
vn 0.038417 0.637479 0.769509
vn -0.024662 0.656925 -0.753552
vn -0.024091 -0.188839 0.981713
vn 0.048970 0.188667 -0.980819
vn 0.048967 -0.188667 0.980820
vn -0.024092 0.188839 -0.981712
vn -0.024091 -0.188839 0.981713
vn 0.048970 0.188667 -0.980819
vn 0.048967 -0.188667 0.980820
vn -0.024092 0.188839 -0.981712
vn -0.024091 -0.188839 0.981713
vn 0.048966 0.188667 -0.980819
vn 0.048967 -0.188667 0.980820
vn -0.024093 0.188839 -0.981712
vn -0.020829 -0.771040 0.636446
vn 0.043270 -0.496850 -0.866757
vn 0.020394 -0.912535 0.408491
vn -0.014706 -0.437642 -0.899029
vn -0.063314 0.637569 0.767787
vn -0.073417 0.770891 -0.632722
vn -0.096977 -0.188004 0.977369
vn -0.096978 0.188004 -0.977369
vn -0.096979 -0.188003 0.977369
vn -0.096978 0.188004 -0.977369
vn -0.096979 -0.188003 0.977369
vn -0.096978 0.188004 -0.977369
vn -0.073419 -0.770890 0.632722
vn -0.063317 -0.637569 -0.767787
vn 0.106275 0.771357 -0.627467
vn 0.179521 0.640889 0.746347
vn 0.197085 0.185189 -0.962737
vn 0.197083 -0.185189 0.962738
vn 0.197085 0.185189 -0.962737
vn 0.197083 -0.185189 0.962737
vn 0.197081 0.185189 -0.962738
vn 0.197083 -0.185189 0.962737
vn 0.179520 -0.640889 -0.746347
vn 0.106273 -0.771357 0.627467
vn -0.139912 0.638545 0.756760
vn -0.137361 0.769914 -0.623189
vn -0.195120 -0.185263 0.963123
vn -0.195118 0.185263 -0.963123
vn -0.195118 -0.185263 0.963123
vn -0.195119 0.185263 -0.963123
vn -0.195118 -0.185263 0.963123
vn -0.195118 0.185263 -0.963123
vn -0.137361 -0.769914 0.623188
vn -0.139911 -0.638545 -0.756760
vn 0.233968 0.768182 -0.595949
vn 0.328253 0.645960 0.689192
vn 0.391930 0.173782 -0.903433
vn 0.391930 -0.173781 0.903433
vn 0.391928 0.173782 -0.903434
vn 0.391930 -0.173781 0.903433
vn 0.391928 0.173782 -0.903434
vn 0.391930 -0.173781 0.903433
vn 0.328251 -0.645960 -0.689193
vn 0.233969 -0.768182 0.595949
vn 0.303726 0.834982 -0.458863
vn 0.389520 0.768961 0.506925
vn 0.574009 0.154676 -0.804108
vn 0.574009 -0.154676 0.804107
vn 0.574009 0.154676 -0.804108
vn 0.574009 -0.154676 0.804108
vn 0.574009 0.154676 -0.804108
vn 0.574009 -0.154676 0.804108
vn 0.389521 -0.768961 -0.506925
vn 0.303726 -0.834982 0.458863
vn -0.216554 0.640272 0.736991
vn -0.201707 0.768294 -0.607486
vn -0.293655 -0.180566 0.938703
vn -0.293659 0.180566 -0.938701
vn -0.293658 -0.180566 0.938702
vn -0.293659 0.180566 -0.938702
vn -0.293662 -0.180566 0.938701
vn -0.293659 0.180566 -0.938701
vn -0.201709 -0.768294 0.607485
vn -0.216555 -0.640272 -0.736991
vn 0.468137 0.754239 -0.460404
vn 0.568037 0.663751 0.486589
vn 0.730507 0.128997 -0.670611
vn 0.730507 -0.128997 0.670611
vn 0.730507 0.128997 -0.670611
vn 0.730507 -0.128997 0.670611
vn 0.730507 0.128997 -0.670611
vn 0.730507 -0.128997 0.670611
vn 0.568037 -0.663751 -0.486588
vn 0.468136 -0.754239 0.460404
vn -0.340450 0.447266 0.827072
vn -0.314207 0.648896 -0.692970
vn -0.390823 -0.173871 0.903895
vn -0.390820 0.173871 -0.903896
vn -0.390823 -0.173870 0.903895
vn -0.390820 0.173871 -0.903896
vn -0.390820 -0.173871 0.903897
vn -0.390820 0.173871 -0.903896
vn -0.314204 -0.648896 0.692971
vn -0.340450 -0.447266 -0.827072
vn 0.560677 0.744270 -0.362910
vn 0.644318 0.675096 0.359304
vn 0.852725 0.098671 -0.512957
vn 0.852725 -0.098671 0.512956
vn 0.852725 0.098671 -0.512957
vn 0.852725 -0.098671 0.512956
vn 0.852725 0.098671 -0.512956
vn 0.852725 -0.098671 0.512956
vn 0.644319 -0.675095 -0.359304
vn 0.560677 -0.744270 0.362909
vn -0.363387 0.646002 0.671291
vn -0.327559 0.763089 -0.557135
vn -0.484764 -0.165215 0.858899
vn -0.484765 0.165215 -0.858899
vn -0.484764 -0.165215 0.858899
vn -0.484765 0.165215 -0.858899
vn -0.484765 -0.165215 0.858899
vn -0.484765 0.165215 -0.858899
vn -0.327560 -0.763089 0.557135
vn -0.363386 -0.646002 -0.671292
vn 0.535997 0.816385 -0.214992
vn 0.584325 0.788173 0.193257
vn 0.937186 0.065892 -0.342551
vn 0.937186 -0.065892 0.342550
vn 0.937186 0.065892 -0.342550
vn 0.937186 -0.065892 0.342551
vn 0.937186 0.065892 -0.342550
vn 0.937186 -0.065892 0.342551
vn 0.584324 -0.788173 -0.193257
vn 0.535997 -0.816385 0.214993
vn 0.494370 0.863468 -0.100104
vn 0.514036 0.854627 0.073345
vn 0.984931 0.032668 -0.169833
vn 0.984931 -0.032668 0.169832
vn 0.984931 0.032668 -0.169832
vn 0.984931 -0.032668 0.169832
vn 0.984931 0.032668 -0.169832
vn 0.984931 -0.032668 0.169832
vn 0.514036 -0.854627 -0.073345
vn 0.494370 -0.863468 0.100103
vn 0.391490 0.919921 -0.021924
vn 0.447706 0.894093 0.012521
vn 0.999088 0.008067 -0.041937
vn 0.999088 -0.008067 0.041937
vn 0.999088 0.008067 -0.041937
vn 0.999088 -0.008067 0.041937
vn 0.999088 0.008067 -0.041937
vn 0.999088 -0.008067 0.041937
vn 0.394258 -0.918934 -0.011026
vn 0.444292 -0.895536 0.024881
vn -0.430383 0.649936 0.626381
vn -0.387019 0.759548 -0.522784
vn -0.573755 -0.154709 0.804283
vn -0.573754 0.154709 -0.804283
vn -0.573755 -0.154709 0.804282
vn -0.573754 0.154709 -0.804283
vn -0.573754 -0.154709 0.804283
vn -0.573754 0.154709 -0.804283
vn -0.387018 -0.759548 0.522785
vn -0.430384 -0.649936 -0.626381
vn -0.491308 0.654491 0.574682
vn -0.442890 0.755445 -0.482857
vn -0.656219 -0.142534 0.740986
vn -0.656219 0.142534 -0.740986
vn -0.656218 -0.142534 0.740987
vn -0.656219 0.142534 -0.740986
vn -0.656218 -0.142534 0.740987
vn -0.656219 0.142534 -0.740986
vn -0.442890 -0.755445 0.482857
vn -0.491307 -0.654491 -0.574682
vn -0.637964 0.475733 0.605541
vn -0.584392 0.624892 -0.517683
vn -0.730880 -0.128921 0.670219
vn -0.730880 0.128921 -0.670219
vn -0.730879 -0.128921 0.670220
vn -0.730880 0.128921 -0.670220
vn -0.730881 -0.128921 0.670218
vn -0.730880 0.128921 -0.670220
vn -0.584393 -0.624892 0.517682
vn -0.637964 -0.475733 -0.605541
vn -0.591354 0.665060 0.456065
vn -0.540872 0.745852 -0.388796
vn -0.796797 -0.114139 0.593370
vn -0.796798 0.114138 -0.593368
vn -0.796798 -0.114138 0.593367
vn -0.796798 0.114138 -0.593368
vn -0.796799 -0.114138 0.593366
vn -0.796798 0.114138 -0.593368
vn -0.540872 -0.745852 0.388796
vn -0.591355 -0.665060 -0.456065
vn -0.737822 0.494671 0.459259
vn -0.687154 0.608452 -0.396995
vn -0.853376 -0.098470 0.511911
vn -0.853375 0.098470 -0.511913
vn -0.853376 -0.098470 0.511912
vn -0.853375 0.098470 -0.511913
vn -0.853374 -0.098470 0.511914
vn -0.853375 0.098470 -0.511913
vn -0.687153 -0.608453 0.396996
vn -0.737822 -0.494671 -0.459259
vn -0.773926 0.504649 0.382581
vn -0.728417 0.599573 -0.331544
vn -0.900362 -0.082196 0.427308
vn -0.900362 0.082196 -0.427308
vn -0.900362 -0.082196 0.427309
vn -0.900362 0.082196 -0.427308
vn -0.900362 -0.082196 0.427309
vn -0.900362 0.082196 -0.427308
vn -0.728417 -0.599573 0.331544
vn -0.773925 -0.504649 -0.382583
vn -0.682597 0.682897 0.260218
vn -0.646580 0.729285 -0.223779
vn -0.937795 -0.065582 0.340940
vn -0.937795 0.065582 -0.340940
vn -0.937795 -0.065582 0.340940
vn -0.937795 0.065582 -0.340940
vn -0.937795 -0.065582 0.340940
vn -0.937795 0.065582 -0.340940
vn -0.646580 -0.729285 0.223779
vn -0.682597 -0.682897 -0.260218
vn -0.819903 0.524760 0.228878
vn -0.790040 0.581155 -0.195182
vn -0.965948 -0.048874 0.254080
vn -0.965948 0.048874 -0.254080
vn -0.965948 -0.048874 0.254080
vn -0.965948 0.048874 -0.254080
vn -0.965948 -0.048874 0.254080
vn -0.965948 0.048874 -0.254080
vn -0.790040 -0.581155 0.195182
vn -0.819903 -0.524761 -0.228877
vn -0.830949 0.534615 0.153981
vn -0.810618 0.571856 -0.126010
vn -0.985287 -0.032284 0.167833
vn -0.985287 0.032284 -0.167834
vn -0.985287 -0.032284 0.167833
vn -0.985287 0.032284 -0.167834
vn -0.985287 -0.032284 0.167834
vn -0.985287 0.032284 -0.167834
vn -0.810618 -0.571856 0.126010
vn -0.830949 -0.534615 -0.153981
vn -0.834998 0.544192 0.081452
vn -0.824726 0.562634 -0.057186
vn -0.996411 -0.015990 0.083127
vn -0.996411 0.015990 -0.083127
vn -0.996411 -0.015990 0.083127
vn -0.996411 0.015990 -0.083127
vn -0.996411 -0.015990 0.083127
vn -0.996411 0.015990 -0.083127
vn -0.824726 -0.562634 0.057186
vn -0.834998 -0.544192 -0.081452
vn -0.833712 0.551724 0.022929
vn -0.706035 0.708110 -0.009706
vn -0.999780 -0.003966 0.020619
vn -0.999780 0.003966 -0.020620
vn -0.999780 -0.003966 0.020619
vn -0.999780 0.003966 -0.020620
vn -0.999780 -0.003966 0.020619
vn -0.999780 0.003966 -0.020620
vn -0.830905 -0.556297 0.011423
vn -0.708637 -0.705305 -0.019489

f 512//512 514//514 513//513
f 515//515 513//513 514//514
f 518//518 520//520 519//519
f 517//517 515//515 516//516
f 495//495 505//505 497//497
f 493//493 503//503 495//495
f 485//485 495//495 487//487
f 483//483 493//493 485//485
f 475//475 485//485 477//477
f 473//473 483//483 475//475
f 465//465 475//475 467//467
f 463//463 473//473 465//465
f 455//455 465//465 457//457
f 453//453 463//463 455//455
f 445//445 455//455 447//447
f 443//443 453//453 445//445
f 435//435 445//445 437//437
f 433//433 443//443 435//435
f 425//425 435//435 427//427
f 423//423 433//433 425//425
f 415//415 425//425 417//417
f 413//413 423//423 415//415
f 375//375 415//415 377//377
f 373//373 413//413 375//375
f 355//355 375//375 357//357
f 353//353 373//373 355//355
f 335//335 355//355 337//337
f 333//333 353//353 335//335
f 305//305 335//335 307//307
f 303//303 333//333 305//305
f 285//285 305//305 287//287
f 283//283 303//303 285//285
f 509//509 507//507 517//517
f 489//489 487//487 497//497
f 499//499 497//497 507//507
f 507//507 505//505 515//515
f 479//479 477//477 487//487
f 459//459 457//457 467//467
f 439//439 437//437 447//447
f 449//449 447//447 457//457
f 469//469 467//467 477//477
f 437//437 439//439 429//429
f 513//513 515//515 505//505
f 503//503 501//501 511//511
f 491//491 493//493 483//483
f 493//493 491//491 501//501
f 463//463 461//461 471//471
f 443//443 441//441 451//451
f 453//453 451//451 461//461
f 473//473 471//471 481//481
f 441//441 443//443 433//433
f 419//419 417//417 427//427
f 359//359 357//357 377//377
f 379//379 377//377 417//417
f 339//339 337//337 357//357
f 309//309 307//307 337//337
f 289//289 287//287 307//307
f 277//277 273//273 287//287
f 273//273 269//269 285//285
f 269//269 265//265 283//283
f 423//423 421//421 431//431
f 373//373 371//371 411//411
f 413//413 411//411 421//421
f 353//353 351//351 371//371
f 303//303 301//301 331//331
f 265//265 261//261 281//281
f 283//283 281//281 301//301
f 333//333 331//331 351//351
f 273//273 277//277 257//257
f 265//265 269//269 249//249
f 261//261 265//265 245//245
f 269//269 273//273 253//253
f 215//215 235//235 237//237
f 213//213 233//233 235//235
f 185//185 215//215 217//217
f 183//183 213//213 215//215
f 165//165 185//185 187//187
f 163//163 183//183 185//185
f 145//145 165//165 167//167
f 143//143 163//163 165//165
f 105//105 145//145 147//147
f 103//103 143//143 145//145
f 95//95 105//105 107//107
f 93//93 103//103 105//105
f 85//85 95//95 97//97
f 83//83 93//93 95//95
f 75//75 85//85 87//87
f 73//73 83//83 85//85
f 65//65 75//75 77//77
f 63//63 73//73 75//75
f 55//55 65//65 67//67
f 53//53 63//63 65//65
f 45//45 55//55 57//57
f 43//43 53//53 55//55
f 35//35 45//45 47//47
f 33//33 43//43 45//45
f 25//25 35//35 37//37
f 23//23 33//33 35//35
f 15//15 25//25 27//27
f 13//13 23//23 25//25
f 239//239 237//237 257//257
f 189//189 187//187 219//219
f 219//219 217//217 239//239
f 237//237 235//235 253//253
f 169//169 167//167 189//189
f 109//109 107//107 149//149
f 89//89 87//87 99//99
f 99//99 97//97 109//109
f 149//149 147//147 169//169
f 87//87 89//89 77//77
f 245//245 249//249 233//233
f 233//233 231//231 245//245
f 211//211 213//213 181//181
f 213//213 211//211 233//233
f 143//143 141//141 163//163
f 93//93 91//91 103//103
f 103//103 101//101 143//143
f 163//163 161//161 183//183
f 91//91 93//93 81//81
f 69//69 67//67 79//79
f 49//49 47//47 59//59
f 59//59 57//57 69//69
f 39//39 37//37 49//49
f 29//29 27//27 39//39
f 19//19 17//17 29//29
f 9//9 7//7 19//19
f 7//7 5//5 17//17
f 5//5 3//3 15//15
f 73//73 71//71 83//83
f 53//53 51//51 63//63
f 63//63 61//61 73//73
f 43//43 41//41 53//53
f 23//23 21//21 33//33
f 3//3 1//1 13//13
f 13//13 11//11 23//23
f 33//33 31//31 43//43
f 1//1 3//3 2//2
f 3//3 5//5 4//4
f 7//7 9//9 8//8
f 8//8 6//6 7//7
f 26//26 16//16 18//18
f 24//24 14//14 16//16
f 36//36 26//26 28//28
f 34//34 24//24 26//26
f 46//46 36//36 38//38
f 44//44 34//34 36//36
f 56//56 46//46 48//48
f 54//54 44//44 46//46
f 66//66 56//56 58//58
f 64//64 54//54 56//56
f 76//76 66//66 68//68
f 74//74 64//64 66//66
f 86//86 76//76 78//78
f 84//84 74//74 76//76
f 96//96 86//86 88//88
f 94//94 84//84 86//86
f 106//106 96//96 98//98
f 104//104 94//94 96//96
f 146//146 106//106 108//108
f 144//144 104//104 106//106
f 166//166 146//146 148//148
f 164//164 144//144 146//146
f 186//186 166//166 168//168
f 184//184 164//164 166//166
f 216//216 186//186 188//188
f 214//214 184//184 186//186
f 236//236 216//216 218//218
f 234//234 214//214 216//216
f 20//20 18//18 10//10
f 40//40 38//38 30//30
f 30//30 28//28 20//20
f 18//18 16//16 8//8
f 50//50 48//48 40//40
f 70//70 68//68 60//60
f 90//90 88//88 80//80
f 80//80 78//78 70//70
f 60//60 58//58 50//50
f 88//88 90//90 98//98
f 4//4 6//6 14//14
f 14//14 12//12 4//4
f 22//22 24//24 32//32
f 24//24 22//22 14//14
f 54//54 52//52 44//44
f 74//74 72//72 64//64
f 64//64 62//62 54//54
f 44//44 42//42 34//34
f 72//72 74//74 82//82
f 110//110 108//108 100//100
f 170//170 168//168 150//150
f 150//150 148//148 110//110
f 190//190 188//188 170//170
f 220//220 218//218 190//190
f 240//240 238//238 220//220
f 260//260 256//256 240//240
f 256//256 252//252 238//238
f 252//252 248//248 236//236
f 94//94 92//92 84//84
f 144//144 142//142 104//104
f 104//104 102//102 94//94
f 164//164 162//162 144//144
f 214//214 212//212 184//184
f 248//248 244//244 234//234
f 234//234 232//232 214//214
f 184//184 182//182 164//164
f 256//256 260//260 280//280
f 248//248 252//252 272//272
f 244//244 248//248 268//268
f 252//252 256//256 276//276
f 306//306 286//286 308//308
f 304//304 284//284 306//306
f 336//336 306//306 338//338
f 334//334 304//304 336//336
f 356//356 336//336 358//358
f 354//354 334//334 356//356
f 376//376 356//356 378//378
f 374//374 354//354 376//376
f 416//416 376//376 418//418
f 414//414 374//374 416//416
f 426//426 416//416 428//428
f 424//424 414//414 426//426
f 436//436 426//426 438//438
f 434//434 424//424 436//436
f 446//446 436//436 448//448
f 444//444 434//434 446//446
f 456//456 446//446 458//458
f 454//454 444//444 456//456
f 466//466 456//456 468//468
f 464//464 454//454 466//466
f 476//476 466//466 478//478
f 474//474 464//464 476//476
f 486//486 476//476 488//488
f 484//484 474//474 486//486
f 496//496 486//486 498//498
f 494//494 484//484 496//496
f 506//506 496//496 508//508
f 504//504 494//494 506//506
f 290//290 288//288 276//276
f 340//340 338//338 308//308
f 310//310 308//308 288//288
f 288//288 286//286 272//272
f 360//360 358//358 338//338
f 420//420 418//418 378//378
f 440//440 438//438 428//428
f 430//430 428//428 418//418
f 380//380 378//378 358//358
f 438//438 440//440 450//450
f 268//268 272//272 286//286
f 284//284 282//282 264//264
f 302//302 304//304 334//334
f 304//304 302//302 282//282
f 374//374 372//372 352//352
f 424//424 422//422 412//412
f 414//414 412//412 372//372
f 354//354 352//352 332//332
f 422//422 424//424 434//434
f 460//460 458//458 448//448
f 480//480 478//478 468//468
f 470//470 468//468 458//458
f 490//490 488//488 478//478
f 500//500 498//498 488//488
f 510//510 508//508 498//498
f 520//520 518//518 508//508
f 518//518 516//516 506//506
f 516//516 514//514 504//504
f 444//444 442//442 432//432
f 464//464 462//462 452//452
f 454//454 452//452 442//442
f 474//474 472//472 462//462
f 494//494 492//492 482//482
f 514//514 512//512 502//502
f 504//504 502//502 492//492
f 484//484 482//482 472//472
f 386//386 396//396 398//398
f 384//384 394//394 396//396
f 366//366 386//386 388//388
f 364//364 384//384 386//386
f 346//346 366//366 368//368
f 344//344 364//364 366//366
f 326//326 346//346 348//348
f 324//324 344//344 346//346
f 316//316 326//326 328//328
f 314//314 324//324 326//326
f 296//296 316//316 318//318
f 294//294 314//314 316//316
f 400//400 398//398 410//410
f 398//398 400//400 388//388
f 398//398 396//396 408//408
f 350//350 348//348 370//370
f 370//370 368//368 390//390
f 348//348 350//350 328//328
f 396//396 394//394 406//406
f 402//402 404//404 392//392
f 364//364 362//362 384//384
f 384//384 382//382 394//394
f 362//362 364//364 342//342
f 320//320 318//318 330//330
f 318//318 320//320 298//298
f 279//279 275//275 300//300
f 275//275 271//271 298//298
f 271//271 267//267 296//296
f 324//324 322//322 344//344
f 322//322 324//324 312//312
f 267//267 263//263 294//294
f 294//294 292//292 314//314
f 275//275 279//279 259//259
f 267//267 271//271 251//251
f 263//263 267//267 247//247
f 271//271 275//275 255//255
f 206//206 226//226 208//208
f 204//204 224//224 206//206
f 196//196 206//206 198//198
f 194//194 204//204 196//196
f 176//176 196//196 178//178
f 174//174 194//194 176//176
f 156//156 176//176 158//158
f 154//154 174//174 156//156
f 136//136 156//156 138//138
f 134//134 154//154 136//136
f 126//126 136//136 128//128
f 124//124 134//134 126//126
f 230//230 228//228 255//255
f 228//228 230//230 210//210
f 228//228 226//226 251//251
f 180//180 178//178 198//198
f 200//200 198//198 208//208
f 178//178 180//180 160//160
f 226//226 224//224 247//247
f 243//243 247//247 224//224
f 194//194 192//192 202//202
f 204//204 202//202 222//222
f 192//192 194//194 174//174
f 140//140 138//138 158//158
f 138//138 140//140 130//130
f 120//120 118//118 128//128
f 118//118 116//116 126//126
f 116//116 114//114 124//124
f 154//154 152//152 172//172
f 152//152 154//154 134//134
f 114//114 112//112 122//122
f 124//124 122//122 132//132
f 113//113 111//111 112//112
f 117//117 115//115 116//116
f 119//119 117//117 118//118
f 115//115 113//113 114//114
f 135//135 125//125 137//137
f 133//133 123//123 135//135
f 155//155 135//135 157//157
f 153//153 133//133 155//155
f 175//175 155//155 177//177
f 173//173 153//153 175//175
f 195//195 175//175 197//197
f 193//193 173//173 195//195
f 205//205 195//195 207//207
f 203//203 193//193 205//205
f 225//225 205//205 227//227
f 223//223 203//203 225//225
f 129//129 127//127 117//117
f 127//127 129//129 139//139
f 127//127 125//125 115//115
f 179//179 177//177 157//157
f 159//159 157//157 137//137
f 177//177 179//179 199//199
f 125//125 123//123 113//113
f 111//111 113//113 123//123
f 153//153 151//151 131//131
f 133//133 131//131 121//121
f 151//151 153//153 173//173
f 209//209 207//207 197//197
f 207//207 209//209 229//229
f 258//258 254//254 227//227
f 254//254 250//250 225//225
f 250//250 246//246 223//223
f 193//193 191//191 171//171
f 191//191 193//193 203//203
f 246//246 242//242 221//221
f 223//223 221//221 201//201
f 254//254 258//258 278//278
f 246//246 250//250 270//270
f 242//242 246//246 266//266
f 250//250 254//254 274//274
f 315//315 295//295 297//297
f 313//313 293//293 295//295
f 325//325 315//315 317//317
f 323//323 313//313 315//315
f 345//345 325//325 327//327
f 343//343 323//323 325//325
f 365//365 345//345 347//347
f 363//363 343//343 345//345
f 385//385 365//365 367//367
f 383//383 363//363 365//365
f 395//395 385//385 387//387
f 393//393 383//383 385//385
f 299//299 297//297 278//278
f 297//297 299//299 317//317
f 297//297 295//295 274//274
f 349//349 347//347 329//329
f 329//329 327//327 319//319
f 347//347 349//349 367//367
f 295//295 293//293 270//270
f 262//262 266//266 291//291
f 323//323 321//321 313//313
f 313//313 311//311 293//293
f 321//321 323//323 341//341
f 389//389 387//387 369//369
f 387//387 389//389 397//397
f 409//409 407//407 399//399
f 407//407 405//405 397//397
f 405//405 403//403 395//395
f 363//363 361//361 343//343
f 361//361 363//363 381//381
f 403//403 401//401 393//393
f 393//393 391//391 383//383
f 401//401 403//403 402//402
f 403//403 405//405 404//404
f 407//407 409//409 408//408
f 408//408 406//406 407//407
f 70//70 60//60 130//130
f 70//70 130//130 80//80
f 80//80 140//140 90//90
f 140//140 80//80 130//130
f 90//90 140//140 100//100
f 20//20 10//10 120//120
f 30//30 20//20 120//120
f 120//120 50//50 40//40
f 50//50 120//120 130//130
f 130//130 60//60 50//50
f 30//30 120//120 40//40
f 120//120 10//10 9//9
f 160//160 110//110 100//100
f 170//170 150//150 200//200
f 170//170 200//200 190//190
f 240//240 220//220 230//230
f 210//210 220//220 190//190
f 260//260 240//240 259//259
f 160//160 100//100 140//140
f 180//180 110//110 160//160
f 240//240 230//230 259//259
f 190//190 200//200 210//210
f 220//220 210//210 230//230
f 200//200 150//150 180//180
f 260//260 259//259 279//279
f 180//180 150//150 110//110
f 29//29 119//119 19//19
f 9//9 19//19 119//119
f 119//119 39//39 49//49
f 29//29 39//39 119//119
f 129//129 119//119 49//49
f 49//49 59//59 129//129
f 59//59 69//69 129//129
f 69//69 79//79 129//129
f 89//89 139//139 79//79
f 89//89 99//99 139//139
f 109//109 159//159 99//99
f 79//79 139//139 129//129
f 109//109 149//149 179//179
f 159//159 109//109 179//179
f 219//219 229//229 209//209
f 189//189 209//209 199//199
f 149//149 199//199 179//179
f 169//169 189//189 199//199
f 199//199 149//149 169//169
f 219//219 239//239 229//229
f 209//209 189//189 219//219
f 258//258 239//239 257//257
f 258//258 257//257 277//277
f 239//239 258//258 229//229
f 139//139 99//99 159//159
f 280//280 279//279 290//290
f 290//290 300//300 310//310
f 360//360 340//340 330//330
f 320//320 340//340 310//310
f 380//380 360//360 330//330
f 290//290 279//279 300//300
f 310//310 300//300 320//320
f 380//380 330//330 350//350
f 370//370 390//390 430//430
f 420//420 350//350 370//370
f 330//330 340//340 320//320
f 380//380 350//350 420//420
f 440//440 430//430 390//390
f 450//450 440//440 390//390
f 460//460 450//450 400//400
f 390//390 400//400 450//450
f 470//470 460//460 400//400
f 410//410 480//480 400//400
f 470//470 400//400 480//480
f 490//490 480//480 410//410
f 500//500 410//410 510//510
f 510//510 410//410 520//520
f 490//490 410//410 500//500
f 409//409 519//519 520//520
f 420//420 370//370 430//430
f 339//339 329//329 319//319
f 309//309 319//319 299//299
f 369//369 349//349 419//419
f 419//419 349//349 379//379
f 379//379 349//349 329//329
f 277//277 289//289 278//278
f 289//289 299//299 278//278
f 339//339 319//319 309//309
f 289//289 309//309 299//299
f 329//329 339//339 359//359
f 359//359 379//379 329//329
f 429//429 389//389 369//369
f 409//409 399//399 479//479
f 499//499 409//409 489//489
f 489//489 409//409 479//479
f 499//499 509//509 409//409
f 519//519 409//409 509//509
f 389//389 429//429 439//439
f 429//429 369//369 419//419
f 399//399 459//459 469//469
f 459//459 399//399 449//449
f 449//449 389//389 439//439
f 399//399 469//469 479//479
f 389//389 449//449 399//399
f 62//62 122//122 52//52
f 62//62 72//72 122//122
f 72//72 82//82 132//132
f 132//132 122//122 72//72
f 82//82 92//92 132//132
f 12//12 112//112 2//2
f 22//22 112//112 12//12
f 112//112 32//32 42//42
f 42//42 122//122 112//112
f 122//122 42//42 52//52
f 22//22 32//32 112//112
f 112//112 111//111 1//1
f 152//152 92//92 102//102
f 162//162 192//192 142//142
f 162//162 182//182 192//192
f 232//232 222//222 212//212
f 202//202 182//182 212//212
f 244//244 243//243 232//232
f 152//152 132//132 92//92
f 172//172 152//152 102//102
f 232//232 243//243 222//222
f 182//182 202//202 192//192
f 212//212 222//222 202//202
f 192//192 172//172 142//142
f 244//244 264//264 263//263
f 172//172 102//102 142//142
f 21//21 11//11 111//111
f 1//1 111//111 11//11
f 111//111 41//41 31//31
f 21//21 111//111 31//31
f 121//121 41//41 111//111
f 41//41 121//121 51//51
f 51//51 121//121 61//61
f 61//61 121//121 71//71
f 81//81 71//71 131//131
f 81//81 131//131 91//91
f 101//101 91//91 151//151
f 71//71 121//121 131//131
f 101//101 171//171 141//141
f 151//151 171//171 101//101
f 211//211 201//201 221//221
f 181//181 191//191 201//201
f 141//141 171//171 191//191
f 161//161 191//191 181//181
f 191//191 161//161 141//141
f 211//211 221//221 231//231
f 201//201 211//211 181//181
f 242//242 241//241 231//231
f 242//242 262//262 261//261
f 231//231 221//221 242//242
f 131//131 151//151 91//91
f 264//264 282//282 263//263
f 282//282 302//302 292//292
f 352//352 322//322 332//332
f 312//312 302//302 332//332
f 372//372 322//322 352//352
f 282//282 292//292 263//263
f 302//302 312//312 292//292
f 372//372 342//342 322//322
f 362//362 422//422 382//382
f 412//412 362//362 342//342
f 322//322 312//312 332//332
f 372//372 412//412 342//342
f 432//432 382//382 422//422
f 442//442 382//382 432//432
f 452//452 392//392 442//442
f 382//382 442//442 392//392
f 462//462 392//392 452//452
f 402//402 392//392 472//472
f 462//462 472//472 392//392
f 482//482 402//402 472//472
f 492//492 502//502 402//402
f 502//502 512//512 402//402
f 482//482 492//492 402//402
f 401//401 402//402 512//512
f 412//412 422//422 362//362
f 331//331 311//311 321//321
f 301//301 291//291 311//311
f 361//361 411//411 341//341
f 411//411 371//371 341//341
f 371//371 321//321 341//341
f 261//261 262//262 281//281
f 281//281 262//262 291//291
f 331//331 301//301 311//311
f 281//281 291//291 301//301
f 321//321 351//351 331//331
f 351//351 321//321 371//371
f 421//421 361//361 381//381
f 401//401 471//471 391//391
f 491//491 481//481 401//401
f 481//481 471//471 401//401
f 491//491 401//401 501//501
f 511//511 501//501 401//401
f 381//381 431//431 421//421
f 421//421 411//411 361//361
f 391//391 461//461 451//451
f 451//451 441//441 391//391
f 441//441 431//431 381//381
f 391//391 471//471 461//461
f 381//381 391//391 441//441
f 512//512 513//513 511//511
f 515//515 514//514 516//516
f 518//518 519//519 517//517
f 517//517 516//516 518//518
f 505//505 507//507 497//497
f 503//503 505//505 495//495
f 495//495 497//497 487//487
f 493//493 495//495 485//485
f 485//485 487//487 477//477
f 483//483 485//485 475//475
f 475//475 477//477 467//467
f 473//473 475//475 465//465
f 465//465 467//467 457//457
f 463//463 465//465 455//455
f 455//455 457//457 447//447
f 453//453 455//455 445//445
f 445//445 447//447 437//437
f 443//443 445//445 435//435
f 435//435 437//437 427//427
f 433//433 435//435 425//425
f 425//425 427//427 417//417
f 423//423 425//425 415//415
f 415//415 417//417 377//377
f 413//413 415//415 375//375
f 375//375 377//377 357//357
f 373//373 375//375 355//355
f 355//355 357//357 337//337
f 353//353 355//355 335//335
f 335//335 337//337 307//307
f 333//333 335//335 305//305
f 305//305 307//307 287//287
f 303//303 305//305 285//285
f 509//509 517//517 519//519
f 489//489 497//497 499//499
f 499//499 507//507 509//509
f 507//507 515//515 517//517
f 479//479 487//487 489//489
f 459//459 467//467 469//469
f 439//439 447//447 449//449
f 449//449 457//457 459//459
f 469//469 477//477 479//479
f 437//437 429//429 427//427
f 513//513 505//505 503//503
f 503//503 511//511 513//513
f 491//491 483//483 481//481
f 493//493 501//501 503//503
f 463//463 471//471 473//473
f 443//443 451//451 453//453
f 453//453 461//461 463//463
f 473//473 481//481 483//483
f 441//441 433//433 431//431
f 419//419 427//427 429//429
f 359//359 377//377 379//379
f 379//379 417//417 419//419
f 339//339 357//357 359//359
f 309//309 337//337 339//339
f 289//289 307//307 309//309
f 277//277 287//287 289//289
f 273//273 285//285 287//287
f 269//269 283//283 285//285
f 423//423 431//431 433//433
f 373//373 411//411 413//413
f 413//413 421//421 423//423
f 353//353 371//371 373//373
f 303//303 331//331 333//333
f 265//265 281//281 283//283
f 283//283 301//301 303//303
f 333//333 351//351 353//353
f 273//273 257//257 253//253
f 265//265 249//249 245//245
f 261//261 245//245 241//241
f 269//269 253//253 249//249
f 215//215 237//237 217//217
f 213//213 235//235 215//215
f 185//185 217//217 187//187
f 183//183 215//215 185//185
f 165//165 187//187 167//167
f 163//163 185//185 165//165
f 145//145 167//167 147//147
f 143//143 165//165 145//145
f 105//105 147//147 107//107
f 103//103 145//145 105//105
f 95//95 107//107 97//97
f 93//93 105//105 95//95
f 85//85 97//97 87//87
f 83//83 95//95 85//85
f 75//75 87//87 77//77
f 73//73 85//85 75//75
f 65//65 77//77 67//67
f 63//63 75//75 65//65
f 55//55 67//67 57//57
f 53//53 65//65 55//55
f 45//45 57//57 47//47
f 43//43 55//55 45//45
f 35//35 47//47 37//37
f 33//33 45//45 35//35
f 25//25 37//37 27//27
f 23//23 35//35 25//25
f 15//15 27//27 17//17
f 13//13 25//25 15//15
f 237//237 253//253 257//257
f 187//187 217//217 219//219
f 217//217 237//237 239//239
f 235//235 249//249 253//253
f 167//167 187//187 189//189
f 107//107 147//147 149//149
f 87//87 97//97 99//99
f 97//97 107//107 109//109
f 147//147 167//167 169//169
f 89//89 79//79 77//77
f 249//249 235//235 233//233
f 231//231 241//241 245//245
f 213//213 183//183 181//181
f 211//211 231//231 233//233
f 141//141 161//161 163//163
f 91//91 101//101 103//103
f 101//101 141//141 143//143
f 161//161 181//181 183//183
f 93//93 83//83 81//81
f 67//67 77//77 79//79
f 47//47 57//57 59//59
f 57//57 67//67 69//69
f 37//37 47//47 49//49
f 27//27 37//37 39//39
f 17//17 27//27 29//29
f 7//7 17//17 19//19
f 5//5 15//15 17//17
f 3//3 13//13 15//15
f 71//71 81//81 83//83
f 51//51 61//61 63//63
f 61//61 71//71 73//73
f 41//41 51//51 53//53
f 21//21 31//31 33//33
f 1//1 11//11 13//13
f 11//11 21//21 23//23
f 31//31 41//41 43//43
f 3//3 4//4 2//2
f 5//5 6//6 4//4
f 9//9 10//10 8//8
f 6//6 5//5 7//7
f 26//26 18//18 28//28
f 24//24 16//16 26//26
f 36//36 28//28 38//38
f 34//34 26//26 36//36
f 46//46 38//38 48//48
f 44//44 36//36 46//46
f 56//56 48//48 58//58
f 54//54 46//46 56//56
f 66//66 58//58 68//68
f 64//64 56//56 66//66
f 76//76 68//68 78//78
f 74//74 66//66 76//76
f 86//86 78//78 88//88
f 84//84 76//76 86//86
f 96//96 88//88 98//98
f 94//94 86//86 96//96
f 106//106 98//98 108//108
f 104//104 96//96 106//106
f 146//146 108//108 148//148
f 144//144 106//106 146//146
f 166//166 148//148 168//168
f 164//164 146//146 166//166
f 186//186 168//168 188//188
f 184//184 166//166 186//186
f 216//216 188//188 218//218
f 214//214 186//186 216//216
f 236//236 218//218 238//238
f 234//234 216//216 236//236
f 18//18 8//8 10//10
f 38//38 28//28 30//30
f 28//28 18//18 20//20
f 16//16 6//6 8//8
f 48//48 38//38 40//40
f 68//68 58//58 60//60
f 88//88 78//78 80//80
f 78//78 68//68 70//70
f 58//58 48//48 50//50
f 90//90 100//100 98//98
f 6//6 16//16 14//14
f 12//12 2//2 4//4
f 24//24 34//34 32//32
f 22//22 12//12 14//14
f 52//52 42//42 44//44
f 72//72 62//62 64//64
f 62//62 52//52 54//54
f 42//42 32//32 34//34
f 74//74 84//84 82//82
f 108//108 98//98 100//100
f 168//168 148//148 150//150
f 148//148 108//108 110//110
f 188//188 168//168 170//170
f 218//218 188//188 190//190
f 238//238 218//218 220//220
f 256//256 238//238 240//240
f 252//252 236//236 238//238
f 248//248 234//234 236//236
f 92//92 82//82 84//84
f 142//142 102//102 104//104
f 102//102 92//92 94//94
f 162//162 142//142 144//144
f 212//212 182//182 184//184
f 244//244 232//232 234//234
f 232//232 212//212 214//214
f 182//182 162//162 164//164
f 256//256 280//280 276//276
f 248//248 272//272 268//268
f 244//244 268//268 264//264
f 252//252 276//276 272//272
f 286//286 288//288 308//308
f 284//284 286//286 306//306
f 306//306 308//308 338//338
f 304//304 306//306 336//336
f 336//336 338//338 358//358
f 334//334 336//336 356//356
f 356//356 358//358 378//378
f 354//354 356//356 376//376
f 376//376 378//378 418//418
f 374//374 376//376 416//416
f 416//416 418//418 428//428
f 414//414 416//416 426//426
f 426//426 428//428 438//438
f 424//424 426//426 436//436
f 436//436 438//438 448//448
f 434//434 436//436 446//446
f 446//446 448//448 458//458
f 444//444 446//446 456//456
f 456//456 458//458 468//468
f 454//454 456//456 466//466
f 466//466 468//468 478//478
f 464//464 466//466 476//476
f 476//476 478//478 488//488
f 474//474 476//476 486//486
f 486//486 488//488 498//498
f 484//484 486//486 496//496
f 496//496 498//498 508//508
f 494//494 496//496 506//506
f 290//290 276//276 280//280
f 340//340 308//308 310//310
f 310//310 288//288 290//290
f 288//288 272//272 276//276
f 360//360 338//338 340//340
f 420//420 378//378 380//380
f 440//440 428//428 430//430
f 430//430 418//418 420//420
f 380//380 358//358 360//360
f 438//438 450//450 448//448
f 268//268 286//286 284//284
f 284//284 264//264 268//268
f 302//302 334//334 332//332
f 304//304 282//282 284//284
f 374//374 352//352 354//354
f 424//424 412//412 414//414
f 414//414 372//372 374//374
f 354//354 332//332 334//334
f 422//422 434//434 432//432
f 460//460 448//448 450//450
f 480//480 468//468 470//470
f 470//470 458//458 460//460
f 490//490 478//478 480//480
f 500//500 488//488 490//490
f 510//510 498//498 500//500
f 520//520 508//508 510//510
f 518//518 506//506 508//508
f 516//516 504//504 506//506
f 444//444 432//432 434//434
f 464//464 452//452 454//454
f 454//454 442//442 444//444
f 474//474 462//462 464//464
f 494//494 482//482 484//484
f 514//514 502//502 504//504
f 504//504 492//492 494//494
f 484//484 472//472 474//474
f 386//386 398//398 388//388
f 384//384 396//396 386//386
f 366//366 388//388 368//368
f 364//364 386//386 366//366
f 346//346 368//368 348//348
f 344//344 366//366 346//346
f 326//326 348//348 328//328
f 324//324 346//346 326//326
f 316//316 328//328 318//318
f 314//314 326//326 316//316
f 296//296 318//318 298//298
f 294//294 316//316 296//296
f 398//398 408//408 410//410
f 400//400 390//390 388//388
f 396//396 406//406 408//408
f 348//348 368//368 370//370
f 368//368 388//388 390//390
f 350//350 330//330 328//328
f 394//394 404//404 406//406
f 404//404 394//394 392//392
f 362//362 382//382 384//384
f 382//382 392//392 394//394
f 364//364 344//344 342//342
f 318//318 328//328 330//330
f 320//320 300//300 298//298
f 275//275 298//298 300//300
f 271//271 296//296 298//298
f 267//267 294//294 296//296
f 322//322 342//342 344//344
f 324//324 314//314 312//312
f 263//263 292//292 294//294
f 292//292 312//312 314//314
f 275//275 259//259 255//255
f 267//267 251//251 247//247
f 263//263 247//247 243//243
f 271//271 255//255 251//251
f 226//226 228//228 208//208
f 224//224 226//226 206//206
f 206//206 208//208 198//198
f 204//204 206//206 196//196
f 196//196 198//198 178//178
f 194//194 196//196 176//176
f 176//176 178//178 158//158
f 174//174 176//176 156//156
f 156//156 158//158 138//138
f 154//154 156//156 136//136
f 136//136 138//138 128//128
f 134//134 136//136 126//126
f 230//230 255//255 259//259
f 228//228 210//210 208//208
f 228//228 251//251 255//255
f 180//180 198//198 200//200
f 200//200 208//208 210//210
f 178//178 160//160 158//158
f 226//226 247//247 251//251
f 243//243 224//224 222//222
f 194//194 202//202 204//204
f 204//204 222//222 224//224
f 192//192 174//174 172//172
f 140//140 158//158 160//160
f 138//138 130//130 128//128
f 120//120 128//128 130//130
f 118//118 126//126 128//128
f 116//116 124//124 126//126
f 154//154 172//172 174//174
f 152//152 134//134 132//132
f 114//114 122//122 124//124
f 124//124 132//132 134//134
f 113//113 112//112 114//114
f 117//117 116//116 118//118
f 119//119 118//118 120//120
f 115//115 114//114 116//116
f 125//125 127//127 137//137
f 123//123 125//125 135//135
f 135//135 137//137 157//157
f 133//133 135//135 155//155
f 155//155 157//157 177//177
f 153//153 155//155 175//175
f 175//175 177//177 197//197
f 173//173 175//175 195//195
f 195//195 197//197 207//207
f 193//193 195//195 205//205
f 205//205 207//207 227//227
f 203//203 205//205 225//225
f 129//129 117//117 119//119
f 127//127 139//139 137//137
f 127//127 115//115 117//117
f 179//179 157//157 159//159
f 159//159 137//137 139//139
f 177//177 199//199 197//197
f 125//125 113//113 115//115
f 111//111 123//123 121//121
f 153//153 131//131 133//133
f 133//133 121//121 123//123
f 151//151 173//173 171//171
f 209//209 197//197 199//199
f 207//207 229//229 227//227
f 258//258 227//227 229//229
f 254//254 225//225 227//227
f 250//250 223//223 225//225
f 193//193 171//171 173//173
f 191//191 203//203 201//201
f 246//246 221//221 223//223
f 223//223 201//201 203//203
f 254//254 278//278 274//274
f 246//246 270//270 266//266
f 242//242 266//266 262//262
f 250//250 274//274 270//270
f 315//315 297//297 317//317
f 313//313 295//295 315//315
f 325//325 317//317 327//327
f 323//323 315//315 325//325
f 345//345 327//327 347//347
f 343//343 325//325 345//345
f 365//365 347//347 367//367
f 363//363 345//345 365//365
f 385//385 367//367 387//387
f 383//383 365//365 385//385
f 395//395 387//387 397//397
f 393//393 385//385 395//395
f 297//297 274//274 278//278
f 299//299 319//319 317//317
f 295//295 270//270 274//274
f 347//347 327//327 329//329
f 327//327 317//317 319//319
f 349//349 369//369 367//367
f 293//293 266//266 270//270
f 266//266 293//293 291//291
f 321//321 311//311 313//313
f 311//311 291//291 293//293
f 323//323 343//343 341//341
f 387//387 367//367 369//369
f 389//389 399//399 397//397
f 407//407 397//397 399//399
f 405//405 395//395 397//397
f 403//403 393//393 395//395
f 361//361 341//341 343//343
f 363//363 383//383 381//381
f 401//401 391//391 393//393
f 391//391 381//381 383//383
f 403//403 404//404 402//402
f 405//405 406//406 404//404
f 409//409 410//410 408//408
f 406//406 405//405 407//407
f 120//120 9//9 119//119
f 260//260 279//279 280//280
f 258//258 277//277 278//278
f 409//409 520//520 410//410
f 112//112 1//1 2//2
f 244//244 263//263 243//243
f 242//242 261//261 241//241
f 401//401 512//512 511//511