# PHANTOM Module: L15_18
# Units: meters
o L15_18

v 1.300000 1.800000 2.786845
v 1.300000 1.800000 0.762518
v 1.300000 1.350000 2.655306
v 1.300000 1.350000 0.630980
v 1.300000 0.900000 2.523767
v 1.300000 0.900000 0.499441
v 1.300000 0.450000 2.392229
v 1.300000 0.450000 0.367902
v 1.300000 0.000000 2.260690
v 1.300000 0.000000 0.236364
v 1.296383 1.800000 2.829854
v 1.296383 1.800000 0.719509
v 1.296383 1.350000 2.698316
v 1.296383 1.350000 0.587970
v 1.296383 0.900000 2.566777
v 1.296383 0.900000 0.456432
v 1.296383 0.450000 2.435238
v 1.296383 0.450000 0.324893
v 1.296383 0.000000 2.303700
v 1.296383 0.000000 0.193354
v 1.291636 1.800000 2.851882
v 1.291636 1.800000 0.697481
v 1.291636 1.350000 2.720344
v 1.291636 1.350000 0.565942
v 1.291636 0.900000 2.588805
v 1.291636 0.900000 0.434404
v 1.291636 0.450000 2.457266
v 1.291636 0.450000 0.302865
v 1.291636 0.000000 2.325727
v 1.291636 0.000000 0.171326
v 1.284788 1.800000 2.873849
v 1.284788 1.800000 0.675514
v 1.284788 1.350000 2.742311
v 1.284788 1.350000 0.543976
v 1.284788 0.900000 2.610772
v 1.284788 0.900000 0.412437
v 1.284788 0.450000 2.479233
v 1.284788 0.450000 0.280898
v 1.284788 0.000000 2.347694
v 1.284788 0.000000 0.149359
v 1.275795 1.800000 2.895406
v 1.275795 1.800000 0.653958
v 1.275795 1.350000 2.763867
v 1.275795 1.350000 0.522419
v 1.275795 0.900000 2.632328
v 1.275795 0.900000 0.390880
v 1.275795 0.450000 2.500789
v 1.275795 0.450000 0.259342
v 1.275795 0.000000 2.369251
v 1.275795 0.000000 0.127803
v 1.264682 1.800000 2.916185
v 1.264682 1.800000 0.633178
v 1.264682 1.350000 2.784647
v 1.264682 1.350000 0.501639
v 1.264682 0.900000 2.653108
v 1.264682 0.900000 0.370101
v 1.264682 0.450000 2.521569
v 1.264682 0.450000 0.238562
v 1.264682 0.000000 2.390031
v 1.264682 0.000000 0.107023
v 1.251544 1.800000 2.935824
v 1.251544 1.800000 0.613539
v 1.251544 1.350000 2.804286
v 1.251544 1.350000 0.482000
v 1.251544 0.900000 2.672747
v 1.251544 0.900000 0.350461
v 1.251544 0.450000 2.541209
v 1.251544 0.450000 0.218923
v 1.251544 0.000000 2.409670
v 1.251544 0.000000 0.087384
v 1.236540 1.800000 2.953979
v 1.236540 1.800000 0.595384
v 1.236540 1.350000 2.822441
v 1.236540 1.350000 0.463845
v 1.236540 0.900000 2.690902
v 1.236540 0.900000 0.332307
v 1.236540 0.450000 2.559363
v 1.236540 0.450000 0.200768
v 1.236540 0.000000 2.427824
v 1.236540 0.000000 0.069229
v 1.219898 1.800000 2.970347
v 1.219898 1.800000 0.579017
v 1.219898 1.350000 2.838808
v 1.219898 1.350000 0.447478
v 1.219898 0.900000 2.707269
v 1.219898 0.900000 0.315939
v 1.219898 0.450000 2.575731
v 1.219898 0.450000 0.184401
v 1.219898 0.000000 2.444192
v 1.219898 0.000000 0.052862
v 1.201896 1.800000 2.984680
v 1.201896 1.800000 0.564683
v 1.201896 1.350000 2.853142
v 1.201896 1.350000 0.433144
v 1.201896 0.900000 2.721603
v 1.201896 0.900000 0.301606
v 1.201896 0.450000 2.590064
v 1.201896 0.450000 0.170067
v 1.201896 0.000000 2.458525
v 1.201896 0.000000 0.038528
v 1.191667 1.800000 2.786845
v 1.191667 1.800000 0.762518
v 1.191667 1.350000 2.655306
v 1.191667 1.350000 0.630980
v 1.191667 0.900000 2.523767
v 1.191667 0.900000 0.499441
v 1.191667 0.450000 2.392229
v 1.191667 0.450000 0.367902
v 1.191667 0.000000 2.260690
v 1.191667 0.000000 0.236364
v 1.189858 1.800000 2.808350
v 1.189858 1.800000 0.741014
v 1.189858 1.350000 2.676811
v 1.189858 1.350000 0.609475
v 1.189858 0.900000 2.545272
v 1.189858 0.900000 0.477936
v 1.189858 0.450000 2.413733
v 1.189858 0.450000 0.346398
v 1.189858 0.000000 2.282195
v 1.189858 0.000000 0.214859
v 1.184061 1.800000 2.830347
v 1.184061 1.800000 0.719016
v 1.184061 1.350000 2.698808
v 1.184061 1.350000 0.587478
v 1.184061 0.900000 2.567270
v 1.184061 0.900000 0.455939
v 1.184061 0.450000 2.435731
v 1.184061 0.450000 0.324400
v 1.184061 0.000000 2.304192
v 1.184061 0.000000 0.192862
v 1.182847 1.800000 2.996803
v 1.182847 1.800000 0.552560
v 1.182847 1.350000 2.865264
v 1.182847 1.350000 0.421022
v 1.182847 0.900000 2.733726
v 1.182847 0.900000 0.289483
v 1.182847 0.450000 2.602187
v 1.182847 0.450000 0.157944
v 1.182847 0.000000 2.470648
v 1.182847 0.000000 0.026406
v 1.174008 1.800000 2.851515
v 1.174008 1.800000 0.697848
v 1.174008 1.350000 2.719976
v 1.174008 1.350000 0.566309
v 1.174008 0.900000 2.588438
v 1.174008 0.900000 0.434771
v 1.174008 0.450000 2.456899
v 1.174008 0.450000 0.303232
v 1.174008 0.000000 2.325360
v 1.174008 0.000000 0.171693
v 1.163087 1.800000 3.006613
v 1.163087 1.800000 0.542750
v 1.163087 1.350000 2.875074
v 1.163087 1.350000 0.411212
v 1.163087 0.900000 2.743536
v 1.163087 0.900000 0.279673
v 1.163087 0.450000 2.611997
v 1.163087 0.450000 0.148134
v 1.163087 0.000000 2.480458
v 1.163087 0.000000 0.016595
v 1.159937 1.800000 2.870412
v 1.159937 1.800000 0.678951
v 1.159937 1.350000 2.738873
v 1.159937 1.350000 0.547413
v 1.159937 0.900000 2.607335
v 1.159937 0.900000 0.415874
v 1.159937 0.450000 2.475796
v 1.159937 0.450000 0.284335
v 1.159937 0.000000 2.344257
v 1.159937 0.000000 0.152796
v 1.142951 1.800000 3.014085
v 1.142951 1.800000 0.535279
v 1.142951 1.350000 2.882546
v 1.142951 1.350000 0.403740
v 1.142951 0.900000 2.751007
v 1.142951 0.900000 0.272201
v 1.142951 0.450000 2.619469
v 1.142951 0.450000 0.140663
v 1.142951 0.000000 2.487930
v 1.142951 0.000000 0.009124
v 1.142614 1.800000 2.885763
v 1.142614 1.800000 0.663601
v 1.142614 1.350000 2.754224
v 1.142614 1.350000 0.532062
v 1.142614 0.900000 2.622685
v 1.142614 0.900000 0.400523
v 1.142614 0.450000 2.491147
v 1.142614 0.450000 0.268985
v 1.142614 0.000000 2.359608
v 1.142614 0.000000 0.137446
v 1.123210 1.800000 2.896729
v 1.123210 1.800000 0.652634
v 1.123210 1.350000 2.765190
v 1.123210 1.350000 0.521096
v 1.123210 0.900000 2.633652
v 1.123210 0.900000 0.389557
v 1.123210 0.450000 2.502113
v 1.123210 0.450000 0.258018
v 1.123210 0.000000 2.370574
v 1.123210 0.000000 0.126480
v 1.122759 1.800000 3.019263
v 1.122759 1.800000 0.530101
v 1.122759 1.350000 2.887724
v 1.122759 1.350000 0.398562
v 1.122759 0.900000 2.756185
v 1.122759 0.900000 0.267023
v 1.122759 0.450000 2.624646
v 1.122759 0.450000 0.135485
v 1.122759 0.000000 2.493108
v 1.122759 0.000000 0.003946
v 1.103046 1.800000 2.903054
v 1.103046 1.800000 0.646310
v 1.103046 1.350000 2.771515
v 1.103046 1.350000 0.514771
v 1.103046 0.900000 2.639976
v 1.103046 0.900000 0.383232
v 1.103046 0.450000 2.508438
v 1.103046 0.450000 0.251694
v 1.103046 0.000000 2.376899
v 1.103046 0.000000 0.120155
v 1.102802 1.800000 3.022253
v 1.102802 1.800000 0.527111
v 1.102802 1.350000 2.890714
v 1.102802 1.350000 0.395572
v 1.102802 0.900000 2.759175
v 1.102802 0.900000 0.264033
v 1.102802 0.450000 2.627636
v 1.102802 0.450000 0.132495
v 1.102802 0.000000 2.496098
v 1.102802 0.000000 0.000956
v 1.083333 1.800000 3.023209
v 1.083333 1.800000 2.905027
v 1.083333 1.800000 0.644337
v 1.083333 1.800000 0.526155
v 1.083333 1.350000 2.891670
v 1.083333 1.350000 2.773488
v 1.083333 1.350000 0.512798
v 1.083333 1.350000 0.394616
v 1.083333 0.900000 2.760131
v 1.083333 0.900000 2.641949
v 1.083333 0.900000 0.381259
v 1.083333 0.900000 0.263077
v 1.083333 0.450000 2.628592
v 1.083333 0.450000 2.510411
v 1.083333 0.450000 0.249721
v 1.083333 0.450000 0.131539
v 1.083333 0.000000 2.497054
v 1.083333 0.000000 2.378872
v 1.083333 0.000000 0.118182
v 1.083333 0.000000 0.000000
v 0.216667 1.800000 3.023209
v 0.216667 1.800000 2.905027
v 0.216667 1.800000 0.644337
v 0.216667 1.800000 0.526155
v 0.216667 1.350000 2.891670
v 0.216667 1.350000 2.773488
v 0.216667 1.350000 0.512798
v 0.216667 1.350000 0.394616
v 0.216667 0.900000 2.760131
v 0.216667 0.900000 2.641949
v 0.216667 0.900000 0.381259
v 0.216667 0.900000 0.263077
v 0.216667 0.450000 2.628592
v 0.216667 0.450000 2.510411
v 0.216667 0.450000 0.249721
v 0.216667 0.450000 0.131539
v 0.216667 0.000000 2.497054
v 0.216667 0.000000 2.378872
v 0.216667 0.000000 0.118182
v 0.216667 0.000000 0.000000
v 0.197198 1.800000 3.022253
v 0.197198 1.800000 0.527111
v 0.197198 1.350000 2.890714
v 0.197198 1.350000 0.395572
v 0.197198 0.900000 2.759175
v 0.197198 0.900000 0.264033
v 0.197198 0.450000 2.627636
v 0.197198 0.450000 0.132495
v 0.197198 0.000000 2.496098
v 0.197198 0.000000 0.000956
v 0.196954 1.800000 2.903054
v 0.196954 1.800000 0.646310
v 0.196954 1.350000 2.771515
v 0.196954 1.350000 0.514771
v 0.196954 0.900000 2.639976
v 0.196954 0.900000 0.383232
v 0.196954 0.450000 2.508438
v 0.196954 0.450000 0.251694
v 0.196954 0.000000 2.376899
v 0.196954 0.000000 0.120155
v 0.177241 1.800000 3.019263
v 0.177241 1.800000 0.530101
v 0.177241 1.350000 2.887724
v 0.177241 1.350000 0.398562
v 0.177241 0.900000 2.756185
v 0.177241 0.900000 0.267023
v 0.177241 0.450000 2.624646
v 0.177241 0.450000 0.135485
v 0.177241 0.000000 2.493108
v 0.177241 0.000000 0.003946
v 0.176790 1.800000 2.896729
v 0.176790 1.800000 0.652634
v 0.176790 1.350000 2.765190
v 0.176790 1.350000 0.521096
v 0.176790 0.900000 2.633652
v 0.176790 0.900000 0.389557
v 0.176790 0.450000 2.502113
v 0.176790 0.450000 0.258018
v 0.176790 0.000000 2.370574
v 0.176790 0.000000 0.126480
v 0.157386 1.800000 2.885763
v 0.157386 1.800000 0.663601
v 0.157386 1.350000 2.754224
v 0.157386 1.350000 0.532062
v 0.157386 0.900000 2.622685
v 0.157386 0.900000 0.400523
v 0.157386 0.450000 2.491147
v 0.157386 0.450000 0.268985
v 0.157386 0.000000 2.359608
v 0.157386 0.000000 0.137446
v 0.157049 1.800000 3.014085
v 0.157049 1.800000 0.535279
v 0.157049 1.350000 2.882546
v 0.157049 1.350000 0.403740
v 0.157049 0.900000 2.751007
v 0.157049 0.900000 0.272201
v 0.157049 0.450000 2.619469
v 0.157049 0.450000 0.140663
v 0.157049 0.000000 2.487930
v 0.157049 0.000000 0.009124
v 0.140064 1.800000 2.870412
v 0.140064 1.800000 0.678951
v 0.140064 1.350000 2.738873
v 0.140064 1.350000 0.547413
v 0.140064 0.900000 2.607335
v 0.140064 0.900000 0.415874
v 0.140064 0.450000 2.475796
v 0.140064 0.450000 0.284335
v 0.140064 0.000000 2.344257
v 0.140064 0.000000 0.152796
v 0.136913 1.800000 3.006613
v 0.136913 1.800000 0.542750
v 0.136913 1.350000 2.875074
v 0.136913 1.350000 0.411212
v 0.136913 0.900000 2.743536
v 0.136913 0.900000 0.279673
v 0.136913 0.450000 2.611997
v 0.136913 0.450000 0.148134
v 0.136913 0.000000 2.480458
v 0.136913 0.000000 0.016595
v 0.125992 1.800000 2.851515
v 0.125992 1.800000 0.697848
v 0.125992 1.350000 2.719976
v 0.125992 1.350000 0.566309
v 0.125992 0.900000 2.588438
v 0.125992 0.900000 0.434771
v 0.125992 0.450000 2.456899
v 0.125992 0.450000 0.303232
v 0.125992 0.000000 2.325360
v 0.125992 0.000000 0.171693
v 0.117153 1.800000 2.996803
v 0.117153 1.800000 0.552560
v 0.117153 1.350000 2.865264
v 0.117153 1.350000 0.421022
v 0.117153 0.900000 2.733726
v 0.117153 0.900000 0.289483
v 0.117153 0.450000 2.602187
v 0.117153 0.450000 0.157944
v 0.117153 0.000000 2.470648
v 0.117153 0.000000 0.026406
v 0.115940 1.800000 2.830347
v 0.115940 1.800000 0.719016
v 0.115940 1.350000 2.698808
v 0.115940 1.350000 0.587478
v 0.115940 0.900000 2.567270
v 0.115940 0.900000 0.455939
v 0.115940 0.450000 2.435731
v 0.115940 0.450000 0.324400
v 0.115940 0.000000 2.304192
v 0.115940 0.000000 0.192862
v 0.110142 1.800000 2.808350
v 0.110142 1.800000 0.741014
v 0.110142 1.350000 2.676811
v 0.110142 1.350000 0.609475
v 0.110142 0.900000 2.545272
v 0.110142 0.900000 0.477936
v 0.110142 0.450000 2.413733
v 0.110142 0.450000 0.346398
v 0.110142 0.000000 2.282195
v 0.110142 0.000000 0.214859
v 0.108334 1.800000 2.786845
v 0.108334 1.800000 0.762518
v 0.108334 1.350000 2.655306
v 0.108334 1.350000 0.630980
v 0.108334 0.900000 2.523767
v 0.108334 0.900000 0.499441
v 0.108334 0.450000 2.392229
v 0.108334 0.450000 0.367902
v 0.108334 0.000000 2.260690
v 0.108334 0.000000 0.236364
v 0.098104 1.800000 2.984680
v 0.098104 1.800000 0.564683
v 0.098104 1.350000 2.853142
v 0.098104 1.350000 0.433144
v 0.098104 0.900000 2.721603
v 0.098104 0.900000 0.301606
v 0.098104 0.450000 2.590064
v 0.098104 0.450000 0.170067
v 0.098104 0.000000 2.458525
v 0.098104 0.000000 0.038528
v 0.080102 1.800000 2.970347
v 0.080102 1.800000 0.579017
v 0.080102 1.350000 2.838808
v 0.080102 1.350000 0.447478
v 0.080102 0.900000 2.707269
v 0.080102 0.900000 0.315939
v 0.080102 0.450000 2.575731
v 0.080102 0.450000 0.184401
v 0.080102 0.000000 2.444192
v 0.080102 0.000000 0.052862
v 0.063460 1.800000 2.953979
v 0.063460 1.800000 0.595384
v 0.063460 1.350000 2.822441
v 0.063460 1.350000 0.463845
v 0.063460 0.900000 2.690902
v 0.063460 0.900000 0.332307
v 0.063460 0.450000 2.559363
v 0.063460 0.450000 0.200768
v 0.063460 0.000000 2.427824
v 0.063460 0.000000 0.069229
v 0.048457 1.800000 2.935824
v 0.048457 1.800000 0.613539
v 0.048457 1.350000 2.804286
v 0.048457 1.350000 0.482000
v 0.048457 0.900000 2.672747
v 0.048457 0.900000 0.350461
v 0.048457 0.450000 2.541209
v 0.048457 0.450000 0.218923
v 0.048457 0.000000 2.409670
v 0.048457 0.000000 0.087384
v 0.035318 1.800000 2.916185
v 0.035318 1.800000 0.633178
v 0.035318 1.350000 2.784647
v 0.035318 1.350000 0.501639
v 0.035318 0.900000 2.653108
v 0.035318 0.900000 0.370101
v 0.035318 0.450000 2.521569
v 0.035318 0.450000 0.238562
v 0.035318 0.000000 2.390031
v 0.035318 0.000000 0.107023
v 0.024205 1.800000 2.895406
v 0.024205 1.800000 0.653958
v 0.024205 1.350000 2.763867
v 0.024205 1.350000 0.522419
v 0.024205 0.900000 2.632328
v 0.024205 0.900000 0.390880
v 0.024205 0.450000 2.500789
v 0.024205 0.450000 0.259342
v 0.024205 0.000000 2.369251
v 0.024205 0.000000 0.127803
v 0.015213 1.800000 2.873849
v 0.015213 1.800000 0.675514
v 0.015213 1.350000 2.742311
v 0.015213 1.350000 0.543976
v 0.015213 0.900000 2.610772
v 0.015213 0.900000 0.412437
v 0.015213 0.450000 2.479233
v 0.015213 0.450000 0.280898
v 0.015213 0.000000 2.347694
v 0.015213 0.000000 0.149359
v 0.008364 1.800000 2.851882
v 0.008364 1.800000 0.697481
v 0.008364 1.350000 2.720344
v 0.008364 1.350000 0.565942
v 0.008364 0.900000 2.588805
v 0.008364 0.900000 0.434404
v 0.008364 0.450000 2.457266
v 0.008364 0.450000 0.302865
v 0.008364 0.000000 2.325727
v 0.008364 0.000000 0.171326
v 0.003617 1.800000 2.829854
v 0.003617 1.800000 0.719509
v 0.003617 1.350000 2.698316
v 0.003617 1.350000 0.587970
v 0.003617 0.900000 2.566777
v 0.003617 0.900000 0.456432
v 0.003617 0.450000 2.435238
v 0.003617 0.450000 0.324893
v 0.003617 0.000000 2.303700
v 0.003617 0.000000 0.193354
v 0.000000 1.800000 2.786845
v 0.000000 1.800000 0.762518
v 0.000000 1.350000 2.655306
v 0.000000 1.350000 0.630980
v 0.000000 0.900000 2.523767
v 0.000000 0.900000 0.499441
v 0.000000 0.450000 2.392229
v 0.000000 0.450000 0.367902
v 0.000000 0.000000 2.260690
v 0.000000 0.000000 0.236364

vn 0.711443 0.701613 0.039840
vn 0.828361 0.559715 -0.023164
vn 0.999045 -0.012257 0.041932
vn 0.999045 0.012257 -0.041932
vn 0.999045 -0.012257 0.041932
vn 0.999045 0.012257 -0.041932
vn 0.999045 -0.012257 0.041932
vn 0.999045 0.012257 -0.041932
vn 0.703638 -0.710286 0.019676
vn 0.836758 -0.545565 -0.046857
vn 0.837917 0.526637 0.143347
vn 0.810631 0.576394 -0.103185
vn 0.988148 -0.043069 0.147340
vn 0.988148 0.043069 -0.147340
vn 0.988148 -0.043069 0.147340
vn 0.988148 0.043069 -0.147340
vn 0.988148 -0.043069 0.147340
vn 0.988148 0.043069 -0.147340
vn 0.810631 -0.576394 0.103186
vn 0.837917 -0.526637 -0.143347
vn 0.829275 0.508648 0.231474
vn 0.780738 0.594350 -0.192866
vn 0.964447 -0.074147 0.253660
vn 0.964447 0.074147 -0.253660
vn 0.964447 -0.074147 0.253661
vn 0.964447 0.074147 -0.253660
vn 0.964447 -0.074147 0.253660
vn 0.964447 0.074147 -0.253660
vn 0.780738 -0.594350 0.192866
vn 0.829275 -0.508648 -0.231474
vn 0.693745 0.669915 0.264445
vn 0.635310 0.740299 -0.219858
vn 0.935178 -0.099371 0.339953
vn 0.935178 0.099371 -0.339953
vn 0.935178 -0.099371 0.339953
vn 0.935178 0.099371 -0.339953
vn 0.935177 -0.099371 0.339954
vn 0.935178 0.099371 -0.339953
vn 0.635310 -0.740299 0.219858
vn 0.693745 -0.669915 -0.264445
vn 0.787670 0.477482 0.389342
vn 0.713035 0.621509 -0.324511
vn 0.896425 -0.124346 0.425394
vn 0.896425 0.124346 -0.425394
vn 0.896426 -0.124346 0.425393
vn 0.896425 0.124346 -0.425394
vn 0.896425 -0.124346 0.425394
vn 0.896425 0.124346 -0.425394
vn 0.713035 -0.621509 0.324511
vn 0.787670 -0.477482 -0.389341
vn 0.752976 0.461962 0.468635
vn 0.669339 0.634415 -0.386657
vn 0.848040 -0.148681 0.508647
vn 0.848041 0.148681 -0.508645
vn 0.848042 -0.148681 0.508645
vn 0.848041 0.148681 -0.508645
vn 0.848042 -0.148681 0.508645
vn 0.848041 0.148681 -0.508645
vn 0.669338 -0.634415 0.386658
vn 0.752976 -0.461962 -0.468634
vn 0.606808 0.642510 0.467937
vn 0.523377 0.764570 -0.376176
vn 0.790125 -0.171973 0.588327
vn 0.790124 0.171973 -0.588327
vn 0.790124 -0.171973 0.588328
vn 0.790124 0.171973 -0.588327
vn 0.790124 -0.171973 0.588327
vn 0.790124 0.171973 -0.588327
vn 0.523378 -0.764570 0.376175
vn 0.606807 -0.642510 -0.467938
vn 0.654007 0.432448 0.620696
vn 0.563721 0.657948 -0.499323
vn 0.723096 -0.193801 0.663003
vn 0.723096 0.193801 -0.663003
vn 0.723097 -0.193801 0.663002
vn 0.723096 0.193801 -0.663003
vn 0.723097 -0.193801 0.663002
vn 0.723096 0.193801 -0.663003
vn 0.563721 -0.657948 0.499323
vn 0.654007 -0.432448 -0.620696
vn 0.506600 0.626331 0.592508
vn 0.424445 0.778307 -0.462692
vn 0.647710 -0.213761 0.731285
vn 0.647709 0.213761 -0.731286
vn 0.647708 -0.213761 0.731287
vn 0.647709 0.213761 -0.731286
vn 0.647708 -0.213761 0.731287
vn 0.647709 0.213761 -0.731286
vn 0.424445 -0.778307 0.462692
vn 0.506599 -0.626331 -0.592508
vn 0.444632 0.619386 0.647042
vn 0.369300 0.784102 -0.498800
vn 0.565016 -0.231490 0.791940
vn 0.565017 0.231490 -0.791939
vn 0.565018 -0.231490 0.791939
vn 0.565018 0.231490 -0.791939
vn 0.565019 -0.231490 0.791938
vn 0.565018 0.231490 -0.791939
vn 0.369299 -0.784102 0.498801
vn 0.444632 -0.619386 -0.647041
vn -0.509644 0.859912 -0.028532
vn -0.448187 0.893852 0.012530
vn -0.999046 0.012254 -0.041921
vn -0.999046 -0.012254 0.041921
vn -0.999046 0.012254 -0.041921
vn -0.999046 -0.012254 0.041921
vn -0.999046 0.012254 -0.041921
vn -0.999046 -0.012254 0.041921
vn -0.515818 -0.856577 -0.014420
vn -0.443266 -0.896047 0.024816
vn -0.489745 0.866210 -0.099142
vn -0.517028 0.852786 0.073739
vn -0.984255 0.049591 -0.169653
vn -0.984255 -0.049591 0.169653
vn -0.984255 0.049591 -0.169654
vn -0.984255 -0.049591 0.169653
vn -0.984255 0.049591 -0.169653
vn -0.984255 -0.049591 0.169653
vn -0.517028 -0.852786 -0.073739
vn -0.489745 -0.866210 0.099142
vn -0.525604 0.824210 -0.210756
vn -0.592354 0.781513 0.195844
vn -0.934578 0.099814 -0.341468
vn -0.934578 -0.099814 0.341468
vn -0.934578 0.099814 -0.341468
vn -0.934578 -0.099814 0.341468
vn -0.934578 0.099814 -0.341468
vn -0.934578 -0.099814 0.341468
vn -0.592353 -0.781513 -0.195845
vn -0.525604 -0.824210 0.210756
vn 0.376001 0.613405 0.694520
vn 0.311378 0.789063 -0.529550
vn 0.476376 -0.246686 0.843926
vn 0.476375 0.246687 -0.843927
vn 0.476374 -0.246687 0.843928
vn 0.476375 0.246687 -0.843927
vn 0.476373 -0.246687 0.843928
vn 0.476375 0.246687 -0.843927
vn 0.311378 -0.789063 0.529550
vn 0.376000 -0.613405 -0.694520
vn -0.543928 0.761770 -0.351922
vn -0.658239 0.657342 0.366910
vn -0.847454 0.148944 -0.509546
vn -0.847454 -0.148944 0.509546
vn -0.847454 0.148945 -0.509547
vn -0.847454 -0.148944 0.509546
vn -0.847454 0.148944 -0.509545
vn -0.847454 -0.148945 0.509546
vn -0.658240 -0.657342 -0.366910
vn -0.543928 -0.761770 0.351922
vn 0.350841 0.388093 0.852229
vn 0.298382 0.691369 -0.658010
vn 0.383343 -0.259134 0.886509
vn 0.383343 0.259134 -0.886509
vn 0.383346 -0.259133 0.886508
vn 0.383344 0.259134 -0.886509
vn 0.383345 -0.259134 0.886508
vn 0.383344 0.259134 -0.886508
vn 0.298379 -0.691369 0.658011
vn 0.350841 -0.388094 -0.852229
vn -0.449736 0.776057 -0.442124
vn -0.583743 0.639861 0.499821
vn -0.722845 0.193875 -0.663255
vn -0.722845 -0.193875 0.663255
vn -0.722846 0.193875 -0.663254
vn -0.722845 -0.193875 0.663255
vn -0.722845 0.193875 -0.663255
vn -0.722845 -0.193875 0.663255
vn -0.583744 -0.639861 -0.499820
vn -0.449737 -0.776057 0.442123
vn 0.224552 0.604733 0.764117
vn 0.190639 0.796287 -0.574094
vn 0.287619 -0.268712 0.919276
vn 0.287617 0.268712 -0.919277
vn 0.287616 -0.268712 0.919277
vn 0.287617 0.268712 -0.919277
vn 0.287617 -0.268712 0.919277
vn 0.287616 0.268712 -0.919277
vn 0.190641 -0.796287 0.574094
vn 0.224550 -0.604733 -0.764117
vn -0.289665 0.851324 -0.437425
vn -0.401198 0.752763 0.521908
vn -0.565411 0.231414 -0.791680
vn -0.565410 -0.231415 0.791681
vn -0.565411 0.231415 -0.791680
vn -0.565410 -0.231415 0.791681
vn -0.565409 0.231415 -0.791681
vn -0.565410 -0.231415 0.791681
vn -0.401198 -0.752763 -0.521908
vn -0.289664 -0.851324 0.437426
vn -0.221481 0.795601 -0.563883
vn -0.339965 0.612658 0.713494
vn -0.384562 0.258991 -0.886022
vn -0.384562 -0.258991 0.886022
vn -0.384562 0.258991 -0.886022
vn -0.384562 -0.258991 0.886022
vn -0.384562 0.258992 -0.886022
vn -0.384562 -0.258992 0.886022
vn -0.339963 -0.612658 -0.713495
vn -0.221482 -0.795601 0.563883
vn 0.145162 0.602132 0.785089
vn 0.129585 0.798522 -0.587853
vn 0.190895 -0.275408 0.942183
vn 0.190898 0.275408 -0.942183
vn 0.190899 -0.275408 0.942183
vn 0.190898 0.275408 -0.942183
vn 0.190899 -0.275408 0.942183
vn 0.190898 0.275408 -0.942183
vn 0.129585 -0.798521 0.587853
vn 0.145164 -0.602132 -0.785089
vn -0.100237 0.800012 -0.591552
vn -0.186263 0.605025 0.774113
vn -0.192885 0.275299 -0.941810
vn -0.192885 -0.275299 0.941810
vn -0.192886 0.275299 -0.941810
vn -0.192885 -0.275299 0.941810
vn -0.192886 0.275299 -0.941810
vn -0.192885 -0.275299 0.941810
vn -0.186263 -0.605025 -0.774113
vn -0.100238 -0.800012 0.591552
vn 0.065719 0.600671 0.796791
vn 0.069182 0.799868 -0.596175
vn 0.094821 -0.279303 0.955510
vn 0.094819 0.279303 -0.955510
vn 0.094815 -0.279303 0.955510
vn 0.094819 0.279303 -0.955510
vn 0.094819 -0.279303 0.955510
vn 0.094819 0.279303 -0.955510
vn 0.069184 -0.799868 0.596175
vn 0.065716 -0.600671 -0.796791
vn 0.019628 0.599944 0.799801
vn -0.016983 0.859644 -0.510611
vn -0.053154 0.600545 0.797822
vn 0.016720 0.731808 -0.681305
vn 0.023552 -0.280490 0.959568
vn -0.047867 0.280246 -0.958734
vn -0.047869 -0.280246 0.958734
vn 0.023550 0.280489 -0.959568
vn 0.023550 -0.280490 0.959568
vn -0.047871 0.280246 -0.958734
vn -0.047869 -0.280246 0.958734
vn 0.023550 0.280490 -0.959568
vn 0.023548 -0.280490 0.959568
vn -0.047873 0.280246 -0.958734
vn -0.047869 -0.280246 0.958734
vn 0.023550 0.280490 -0.959568
vn 0.019033 -0.630955 0.775586
vn -0.044748 -0.739526 -0.671639
vn -0.019930 -0.800362 0.599186
vn 0.015171 -0.785898 -0.618170
vn -0.013085 0.599909 0.799961
vn 0.023649 0.880387 -0.473666
vn 0.039875 0.600509 0.798623
vn -0.023283 0.702414 -0.711387
vn -0.023552 -0.280490 0.959568
vn 0.047867 0.280246 -0.958734
vn 0.047869 -0.280246 0.958734
vn -0.023550 0.280490 -0.959568
vn -0.023550 -0.280490 0.959568
vn 0.047871 0.280245 -0.958734
vn 0.047869 -0.280246 0.958734
vn -0.023550 0.280489 -0.959568
vn -0.023548 -0.280490 0.959568
vn 0.047873 0.280246 -0.958734
vn 0.047869 -0.280246 0.958734
vn -0.023550 0.280490 -0.959568
vn -0.019617 -0.800189 0.599426
vn 0.044777 -0.440204 -0.896781
vn 0.019332 -0.921800 0.387183
vn -0.015173 -0.373356 -0.927564
vn -0.065719 0.600671 0.796791
vn -0.069182 0.799868 -0.596175
vn -0.094821 -0.279303 0.955510
vn -0.094819 0.279303 -0.955510
vn -0.094815 -0.279303 0.955510
vn -0.094819 0.279303 -0.955510
vn -0.094819 -0.279303 0.955510
vn -0.094819 0.279303 -0.955510
vn -0.069184 -0.799868 0.596175
vn -0.065716 -0.600671 -0.796791
vn 0.100237 0.800012 -0.591552
vn 0.186264 0.605025 0.774113
vn 0.192885 0.275299 -0.941810
vn 0.192885 -0.275299 0.941810
vn 0.192886 0.275299 -0.941810
vn 0.192885 -0.275299 0.941810
vn 0.192886 0.275299 -0.941810
vn 0.192885 -0.275299 0.941810
vn 0.186263 -0.605025 -0.774113
vn 0.100238 -0.800012 0.591552
vn -0.145162 0.602132 0.785089
vn -0.129585 0.798522 -0.587853
vn -0.190895 -0.275408 0.942183
vn -0.190898 0.275408 -0.942183
vn -0.190899 -0.275408 0.942183
vn -0.190898 0.275408 -0.942183
vn -0.190899 -0.275408 0.942183
vn -0.190898 0.275408 -0.942183
vn -0.129585 -0.798521 0.587853
vn -0.145164 -0.602132 -0.785089
vn 0.221481 0.795601 -0.563883
vn 0.339965 0.612658 0.713494
vn 0.384562 0.258991 -0.886022
vn 0.384562 -0.258991 0.886022
vn 0.384562 0.258991 -0.886022
vn 0.384562 -0.258991 0.886022
vn 0.384562 0.258992 -0.886022
vn 0.384562 -0.258992 0.886022
vn 0.339963 -0.612658 -0.713495
vn 0.221482 -0.795601 0.563883
vn 0.289667 0.851324 -0.437424
vn 0.401202 0.752764 0.521903
vn 0.565417 0.231413 -0.791677
vn 0.565416 -0.231414 0.791677
vn 0.565417 0.231413 -0.791677
vn 0.565416 -0.231414 0.791677
vn 0.565415 0.231414 -0.791678
vn 0.565416 -0.231414 0.791677
vn 0.401202 -0.752764 -0.521903
vn 0.289666 -0.851324 0.437425
vn -0.224552 0.604733 0.764117
vn -0.190639 0.796287 -0.574094
vn -0.287619 -0.268712 0.919276
vn -0.287617 0.268712 -0.919277
vn -0.287616 -0.268712 0.919277
vn -0.287617 0.268712 -0.919277
vn -0.287617 -0.268712 0.919277
vn -0.287616 0.268712 -0.919277
vn -0.190641 -0.796287 0.574094
vn -0.224551 -0.604733 -0.764117
vn 0.449738 0.776056 -0.442123
vn 0.583741 0.639860 0.499826
vn 0.722844 0.193875 -0.663256
vn 0.722844 -0.193875 0.663256
vn 0.722845 0.193875 -0.663255
vn 0.722844 -0.193875 0.663256
vn 0.722844 0.193875 -0.663256
vn 0.722844 -0.193875 0.663256
vn 0.583742 -0.639860 -0.499825
vn 0.449739 -0.776056 0.442122
vn -0.350844 0.388094 0.852228
vn -0.298386 0.691369 -0.658009
vn -0.383347 -0.259133 0.886507
vn -0.383348 0.259133 -0.886507
vn -0.383350 -0.259133 0.886506
vn -0.383348 0.259133 -0.886507
vn -0.383349 -0.259133 0.886506
vn -0.383348 0.259133 -0.886507
vn -0.298383 -0.691369 0.658010
vn -0.350844 -0.388094 -0.852228
vn 0.543924 0.761771 -0.351927
vn 0.658238 0.657341 0.366914
vn 0.847450 0.148946 -0.509552
vn 0.847450 -0.148946 0.509553
vn 0.847449 0.148947 -0.509553
vn 0.847450 -0.148946 0.509552
vn 0.847450 0.148946 -0.509552
vn 0.847450 -0.148946 0.509552
vn 0.658238 -0.657341 -0.366913
vn 0.543923 -0.761771 0.351928
vn -0.376003 0.613405 0.694519
vn -0.311375 0.789063 -0.529551
vn -0.476376 -0.246687 0.843927
vn -0.476375 0.246687 -0.843927
vn -0.476373 -0.246687 0.843928
vn -0.476374 0.246687 -0.843927
vn -0.476373 -0.246687 0.843928
vn -0.476374 0.246687 -0.843927
vn -0.311376 -0.789063 0.529551
vn -0.376002 -0.613405 -0.694519
vn 0.525606 0.824210 -0.210753
vn 0.592355 0.781514 0.195836
vn 0.934582 0.099811 -0.341459
vn 0.934582 -0.099811 0.341459
vn 0.934582 0.099811 -0.341458
vn 0.934582 -0.099811 0.341459
vn 0.934582 0.099811 -0.341459
vn 0.934582 -0.099811 0.341459
vn 0.592355 -0.781514 -0.195836
vn 0.525606 -0.824210 0.210753
vn 0.489747 0.866210 -0.099139
vn 0.517029 0.852785 0.073744
vn 0.984255 0.049591 -0.169654
vn 0.984255 -0.049591 0.169654
vn 0.984255 0.049591 -0.169654
vn 0.984255 -0.049591 0.169654
vn 0.984255 0.049591 -0.169654
vn 0.984255 -0.049591 0.169654
vn 0.517029 -0.852786 -0.073744
vn 0.489747 -0.866210 0.099140
vn 0.443265 0.896047 -0.024822
vn 0.515819 0.856576 0.014424
vn 0.999045 0.012257 -0.041932
vn 0.999045 -0.012257 0.041932
vn 0.999045 0.012257 -0.041932
vn 0.999045 -0.012257 0.041932
vn 0.999045 0.012257 -0.041932
vn 0.999045 -0.012257 0.041932
vn 0.448187 -0.893852 -0.012533
vn 0.509642 -0.859913 0.028539
vn -0.444629 0.619386 0.647043
vn -0.369303 0.784102 -0.498799
vn -0.565017 -0.231490 0.791940
vn -0.565018 0.231490 -0.791939
vn -0.565019 -0.231490 0.791938
vn -0.565018 0.231490 -0.791939
vn -0.565019 -0.231490 0.791938
vn -0.565018 0.231490 -0.791939
vn -0.369302 -0.784102 0.498799
vn -0.444630 -0.619386 -0.647043
vn -0.506602 0.626331 0.592506
vn -0.424443 0.778307 -0.462694
vn -0.647709 -0.213761 0.731286
vn -0.647709 0.213761 -0.731286
vn -0.647708 -0.213761 0.731287
vn -0.647709 0.213761 -0.731286
vn -0.647707 -0.213761 0.731287
vn -0.647709 0.213761 -0.731286
vn -0.424443 -0.778307 0.462694
vn -0.506602 -0.626331 -0.592506
vn -0.654004 0.432448 0.620699
vn -0.563724 0.657948 -0.499320
vn -0.723096 -0.193801 0.663003
vn -0.723097 0.193801 -0.663002
vn -0.723097 -0.193801 0.663002
vn -0.723097 0.193801 -0.663002
vn -0.723097 -0.193801 0.663002
vn -0.723097 0.193801 -0.663002
vn -0.563724 -0.657948 0.499320
vn -0.654004 -0.432448 -0.620699
vn -0.606810 0.642510 0.467934
vn -0.523375 0.764571 -0.376179
vn -0.790124 -0.171973 0.588327
vn -0.790124 0.171973 -0.588328
vn -0.790124 -0.171973 0.588328
vn -0.790124 0.171973 -0.588328
vn -0.790124 -0.171973 0.588327
vn -0.790124 0.171973 -0.588328
vn -0.523376 -0.764571 0.376178
vn -0.606809 -0.642510 -0.467935
vn -0.752971 0.461961 0.468644
vn -0.669336 0.634416 -0.386660
vn -0.848036 -0.148684 0.508654
vn -0.848037 0.148683 -0.508652
vn -0.848037 -0.148683 0.508652
vn -0.848037 0.148683 -0.508652
vn -0.848037 -0.148683 0.508651
vn -0.848037 0.148683 -0.508652
vn -0.669335 -0.634416 0.386661
vn -0.752972 -0.461961 -0.468642
vn -0.787670 0.477482 0.389342
vn -0.713035 0.621509 -0.324511
vn -0.896425 -0.124346 0.425394
vn -0.896425 0.124346 -0.425394
vn -0.896426 -0.124346 0.425393
vn -0.896425 0.124346 -0.425394
vn -0.896425 -0.124346 0.425394
vn -0.896425 0.124346 -0.425394
vn -0.713035 -0.621509 0.324511
vn -0.787670 -0.477482 -0.389341
vn -0.693745 0.669915 0.264445
vn -0.635310 0.740299 -0.219858
vn -0.935178 -0.099371 0.339953
vn -0.935178 0.099371 -0.339953
vn -0.935178 -0.099371 0.339953
vn -0.935178 0.099371 -0.339953
vn -0.935177 -0.099371 0.339954
vn -0.935178 0.099371 -0.339953
vn -0.635310 -0.740299 0.219858
vn -0.693745 -0.669915 -0.264445
vn -0.829275 0.508648 0.231474
vn -0.780738 0.594350 -0.192866
vn -0.964447 -0.074147 0.253660
vn -0.964447 0.074147 -0.253660
vn -0.964447 -0.074147 0.253661
vn -0.964447 0.074147 -0.253660
vn -0.964447 -0.074147 0.253660
vn -0.964447 0.074147 -0.253660
vn -0.780738 -0.594350 0.192866
vn -0.829275 -0.508648 -0.231474
vn -0.837917 0.526637 0.143347
vn -0.810631 0.576394 -0.103185
vn -0.988148 -0.043069 0.147340
vn -0.988148 0.043069 -0.147340
vn -0.988148 -0.043069 0.147340
vn -0.988148 0.043069 -0.147340
vn -0.988148 -0.043069 0.147340
vn -0.988148 0.043069 -0.147340
vn -0.810631 -0.576394 0.103186
vn -0.837917 -0.526637 -0.143347
vn -0.836758 0.545565 0.046857
vn -0.703638 0.710286 -0.019676
vn -0.999045 -0.012257 0.041932
vn -0.999045 0.012257 -0.041932
vn -0.999045 -0.012257 0.041932
vn -0.999045 0.012257 -0.041932
vn -0.999045 -0.012257 0.041932
vn -0.999045 0.012257 -0.041932
vn -0.828361 -0.559715 0.023164
vn -0.711443 -0.701613 -0.039839

f 492//492 494//494 493//493
f 494//494 496//496 495//495
f 498//498 500//500 499//499
f 497//497 495//495 496//496
f 475//475 485//485 477//477
f 473//473 483//483 475//475
f 465//465 475//475 467//467
f 463//463 473//473 465//465
f 455//455 465//465 457//457
f 453//453 463//463 455//455
f 445//445 455//455 447//447
f 443//443 453//453 445//445
f 435//435 445//445 437//437
f 433//433 443//443 435//435
f 425//425 435//435 427//427
f 423//423 433//433 425//425
f 415//415 425//425 417//417
f 413//413 423//423 415//415
f 405//405 415//415 407//407
f 403//403 413//413 405//405
f 365//365 405//405 367//367
f 363//363 403//403 365//365
f 345//345 365//365 347//347
f 343//343 363//363 345//345
f 325//325 345//345 327//327
f 323//323 343//343 325//325
f 295//295 325//325 297//297
f 293//293 323//323 295//295
f 275//275 295//295 277//277
f 273//273 293//293 275//275
f 489//489 487//487 497//497
f 477//477 479//479 469//469
f 479//479 477//477 487//487
f 495//495 497//497 487//487
f 449//449 447//447 457//457
f 429//429 427//427 437//437
f 439//439 437//437 447//447
f 459//459 457//457 467//467
f 427//427 429//429 419//419
f 485//485 483//483 493//493
f 473//473 471//471 481//481
f 483//483 481//481 491//491
f 463//463 461//461 471//471
f 443//443 441//441 451//451
f 423//423 421//421 431//431
f 433//433 431//431 441//441
f 453//453 451//451 461//461
f 421//421 423//423 413//413
f 409//409 407//407 417//417
f 349//349 347//347 367//367
f 369//369 367//367 407//407
f 347//347 349//349 329//329
f 299//299 297//297 327//327
f 267//267 263//263 277//277
f 279//279 277//277 297//297
f 275//275 277//277 263//263
f 403//403 401//401 411//411
f 343//343 341//341 361//361
f 363//363 361//361 401//401
f 341//341 343//343 323//323
f 293//293 291//291 321//321
f 259//259 255//255 273//273
f 273//273 271//271 291//291
f 255//255 251//251 271//271
f 263//263 267//267 247//247
f 255//255 259//259 239//239
f 251//251 255//255 235//235
f 259//259 263//263 243//243
f 205//205 225//225 227//227
f 203//203 223//223 225//225
f 175//175 205//205 207//207
f 173//173 203//203 205//205
f 155//155 175//175 177//177
f 153//153 173//173 175//175
f 135//135 155//155 157//157
f 133//133 153//153 155//155
f 95//95 135//135 137//137
f 93//93 133//133 135//135
f 85//85 95//95 97//97
f 83//83 93//93 95//95
f 75//75 85//85 87//87
f 73//73 83//83 85//85
f 65//65 75//75 77//77
f 63//63 73//73 75//75
f 55//55 65//65 67//67
f 53//53 63//63 65//65
f 45//45 55//55 57//57
f 43//43 53//53 55//55
f 35//35 45//45 47//47
f 33//33 43//43 45//45
f 25//25 35//35 37//37
f 23//23 33//33 35//35
f 15//15 25//25 27//27
f 13//13 23//23 25//25
f 229//229 227//227 247//247
f 207//207 209//209 177//177
f 209//209 207//207 229//229
f 239//239 243//243 225//225
f 139//139 137//137 159//159
f 89//89 87//87 99//99
f 99//99 97//97 139//139
f 159//159 157//157 179//179
f 87//87 89//89 77//77
f 225//225 223//223 239//239
f 203//203 201//201 223//223
f 223//223 221//221 235//235
f 173//173 171//171 203//203
f 133//133 131//131 153//153
f 83//83 81//81 93//93
f 93//93 91//91 133//133
f 153//153 151//151 173//173
f 81//81 83//83 71//71
f 69//69 67//67 79//79
f 49//49 47//47 59//59
f 59//59 57//57 69//69
f 47//47 49//49 37//37
f 29//29 27//27 39//39
f 9//9 7//7 19//19
f 19//19 17//17 29//29
f 15//15 17//17 5//5
f 63//63 61//61 73//73
f 43//43 41//41 53//53
f 53//53 51//51 63//63
f 41//41 43//43 31//31
f 23//23 21//21 33//33
f 5//5 3//3 15//15
f 13//13 11//11 23//23
f 3//3 1//1 13//13
f 1//1 3//3 2//2
f 6//6 4//4 5//5
f 7//7 9//9 8//8
f 8//8 6//6 7//7
f 26//26 16//16 18//18
f 24//24 14//14 16//16
f 36//36 26//26 28//28
f 34//34 24//24 26//26
f 46//46 36//36 38//38
f 44//44 34//34 36//36
f 56//56 46//46 48//48
f 54//54 44//44 46//46
f 66//66 56//56 58//58
f 64//64 54//54 56//56
f 76//76 66//66 68//68
f 74//74 64//64 66//66
f 86//86 76//76 78//78
f 84//84 74//74 76//76
f 96//96 86//86 88//88
f 94//94 84//84 86//86
f 136//136 96//96 98//98
f 134//134 94//94 96//96
f 156//156 136//136 138//138
f 154//154 134//134 136//136
f 176//176 156//156 158//158
f 174//174 154//154 156//156
f 206//206 176//176 178//178
f 204//204 174//174 176//176
f 226//226 206//206 208//208
f 224//224 204//204 206//206
f 20//20 18//18 10//10
f 28//28 30//30 38//38
f 30//30 28//28 20//20
f 6//6 8//8 16//16
f 60//60 58//58 50//50
f 80//80 78//78 70//70
f 70//70 68//68 60//60
f 50//50 48//48 40//40
f 78//78 80//80 88//88
f 16//16 14//14 6//6
f 24//24 22//22 14//14
f 14//14 12//12 4//4
f 34//34 32//32 24//24
f 54//54 52//52 44//44
f 74//74 72//72 64//64
f 64//64 62//62 54//54
f 44//44 42//42 34//34
f 72//72 74//74 82//82
f 100//100 98//98 90//90
f 160//160 158//158 140//140
f 140//140 138//138 100//100
f 158//158 160//160 178//178
f 210//210 208//208 180//180
f 250//250 246//246 230//230
f 230//230 228//228 210//210
f 226//226 228//228 242//242
f 94//94 92//92 84//84
f 154//154 152//152 134//134
f 134//134 132//132 94//94
f 152//152 154//154 172//172
f 204//204 202//202 174//174
f 242//242 238//238 226//226
f 224//224 222//222 204//204
f 238//238 234//234 224//224
f 246//246 250//250 270//270
f 238//238 242//242 262//262
f 234//234 238//238 258//258
f 242//242 246//246 266//266
f 296//296 276//276 298//298
f 294//294 274//274 296//296
f 326//326 296//296 328//328
f 324//324 294//294 326//326
f 346//346 326//326 348//348
f 344//344 324//324 346//346
f 366//366 346//346 368//368
f 364//364 344//344 366//366
f 406//406 366//366 408//408
f 404//404 364//364 406//406
f 416//416 406//406 418//418
f 414//414 404//404 416//416
f 426//426 416//416 428//428
f 424//424 414//414 426//426
f 436//436 426//426 438//438
f 434//434 424//424 436//436
f 446//446 436//436 448//448
f 444//444 434//434 446//446
f 456//456 446//446 458//458
f 454//454 444//444 456//456
f 466//466 456//456 468//468
f 464//464 454//454 466//466
f 476//476 466//466 478//478
f 474//474 464//464 476//476
f 486//486 476//476 488//488
f 484//484 474//474 486//486
f 280//280 278//278 266//266
f 298//298 300//300 330//330
f 300//300 298//298 278//278
f 262//262 266//266 278//278
f 370//370 368//368 348//348
f 420//420 418//418 408//408
f 410//410 408//408 368//368
f 350//350 348//348 328//328
f 418//418 420//420 430//430
f 276//276 274//274 258//258
f 294//294 292//292 272//272
f 274//274 272//272 254//254
f 324//324 322//322 292//292
f 364//364 362//362 342//342
f 414//414 412//412 402//402
f 404//404 402//402 362//362
f 344//344 342//342 322//322
f 412//412 414//414 424//424
f 440//440 438//438 428//428
f 460//460 458//458 448//448
f 450//450 448//448 438//438
f 458//458 460//460 470//470
f 480//480 478//478 468//468
f 500//500 498//498 488//488
f 490//490 488//488 478//478
f 486//486 488//488 498//498
f 434//434 432//432 422//422
f 454//454 452//452 442//442
f 444//444 442//442 432//432
f 452//452 454//454 464//464
f 474//474 472//472 462//462
f 496//496 494//494 484//484
f 484//484 482//482 472//472
f 494//494 492//492 482//482
f 376//376 386//386 388//388
f 374//374 384//384 386//386
f 356//356 376//376 378//378
f 354//354 374//374 376//376
f 336//336 356//356 358//358
f 334//334 354//354 356//356
f 316//316 336//336 338//338
f 314//314 334//334 336//336
f 306//306 316//316 318//318
f 304//304 314//314 316//316
f 286//286 306//306 308//308
f 284//284 304//304 306//306
f 390//390 388//388 400//400
f 388//388 390//390 378//378
f 388//388 386//386 398//398
f 340//340 338//338 360//360
f 360//360 358//358 380//380
f 338//338 340//340 318//318
f 386//386 384//384 396//396
f 392//392 394//394 382//382
f 354//354 352//352 374//374
f 374//374 372//372 384//384
f 352//352 354//354 332//332
f 310//310 308//308 320//320
f 308//308 310//310 288//288
f 269//269 265//265 290//290
f 265//265 261//261 288//288
f 261//261 257//257 286//286
f 314//314 312//312 334//334
f 312//312 314//314 302//302
f 257//257 253//253 284//284
f 284//284 282//282 304//304
f 265//265 269//269 249//249
f 257//257 261//261 241//241
f 253//253 257//257 237//237
f 261//261 265//265 245//245
f 196//196 216//216 198//198
f 194//194 214//214 196//196
f 186//186 196//196 188//188
f 184//184 194//194 186//186
f 166//166 186//186 168//168
f 164//164 184//184 166//166
f 146//146 166//166 148//148
f 144//144 164//164 146//146
f 126//126 146//146 128//128
f 124//124 144//144 126//126
f 116//116 126//126 118//118
f 114//114 124//124 116//116
f 220//220 218//218 245//245
f 218//218 220//220 200//200
f 218//218 216//216 241//241
f 170//170 168//168 188//188
f 190//190 188//188 198//198
f 168//168 170//170 150//150
f 216//216 214//214 237//237
f 233//233 237//237 214//214
f 184//184 182//182 192//192
f 194//194 192//192 212//212
f 182//182 184//184 164//164
f 130//130 128//128 148//148
f 128//128 130//130 120//120
f 110//110 108//108 118//118
f 108//108 106//106 116//116
f 106//106 104//104 114//114
f 144//144 142//142 162//162
f 142//142 144//144 124//124
f 104//104 102//102 112//112
f 114//114 112//112 122//122
f 102//102 104//104 103//103
f 104//104 106//106 105//105
f 108//108 110//110 109//109
f 107//107 105//105 106//106
f 125//125 115//115 127//127
f 123//123 113//113 125//125
f 145//145 125//125 147//147
f 143//143 123//123 145//145
f 165//165 145//145 167//167
f 163//163 143//143 165//165
f 185//185 165//165 187//187
f 183//183 163//163 185//185
f 195//195 185//185 197//197
f 193//193 183//183 195//195
f 215//215 195//195 217//217
f 213//213 193//193 215//215
f 119//119 117//117 107//107
f 117//117 119//119 129//129
f 117//117 115//115 105//105
f 169//169 167//167 147//147
f 149//149 147//147 127//127
f 167//167 169//169 189//189
f 115//115 113//113 103//103
f 101//101 103//103 113//113
f 143//143 141//141 121//121
f 123//123 121//121 111//111
f 141//141 143//143 163//163
f 199//199 197//197 187//187
f 197//197 199//199 219//219
f 248//248 244//244 217//217
f 244//244 240//240 215//215
f 240//240 236//236 213//213
f 183//183 181//181 161//161
f 181//181 183//183 193//193
f 236//236 232//232 211//211
f 213//213 211//211 191//191
f 244//244 248//248 268//268
f 236//236 240//240 260//260
f 232//232 236//236 256//256
f 240//240 244//244 264//264
f 305//305 285//285 287//287
f 303//303 283//283 285//285
f 315//315 305//305 307//307
f 313//313 303//303 305//305
f 335//335 315//315 317//317
f 333//333 313//313 315//315
f 355//355 335//335 337//337
f 353//353 333//333 335//335
f 375//375 355//355 357//357
f 373//373 353//353 355//355
f 385//385 375//375 377//377
f 383//383 373//373 375//375
f 289//289 287//287 268//268
f 287//287 289//289 307//307
f 287//287 285//285 264//264
f 339//339 337//337 319//319
f 319//319 317//317 309//309
f 337//337 339//339 357//357
f 285//285 283//283 260//260
f 252//252 256//256 281//281
f 313//313 311//311 303//303
f 303//303 301//301 283//283
f 311//311 313//313 331//331
f 379//379 377//377 359//359
f 377//377 379//379 387//387
f 399//399 397//397 389//389
f 397//397 395//395 387//387
f 395//395 393//393 385//385
f 353//353 351//351 333//333
f 351//351 353//353 371//371
f 393//393 391//391 383//383
f 383//383 381//381 373//373
f 391//391 393//393 392//392
f 396//396 394//394 395//395
f 397//397 399//399 398//398
f 398//398 396//396 397//397
f 60//60 50//50 120//120
f 60//60 120//120 70//70
f 70//70 130//130 80//80
f 130//130 70//70 120//120
f 80//80 130//130 90//90
f 20//20 10//10 110//110
f 30//30 20//20 110//110
f 110//110 120//120 40//40
f 50//50 40//40 120//120
f 30//30 110//110 40//40
f 110//110 10//10 9//9
f 150//150 100//100 90//90
f 160//160 140//140 190//190
f 160//160 190//190 180//180
f 230//230 210//210 220//220
f 200//200 210//210 180//180
f 250//250 230//230 249//249
f 150//150 90//90 130//130
f 170//170 100//100 150//150
f 230//230 220//220 249//249
f 180//180 190//190 200//200
f 210//210 200//200 220//220
f 190//190 140//140 170//170
f 250//250 249//249 269//269
f 170//170 140//140 100//100
f 29//29 109//109 19//19
f 9//9 19//19 109//109
f 119//119 109//109 39//39
f 29//29 39//39 109//109
f 49//49 119//119 39//39
f 49//49 59//59 119//119
f 59//59 69//69 119//119
f 69//69 79//79 129//129
f 89//89 129//129 79//79
f 99//99 149//149 89//89
f 69//69 129//129 119//119
f 99//99 139//139 169//169
f 149//149 99//99 169//169
f 209//209 219//219 199//199
f 179//179 199//199 189//189
f 139//139 189//189 169//169
f 159//159 179//179 189//189
f 189//189 139//139 159//159
f 209//209 229//229 219//219
f 199//199 179//179 209//209
f 248//248 229//229 247//247
f 248//248 247//247 267//267
f 229//229 248//248 219//219
f 129//129 89//89 149//149
f 270//270 269//269 280//280
f 280//280 290//290 300//300
f 350//350 330//330 320//320
f 310//310 330//330 300//300
f 370//370 350//350 320//320
f 280//280 269//269 290//290
f 300//300 290//290 310//310
f 370//370 320//320 340//340
f 340//340 360//360 410//410
f 320//320 330//330 310//310
f 410//410 370//370 340//340
f 420//420 360//360 380//380
f 420//420 380//380 430//430
f 450//450 440//440 390//390
f 380//380 440//440 430//430
f 460//460 450//450 390//390
f 390//390 440//440 380//380
f 470//470 390//390 400//400
f 480//480 400//400 490//490
f 490//490 400//400 500//500
f 470//470 400//400 480//480
f 390//390 470//470 460//460
f 399//399 499//499 500//500
f 410//410 360//360 420//420
f 299//299 309//309 289//289
f 279//279 289//289 268//268
f 409//409 339//339 369//369
f 369//369 339//339 319//319
f 329//329 319//319 309//309
f 279//279 299//299 289//289
f 268//268 267//267 279//279
f 329//329 349//349 319//319
f 309//309 299//299 329//329
f 349//349 369//369 319//319
f 409//409 359//359 339//339
f 399//399 389//389 469//469
f 389//389 379//379 439//439
f 479//479 489//489 399//399
f 499//499 399//399 489//489
f 399//399 469//469 479//479
f 419//419 429//429 379//379
f 419//419 359//359 409//409
f 389//389 449//449 459//459
f 449//449 389//389 439//439
f 379//379 429//429 439//439
f 389//389 459//459 469//469
f 379//379 359//359 419//419
f 52//52 112//112 42//42
f 52//52 62//62 112//112
f 62//62 72//72 122//122
f 122//122 112//112 62//62
f 72//72 82//82 122//122
f 12//12 102//102 2//2
f 22//22 102//102 12//12
f 102//102 32//32 112//112
f 42//42 112//112 32//32
f 22//22 32//32 102//102
f 102//102 101//101 1//1
f 142//142 82//82 92//92
f 152//152 182//182 132//132
f 152//152 172//172 182//182
f 222//222 212//212 202//202
f 192//192 172//172 202//202
f 234//234 233//233 222//222
f 142//142 122//122 82//82
f 162//162 142//142 92//92
f 222//222 233//233 212//212
f 172//172 192//192 182//182
f 202//202 212//212 192//192
f 182//182 162//162 132//132
f 234//234 254//254 253//253
f 162//162 92//92 132//132
f 21//21 11//11 101//101
f 1//1 101//101 11//11
f 111//111 31//31 101//101
f 21//21 101//101 31//31
f 41//41 31//31 111//111
f 41//41 111//111 51//51
f 51//51 111//111 61//61
f 61//61 121//121 71//71
f 81//81 71//71 121//121
f 91//91 81//81 141//141
f 61//61 111//111 121//121
f 91//91 161//161 131//131
f 141//141 161//161 91//91
f 201//201 191//191 211//211
f 171//171 181//181 191//191
f 131//131 161//161 181//181
f 151//151 181//181 171//171
f 181//181 151//151 131//131
f 201//201 211//211 221//221
f 191//191 201//201 171//171
f 232//232 231//231 221//221
f 232//232 252//252 251//251
f 221//221 211//211 232//232
f 121//121 141//141 81//81
f 254//254 272//272 253//253
f 272//272 292//292 282//282
f 342//342 312//312 322//322
f 302//302 292//292 322//322
f 362//362 312//312 342//342
f 272//272 282//282 253//253
f 292//292 302//302 282//282
f 362//362 332//332 312//312
f 332//332 402//402 352//352
f 312//312 302//302 322//322
f 402//402 332//332 362//362
f 412//412 372//372 352//352
f 412//412 422//422 372//372
f 442//442 382//382 432//432
f 372//372 422//422 432//432
f 452//452 382//382 442//442
f 382//382 372//372 432//432
f 462//462 392//392 382//382
f 472//472 482//482 392//392
f 482//482 492//492 392//392
f 462//462 472//472 392//392
f 382//382 452//452 462//462
f 391//391 392//392 492//492
f 402//402 412//412 352//352
f 291//291 281//281 301//301
f 271//271 252//252 281//281
f 401//401 361//361 331//331
f 361//361 311//311 331//331
f 321//321 301//301 311//311
f 271//271 281//281 291//291
f 252//252 271//271 251//251
f 321//321 311//311 341//341
f 301//301 321//321 291//291
f 341//341 311//311 361//361
f 401//401 331//331 351//351
f 391//391 461//461 381//381
f 381//381 431//431 371//371
f 471//471 391//391 481//481
f 491//491 481//481 391//391
f 391//391 471//471 461//461
f 411//411 371//371 421//421
f 411//411 401//401 351//351
f 381//381 451//451 441//441
f 441//441 431//431 381//381
f 371//371 431//431 421//421
f 381//381 461//461 451//451
f 371//371 411//411 351//351
f 492//492 493//493 491//491
f 494//494 495//495 493//493
f 498//498 499//499 497//497
f 497//497 496//496 498//498
f 485//485 487//487 477//477
f 483//483 485//485 475//475
f 475//475 477//477 467//467
f 473//473 475//475 465//465
f 465//465 467//467 457//457
f 463//463 465//465 455//455
f 455//455 457//457 447//447
f 453//453 455//455 445//445
f 445//445 447//447 437//437
f 443//443 445//445 435//435
f 435//435 437//437 427//427
f 433//433 435//435 425//425
f 425//425 427//427 417//417
f 423//423 425//425 415//415
f 415//415 417//417 407//407
f 413//413 415//415 405//405
f 405//405 407//407 367//367
f 403//403 405//405 365//365
f 365//365 367//367 347//347
f 363//363 365//365 345//345
f 345//345 347//347 327//327
f 343//343 345//345 325//325
f 325//325 327//327 297//297
f 323//323 325//325 295//295
f 295//295 297//297 277//277
f 293//293 295//295 275//275
f 489//489 497//497 499//499
f 477//477 469//469 467//467
f 479//479 487//487 489//489
f 495//495 487//487 485//485
f 449//449 457//457 459//459
f 429//429 437//437 439//439
f 439//439 447//447 449//449
f 459//459 467//467 469//469
f 427//427 419//419 417//417
f 485//485 493//493 495//495
f 473//473 481//481 483//483
f 483//483 491//491 493//493
f 463//463 471//471 473//473
f 443//443 451//451 453//453
f 423//423 431//431 433//433
f 433//433 441//441 443//443
f 453//453 461//461 463//463
f 421//421 413//413 411//411
f 409//409 417//417 419//419
f 349//349 367//367 369//369
f 369//369 407//407 409//409
f 347//347 329//329 327//327
f 299//299 327//327 329//329
f 267//267 277//277 279//279
f 279//279 297//297 299//299
f 275//275 263//263 259//259
f 403//403 411//411 413//413
f 343//343 361//361 363//363
f 363//363 401//401 403//403
f 341//341 323//323 321//321
f 293//293 321//321 323//323
f 259//259 273//273 275//275
f 273//273 291//291 293//293
f 255//255 271//271 273//273
f 263//263 247//247 243//243
f 255//255 239//239 235//235
f 251//251 235//235 231//231
f 259//259 243//243 239//239
f 205//205 227//227 207//207
f 203//203 225//225 205//205
f 175//175 207//207 177//177
f 173//173 205//205 175//175
f 155//155 177//177 157//157
f 153//153 175//175 155//155
f 135//135 157//157 137//137
f 133//133 155//155 135//135
f 95//95 137//137 97//97
f 93//93 135//135 95//95
f 85//85 97//97 87//87
f 83//83 95//95 85//85
f 75//75 87//87 77//77
f 73//73 85//85 75//75
f 65//65 77//77 67//67
f 63//63 75//75 65//65
f 55//55 67//67 57//57
f 53//53 65//65 55//55
f 45//45 57//57 47//47
f 43//43 55//55 45//45
f 35//35 47//47 37//37
f 33//33 45//45 35//35
f 25//25 37//37 27//27
f 23//23 35//35 25//25
f 15//15 27//27 17//17
f 13//13 25//25 15//15
f 227//227 243//243 247//247
f 209//209 179//179 177//177
f 207//207 227//227 229//229
f 243//243 227//227 225//225
f 137//137 157//157 159//159
f 87//87 97//97 99//99
f 97//97 137//137 139//139
f 157//157 177//177 179//179
f 89//89 79//79 77//77
f 223//223 235//235 239//239
f 201//201 221//221 223//223
f 221//221 231//231 235//235
f 171//171 201//201 203//203
f 131//131 151//151 153//153
f 81//81 91//91 93//93
f 91//91 131//131 133//133
f 151//151 171//171 173//173
f 83//83 73//73 71//71
f 67//67 77//77 79//79
f 47//47 57//57 59//59
f 57//57 67//67 69//69
f 49//49 39//39 37//37
f 27//27 37//37 39//39
f 7//7 17//17 19//19
f 17//17 27//27 29//29
f 17//17 7//7 5//5
f 61//61 71//71 73//73
f 41//41 51//51 53//53
f 51//51 61//61 63//63
f 43//43 33//33 31//31
f 21//21 31//31 33//33
f 3//3 13//13 15//15
f 11//11 21//21 23//23
f 1//1 11//11 13//13
f 3//3 4//4 2//2
f 4//4 3//3 5//5
f 9//9 10//10 8//8
f 6//6 5//5 7//7
f 26//26 18//18 28//28
f 24//24 16//16 26//26
f 36//36 28//28 38//38
f 34//34 26//26 36//36
f 46//46 38//38 48//48
f 44//44 36//36 46//46
f 56//56 48//48 58//58
f 54//54 46//46 56//56
f 66//66 58//58 68//68
f 64//64 56//56 66//66
f 76//76 68//68 78//78
f 74//74 66//66 76//76
f 86//86 78//78 88//88
f 84//84 76//76 86//86
f 96//96 88//88 98//98
f 94//94 86//86 96//96
f 136//136 98//98 138//138
f 134//134 96//96 136//136
f 156//156 138//138 158//158
f 154//154 136//136 156//156
f 176//176 158//158 178//178
f 174//174 156//156 176//176
f 206//206 178//178 208//208
f 204//204 176//176 206//206
f 226//226 208//208 228//228
f 224//224 206//206 226//226
f 18//18 8//8 10//10
f 30//30 40//40 38//38
f 28//28 18//18 20//20
f 8//8 18//18 16//16
f 58//58 48//48 50//50
f 78//78 68//68 70//70
f 68//68 58//58 60//60
f 48//48 38//38 40//40
f 80//80 90//90 88//88
f 14//14 4//4 6//6
f 22//22 12//12 14//14
f 12//12 2//2 4//4
f 32//32 22//22 24//24
f 52//52 42//42 44//44
f 72//72 62//62 64//64
f 62//62 52//52 54//54
f 42//42 32//32 34//34
f 74//74 84//84 82//82
f 98//98 88//88 90//90
f 158//158 138//138 140//140
f 138//138 98//98 100//100
f 160//160 180//180 178//178
f 208//208 178//178 180//180
f 246//246 228//228 230//230
f 228//228 208//208 210//210
f 228//228 246//246 242//242
f 92//92 82//82 84//84
f 152//152 132//132 134//134
f 132//132 92//92 94//94
f 154//154 174//174 172//172
f 202//202 172//172 174//174
f 238//238 224//224 226//226
f 222//222 202//202 204//204
f 234//234 222//222 224//224
f 246//246 270//270 266//266
f 238//238 262//262 258//258
f 234//234 258//258 254//254
f 242//242 266//266 262//262
f 276//276 278//278 298//298
f 274//274 276//276 296//296
f 296//296 298//298 328//328
f 294//294 296//296 326//326
f 326//326 328//328 348//348
f 324//324 326//326 346//346
f 346//346 348//348 368//368
f 344//344 346//346 366//366
f 366//366 368//368 408//408
f 364//364 366//366 406//406
f 406//406 408//408 418//418
f 404//404 406//406 416//416
f 416//416 418//418 428//428
f 414//414 416//416 426//426
f 426//426 428//428 438//438
f 424//424 426//426 436//436
f 436//436 438//438 448//448
f 434//434 436//436 446//446
f 446//446 448//448 458//458
f 444//444 446//446 456//456
f 456//456 458//458 468//468
f 454//454 456//456 466//466
f 466//466 468//468 478//478
f 464//464 466//466 476//476
f 476//476 478//478 488//488
f 474//474 476//476 486//486
f 280//280 266//266 270//270
f 298//298 330//330 328//328
f 300//300 278//278 280//280
f 262//262 278//278 276//276
f 370//370 348//348 350//350
f 420//420 408//408 410//410
f 410//410 368//368 370//370
f 350//350 328//328 330//330
f 418//418 430//430 428//428
f 276//276 258//258 262//262
f 294//294 272//272 274//274
f 274//274 254//254 258//258
f 324//324 292//292 294//294
f 364//364 342//342 344//344
f 414//414 402//402 404//404
f 404//404 362//362 364//364
f 344//344 322//322 324//324
f 412//412 424//424 422//422
f 440//440 428//428 430//430
f 460//460 448//448 450//450
f 450//450 438//438 440//440
f 458//458 470//470 468//468
f 480//480 468//468 470//470
f 500//500 488//488 490//490
f 490//490 478//478 480//480
f 486//486 498//498 496//496
f 434//434 422//422 424//424
f 454//454 442//442 444//444
f 444//444 432//432 434//434
f 452//452 464//464 462//462
f 474//474 462//462 464//464
f 496//496 484//484 486//486
f 484//484 472//472 474//474
f 494//494 482//482 484//484
f 376//376 388//388 378//378
f 374//374 386//386 376//376
f 356//356 378//378 358//358
f 354//354 376//376 356//356
f 336//336 358//358 338//338
f 334//334 356//356 336//336
f 316//316 338//338 318//318
f 314//314 336//336 316//316
f 306//306 318//318 308//308
f 304//304 316//316 306//306
f 286//286 308//308 288//288
f 284//284 306//306 286//286
f 388//388 398//398 400//400
f 390//390 380//380 378//378
f 386//386 396//396 398//398
f 338//338 358//358 360//360
f 358//358 378//378 380//380
f 340//340 320//320 318//318
f 384//384 394//394 396//396
f 394//394 384//384 382//382
f 352//352 372//372 374//374
f 372//372 382//382 384//384
f 354//354 334//334 332//332
f 308//308 318//318 320//320
f 310//310 290//290 288//288
f 265//265 288//288 290//290
f 261//261 286//286 288//288
f 257//257 284//284 286//286
f 312//312 332//332 334//334
f 314//314 304//304 302//302
f 253//253 282//282 284//284
f 282//282 302//302 304//304
f 265//265 249//249 245//245
f 257//257 241//241 237//237
f 253//253 237//237 233//233
f 261//261 245//245 241//241
f 216//216 218//218 198//198
f 214//214 216//216 196//196
f 196//196 198//198 188//188
f 194//194 196//196 186//186
f 186//186 188//188 168//168
f 184//184 186//186 166//166
f 166//166 168//168 148//148
f 164//164 166//166 146//146
f 146//146 148//148 128//128
f 144//144 146//146 126//126
f 126//126 128//128 118//118
f 124//124 126//126 116//116
f 220//220 245//245 249//249
f 218//218 200//200 198//198
f 218//218 241//241 245//245
f 170//170 188//188 190//190
f 190//190 198//198 200//200
f 168//168 150//150 148//148
f 216//216 237//237 241//241
f 233//233 214//214 212//212
f 184//184 192//192 194//194
f 194//194 212//212 214//214
f 182//182 164//164 162//162
f 130//130 148//148 150//150
f 128//128 120//120 118//118
f 110//110 118//118 120//120
f 108//108 116//116 118//118
f 106//106 114//114 116//116
f 144//144 162//162 164//164
f 142//142 124//124 122//122
f 104//104 112//112 114//114
f 114//114 122//122 124//124
f 102//102 103//103 101//101
f 104//104 105//105 103//103
f 108//108 109//109 107//107
f 107//107 106//106 108//108
f 115//115 117//117 127//127
f 113//113 115//115 125//125
f 125//125 127//127 147//147
f 123//123 125//125 145//145
f 145//145 147//147 167//167
f 143//143 145//145 165//165
f 165//165 167//167 187//187
f 163//163 165//165 185//185
f 185//185 187//187 197//197
f 183//183 185//185 195//195
f 195//195 197//197 217//217
f 193//193 195//195 215//215
f 119//119 107//107 109//109
f 117//117 129//129 127//127
f 117//117 105//105 107//107
f 169//169 147//147 149//149
f 149//149 127//127 129//129
f 167//167 189//189 187//187
f 115//115 103//103 105//105
f 101//101 113//113 111//111
f 143//143 121//121 123//123
f 123//123 111//111 113//113
f 141//141 163//163 161//161
f 199//199 187//187 189//189
f 197//197 219//219 217//217
f 248//248 217//217 219//219
f 244//244 215//215 217//217
f 240//240 213//213 215//215
f 183//183 161//161 163//163
f 181//181 193//193 191//191
f 236//236 211//211 213//213
f 213//213 191//191 193//193
f 244//244 268//268 264//264
f 236//236 260//260 256//256
f 232//232 256//256 252//252
f 240//240 264//264 260//260
f 305//305 287//287 307//307
f 303//303 285//285 305//305
f 315//315 307//307 317//317
f 313//313 305//305 315//315
f 335//335 317//317 337//337
f 333//333 315//315 335//335
f 355//355 337//337 357//357
f 353//353 335//335 355//355
f 375//375 357//357 377//377
f 373//373 355//355 375//375
f 385//385 377//377 387//387
f 383//383 375//375 385//385
f 287//287 264//264 268//268
f 289//289 309//309 307//307
f 285//285 260//260 264//264
f 337//337 317//317 319//319
f 317//317 307//307 309//309
f 339//339 359//359 357//357
f 283//283 256//256 260//260
f 256//256 283//283 281//281
f 311//311 301//301 303//303
f 301//301 281//281 283//283
f 313//313 333//333 331//331
f 377//377 357//357 359//359
f 379//379 389//389 387//387
f 397//397 387//387 389//389
f 395//395 385//385 387//387
f 393//393 383//383 385//385
f 351//351 331//331 333//333
f 353//353 373//373 371//371
f 391//391 381//381 383//383
f 381//381 371//371 373//373
f 393//393 394//394 392//392
f 394//394 393//393 395//395
f 399//399 400//400 398//398
f 396//396 395//395 397//397
f 110//110 9//9 109//109
f 250//250 269//269 270//270
f 248//248 267//267 268//268
f 399//399 500//500 400//400
f 102//102 1//1 2//2
f 234//234 253//253 233//233
f 232//232 251//251 231//231
f 391//391 492//492 491//491