# PHANTOM Module: L15_12
# Units: meters
o L15_12

v 1.300000 1.200000 2.611460
v 1.300000 1.200000 0.587133
v 1.300000 0.800000 2.494537
v 1.300000 0.800000 0.470210
v 1.300000 0.400000 2.377614
v 1.300000 0.400000 0.353287
v 1.300000 0.000000 2.260690
v 1.300000 0.000000 0.236364
v 1.299124 1.200000 2.632698
v 1.299124 1.200000 0.565895
v 1.299124 0.800000 2.515775
v 1.299124 0.800000 0.448972
v 1.299124 0.400000 2.398852
v 1.299124 0.400000 0.332049
v 1.299124 0.000000 2.281929
v 1.299124 0.000000 0.215125
v 1.296383 1.200000 2.654469
v 1.296383 1.200000 0.544124
v 1.296383 0.800000 2.537546
v 1.296383 0.800000 0.427201
v 1.296383 0.400000 2.420623
v 1.296383 0.400000 0.310277
v 1.296383 0.000000 2.303700
v 1.296383 0.000000 0.193354
v 1.291636 1.200000 2.676497
v 1.291636 1.200000 0.522096
v 1.291636 0.800000 2.559574
v 1.291636 0.800000 0.405173
v 1.291636 0.400000 2.442651
v 1.291636 0.400000 0.288250
v 1.291636 0.000000 2.325727
v 1.291636 0.000000 0.171326
v 1.284788 1.200000 2.698464
v 1.284788 1.200000 0.500129
v 1.284788 0.800000 2.581541
v 1.284788 0.800000 0.383206
v 1.284788 0.400000 2.464618
v 1.284788 0.400000 0.266283
v 1.284788 0.000000 2.347694
v 1.284788 0.000000 0.149359
v 1.275795 1.200000 2.720021
v 1.275795 1.200000 0.478573
v 1.275795 0.800000 2.603097
v 1.275795 0.800000 0.361650
v 1.275795 0.400000 2.486174
v 1.275795 0.400000 0.244726
v 1.275795 0.000000 2.369251
v 1.275795 0.000000 0.127803
v 1.264683 1.200000 2.740801
v 1.264683 1.200000 0.457793
v 1.264683 0.800000 2.623877
v 1.264683 0.800000 0.340870
v 1.264683 0.400000 2.506954
v 1.264683 0.400000 0.223946
v 1.264683 0.000000 2.390031
v 1.264683 0.000000 0.107023
v 1.251543 1.200000 2.760440
v 1.251543 1.200000 0.438154
v 1.251543 0.800000 2.643516
v 1.251543 0.800000 0.321231
v 1.251543 0.400000 2.526593
v 1.251543 0.400000 0.204307
v 1.251543 0.000000 2.409670
v 1.251543 0.000000 0.087384
v 1.236540 1.200000 2.778594
v 1.236540 1.200000 0.419999
v 1.236540 0.800000 2.661671
v 1.236540 0.800000 0.303076
v 1.236540 0.400000 2.544748
v 1.236540 0.400000 0.186153
v 1.236540 0.000000 2.427824
v 1.236540 0.000000 0.069229
v 1.219898 1.200000 2.794962
v 1.219898 1.200000 0.403632
v 1.219898 0.800000 2.678038
v 1.219898 0.800000 0.286709
v 1.219898 0.400000 2.561115
v 1.219898 0.400000 0.169785
v 1.219898 0.000000 2.444192
v 1.219898 0.000000 0.052862
v 1.201895 1.200000 2.809295
v 1.201895 1.200000 0.389298
v 1.201895 0.800000 2.692372
v 1.201895 0.800000 0.272375
v 1.201895 0.400000 2.575449
v 1.201895 0.400000 0.155452
v 1.201895 0.000000 2.458525
v 1.201895 0.000000 0.038528
v 1.191667 1.200000 2.611460
v 1.191667 1.200000 0.587133
v 1.191667 0.800000 2.494537
v 1.191667 0.800000 0.470210
v 1.191667 0.400000 2.377614
v 1.191667 0.400000 0.353287
v 1.191667 0.000000 2.260690
v 1.191667 0.000000 0.236364
v 1.189858 1.200000 2.632965
v 1.189858 1.200000 0.565629
v 1.189858 0.800000 2.516042
v 1.189858 0.800000 0.448705
v 1.189858 0.400000 2.399118
v 1.189858 0.400000 0.331782
v 1.189858 0.000000 2.282195
v 1.189858 0.000000 0.214859
v 1.184061 1.200000 2.654962
v 1.184061 1.200000 0.543631
v 1.184061 0.800000 2.538039
v 1.184061 0.800000 0.426708
v 1.184061 0.400000 2.421116
v 1.184061 0.400000 0.309785
v 1.184061 0.000000 2.304192
v 1.184061 0.000000 0.192862
v 1.182847 1.200000 2.821418
v 1.182847 1.200000 0.377175
v 1.182847 0.800000 2.704495
v 1.182847 0.800000 0.260252
v 1.182847 0.400000 2.587571
v 1.182847 0.400000 0.143329
v 1.182847 0.000000 2.470648
v 1.182847 0.000000 0.026406
v 1.174008 1.200000 2.676130
v 1.174008 1.200000 0.522463
v 1.174008 0.800000 2.559207
v 1.174008 0.800000 0.405540
v 1.174008 0.400000 2.442284
v 1.174008 0.400000 0.288617
v 1.174008 0.000000 2.325360
v 1.174008 0.000000 0.171693
v 1.163087 1.200000 2.831228
v 1.163087 1.200000 0.367365
v 1.163087 0.800000 2.714305
v 1.163087 0.800000 0.250442
v 1.163087 0.400000 2.597382
v 1.163087 0.400000 0.133519
v 1.163087 0.000000 2.480458
v 1.163087 0.000000 0.016595
v 1.159937 1.200000 2.695027
v 1.159937 1.200000 0.503566
v 1.159937 0.800000 2.578104
v 1.159937 0.800000 0.386643
v 1.159937 0.400000 2.461181
v 1.159937 0.400000 0.269720
v 1.159937 0.000000 2.344257
v 1.159937 0.000000 0.152796
v 1.142951 1.200000 2.838700
v 1.142951 1.200000 0.359894
v 1.142951 0.800000 2.721776
v 1.142951 0.800000 0.242970
v 1.142951 0.400000 2.604853
v 1.142951 0.400000 0.126047
v 1.142951 0.000000 2.487930
v 1.142951 0.000000 0.009124
v 1.142615 1.200000 2.710378
v 1.142615 1.200000 0.488216
v 1.142615 0.800000 2.593454
v 1.142615 0.800000 0.371293
v 1.142615 0.400000 2.476531
v 1.142615 0.400000 0.254369
v 1.142615 0.000000 2.359608
v 1.142615 0.000000 0.137446
v 1.123210 1.200000 2.721344
v 1.123210 1.200000 0.477249
v 1.123210 0.800000 2.604421
v 1.123210 0.800000 0.360326
v 1.123210 0.400000 2.487498
v 1.123210 0.400000 0.243403
v 1.123210 0.000000 2.370574
v 1.123210 0.000000 0.126480
v 1.122759 1.200000 2.843878
v 1.122759 1.200000 0.354716
v 1.122759 0.800000 2.726954
v 1.122759 0.800000 0.237793
v 1.122759 0.400000 2.610031
v 1.122759 0.400000 0.120869
v 1.122759 0.000000 2.493108
v 1.122759 0.000000 0.003946
v 1.103046 1.200000 2.727669
v 1.103046 1.200000 0.470925
v 1.103046 0.800000 2.610746
v 1.103046 0.800000 0.354001
v 1.103046 0.400000 2.493822
v 1.103046 0.400000 0.237078
v 1.103046 0.000000 2.376899
v 1.103046 0.000000 0.120155
v 1.102802 1.200000 2.846868
v 1.102802 1.200000 0.351726
v 1.102802 0.800000 2.729944
v 1.102802 0.800000 0.234803
v 1.102802 0.400000 2.613021
v 1.102802 0.400000 0.117879
v 1.102802 0.000000 2.496098
v 1.102802 0.000000 0.000956
v 1.083333 1.200000 2.847824
v 1.083333 1.200000 2.729642
v 1.083333 1.200000 0.468952
v 1.083333 1.200000 0.350770
v 1.083333 0.800000 2.730900
v 1.083333 0.800000 2.612719
v 1.083333 0.800000 0.352028
v 1.083333 0.800000 0.233847
v 1.083333 0.400000 2.613977
v 1.083333 0.400000 2.495795
v 1.083333 0.400000 0.235105
v 1.083333 0.400000 0.116923
v 1.083333 0.000000 2.497054
v 1.083333 0.000000 2.378872
v 1.083333 0.000000 0.118182
v 1.083333 0.000000 0.000000
v 0.216667 1.200000 2.847824
v 0.216667 1.200000 2.729642
v 0.216667 1.200000 0.468952
v 0.216667 1.200000 0.350770
v 0.216667 0.800000 2.730900
v 0.216667 0.800000 2.612719
v 0.216667 0.800000 0.352028
v 0.216667 0.800000 0.233847
v 0.216667 0.400000 2.613977
v 0.216667 0.400000 2.495795
v 0.216667 0.400000 0.235105
v 0.216667 0.400000 0.116923
v 0.216667 0.000000 2.497054
v 0.216667 0.000000 2.378872
v 0.216667 0.000000 0.118182
v 0.216667 0.000000 0.000000
v 0.197198 1.200000 2.846868
v 0.197198 1.200000 0.351726
v 0.197198 0.800000 2.729944
v 0.197198 0.800000 0.234803
v 0.197198 0.400000 2.613021
v 0.197198 0.400000 0.117879
v 0.197198 0.000000 2.496098
v 0.197198 0.000000 0.000956
v 0.196954 1.200000 2.727669
v 0.196954 1.200000 0.470925
v 0.196954 0.800000 2.610746
v 0.196954 0.800000 0.354001
v 0.196954 0.400000 2.493822
v 0.196954 0.400000 0.237078
v 0.196954 0.000000 2.376899
v 0.196954 0.000000 0.120155
v 0.177241 1.200000 2.843878
v 0.177241 1.200000 0.354716
v 0.177241 0.800000 2.726954
v 0.177241 0.800000 0.237793
v 0.177241 0.400000 2.610031
v 0.177241 0.400000 0.120869
v 0.177241 0.000000 2.493108
v 0.177241 0.000000 0.003946
v 0.176790 1.200000 2.721344
v 0.176790 1.200000 0.477249
v 0.176790 0.800000 2.604421
v 0.176790 0.800000 0.360326
v 0.176790 0.400000 2.487498
v 0.176790 0.400000 0.243403
v 0.176790 0.000000 2.370574
v 0.176790 0.000000 0.126480
v 0.157386 1.200000 2.710378
v 0.157386 1.200000 0.488216
v 0.157386 0.800000 2.593454
v 0.157386 0.800000 0.371293
v 0.157386 0.400000 2.476531
v 0.157386 0.400000 0.254369
v 0.157386 0.000000 2.359608
v 0.157386 0.000000 0.137446
v 0.157049 1.200000 2.838700
v 0.157049 1.200000 0.359894
v 0.157049 0.800000 2.721776
v 0.157049 0.800000 0.242970
v 0.157049 0.400000 2.604853
v 0.157049 0.400000 0.126047
v 0.157049 0.000000 2.487930
v 0.157049 0.000000 0.009124
v 0.140064 1.200000 2.695027
v 0.140064 1.200000 0.503566
v 0.140064 0.800000 2.578104
v 0.140064 0.800000 0.386643
v 0.140064 0.400000 2.461181
v 0.140064 0.400000 0.269720
v 0.140064 0.000000 2.344257
v 0.140064 0.000000 0.152796
v 0.136913 1.200000 2.831228
v 0.136913 1.200000 0.367365
v 0.136913 0.800000 2.714305
v 0.136913 0.800000 0.250442
v 0.136913 0.400000 2.597382
v 0.136913 0.400000 0.133519
v 0.136913 0.000000 2.480458
v 0.136913 0.000000 0.016595
v 0.125992 1.200000 2.676130
v 0.125992 1.200000 0.522463
v 0.125992 0.800000 2.559207
v 0.125992 0.800000 0.405540
v 0.125992 0.400000 2.442284
v 0.125992 0.400000 0.288617
v 0.125992 0.000000 2.325360
v 0.125992 0.000000 0.171693
v 0.117153 1.200000 2.821418
v 0.117153 1.200000 0.377175
v 0.117153 0.800000 2.704495
v 0.117153 0.800000 0.260252
v 0.117153 0.400000 2.587571
v 0.117153 0.400000 0.143329
v 0.117153 0.000000 2.470648
v 0.117153 0.000000 0.026406
v 0.115940 1.200000 2.654962
v 0.115940 1.200000 0.543631
v 0.115940 0.800000 2.538039
v 0.115940 0.800000 0.426708
v 0.115940 0.400000 2.421116
v 0.115940 0.400000 0.309785
v 0.115940 0.000000 2.304192
v 0.115940 0.000000 0.192862
v 0.110142 1.200000 2.632965
v 0.110142 1.200000 0.565629
v 0.110142 0.800000 2.516042
v 0.110142 0.800000 0.448705
v 0.110142 0.400000 2.399118
v 0.110142 0.400000 0.331782
v 0.110142 0.000000 2.282195
v 0.110142 0.000000 0.214859
v 0.108333 1.200000 2.611460
v 0.108333 1.200000 0.587133
v 0.108333 0.800000 2.494537
v 0.108333 0.800000 0.470210
v 0.108333 0.400000 2.377614
v 0.108333 0.400000 0.353287
v 0.108333 0.000000 2.260690
v 0.108333 0.000000 0.236364
v 0.098105 1.200000 2.809295
v 0.098105 1.200000 0.389298
v 0.098105 0.800000 2.692372
v 0.098105 0.800000 0.272375
v 0.098105 0.400000 2.575449
v 0.098105 0.400000 0.155452
v 0.098105 0.000000 2.458525
v 0.098105 0.000000 0.038528
v 0.080102 1.200000 2.794962
v 0.080102 1.200000 0.403632
v 0.080102 0.800000 2.678038
v 0.080102 0.800000 0.286709
v 0.080102 0.400000 2.561115
v 0.080102 0.400000 0.169785
v 0.080102 0.000000 2.444192
v 0.080102 0.000000 0.052862
v 0.063460 1.200000 2.778594
v 0.063460 1.200000 0.419999
v 0.063460 0.800000 2.661671
v 0.063460 0.800000 0.303076
v 0.063460 0.400000 2.544748
v 0.063460 0.400000 0.186153
v 0.063460 0.000000 2.427824
v 0.063460 0.000000 0.069229
v 0.048457 1.200000 2.760440
v 0.048457 1.200000 0.438154
v 0.048457 0.800000 2.643516
v 0.048457 0.800000 0.321231
v 0.048457 0.400000 2.526593
v 0.048457 0.400000 0.204307
v 0.048457 0.000000 2.409670
v 0.048457 0.000000 0.087384
v 0.035318 1.200000 2.740801
v 0.035318 1.200000 0.457793
v 0.035318 0.800000 2.623877
v 0.035318 0.800000 0.340870
v 0.035318 0.400000 2.506954
v 0.035318 0.400000 0.223946
v 0.035318 0.000000 2.390031
v 0.035318 0.000000 0.107023
v 0.024205 1.200000 2.720021
v 0.024205 1.200000 0.478573
v 0.024205 0.800000 2.603097
v 0.024205 0.800000 0.361650
v 0.024205 0.400000 2.486174
v 0.024205 0.400000 0.244726
v 0.024205 0.000000 2.369251
v 0.024205 0.000000 0.127803
v 0.015213 1.200000 2.698464
v 0.015213 1.200000 0.500129
v 0.015213 0.800000 2.581541
v 0.015213 0.800000 0.383206
v 0.015213 0.400000 2.464618
v 0.015213 0.400000 0.266283
v 0.015213 0.000000 2.347694
v 0.015213 0.000000 0.149359
v 0.008364 1.200000 2.676497
v 0.008364 1.200000 0.522096
v 0.008364 0.800000 2.559574
v 0.008364 0.800000 0.405173
v 0.008364 0.400000 2.442651
v 0.008364 0.400000 0.288250
v 0.008364 0.000000 2.325727
v 0.008364 0.000000 0.171326
v 0.003617 1.200000 2.654469
v 0.003617 1.200000 0.544124
v 0.003617 0.800000 2.537546
v 0.003617 0.800000 0.427201
v 0.003617 0.400000 2.420623
v 0.003617 0.400000 0.310277
v 0.003617 0.000000 2.303700
v 0.003617 0.000000 0.193354
v 0.000876 1.200000 2.632698
v 0.000876 1.200000 0.565895
v 0.000876 0.800000 2.515775
v 0.000876 0.800000 0.448972
v 0.000876 0.400000 2.398852
v 0.000876 0.400000 0.332049
v 0.000876 0.000000 2.281929
v 0.000876 0.000000 0.215125
v 0.000000 1.200000 2.611460
v 0.000000 1.200000 0.587133
v 0.000000 0.800000 2.494537
v 0.000000 0.800000 0.470210
v 0.000000 0.400000 2.377614
v 0.000000 0.400000 0.353287
v 0.000000 0.000000 2.260690
v 0.000000 0.000000 0.236364

vn 0.709601 0.704333 0.019516
vn 0.830374 0.557090 -0.011415
vn 0.999769 -0.006027 0.020619
vn 0.999769 0.006027 -0.020619
vn 0.999769 -0.006027 0.020619
vn 0.999769 0.006027 -0.020619
vn 0.705546 -0.708598 0.009699
vn 0.834758 -0.550137 -0.022958
vn 0.838626 0.538530 0.081801
vn 0.822035 0.566578 -0.056994
vn 0.996245 -0.024293 0.083106
vn 0.996245 0.024293 -0.083106
vn 0.996245 -0.024293 0.083106
vn 0.996245 0.024293 -0.083106
vn 0.822035 -0.566578 0.056994
vn 0.838626 -0.538530 -0.081801
vn 0.837562 0.523836 0.155194
vn 0.804628 0.580459 -0.125068
vn 0.984618 -0.049021 0.167704
vn 0.984618 0.049021 -0.167704
vn 0.984618 -0.049021 0.167705
vn 0.984618 0.049021 -0.167704
vn 0.804627 -0.580459 0.125068
vn 0.837562 -0.523836 -0.155195
vn 0.829275 0.508648 0.231475
vn 0.780738 0.594350 -0.192866
vn 0.964447 -0.074147 0.253660
vn 0.964447 0.074147 -0.253660
vn 0.964448 -0.074147 0.253659
vn 0.964447 0.074147 -0.253660
vn 0.780738 -0.594350 0.192866
vn 0.829275 -0.508648 -0.231474
vn 0.693745 0.669915 0.264445
vn 0.635310 0.740299 -0.219858
vn 0.935177 -0.099371 0.339954
vn 0.935178 0.099371 -0.339953
vn 0.935178 -0.099371 0.339953
vn 0.935178 0.099371 -0.339953
vn 0.635311 -0.740299 0.219857
vn 0.693745 -0.669915 -0.264445
vn 0.787673 0.477483 0.389335
vn 0.713036 0.621508 -0.324509
vn 0.896428 -0.124345 0.425389
vn 0.896427 0.124345 -0.425390
vn 0.896427 -0.124345 0.425390
vn 0.896427 0.124345 -0.425390
vn 0.713036 -0.621508 0.324509
vn 0.787672 -0.477483 -0.389336
vn 0.752973 0.461961 0.468640
vn 0.669339 0.634415 -0.386657
vn 0.848039 -0.148682 0.508648
vn 0.848039 0.148682 -0.508649
vn 0.848039 -0.148682 0.508649
vn 0.848039 0.148682 -0.508649
vn 0.669338 -0.634415 0.386658
vn 0.752973 -0.461961 -0.468640
vn 0.606807 0.642510 0.467939
vn 0.523374 0.764571 -0.376180
vn 0.790122 -0.171974 0.588330
vn 0.790122 0.171974 -0.588331
vn 0.790122 -0.171974 0.588330
vn 0.790122 0.171974 -0.588331
vn 0.523373 -0.764571 0.376180
vn 0.606807 -0.642510 -0.467938
vn 0.654004 0.432448 0.620699
vn 0.563722 0.657948 -0.499321
vn 0.723095 -0.193801 0.663004
vn 0.723097 0.193801 -0.663002
vn 0.723097 -0.193801 0.663002
vn 0.723097 0.193801 -0.663002
vn 0.563724 -0.657948 0.499320
vn 0.654005 -0.432448 -0.620698
vn 0.506600 0.626331 0.592508
vn 0.424443 0.778308 -0.462694
vn 0.647707 -0.213761 0.731287
vn 0.647707 0.213761 -0.731288
vn 0.647705 -0.213762 0.731289
vn 0.647707 0.213761 -0.731288
vn 0.424442 -0.778308 0.462695
vn 0.506598 -0.626331 -0.592510
vn 0.444631 0.619386 0.647042
vn 0.369300 0.784102 -0.498800
vn 0.565017 -0.231490 0.791939
vn 0.565017 0.231490 -0.791939
vn 0.565018 -0.231490 0.791939
vn 0.565018 0.231490 -0.791939
vn 0.369301 -0.784102 0.498800
vn 0.444632 -0.619386 -0.647041
vn -0.443265 0.896047 -0.024822
vn -0.394638 0.918770 0.011035
vn -0.999045 0.012257 -0.041932
vn -0.999045 -0.012257 0.041932
vn -0.999045 0.012257 -0.041932
vn -0.999045 -0.012257 0.041932
vn -0.448187 -0.893852 -0.012533
vn -0.390665 -0.920273 0.021877
vn -0.489745 0.866210 -0.099143
vn -0.517029 0.852786 0.073745
vn -0.984254 0.049593 -0.169659
vn -0.984254 -0.049593 0.169659
vn -0.984254 0.049593 -0.169659
vn -0.984254 -0.049593 0.169659
vn -0.517029 -0.852785 -0.073745
vn -0.489745 -0.866210 0.099143
vn -0.525605 0.824210 -0.210754
vn -0.592354 0.781513 0.195840
vn -0.934580 0.099813 -0.341464
vn -0.934580 -0.099813 0.341464
vn -0.934580 0.099813 -0.341465
vn -0.934580 -0.099813 0.341464
vn -0.592354 -0.781513 -0.195840
vn -0.525605 -0.824210 0.210755
vn 0.376004 0.613405 0.694518
vn 0.311378 0.789063 -0.529550
vn 0.476377 -0.246686 0.843926
vn 0.476377 0.246686 -0.843926
vn 0.476376 -0.246687 0.843926
vn 0.476377 0.246686 -0.843926
vn 0.311378 -0.789063 0.529550
vn 0.376003 -0.613405 -0.694519
vn -0.543926 0.761770 -0.351925
vn -0.658238 0.657341 0.366912
vn -0.847453 0.148945 -0.509547
vn -0.847452 -0.148945 0.509549
vn -0.847453 0.148945 -0.509548
vn -0.847452 -0.148945 0.509549
vn -0.658238 -0.657341 -0.366913
vn -0.543926 -0.761770 0.351925
vn 0.350843 0.388094 0.852228
vn 0.298384 0.691369 -0.658009
vn 0.383347 -0.259133 0.886507
vn 0.383346 0.259133 -0.886508
vn 0.383347 -0.259133 0.886507
vn 0.383346 0.259133 -0.886508
vn 0.298383 -0.691369 0.658010
vn 0.350842 -0.388094 -0.852228
vn -0.449740 0.776056 -0.442122
vn -0.583743 0.639861 0.499822
vn -0.722846 0.193875 -0.663254
vn -0.722847 -0.193874 0.663253
vn -0.722848 0.193874 -0.663253
vn -0.722847 -0.193874 0.663253
vn -0.583745 -0.639861 -0.499820
vn -0.449740 -0.776056 0.442121
vn 0.224550 0.604733 0.764118
vn 0.190638 0.796287 -0.574094
vn 0.287617 -0.268712 0.919277
vn 0.287616 0.268712 -0.919277
vn 0.287617 -0.268712 0.919277
vn 0.287616 0.268712 -0.919277
vn 0.190639 -0.796287 0.574094
vn 0.224551 -0.604733 -0.764117
vn -0.289665 0.851324 -0.437425
vn -0.401201 0.752764 0.521904
vn -0.565415 0.231414 -0.791678
vn -0.565413 -0.231414 0.791679
vn -0.565412 0.231414 -0.791680
vn -0.565414 -0.231414 0.791679
vn -0.401200 -0.752764 -0.521905
vn -0.289665 -0.851325 0.437425
vn -0.221482 0.795601 -0.563884
vn -0.339963 0.612658 0.713495
vn -0.384563 0.258991 -0.886022
vn -0.384562 -0.258992 0.886022
vn -0.384564 0.258991 -0.886021
vn -0.384562 -0.258992 0.886022
vn -0.339964 -0.612658 -0.713495
vn -0.221482 -0.795601 0.563883
vn 0.145162 0.602132 0.785089
vn 0.129584 0.798522 -0.587853
vn 0.190895 -0.275408 0.942183
vn 0.190898 0.275408 -0.942183
vn 0.190899 -0.275408 0.942183
vn 0.190898 0.275408 -0.942183
vn 0.129587 -0.798521 0.587853
vn 0.145164 -0.602132 -0.785089
vn -0.100239 0.800012 -0.591552
vn -0.186265 0.605025 0.774112
vn -0.192885 0.275299 -0.941810
vn -0.192887 -0.275299 0.941810
vn -0.192885 0.275299 -0.941810
vn -0.192886 -0.275299 0.941810
vn -0.186264 -0.605025 -0.774113
vn -0.100238 -0.800012 0.591552
vn 0.065716 0.600671 0.796791
vn 0.069182 0.799868 -0.596175
vn 0.094819 -0.279303 0.955510
vn 0.094819 0.279303 -0.955510
vn 0.094819 -0.279303 0.955510
vn 0.094819 0.279303 -0.955510
vn 0.069182 -0.799868 0.596175
vn 0.065716 -0.600671 -0.796791
vn 0.019628 0.599944 0.799801
vn -0.016984 0.859644 -0.510610
vn -0.053153 0.600545 0.797822
vn 0.016721 0.731808 -0.681305
vn 0.023548 -0.280490 0.959568
vn -0.047868 0.280246 -0.958734
vn -0.047869 -0.280246 0.958734
vn 0.023550 0.280490 -0.959568
vn 0.023552 -0.280489 0.959568
vn -0.047867 0.280246 -0.958734
vn -0.047869 -0.280246 0.958734
vn 0.023550 0.280490 -0.959568
vn 0.019036 -0.630955 0.775586
vn -0.044745 -0.739526 -0.671639
vn -0.019929 -0.800362 0.599186
vn 0.015171 -0.785898 -0.618170
vn -0.013085 0.599909 0.799961
vn 0.023651 0.880387 -0.473666
vn 0.039874 0.600509 0.798623
vn -0.023283 0.702414 -0.711387
vn -0.023548 -0.280489 0.959568
vn 0.047868 0.280246 -0.958734
vn 0.047869 -0.280246 0.958734
vn -0.023550 0.280490 -0.959568
vn -0.023552 -0.280489 0.959568
vn 0.047867 0.280246 -0.958734
vn 0.047869 -0.280246 0.958734
vn -0.023550 0.280490 -0.959568
vn -0.019620 -0.800190 0.599426
vn 0.044773 -0.440204 -0.896781
vn 0.019332 -0.921800 0.387183
vn -0.015173 -0.373356 -0.927564
vn -0.065716 0.600671 0.796791
vn -0.069182 0.799868 -0.596175
vn -0.094819 -0.279303 0.955510
vn -0.094819 0.279303 -0.955510
vn -0.094819 -0.279303 0.955510
vn -0.094819 0.279303 -0.955510
vn -0.069182 -0.799868 0.596175
vn -0.065716 -0.600671 -0.796791
vn 0.100239 0.800012 -0.591552
vn 0.186265 0.605025 0.774112
vn 0.192885 0.275299 -0.941810
vn 0.192887 -0.275299 0.941810
vn 0.192885 0.275299 -0.941810
vn 0.192886 -0.275299 0.941810
vn 0.186264 -0.605025 -0.774113
vn 0.100238 -0.800012 0.591552
vn -0.145162 0.602132 0.785089
vn -0.129584 0.798522 -0.587853
vn -0.190895 -0.275408 0.942183
vn -0.190898 0.275408 -0.942183
vn -0.190899 -0.275408 0.942183
vn -0.190898 0.275408 -0.942183
vn -0.129587 -0.798521 0.587853
vn -0.145164 -0.602132 -0.785089
vn 0.221482 0.795601 -0.563884
vn 0.339963 0.612658 0.713495
vn 0.384563 0.258991 -0.886022
vn 0.384562 -0.258992 0.886022
vn 0.384564 0.258991 -0.886021
vn 0.384562 -0.258992 0.886022
vn 0.339964 -0.612658 -0.713495
vn 0.221482 -0.795601 0.563883
vn 0.289665 0.851324 -0.437425
vn 0.401201 0.752764 0.521904
vn 0.565415 0.231414 -0.791678
vn 0.565413 -0.231414 0.791679
vn 0.565412 0.231414 -0.791680
vn 0.565414 -0.231414 0.791679
vn 0.401200 -0.752764 -0.521905
vn 0.289665 -0.851325 0.437425
vn -0.224550 0.604733 0.764118
vn -0.190638 0.796287 -0.574094
vn -0.287617 -0.268712 0.919277
vn -0.287616 0.268712 -0.919277
vn -0.287617 -0.268712 0.919277
vn -0.287616 0.268712 -0.919277
vn -0.190639 -0.796287 0.574094
vn -0.224551 -0.604733 -0.764117
vn 0.449740 0.776056 -0.442122
vn 0.583743 0.639861 0.499822
vn 0.722846 0.193875 -0.663254
vn 0.722847 -0.193874 0.663253
vn 0.722847 0.193874 -0.663253
vn 0.722847 -0.193874 0.663253
vn 0.583745 -0.639861 -0.499820
vn 0.449740 -0.776056 0.442121
vn -0.350843 0.388094 0.852228
vn -0.298384 0.691369 -0.658009
vn -0.383347 -0.259133 0.886507
vn -0.383346 0.259133 -0.886508
vn -0.383347 -0.259133 0.886507
vn -0.383346 0.259133 -0.886508
vn -0.298383 -0.691369 0.658010
vn -0.350842 -0.388094 -0.852228
vn 0.543926 0.761770 -0.351925
vn 0.658238 0.657341 0.366912
vn 0.847453 0.148945 -0.509547
vn 0.847452 -0.148945 0.509549
vn 0.847453 0.148945 -0.509548
vn 0.847452 -0.148945 0.509549
vn 0.658238 -0.657341 -0.366913
vn 0.543926 -0.761770 0.351925
vn -0.376004 0.613405 0.694518
vn -0.311378 0.789063 -0.529550
vn -0.476377 -0.246686 0.843926
vn -0.476377 0.246686 -0.843926
vn -0.476376 -0.246687 0.843926
vn -0.476377 0.246686 -0.843926
vn -0.311378 -0.789063 0.529550
vn -0.376003 -0.613405 -0.694519
vn 0.525605 0.824210 -0.210754
vn 0.592354 0.781513 0.195840
vn 0.934580 0.099813 -0.341464
vn 0.934580 -0.099813 0.341464
vn 0.934580 0.099813 -0.341465
vn 0.934580 -0.099813 0.341464
vn 0.592354 -0.781513 -0.195840
vn 0.525605 -0.824210 0.210755
vn 0.489745 0.866210 -0.099143
vn 0.517029 0.852786 0.073745
vn 0.984254 0.049593 -0.169659
vn 0.984254 -0.049593 0.169659
vn 0.984254 0.049593 -0.169659
vn 0.984254 -0.049593 0.169659
vn 0.517029 -0.852785 -0.073745
vn 0.489745 -0.866210 0.099143
vn 0.390665 0.920273 -0.021876
vn 0.448187 0.893852 0.012533
vn 0.999045 0.012257 -0.041932
vn 0.999045 -0.012257 0.041932
vn 0.999045 0.012257 -0.041932
vn 0.999045 -0.012257 0.041932
vn 0.394638 -0.918770 -0.011035
vn 0.443265 -0.896047 0.024822
vn -0.444631 0.619386 0.647042
vn -0.369300 0.784102 -0.498800
vn -0.565017 -0.231490 0.791939
vn -0.565017 0.231490 -0.791939
vn -0.565018 -0.231490 0.791939
vn -0.565018 0.231490 -0.791939
vn -0.369301 -0.784102 0.498800
vn -0.444632 -0.619386 -0.647041
vn -0.506600 0.626331 0.592508
vn -0.424443 0.778308 -0.462694
vn -0.647707 -0.213761 0.731287
vn -0.647707 0.213761 -0.731288
vn -0.647705 -0.213762 0.731289
vn -0.647707 0.213761 -0.731288
vn -0.424442 -0.778308 0.462695
vn -0.506598 -0.626331 -0.592509
vn -0.654004 0.432448 0.620699
vn -0.563722 0.657948 -0.499321
vn -0.723095 -0.193801 0.663004
vn -0.723097 0.193801 -0.663002
vn -0.723097 -0.193801 0.663002
vn -0.723097 0.193801 -0.663002
vn -0.563724 -0.657948 0.499320
vn -0.654005 -0.432448 -0.620698
vn -0.606807 0.642510 0.467939
vn -0.523374 0.764571 -0.376180
vn -0.790122 -0.171974 0.588330
vn -0.790122 0.171974 -0.588331
vn -0.790122 -0.171974 0.588330
vn -0.790122 0.171974 -0.588331
vn -0.523373 -0.764571 0.376180
vn -0.606807 -0.642510 -0.467938
vn -0.752973 0.461961 0.468640
vn -0.669339 0.634415 -0.386657
vn -0.848039 -0.148682 0.508648
vn -0.848039 0.148682 -0.508649
vn -0.848038 -0.148682 0.508649
vn -0.848039 0.148682 -0.508649
vn -0.669338 -0.634415 0.386658
vn -0.752973 -0.461961 -0.468640
vn -0.787673 0.477483 0.389335
vn -0.713037 0.621508 -0.324509
vn -0.896428 -0.124345 0.425389
vn -0.896427 0.124345 -0.425390
vn -0.896427 -0.124345 0.425390
vn -0.896427 0.124345 -0.425390
vn -0.713036 -0.621508 0.324509
vn -0.787672 -0.477483 -0.389336
vn -0.693745 0.669915 0.264445
vn -0.635310 0.740299 -0.219858
vn -0.935177 -0.099371 0.339954
vn -0.935178 0.099371 -0.339953
vn -0.935178 -0.099371 0.339953
vn -0.935178 0.099371 -0.339953
vn -0.635311 -0.740299 0.219857
vn -0.693745 -0.669915 -0.264445
vn -0.829275 0.508648 0.231475
vn -0.780738 0.594350 -0.192866
vn -0.964447 -0.074147 0.253660
vn -0.964447 0.074147 -0.253660
vn -0.964448 -0.074147 0.253659
vn -0.964447 0.074147 -0.253660
vn -0.780738 -0.594350 0.192866
vn -0.829275 -0.508648 -0.231474
vn -0.837562 0.523836 0.155194
vn -0.804628 0.580459 -0.125068
vn -0.984618 -0.049021 0.167704
vn -0.984618 0.049021 -0.167704
vn -0.984618 -0.049021 0.167705
vn -0.984618 0.049021 -0.167704
vn -0.804628 -0.580459 0.125068
vn -0.837562 -0.523836 -0.155195
vn -0.838626 0.538530 0.081801
vn -0.822035 0.566578 -0.056994
vn -0.996245 -0.024293 0.083106
vn -0.996245 0.024293 -0.083106
vn -0.996245 -0.024293 0.083106
vn -0.996245 0.024293 -0.083106
vn -0.822035 -0.566578 0.056994
vn -0.838626 -0.538530 -0.081801
vn -0.834758 0.550137 0.022958
vn -0.705546 0.708598 -0.009699
vn -0.999769 -0.006027 0.020619
vn -0.999769 0.006027 -0.020619
vn -0.999769 -0.006027 0.020619
vn -0.999769 0.006027 -0.020619
vn -0.830374 -0.557090 0.011415
vn -0.709601 -0.704333 -0.019516

f 410//410 412//412 411//411
f 413//413 411//411 412//412
f 414//414 416//416 415//415
f 395//395 403//403 397//397
f 387//387 395//395 389//389
f 379//379 387//387 381//381
f 371//371 379//379 373//373
f 363//363 371//371 365//365
f 355//355 363//363 357//357
f 347//347 355//355 349//349
f 339//339 347//347 341//341
f 331//331 339//339 333//333
f 299//299 331//331 301//301
f 283//283 299//299 285//285
f 267//267 283//283 269//269
f 243//243 267//267 245//245
f 227//227 243//243 229//229
f 407//407 405//405 413//413
f 391//391 389//389 397//397
f 399//399 397//397 405//405
f 405//405 403//403 411//411
f 389//389 391//391 383//383
f 375//375 373//373 381//381
f 359//359 357//357 365//365
f 367//367 365//365 373//373
f 351//351 349//349 357//357
f 403//403 401//401 409//409
f 387//387 385//385 393//393
f 395//395 393//393 401//401
f 385//385 387//387 379//379
f 371//371 369//369 377//377
f 363//363 361//361 369//369
f 355//355 353//353 361//361
f 353//353 355//355 347//347
f 349//349 351//351 343//343
f 335//335 333//333 341//341
f 301//301 303//303 287//287
f 303//303 301//301 333//333
f 247//247 245//245 269//269
f 221//221 217//217 229//229
f 231//231 229//229 245//245
f 271//271 269//269 285//285
f 217//217 213//213 227//227
f 331//331 329//329 337//337
f 297//297 299//299 283//283
f 299//299 297//297 329//329
f 339//339 337//337 345//345
f 243//243 241//241 265//265
f 213//213 209//209 225//225
f 227//227 225//225 241//241
f 267//267 265//265 281//281
f 217//217 221//221 205//205
f 209//209 213//213 197//197
f 213//213 217//217 201//201
f 171//171 187//187 189//189
f 147//147 171//171 173//173
f 131//131 147//147 149//149
f 115//115 131//131 133//133
f 83//83 115//115 117//117
f 75//75 83//83 85//85
f 67//67 75//75 77//77
f 59//59 67//67 69//69
f 51//51 59//59 61//61
f 43//43 51//51 53//53
f 35//35 43//43 45//45
f 27//27 35//35 37//37
f 19//19 27//27 29//29
f 11//11 19//19 21//21
f 191//191 189//189 205//205
f 151//151 149//149 175//175
f 175//175 173//173 191//191
f 189//189 187//187 201//201
f 149//149 151//151 133//133
f 119//119 117//117 135//135
f 79//79 77//77 87//87
f 87//87 85//85 119//119
f 71//71 69//69 79//79
f 187//187 185//185 197//197
f 147//147 145//145 171//171
f 171//171 169//169 187//187
f 145//145 147//147 129//129
f 115//115 113//113 131//131
f 83//83 81//81 115//115
f 75//75 73//73 83//83
f 73//73 75//75 65//65
f 69//69 71//71 61//61
f 55//55 53//53 63//63
f 45//45 47//47 37//37
f 47//47 45//45 55//55
f 23//23 21//21 31//31
f 7//7 5//5 15//15
f 15//15 13//13 23//23
f 31//31 29//29 39//39
f 5//5 3//3 13//13
f 51//51 49//49 59//59
f 41//41 43//43 33//33
f 43//43 41//41 51//51
f 59//59 57//57 67//67
f 19//19 17//17 27//27
f 3//3 1//1 11//11
f 11//11 9//9 19//19
f 27//27 25//25 35//35
f 1//1 3//3 2//2
f 6//6 4//4 5//5
f 7//7 8//8 6//6
f 20//20 12//12 14//14
f 28//28 20//20 22//22
f 36//36 28//28 30//30
f 44//44 36//36 38//38
f 52//52 44//44 46//46
f 60//60 52//52 54//54
f 68//68 60//60 62//62
f 76//76 68//68 70//70
f 84//84 76//76 78//78
f 116//116 84//84 86//86
f 132//132 116//116 118//118
f 148//148 132//132 134//134
f 172//172 148//148 150//150
f 188//188 172//172 174//174
f 16//16 14//14 8//8
f 32//32 30//30 24//24
f 24//24 22//22 16//16
f 14//14 12//12 6//6
f 30//30 32//32 38//38
f 48//48 46//46 40//40
f 64//64 62//62 56//56
f 56//56 54//54 48//48
f 72//72 70//70 64//64
f 12//12 10//10 4//4
f 28//28 26//26 20//20
f 20//20 18//18 12//12
f 26//26 28//28 34//34
f 44//44 42//42 36//36
f 52//52 50//50 44//44
f 60//60 58//58 52//52
f 58//58 60//60 66//66
f 70//70 72//72 78//78
f 88//88 86//86 80//80
f 118//118 120//120 134//134
f 120//120 118//118 88//88
f 176//176 174//174 152//152
f 208//208 204//204 192//192
f 192//192 190//190 176//176
f 152//152 150//150 136//136
f 204//204 200//200 190//190
f 84//84 82//82 76//76
f 114//114 116//116 130//130
f 116//116 114//114 84//84
f 76//76 74//74 68//68
f 172//172 170//170 148//148
f 200//200 196//196 188//188
f 188//188 186//186 172//172
f 148//148 146//146 132//132
f 204//204 208//208 224//224
f 196//196 200//200 216//216
f 200//200 204//204 220//220
f 244//244 228//228 246//246
f 268//268 244//244 270//270
f 284//284 268//268 286//286
f 300//300 284//284 302//302
f 332//332 300//300 334//334
f 340//340 332//332 342//342
f 348//348 340//340 350//350
f 356//356 348//348 358//358
f 364//364 356//356 366//366
f 372//372 364//364 374//374
f 380//380 372//372 382//382
f 388//388 380//380 390//390
f 396//396 388//388 398//398
f 404//404 396//396 406//406
f 232//232 230//230 220//220
f 272//272 270//270 246//246
f 248//248 246//246 230//230
f 230//230 228//228 216//216
f 270//270 272//272 288//288
f 304//304 302//302 286//286
f 344//344 342//342 334//334
f 336//336 334//334 302//302
f 352//352 350//350 342//342
f 228//228 226//226 212//212
f 268//268 266//266 242//242
f 244//244 242//242 226//226
f 266//266 268//268 284//284
f 300//300 298//298 282//282
f 332//332 330//330 298//298
f 340//340 338//338 330//330
f 338//338 340//340 348//348
f 350//350 352//352 360//360
f 368//368 366//366 358//358
f 374//374 376//376 384//384
f 376//376 374//374 366//366
f 400//400 398//398 390//390
f 416//416 414//414 406//406
f 408//408 406//406 398//398
f 392//392 390//390 382//382
f 414//414 412//412 404//404
f 364//364 362//362 354//354
f 370//370 372//372 380//380
f 372//372 370//370 362//362
f 356//356 354//354 346//346
f 396//396 394//394 386//386
f 412//412 410//410 402//402
f 404//404 402//402 394//394
f 388//388 386//386 378//378
f 308//308 316//316 318//318
f 292//292 308//308 310//310
f 276//276 292//292 294//294
f 260//260 276//276 278//278
f 252//252 260//260 262//262
f 236//236 252//252 254//254
f 320//320 318//318 328//328
f 318//318 316//316 326//326
f 318//318 320//320 310//310
f 296//296 294//294 312//312
f 294//294 296//296 278//278
f 316//316 314//314 324//324
f 314//314 316//316 306//306
f 292//292 290//290 308//308
f 290//290 292//292 274//274
f 278//278 280//280 262//262
f 262//262 264//264 254//254
f 223//223 219//219 240//240
f 240//240 238//238 256//256
f 219//219 215//215 238//238
f 258//258 260//260 250//250
f 260//260 258//258 276//276
f 215//215 211//211 236//236
f 236//236 234//234 252//252
f 219//219 223//223 207//207
f 211//211 215//215 199//199
f 215//215 219//219 203//203
f 164//164 180//180 166//166
f 156//156 164//164 158//158
f 140//140 156//156 142//142
f 124//124 140//140 126//126
f 108//108 124//124 110//110
f 100//100 108//108 102//102
f 184//184 182//182 203//203
f 182//182 180//180 199//199
f 182//182 184//184 168//168
f 160//160 158//158 166//166
f 158//158 160//160 144//144
f 180//180 178//178 195//195
f 178//178 180//180 164//164
f 156//156 154//154 162//162
f 154//154 156//156 140//140
f 142//142 144//144 128//128
f 126//126 128//128 112//112
f 96//96 94//94 102//102
f 104//104 102//102 110//110
f 94//94 92//92 100//100
f 122//122 124//124 108//108
f 124//124 122//122 138//138
f 92//92 90//90 98//98
f 100//100 98//98 106//106
f 91//91 89//89 90//90
f 95//95 93//93 94//94
f 93//93 91//91 92//92
f 107//107 99//99 109//109
f 123//123 107//107 125//125
f 139//139 123//123 141//141
f 155//155 139//139 157//157
f 163//163 155//155 165//165
f 179//179 163//163 181//181
f 103//103 101//101 93//93
f 101//101 99//99 91//91
f 101//101 103//103 111//111
f 127//127 125//125 109//109
f 125//125 127//127 143//143
f 99//99 97//97 89//89
f 97//97 99//99 107//107
f 123//123 121//121 105//105
f 121//121 123//123 139//139
f 141//141 143//143 159//159
f 157//157 159//159 167//167
f 206//206 202//202 181//181
f 183//183 181//181 165//165
f 202//202 198//198 179//179
f 153//153 155//155 163//163
f 155//155 153//153 137//137
f 198//198 194//194 177//177
f 179//179 177//177 161//161
f 202//202 206//206 222//222
f 194//194 198//198 214//214
f 198//198 202//202 218//218
f 251//251 235//235 237//237
f 259//259 251//251 253//253
f 275//275 259//259 261//261
f 291//291 275//275 277//277
f 307//307 291//291 293//293
f 315//315 307//307 309//309
f 239//239 237//237 222//222
f 237//237 235//235 218//218
f 237//237 239//239 253//253
f 263//263 261//261 255//255
f 261//261 263//263 277//277
f 235//235 233//233 214//214
f 233//233 235//235 249//249
f 259//259 257//257 251//251
f 257//257 259//259 273//273
f 277//277 279//279 293//293
f 293//293 295//295 309//309
f 327//327 325//325 319//319
f 319//319 317//317 311//311
f 325//325 323//323 317//317
f 289//289 291//291 305//305
f 291//291 289//289 275//275
f 323//323 321//321 315//315
f 315//315 313//313 307//307
f 323//323 324//324 322//322
f 323//323 325//325 324//324
f 325//325 327//327 326//326
f 56//56 48//48 104//104
f 56//56 104//104 64//64
f 64//64 112//112 72//72
f 112//112 64//64 104//104
f 72//72 112//112 80//80
f 16//16 8//8 96//96
f 24//24 16//16 96//96
f 96//96 40//40 32//32
f 40//40 96//96 104//104
f 104//104 48//48 40//40
f 24//24 96//96 32//32
f 96//96 8//8 7//7
f 128//128 88//88 80//80
f 136//136 120//120 160//160
f 136//136 160//160 152//152
f 192//192 176//176 184//184
f 168//168 176//176 152//152
f 208//208 192//192 207//207
f 128//128 80//80 112//112
f 144//144 88//88 128//128
f 192//192 184//184 207//207
f 152//152 160//160 168//168
f 176//176 168//168 184//184
f 160//160 120//120 144//144
f 208//208 207//207 223//223
f 144//144 120//120 88//88
f 23//23 95//95 15//15
f 7//7 15//15 95//95
f 95//95 31//31 39//39
f 23//23 31//31 95//95
f 103//103 95//95 39//39
f 39//39 47//47 103//103
f 47//47 55//55 103//103
f 55//55 63//63 103//103
f 71//71 111//111 63//63
f 71//71 79//79 111//111
f 87//87 127//127 79//79
f 63//63 111//111 103//103
f 87//87 119//119 143//143
f 127//127 87//87 143//143
f 175//175 183//183 167//167
f 151//151 167//167 159//159
f 119//119 159//159 143//143
f 135//135 151//151 159//159
f 159//159 119//119 135//135
f 175//175 191//191 183//183
f 167//167 151//151 175//175
f 206//206 191//191 205//205
f 206//206 205//205 221//221
f 191//191 206//206 183//183
f 111//111 79//79 127//127
f 224//224 223//223 232//232
f 232//232 240//240 248//248
f 288//288 272//272 264//264
f 256//256 272//272 248//248
f 304//304 288//288 264//264
f 232//232 223//223 240//240
f 248//248 240//240 256//256
f 304//304 264//264 280//280
f 296//296 312//312 344//344
f 336//336 280//280 296//296
f 264//264 272//272 256//256
f 304//304 280//280 336//336
f 352//352 344//344 312//312
f 360//360 352//352 312//312
f 368//368 360//360 320//320
f 312//312 320//320 360//360
f 376//376 368//368 320//320
f 328//328 384//384 320//320
f 376//376 320//320 384//384
f 392//392 384//384 328//328
f 400//400 328//328 408//408
f 408//408 328//328 416//416
f 392//392 328//328 400//400
f 327//327 415//415 416//416
f 336//336 296//296 344//344
f 271//271 263//263 255//255
f 247//247 255//255 239//239
f 295//295 279//279 335//335
f 335//335 279//279 303//303
f 303//303 279//279 263//263
f 221//221 231//231 222//222
f 231//231 239//239 222//222
f 271//271 255//255 247//247
f 231//231 247//247 239//239
f 263//263 271//271 287//287
f 287//287 303//303 263//263
f 343//343 311//311 295//295
f 327//327 319//319 383//383
f 399//399 327//327 391//391
f 391//391 327//327 383//383
f 399//399 407//407 327//327
f 415//415 327//327 407//407
f 311//311 343//343 351//351
f 343//343 295//295 335//335
f 319//319 367//367 375//375
f 367//367 319//319 359//359
f 359//359 311//311 351//351
f 319//319 375//375 383//383
f 311//311 359//359 319//319
f 50//50 98//98 42//42
f 50//50 58//58 98//98
f 58//58 66//66 106//106
f 106//106 98//98 58//58
f 66//66 74//74 106//106
f 10//10 90//90 2//2
f 18//18 90//90 10//10
f 90//90 26//26 34//34
f 34//34 98//98 90//90
f 98//98 34//34 42//42
f 18//18 26//26 90//90
f 90//90 89//89 1//1
f 122//122 74//74 82//82
f 130//130 154//154 114//114
f 130//130 146//146 154//154
f 186//186 178//178 170//170
f 162//162 146//146 170//170
f 196//196 195//195 186//186
f 122//122 106//106 74//74
f 138//138 122//122 82//82
f 186//186 195//195 178//178
f 146//146 162//162 154//154
f 170//170 178//178 162//162
f 154//154 138//138 114//114
f 196//196 212//212 211//211
f 138//138 82//82 114//114
f 17//17 9//9 89//89
f 1//1 89//89 9//9
f 89//89 33//33 25//25
f 17//17 89//89 25//25
f 97//97 33//33 89//89
f 33//33 97//97 41//41
f 41//41 97//97 49//49
f 49//49 97//97 57//57
f 65//65 57//57 105//105
f 65//65 105//105 73//73
f 81//81 73//73 121//121
f 57//57 97//97 105//105
f 81//81 137//137 113//113
f 121//121 137//137 81//81
f 169//169 161//161 177//177
f 145//145 153//153 161//161
f 113//113 137//137 153//153
f 129//129 153//153 145//145
f 153//153 129//129 113//113
f 169//169 177//177 185//185
f 161//161 169//169 145//145
f 194//194 193//193 185//185
f 194//194 210//210 209//209
f 185//185 177//177 194//194
f 105//105 121//121 73//73
f 212//212 226//226 211//211
f 226//226 242//242 234//234
f 282//282 258//258 266//266
f 250//250 242//242 266//266
f 298//298 258//258 282//282
f 226//226 234//234 211//211
f 242//242 250//250 234//234
f 298//298 274//274 258//258
f 290//290 338//338 306//306
f 330//330 290//290 274//274
f 258//258 250//250 266//266
f 298//298 330//330 274//274
f 346//346 306//306 338//338
f 354//354 306//306 346//346
f 362//362 314//314 354//354
f 306//306 354//354 314//314
f 370//370 314//314 362//362
f 322//322 314//314 378//378
f 370//370 378//378 314//314
f 386//386 322//322 378//378
f 394//394 402//402 322//322
f 402//402 410//410 322//322
f 386//386 394//394 322//322
f 321//321 322//322 410//410
f 330//330 338//338 290//290
f 265//265 249//249 257//257
f 241//241 233//233 249//249
f 289//289 329//329 273//273
f 329//329 297//297 273//273
f 297//297 257//257 273//273
f 209//209 210//210 225//225
f 225//225 210//210 233//233
f 265//265 241//241 249//249
f 225//225 233//233 241//241
f 257//257 281//281 265//265
f 281//281 257//257 297//297
f 337//337 289//289 305//305
f 321//321 377//377 313//313
f 393//393 385//385 321//321
f 385//385 377//377 321//321
f 393//393 321//321 401//401
f 409//409 401//401 321//321
f 305//305 345//345 337//337
f 337//337 329//329 289//289
f 313//313 369//369 361//361
f 361//361 353//353 313//313
f 353//353 345//345 305//305
f 313//313 377//377 369//369
f 305//305 313//313 353//353
f 410//410 411//411 409//409
f 413//413 412//412 414//414
f 414//414 415//415 413//413
f 403//403 405//405 397//397
f 395//395 397//397 389//389
f 387//387 389//389 381//381
f 379//379 381//381 373//373
f 371//371 373//373 365//365
f 363//363 365//365 357//357
f 355//355 357//357 349//349
f 347//347 349//349 341//341
f 339//339 341//341 333//333
f 331//331 333//333 301//301
f 299//299 301//301 285//285
f 283//283 285//285 269//269
f 267//267 269//269 245//245
f 243//243 245//245 229//229
f 407//407 413//413 415//415
f 391//391 397//397 399//399
f 399//399 405//405 407//407
f 405//405 411//411 413//413
f 389//389 383//383 381//381
f 375//375 381//381 383//383
f 359//359 365//365 367//367
f 367//367 373//373 375//375
f 351//351 357//357 359//359
f 403//403 409//409 411//411
f 387//387 393//393 395//395
f 395//395 401//401 403//403
f 385//385 379//379 377//377
f 371//371 377//377 379//379
f 363//363 369//369 371//371
f 355//355 361//361 363//363
f 353//353 347//347 345//345
f 349//349 343//343 341//341
f 335//335 341//341 343//343
f 301//301 287//287 285//285
f 303//303 333//333 335//335
f 247//247 269//269 271//271
f 221//221 229//229 231//231
f 231//231 245//245 247//247
f 271//271 285//285 287//287
f 217//217 227//227 229//229
f 331//331 337//337 339//339
f 297//297 283//283 281//281
f 299//299 329//329 331//331
f 339//339 345//345 347//347
f 243//243 265//265 267//267
f 213//213 225//225 227//227
f 227//227 241//241 243//243
f 267//267 281//281 283//283
f 217//217 205//205 201//201
f 209//209 197//197 193//193
f 213//213 201//201 197//197
f 171//171 189//189 173//173
f 147//147 173//173 149//149
f 131//131 149//149 133//133
f 115//115 133//133 117//117
f 83//83 117//117 85//85
f 75//75 85//85 77//77
f 67//67 77//77 69//69
f 59//59 69//69 61//61
f 51//51 61//61 53//53
f 43//43 53//53 45//45
f 35//35 45//45 37//37
f 27//27 37//37 29//29
f 19//19 29//29 21//21
f 11//11 21//21 13//13
f 189//189 201//201 205//205
f 149//149 173//173 175//175
f 173//173 189//189 191//191
f 187//187 197//197 201//201
f 151//151 135//135 133//133
f 117//117 133//133 135//135
f 77//77 85//85 87//87
f 85//85 117//117 119//119
f 69//69 77//77 79//79
f 185//185 193//193 197//197
f 145//145 169//169 171//171
f 169//169 185//185 187//187
f 147//147 131//131 129//129
f 113//113 129//129 131//131
f 81//81 113//113 115//115
f 73//73 81//81 83//83
f 75//75 67//67 65//65
f 71//71 63//63 61//61
f 53//53 61//61 63//63
f 47//47 39//39 37//37
f 45//45 53//53 55//55
f 21//21 29//29 31//31
f 5//5 13//13 15//15
f 13//13 21//21 23//23
f 29//29 37//37 39//39
f 3//3 11//11 13//13
f 49//49 57//57 59//59
f 43//43 35//35 33//33
f 41//41 49//49 51//51
f 57//57 65//65 67//67
f 17//17 25//25 27//27
f 1//1 9//9 11//11
f 9//9 17//17 19//19
f 25//25 33//33 35//35
f 3//3 4//4 2//2
f 4//4 3//3 5//5
f 7//7 6//6 5//5
f 20//20 14//14 22//22
f 28//28 22//22 30//30
f 36//36 30//30 38//38
f 44//44 38//38 46//46
f 52//52 46//46 54//54
f 60//60 54//54 62//62
f 68//68 62//62 70//70
f 76//76 70//70 78//78
f 84//84 78//78 86//86
f 116//116 86//86 118//118
f 132//132 118//118 134//134
f 148//148 134//134 150//150
f 172//172 150//150 174//174
f 188//188 174//174 190//190
f 14//14 6//6 8//8
f 30//30 22//22 24//24
f 22//22 14//14 16//16
f 12//12 4//4 6//6
f 32//32 40//40 38//38
f 46//46 38//38 40//40
f 62//62 54//54 56//56
f 54//54 46//46 48//48
f 70//70 62//62 64//64
f 10//10 2//2 4//4
f 26//26 18//18 20//20
f 18//18 10//10 12//12
f 28//28 36//36 34//34
f 42//42 34//34 36//36
f 50//50 42//42 44//44
f 58//58 50//50 52//52
f 60//60 68//68 66//66
f 72//72 80//80 78//78
f 86//86 78//78 80//80
f 120//120 136//136 134//134
f 118//118 86//86 88//88
f 174//174 150//150 152//152
f 204//204 190//190 192//192
f 190//190 174//174 176//176
f 150//150 134//134 136//136
f 200//200 188//188 190//190
f 82//82 74//74 76//76
f 116//116 132//132 130//130
f 114//114 82//82 84//84
f 74//74 66//66 68//68
f 170//170 146//146 148//148
f 196//196 186//186 188//188
f 186//186 170//170 172//172
f 146//146 130//130 132//132
f 204//204 224//224 220//220
f 196//196 216//216 212//212
f 200//200 220//220 216//216
f 228//228 230//230 246//246
f 244//244 246//246 270//270
f 268//268 270//270 286//286
f 284//284 286//286 302//302
f 300//300 302//302 334//334
f 332//332 334//334 342//342
f 340//340 342//342 350//350
f 348//348 350//350 358//358
f 356//356 358//358 366//366
f 364//364 366//366 374//374
f 372//372 374//374 382//382
f 380//380 382//382 390//390
f 388//388 390//390 398//398
f 396//396 398//398 406//406
f 232//232 220//220 224//224
f 272//272 246//246 248//248
f 248//248 230//230 232//232
f 230//230 216//216 220//220
f 270//270 288//288 286//286
f 304//304 286//286 288//288
f 344//344 334//334 336//336
f 336//336 302//302 304//304
f 352//352 342//342 344//344
f 228//228 212//212 216//216
f 268//268 242//242 244//244
f 244//244 226//226 228//228
f 266//266 284//284 282//282
f 300//300 282//282 284//284
f 332//332 298//298 300//300
f 340//340 330//330 332//332
f 338//338 348//348 346//346
f 350//350 360//360 358//358
f 368//368 358//358 360//360
f 374//374 384//384 382//382
f 376//376 366//366 368//368
f 400//400 390//390 392//392
f 416//416 406//406 408//408
f 408//408 398//398 400//400
f 392//392 382//382 384//384
f 414//414 404//404 406//406
f 364//364 354//354 356//356
f 370//370 380//380 378//378
f 372//372 362//362 364//364
f 356//356 346//346 348//348
f 396//396 386//386 388//388
f 412//412 402//402 404//404
f 404//404 394//394 396//396
f 388//388 378//378 380//380
f 308//308 318//318 310//310
f 292//292 310//310 294//294
f 276//276 294//294 278//278
f 260//260 278//278 262//262
f 252//252 262//262 254//254
f 236//236 254//254 238//238
f 318//318 326//326 328//328
f 316//316 324//324 326//326
f 320//320 312//312 310//310
f 294//294 310//310 312//312
f 296//296 280//280 278//278
f 314//314 322//322 324//324
f 316//316 308//308 306//306
f 290//290 306//306 308//308
f 292//292 276//276 274//274
f 280//280 264//264 262//262
f 264//264 256//256 254//254
f 219//219 238//238 240//240
f 238//238 254//254 256//256
f 215//215 236//236 238//238
f 260//260 252//252 250//250
f 258//258 274//274 276//276
f 211//211 234//234 236//236
f 234//234 250//250 252//252
f 219//219 207//207 203//203
f 211//211 199//199 195//195
f 215//215 203//203 199//199
f 180//180 182//182 166//166
f 164//164 166//166 158//158
f 156//156 158//158 142//142
f 140//140 142//142 126//126
f 124//124 126//126 110//110
f 108//108 110//110 102//102
f 184//184 203//203 207//207
f 182//182 199//199 203//203
f 182//182 168//168 166//166
f 160//160 166//166 168//168
f 158//158 144//144 142//142
f 180//180 195//195 199//199
f 178//178 164//164 162//162
f 156//156 162//162 164//164
f 154//154 140//140 138//138
f 142//142 128//128 126//126
f 126//126 112//112 110//110
f 96//96 102//102 104//104
f 104//104 110//110 112//112
f 94//94 100//100 102//102
f 122//122 108//108 106//106
f 124//124 138//138 140//140
f 92//92 98//98 100//100
f 100//100 106//106 108//108
f 91//91 90//90 92//92
f 95//95 94//94 96//96
f 93//93 92//92 94//94
f 99//99 101//101 109//109
f 107//107 109//109 125//125
f 123//123 125//125 141//141
f 139//139 141//141 157//157
f 155//155 157//157 165//165
f 163//163 165//165 181//181
f 103//103 93//93 95//95
f 101//101 91//91 93//93
f 101//101 111//111 109//109
f 127//127 109//109 111//111
f 125//125 143//143 141//141
f 99//99 89//89 91//91
f 97//97 107//107 105//105
f 123//123 105//105 107//107
f 121//121 139//139 137//137
f 141//141 159//159 157//157
f 157//157 167//167 165//165
f 206//206 181//181 183//183
f 183//183 165//165 167//167
f 202//202 179//179 181//181
f 153//153 163//163 161//161
f 155//155 137//137 139//139
f 198//198 177//177 179//179
f 179//179 161//161 163//163
f 202//202 222//222 218//218
f 194//194 214//214 210//210
f 198//198 218//218 214//214
f 251//251 237//237 253//253
f 259//259 253//253 261//261
f 275//275 261//261 277//277
f 291//291 277//277 293//293
f 307//307 293//293 309//309
f 315//315 309//309 317//317
f 237//237 218//218 222//222
f 235//235 214//214 218//218
f 239//239 255//255 253//253
f 261//261 253//253 255//255
f 263//263 279//279 277//277
f 233//233 210//210 214//214
f 235//235 251//251 249//249
f 257//257 249//249 251//251
f 259//259 275//275 273//273
f 279//279 295//295 293//293
f 295//295 311//311 309//309
f 325//325 317//317 319//319
f 317//317 309//309 311//311
f 323//323 315//315 317//317
f 291//291 307//307 305//305
f 289//289 273//273 275//275
f 321//321 313//313 315//315
f 313//313 305//305 307//307
f 323//323 322//322 321//321
f 325//325 326//326 324//324
f 327//327 328//328 326//326
f 96//96 7//7 95//95
f 208//208 223//223 224//224
f 206//206 221//221 222//222
f 327//327 416//416 328//328
f 90//90 1//1 2//2
f 196//196 211//211 195//195
f 194//194 209//209 193//193
f 321//321 410//410 409//409