# PHANTOM Module: L5_18
# Units: meters
o L5_18

v 1.300000 1.799999 2.431181
v 1.300000 1.799999 0.406855
v 1.300000 1.350000 2.388558
v 1.300000 1.350000 0.364232
v 1.300000 0.900000 2.345936
v 1.300000 0.900000 0.321609
v 1.300000 0.450001 2.303313
v 1.300000 0.450001 0.278986
v 1.300000 0.000000 2.260690
v 1.300000 0.000000 0.236364
v 1.299124 1.799999 2.452420
v 1.299124 1.799999 0.385616
v 1.299124 1.350000 2.409797
v 1.299124 1.350000 0.342994
v 1.299124 0.900000 2.367174
v 1.299124 0.900000 0.300371
v 1.299124 0.450001 2.324551
v 1.299124 0.450001 0.257748
v 1.299124 0.000000 2.281929
v 1.299124 0.000000 0.215125
v 1.296383 1.799999 2.474190
v 1.296383 1.799999 0.363845
v 1.296383 1.350000 2.431568
v 1.296383 1.350000 0.321222
v 1.296383 0.900000 2.388945
v 1.296383 0.900000 0.278600
v 1.296383 0.450001 2.346322
v 1.296383 0.450001 0.235977
v 1.296383 0.000000 2.303700
v 1.296383 0.000000 0.193354
v 1.291636 1.799999 2.496218
v 1.291636 1.799999 0.341817
v 1.291636 1.350000 2.453596
v 1.291636 1.350000 0.299194
v 1.291636 0.900000 2.410973
v 1.291636 0.900000 0.256572
v 1.291636 0.450001 2.368350
v 1.291636 0.450001 0.213949
v 1.291636 0.000000 2.325727
v 1.291636 0.000000 0.171326
v 1.284788 1.799999 2.518185
v 1.284788 1.799999 0.319850
v 1.284788 1.350000 2.475563
v 1.284788 1.350000 0.277228
v 1.284788 0.900000 2.432940
v 1.284788 0.900000 0.234605
v 1.284788 0.450001 2.390317
v 1.284788 0.450001 0.191982
v 1.284788 0.000000 2.347694
v 1.284788 0.000000 0.149359
v 1.275795 1.799999 2.539742
v 1.275795 1.799999 0.298294
v 1.275795 1.350000 2.497119
v 1.275795 1.350000 0.255671
v 1.275795 0.900000 2.454496
v 1.275795 0.900000 0.213049
v 1.275795 0.450001 2.411873
v 1.275795 0.450001 0.170426
v 1.275795 0.000000 2.369251
v 1.275795 0.000000 0.127803
v 1.264682 1.799999 2.560522
v 1.264682 1.799999 0.277514
v 1.264682 1.350000 2.517899
v 1.264682 1.350000 0.234891
v 1.264682 0.900000 2.475276
v 1.264682 0.900000 0.192269
v 1.264682 0.450001 2.432653
v 1.264682 0.450001 0.149646
v 1.264682 0.000000 2.390031
v 1.264682 0.000000 0.107023
v 1.251544 1.799999 2.580161
v 1.251544 1.799999 0.257875
v 1.251544 1.350000 2.537538
v 1.251544 1.350000 0.215252
v 1.251544 0.900000 2.494915
v 1.251544 0.900000 0.172630
v 1.251544 0.450001 2.452292
v 1.251544 0.450001 0.130007
v 1.251544 0.000000 2.409670
v 1.251544 0.000000 0.087384
v 1.236540 1.799999 2.598315
v 1.236540 1.799999 0.239720
v 1.236540 1.350000 2.555693
v 1.236540 1.350000 0.197098
v 1.236540 0.900000 2.513070
v 1.236540 0.900000 0.154475
v 1.236540 0.450001 2.470447
v 1.236540 0.450001 0.111852
v 1.236540 0.000000 2.427824
v 1.236540 0.000000 0.069229
v 1.219898 1.799999 2.614683
v 1.219898 1.799999 0.223353
v 1.219898 1.350000 2.572060
v 1.219898 1.350000 0.180730
v 1.219898 0.900000 2.529437
v 1.219898 0.900000 0.138107
v 1.219898 0.450001 2.486814
v 1.219898 0.450001 0.095485
v 1.219898 0.000000 2.444192
v 1.219898 0.000000 0.052862
v 1.201896 1.799999 2.629016
v 1.201896 1.799999 0.209019
v 1.201896 1.350000 2.586394
v 1.201896 1.350000 0.166397
v 1.201896 0.900000 2.543771
v 1.201896 0.900000 0.123774
v 1.201896 0.450001 2.501148
v 1.201896 0.450001 0.081151
v 1.201896 0.000000 2.458525
v 1.201896 0.000000 0.038528
v 1.191667 1.799999 2.431181
v 1.191667 1.799999 0.406855
v 1.191667 1.350000 2.388558
v 1.191667 1.350000 0.364232
v 1.191667 0.900000 2.345936
v 1.191667 0.900000 0.321609
v 1.191667 0.450001 2.303313
v 1.191667 0.450001 0.278986
v 1.191667 0.000000 2.260690
v 1.191667 0.000000 0.236364
v 1.189858 1.799999 2.452686
v 1.189858 1.799999 0.385350
v 1.189858 1.350000 2.410063
v 1.189858 1.350000 0.342727
v 1.189858 0.900000 2.367440
v 1.189858 0.900000 0.300104
v 1.189858 0.450001 2.324818
v 1.189858 0.450001 0.257482
v 1.189858 0.000000 2.282195
v 1.189858 0.000000 0.214859
v 1.184061 1.799999 2.474683
v 1.184061 1.799999 0.363352
v 1.184061 1.350000 2.432060
v 1.184061 1.350000 0.320730
v 1.184061 0.900000 2.389438
v 1.184061 0.900000 0.278107
v 1.184061 0.450001 2.346815
v 1.184061 0.450001 0.235484
v 1.184061 0.000000 2.304192
v 1.184061 0.000000 0.192862
v 1.182847 1.799999 2.641139
v 1.182847 1.799999 0.196897
v 1.182847 1.350000 2.598516
v 1.182847 1.350000 0.154274
v 1.182847 0.900000 2.555894
v 1.182847 0.900000 0.111651
v 1.182847 0.450001 2.513271
v 1.182847 0.450001 0.069028
v 1.182847 0.000000 2.470648
v 1.182847 0.000000 0.026406
v 1.174008 1.799999 2.495851
v 1.174008 1.799999 0.342184
v 1.174008 1.350000 2.453229
v 1.174008 1.350000 0.299562
v 1.174008 0.900000 2.410606
v 1.174008 0.900000 0.256939
v 1.174008 0.450001 2.367983
v 1.174008 0.450001 0.214316
v 1.174008 0.000000 2.325360
v 1.174008 0.000000 0.171693
v 1.163087 1.799999 2.650949
v 1.163087 1.799999 0.187086
v 1.163087 1.350000 2.608326
v 1.163087 1.350000 0.144464
v 1.163087 0.900000 2.565704
v 1.163087 0.900000 0.101841
v 1.163087 0.450001 2.523081
v 1.163087 0.450001 0.059218
v 1.163087 0.000000 2.480458
v 1.163087 0.000000 0.016595
v 1.159937 1.799999 2.514748
v 1.159937 1.799999 0.323287
v 1.159937 1.350000 2.472126
v 1.159937 1.350000 0.280665
v 1.159937 0.900000 2.429503
v 1.159937 0.900000 0.238042
v 1.159937 0.450001 2.386880
v 1.159937 0.450001 0.195419
v 1.159937 0.000000 2.344257
v 1.159937 0.000000 0.152796
v 1.142951 1.799999 2.658421
v 1.142951 1.799999 0.179615
v 1.142951 1.350000 2.615798
v 1.142951 1.350000 0.136992
v 1.142951 0.900000 2.573175
v 1.142951 0.900000 0.094369
v 1.142951 0.450001 2.530553
v 1.142951 0.450001 0.051747
v 1.142951 0.000000 2.487930
v 1.142951 0.000000 0.009124
v 1.142614 1.799999 2.530099
v 1.142614 1.799999 0.307937
v 1.142614 1.350000 2.487476
v 1.142614 1.350000 0.265314
v 1.142614 0.900000 2.444853
v 1.142614 0.900000 0.222691
v 1.142614 0.450001 2.402231
v 1.142614 0.450001 0.180069
v 1.142614 0.000000 2.359608
v 1.142614 0.000000 0.137446
v 1.123210 1.799999 2.541065
v 1.123210 1.799999 0.296970
v 1.123210 1.350000 2.498442
v 1.123210 1.350000 0.254348
v 1.123210 0.900000 2.455820
v 1.123210 0.900000 0.211725
v 1.123210 0.450001 2.413197
v 1.123210 0.450001 0.169102
v 1.123210 0.000000 2.370574
v 1.123210 0.000000 0.126480
v 1.122759 1.799999 2.663599
v 1.122759 1.799999 0.174437
v 1.122759 1.350000 2.620976
v 1.122759 1.350000 0.131814
v 1.122759 0.900000 2.578353
v 1.122759 0.900000 0.089191
v 1.122759 0.450001 2.535731
v 1.122759 0.450001 0.046569
v 1.122759 0.000000 2.493108
v 1.122759 0.000000 0.003946
v 1.103046 1.799999 2.547390
v 1.103046 1.799999 0.290646
v 1.103046 1.350000 2.504767
v 1.103046 1.350000 0.248023
v 1.103046 0.900000 2.462144
v 1.103046 0.900000 0.205400
v 1.103046 0.450001 2.419522
v 1.103046 0.450001 0.162778
v 1.103046 0.000000 2.376899
v 1.103046 0.000000 0.120155
v 1.102802 1.799999 2.666589
v 1.102802 1.799999 0.171447
v 1.102802 1.350000 2.623966
v 1.102802 1.350000 0.128824
v 1.102802 0.900000 2.581343
v 1.102802 0.900000 0.086202
v 1.102802 0.450001 2.538720
v 1.102802 0.450001 0.043579
v 1.102802 0.000000 2.496098
v 1.102802 0.000000 0.000956
v 1.083333 1.799999 2.667545
v 1.083333 1.799999 2.549363
v 1.083333 1.799999 0.288673
v 1.083333 1.799999 0.170491
v 1.083333 1.350000 2.624922
v 1.083333 1.350000 2.506740
v 1.083333 1.350000 0.246050
v 1.083333 1.350000 0.127868
v 1.083333 0.900000 2.582299
v 1.083333 0.900000 2.464118
v 1.083333 0.900000 0.203427
v 1.083333 0.900000 0.085245
v 1.083333 0.450001 2.539676
v 1.083333 0.450001 2.421495
v 1.083333 0.450001 0.160805
v 1.083333 0.450001 0.042623
v 1.083333 0.000000 2.497054
v 1.083333 0.000000 2.378872
v 1.083333 0.000000 0.118182
v 1.083333 0.000000 0.000000
v 0.216667 1.799999 2.667545
v 0.216667 1.799999 2.549363
v 0.216667 1.799999 0.288673
v 0.216667 1.799999 0.170491
v 0.216667 1.350000 2.624922
v 0.216667 1.350000 2.506740
v 0.216667 1.350000 0.246050
v 0.216667 1.350000 0.127868
v 0.216667 0.900000 2.582299
v 0.216667 0.900000 2.464118
v 0.216667 0.900000 0.203427
v 0.216667 0.900000 0.085245
v 0.216667 0.450001 2.539676
v 0.216667 0.450001 2.421495
v 0.216667 0.450001 0.160805
v 0.216667 0.450001 0.042623
v 0.216667 0.000000 2.497054
v 0.216667 0.000000 2.378872
v 0.216667 0.000000 0.118182
v 0.216667 0.000000 0.000000
v 0.197198 1.799999 2.666589
v 0.197198 1.799999 0.171447
v 0.197198 1.350000 2.623966
v 0.197198 1.350000 0.128824
v 0.197198 0.900000 2.581343
v 0.197198 0.900000 0.086202
v 0.197198 0.450001 2.538720
v 0.197198 0.450001 0.043579
v 0.197198 0.000000 2.496098
v 0.197198 0.000000 0.000956
v 0.196954 1.799999 2.547390
v 0.196954 1.799999 0.290646
v 0.196954 1.350000 2.504767
v 0.196954 1.350000 0.248023
v 0.196954 0.900000 2.462144
v 0.196954 0.900000 0.205400
v 0.196954 0.450001 2.419522
v 0.196954 0.450001 0.162778
v 0.196954 0.000000 2.376899
v 0.196954 0.000000 0.120155
v 0.177241 1.799999 2.663599
v 0.177241 1.799999 0.174437
v 0.177241 1.350000 2.620976
v 0.177241 1.350000 0.131814
v 0.177241 0.900000 2.578353
v 0.177241 0.900000 0.089191
v 0.177241 0.450001 2.535731
v 0.177241 0.450001 0.046569
v 0.177241 0.000000 2.493108
v 0.177241 0.000000 0.003946
v 0.176790 1.799999 2.541065
v 0.176790 1.799999 0.296970
v 0.176790 1.350000 2.498442
v 0.176790 1.350000 0.254348
v 0.176790 0.900000 2.455820
v 0.176790 0.900000 0.211725
v 0.176790 0.450001 2.413197
v 0.176790 0.450001 0.169102
v 0.176790 0.000000 2.370574
v 0.176790 0.000000 0.126480
v 0.157386 1.799999 2.530099
v 0.157386 1.799999 0.307937
v 0.157386 1.350000 2.487476
v 0.157386 1.350000 0.265314
v 0.157386 0.900000 2.444853
v 0.157386 0.900000 0.222691
v 0.157386 0.450001 2.402231
v 0.157386 0.450001 0.180069
v 0.157386 0.000000 2.359608
v 0.157386 0.000000 0.137446
v 0.157049 1.799999 2.658421
v 0.157049 1.799999 0.179615
v 0.157049 1.350000 2.615798
v 0.157049 1.350000 0.136992
v 0.157049 0.900000 2.573175
v 0.157049 0.900000 0.094369
v 0.157049 0.450001 2.530553
v 0.157049 0.450001 0.051747
v 0.157049 0.000000 2.487930
v 0.157049 0.000000 0.009124
v 0.140064 1.799999 2.514748
v 0.140064 1.799999 0.323287
v 0.140064 1.350000 2.472126
v 0.140064 1.350000 0.280665
v 0.140064 0.900000 2.429503
v 0.140064 0.900000 0.238042
v 0.140064 0.450001 2.386880
v 0.140064 0.450001 0.195419
v 0.140064 0.000000 2.344257
v 0.140064 0.000000 0.152796
v 0.136913 1.799999 2.650949
v 0.136913 1.799999 0.187086
v 0.136913 1.350000 2.608326
v 0.136913 1.350000 0.144464
v 0.136913 0.900000 2.565704
v 0.136913 0.900000 0.101841
v 0.136913 0.450001 2.523081
v 0.136913 0.450001 0.059218
v 0.136913 0.000000 2.480458
v 0.136913 0.000000 0.016595
v 0.125992 1.799999 2.495851
v 0.125992 1.799999 0.342184
v 0.125992 1.350000 2.453229
v 0.125992 1.350000 0.299562
v 0.125992 0.900000 2.410606
v 0.125992 0.900000 0.256939
v 0.125992 0.450001 2.367983
v 0.125992 0.450001 0.214316
v 0.125992 0.000000 2.325360
v 0.125992 0.000000 0.171693
v 0.117153 1.799999 2.641139
v 0.117153 1.799999 0.196897
v 0.117153 1.350000 2.598516
v 0.117153 1.350000 0.154274
v 0.117153 0.900000 2.555894
v 0.117153 0.900000 0.111651
v 0.117153 0.450001 2.513271
v 0.117153 0.450001 0.069028
v 0.117153 0.000000 2.470648
v 0.117153 0.000000 0.026406
v 0.115940 1.799999 2.474683
v 0.115940 1.799999 0.363352
v 0.115940 1.350000 2.432060
v 0.115940 1.350000 0.320730
v 0.115940 0.900000 2.389438
v 0.115940 0.900000 0.278107
v 0.115940 0.450001 2.346815
v 0.115940 0.450001 0.235484
v 0.115940 0.000000 2.304192
v 0.115940 0.000000 0.192862
v 0.110142 1.799999 2.452686
v 0.110142 1.799999 0.385350
v 0.110142 1.350000 2.410063
v 0.110142 1.350000 0.342727
v 0.110142 0.900000 2.367440
v 0.110142 0.900000 0.300104
v 0.110142 0.450001 2.324818
v 0.110142 0.450001 0.257482
v 0.110142 0.000000 2.282195
v 0.110142 0.000000 0.214859
v 0.108334 1.799999 2.431181
v 0.108334 1.799999 0.406855
v 0.108334 1.350000 2.388558
v 0.108334 1.350000 0.364232
v 0.108334 0.900000 2.345936
v 0.108334 0.900000 0.321609
v 0.108334 0.450001 2.303313
v 0.108334 0.450001 0.278986
v 0.108334 0.000000 2.260690
v 0.108334 0.000000 0.236364
v 0.098104 1.799999 2.629016
v 0.098104 1.799999 0.209019
v 0.098104 1.350000 2.586394
v 0.098104 1.350000 0.166397
v 0.098104 0.900000 2.543771
v 0.098104 0.900000 0.123774
v 0.098104 0.450001 2.501148
v 0.098104 0.450001 0.081151
v 0.098104 0.000000 2.458525
v 0.098104 0.000000 0.038528
v 0.080102 1.799999 2.614683
v 0.080102 1.799999 0.223353
v 0.080102 1.350000 2.572060
v 0.080102 1.350000 0.180730
v 0.080102 0.900000 2.529437
v 0.080102 0.900000 0.138107
v 0.080102 0.450001 2.486814
v 0.080102 0.450001 0.095485
v 0.080102 0.000000 2.444192
v 0.080102 0.000000 0.052862
v 0.063460 1.799999 2.598315
v 0.063460 1.799999 0.239720
v 0.063460 1.350000 2.555693
v 0.063460 1.350000 0.197098
v 0.063460 0.900000 2.513070
v 0.063460 0.900000 0.154475
v 0.063460 0.450001 2.470447
v 0.063460 0.450001 0.111852
v 0.063460 0.000000 2.427824
v 0.063460 0.000000 0.069229
v 0.048457 1.799999 2.580161
v 0.048457 1.799999 0.257875
v 0.048457 1.350000 2.537538
v 0.048457 1.350000 0.215252
v 0.048457 0.900000 2.494915
v 0.048457 0.900000 0.172630
v 0.048457 0.450001 2.452292
v 0.048457 0.450001 0.130007
v 0.048457 0.000000 2.409670
v 0.048457 0.000000 0.087384
v 0.035318 1.799999 2.560522
v 0.035318 1.799999 0.277514
v 0.035318 1.350000 2.517899
v 0.035318 1.350000 0.234891
v 0.035318 0.900000 2.475276
v 0.035318 0.900000 0.192269
v 0.035318 0.450001 2.432653
v 0.035318 0.450001 0.149646
v 0.035318 0.000000 2.390031
v 0.035318 0.000000 0.107023
v 0.024205 1.799999 2.539742
v 0.024205 1.799999 0.298294
v 0.024205 1.350000 2.497119
v 0.024205 1.350000 0.255671
v 0.024205 0.900000 2.454496
v 0.024205 0.900000 0.213049
v 0.024205 0.450001 2.411873
v 0.024205 0.450001 0.170426
v 0.024205 0.000000 2.369251
v 0.024205 0.000000 0.127803
v 0.015213 1.799999 2.518185
v 0.015213 1.799999 0.319850
v 0.015213 1.350000 2.475563
v 0.015213 1.350000 0.277228
v 0.015213 0.900000 2.432940
v 0.015213 0.900000 0.234605
v 0.015213 0.450001 2.390317
v 0.015213 0.450001 0.191982
v 0.015213 0.000000 2.347694
v 0.015213 0.000000 0.149359
v 0.008364 1.799999 2.496218
v 0.008364 1.799999 0.341817
v 0.008364 1.350000 2.453596
v 0.008364 1.350000 0.299194
v 0.008364 0.900000 2.410973
v 0.008364 0.900000 0.256572
v 0.008364 0.450001 2.368350
v 0.008364 0.450001 0.213949
v 0.008364 0.000000 2.325727
v 0.008364 0.000000 0.171326
v 0.003617 1.799999 2.474190
v 0.003617 1.799999 0.363845
v 0.003617 1.350000 2.431568
v 0.003617 1.350000 0.321222
v 0.003617 0.900000 2.388945
v 0.003617 0.900000 0.278600
v 0.003617 0.450001 2.346322
v 0.003617 0.450001 0.235977
v 0.003617 0.000000 2.303700
v 0.003617 0.000000 0.193354
v 0.000876 1.799999 2.452420
v 0.000876 1.799999 0.385616
v 0.000876 1.350000 2.409797
v 0.000876 1.350000 0.342994
v 0.000876 0.900000 2.367174
v 0.000876 0.900000 0.300371
v 0.000876 0.450001 2.324551
v 0.000876 0.450001 0.257748
v 0.000876 0.000000 2.281929
v 0.000876 0.000000 0.215125
v 0.000000 1.799999 2.431181
v 0.000000 1.799999 0.406855
v 0.000000 1.350000 2.388558
v 0.000000 1.350000 0.364232
v 0.000000 0.900000 2.345936
v 0.000000 0.900000 0.321609
v 0.000000 0.450001 2.303313
v 0.000000 0.450001 0.278986
v 0.000000 0.000000 2.260690
v 0.000000 0.000000 0.236364

vn 0.707692 0.706253 0.019464
vn 0.831423 0.555523 -0.011430
vn 0.999785 -0.001953 0.020620
vn 0.999785 0.001953 -0.020620
vn 0.999785 -0.001953 0.020620
vn 0.999785 0.001953 -0.020620
vn 0.999785 -0.001953 0.020620
vn 0.999785 0.001953 -0.020620
vn 0.706512 -0.707634 0.009713
vn 0.832686 -0.553272 -0.022901
vn 0.831420 0.549693 0.081107
vn 0.827338 0.558767 -0.057370
vn 0.996507 -0.007875 0.083139
vn 0.996507 0.007875 -0.083139
vn 0.996507 -0.007875 0.083139
vn 0.996507 0.007875 -0.083139
vn 0.996507 -0.007875 0.083139
vn 0.996507 0.007875 -0.083139
vn 0.827338 -0.558767 0.057370
vn 0.831420 -0.549693 -0.081106
vn 0.824380 0.545031 0.152770
vn 0.816408 0.563356 -0.126916
vn 0.985674 -0.015904 0.167908
vn 0.985674 0.015904 -0.167909
vn 0.985674 -0.015904 0.167908
vn 0.985674 0.015904 -0.167909
vn 0.985674 -0.015904 0.167909
vn 0.985674 0.015904 -0.167908
vn 0.816408 -0.563356 0.126917
vn 0.824380 -0.545031 -0.152770
vn 0.810509 0.540259 0.226265
vn 0.798993 0.568016 -0.197404
vn 0.966819 -0.024089 0.254324
vn 0.966819 0.024089 -0.254323
vn 0.966819 -0.024089 0.254323
vn 0.966819 0.024089 -0.254323
vn 0.966819 -0.024089 0.254322
vn 0.966819 0.024089 -0.254323
vn 0.798993 -0.568016 0.197404
vn 0.810508 -0.540259 -0.226265
vn 0.671443 0.695442 0.255978
vn 0.657468 0.718298 -0.227560
vn 0.939320 -0.032347 0.341515
vn 0.939320 0.032347 -0.341515
vn 0.939319 -0.032347 0.341516
vn 0.939320 0.032347 -0.341515
vn 0.939319 -0.032347 0.341516
vn 0.939320 0.032347 -0.341515
vn 0.657469 -0.718298 0.227560
vn 0.671443 -0.695442 -0.255979
vn 0.759848 0.530586 0.375646
vn 0.743133 0.577349 -0.338262
vn 0.902664 -0.040580 0.428428
vn 0.902664 0.040580 -0.428428
vn 0.902665 -0.040579 0.428427
vn 0.902664 0.040580 -0.428428
vn 0.902664 -0.040580 0.428429
vn 0.902664 0.040580 -0.428428
vn 0.743132 -0.577349 0.338263
vn 0.759848 -0.530586 -0.375645
vn 0.722124 0.525815 0.449505
vn 0.704175 0.581904 -0.406848
vn 0.856515 -0.048668 0.513823
vn 0.856516 0.048668 -0.513821
vn 0.856516 -0.048668 0.513821
vn 0.856516 0.048668 -0.513821
vn 0.856516 -0.048668 0.513821
vn 0.856516 0.048668 -0.513821
vn 0.704175 -0.581904 0.406848
vn 0.722125 -0.525816 -0.449504
vn 0.575530 0.686823 0.443891
vn 0.557760 0.726731 -0.400956
vn 0.800739 -0.056484 0.596344
vn 0.800739 0.056484 -0.596344
vn 0.800739 -0.056484 0.596345
vn 0.800739 0.056484 -0.596344
vn 0.800740 -0.056484 0.596343
vn 0.800740 0.056484 -0.596344
vn 0.557760 -0.726731 0.400956
vn 0.575529 -0.686824 -0.443891
vn 0.620915 0.516800 0.589391
vn 0.604110 0.590443 -0.535191
vn 0.735501 -0.063887 0.674504
vn 0.735500 0.063887 -0.674506
vn 0.735499 -0.063887 0.674507
vn 0.735500 0.063887 -0.674506
vn 0.735499 -0.063887 0.674507
vn 0.735500 0.063887 -0.674506
vn 0.604111 -0.590442 0.535189
vn 0.620915 -0.516800 -0.589392
vn 0.475391 0.681723 0.556108
vn 0.460732 0.731699 -0.502337
vn 0.661300 -0.070733 0.746779
vn 0.661301 0.070733 -0.746779
vn 0.661303 -0.070733 0.746777
vn 0.661301 0.070733 -0.746779
vn 0.661300 -0.070733 0.746779
vn 0.661301 0.070733 -0.746779
vn 0.460731 -0.731699 0.502338
vn 0.475392 -0.681723 -0.556107
vn 0.415454 0.679523 0.604687
vn 0.404175 0.733843 -0.546000
vn 0.578997 -0.076882 0.811697
vn 0.578998 0.076882 -0.811696
vn 0.578996 -0.076882 0.811698
vn 0.578997 0.076882 -0.811696
vn 0.578998 -0.076882 0.811696
vn 0.578997 0.076882 -0.811696
vn 0.404176 -0.733843 0.546000
vn 0.415453 -0.679523 -0.604688
vn -0.445285 0.895042 -0.024931
vn -0.393879 0.919096 0.011013
vn -0.999113 0.003971 -0.041929
vn -0.999113 -0.003971 0.041929
vn -0.999113 0.003971 -0.041929
vn -0.999113 -0.003971 0.041929
vn -0.999113 0.003971 -0.041929
vn -0.999113 -0.003971 0.041929
vn -0.447229 -0.894332 -0.012505
vn -0.392285 -0.919582 0.021963
vn -0.498800 0.860810 -0.101020
vn -0.511042 0.856456 0.072930
vn -0.985324 0.016096 -0.169935
vn -0.985324 -0.016096 0.169935
vn -0.985324 0.016096 -0.169935
vn -0.985324 -0.016096 0.169935
vn -0.985324 0.016096 -0.169935
vn -0.985324 -0.016096 0.169935
vn -0.511042 -0.856456 -0.072930
vn -0.498800 -0.860810 0.101020
vn -0.545985 0.808652 -0.219047
vn -0.576254 0.794725 0.190640
vn -0.938701 0.032507 -0.343196
vn -0.938701 -0.032507 0.343197
vn -0.938700 0.032507 -0.343198
vn -0.938701 -0.032507 0.343197
vn -0.938700 0.032507 -0.343199
vn -0.938701 -0.032507 0.343197
vn -0.576254 -0.794725 -0.190641
vn -0.545985 -0.808652 0.219047
vn 0.350072 0.677619 0.646747
vn 0.343261 0.735705 -0.583875
vn 0.489828 -0.082208 0.867934
vn 0.489828 0.082208 -0.867934
vn 0.489830 -0.082208 0.867933
vn 0.489828 0.082208 -0.867934
vn 0.489827 -0.082208 0.867935
vn 0.489829 0.082208 -0.867934
vn 0.343260 -0.735704 0.583876
vn 0.350073 -0.677619 -0.646747
vn -0.576864 0.726466 -0.373464
vn -0.630243 0.692254 0.351537
vn -0.855830 0.048775 -0.514953
vn -0.855830 -0.048775 0.514952
vn -0.855830 0.048775 -0.514952
vn -0.855830 -0.048775 0.514952
vn -0.855831 0.048775 -0.514951
vn -0.855830 -0.048775 0.514952
vn -0.630243 -0.692253 -0.351538
vn -0.576865 -0.726466 0.373463
vn 0.328900 0.503304 0.799068
vn 0.329353 0.603176 -0.726433
vn 0.395345 -0.086613 0.914440
vn 0.395344 0.086613 -0.914440
vn 0.395344 -0.086613 0.914441
vn 0.395344 0.086613 -0.914440
vn 0.395345 -0.086613 0.914440
vn 0.395344 0.086613 -0.914440
vn 0.329352 -0.603176 0.726434
vn 0.328897 -0.503304 -0.799069
vn -0.485942 0.731667 -0.478042
vn -0.551924 0.686836 0.472902
vn -0.735059 0.063932 -0.674982
vn -0.735059 -0.063932 0.674983
vn -0.735058 0.063933 -0.674983
vn -0.735059 -0.063932 0.674983
vn -0.735058 0.063932 -0.674983
vn -0.735059 -0.063932 0.674983
vn -0.551925 -0.686836 -0.472901
vn -0.485942 -0.731667 0.478042
vn 0.208033 0.674835 0.708039
vn 0.212475 0.738452 -0.639955
vn 0.297333 -0.090031 0.950520
vn 0.297334 0.090031 -0.950519
vn 0.297334 -0.090031 0.950519
vn 0.297334 0.090031 -0.950519
vn 0.297335 -0.090031 0.950519
vn 0.297334 0.090031 -0.950519
vn 0.212475 -0.738452 0.639955
vn 0.208034 -0.674835 -0.708039
vn -0.317278 0.818192 -0.479475
vn -0.377130 0.785337 0.490937
vn -0.579160 0.076871 -0.811582
vn -0.579161 -0.076871 0.811581
vn -0.579162 0.076871 -0.811580
vn -0.579161 -0.076871 0.811581
vn -0.579161 0.076871 -0.811581
vn -0.579161 -0.076871 0.811581
vn -0.377129 -0.785337 -0.490938
vn -0.317279 -0.818192 0.479475
vn -0.246135 0.739018 -0.627112
vn -0.315907 0.678274 0.663436
vn -0.396392 0.086571 -0.913991
vn -0.396392 -0.086571 0.913991
vn -0.396390 0.086571 -0.913991
vn -0.396392 -0.086571 0.913991
vn -0.396393 0.086571 -0.913990
vn -0.396392 -0.086571 0.913991
vn -0.315908 -0.678274 -0.663436
vn -0.246133 -0.739018 0.627113
vn 0.134295 0.673989 0.726432
vn 0.144934 0.739308 -0.657585
vn 0.197694 -0.092434 0.975896
vn 0.197692 0.092434 -0.975896
vn 0.197690 -0.092434 0.975897
vn 0.197692 0.092434 -0.975896
vn 0.197692 -0.092434 0.975896
vn 0.197692 0.092434 -0.975896
vn 0.144937 -0.739308 0.657585
vn 0.134295 -0.673989 -0.726432
vn -0.112164 0.740660 -0.662451
vn -0.172349 0.675766 0.716684
vn -0.199641 0.092397 -0.975503
vn -0.199640 -0.092397 0.975503
vn -0.199643 0.092397 -0.975503
vn -0.199640 -0.092397 0.975503
vn -0.199639 0.092397 -0.975504
vn -0.199640 -0.092397 0.975503
vn -0.172349 -0.675766 -0.716684
vn -0.112166 -0.740660 0.662451
vn 0.060747 0.673505 0.736683
vn 0.077544 0.739819 -0.668323
vn 0.098296 -0.093839 0.990723
vn 0.098296 0.093839 -0.990723
vn 0.098298 -0.093839 0.990723
vn 0.098296 0.093839 -0.990723
vn 0.098294 -0.093838 0.990723
vn 0.098296 0.093839 -0.990723
vn 0.077543 -0.739819 0.668323
vn 0.060747 -0.673505 -0.736682
vn 0.018148 0.673075 0.739352
vn -0.018997 0.820519 -0.571304
vn -0.049135 0.673465 0.737584
vn 0.018709 0.646882 -0.762361
vn 0.024425 -0.094267 0.995247
vn -0.049635 0.094179 -0.994317
vn -0.049637 -0.094179 0.994317
vn 0.024424 0.094267 -0.995247
vn 0.024423 -0.094267 0.995247
vn -0.049639 0.094179 -0.994317
vn -0.049637 -0.094179 0.994317
vn 0.024424 0.094267 -0.995247
vn 0.024423 -0.094267 0.995247
vn -0.049637 0.094179 -0.994317
vn -0.049637 -0.094179 0.994317
vn 0.024424 0.094267 -0.995247
vn 0.021063 -0.512648 0.858341
vn -0.041597 -0.779949 -0.624460
vn -0.022354 -0.740012 0.672222
vn 0.014176 -0.816161 -0.577651
vn -0.012099 0.673055 0.739493
vn 0.026387 0.848467 -0.528590
vn 0.036856 0.673487 0.738279
vn -0.025987 0.607343 -0.794015
vn -0.024425 -0.094267 0.995247
vn 0.049635 0.094179 -0.994317
vn 0.049637 -0.094179 0.994317
vn -0.024424 0.094267 -0.995247
vn -0.024423 -0.094267 0.995247
vn 0.049639 0.094179 -0.994317
vn 0.049637 -0.094179 0.994317
vn -0.024424 0.094267 -0.995247
vn -0.024423 -0.094267 0.995247
vn 0.049637 0.094179 -0.994317
vn 0.049637 -0.094179 0.994317
vn -0.024424 0.094267 -0.995247
vn -0.022009 -0.739758 0.672513
vn 0.041617 -0.550655 -0.833695
vn 0.021386 -0.903336 0.428400
vn -0.014178 -0.498551 -0.866744
vn -0.060747 0.673505 0.736682
vn -0.077544 0.739819 -0.668323
vn -0.098296 -0.093839 0.990723
vn -0.098296 0.093839 -0.990723
vn -0.098298 -0.093839 0.990723
vn -0.098296 0.093839 -0.990723
vn -0.098294 -0.093838 0.990723
vn -0.098296 0.093839 -0.990723
vn -0.077543 -0.739819 0.668323
vn -0.060747 -0.673505 -0.736682
vn 0.112164 0.740660 -0.662451
vn 0.172349 0.675766 0.716684
vn 0.199641 0.092397 -0.975503
vn 0.199640 -0.092397 0.975503
vn 0.199643 0.092397 -0.975503
vn 0.199640 -0.092397 0.975503
vn 0.199639 0.092397 -0.975504
vn 0.199640 -0.092397 0.975503
vn 0.172349 -0.675766 -0.716684
vn 0.112166 -0.740660 0.662451
vn -0.134295 0.673989 0.726432
vn -0.144934 0.739308 -0.657585
vn -0.197694 -0.092434 0.975896
vn -0.197692 0.092434 -0.975896
vn -0.197690 -0.092434 0.975897
vn -0.197692 0.092434 -0.975896
vn -0.197692 -0.092434 0.975896
vn -0.197692 0.092434 -0.975896
vn -0.144937 -0.739308 0.657585
vn -0.134294 -0.673989 -0.726432
vn 0.246135 0.739018 -0.627112
vn 0.315907 0.678274 0.663436
vn 0.396392 0.086571 -0.913991
vn 0.396392 -0.086571 0.913991
vn 0.396390 0.086571 -0.913991
vn 0.396392 -0.086571 0.913991
vn 0.396393 0.086571 -0.913990
vn 0.396392 -0.086571 0.913991
vn 0.315908 -0.678274 -0.663436
vn 0.246133 -0.739018 0.627113
vn 0.317280 0.818192 -0.479474
vn 0.377134 0.785337 0.490934
vn 0.579165 0.076870 -0.811578
vn 0.579167 -0.076870 0.811577
vn 0.579167 0.076870 -0.811576
vn 0.579167 -0.076870 0.811577
vn 0.579167 0.076870 -0.811577
vn 0.579167 -0.076870 0.811577
vn 0.377133 -0.785337 -0.490934
vn 0.317281 -0.818192 0.479473
vn -0.208033 0.674835 0.708039
vn -0.212475 0.738452 -0.639955
vn -0.297333 -0.090031 0.950520
vn -0.297334 0.090031 -0.950519
vn -0.297334 -0.090031 0.950519
vn -0.297334 0.090031 -0.950519
vn -0.297335 -0.090031 0.950519
vn -0.297334 0.090031 -0.950519
vn -0.212475 -0.738452 0.639955
vn -0.208034 -0.674836 -0.708039
vn 0.485944 0.731666 -0.478040
vn 0.551922 0.686835 0.472906
vn 0.735059 0.063933 -0.674983
vn 0.735058 -0.063933 0.674984
vn 0.735057 0.063933 -0.674984
vn 0.735058 -0.063933 0.674984
vn 0.735057 0.063933 -0.674984
vn 0.735058 -0.063933 0.674984
vn 0.551923 -0.686835 -0.472905
vn 0.485944 -0.731666 0.478041
vn -0.328902 0.503304 0.799067
vn -0.329358 0.603176 -0.726431
vn -0.395350 -0.086613 0.914438
vn -0.395348 0.086613 -0.914438
vn -0.395348 -0.086613 0.914439
vn -0.395348 0.086613 -0.914438
vn -0.395349 -0.086613 0.914438
vn -0.395348 0.086613 -0.914438
vn -0.329357 -0.603176 0.726431
vn -0.328900 -0.503305 -0.799068
vn 0.576860 0.726466 -0.373470
vn 0.630241 0.692254 0.351541
vn 0.855825 0.048776 -0.514960
vn 0.855826 -0.048776 0.514959
vn 0.855826 0.048775 -0.514959
vn 0.855826 -0.048775 0.514959
vn 0.855827 0.048775 -0.514958
vn 0.855826 -0.048776 0.514959
vn 0.630241 -0.692254 -0.351541
vn 0.576860 -0.726466 0.373469
vn -0.350074 0.677619 0.646746
vn -0.343259 0.735704 -0.583877
vn -0.489828 -0.082208 0.867935
vn -0.489828 0.082208 -0.867935
vn -0.489829 -0.082208 0.867934
vn -0.489828 0.082208 -0.867935
vn -0.489826 -0.082208 0.867935
vn -0.489828 0.082208 -0.867935
vn -0.343258 -0.735704 0.583878
vn -0.350075 -0.677619 -0.646746
vn 0.545986 0.808653 -0.219043
vn 0.576256 0.794725 0.190632
vn 0.938705 0.032506 -0.343187
vn 0.938704 -0.032506 0.343188
vn 0.938704 0.032506 -0.343188
vn 0.938704 -0.032506 0.343188
vn 0.938704 0.032506 -0.343189
vn 0.938704 -0.032506 0.343188
vn 0.576256 -0.794725 -0.190633
vn 0.545986 -0.808653 0.219043
vn 0.498802 0.860809 -0.101017
vn 0.511042 0.856456 0.072934
vn 0.985324 0.016096 -0.169936
vn 0.985324 -0.016096 0.169936
vn 0.985324 0.016096 -0.169936
vn 0.985324 -0.016096 0.169936
vn 0.985324 0.016096 -0.169935
vn 0.985324 -0.016096 0.169936
vn 0.511042 -0.856456 -0.072934
vn 0.498802 -0.860809 0.101017
vn 0.392284 0.919582 -0.021969
vn 0.447229 0.894332 0.012508
vn 0.999112 0.003972 -0.041940
vn 0.999112 -0.003972 0.041940
vn 0.999112 0.003972 -0.041940
vn 0.999112 -0.003972 0.041940
vn 0.999112 0.003972 -0.041940
vn 0.999112 -0.003972 0.041940
vn 0.393879 -0.919096 -0.011016
vn 0.445284 -0.895042 0.024937
vn -0.415452 0.679523 0.604689
vn -0.404178 0.733843 -0.545998
vn -0.578998 -0.076882 0.811696
vn -0.578998 0.076882 -0.811696
vn -0.578997 -0.076882 0.811697
vn -0.578998 0.076882 -0.811696
vn -0.578999 -0.076882 0.811695
vn -0.578998 0.076882 -0.811696
vn -0.404178 -0.733843 0.545998
vn -0.415451 -0.679523 -0.604689
vn -0.475393 0.681723 0.556107
vn -0.460730 0.731699 -0.502340
vn -0.661299 -0.070733 0.746780
vn -0.661300 0.070733 -0.746779
vn -0.661302 -0.070733 0.746777
vn -0.661300 0.070733 -0.746779
vn -0.661299 -0.070733 0.746780
vn -0.661300 0.070733 -0.746779
vn -0.460729 -0.731698 0.502341
vn -0.475394 -0.681723 -0.556106
vn -0.620913 0.516800 0.589394
vn -0.604113 0.590442 -0.535187
vn -0.735502 -0.063887 0.674504
vn -0.735500 0.063887 -0.674506
vn -0.735500 -0.063887 0.674506
vn -0.735500 0.063887 -0.674506
vn -0.735500 -0.063887 0.674506
vn -0.735500 0.063887 -0.674506
vn -0.604114 -0.590442 0.535186
vn -0.620912 -0.516800 -0.589394
vn -0.575532 0.686823 0.443888
vn -0.557757 0.726731 -0.400959
vn -0.800739 -0.056484 0.596345
vn -0.800739 0.056484 -0.596344
vn -0.800738 -0.056484 0.596345
vn -0.800739 0.056484 -0.596344
vn -0.800739 -0.056484 0.596344
vn -0.800739 0.056484 -0.596344
vn -0.557757 -0.726731 0.400960
vn -0.575531 -0.686823 -0.443889
vn -0.722120 0.525815 0.449513
vn -0.704173 0.581904 -0.406851
vn -0.856510 -0.048668 0.513830
vn -0.856511 0.048668 -0.513829
vn -0.856511 -0.048668 0.513829
vn -0.856511 0.048668 -0.513829
vn -0.856512 -0.048668 0.513828
vn -0.856511 0.048668 -0.513829
vn -0.704173 -0.581904 0.406852
vn -0.722120 -0.525815 -0.449512
vn -0.759848 0.530586 0.375646
vn -0.743133 0.577349 -0.338262
vn -0.902664 -0.040580 0.428428
vn -0.902664 0.040580 -0.428428
vn -0.902665 -0.040579 0.428427
vn -0.902664 0.040580 -0.428428
vn -0.902664 -0.040580 0.428429
vn -0.902664 0.040580 -0.428428
vn -0.743132 -0.577349 0.338263
vn -0.759848 -0.530586 -0.375645
vn -0.671443 0.695442 0.255978
vn -0.657468 0.718298 -0.227560
vn -0.939320 -0.032347 0.341515
vn -0.939320 0.032347 -0.341515
vn -0.939319 -0.032347 0.341516
vn -0.939320 0.032347 -0.341515
vn -0.939319 -0.032347 0.341516
vn -0.939320 0.032347 -0.341515
vn -0.657469 -0.718298 0.227560
vn -0.671443 -0.695442 -0.255979
vn -0.810509 0.540259 0.226265
vn -0.798993 0.568016 -0.197404
vn -0.966819 -0.024089 0.254324
vn -0.966819 0.024089 -0.254323
vn -0.966819 -0.024089 0.254323
vn -0.966819 0.024089 -0.254323
vn -0.966819 -0.024089 0.254322
vn -0.966819 0.024089 -0.254323
vn -0.798993 -0.568016 0.197404
vn -0.810508 -0.540259 -0.226265
vn -0.824380 0.545031 0.152770
vn -0.816408 0.563356 -0.126916
vn -0.985674 -0.015904 0.167908
vn -0.985674 0.015904 -0.167909
vn -0.985674 -0.015904 0.167908
vn -0.985674 0.015904 -0.167909
vn -0.985674 -0.015904 0.167909
vn -0.985674 0.015904 -0.167908
vn -0.816408 -0.563356 0.126917
vn -0.824380 -0.545031 -0.152770
vn -0.831420 0.549693 0.081107
vn -0.827338 0.558767 -0.057370
vn -0.996507 -0.007875 0.083139
vn -0.996507 0.007875 -0.083139
vn -0.996507 -0.007875 0.083139
vn -0.996507 0.007875 -0.083139
vn -0.996507 -0.007875 0.083139
vn -0.996507 0.007875 -0.083139
vn -0.827338 -0.558767 0.057370
vn -0.831420 -0.549693 -0.081106
vn -0.832686 0.553272 0.022901
vn -0.706512 0.707634 -0.009713
vn -0.999785 -0.001953 0.020620
vn -0.999785 0.001953 -0.020620
vn -0.999785 -0.001953 0.020620
vn -0.999785 0.001953 -0.020620
vn -0.999785 -0.001953 0.020620
vn -0.999785 0.001953 -0.020620
vn -0.831423 -0.555523 0.011430
vn -0.707692 -0.706253 -0.019464

f 512//512 514//514 513//513
f 515//515 513//513 514//514
f 516//516 518//518 517//517
f 519//519 517//517 518//518
f 495//495 505//505 497//497
f 493//493 503//503 495//495
f 485//485 495//495 487//487
f 483//483 493//493 485//485
f 475//475 485//485 477//477
f 473//473 483//483 475//475
f 465//465 475//475 467//467
f 463//463 473//473 465//465
f 455//455 465//465 457//457
f 453//453 463//463 455//455
f 445//445 455//455 447//447
f 443//443 453//453 445//445
f 435//435 445//445 437//437
f 433//433 443//443 435//435
f 425//425 435//435 427//427
f 423//423 433//433 425//425
f 415//415 425//425 417//417
f 413//413 423//423 415//415
f 375//375 415//415 377//377
f 373//373 413//413 375//375
f 355//355 375//375 357//357
f 353//353 373//373 355//355
f 335//335 355//355 337//337
f 333//333 353//353 335//335
f 305//305 335//335 307//307
f 303//303 333//333 305//305
f 285//285 305//305 287//287
f 283//283 303//303 285//285
f 509//509 507//507 517//517
f 489//489 487//487 497//497
f 499//499 497//497 507//507
f 507//507 505//505 515//515
f 479//479 477//477 487//487
f 459//459 457//457 467//467
f 439//439 437//437 447//447
f 449//449 447//447 457//457
f 469//469 467//467 477//477
f 437//437 439//439 429//429
f 513//513 515//515 505//505
f 503//503 501//501 511//511
f 491//491 493//493 483//483
f 493//493 491//491 501//501
f 463//463 461//461 471//471
f 443//443 441//441 451//451
f 453//453 451//451 461//461
f 473//473 471//471 481//481
f 441//441 443//443 433//433
f 419//419 417//417 427//427
f 359//359 357//357 377//377
f 379//379 377//377 417//417
f 339//339 337//337 357//357
f 309//309 307//307 337//337
f 289//289 287//287 307//307
f 277//277 273//273 287//287
f 273//273 269//269 285//285
f 269//269 265//265 283//283
f 423//423 421//421 431//431
f 373//373 371//371 411//411
f 413//413 411//411 421//421
f 353//353 351//351 371//371
f 303//303 301//301 331//331
f 265//265 261//261 281//281
f 283//283 281//281 301//301
f 333//333 331//331 351//351
f 273//273 277//277 257//257
f 265//265 269//269 249//249
f 261//261 265//265 245//245
f 269//269 273//273 253//253
f 215//215 235//235 237//237
f 213//213 233//233 235//235
f 185//185 215//215 217//217
f 183//183 213//213 215//215
f 165//165 185//185 187//187
f 163//163 183//183 185//185
f 145//145 165//165 167//167
f 143//143 163//163 165//165
f 105//105 145//145 147//147
f 103//103 143//143 145//145
f 95//95 105//105 107//107
f 93//93 103//103 105//105
f 85//85 95//95 97//97
f 83//83 93//93 95//95
f 75//75 85//85 87//87
f 73//73 83//83 85//85
f 65//65 75//75 77//77
f 63//63 73//73 75//75
f 55//55 65//65 67//67
f 53//53 63//63 65//65
f 45//45 55//55 57//57
f 43//43 53//53 55//55
f 35//35 45//45 47//47
f 33//33 43//43 45//45
f 25//25 35//35 37//37
f 23//23 33//33 35//35
f 15//15 25//25 27//27
f 13//13 23//23 25//25
f 239//239 237//237 257//257
f 189//189 187//187 219//219
f 219//219 217//217 239//239
f 237//237 235//235 253//253
f 169//169 167//167 189//189
f 109//109 107//107 149//149
f 89//89 87//87 99//99
f 99//99 97//97 109//109
f 149//149 147//147 169//169
f 87//87 89//89 77//77
f 245//245 249//249 233//233
f 233//233 231//231 245//245
f 211//211 213//213 181//181
f 213//213 211//211 233//233
f 143//143 141//141 163//163
f 93//93 91//91 103//103
f 103//103 101//101 143//143
f 163//163 161//161 183//183
f 91//91 93//93 81//81
f 69//69 67//67 79//79
f 49//49 47//47 59//59
f 59//59 57//57 69//69
f 39//39 37//37 49//49
f 29//29 27//27 39//39
f 19//19 17//17 29//29
f 9//9 7//7 19//19
f 7//7 5//5 17//17
f 5//5 3//3 15//15
f 73//73 71//71 83//83
f 53//53 51//51 63//63
f 63//63 61//61 73//73
f 43//43 41//41 53//53
f 23//23 21//21 33//33
f 3//3 1//1 13//13
f 13//13 11//11 23//23
f 33//33 31//31 43//43
f 1//1 3//3 2//2
f 3//3 5//5 4//4
f 7//7 9//9 8//8
f 8//8 6//6 7//7
f 26//26 16//16 18//18
f 24//24 14//14 16//16
f 36//36 26//26 28//28
f 34//34 24//24 26//26
f 46//46 36//36 38//38
f 44//44 34//34 36//36
f 56//56 46//46 48//48
f 54//54 44//44 46//46
f 66//66 56//56 58//58
f 64//64 54//54 56//56
f 76//76 66//66 68//68
f 74//74 64//64 66//66
f 86//86 76//76 78//78
f 84//84 74//74 76//76
f 96//96 86//86 88//88
f 94//94 84//84 86//86
f 106//106 96//96 98//98
f 104//104 94//94 96//96
f 146//146 106//106 108//108
f 144//144 104//104 106//106
f 166//166 146//146 148//148
f 164//164 144//144 146//146
f 186//186 166//166 168//168
f 184//184 164//164 166//166
f 216//216 186//186 188//188
f 214//214 184//184 186//186
f 236//236 216//216 218//218
f 234//234 214//214 216//216
f 20//20 18//18 10//10
f 40//40 38//38 30//30
f 30//30 28//28 20//20
f 18//18 16//16 8//8
f 50//50 48//48 40//40
f 70//70 68//68 60//60
f 90//90 88//88 80//80
f 80//80 78//78 70//70
f 60//60 58//58 50//50
f 88//88 90//90 98//98
f 4//4 6//6 14//14
f 14//14 12//12 4//4
f 22//22 24//24 32//32
f 24//24 22//22 14//14
f 54//54 52//52 44//44
f 74//74 72//72 64//64
f 64//64 62//62 54//54
f 44//44 42//42 34//34
f 72//72 74//74 82//82
f 110//110 108//108 100//100
f 170//170 168//168 150//150
f 150//150 148//148 110//110
f 190//190 188//188 170//170
f 220//220 218//218 190//190
f 240//240 238//238 220//220
f 260//260 256//256 240//240
f 256//256 252//252 238//238
f 252//252 248//248 236//236
f 94//94 92//92 84//84
f 144//144 142//142 104//104
f 104//104 102//102 94//94
f 164//164 162//162 144//144
f 214//214 212//212 184//184
f 248//248 244//244 234//234
f 234//234 232//232 214//214
f 184//184 182//182 164//164
f 256//256 260//260 280//280
f 248//248 252//252 272//272
f 244//244 248//248 268//268
f 252//252 256//256 276//276
f 306//306 286//286 308//308
f 304//304 284//284 306//306
f 336//336 306//306 338//338
f 334//334 304//304 336//336
f 356//356 336//336 358//358
f 354//354 334//334 356//356
f 376//376 356//356 378//378
f 374//374 354//354 376//376
f 416//416 376//376 418//418
f 414//414 374//374 416//416
f 426//426 416//416 428//428
f 424//424 414//414 426//426
f 436//436 426//426 438//438
f 434//434 424//424 436//436
f 446//446 436//436 448//448
f 444//444 434//434 446//446
f 456//456 446//446 458//458
f 454//454 444//444 456//456
f 466//466 456//456 468//468
f 464//464 454//454 466//466
f 476//476 466//466 478//478
f 474//474 464//464 476//476
f 486//486 476//476 488//488
f 484//484 474//474 486//486
f 496//496 486//486 498//498
f 494//494 484//484 496//496
f 506//506 496//496 508//508
f 504//504 494//494 506//506
f 290//290 288//288 276//276
f 340//340 338//338 308//308
f 310//310 308//308 288//288
f 288//288 286//286 272//272
f 360//360 358//358 338//338
f 420//420 418//418 378//378
f 440//440 438//438 428//428
f 430//430 428//428 418//418
f 380//380 378//378 358//358
f 438//438 440//440 450//450
f 268//268 272//272 286//286
f 284//284 282//282 264//264
f 302//302 304//304 334//334
f 304//304 302//302 282//282
f 374//374 372//372 352//352
f 424//424 422//422 412//412
f 414//414 412//412 372//372
f 354//354 352//352 332//332
f 422//422 424//424 434//434
f 460//460 458//458 448//448
f 480//480 478//478 468//468
f 470//470 468//468 458//458
f 490//490 488//488 478//478
f 500//500 498//498 488//488
f 510//510 508//508 498//498
f 520//520 518//518 508//508
f 518//518 516//516 506//506
f 516//516 514//514 504//504
f 444//444 442//442 432//432
f 464//464 462//462 452//452
f 454//454 452//452 442//442
f 474//474 472//472 462//462
f 494//494 492//492 482//482
f 514//514 512//512 502//502
f 504//504 502//502 492//492
f 484//484 482//482 472//472
f 386//386 396//396 398//398
f 384//384 394//394 396//396
f 366//366 386//386 388//388
f 364//364 384//384 386//386
f 346//346 366//366 368//368
f 344//344 364//364 366//366
f 326//326 346//346 348//348
f 324//324 344//344 346//346
f 316//316 326//326 328//328
f 314//314 324//324 326//326
f 296//296 316//316 318//318
f 294//294 314//314 316//316
f 400//400 398//398 410//410
f 398//398 400//400 388//388
f 398//398 396//396 408//408
f 350//350 348//348 370//370
f 370//370 368//368 390//390
f 348//348 350//350 328//328
f 396//396 394//394 406//406
f 402//402 404//404 392//392
f 364//364 362//362 384//384
f 384//384 382//382 394//394
f 362//362 364//364 342//342
f 320//320 318//318 330//330
f 318//318 320//320 298//298
f 279//279 275//275 300//300
f 275//275 271//271 298//298
f 271//271 267//267 296//296
f 324//324 322//322 344//344
f 322//322 324//324 312//312
f 267//267 263//263 294//294
f 294//294 292//292 314//314
f 275//275 279//279 259//259
f 267//267 271//271 251//251
f 263//263 267//267 247//247
f 271//271 275//275 255//255
f 206//206 226//226 208//208
f 204//204 224//224 206//206
f 196//196 206//206 198//198
f 194//194 204//204 196//196
f 176//176 196//196 178//178
f 174//174 194//194 176//176
f 156//156 176//176 158//158
f 154//154 174//174 156//156
f 136//136 156//156 138//138
f 134//134 154//154 136//136
f 126//126 136//136 128//128
f 124//124 134//134 126//126
f 230//230 228//228 255//255
f 228//228 230//230 210//210
f 228//228 226//226 251//251
f 180//180 178//178 198//198
f 200//200 198//198 208//208
f 178//178 180//180 160//160
f 226//226 224//224 247//247
f 243//243 247//247 224//224
f 194//194 192//192 202//202
f 204//204 202//202 222//222
f 192//192 194//194 174//174
f 140//140 138//138 158//158
f 138//138 140//140 130//130
f 120//120 118//118 128//128
f 118//118 116//116 126//126
f 116//116 114//114 124//124
f 154//154 152//152 172//172
f 152//152 154//154 134//134
f 114//114 112//112 122//122
f 124//124 122//122 132//132
f 112//112 114//114 113//113
f 115//115 113//113 114//114
f 116//116 118//118 117//117
f 119//119 117//117 118//118
f 135//135 125//125 137//137
f 133//133 123//123 135//135
f 155//155 135//135 157//157
f 153//153 133//133 155//155
f 175//175 155//155 177//177
f 173//173 153//153 175//175
f 195//195 175//175 197//197
f 193//193 173//173 195//195
f 205//205 195//195 207//207
f 203//203 193//193 205//205
f 225//225 205//205 227//227
f 223//223 203//203 225//225
f 129//129 127//127 117//117
f 127//127 129//129 139//139
f 127//127 125//125 115//115
f 179//179 177//177 157//157
f 159//159 157//157 137//137
f 177//177 179//179 199//199
f 125//125 123//123 113//113
f 111//111 113//113 123//123
f 153//153 151//151 131//131
f 133//133 131//131 121//121
f 151//151 153//153 173//173
f 209//209 207//207 197//197
f 207//207 209//209 229//229
f 258//258 254//254 227//227
f 254//254 250//250 225//225
f 250//250 246//246 223//223
f 193//193 191//191 171//171
f 191//191 193//193 203//203
f 246//246 242//242 221//221
f 223//223 221//221 201//201
f 254//254 258//258 278//278
f 246//246 250//250 270//270
f 242//242 246//246 266//266
f 250//250 254//254 274//274
f 315//315 295//295 297//297
f 313//313 293//293 295//295
f 325//325 315//315 317//317
f 323//323 313//313 315//315
f 345//345 325//325 327//327
f 343//343 323//323 325//325
f 365//365 345//345 347//347
f 363//363 343//343 345//345
f 385//385 365//365 367//367
f 383//383 363//363 365//365
f 395//395 385//385 387//387
f 393//393 383//383 385//385
f 299//299 297//297 278//278
f 297//297 299//299 317//317
f 297//297 295//295 274//274
f 349//349 347//347 329//329
f 329//329 327//327 319//319
f 347//347 349//349 367//367
f 295//295 293//293 270//270
f 262//262 266//266 291//291
f 323//323 321//321 313//313
f 313//313 311//311 293//293
f 321//321 323//323 341//341
f 389//389 387//387 369//369
f 387//387 389//389 397//397
f 409//409 407//407 399//399
f 407//407 405//405 397//397
f 405//405 403//403 395//395
f 363//363 361//361 343//343
f 361//361 363//363 381//381
f 403//403 401//401 393//393
f 393//393 391//391 383//383
f 401//401 403//403 402//402
f 403//403 405//405 404//404
f 407//407 409//409 408//408
f 408//408 406//406 407//407
f 70//70 60//60 130//130
f 70//70 130//130 80//80
f 80//80 140//140 90//90
f 140//140 80//80 130//130
f 90//90 140//140 100//100
f 20//20 10//10 120//120
f 30//30 20//20 120//120
f 120//120 50//50 40//40
f 50//50 120//120 130//130
f 130//130 60//60 50//50
f 30//30 120//120 40//40
f 120//120 10//10 9//9
f 160//160 110//110 100//100
f 170//170 150//150 200//200
f 170//170 200//200 190//190
f 240//240 220//220 230//230
f 210//210 220//220 190//190
f 260//260 240//240 259//259
f 160//160 100//100 140//140
f 180//180 110//110 160//160
f 240//240 230//230 259//259
f 190//190 200//200 210//210
f 220//220 210//210 230//230
f 200//200 150//150 180//180
f 260//260 259//259 279//279
f 180//180 150//150 110//110
f 29//29 119//119 19//19
f 9//9 19//19 119//119
f 119//119 39//39 49//49
f 29//29 39//39 119//119
f 129//129 119//119 49//49
f 49//49 59//59 129//129
f 59//59 69//69 129//129
f 69//69 79//79 129//129
f 89//89 139//139 79//79
f 89//89 99//99 139//139
f 109//109 159//159 99//99
f 79//79 139//139 129//129
f 109//109 149//149 179//179
f 159//159 109//109 179//179
f 219//219 229//229 209//209
f 189//189 209//209 199//199
f 149//149 199//199 179//179
f 169//169 189//189 199//199
f 199//199 149//149 169//169
f 219//219 239//239 229//229
f 209//209 189//189 219//219
f 258//258 239//239 257//257
f 258//258 257//257 277//277
f 239//239 258//258 229//229
f 139//139 99//99 159//159
f 280//280 279//279 290//290
f 290//290 300//300 310//310
f 360//360 340//340 330//330
f 320//320 340//340 310//310
f 380//380 360//360 330//330
f 290//290 279//279 300//300
f 310//310 300//300 320//320
f 380//380 330//330 350//350
f 370//370 390//390 430//430
f 420//420 350//350 370//370
f 330//330 340//340 320//320
f 380//380 350//350 420//420
f 440//440 430//430 390//390
f 450//450 440//440 390//390
f 460//460 450//450 400//400
f 390//390 400//400 450//450
f 470//470 460//460 400//400
f 410//410 480//480 400//400
f 470//470 400//400 480//480
f 490//490 480//480 410//410
f 500//500 410//410 510//510
f 510//510 410//410 520//520
f 490//490 410//410 500//500
f 409//409 519//519 520//520
f 420//420 370//370 430//430
f 339//339 329//329 319//319
f 309//309 319//319 299//299
f 369//369 349//349 419//419
f 419//419 349//349 379//379
f 379//379 349//349 329//329
f 277//277 289//289 278//278
f 289//289 299//299 278//278
f 339//339 319//319 309//309
f 289//289 309//309 299//299
f 329//329 339//339 359//359
f 359//359 379//379 329//329
f 429//429 389//389 369//369
f 409//409 399//399 479//479
f 499//499 409//409 489//489
f 489//489 409//409 479//479
f 499//499 509//509 409//409
f 519//519 409//409 509//509
f 389//389 429//429 439//439
f 429//429 369//369 419//419
f 399//399 459//459 469//469
f 459//459 399//399 449//449
f 449//449 389//389 439//439
f 399//399 469//469 479//479
f 389//389 449//449 399//399
f 62//62 122//122 52//52
f 62//62 72//72 122//122
f 72//72 82//82 132//132
f 132//132 122//122 72//72
f 82//82 92//92 132//132
f 12//12 112//112 2//2
f 22//22 112//112 12//12
f 112//112 32//32 42//42
f 42//42 122//122 112//112
f 122//122 42//42 52//52
f 22//22 32//32 112//112
f 112//112 111//111 1//1
f 152//152 92//92 102//102
f 162//162 192//192 142//142
f 162//162 182//182 192//192
f 232//232 222//222 212//212
f 202//202 182//182 212//212
f 244//244 243//243 232//232
f 152//152 132//132 92//92
f 172//172 152//152 102//102
f 232//232 243//243 222//222
f 182//182 202//202 192//192
f 212//212 222//222 202//202
f 192//192 172//172 142//142
f 244//244 264//264 263//263
f 172//172 102//102 142//142
f 21//21 11//11 111//111
f 1//1 111//111 11//11
f 111//111 41//41 31//31
f 21//21 111//111 31//31
f 121//121 41//41 111//111
f 41//41 121//121 51//51
f 51//51 121//121 61//61
f 61//61 121//121 71//71
f 81//81 71//71 131//131
f 81//81 131//131 91//91
f 101//101 91//91 151//151
f 71//71 121//121 131//131
f 101//101 171//171 141//141
f 151//151 171//171 101//101
f 211//211 201//201 221//221
f 181//181 191//191 201//201
f 141//141 171//171 191//191
f 161//161 191//191 181//181
f 191//191 161//161 141//141
f 211//211 221//221 231//231
f 201//201 211//211 181//181
f 242//242 241//241 231//231
f 242//242 262//262 261//261
f 231//231 221//221 242//242
f 131//131 151//151 91//91
f 264//264 282//282 263//263
f 282//282 302//302 292//292
f 352//352 322//322 332//332
f 312//312 302//302 332//332
f 372//372 322//322 352//352
f 282//282 292//292 263//263
f 302//302 312//312 292//292
f 372//372 342//342 322//322
f 362//362 422//422 382//382
f 412//412 362//362 342//342
f 322//322 312//312 332//332
f 372//372 412//412 342//342
f 432//432 382//382 422//422
f 442//442 382//382 432//432
f 452//452 392//392 442//442
f 382//382 442//442 392//392
f 462//462 392//392 452//452
f 402//402 392//392 472//472
f 462//462 472//472 392//392
f 482//482 402//402 472//472
f 492//492 502//502 402//402
f 502//502 512//512 402//402
f 482//482 492//492 402//402
f 401//401 402//402 512//512
f 412//412 422//422 362//362
f 331//331 311//311 321//321
f 301//301 291//291 311//311
f 361//361 411//411 341//341
f 411//411 371//371 341//341
f 371//371 321//321 341//341
f 261//261 262//262 281//281
f 281//281 262//262 291//291
f 331//331 301//301 311//311
f 281//281 291//291 301//301
f 321//321 351//351 331//331
f 351//351 321//321 371//371
f 421//421 361//361 381//381
f 401//401 471//471 391//391
f 491//491 481//481 401//401
f 481//481 471//471 401//401
f 491//491 401//401 501//501
f 511//511 501//501 401//401
f 381//381 431//431 421//421
f 421//421 411//411 361//361
f 391//391 461//461 451//451
f 451//451 441//441 391//391
f 441//441 431//431 381//381
f 391//391 471//471 461//461
f 381//381 391//391 441//441
f 512//512 513//513 511//511
f 515//515 514//514 516//516
f 516//516 517//517 515//515
f 519//519 518//518 520//520
f 505//505 507//507 497//497
f 503//503 505//505 495//495
f 495//495 497//497 487//487
f 493//493 495//495 485//485
f 485//485 487//487 477//477
f 483//483 485//485 475//475
f 475//475 477//477 467//467
f 473//473 475//475 465//465
f 465//465 467//467 457//457
f 463//463 465//465 455//455
f 455//455 457//457 447//447
f 453//453 455//455 445//445
f 445//445 447//447 437//437
f 443//443 445//445 435//435
f 435//435 437//437 427//427
f 433//433 435//435 425//425
f 425//425 427//427 417//417
f 423//423 425//425 415//415
f 415//415 417//417 377//377
f 413//413 415//415 375//375
f 375//375 377//377 357//357
f 373//373 375//375 355//355
f 355//355 357//357 337//337
f 353//353 355//355 335//335
f 335//335 337//337 307//307
f 333//333 335//335 305//305
f 305//305 307//307 287//287
f 303//303 305//305 285//285
f 509//509 517//517 519//519
f 489//489 497//497 499//499
f 499//499 507//507 509//509
f 507//507 515//515 517//517
f 479//479 487//487 489//489
f 459//459 467//467 469//469
f 439//439 447//447 449//449
f 449//449 457//457 459//459
f 469//469 477//477 479//479
f 437//437 429//429 427//427
f 513//513 505//505 503//503
f 503//503 511//511 513//513
f 491//491 483//483 481//481
f 493//493 501//501 503//503
f 463//463 471//471 473//473
f 443//443 451//451 453//453
f 453//453 461//461 463//463
f 473//473 481//481 483//483
f 441//441 433//433 431//431
f 419//419 427//427 429//429
f 359//359 377//377 379//379
f 379//379 417//417 419//419
f 339//339 357//357 359//359
f 309//309 337//337 339//339
f 289//289 307//307 309//309
f 277//277 287//287 289//289
f 273//273 285//285 287//287
f 269//269 283//283 285//285
f 423//423 431//431 433//433
f 373//373 411//411 413//413
f 413//413 421//421 423//423
f 353//353 371//371 373//373
f 303//303 331//331 333//333
f 265//265 281//281 283//283
f 283//283 301//301 303//303
f 333//333 351//351 353//353
f 273//273 257//257 253//253
f 265//265 249//249 245//245
f 261//261 245//245 241//241
f 269//269 253//253 249//249
f 215//215 237//237 217//217
f 213//213 235//235 215//215
f 185//185 217//217 187//187
f 183//183 215//215 185//185
f 165//165 187//187 167//167
f 163//163 185//185 165//165
f 145//145 167//167 147//147
f 143//143 165//165 145//145
f 105//105 147//147 107//107
f 103//103 145//145 105//105
f 95//95 107//107 97//97
f 93//93 105//105 95//95
f 85//85 97//97 87//87
f 83//83 95//95 85//85
f 75//75 87//87 77//77
f 73//73 85//85 75//75
f 65//65 77//77 67//67
f 63//63 75//75 65//65
f 55//55 67//67 57//57
f 53//53 65//65 55//55
f 45//45 57//57 47//47
f 43//43 55//55 45//45
f 35//35 47//47 37//37
f 33//33 45//45 35//35
f 25//25 37//37 27//27
f 23//23 35//35 25//25
f 15//15 27//27 17//17
f 13//13 25//25 15//15
f 237//237 253//253 257//257
f 187//187 217//217 219//219
f 217//217 237//237 239//239
f 235//235 249//249 253//253
f 167//167 187//187 189//189
f 107//107 147//147 149//149
f 87//87 97//97 99//99
f 97//97 107//107 109//109
f 147//147 167//167 169//169
f 89//89 79//79 77//77
f 249//249 235//235 233//233
f 231//231 241//241 245//245
f 213//213 183//183 181//181
f 211//211 231//231 233//233
f 141//141 161//161 163//163
f 91//91 101//101 103//103
f 101//101 141//141 143//143
f 161//161 181//181 183//183
f 93//93 83//83 81//81
f 67//67 77//77 79//79
f 47//47 57//57 59//59
f 57//57 67//67 69//69
f 37//37 47//47 49//49
f 27//27 37//37 39//39
f 17//17 27//27 29//29
f 7//7 17//17 19//19
f 5//5 15//15 17//17
f 3//3 13//13 15//15
f 71//71 81//81 83//83
f 51//51 61//61 63//63
f 61//61 71//71 73//73
f 41//41 51//51 53//53
f 21//21 31//31 33//33
f 1//1 11//11 13//13
f 11//11 21//21 23//23
f 31//31 41//41 43//43
f 3//3 4//4 2//2
f 5//5 6//6 4//4
f 9//9 10//10 8//8
f 6//6 5//5 7//7
f 26//26 18//18 28//28
f 24//24 16//16 26//26
f 36//36 28//28 38//38
f 34//34 26//26 36//36
f 46//46 38//38 48//48
f 44//44 36//36 46//46
f 56//56 48//48 58//58
f 54//54 46//46 56//56
f 66//66 58//58 68//68
f 64//64 56//56 66//66
f 76//76 68//68 78//78
f 74//74 66//66 76//76
f 86//86 78//78 88//88
f 84//84 76//76 86//86
f 96//96 88//88 98//98
f 94//94 86//86 96//96
f 106//106 98//98 108//108
f 104//104 96//96 106//106
f 146//146 108//108 148//148
f 144//144 106//106 146//146
f 166//166 148//148 168//168
f 164//164 146//146 166//166
f 186//186 168//168 188//188
f 184//184 166//166 186//186
f 216//216 188//188 218//218
f 214//214 186//186 216//216
f 236//236 218//218 238//238
f 234//234 216//216 236//236
f 18//18 8//8 10//10
f 38//38 28//28 30//30
f 28//28 18//18 20//20
f 16//16 6//6 8//8
f 48//48 38//38 40//40
f 68//68 58//58 60//60
f 88//88 78//78 80//80
f 78//78 68//68 70//70
f 58//58 48//48 50//50
f 90//90 100//100 98//98
f 6//6 16//16 14//14
f 12//12 2//2 4//4
f 24//24 34//34 32//32
f 22//22 12//12 14//14
f 52//52 42//42 44//44
f 72//72 62//62 64//64
f 62//62 52//52 54//54
f 42//42 32//32 34//34
f 74//74 84//84 82//82
f 108//108 98//98 100//100
f 168//168 148//148 150//150
f 148//148 108//108 110//110
f 188//188 168//168 170//170
f 218//218 188//188 190//190
f 238//238 218//218 220//220
f 256//256 238//238 240//240
f 252//252 236//236 238//238
f 248//248 234//234 236//236
f 92//92 82//82 84//84
f 142//142 102//102 104//104
f 102//102 92//92 94//94
f 162//162 142//142 144//144
f 212//212 182//182 184//184
f 244//244 232//232 234//234
f 232//232 212//212 214//214
f 182//182 162//162 164//164
f 256//256 280//280 276//276
f 248//248 272//272 268//268
f 244//244 268//268 264//264
f 252//252 276//276 272//272
f 286//286 288//288 308//308
f 284//284 286//286 306//306
f 306//306 308//308 338//338
f 304//304 306//306 336//336
f 336//336 338//338 358//358
f 334//334 336//336 356//356
f 356//356 358//358 378//378
f 354//354 356//356 376//376
f 376//376 378//378 418//418
f 374//374 376//376 416//416
f 416//416 418//418 428//428
f 414//414 416//416 426//426
f 426//426 428//428 438//438
f 424//424 426//426 436//436
f 436//436 438//438 448//448
f 434//434 436//436 446//446
f 446//446 448//448 458//458
f 444//444 446//446 456//456
f 456//456 458//458 468//468
f 454//454 456//456 466//466
f 466//466 468//468 478//478
f 464//464 466//466 476//476
f 476//476 478//478 488//488
f 474//474 476//476 486//486
f 486//486 488//488 498//498
f 484//484 486//486 496//496
f 496//496 498//498 508//508
f 494//494 496//496 506//506
f 290//290 276//276 280//280
f 340//340 308//308 310//310
f 310//310 288//288 290//290
f 288//288 272//272 276//276
f 360//360 338//338 340//340
f 420//420 378//378 380//380
f 440//440 428//428 430//430
f 430//430 418//418 420//420
f 380//380 358//358 360//360
f 438//438 450//450 448//448
f 268//268 286//286 284//284
f 284//284 264//264 268//268
f 302//302 334//334 332//332
f 304//304 282//282 284//284
f 374//374 352//352 354//354
f 424//424 412//412 414//414
f 414//414 372//372 374//374
f 354//354 332//332 334//334
f 422//422 434//434 432//432
f 460//460 448//448 450//450
f 480//480 468//468 470//470
f 470//470 458//458 460//460
f 490//490 478//478 480//480
f 500//500 488//488 490//490
f 510//510 498//498 500//500
f 520//520 508//508 510//510
f 518//518 506//506 508//508
f 516//516 504//504 506//506
f 444//444 432//432 434//434
f 464//464 452//452 454//454
f 454//454 442//442 444//444
f 474//474 462//462 464//464
f 494//494 482//482 484//484
f 514//514 502//502 504//504
f 504//504 492//492 494//494
f 484//484 472//472 474//474
f 386//386 398//398 388//388
f 384//384 396//396 386//386
f 366//366 388//388 368//368
f 364//364 386//386 366//366
f 346//346 368//368 348//348
f 344//344 366//366 346//346
f 326//326 348//348 328//328
f 324//324 346//346 326//326
f 316//316 328//328 318//318
f 314//314 326//326 316//316
f 296//296 318//318 298//298
f 294//294 316//316 296//296
f 398//398 408//408 410//410
f 400//400 390//390 388//388
f 396//396 406//406 408//408
f 348//348 368//368 370//370
f 368//368 388//388 390//390
f 350//350 330//330 328//328
f 394//394 404//404 406//406
f 404//404 394//394 392//392
f 362//362 382//382 384//384
f 382//382 392//392 394//394
f 364//364 344//344 342//342
f 318//318 328//328 330//330
f 320//320 300//300 298//298
f 275//275 298//298 300//300
f 271//271 296//296 298//298
f 267//267 294//294 296//296
f 322//322 342//342 344//344
f 324//324 314//314 312//312
f 263//263 292//292 294//294
f 292//292 312//312 314//314
f 275//275 259//259 255//255
f 267//267 251//251 247//247
f 263//263 247//247 243//243
f 271//271 255//255 251//251
f 226//226 228//228 208//208
f 224//224 226//226 206//206
f 206//206 208//208 198//198
f 204//204 206//206 196//196
f 196//196 198//198 178//178
f 194//194 196//196 176//176
f 176//176 178//178 158//158
f 174//174 176//176 156//156
f 156//156 158//158 138//138
f 154//154 156//156 136//136
f 136//136 138//138 128//128
f 134//134 136//136 126//126
f 230//230 255//255 259//259
f 228//228 210//210 208//208
f 228//228 251//251 255//255
f 180//180 198//198 200//200
f 200//200 208//208 210//210
f 178//178 160//160 158//158
f 226//226 247//247 251//251
f 243//243 224//224 222//222
f 194//194 202//202 204//204
f 204//204 222//222 224//224
f 192//192 174//174 172//172
f 140//140 158//158 160//160
f 138//138 130//130 128//128
f 120//120 128//128 130//130
f 118//118 126//126 128//128
f 116//116 124//124 126//126
f 154//154 172//172 174//174
f 152//152 134//134 132//132
f 114//114 122//122 124//124
f 124//124 132//132 134//134
f 112//112 113//113 111//111
f 115//115 114//114 116//116
f 116//116 117//117 115//115
f 119//119 118//118 120//120
f 125//125 127//127 137//137
f 123//123 125//125 135//135
f 135//135 137//137 157//157
f 133//133 135//135 155//155
f 155//155 157//157 177//177
f 153//153 155//155 175//175
f 175//175 177//177 197//197
f 173//173 175//175 195//195
f 195//195 197//197 207//207
f 193//193 195//195 205//205
f 205//205 207//207 227//227
f 203//203 205//205 225//225
f 129//129 117//117 119//119
f 127//127 139//139 137//137
f 127//127 115//115 117//117
f 179//179 157//157 159//159
f 159//159 137//137 139//139
f 177//177 199//199 197//197
f 125//125 113//113 115//115
f 111//111 123//123 121//121
f 153//153 131//131 133//133
f 133//133 121//121 123//123
f 151//151 173//173 171//171
f 209//209 197//197 199//199
f 207//207 229//229 227//227
f 258//258 227//227 229//229
f 254//254 225//225 227//227
f 250//250 223//223 225//225
f 193//193 171//171 173//173
f 191//191 203//203 201//201
f 246//246 221//221 223//223
f 223//223 201//201 203//203
f 254//254 278//278 274//274
f 246//246 270//270 266//266
f 242//242 266//266 262//262
f 250//250 274//274 270//270
f 315//315 297//297 317//317
f 313//313 295//295 315//315
f 325//325 317//317 327//327
f 323//323 315//315 325//325
f 345//345 327//327 347//347
f 343//343 325//325 345//345
f 365//365 347//347 367//367
f 363//363 345//345 365//365
f 385//385 367//367 387//387
f 383//383 365//365 385//385
f 395//395 387//387 397//397
f 393//393 385//385 395//395
f 297//297 274//274 278//278
f 299//299 319//319 317//317
f 295//295 270//270 274//274
f 347//347 327//327 329//329
f 327//327 317//317 319//319
f 349//349 369//369 367//367
f 293//293 266//266 270//270
f 266//266 293//293 291//291
f 321//321 311//311 313//313
f 311//311 291//291 293//293
f 323//323 343//343 341//341
f 387//387 367//367 369//369
f 389//389 399//399 397//397
f 407//407 397//397 399//399
f 405//405 395//395 397//397
f 403//403 393//393 395//395
f 361//361 341//341 343//343
f 363//363 383//383 381//381
f 401//401 391//391 393//393
f 391//391 381//381 383//383
f 403//403 404//404 402//402
f 405//405 406//406 404//404
f 409//409 410//410 408//408
f 406//406 405//405 407//407
f 120//120 9//9 119//119
f 260//260 279//279 280//280
f 258//258 277//277 278//278
f 409//409 520//520 410//410
f 112//112 1//1 2//2
f 244//244 263//263 243//243
f 242//242 261//261 241//241
f 401//401 512//512 511//511