# PHANTOM Module: L5_12
# Units: meters
o L5_12

v 1.300000 1.200001 2.378872
v 1.300000 1.200001 0.354545
v 1.300000 0.900000 2.349327
v 1.300000 0.799999 0.315152
v 1.300000 0.600000 2.319781
v 1.300000 0.400000 0.275758
v 1.300000 0.299999 2.290236
v 1.300000 0.000000 2.260690
v 1.300000 0.000000 0.236364
v 1.299124 1.200001 2.400110
v 1.299124 1.200001 0.333307
v 1.299124 0.900000 2.370565
v 1.299124 0.799999 0.293913
v 1.299124 0.600000 2.341019
v 1.299124 0.400000 0.254519
v 1.299124 0.299999 2.311474
v 1.299124 0.000000 2.281929
v 1.299124 0.000000 0.215125
v 1.296383 1.200001 2.421881
v 1.296383 1.200001 0.311536
v 1.296383 0.900000 2.392336
v 1.296383 0.799999 0.272142
v 1.296383 0.600000 2.362791
v 1.296383 0.400000 0.232748
v 1.296383 0.299999 2.333245
v 1.296383 0.000000 2.303700
v 1.296383 0.000000 0.193354
v 1.291636 1.200001 2.443909
v 1.291636 1.200001 0.289508
v 1.291636 0.900000 2.414364
v 1.291636 0.799999 0.250114
v 1.291636 0.600000 2.384819
v 1.291636 0.400000 0.210720
v 1.291636 0.299999 2.355273
v 1.291636 0.000000 2.325727
v 1.291636 0.000000 0.171326
v 1.284788 1.200001 2.465876
v 1.284788 1.200001 0.267541
v 1.284788 0.900000 2.436331
v 1.284788 0.799999 0.228147
v 1.284788 0.600000 2.406785
v 1.284788 0.400000 0.188753
v 1.284788 0.299999 2.377240
v 1.284788 0.000000 2.347694
v 1.284788 0.000000 0.149359
v 1.275795 1.200001 2.487432
v 1.275795 1.200001 0.245985
v 1.275795 0.900000 2.457887
v 1.275795 0.799999 0.206591
v 1.275795 0.600000 2.428342
v 1.275795 0.400000 0.167197
v 1.275795 0.299999 2.398796
v 1.275795 0.000000 2.369251
v 1.275795 0.000000 0.127803
v 1.264683 1.200001 2.508213
v 1.264683 1.200001 0.225205
v 1.264683 0.900000 2.478667
v 1.264683 0.799999 0.185811
v 1.264683 0.600000 2.449121
v 1.264683 0.400000 0.146417
v 1.264683 0.299999 2.419576
v 1.264683 0.000000 2.390031
v 1.264683 0.000000 0.107023
v 1.251543 1.200001 2.527852
v 1.251543 1.200001 0.205566
v 1.251543 0.900000 2.498306
v 1.251543 0.799999 0.166172
v 1.251543 0.600000 2.468761
v 1.251543 0.400000 0.126778
v 1.251543 0.299999 2.439215
v 1.251543 0.000000 2.409670
v 1.251543 0.000000 0.087384
v 1.236540 1.200001 2.546006
v 1.236540 1.200001 0.187411
v 1.236540 0.900000 2.516461
v 1.236540 0.799999 0.148017
v 1.236540 0.600000 2.486915
v 1.236540 0.400000 0.108623
v 1.236540 0.299999 2.457370
v 1.236540 0.000000 2.427824
v 1.236540 0.000000 0.069229
v 1.219898 1.200001 2.562374
v 1.219898 1.200001 0.171044
v 1.219898 0.900000 2.532828
v 1.219898 0.799999 0.131650
v 1.219898 0.600000 2.503283
v 1.219898 0.400000 0.092256
v 1.219898 0.299999 2.473737
v 1.219898 0.000000 2.444192
v 1.219898 0.000000 0.052862
v 1.201895 1.200001 2.576707
v 1.201895 1.200001 0.156710
v 1.201895 0.900000 2.547162
v 1.201895 0.799999 0.117316
v 1.201895 0.600000 2.517616
v 1.201895 0.400000 0.077922
v 1.201895 0.299999 2.488071
v 1.201895 0.000000 2.458525
v 1.201895 0.000000 0.038528
v 1.191667 1.200001 2.378872
v 1.191667 1.200001 0.354545
v 1.191667 0.900000 2.349327
v 1.191667 0.799999 0.315152
v 1.191667 0.600000 2.319781
v 1.191667 0.400000 0.275758
v 1.191667 0.299999 2.290236
v 1.191667 0.000000 2.260690
v 1.191667 0.000000 0.236364
v 1.189858 1.200001 2.400377
v 1.189858 1.200001 0.333041
v 1.189858 0.900000 2.370831
v 1.189858 0.799999 0.293647
v 1.189858 0.600000 2.341286
v 1.189858 0.400000 0.254253
v 1.189858 0.299999 2.311740
v 1.189858 0.000000 2.282195
v 1.189858 0.000000 0.214859
v 1.184061 1.200001 2.422374
v 1.184061 1.200001 0.311043
v 1.184061 0.900000 2.392829
v 1.184061 0.799999 0.271649
v 1.184061 0.600000 2.363283
v 1.184061 0.400000 0.232255
v 1.184061 0.299999 2.333738
v 1.184061 0.000000 2.304192
v 1.184061 0.000000 0.192862
v 1.182847 1.200001 2.588830
v 1.182847 1.200001 0.144587
v 1.182847 0.900000 2.559285
v 1.182847 0.799999 0.105193
v 1.182847 0.600000 2.529739
v 1.182847 0.400000 0.065800
v 1.182847 0.299999 2.500194
v 1.182847 0.000000 2.470648
v 1.182847 0.000000 0.026406
v 1.174008 1.200001 2.443542
v 1.174008 1.200001 0.289875
v 1.174008 0.900000 2.413997
v 1.174008 0.799999 0.250481
v 1.174008 0.600000 2.384451
v 1.174008 0.400000 0.211087
v 1.174008 0.299999 2.354906
v 1.174008 0.000000 2.325360
v 1.174008 0.000000 0.171693
v 1.163087 1.200001 2.598640
v 1.163087 1.200001 0.134777
v 1.163087 0.900000 2.569095
v 1.163087 0.799999 0.095383
v 1.163087 0.600000 2.539549
v 1.163087 0.400000 0.055989
v 1.163087 0.299999 2.510004
v 1.163087 0.000000 2.480458
v 1.163087 0.000000 0.016595
v 1.159937 1.200001 2.462439
v 1.159937 1.200001 0.270978
v 1.159937 0.900000 2.432894
v 1.159937 0.799999 0.231584
v 1.159937 0.600000 2.403348
v 1.159937 0.400000 0.192190
v 1.159937 0.299999 2.373803
v 1.159937 0.000000 2.344257
v 1.159937 0.000000 0.152796
v 1.142951 1.200001 2.606112
v 1.142951 1.200001 0.127306
v 1.142951 0.900000 2.576566
v 1.142951 0.799999 0.087912
v 1.142951 0.600000 2.547021
v 1.142951 0.400000 0.048518
v 1.142951 0.299999 2.517475
v 1.142951 0.000000 2.487930
v 1.142951 0.000000 0.009124
v 1.142615 1.200001 2.477790
v 1.142615 1.200001 0.255628
v 1.142615 0.900000 2.448244
v 1.142615 0.799999 0.216234
v 1.142615 0.600000 2.418699
v 1.142615 0.400000 0.176840
v 1.142615 0.299999 2.389153
v 1.142615 0.000000 2.359608
v 1.142615 0.000000 0.137446
v 1.123210 1.200001 2.488756
v 1.123210 1.200001 0.244661
v 1.123210 0.900000 2.459211
v 1.123210 0.799999 0.205267
v 1.123210 0.600000 2.429665
v 1.123210 0.400000 0.165873
v 1.123210 0.299999 2.400120
v 1.123210 0.000000 2.370574
v 1.123210 0.000000 0.126480
v 1.122759 1.200001 2.611290
v 1.122759 1.200001 0.122128
v 1.122759 0.900000 2.581744
v 1.122759 0.799999 0.082734
v 1.122759 0.600000 2.552199
v 1.122759 0.400000 0.043340
v 1.122759 0.299999 2.522653
v 1.122759 0.000000 2.493108
v 1.122759 0.000000 0.003946
v 1.103046 1.200001 2.495081
v 1.103046 1.200001 0.238337
v 1.103046 0.900000 2.465535
v 1.103046 0.799999 0.198943
v 1.103046 0.600000 2.435990
v 1.103046 0.400000 0.159549
v 1.103046 0.299999 2.406445
v 1.103046 0.000000 2.376899
v 1.103046 0.000000 0.120155
v 1.102802 1.200001 2.614280
v 1.102802 1.200001 0.119138
v 1.102802 0.900000 2.584734
v 1.102802 0.799999 0.079744
v 1.102802 0.600000 2.555189
v 1.102802 0.400000 0.040350
v 1.102802 0.299999 2.525643
v 1.102802 0.000000 2.496098
v 1.102802 0.000000 0.000956
v 1.083333 1.200001 2.615236
v 1.083333 1.200001 2.497054
v 1.083333 1.200001 0.236364
v 1.083333 1.200001 0.118182
v 1.083333 0.900000 2.585690
v 1.083333 0.900000 2.467508
v 1.083333 0.799999 0.196970
v 1.083333 0.799999 0.078788
v 1.083333 0.600000 2.556145
v 1.083333 0.600000 2.437963
v 1.083333 0.400000 0.157576
v 1.083333 0.400000 0.039394
v 1.083333 0.299999 2.526599
v 1.083333 0.299999 2.408417
v 1.083333 0.000000 2.497054
v 1.083333 0.000000 2.378872
v 1.083333 0.000000 0.118182
v 1.083333 0.000000 0.000000
v 0.216667 1.200001 2.615236
v 0.216667 1.200001 2.497054
v 0.216667 1.200001 0.236364
v 0.216667 1.200001 0.118182
v 0.216667 0.900000 2.585690
v 0.216667 0.900000 2.467508
v 0.216667 0.799999 0.196970
v 0.216667 0.799999 0.078788
v 0.216667 0.600000 2.556145
v 0.216667 0.600000 2.437963
v 0.216667 0.400000 0.157576
v 0.216667 0.400000 0.039394
v 0.216667 0.299999 2.526599
v 0.216667 0.299999 2.408417
v 0.216667 0.000000 2.497054
v 0.216667 0.000000 2.378872
v 0.216667 0.000000 0.118182
v 0.216667 0.000000 0.000000
v 0.197198 1.200001 2.614280
v 0.197198 1.200001 0.119138
v 0.197198 0.900000 2.584734
v 0.197198 0.799999 0.079744
v 0.197198 0.600000 2.555189
v 0.197198 0.400000 0.040350
v 0.197198 0.299999 2.525643
v 0.197198 0.000000 2.496098
v 0.197198 0.000000 0.000956
v 0.196954 1.200001 2.495081
v 0.196954 1.200001 0.238337
v 0.196954 0.900000 2.465535
v 0.196954 0.799999 0.198943
v 0.196954 0.600000 2.435990
v 0.196954 0.400000 0.159549
v 0.196954 0.299999 2.406445
v 0.196954 0.000000 2.376899
v 0.196954 0.000000 0.120155
v 0.177241 1.200001 2.611290
v 0.177241 1.200001 0.122128
v 0.177241 0.900000 2.581744
v 0.177241 0.799999 0.082734
v 0.177241 0.600000 2.552199
v 0.177241 0.400000 0.043340
v 0.177241 0.299999 2.522653
v 0.177241 0.000000 2.493108
v 0.177241 0.000000 0.003946
v 0.176790 1.200001 2.488756
v 0.176790 1.200001 0.244661
v 0.176790 0.900000 2.459211
v 0.176790 0.799999 0.205267
v 0.176790 0.600000 2.429665
v 0.176790 0.400000 0.165873
v 0.176790 0.299999 2.400120
v 0.176790 0.000000 2.370574
v 0.176790 0.000000 0.126480
v 0.157386 1.200001 2.477790
v 0.157386 1.200001 0.255628
v 0.157386 0.900000 2.448244
v 0.157386 0.799999 0.216234
v 0.157386 0.600000 2.418699
v 0.157386 0.400000 0.176840
v 0.157386 0.299999 2.389153
v 0.157386 0.000000 2.359608
v 0.157386 0.000000 0.137446
v 0.157049 1.200001 2.606112
v 0.157049 1.200001 0.127306
v 0.157049 0.900000 2.576566
v 0.157049 0.799999 0.087912
v 0.157049 0.600000 2.547021
v 0.157049 0.400000 0.048518
v 0.157049 0.299999 2.517475
v 0.157049 0.000000 2.487930
v 0.157049 0.000000 0.009124
v 0.140064 1.200001 2.462439
v 0.140064 1.200001 0.270978
v 0.140064 0.900000 2.432894
v 0.140064 0.799999 0.231584
v 0.140064 0.600000 2.403348
v 0.140064 0.400000 0.192190
v 0.140064 0.299999 2.373803
v 0.140064 0.000000 2.344257
v 0.140064 0.000000 0.152796
v 0.136913 1.200001 2.598640
v 0.136913 1.200001 0.134777
v 0.136913 0.900000 2.569095
v 0.136913 0.799999 0.095383
v 0.136913 0.600000 2.539549
v 0.136913 0.400000 0.055989
v 0.136913 0.299999 2.510004
v 0.136913 0.000000 2.480458
v 0.136913 0.000000 0.016595
v 0.125992 1.200001 2.443542
v 0.125992 1.200001 0.289875
v 0.125992 0.900000 2.413997
v 0.125992 0.799999 0.250481
v 0.125992 0.600000 2.384451
v 0.125992 0.400000 0.211087
v 0.125992 0.299999 2.354906
v 0.125992 0.000000 2.325360
v 0.125992 0.000000 0.171693
v 0.117153 1.200001 2.588830
v 0.117153 1.200001 0.144587
v 0.117153 0.900000 2.559285
v 0.117153 0.799999 0.105193
v 0.117153 0.600000 2.529739
v 0.117153 0.400000 0.065800
v 0.117153 0.299999 2.500194
v 0.117153 0.000000 2.470648
v 0.117153 0.000000 0.026406
v 0.115940 1.200001 2.422374
v 0.115940 1.200001 0.311043
v 0.115940 0.900000 2.392829
v 0.115940 0.799999 0.271649
v 0.115940 0.600000 2.363283
v 0.115940 0.400000 0.232255
v 0.115940 0.299999 2.333738
v 0.115940 0.000000 2.304192
v 0.115940 0.000000 0.192862
v 0.110142 1.200001 2.400377
v 0.110142 1.200001 0.333041
v 0.110142 0.900000 2.370831
v 0.110142 0.799999 0.293647
v 0.110142 0.600000 2.341286
v 0.110142 0.400000 0.254253
v 0.110142 0.299999 2.311740
v 0.110142 0.000000 2.282195
v 0.110142 0.000000 0.214859
v 0.108333 1.200001 2.378872
v 0.108333 1.200001 0.354545
v 0.108333 0.900000 2.349327
v 0.108333 0.799999 0.315152
v 0.108333 0.600000 2.319781
v 0.108333 0.400000 0.275758
v 0.108333 0.299999 2.290236
v 0.108333 0.000000 2.260690
v 0.108333 0.000000 0.236364
v 0.098105 1.200001 2.576707
v 0.098105 1.200001 0.156710
v 0.098105 0.900000 2.547162
v 0.098105 0.799999 0.117316
v 0.098105 0.600000 2.517616
v 0.098105 0.400000 0.077922
v 0.098105 0.299999 2.488071
v 0.098105 0.000000 2.458525
v 0.098105 0.000000 0.038528
v 0.080102 1.200001 2.562374
v 0.080102 1.200001 0.171044
v 0.080102 0.900000 2.532828
v 0.080102 0.799999 0.131650
v 0.080102 0.600000 2.503283
v 0.080102 0.400000 0.092256
v 0.080102 0.299999 2.473737
v 0.080102 0.000000 2.444192
v 0.080102 0.000000 0.052862
v 0.063460 1.200001 2.546006
v 0.063460 1.200001 0.187411
v 0.063460 0.900000 2.516461
v 0.063460 0.799999 0.148017
v 0.063460 0.600000 2.486915
v 0.063460 0.400000 0.108623
v 0.063460 0.299999 2.457370
v 0.063460 0.000000 2.427824
v 0.063460 0.000000 0.069229
v 0.048457 1.200001 2.527852
v 0.048457 1.200001 0.205566
v 0.048457 0.900000 2.498306
v 0.048457 0.799999 0.166172
v 0.048457 0.600000 2.468761
v 0.048457 0.400000 0.126778
v 0.048457 0.299999 2.439215
v 0.048457 0.000000 2.409670
v 0.048457 0.000000 0.087384
v 0.035318 1.200001 2.508213
v 0.035318 1.200001 0.225205
v 0.035318 0.900000 2.478667
v 0.035318 0.799999 0.185811
v 0.035318 0.600000 2.449121
v 0.035318 0.400000 0.146417
v 0.035318 0.299999 2.419576
v 0.035318 0.000000 2.390031
v 0.035318 0.000000 0.107023
v 0.024205 1.200001 2.487432
v 0.024205 1.200001 0.245985
v 0.024205 0.900000 2.457887
v 0.024205 0.799999 0.206591
v 0.024205 0.600000 2.428342
v 0.024205 0.400000 0.167197
v 0.024205 0.299999 2.398796
v 0.024205 0.000000 2.369251
v 0.024205 0.000000 0.127803
v 0.015213 1.200001 2.465876
v 0.015213 1.200001 0.267541
v 0.015213 0.900000 2.436331
v 0.015213 0.799999 0.228147
v 0.015213 0.600000 2.406785
v 0.015213 0.400000 0.188753
v 0.015213 0.299999 2.377240
v 0.015213 0.000000 2.347694
v 0.015213 0.000000 0.149359
v 0.008364 1.200001 2.443909
v 0.008364 1.200001 0.289508
v 0.008364 0.900000 2.414364
v 0.008364 0.799999 0.250114
v 0.008364 0.600000 2.384819
v 0.008364 0.400000 0.210720
v 0.008364 0.299999 2.355273
v 0.008364 0.000000 2.325727
v 0.008364 0.000000 0.171326
v 0.003617 1.200001 2.421881
v 0.003617 1.200001 0.311536
v 0.003617 0.900000 2.392336
v 0.003617 0.799999 0.272142
v 0.003617 0.600000 2.362791
v 0.003617 0.400000 0.232748
v 0.003617 0.299999 2.333245
v 0.003617 0.000000 2.303700
v 0.003617 0.000000 0.193354
v 0.000876 1.200001 2.400110
v 0.000876 1.200001 0.333307
v 0.000876 0.900000 2.370565
v 0.000876 0.799999 0.293913
v 0.000876 0.600000 2.341019
v 0.000876 0.400000 0.254519
v 0.000876 0.299999 2.311474
v 0.000876 0.000000 2.281929
v 0.000876 0.000000 0.215125
v 0.000000 1.200001 2.378872
v 0.000000 1.200001 0.354545
v 0.000000 0.900000 2.349327
v 0.000000 0.799999 0.315152
v 0.000000 0.600000 2.319781
v 0.000000 0.400000 0.275758
v 0.000000 0.299999 2.290236
v 0.000000 0.000000 2.260690
v 0.000000 0.000000 0.236364

vn 0.707728 0.706217 0.019465
vn 0.831403 0.555553 -0.011430
vn 0.999785 -0.002031 0.020620
vn 0.999785 0.002031 -0.020620
vn 0.999785 -0.002031 0.020620
vn 0.999842 0.001741 -0.017674
vn 0.999691 -0.002437 0.024744
vn 0.706494 -0.707653 0.009713
vn 0.832725 -0.553213 -0.022902
vn 0.831559 0.549481 0.081120
vn 0.827238 0.558916 -0.057363
vn 0.996504 -0.008188 0.083139
vn 0.996504 0.008188 -0.083139
vn 0.996504 -0.008188 0.083139
vn 0.996504 0.008188 -0.083139
vn 0.996504 -0.008188 0.083139
vn 0.827238 -0.558916 0.057363
vn 0.831559 -0.549481 -0.081120
vn 0.824635 0.544632 0.152817
vn 0.816186 0.563686 -0.126882
vn 0.985664 -0.016536 0.167907
vn 0.985664 0.016536 -0.167906
vn 0.985664 -0.016536 0.167906
vn 0.985664 0.016536 -0.167907
vn 0.985664 -0.016536 0.167907
vn 0.816186 -0.563686 0.126882
vn 0.824635 -0.544632 -0.152817
vn 0.810875 0.539666 0.226367
vn 0.798650 0.568527 -0.197319
vn 0.966797 -0.025046 0.254317
vn 0.966797 0.025046 -0.254317
vn 0.966797 -0.025046 0.254317
vn 0.966797 0.025046 -0.254317
vn 0.966797 -0.025046 0.254316
vn 0.798650 -0.568527 0.197319
vn 0.810875 -0.539666 -0.226367
vn 0.671878 0.694961 0.256144
vn 0.657051 0.718725 -0.227416
vn 0.939280 -0.033633 0.341499
vn 0.939280 0.033633 -0.341500
vn 0.939280 -0.033633 0.341500
vn 0.939280 0.033633 -0.341500
vn 0.939280 -0.033633 0.341501
vn 0.657051 -0.718725 0.227415
vn 0.671878 -0.694961 -0.256145
vn 0.760405 0.529598 0.375914
vn 0.742573 0.578221 -0.338004
vn 0.902606 -0.042190 0.428396
vn 0.902606 0.042190 -0.428395
vn 0.902606 -0.042190 0.428395
vn 0.902606 0.042190 -0.428395
vn 0.902606 -0.042190 0.428395
vn 0.742572 -0.578221 0.338005
vn 0.760405 -0.529598 -0.375914
vn 0.722743 0.524630 0.449896
vn 0.703527 0.582949 -0.406472
vn 0.856432 -0.050599 0.513775
vn 0.856432 0.050599 -0.513775
vn 0.856432 -0.050599 0.513775
vn 0.856432 0.050599 -0.513775
vn 0.856432 -0.050599 0.513775
vn 0.703527 -0.582949 0.406472
vn 0.722743 -0.524630 -0.449896
vn 0.576151 0.685991 0.444372
vn 0.557110 0.727483 -0.400496
vn 0.800633 -0.058724 0.596270
vn 0.800634 0.058723 -0.596269
vn 0.800634 -0.058723 0.596269
vn 0.800634 0.058724 -0.596269
vn 0.800635 -0.058723 0.596268
vn 0.557110 -0.727483 0.400496
vn 0.576152 -0.685991 -0.444371
vn 0.621594 0.515242 0.590040
vn 0.603362 0.591809 -0.534524
vn 0.735378 -0.066418 0.674394
vn 0.735379 0.066417 -0.674394
vn 0.735378 -0.066417 0.674394
vn 0.735379 0.066418 -0.674394
vn 0.735378 -0.066418 0.674394
vn 0.603363 -0.591809 0.534523
vn 0.621595 -0.515242 -0.590039
vn 0.476023 0.680682 0.556843
vn 0.460048 0.732638 -0.501595
vn 0.661164 -0.073532 0.746629
vn 0.661164 0.073532 -0.746629
vn 0.661164 -0.073532 0.746629
vn 0.661164 0.073532 -0.746629
vn 0.661164 -0.073532 0.746629
vn 0.460046 -0.732638 0.501596
vn 0.476021 -0.680682 -0.556845
vn 0.416047 0.678392 0.605549
vn 0.403519 0.734864 -0.545113
vn 0.578863 -0.079921 0.811499
vn 0.578860 0.079920 -0.811501
vn 0.578859 -0.079920 0.811502
vn 0.578860 0.079921 -0.811501
vn 0.578859 -0.079920 0.811502
vn 0.403519 -0.734864 0.545112
vn 0.416046 -0.678392 -0.605550
vn -0.445246 0.895061 -0.024935
vn -0.393894 0.919090 0.011017
vn -0.999112 0.004130 -0.041940
vn -0.999112 -0.004130 0.041940
vn -0.999112 0.004130 -0.041940
vn -0.999347 -0.003540 0.035948
vn -0.998721 0.004956 -0.050326
vn -0.447247 -0.894323 -0.012509
vn -0.392254 -0.919595 0.021967
vn -0.498631 0.860911 -0.100986
vn -0.511159 0.856385 0.072952
vn -0.985313 0.016736 -0.169938
vn -0.985313 -0.016736 0.169938
vn -0.985313 0.016736 -0.169938
vn -0.985313 -0.016736 0.169938
vn -0.985313 0.016736 -0.169938
vn -0.511159 -0.856385 -0.072952
vn -0.498631 -0.860911 0.100986
vn -0.545604 0.808952 -0.218891
vn -0.576570 0.794472 0.190740
vn -0.938663 0.033798 -0.343177
vn -0.938663 -0.033798 0.343176
vn -0.938663 0.033798 -0.343175
vn -0.938663 -0.033798 0.343176
vn -0.938663 0.033798 -0.343176
vn -0.576570 -0.794472 -0.190740
vn -0.545604 -0.808952 0.218890
vn 0.350604 0.676410 0.647724
vn 0.342662 0.736794 -0.582853
vn 0.489696 -0.085455 0.867696
vn 0.489697 0.085455 -0.867695
vn 0.489698 -0.085455 0.867694
vn 0.489697 0.085455 -0.867695
vn 0.489697 -0.085455 0.867695
vn 0.342661 -0.736794 0.582853
vn 0.350605 -0.676410 -0.647723
vn -0.576243 0.727165 -0.373063
vn -0.630793 0.691596 0.351844
vn -0.855747 0.050710 -0.514903
vn -0.855747 -0.050710 0.514903
vn -0.855747 0.050710 -0.514903
vn -0.855747 -0.050710 0.514903
vn -0.855748 0.050710 -0.514901
vn -0.630794 -0.691596 -0.351844
vn -0.576243 -0.727165 0.373063
vn 0.329367 0.501185 0.800207
vn 0.328781 0.605014 -0.725163
vn 0.395226 -0.090031 0.914161
vn 0.395227 0.090031 -0.914161
vn 0.395226 -0.090031 0.914161
vn 0.395227 0.090031 -0.914161
vn 0.395226 -0.090031 0.914161
vn 0.328780 -0.605014 0.725163
vn 0.329367 -0.501185 -0.800207
vn -0.485263 0.732558 -0.477366
vn -0.552558 0.685952 0.473444
vn -0.734941 0.066464 -0.674866
vn -0.734941 -0.066464 0.674866
vn -0.734941 0.066464 -0.674866
vn -0.734941 -0.066464 0.674866
vn -0.734941 0.066464 -0.674866
vn -0.552560 -0.685952 -0.473442
vn -0.485263 -0.732558 0.477365
vn 0.208373 0.673513 0.709197
vn 0.212063 0.739645 -0.638713
vn 0.297236 -0.093581 0.950207
vn 0.297237 0.093581 -0.950207
vn 0.297238 -0.093581 0.950206
vn 0.297237 0.093581 -0.950207
vn 0.297240 -0.093581 0.950206
vn 0.212062 -0.739645 0.638713
vn 0.208374 -0.673513 -0.709197
vn -0.316763 0.818852 -0.478689
vn -0.377627 0.784699 0.491574
vn -0.579029 0.079909 -0.811382
vn -0.579029 -0.079909 0.811382
vn -0.579028 0.079909 -0.811382
vn -0.579029 -0.079909 0.811382
vn -0.579029 0.079909 -0.811382
vn -0.377626 -0.784699 -0.491575
vn -0.316762 -0.818852 0.478689
vn -0.245668 0.740182 -0.625921
vn -0.316397 0.677038 0.664464
vn -0.396274 0.089987 -0.913712
vn -0.396273 -0.089987 0.913712
vn -0.396273 0.089987 -0.913712
vn -0.396273 -0.089987 0.913712
vn -0.396274 0.089987 -0.913712
vn -0.316397 -0.677038 -0.664464
vn -0.245668 -0.740183 0.625921
vn 0.134517 0.672634 0.727646
vn 0.144644 0.740533 -0.656269
vn 0.197623 -0.096078 0.975558
vn 0.197624 0.096078 -0.975558
vn 0.197624 -0.096078 0.975558
vn 0.197624 0.096078 -0.975558
vn 0.197623 -0.096078 0.975558
vn 0.144647 -0.740533 0.656268
vn 0.134519 -0.672633 -0.727646
vn -0.111941 0.741889 -0.661112
vn -0.172637 0.674432 0.717870
vn -0.199574 0.096039 -0.975165
vn -0.199574 -0.096039 0.975165
vn -0.199576 0.096039 -0.975165
vn -0.199574 -0.096039 0.975165
vn -0.199572 0.096039 -0.975165
vn -0.172636 -0.674432 -0.717871
vn -0.111940 -0.741890 0.661112
vn 0.060853 0.672130 0.737928
vn 0.077386 0.741063 -0.666961
vn 0.098263 -0.097536 0.990369
vn 0.098261 0.097536 -0.990369
vn 0.098261 -0.097536 0.990369
vn 0.098261 0.097536 -0.990369
vn 0.098259 -0.097536 0.990370
vn 0.077386 -0.741064 0.666960
vn 0.060850 -0.672130 -0.737929
vn 0.018174 0.671694 0.740605
vn -0.018961 0.821310 -0.570167
vn -0.049218 0.672089 0.738833
vn 0.018672 0.648667 -0.760844
vn 0.024418 -0.097981 0.994889
vn -0.049619 0.097890 -0.993960
vn -0.049619 -0.097890 0.993960
vn 0.024416 0.097981 -0.994889
vn 0.024416 -0.097982 0.994889
vn -0.049621 0.097890 -0.993959
vn -0.049619 -0.097890 0.993959
vn 0.024416 0.097982 -0.994889
vn 0.024414 -0.097981 0.994889
vn -0.049619 0.097890 -0.993960
vn 0.021027 -0.515140 0.856848
vn -0.041663 -0.779143 -0.625460
vn -0.022308 -0.741264 0.670843
vn 0.014198 -0.815537 -0.578530
vn -0.012116 0.671675 0.740747
vn 0.026339 0.849103 -0.527570
vn 0.036918 0.672110 0.739530
vn -0.025936 0.609346 -0.792480
vn -0.024418 -0.097981 0.994889
vn 0.049619 0.097890 -0.993960
vn 0.049619 -0.097890 0.993960
vn -0.024416 0.097981 -0.994889
vn -0.024416 -0.097982 0.994889
vn 0.049621 0.097890 -0.993959
vn 0.049619 -0.097890 0.993959
vn -0.024416 0.097982 -0.994889
vn -0.024414 -0.097981 0.994889
vn 0.049619 0.097890 -0.993960
vn -0.021963 -0.741012 0.671132
vn 0.041683 -0.548619 -0.835033
vn 0.021349 -0.903689 0.427656
vn -0.014199 -0.496249 -0.868064
vn -0.060853 0.672130 0.737928
vn -0.077386 0.741063 -0.666961
vn -0.098263 -0.097536 0.990369
vn -0.098261 0.097536 -0.990369
vn -0.098261 -0.097536 0.990369
vn -0.098261 0.097536 -0.990369
vn -0.098259 -0.097536 0.990370
vn -0.077386 -0.741064 0.666960
vn -0.060850 -0.672130 -0.737929
vn 0.111941 0.741889 -0.661112
vn 0.172637 0.674432 0.717870
vn 0.199574 0.096039 -0.975165
vn 0.199574 -0.096039 0.975165
vn 0.199576 0.096039 -0.975165
vn 0.199574 -0.096039 0.975165
vn 0.199572 0.096039 -0.975165
vn 0.172636 -0.674432 -0.717871
vn 0.111940 -0.741890 0.661112
vn -0.134517 0.672634 0.727646
vn -0.144644 0.740533 -0.656269
vn -0.197623 -0.096078 0.975558
vn -0.197624 0.096078 -0.975558
vn -0.197624 -0.096078 0.975558
vn -0.197624 0.096078 -0.975558
vn -0.197623 -0.096078 0.975558
vn -0.144647 -0.740533 0.656268
vn -0.134519 -0.672633 -0.727646
vn 0.245668 0.740182 -0.625921
vn 0.316397 0.677038 0.664464
vn 0.396274 0.089987 -0.913712
vn 0.396273 -0.089987 0.913712
vn 0.396273 0.089987 -0.913712
vn 0.396273 -0.089987 0.913712
vn 0.396274 0.089987 -0.913712
vn 0.316397 -0.677038 -0.664464
vn 0.245668 -0.740183 0.625921
vn 0.316763 0.818852 -0.478689
vn 0.377627 0.784699 0.491574
vn 0.579029 0.079909 -0.811382
vn 0.579029 -0.079909 0.811382
vn 0.579028 0.079909 -0.811382
vn 0.579029 -0.079909 0.811382
vn 0.579029 0.079909 -0.811382
vn 0.377626 -0.784699 -0.491575
vn 0.316762 -0.818852 0.478690
vn -0.208373 0.673513 0.709197
vn -0.212063 0.739645 -0.638713
vn -0.297236 -0.093581 0.950207
vn -0.297237 0.093581 -0.950207
vn -0.297238 -0.093581 0.950206
vn -0.297237 0.093581 -0.950207
vn -0.297240 -0.093581 0.950206
vn -0.212062 -0.739645 0.638713
vn -0.208374 -0.673513 -0.709197
vn 0.485263 0.732558 -0.477366
vn 0.552558 0.685952 0.473444
vn 0.734941 0.066464 -0.674866
vn 0.734941 -0.066464 0.674866
vn 0.734941 0.066464 -0.674866
vn 0.734941 -0.066464 0.674866
vn 0.734941 0.066464 -0.674866
vn 0.552560 -0.685952 -0.473442
vn 0.485263 -0.732558 0.477365
vn -0.329367 0.501185 0.800207
vn -0.328781 0.605014 -0.725163
vn -0.395226 -0.090031 0.914161
vn -0.395227 0.090031 -0.914161
vn -0.395226 -0.090031 0.914161
vn -0.395227 0.090031 -0.914161
vn -0.395226 -0.090031 0.914161
vn -0.328780 -0.605014 0.725163
vn -0.329367 -0.501185 -0.800207
vn 0.576243 0.727165 -0.373063
vn 0.630793 0.691596 0.351844
vn 0.855747 0.050710 -0.514903
vn 0.855747 -0.050710 0.514903
vn 0.855747 0.050710 -0.514903
vn 0.855747 -0.050710 0.514903
vn 0.855748 0.050710 -0.514901
vn 0.630794 -0.691596 -0.351844
vn 0.576243 -0.727165 0.373063
vn -0.350604 0.676410 0.647724
vn -0.342662 0.736794 -0.582853
vn -0.489696 -0.085455 0.867696
vn -0.489697 0.085455 -0.867695
vn -0.489698 -0.085455 0.867694
vn -0.489697 0.085455 -0.867695
vn -0.489697 -0.085455 0.867695
vn -0.342661 -0.736794 0.582853
vn -0.350605 -0.676410 -0.647723
vn 0.545604 0.808952 -0.218891
vn 0.576570 0.794472 0.190740
vn 0.938663 0.033798 -0.343177
vn 0.938663 -0.033798 0.343176
vn 0.938663 0.033798 -0.343175
vn 0.938663 -0.033798 0.343176
vn 0.938663 0.033798 -0.343176
vn 0.576570 -0.794472 -0.190740
vn 0.545604 -0.808952 0.218890
vn 0.498631 0.860911 -0.100986
vn 0.511159 0.856385 0.072952
vn 0.985313 0.016736 -0.169938
vn 0.985313 -0.016736 0.169938
vn 0.985313 0.016736 -0.169938
vn 0.985313 -0.016736 0.169938
vn 0.985313 0.016736 -0.169938
vn 0.511159 -0.856385 -0.072952
vn 0.498631 -0.860911 0.100986
vn 0.392254 0.919595 -0.021967
vn 0.447247 0.894323 0.012509
vn 0.999112 0.004130 -0.041940
vn 0.999112 -0.004130 0.041940
vn 0.999112 0.004130 -0.041940
vn 0.999347 -0.003540 0.035948
vn 0.998721 0.004956 -0.050326
vn 0.393894 -0.919090 -0.011017
vn 0.445246 -0.895061 0.024935
vn -0.416047 0.678392 0.605549
vn -0.403519 0.734864 -0.545113
vn -0.578863 -0.079921 0.811499
vn -0.578860 0.079920 -0.811501
vn -0.578859 -0.079920 0.811501
vn -0.578860 0.079921 -0.811501
vn -0.578859 -0.079920 0.811502
vn -0.403519 -0.734864 0.545112
vn -0.416046 -0.678392 -0.605550
vn -0.476023 0.680682 0.556843
vn -0.460048 0.732638 -0.501595
vn -0.661164 -0.073532 0.746629
vn -0.661164 0.073532 -0.746629
vn -0.661164 -0.073532 0.746629
vn -0.661164 0.073532 -0.746629
vn -0.661164 -0.073532 0.746629
vn -0.460046 -0.732638 0.501596
vn -0.476021 -0.680682 -0.556845
vn -0.621594 0.515242 0.590040
vn -0.603362 0.591809 -0.534524
vn -0.735378 -0.066418 0.674394
vn -0.735379 0.066417 -0.674394
vn -0.735378 -0.066417 0.674394
vn -0.735379 0.066418 -0.674394
vn -0.735378 -0.066418 0.674394
vn -0.603363 -0.591809 0.534523
vn -0.621595 -0.515242 -0.590039
vn -0.576151 0.685991 0.444372
vn -0.557110 0.727483 -0.400496
vn -0.800633 -0.058724 0.596270
vn -0.800634 0.058723 -0.596269
vn -0.800634 -0.058723 0.596269
vn -0.800634 0.058724 -0.596269
vn -0.800635 -0.058723 0.596268
vn -0.557110 -0.727483 0.400496
vn -0.576152 -0.685991 -0.444371
vn -0.722743 0.524630 0.449896
vn -0.703527 0.582949 -0.406472
vn -0.856432 -0.050599 0.513775
vn -0.856432 0.050599 -0.513775
vn -0.856432 -0.050599 0.513775
vn -0.856432 0.050599 -0.513775
vn -0.856432 -0.050599 0.513775
vn -0.703527 -0.582949 0.406472
vn -0.722743 -0.524630 -0.449896
vn -0.760405 0.529598 0.375914
vn -0.742573 0.578221 -0.338004
vn -0.902606 -0.042190 0.428396
vn -0.902606 0.042190 -0.428395
vn -0.902606 -0.042190 0.428395
vn -0.902606 0.042190 -0.428395
vn -0.902606 -0.042190 0.428395
vn -0.742572 -0.578221 0.338005
vn -0.760405 -0.529598 -0.375914
vn -0.671878 0.694961 0.256144
vn -0.657051 0.718725 -0.227416
vn -0.939280 -0.033633 0.341499
vn -0.939280 0.033633 -0.341500
vn -0.939280 -0.033633 0.341500
vn -0.939280 0.033633 -0.341500
vn -0.939280 -0.033633 0.341501
vn -0.657051 -0.718726 0.227415
vn -0.671878 -0.694961 -0.256145
vn -0.810875 0.539666 0.226367
vn -0.798650 0.568527 -0.197319
vn -0.966797 -0.025046 0.254317
vn -0.966797 0.025046 -0.254317
vn -0.966797 -0.025046 0.254317
vn -0.966797 0.025046 -0.254317
vn -0.966797 -0.025046 0.254316
vn -0.798650 -0.568527 0.197319
vn -0.810875 -0.539666 -0.226367
vn -0.824635 0.544632 0.152817
vn -0.816186 0.563686 -0.126882
vn -0.985664 -0.016536 0.167907
vn -0.985664 0.016536 -0.167907
vn -0.985664 -0.016536 0.167906
vn -0.985664 0.016536 -0.167907
vn -0.985664 -0.016536 0.167907
vn -0.816186 -0.563686 0.126882
vn -0.824635 -0.544632 -0.152817
vn -0.831559 0.549481 0.081120
vn -0.827238 0.558916 -0.057363
vn -0.996504 -0.008188 0.083139
vn -0.996504 0.008188 -0.083139
vn -0.996504 -0.008188 0.083139
vn -0.996504 0.008188 -0.083139
vn -0.996504 -0.008188 0.083139
vn -0.827238 -0.558916 0.057363
vn -0.831559 -0.549481 -0.081120
vn -0.832725 0.553213 0.022902
vn -0.706494 0.707653 -0.009713
vn -0.999785 -0.002031 0.020620
vn -0.999785 0.002031 -0.020620
vn -0.999785 -0.002031 0.020620
vn -0.999842 0.001741 -0.017674
vn -0.999691 -0.002437 0.024744
vn -0.831403 -0.555553 0.011430
vn -0.707728 -0.706217 -0.019465

f 461//461 463//463 462//462
f 462//462 463//463 464//464
f 465//465 468//468 467//467
f 465//465 466//466 464//464
f 463//463 465//465 464//464
f 446//446 455//455 448//448
f 444//444 453//453 446//446
f 437//437 446//446 439//439
f 435//435 444//444 437//437
f 428//428 437//437 430//430
f 426//426 435//435 428//428
f 419//419 428//428 421//421
f 417//417 426//426 419//419
f 410//410 419//419 412//412
f 408//408 417//417 410//410
f 401//401 410//410 403//403
f 399//399 408//408 401//401
f 392//392 401//401 394//394
f 390//390 399//399 392//392
f 383//383 392//392 385//385
f 381//381 390//390 383//383
f 374//374 383//383 376//376
f 372//372 381//381 374//374
f 338//338 374//374 340//340
f 336//336 372//372 338//338
f 320//320 338//338 322//322
f 318//318 336//336 320//320
f 302//302 320//320 304//304
f 300//300 318//318 302//302
f 275//275 302//302 277//277
f 273//273 300//300 275//275
f 257//257 275//275 259//259
f 255//255 273//273 257//257
f 458//458 457//457 466//466
f 440//440 439//439 448//448
f 449//449 448//448 457//457
f 457//457 455//455 464//464
f 431//431 430//430 439//439
f 413//413 412//412 421//421
f 395//395 394//394 403//403
f 404//404 403//403 412//412
f 422//422 421//421 430//430
f 394//394 395//395 386//386
f 462//462 464//464 455//455
f 453//453 451//451 460//460
f 442//442 444//444 435//435
f 444//444 442//442 451//451
f 417//417 415//415 424//424
f 399//399 397//397 406//406
f 408//408 406//406 415//415
f 426//426 424//424 433//433
f 397//397 399//399 390//390
f 377//377 376//376 385//385
f 323//323 322//322 340//340
f 341//341 340//340 376//376
f 305//305 304//304 322//322
f 278//278 277//277 304//304
f 260//260 259//259 277//277
f 249//249 247//247 259//259
f 247//247 243//243 257//257
f 243//243 239//239 255//255
f 381//381 379//379 388//388
f 336//336 334//334 370//370
f 372//372 370//370 379//379
f 318//318 316//316 334//334
f 273//273 271//271 298//298
f 239//239 235//235 253//253
f 255//255 253//253 271//271
f 300//300 298//298 316//316
f 247//247 249//249 231//231
f 239//239 243//243 225//225
f 235//235 239//239 221//221
f 243//243 247//247 229//229
f 194//194 212//212 214//214
f 192//192 210//210 212//212
f 167//167 194//194 196//196
f 165//165 192//192 194//194
f 149//149 167//167 169//169
f 147//147 165//165 167//167
f 131//131 149//149 151//151
f 129//129 147//147 149//149
f 95//95 131//131 133//133
f 93//93 129//129 131//131
f 86//86 95//95 97//97
f 84//84 93//93 95//95
f 77//77 86//86 88//88
f 75//75 84//84 86//86
f 68//68 77//77 79//79
f 66//66 75//75 77//77
f 59//59 68//68 70//70
f 57//57 66//66 68//68
f 50//50 59//59 61//61
f 48//48 57//57 59//59
f 41//41 50//50 52//52
f 39//39 48//48 50//50
f 32//32 41//41 43//43
f 30//30 39//39 41//41
f 23//23 32//32 34//34
f 21//21 30//30 32//32
f 14//14 23//23 25//25
f 12//12 21//21 23//23
f 215//215 214//214 231//231
f 170//170 169//169 197//197
f 197//197 196//196 215//215
f 214//214 212//212 229//229
f 152//152 151//151 170//170
f 98//98 97//97 134//134
f 80//80 79//79 89//89
f 89//89 88//88 98//98
f 134//134 133//133 152//152
f 79//79 80//80 70//70
f 221//221 225//225 210//210
f 210//210 208//208 221//221
f 190//190 192//192 163//163
f 192//192 190//190 210//210
f 129//129 127//127 147//147
f 84//84 82//82 93//93
f 93//93 91//91 129//129
f 147//147 145//145 165//165
f 82//82 84//84 73//73
f 62//62 61//61 71//71
f 44//44 43//43 53//53
f 53//53 52//52 62//62
f 35//35 34//34 44//44
f 26//26 25//25 35//35
f 17//17 16//16 26//26
f 8//8 7//7 17//17
f 7//7 5//5 16//16
f 5//5 3//3 14//14
f 66//66 64//64 75//75
f 48//48 46//46 57//57
f 57//57 55//55 66//66
f 39//39 37//37 48//48
f 21//21 19//19 30//30
f 3//3 1//1 12//12
f 12//12 10//10 21//21
f 30//30 28//28 39//39
f 1//1 3//3 2//2
f 4//4 3//3 5//5
f 6//6 5//5 7//7
f 9//9 6//6 8//8
f 4//4 5//5 6//6
f 22//22 13//13 15//15
f 31//31 22//22 24//24
f 40//40 31//31 33//33
f 49//49 40//40 42//42
f 58//58 49//49 51//51
f 67//67 58//58 60//60
f 76//76 67//67 69//69
f 85//85 76//76 78//78
f 94//94 85//85 87//87
f 130//130 94//94 96//96
f 148//148 130//130 132//132
f 166//166 148//148 150//150
f 193//193 166//166 168//168
f 211//211 193//193 195//195
f 18//18 15//15 9//9
f 36//36 33//33 27//27
f 27//27 24//24 18//18
f 15//15 13//13 6//6
f 33//33 36//36 42//42
f 54//54 51//51 45//45
f 72//72 69//69 63//63
f 63//63 60//60 54//54
f 81//81 78//78 72//72
f 13//13 11//11 4//4
f 31//31 29//29 22//22
f 22//22 20//20 13//13
f 29//29 31//31 38//38
f 49//49 47//47 40//40
f 58//58 56//56 49//49
f 67//67 65//65 58//58
f 65//65 67//67 74//74
f 78//78 81//81 87//87
f 99//99 96//96 90//90
f 132//132 135//135 150//150
f 135//135 132//132 99//99
f 198//198 195//195 171//171
f 234//234 228//228 216//216
f 216//216 213//213 198//198
f 171//171 168//168 153//153
f 228//228 224//224 213//213
f 94//94 92//92 85//85
f 128//128 130//130 146//146
f 130//130 128//128 94//94
f 85//85 83//83 76//76
f 193//193 191//191 166//166
f 224//224 220//220 211//211
f 211//211 209//209 193//193
f 166//166 164//164 148//148
f 228//228 234//234 252//252
f 220//220 224//224 242//242
f 224//224 228//228 246//246
f 274//274 256//256 276//276
f 301//301 274//274 303//303
f 319//319 301//301 321//321
f 337//337 319//319 339//339
f 373//373 337//337 375//375
f 382//382 373//373 384//384
f 391//391 382//382 393//393
f 400//400 391//391 402//402
f 409//409 400//400 411//411
f 418//418 409//409 420//420
f 427//427 418//418 429//429
f 436//436 427//427 438//438
f 445//445 436//436 447//447
f 454//454 445//445 456//456
f 261//261 258//258 246//246
f 306//306 303//303 276//276
f 279//279 276//276 258//258
f 258//258 256//256 242//242
f 303//303 306//306 324//324
f 342//342 339//339 321//321
f 387//387 384//384 375//375
f 378//378 375//375 339//339
f 396//396 393//393 384//384
f 256//256 254//254 238//238
f 301//301 299//299 272//272
f 274//274 272//272 254//254
f 299//299 301//301 319//319
f 337//337 335//335 317//317
f 373//373 371//371 335//335
f 382//382 380//380 371//371
f 380//380 382//382 391//391
f 393//393 396//396 405//405
f 414//414 411//411 402//402
f 420//420 423//423 432//432
f 423//423 420//420 411//411
f 450//450 447//447 438//438
f 468//468 465//465 456//456
f 459//459 456//456 447//447
f 441//441 438//438 429//429
f 465//465 463//463 454//454
f 409//409 407//407 398//398
f 416//416 418//418 427//427
f 418//418 416//416 407//407
f 400//400 398//398 389//389
f 445//445 443//443 434//434
f 463//463 461//461 452//452
f 454//454 452//452 443//443
f 436//436 434//434 425//425
f 346//346 355//355 357//357
f 328//328 346//346 348//348
f 310//310 328//328 330//330
f 292//292 310//310 312//312
f 283//283 292//292 294//294
f 265//265 283//283 285//285
f 360//360 357//357 369//369
f 357//357 355//355 366//366
f 357//357 360//360 348//348
f 333//333 330//330 351//351
f 330//330 333//333 312//312
f 355//355 353//353 364//364
f 353//353 355//355 344//344
f 328//328 326//326 346//346
f 326//326 328//328 308//308
f 312//312 315//315 294//294
f 294//294 297//297 285//285
f 251//251 245//245 270//270
f 270//270 267//267 288//288
f 245//245 241//241 267//267
f 290//290 292//292 281//281
f 292//292 290//290 310//310
f 241//241 237//237 265//265
f 265//265 263//263 283//283
f 245//245 251//251 233//233
f 237//237 241//241 223//223
f 241//241 245//245 227//227
f 184//184 202//202 186//186
f 175//175 184//184 177//177
f 157//157 175//175 159//159
f 139//139 157//157 141//141
f 121//121 139//139 123//123
f 112//112 121//121 114//114
f 207//207 204//204 227//227
f 204//204 202//202 223//223
f 204//204 207//207 189//189
f 180//180 177//177 186//186
f 177//177 180//180 162//162
f 202//202 200//200 219//219
f 200//200 202//202 184//184
f 175//175 173//173 182//182
f 173//173 175//175 157//157
f 159//159 162//162 144//144
f 141//141 144//144 126//126
f 108//108 105//105 114//114
f 117//117 114//114 123//123
f 105//105 103//103 112//112
f 137//137 139//139 121//121
f 139//139 137//137 155//155
f 103//103 101//101 110//110
f 112//112 110//110 119//119
f 101//101 103//103 102//102
f 102//102 103//103 104//104
f 105//105 108//108 107//107
f 105//105 106//106 104//104
f 103//103 105//105 104//104
f 122//122 113//113 124//124
f 120//120 111//111 122//122
f 140//140 122//122 142//142
f 138//138 120//120 140//140
f 158//158 140//140 160//160
f 156//156 138//138 158//158
f 176//176 158//158 178//178
f 174//174 156//156 176//176
f 185//185 176//176 187//187
f 183//183 174//174 185//185
f 203//203 185//185 205//205
f 201//201 183//183 203//203
f 116//116 115//115 106//106
f 115//115 116//116 125//125
f 115//115 113//113 104//104
f 161//161 160//160 142//142
f 143//143 142//142 124//124
f 160//160 161//161 179//179
f 113//113 111//111 102//102
f 100//100 102//102 111//111
f 138//138 136//136 118//118
f 120//120 118//118 109//109
f 136//136 138//138 156//156
f 188//188 187//187 178//178
f 187//187 188//188 206//206
f 232//232 230//230 205//205
f 230//230 226//226 203//203
f 226//226 222//222 201//201
f 174//174 172//172 154//154
f 172//172 174//174 183//183
f 222//222 218//218 199//199
f 201//201 199//199 181//181
f 230//230 232//232 250//250
f 222//222 226//226 244//244
f 218//218 222//222 240//240
f 226//226 230//230 248//248
f 284//284 266//266 268//268
f 282//282 264//264 266//266
f 293//293 284//284 286//286
f 291//291 282//282 284//284
f 311//311 293//293 295//295
f 309//309 291//291 293//293
f 329//329 311//311 313//313
f 327//327 309//309 311//311
f 347//347 329//329 331//331
f 345//345 327//327 329//329
f 356//356 347//347 349//349
f 354//354 345//345 347//347
f 269//269 268//268 250//250
f 268//268 269//269 286//286
f 268//268 266//266 248//248
f 314//314 313//313 296//296
f 296//296 295//295 287//287
f 313//313 314//314 331//331
f 266//266 264//264 244//244
f 236//236 240//240 262//262
f 291//291 289//289 282//282
f 282//282 280//280 264//264
f 289//289 291//291 307//307
f 350//350 349//349 332//332
f 349//349 350//350 358//358
f 368//368 367//367 359//359
f 367//367 365//365 358//358
f 365//365 363//363 356//356
f 327//327 325//325 309//309
f 325//325 327//327 343//343
f 363//363 361//361 354//354
f 354//354 352//352 345//345
f 361//361 363//363 362//362
f 364//364 363//363 365//365
f 366//366 365//365 367//367
f 369//369 366//366 368//368
f 364//364 365//365 366//366
f 63//63 54//54 117//117
f 63//63 117//117 72//72
f 72//72 126//126 81//81
f 126//126 72//72 117//117
f 81//81 126//126 90//90
f 18//18 9//9 108//108
f 27//27 18//18 108//108
f 108//108 45//45 36//36
f 45//45 108//108 117//117
f 117//117 54//54 45//45
f 27//27 108//108 36//36
f 108//108 9//9 8//8
f 144//144 99//99 90//90
f 153//153 135//135 180//180
f 153//153 180//180 171//171
f 216//216 198//198 207//207
f 189//189 198//198 171//171
f 234//234 216//216 233//233
f 144//144 90//90 126//126
f 162//162 99//99 144//144
f 216//216 207//207 233//233
f 171//171 180//180 189//189
f 198//198 189//189 207//207
f 180//180 135//135 162//162
f 234//234 233//233 251//251
f 162//162 135//135 99//99
f 26//26 107//107 17//17
f 8//8 17//17 107//107
f 107//107 35//35 44//44
f 26//26 35//35 107//107
f 116//116 107//107 44//44
f 44//44 53//53 116//116
f 53//53 62//62 116//116
f 62//62 71//71 116//116
f 80//80 125//125 71//71
f 80//80 89//89 125//125
f 98//98 143//143 89//89
f 71//71 125//125 116//116
f 98//98 134//134 161//161
f 143//143 98//98 161//161
f 197//197 206//206 188//188
f 170//170 188//188 179//179
f 134//134 179//179 161//161
f 152//152 170//170 179//179
f 179//179 134//134 152//152
f 197//197 215//215 206//206
f 188//188 170//170 197//197
f 232//232 215//215 231//231
f 232//232 231//231 249//249
f 215//215 232//232 206//206
f 125//125 89//89 143//143
f 252//252 251//251 261//261
f 261//261 270//270 279//279
f 324//324 306//306 297//297
f 288//288 306//306 279//279
f 342//342 324//324 297//297
f 261//261 251//251 270//270
f 279//279 270//270 288//288
f 342//342 297//297 315//315
f 333//333 351//351 387//387
f 378//378 315//315 333//333
f 297//297 306//306 288//288
f 342//342 315//315 378//378
f 396//396 387//387 351//351
f 405//405 396//396 351//351
f 414//414 405//405 360//360
f 351//351 360//360 405//405
f 423//423 414//414 360//360
f 369//369 432//432 360//360
f 423//423 360//360 432//432
f 441//441 432//432 369//369
f 450//450 369//369 459//459
f 459//459 369//369 468//468
f 441//441 369//369 450//450
f 368//368 467//467 468//468
f 378//378 333//333 387//387
f 305//305 296//296 287//287
f 278//278 287//287 269//269
f 332//332 314//314 377//377
f 377//377 314//314 341//341
f 341//341 314//314 296//296
f 249//249 260//260 250//250
f 260//260 269//269 250//250
f 305//305 287//287 278//278
f 260//260 278//278 269//269
f 296//296 305//305 323//323
f 323//323 341//341 296//296
f 386//386 350//350 332//332
f 368//368 359//359 431//431
f 449//449 368//368 440//440
f 440//440 368//368 431//431
f 449//449 458//458 368//368
f 467//467 368//368 458//458
f 350//350 386//386 395//395
f 386//386 332//332 377//377
f 359//359 413//413 422//422
f 413//413 359//359 404//404
f 404//404 350//350 395//395
f 359//359 422//422 431//431
f 350//350 404//404 359//359
f 56//56 110//110 47//47
f 56//56 65//65 110//110
f 65//65 74//74 119//119
f 119//119 110//110 65//65
f 74//74 83//83 119//119
f 11//11 101//101 2//2
f 20//20 101//101 11//11
f 101//101 29//29 38//38
f 38//38 110//110 101//101
f 110//110 38//38 47//47
f 20//20 29//29 101//101
f 101//101 100//100 1//1
f 137//137 83//83 92//92
f 146//146 173//173 128//128
f 146//146 164//164 173//173
f 209//209 200//200 191//191
f 182//182 164//164 191//191
f 220//220 219//219 209//209
f 137//137 119//119 83//83
f 155//155 137//137 92//92
f 209//209 219//219 200//200
f 164//164 182//182 173//173
f 191//191 200//200 182//182
f 173//173 155//155 128//128
f 220//220 238//238 237//237
f 155//155 92//92 128//128
f 19//19 10//10 100//100
f 1//1 100//100 10//10
f 100//100 37//37 28//28
f 19//19 100//100 28//28
f 109//109 37//37 100//100
f 37//37 109//109 46//46
f 46//46 109//109 55//55
f 55//55 109//109 64//64
f 73//73 64//64 118//118
f 73//73 118//118 82//82
f 91//91 82//82 136//136
f 64//64 109//109 118//118
f 91//91 154//154 127//127
f 136//136 154//154 91//91
f 190//190 181//181 199//199
f 163//163 172//172 181//181
f 127//127 154//154 172//172
f 145//145 172//172 163//163
f 172//172 145//145 127//127
f 190//190 199//199 208//208
f 181//181 190//190 163//163
f 218//218 217//217 208//208
f 218//218 236//236 235//235
f 208//208 199//199 218//218
f 118//118 136//136 82//82
f 238//238 254//254 237//237
f 254//254 272//272 263//263
f 317//317 290//290 299//299
f 281//281 272//272 299//299
f 335//335 290//290 317//317
f 254//254 263//263 237//237
f 272//272 281//281 263//263
f 335//335 308//308 290//290
f 326//326 380//380 344//344
f 371//371 326//326 308//308
f 290//290 281//281 299//299
f 335//335 371//371 308//308
f 389//389 344//344 380//380
f 398//398 344//344 389//389
f 407//407 353//353 398//398
f 344//344 398//398 353//353
f 416//416 353//353 407//407
f 362//362 353//353 425//425
f 416//416 425//425 353//353
f 434//434 362//362 425//425
f 443//443 452//452 362//362
f 452//452 461//461 362//362
f 434//434 443//443 362//362
f 361//361 362//362 461//461
f 371//371 380//380 326//326
f 298//298 280//280 289//289
f 271//271 262//262 280//280
f 325//325 370//370 307//307
f 370//370 334//334 307//307
f 334//334 289//289 307//307
f 235//235 236//236 253//253
f 253//253 236//236 262//262
f 298//298 271//271 280//280
f 253//253 262//262 271//271
f 289//289 316//316 298//298
f 316//316 289//289 334//334
f 379//379 325//325 343//343
f 361//361 424//424 352//352
f 442//442 433//433 361//361
f 433//433 424//424 361//361
f 442//442 361//361 451//451
f 460//460 451//451 361//361
f 343//343 388//388 379//379
f 379//379 370//370 325//325
f 352//352 415//415 406//406
f 406//406 397//397 352//352
f 397//397 388//388 343//343
f 352//352 424//424 415//415
f 343//343 352//352 397//397
f 461//461 462//462 460//460
f 465//465 467//467 466//466
f 455//455 457//457 448//448
f 453//453 455//455 446//446
f 446//446 448//448 439//439
f 444//444 446//446 437//437
f 437//437 439//439 430//430
f 435//435 437//437 428//428
f 428//428 430//430 421//421
f 426//426 428//428 419//419
f 419//419 421//421 412//412
f 417//417 419//419 410//410
f 410//410 412//412 403//403
f 408//408 410//410 401//401
f 401//401 403//403 394//394
f 399//399 401//401 392//392
f 392//392 394//394 385//385
f 390//390 392//392 383//383
f 383//383 385//385 376//376
f 381//381 383//383 374//374
f 374//374 376//376 340//340
f 372//372 374//374 338//338
f 338//338 340//340 322//322
f 336//336 338//338 320//320
f 320//320 322//322 304//304
f 318//318 320//320 302//302
f 302//302 304//304 277//277
f 300//300 302//302 275//275
f 275//275 277//277 259//259
f 273//273 275//275 257//257
f 458//458 466//466 467//467
f 440//440 448//448 449//449
f 449//449 457//457 458//458
f 457//457 464//464 466//466
f 431//431 439//439 440//440
f 413//413 421//421 422//422
f 395//395 403//403 404//404
f 404//404 412//412 413//413
f 422//422 430//430 431//431
f 394//394 386//386 385//385
f 462//462 455//455 453//453
f 453//453 460//460 462//462
f 442//442 435//435 433//433
f 444//444 451//451 453//453
f 417//417 424//424 426//426
f 399//399 406//406 408//408
f 408//408 415//415 417//417
f 426//426 433//433 435//435
f 397//397 390//390 388//388
f 377//377 385//385 386//386
f 323//323 340//340 341//341
f 341//341 376//376 377//377
f 305//305 322//322 323//323
f 278//278 304//304 305//305
f 260//260 277//277 278//278
f 249//249 259//259 260//260
f 247//247 257//257 259//259
f 243//243 255//255 257//257
f 381//381 388//388 390//390
f 336//336 370//370 372//372
f 372//372 379//379 381//381
f 318//318 334//334 336//336
f 273//273 298//298 300//300
f 239//239 253//253 255//255
f 255//255 271//271 273//273
f 300//300 316//316 318//318
f 247//247 231//231 229//229
f 239//239 225//225 221//221
f 235//235 221//221 217//217
f 243//243 229//229 225//225
f 194//194 214//214 196//196
f 192//192 212//212 194//194
f 167//167 196//196 169//169
f 165//165 194//194 167//167
f 149//149 169//169 151//151
f 147//147 167//167 149//149
f 131//131 151//151 133//133
f 129//129 149//149 131//131
f 95//95 133//133 97//97
f 93//93 131//131 95//95
f 86//86 97//97 88//88
f 84//84 95//95 86//86
f 77//77 88//88 79//79
f 75//75 86//86 77//77
f 68//68 79//79 70//70
f 66//66 77//77 68//68
f 59//59 70//70 61//61
f 57//57 68//68 59//59
f 50//50 61//61 52//52
f 48//48 59//59 50//50
f 41//41 52//52 43//43
f 39//39 50//50 41//41
f 32//32 43//43 34//34
f 30//30 41//41 32//32
f 23//23 34//34 25//25
f 21//21 32//32 23//23
f 14//14 25//25 16//16
f 12//12 23//23 14//14
f 214//214 229//229 231//231
f 169//169 196//196 197//197
f 196//196 214//214 215//215
f 212//212 225//225 229//229
f 151//151 169//169 170//170
f 97//97 133//133 134//134
f 79//79 88//88 89//89
f 88//88 97//97 98//98
f 133//133 151//151 152//152
f 80//80 71//71 70//70
f 225//225 212//212 210//210
f 208//208 217//217 221//221
f 192//192 165//165 163//163
f 190//190 208//208 210//210
f 127//127 145//145 147//147
f 82//82 91//91 93//93
f 91//91 127//127 129//129
f 145//145 163//163 165//165
f 84//84 75//75 73//73
f 61//61 70//70 71//71
f 43//43 52//52 53//53
f 52//52 61//61 62//62
f 34//34 43//43 44//44
f 25//25 34//34 35//35
f 16//16 25//25 26//26
f 7//7 16//16 17//17
f 5//5 14//14 16//16
f 3//3 12//12 14//14
f 64//64 73//73 75//75
f 46//46 55//55 57//57
f 55//55 64//64 66//66
f 37//37 46//46 48//48
f 19//19 28//28 30//30
f 1//1 10//10 12//12
f 10//10 19//19 21//21
f 28//28 37//37 39//39
f 3//3 4//4 2//2
f 6//6 7//7 8//8
f 22//22 15//15 24//24
f 31//31 24//24 33//33
f 40//40 33//33 42//42
f 49//49 42//42 51//51
f 58//58 51//51 60//60
f 67//67 60//60 69//69
f 76//76 69//69 78//78
f 85//85 78//78 87//87
f 94//94 87//87 96//96
f 130//130 96//96 132//132
f 148//148 132//132 150//150
f 166//166 150//150 168//168
f 193//193 168//168 195//195
f 211//211 195//195 213//213
f 15//15 6//6 9//9
f 33//33 24//24 27//27
f 24//24 15//15 18//18
f 13//13 4//4 6//6
f 36//36 45//45 42//42
f 51//51 42//42 45//45
f 69//69 60//60 63//63
f 60//60 51//51 54//54
f 78//78 69//69 72//72
f 11//11 2//2 4//4
f 29//29 20//20 22//22
f 20//20 11//11 13//13
f 31//31 40//40 38//38
f 47//47 38//38 40//40
f 56//56 47//47 49//49
f 65//65 56//56 58//58
f 67//67 76//76 74//74
f 81//81 90//90 87//87
f 96//96 87//87 90//90
f 135//135 153//153 150//150
f 132//132 96//96 99//99
f 195//195 168//168 171//171
f 228//228 213//213 216//216
f 213//213 195//195 198//198
f 168//168 150//150 153//153
f 224//224 211//211 213//213
f 92//92 83//83 85//85
f 130//130 148//148 146//146
f 128//128 92//92 94//94
f 83//83 74//74 76//76
f 191//191 164//164 166//166
f 220//220 209//209 211//211
f 209//209 191//191 193//193
f 164//164 146//146 148//148
f 228//228 252//252 246//246
f 220//220 242//242 238//238
f 224//224 246//246 242//242
f 256//256 258//258 276//276
f 274//274 276//276 303//303
f 301//301 303//303 321//321
f 319//319 321//321 339//339
f 337//337 339//339 375//375
f 373//373 375//375 384//384
f 382//382 384//384 393//393
f 391//391 393//393 402//402
f 400//400 402//402 411//411
f 409//409 411//411 420//420
f 418//418 420//420 429//429
f 427//427 429//429 438//438
f 436//436 438//438 447//447
f 445//445 447//447 456//456
f 261//261 246//246 252//252
f 306//306 276//276 279//279
f 279//279 258//258 261//261
f 258//258 242//242 246//246
f 303//303 324//324 321//321
f 342//342 321//321 324//324
f 387//387 375//375 378//378
f 378//378 339//339 342//342
f 396//396 384//384 387//387
f 256//256 238//238 242//242
f 301//301 272//272 274//274
f 274//274 254//254 256//256
f 299//299 319//319 317//317
f 337//337 317//317 319//319
f 373//373 335//335 337//337
f 382//382 371//371 373//373
f 380//380 391//391 389//389
f 393//393 405//405 402//402
f 414//414 402//402 405//405
f 420//420 432//432 429//429
f 423//423 411//411 414//414
f 450//450 438//438 441//441
f 468//468 456//456 459//459
f 459//459 447//447 450//450
f 441//441 429//429 432//432
f 465//465 454//454 456//456
f 409//409 398//398 400//400
f 416//416 427//427 425//425
f 418//418 407//407 409//409
f 400//400 389//389 391//391
f 445//445 434//434 436//436
f 463//463 452//452 454//454
f 454//454 443//443 445//445
f 436//436 425//425 427//427
f 346//346 357//357 348//348
f 328//328 348//348 330//330
f 310//310 330//330 312//312
f 292//292 312//312 294//294
f 283//283 294//294 285//285
f 265//265 285//285 267//267
f 357//357 366//366 369//369
f 355//355 364//364 366//366
f 360//360 351//351 348//348
f 330//330 348//348 351//351
f 333//333 315//315 312//312
f 353//353 362//362 364//364
f 355//355 346//346 344//344
f 326//326 344//344 346//346
f 328//328 310//310 308//308
f 315//315 297//297 294//294
f 297//297 288//288 285//285
f 245//245 267//267 270//270
f 267//267 285//285 288//288
f 241//241 265//265 267//267
f 292//292 283//283 281//281
f 290//290 308//308 310//310
f 237//237 263//263 265//265
f 263//263 281//281 283//283
f 245//245 233//233 227//227
f 237//237 223//223 219//219
f 241//241 227//227 223//223
f 202//202 204//204 186//186
f 184//184 186//186 177//177
f 175//175 177//177 159//159
f 157//157 159//159 141//141
f 139//139 141//141 123//123
f 121//121 123//123 114//114
f 207//207 227//227 233//233
f 204//204 223//223 227//227
f 204//204 189//189 186//186
f 180//180 186//186 189//189
f 177//177 162//162 159//159
f 202//202 219//219 223//223
f 200//200 184//184 182//182
f 175//175 182//182 184//184
f 173//173 157//157 155//155
f 159//159 144//144 141//141
f 141//141 126//126 123//123
f 108//108 114//114 117//117
f 117//117 123//123 126//126
f 105//105 112//112 114//114
f 137//137 121//121 119//119
f 139//139 155//155 157//157
f 103//103 110//110 112//112
f 112//112 119//119 121//121
f 101//101 102//102 100//100
f 105//105 107//107 106//106
f 113//113 115//115 124//124
f 111//111 113//113 122//122
f 122//122 124//124 142//142
f 120//120 122//122 140//140
f 140//140 142//142 160//160
f 138//138 140//140 158//158
f 158//158 160//160 178//178
f 156//156 158//158 176//176
f 176//176 178//178 187//187
f 174//174 176//176 185//185
f 185//185 187//187 205//205
f 183//183 185//185 203//203
f 116//116 106//106 107//107
f 115//115 125//125 124//124
f 115//115 104//104 106//106
f 161//161 142//142 143//143
f 143//143 124//124 125//125
f 160//160 179//179 178//178
f 113//113 102//102 104//104
f 100//100 111//111 109//109
f 138//138 118//118 120//120
f 120//120 109//109 111//111
f 136//136 156//156 154//154
f 188//188 178//178 179//179
f 187//187 206//206 205//205
f 232//232 205//205 206//206
f 230//230 203//203 205//205
f 226//226 201//201 203//203
f 174//174 154//154 156//156
f 172//172 183//183 181//181
f 222//222 199//199 201//201
f 201//201 181//181 183//183
f 230//230 250//250 248//248
f 222//222 244//244 240//240
f 218//218 240//240 236//236
f 226//226 248//248 244//244
f 284//284 268//268 286//286
f 282//282 266//266 284//284
f 293//293 286//286 295//295
f 291//291 284//284 293//293
f 311//311 295//295 313//313
f 309//309 293//293 311//311
f 329//329 313//313 331//331
f 327//327 311//311 329//329
f 347//347 331//331 349//349
f 345//345 329//329 347//347
f 356//356 349//349 358//358
f 354//354 347//347 356//356
f 268//268 248//248 250//250
f 269//269 287//287 286//286
f 266//266 244//244 248//248
f 313//313 295//295 296//296
f 295//295 286//286 287//287
f 314//314 332//332 331//331
f 264//264 240//240 244//244
f 240//240 264//264 262//262
f 289//289 280//280 282//282
f 280//280 262//262 264//264
f 291//291 309//309 307//307
f 349//349 331//331 332//332
f 350//350 359//359 358//358
f 367//367 358//358 359//359
f 365//365 356//356 358//358
f 363//363 354//354 356//356
f 325//325 307//307 309//309
f 327//327 345//345 343//343
f 361//361 352//352 354//354
f 352//352 343//343 345//345
f 363//363 364//364 362//362
f 366//366 367//367 368//368
f 108//108 8//8 107//107
f 234//234 251//251 252//252
f 232//232 249//249 250//250
f 368//368 468//468 369//369
f 101//101 1//1 2//2
f 220//220 237//237 219//219
f 218//218 235//235 217//217
f 361//361 461//461 460//460