# PHANTOM Module: P12
# Units: meters
o P12

v 5.200000 1.200000 2.000775
v 5.200000 1.200000 0.835589
v 5.200000 0.800000 2.000775
v 5.200000 0.800000 0.835589
v 5.200000 0.400000 2.000775
v 5.200000 0.400000 0.835589
v 5.200000 0.000000 2.000775
v 5.200000 0.000000 0.835589
v 5.198452 1.200000 2.028975
v 5.198452 1.200000 0.807389
v 5.198452 0.800000 2.028975
v 5.198452 0.800000 0.807389
v 5.198452 0.400000 2.028975
v 5.198452 0.400000 0.807389
v 5.198452 0.000000 2.028975
v 5.198452 0.000000 0.807389
v 5.193689 1.200000 2.057403
v 5.193689 1.200000 0.778961
v 5.193689 0.800000 2.057403
v 5.193689 0.800000 0.778961
v 5.193689 0.400000 2.057403
v 5.193689 0.400000 0.778961
v 5.193689 0.000000 2.057403
v 5.193689 0.000000 0.778961
v 5.185635 1.200000 2.085405
v 5.185635 1.200000 0.750959
v 5.185635 0.800000 2.085405
v 5.185635 0.800000 0.750959
v 5.185635 0.400000 2.085405
v 5.185635 0.400000 0.750959
v 5.185635 0.000000 2.085405
v 5.185635 0.000000 0.750959
v 5.174363 1.200000 2.112305
v 5.174363 1.200000 0.724059
v 5.174363 0.800000 2.112305
v 5.174363 0.800000 0.724059
v 5.174363 0.400000 2.112305
v 5.174363 0.400000 0.724059
v 5.174363 0.000000 2.112305
v 5.174363 0.000000 0.724059
v 5.160099 1.200000 2.137458
v 5.160099 1.200000 0.698905
v 5.160099 0.800000 2.137458
v 5.160099 0.800000 0.698905
v 5.160099 0.400000 2.137458
v 5.160099 0.400000 0.698905
v 5.160099 0.000000 2.137458
v 5.160099 0.000000 0.698905
v 5.143209 1.200000 2.160302
v 5.143209 1.200000 0.676062
v 5.143209 0.800000 2.160302
v 5.143209 0.800000 0.676062
v 5.143209 0.400000 2.160302
v 5.143209 0.400000 0.676062
v 5.143209 0.000000 2.160302
v 5.143209 0.000000 0.676062
v 5.124168 1.200000 2.180394
v 5.124168 1.200000 0.655970
v 5.124168 0.800000 2.180394
v 5.124168 0.800000 0.655970
v 5.124168 0.400000 2.180394
v 5.124168 0.400000 0.655970
v 5.124168 0.000000 2.180394
v 5.124168 0.000000 0.655970
v 5.103518 1.200000 2.197441
v 5.103518 1.200000 0.638922
v 5.103518 0.800000 2.197441
v 5.103518 0.800000 0.638922
v 5.103518 0.400000 2.197441
v 5.103518 0.400000 0.638922
v 5.103518 0.000000 2.197441
v 5.103518 0.000000 0.638922
v 5.000000 1.200000 2.000775
v 5.000000 1.200000 0.835589
v 5.000000 0.000000 2.000775
v 5.000000 0.000000 0.835589
v 4.999881 1.200000 2.002944
v 4.999881 1.200000 0.833420
v 4.999881 0.000000 2.002944
v 4.999881 0.000000 0.833420
v 4.999514 1.200000 2.005131
v 4.999514 1.200000 0.831233
v 4.999514 0.000000 2.005131
v 4.999514 0.000000 0.831233
v 4.998895 1.200000 2.007285
v 4.998895 1.200000 0.829079
v 4.998895 0.000000 2.007285
v 4.998895 0.000000 0.829079
v 4.998027 1.200000 2.009354
v 4.998027 1.200000 0.827010
v 4.998027 0.000000 2.009354
v 4.998027 0.000000 0.827010
v 4.996930 1.200000 2.011289
v 4.996930 1.200000 0.825075
v 4.996930 0.000000 2.011289
v 4.996930 0.000000 0.825075
v 4.995631 1.200000 2.013046
v 4.995631 1.200000 0.823318
v 4.995631 0.000000 2.013046
v 4.995631 0.000000 0.823318
v 4.994166 1.200000 2.014592
v 4.994166 1.200000 0.821772
v 4.994166 0.000000 2.014592
v 4.994166 0.000000 0.821772
v 4.992578 1.200000 2.015903
v 4.992578 1.200000 0.820461
v 4.992578 0.000000 2.015903
v 4.992578 0.000000 0.820461
v 4.279583 1.200000 2.796666
v 4.279583 1.200000 0.039697
v 4.279583 0.000000 2.796666
v 4.279583 0.000000 0.039697
v 4.252038 1.200000 2.813669
v 4.252038 1.200000 0.022695
v 4.252038 0.000000 2.813669
v 4.252038 0.000000 0.022695
v 4.222185 1.200000 2.826222
v 4.222185 1.200000 0.010142
v 4.222185 0.000000 2.826222
v 4.222185 0.000000 0.010142
v 4.190963 1.200000 2.833842
v 4.190963 1.200000 0.002522
v 4.190963 0.000000 2.833842
v 4.190963 0.000000 0.002522
v 4.168643 1.200000 2.615128
v 4.168643 1.200000 0.221235
v 4.168643 0.000000 2.615128
v 4.168643 0.000000 0.221235
v 4.166524 1.200000 2.616436
v 4.166524 1.200000 0.219928
v 4.166524 0.000000 2.616436
v 4.166524 0.000000 0.219928
v 4.164228 1.200000 2.617402
v 4.164228 1.200000 0.218962
v 4.164228 0.000000 2.617402
v 4.164228 0.000000 0.218962
v 4.161826 1.200000 2.617988
v 4.161826 1.200000 0.218376
v 4.161826 0.000000 2.617988
v 4.161826 0.000000 0.218376
v 4.159398 1.200000 2.836364
v 4.159398 1.200000 2.618182
v 4.159398 1.200000 0.218182
v 4.159398 1.200000 0.000000
v 4.159398 0.000000 2.836364
v 4.159398 0.000000 2.618182
v 4.159398 0.000000 0.218182
v 4.159398 0.000000 0.000000
v 1.040601 1.200000 2.836364
v 1.040601 1.200000 2.618182
v 1.040601 1.200000 0.218182
v 1.040601 1.200000 0.000000
v 1.040601 0.000000 2.836364
v 1.040601 0.000000 2.618182
v 1.040601 0.000000 0.218182
v 1.040601 0.000000 0.000000
v 1.038173 1.200000 2.617988
v 1.038173 1.200000 0.218376
v 1.038173 0.000000 2.617988
v 1.038173 0.000000 0.218376
v 1.035771 1.200000 2.617402
v 1.035771 1.200000 0.218962
v 1.035771 0.000000 2.617402
v 1.035771 0.000000 0.218962
v 1.033475 1.200000 2.616436
v 1.033475 1.200000 0.219928
v 1.033475 0.000000 2.616436
v 1.033475 0.000000 0.219928
v 1.031356 1.200000 2.615128
v 1.031356 1.200000 0.221235
v 1.031356 0.000000 2.615128
v 1.031356 0.000000 0.221235
v 1.009037 1.200000 2.833842
v 1.009037 1.200000 0.002522
v 1.009037 0.000000 2.833842
v 1.009037 0.000000 0.002522
v 0.977815 1.200000 2.826222
v 0.977815 1.200000 0.010142
v 0.977815 0.000000 2.826222
v 0.977815 0.000000 0.010142
v 0.947961 1.200000 2.813669
v 0.947961 1.200000 0.022695
v 0.947961 0.000000 2.813669
v 0.947961 0.000000 0.022695
v 0.920416 1.200000 2.796666
v 0.920416 1.200000 0.039697
v 0.920416 0.000000 2.796666
v 0.920416 0.000000 0.039697
v 0.207421 1.200000 2.015903
v 0.207421 1.200000 0.820461
v 0.207421 0.000000 2.015903
v 0.207421 0.000000 0.820461
v 0.205832 1.200000 2.014592
v 0.205832 1.200000 0.821772
v 0.205832 0.000000 2.014592
v 0.205832 0.000000 0.821772
v 0.204369 1.200000 2.013046
v 0.204369 1.200000 0.823318
v 0.204369 0.000000 2.013046
v 0.204369 0.000000 0.823318
v 0.203069 1.200000 2.011289
v 0.203069 1.200000 0.825075
v 0.203069 0.000000 2.011289
v 0.203069 0.000000 0.825075
v 0.201972 1.200000 2.009354
v 0.201972 1.200000 0.827010
v 0.201972 0.000000 2.009354
v 0.201972 0.000000 0.827010
v 0.201104 1.200000 2.007285
v 0.201104 1.200000 0.829079
v 0.201104 0.000000 2.007285
v 0.201104 0.000000 0.829079
v 0.200485 1.200000 2.005131
v 0.200485 1.200000 0.831233
v 0.200485 0.000000 2.005131
v 0.200485 0.000000 0.831233
v 0.200119 1.200000 2.002944
v 0.200119 1.200000 0.833420
v 0.200119 0.000000 2.002944
v 0.200119 0.000000 0.833420
v 0.200000 1.200000 2.000775
v 0.200000 1.200000 0.835589
v 0.200000 0.000000 2.000775
v 0.200000 0.000000 0.835589
v 0.096481 1.200000 2.197441
v 0.096481 1.200000 0.638922
v 0.096481 0.800000 2.197441
v 0.096481 0.800000 0.638922
v 0.096481 0.400000 2.197441
v 0.096481 0.400000 0.638922
v 0.096481 0.000000 2.197441
v 0.096481 0.000000 0.638922
v 0.075831 1.200000 2.180394
v 0.075831 1.200000 0.655970
v 0.075831 0.800000 2.180394
v 0.075831 0.800000 0.655970
v 0.075831 0.400000 2.180394
v 0.075831 0.400000 0.655970
v 0.075831 0.000000 2.180394
v 0.075831 0.000000 0.655970
v 0.056790 1.200000 2.160302
v 0.056790 1.200000 0.676062
v 0.056790 0.800000 2.160302
v 0.056790 0.800000 0.676062
v 0.056790 0.400000 2.160302
v 0.056790 0.400000 0.676062
v 0.056790 0.000000 2.160302
v 0.056790 0.000000 0.676062
v 0.039901 1.200000 2.137458
v 0.039901 1.200000 0.698905
v 0.039901 0.800000 2.137458
v 0.039901 0.800000 0.698905
v 0.039901 0.400000 2.137458
v 0.039901 0.400000 0.698905
v 0.039901 0.000000 2.137458
v 0.039901 0.000000 0.698905
v 0.025637 1.200000 2.112305
v 0.025637 1.200000 0.724059
v 0.025637 0.800000 2.112305
v 0.025637 0.800000 0.724059
v 0.025637 0.400000 2.112305
v 0.025637 0.400000 0.724059
v 0.025637 0.000000 2.112305
v 0.025637 0.000000 0.724059
v 0.014364 1.200000 2.085405
v 0.014364 1.200000 0.750959
v 0.014364 0.800000 2.085405
v 0.014364 0.800000 0.750959
v 0.014364 0.400000 2.085405
v 0.014364 0.400000 0.750959
v 0.014364 0.000000 2.085405
v 0.014364 0.000000 0.750959
v 0.006310 1.200000 2.057403
v 0.006310 1.200000 0.778961
v 0.006310 0.800000 2.057403
v 0.006310 0.800000 0.778961
v 0.006310 0.400000 2.057403
v 0.006310 0.400000 0.778961
v 0.006310 0.000000 2.057403
v 0.006310 0.000000 0.778961
v 0.001547 1.200000 2.028975
v 0.001547 1.200000 0.807389
v 0.001547 0.800000 2.028975
v 0.001547 0.800000 0.807389
v 0.001547 0.400000 2.028975
v 0.001547 0.400000 0.807389
v 0.001547 0.000000 2.028975
v 0.001547 0.000000 0.807389
v 0.000000 1.200000 2.000775
v 0.000000 1.200000 0.835589
v 0.000000 0.800000 2.000775
v 0.000000 0.800000 0.835589
v 0.000000 0.400000 2.000775
v 0.000000 0.400000 0.835589
v 0.000000 0.000000 2.000775
v 0.000000 0.000000 0.835589

vn 0.624317 0.780983 0.017121
vn 0.446911 0.894494 -0.012256
vn 0.999624 0.000000 0.027413
vn 0.999624 0.000000 -0.027413
vn 0.999624 0.000000 0.027413
vn 0.999624 0.000000 -0.027413
vn 0.371131 -0.928525 0.010177
vn 0.706708 -0.707240 -0.019380
vn 0.443013 0.894673 0.057448
vn 0.444839 0.894673 -0.040982
vn 0.995075 0.000000 0.099122
vn 0.993004 0.000000 -0.118083
vn 0.993004 0.000000 0.118084
vn 0.995075 0.000000 -0.099122
vn 0.444839 -0.894673 0.040982
vn 0.443013 -0.894673 -0.057448
vn 0.581968 0.800416 0.143691
vn 0.587014 0.800416 -0.121440
vn 0.979264 0.000000 0.202589
vn 0.970845 0.000000 -0.239707
vn 0.970845 0.000000 0.239707
vn 0.979264 0.000000 -0.202588
vn 0.587014 -0.800416 0.121441
vn 0.581968 -0.800416 -0.143691
vn 0.778957 0.555282 0.291356
vn 0.789713 0.555282 -0.260799
vn 0.949559 0.000000 0.313588
vn 0.936626 0.000000 -0.350330
vn 0.936626 0.000000 0.350330
vn 0.949559 0.000000 -0.313587
vn 0.789712 -0.555282 0.260799
vn 0.778957 -0.555282 -0.291356
vn 0.739120 0.555305 0.381232
vn 0.753677 0.555305 -0.351579
vn 0.906246 0.000000 0.422751
vn 0.888743 0.000000 -0.458406
vn 0.888743 0.000000 0.458406
vn 0.906246 0.000000 -0.422751
vn 0.753676 -0.555305 0.351580
vn 0.739120 -0.555305 -0.381232
vn 0.688058 0.555323 0.467111
vn 0.706322 0.555323 -0.439005
vn 0.849318 0.000000 0.527881
vn 0.827355 0.000000 -0.561679
vn 0.827356 0.000000 0.561678
vn 0.849318 0.000000 -0.527882
vn 0.706322 -0.555323 0.439004
vn 0.688057 -0.555323 -0.467112
vn 0.626350 0.555335 0.547073
vn 0.648078 0.555334 -0.521151
vn 0.779290 0.000000 0.626663
vn 0.753162 0.000000 -0.657835
vn 0.753163 0.000000 0.657834
vn 0.779289 0.000000 -0.626664
vn 0.648079 -0.555334 0.521150
vn 0.626350 -0.555334 -0.547073
vn 0.555084 0.555337 0.619260
vn 0.579855 0.555337 -0.596128
vn 0.688861 0.000000 0.724894
vn 0.673517 0.000000 -0.739172
vn 0.673515 0.000000 0.739173
vn 0.688862 0.000000 -0.724893
vn 0.579854 -0.555337 0.596129
vn 0.555086 -0.555337 -0.619258
vn 0.339747 0.832171 0.438251
vn 0.438835 0.707255 -0.554269
vn 0.617524 0.000000 0.786552
vn 0.612689 0.000000 -0.790324
vn 0.612687 0.000000 0.790325
vn 0.617525 0.000000 -0.786551
vn 0.438834 -0.707254 0.554271
vn 0.339748 -0.832171 -0.438250
vn -0.894026 0.447347 -0.024449
vn -0.554349 0.832146 0.015160
vn -0.706710 -0.707239 -0.019326
vn -0.799593 -0.600144 0.021866
vn -0.824786 0.555230 -0.106994
vn -0.828193 0.555230 0.076255
vn -0.828193 -0.555230 -0.076255
vn -0.824786 -0.555230 0.106994
vn -0.685995 0.707616 -0.169381
vn -0.691934 0.707616 0.143202
vn -0.691934 -0.707616 -0.143202
vn -0.685995 -0.707616 0.169381
vn -0.778941 0.555284 -0.291394
vn -0.789713 0.555284 0.260793
vn -0.789713 -0.555284 -0.260793
vn -0.778941 -0.555284 0.291394
vn -0.739110 0.555304 -0.381252
vn -0.753654 0.555304 0.351630
vn -0.753654 -0.555304 -0.351630
vn -0.739110 -0.555304 0.381252
vn -0.688090 0.555322 -0.467065
vn -0.706343 0.555322 0.438973
vn -0.706340 -0.555322 -0.438977
vn -0.688095 -0.555322 0.467058
vn -0.532125 0.707692 -0.464774
vn -0.550610 0.707692 0.442719
vn -0.550606 -0.707692 -0.442725
vn -0.532128 -0.707692 0.464771
vn -0.555086 0.555336 -0.619259
vn -0.579841 0.555336 0.596142
vn -0.579841 -0.555336 -0.596142
vn -0.555086 -0.555336 0.619259
vn -0.148535 0.970169 -0.191595
vn -0.273904 0.894511 0.353308
vn -0.273904 -0.894511 -0.353308
vn -0.148535 -0.970169 0.191595
vn 0.327314 0.813923 0.479995
vn 0.223452 0.919236 -0.324152
vn 0.223452 -0.919236 0.324152
vn 0.327314 -0.813923 -0.479995
vn 0.361354 0.555726 0.748727
vn 0.399597 0.555726 -0.729035
vn 0.399597 -0.555726 0.729035
vn 0.361354 -0.555726 -0.748727
vn 0.239493 0.555775 0.796089
vn 0.281316 0.555775 -0.782289
vn 0.281317 -0.555775 0.782288
vn 0.239492 -0.555775 -0.796089
vn 0.125664 0.317035 0.940052
vn 0.175590 0.317035 -0.932018
vn 0.175590 -0.317035 0.932018
vn 0.125665 -0.317035 -0.940051
vn -0.445603 0.600275 -0.664159
vn -0.308889 0.832234 0.460407
vn -0.308897 -0.832234 -0.460402
vn -0.445593 -0.600275 0.664166
vn -0.361371 0.555727 -0.748718
vn -0.399625 0.555727 0.729018
vn -0.399639 -0.555727 -0.729011
vn -0.361366 -0.555727 0.748721
vn -0.239502 0.555775 -0.796086
vn -0.281309 0.555775 0.782291
vn -0.281316 -0.555775 -0.782289
vn -0.239483 -0.555775 0.796092
vn -0.110126 0.555790 -0.823996
vn -0.153904 0.555789 0.816953
vn -0.153910 -0.555790 -0.816951
vn -0.110146 -0.555789 0.823994
vn 0.014789 0.928578 0.370842
vn -0.017797 0.894569 -0.446575
vn -0.028166 0.707388 0.706264
vn 0.024881 0.781111 -0.623896
vn 0.024880 -0.781111 0.623896
vn -0.028146 -0.707387 -0.706266
vn -0.017809 -0.894569 0.446574
vn 0.014789 -0.928578 -0.370842
vn -0.022092 0.832254 0.553955
vn 0.031847 0.600305 -0.799137
vn 0.022092 0.832254 0.553955
vn -0.012593 0.948759 -0.315751
vn -0.012592 -0.948759 0.315751
vn 0.022076 -0.832253 -0.553956
vn 0.031869 -0.600305 0.799136
vn -0.022093 -0.832254 -0.553955
vn 0.153935 0.555791 -0.816946
vn 0.110159 0.555789 0.823992
vn 0.110139 -0.555791 -0.823994
vn 0.153929 -0.555789 0.816948
vn 0.281328 0.555774 -0.782285
vn 0.239507 0.555775 0.796085
vn 0.239526 -0.555774 -0.796079
vn 0.281321 -0.555775 0.782287
vn 0.399590 0.555726 -0.729038
vn 0.361341 0.555725 0.748734
vn 0.361346 -0.555726 -0.748731
vn 0.399577 -0.555725 0.729046
vn 0.308873 0.832234 -0.460417
vn 0.445559 0.600276 0.664188
vn 0.445570 -0.600276 -0.664181
vn 0.308866 -0.832234 0.460421
vn -0.175589 0.317035 0.932018
vn -0.125666 0.317035 -0.940051
vn -0.125664 -0.317035 0.940052
vn -0.175588 -0.317035 -0.932018
vn -0.281313 0.555775 0.782290
vn -0.239488 0.555775 -0.796090
vn -0.239490 -0.555775 0.796090
vn -0.281312 -0.555775 -0.782290
vn -0.399599 0.555726 0.729033
vn -0.361353 0.555726 -0.748728
vn -0.361353 -0.555726 0.748728
vn -0.399599 -0.555726 -0.729033
vn -0.284048 0.868358 0.406535
vn -0.327316 0.813923 -0.479994
vn -0.276255 -0.868397 0.411789
vn -0.223453 -0.919236 -0.324151
vn 0.273878 0.894511 -0.353328
vn 0.148522 0.970169 0.191607
vn 0.148522 -0.970169 -0.191607
vn 0.273878 -0.894511 0.353328
vn 0.579939 0.555341 -0.596043
vn 0.555090 0.555341 0.619251
vn 0.555090 -0.555341 -0.619251
vn 0.579939 -0.555341 0.596043
vn 0.550555 0.707685 -0.442799
vn 0.532179 0.707686 0.464722
vn 0.532177 -0.707685 -0.464725
vn 0.550560 -0.707685 0.442792
vn 0.706340 0.555328 -0.438970
vn 0.688011 0.555328 0.467174
vn 0.688006 -0.555328 -0.467182
vn 0.706343 -0.555328 0.438966
vn 0.753632 0.555300 -0.351683
vn 0.739135 0.555300 0.381210
vn 0.739135 -0.555300 -0.381210
vn 0.753632 -0.555300 0.351683
vn 0.789729 0.555288 -0.260736
vn 0.778921 0.555288 0.291442
vn 0.778921 -0.555288 -0.291442
vn 0.789729 -0.555288 0.260736
vn 0.691964 0.707616 -0.143056
vn 0.686030 0.707616 0.169239
vn 0.686030 -0.707616 -0.169239
vn 0.691964 -0.707616 0.143056
vn 0.828190 0.555226 -0.076318
vn 0.824796 0.555226 0.106938
vn 0.824796 -0.555226 -0.106938
vn 0.828190 -0.555226 0.076318
vn 0.706707 0.707240 -0.019404
vn 0.799590 0.600145 0.021954
vn 0.894023 -0.447348 -0.024547
vn 0.554347 -0.832147 0.015220
vn -0.438834 0.707254 0.554271
vn -0.339748 0.832171 -0.438250
vn -0.617524 0.000000 0.786552
vn -0.617525 0.000000 -0.786551
vn -0.612687 0.000000 0.790325
vn -0.612689 0.000000 -0.790324
vn -0.339747 -0.832171 0.438251
vn -0.438835 -0.707255 -0.554269
vn -0.579854 0.555337 0.596129
vn -0.555086 0.555337 -0.619258
vn -0.673515 0.000000 0.739173
vn -0.688862 0.000000 -0.724893
vn -0.688861 0.000000 0.724894
vn -0.673517 0.000000 -0.739172
vn -0.555084 -0.555337 0.619260
vn -0.579855 -0.555337 -0.596128
vn -0.648079 0.555334 0.521150
vn -0.626350 0.555334 -0.547073
vn -0.753163 0.000000 0.657834
vn -0.779289 0.000000 -0.626664
vn -0.779290 0.000000 0.626663
vn -0.753162 0.000000 -0.657835
vn -0.626350 -0.555335 0.547073
vn -0.648078 -0.555334 -0.521151
vn -0.706322 0.555323 0.439004
vn -0.688057 0.555323 -0.467112
vn -0.827356 0.000000 0.561678
vn -0.849318 0.000000 -0.527882
vn -0.849318 0.000000 0.527881
vn -0.827355 0.000000 -0.561679
vn -0.688058 -0.555323 0.467111
vn -0.706322 -0.555323 -0.439005
vn -0.753676 0.555305 0.351580
vn -0.739120 0.555305 -0.381232
vn -0.888743 0.000000 0.458406
vn -0.906246 0.000000 -0.422751
vn -0.906246 0.000000 0.422751
vn -0.888743 0.000000 -0.458406
vn -0.739120 -0.555305 0.381232
vn -0.753677 -0.555305 -0.351579
vn -0.789710 0.555282 0.260807
vn -0.778955 0.555282 -0.291360
vn -0.936625 0.000000 0.350335
vn -0.949556 0.000000 -0.313597
vn -0.949556 0.000000 0.313598
vn -0.936625 0.000000 -0.350334
vn -0.778955 -0.555282 0.291360
vn -0.789710 -0.555282 -0.260807
vn -0.587014 0.800416 0.121444
vn -0.581966 0.800416 -0.143697
vn -0.970843 0.000000 0.239718
vn -0.979263 0.000000 -0.202593
vn -0.979263 0.000000 0.202594
vn -0.970843 0.000000 -0.239717
vn -0.581966 -0.800416 0.143697
vn -0.587014 -0.800416 -0.121444
vn -0.444839 0.894673 0.040972
vn -0.443013 0.894673 -0.057443
vn -0.993005 0.000000 0.118069
vn -0.995077 0.000000 -0.099102
vn -0.995077 0.000000 0.099102
vn -0.993005 0.000000 -0.118069
vn -0.443013 -0.894673 0.057443
vn -0.444839 -0.894673 -0.040972
vn -0.371131 0.928525 0.010171
vn -0.706709 0.707240 -0.019368
vn -0.999625 0.000000 0.027396
vn -0.999625 0.000000 -0.027396
vn -0.999625 0.000000 0.027396
vn -0.999625 0.000000 -0.027396
vn -0.624318 -0.780983 0.017110
vn -0.446911 -0.894494 -0.012248

f 187//187 229//229 231//231
f 185//185 227//227 229//229
f 225//225 227//227 185//185
f 187//187 185//185 229//229
f 149//149 153//153 145//145
f 109//109 111//111 69//69
f 71//71 69//69 111//111
f 109//109 67//67 65//65
f 5//5 7//7 8//8
f 1//1 3//3 4//4
f 3//3 5//5 6//6
f 112//112 70//70 72//72
f 112//112 68//68 70//70
f 66//66 68//68 110//110
f 112//112 110//110 68//68
f 144//144 148//148 156//156
f 186//186 188//188 230//230
f 232//232 230//230 188//188
f 186//186 228//228 226//226
f 294//294 296//296 295//295
f 290//290 292//292 291//291
f 292//292 294//294 293//293
f 100//100 24//24 16//16
f 108//108 32//32 24//24
f 56//56 48//48 108//108
f 40//40 108//108 48//48
f 108//108 40//40 32//32
f 108//108 64//64 56//56
f 80//80 8//8 76//76
f 16//16 8//8 84//84
f 7//7 76//76 8//8
f 16//16 88//88 92//92
f 8//8 80//80 84//84
f 16//16 84//84 88//88
f 96//96 16//16 92//92
f 108//108 72//72 64//64
f 116//116 112//112 148//148
f 120//120 116//116 148//148
f 112//112 147//147 148//148
f 147//147 112//112 140//140
f 148//148 124//124 120//120
f 136//136 140//140 112//112
f 16//16 96//96 100//100
f 104//104 24//24 100//100
f 112//112 132//132 136//136
f 128//128 72//72 108//108
f 112//112 128//128 132//132
f 104//104 108//108 24//24
f 72//72 128//128 112//112
f 83//83 7//7 15//15
f 76//76 7//7 75//75
f 75//75 7//7 79//79
f 7//7 83//83 79//79
f 15//15 91//91 87//87
f 15//15 87//87 83//83
f 99//99 15//15 23//23
f 39//39 107//107 31//31
f 23//23 31//31 107//107
f 107//107 47//47 55//55
f 55//55 63//63 107//107
f 107//107 39//39 47//47
f 63//63 71//71 107//107
f 95//95 91//91 15//15
f 103//103 23//23 107//107
f 15//15 99//99 95//95
f 71//71 111//111 127//127
f 111//111 135//135 131//131
f 111//111 131//131 127//127
f 107//107 71//71 127//127
f 119//119 145//145 115//115
f 111//111 115//115 145//145
f 146//146 111//111 145//145
f 145//145 119//119 123//123
f 145//145 153//153 146//146
f 139//139 111//111 146//146
f 139//139 135//135 111//111
f 99//99 23//23 103//103
f 156//156 148//148 147//147
f 160//160 188//188 155//155
f 156//156 155//155 188//188
f 156//156 184//184 180//180
f 184//184 156//156 188//188
f 180//180 176//176 156//156
f 164//164 188//188 160//160
f 188//188 164//164 168//168
f 188//188 168//168 172//172
f 192//192 196//196 280//280
f 288//288 200//200 204//204
f 280//280 196//196 200//200
f 232//232 172//172 192//192
f 172//172 232//232 188//188
f 192//192 248//248 240//240
f 256//256 248//248 192//192
f 192//192 272//272 264//264
f 272//272 192//192 280//280
f 264//264 256//256 192//192
f 200//200 288//288 280//280
f 288//288 208//208 212//212
f 288//288 212//212 216//216
f 220//220 296//296 216//216
f 288//288 216//216 296//296
f 295//295 296//296 224//224
f 220//220 224//224 296//296
f 208//208 288//288 204//204
f 232//232 192//192 240//240
f 187//187 171//171 167//167
f 187//187 167//167 163//163
f 287//287 203//203 199//199
f 191//191 171//171 231//231
f 279//279 195//195 191//191
f 231//231 171//171 187//187
f 154//154 153//153 187//187
f 154//154 146//146 153//153
f 159//159 154//154 187//187
f 183//183 153//153 179//179
f 179//179 153//153 175//175
f 187//187 153//153 183//183
f 187//187 163//163 159//159
f 279//279 199//199 195//195
f 287//287 215//215 211//211
f 287//287 211//211 207//207
f 219//219 295//295 223//223
f 224//224 223//223 295//295
f 219//219 215//215 295//295
f 287//287 295//295 215//215
f 199//199 279//279 287//287
f 191//191 231//231 239//239
f 191//191 239//239 247//247
f 191//191 255//255 263//263
f 191//191 247//247 255//255
f 191//191 263//263 271//271
f 191//191 271//271 279//279
f 207//207 203//203 287//287
f 155//155 156//156 147//147
f 98//98 10//10 18//18
f 106//106 18//18 26//26
f 50//50 106//106 42//42
f 34//34 42//42 106//106
f 106//106 26//26 34//34
f 106//106 50//50 58//58
f 78//78 74//74 2//2
f 10//10 82//82 2//2
f 1//1 2//2 74//74
f 10//10 90//90 86//86
f 2//2 82//82 78//78
f 10//10 86//86 82//82
f 94//94 90//90 10//10
f 106//106 58//58 66//66
f 114//114 144//144 110//110
f 118//118 144//144 114//114
f 110//110 144//144 143//143
f 143//143 138//138 110//110
f 144//144 118//118 122//122
f 134//134 110//110 138//138
f 10//10 98//98 94//94
f 102//102 98//98 18//18
f 110//110 134//134 130//130
f 126//126 106//106 66//66
f 110//110 130//130 126//126
f 102//102 18//18 106//106
f 66//66 110//110 126//126
f 81//81 9//9 1//1
f 74//74 73//73 1//1
f 73//73 77//77 1//1
f 1//1 77//77 81//81
f 9//9 85//85 89//89
f 9//9 81//81 85//85
f 97//97 17//17 9//9
f 33//33 25//25 105//105
f 17//17 105//105 25//25
f 105//105 49//49 41//41
f 49//49 105//105 57//57
f 105//105 41//41 33//33
f 57//57 105//105 65//65
f 93//93 9//9 89//89
f 101//101 105//105 17//17
f 9//9 93//93 97//97
f 65//65 125//125 109//109
f 109//109 129//129 133//133
f 109//109 125//125 129//129
f 105//105 125//125 65//65
f 117//117 113//113 141//141
f 109//109 141//141 113//113
f 142//142 141//141 109//109
f 141//141 121//121 117//117
f 141//141 142//142 149//149
f 137//137 142//142 109//109
f 137//137 109//109 133//133
f 97//97 101//101 17//17
f 152//152 143//143 144//144
f 158//158 151//151 186//186
f 152//152 186//186 151//151
f 152//152 178//178 182//182
f 182//182 186//186 152//152
f 178//178 152//152 174//174
f 162//162 158//158 186//186
f 186//186 166//166 162//162
f 186//186 170//170 166//166
f 190//190 274//274 194//194
f 282//282 202//202 198//198
f 274//274 198//198 194//194
f 226//226 190//190 170//170
f 170//170 186//186 226//226
f 190//190 234//234 242//242
f 250//250 190//190 242//242
f 190//190 258//258 266//266
f 266//266 274//274 190//190
f 258//258 190//190 250//250
f 198//198 274//274 282//282
f 282//282 210//210 206//206
f 282//282 214//214 210//210
f 218//218 214//214 290//290
f 282//282 290//290 214//214
f 289//289 222//222 290//290
f 218//218 290//290 222//222
f 206//206 202//202 282//282
f 226//226 234//234 190//190
f 185//185 165//165 169//169
f 185//185 161//161 165//165
f 281//281 197//197 201//201
f 189//189 225//225 169//169
f 273//273 189//189 193//193
f 225//225 185//185 169//169
f 150//150 185//185 149//149
f 150//150 149//149 142//142
f 157//157 185//185 150//150
f 181//181 177//177 149//149
f 177//177 173//173 149//149
f 185//185 181//181 149//149
f 185//185 157//157 161//161
f 273//273 193//193 197//197
f 281//281 209//209 213//213
f 281//281 205//205 209//209
f 217//217 221//221 289//289
f 222//222 289//289 221//221
f 217//217 289//289 213//213
f 281//281 213//213 289//289
f 197//197 281//281 273//273
f 189//189 233//233 225//225
f 189//189 241//241 233//233
f 189//189 257//257 249//249
f 189//189 249//249 241//241
f 189//189 265//265 257//257
f 189//189 273//273 265//265
f 205//205 281//281 201//201
f 151//151 143//143 152//152
f 181//181 185//185 187//187
f 173//173 177//177 179//179
f 149//149 173//173 175//175
f 177//177 181//181 183//183
f 243//243 245//245 237//237
f 251//251 253//253 245//245
f 259//259 261//261 253//253
f 267//267 269//269 261//261
f 275//275 277//277 269//269
f 283//283 285//285 277//277
f 239//239 231//231 229//229
f 255//255 247//247 245//245
f 247//247 239//239 237//237
f 237//237 229//229 227//227
f 263//263 255//255 253//253
f 279//279 271//271 269//269
f 295//295 287//287 285//285
f 287//287 279//279 277//277
f 261//261 269//269 271//271
f 293//293 285//285 283//283
f 235//235 227//227 225//225
f 251//251 243//243 241//241
f 243//243 235//235 233//233
f 259//259 251//251 249//249
f 275//275 267//267 265//265
f 291//291 283//283 281//281
f 283//283 275//275 273//273
f 257//257 265//265 267//267
f 121//121 141//141 145//145
f 113//113 117//117 119//119
f 109//109 113//113 115//115
f 117//117 121//121 123//123
f 53//53 51//51 59//59
f 45//45 43//43 51//51
f 37//37 35//35 43//43
f 29//29 27//27 35//35
f 21//21 19//19 27//27
f 13//13 11//11 19//19
f 57//57 65//65 67//67
f 41//41 49//49 51//51
f 49//49 57//57 59//59
f 59//59 67//67 69//69
f 33//33 41//41 43//43
f 17//17 25//25 27//27
f 1//1 9//9 11//11
f 9//9 17//17 19//19
f 35//35 27//27 25//25
f 3//3 11//11 13//13
f 61//61 69//69 71//71
f 45//45 53//53 55//55
f 53//53 61//61 63//63
f 37//37 45//45 47//47
f 21//21 29//29 31//31
f 5//5 13//13 15//15
f 13//13 21//21 23//23
f 39//39 31//31 29//29
f 22//22 20//20 12//12
f 30//30 28//28 20//20
f 38//38 36//36 28//28
f 46//46 44//44 36//36
f 54//54 52//52 44//44
f 62//62 60//60 52//52
f 10//10 2//2 4//4
f 26//26 18//18 20//20
f 18//18 10//10 12//12
f 12//12 4//4 6//6
f 34//34 26//26 28//28
f 50//50 42//42 44//44
f 66//66 58//58 60//60
f 58//58 50//50 52//52
f 36//36 44//44 42//42
f 68//68 60//60 62//62
f 14//14 6//6 8//8
f 30//30 22//22 24//24
f 22//22 14//14 16//16
f 38//38 30//30 32//32
f 54//54 46//46 48//48
f 70//70 62//62 64//64
f 62//62 54//54 56//56
f 40//40 48//48 46//46
f 114//114 110//110 112//112
f 122//122 118//118 120//120
f 144//144 122//122 124//124
f 118//118 114//114 116//116
f 174//174 152//152 156//156
f 182//182 178//178 180//180
f 186//186 182//182 184//184
f 178//178 174//174 176//176
f 246//246 244//244 236//236
f 254//254 252//252 244//244
f 262//262 260//260 252//252
f 270//270 268//268 260//260
f 278//278 276//276 268//268
f 286//286 284//284 276//276
f 234//234 226//226 228//228
f 250//250 242//242 244//244
f 242//242 234//234 236//236
f 236//236 228//228 230//230
f 258//258 250//250 252//252
f 274//274 266//266 268//268
f 290//290 282//282 284//284
f 282//282 274//274 276//276
f 260//260 268//268 266//266
f 292//292 284//284 286//286
f 238//238 230//230 232//232
f 254//254 246//246 248//248
f 246//246 238//238 240//240
f 262//262 254//254 256//256
f 278//278 270//270 272//272
f 294//294 286//286 288//288
f 286//286 278//278 280//280
f 264//264 272//272 270//270
f 76//76 74//74 78//78
f 84//84 82//82 86//86
f 80//80 78//78 82//82
f 90//90 92//92 88//88
f 96//96 94//94 98//98
f 104//104 102//102 106//106
f 100//100 98//98 102//102
f 94//94 96//96 92//92
f 106//106 126//126 128//128
f 128//128 126//126 130//130
f 134//134 136//136 132//132
f 136//136 134//134 138//138
f 143//143 147//147 140//140
f 143//143 151//151 155//155
f 155//155 151//151 158//158
f 162//162 164//164 160//160
f 164//164 162//162 166//166
f 170//170 172//172 168//168
f 170//170 190//190 192//192
f 192//192 190//190 194//194
f 200//200 198//198 202//202
f 196//196 194//194 198//198
f 206//206 208//208 204//204
f 208//208 206//206 210//210
f 216//216 214//214 218//218
f 212//212 210//210 214//214
f 222//222 224//224 220//220
f 222//222 221//221 223//223
f 223//223 221//221 217//217
f 215//215 213//213 209//209
f 219//219 217//217 213//213
f 205//205 207//207 211//211
f 203//203 201//201 197//197
f 195//195 193//193 189//189
f 199//199 197//197 193//193
f 201//201 203//203 207//207
f 189//189 169//169 171//171
f 171//171 169//169 165//165
f 161//161 163//163 167//167
f 163//163 161//161 157//157
f 150//150 154//154 159//159
f 150//150 142//142 146//146
f 146//146 142//142 137//137
f 133//133 135//135 139//139
f 135//135 133//133 129//129
f 125//125 127//127 131//131
f 125//125 105//105 107//107
f 107//107 105//105 101//101
f 99//99 97//97 93//93
f 103//103 101//101 97//97
f 89//89 91//91 95//95
f 91//91 89//89 85//85
f 83//83 81//81 77//77
f 87//87 85//85 81//81
f 73//73 75//75 79//79
f 73//73 74//74 76//76
f 149//149 145//145 141//141
f 109//109 69//69 67//67
f 5//5 8//8 6//6
f 1//1 4//4 2//2
f 3//3 6//6 4//4
f 144//144 156//156 152//152
f 186//186 230//230 228//228
f 294//294 295//295 293//293
f 290//290 291//291 289//289
f 292//292 293//293 291//291
f 181//181 187//187 183//183
f 173//173 179//179 175//175
f 149//149 175//175 153//153
f 177//177 183//183 179//179
f 243//243 237//237 235//235
f 251//251 245//245 243//243
f 259//259 253//253 251//251
f 267//267 261//261 259//259
f 275//275 269//269 267//267
f 283//283 277//277 275//275
f 239//239 229//229 237//237
f 255//255 245//245 253//253
f 247//247 237//237 245//245
f 237//237 227//227 235//235
f 263//263 253//253 261//261
f 279//279 269//269 277//277
f 295//295 285//285 293//293
f 287//287 277//277 285//285
f 261//261 271//271 263//263
f 293//293 283//283 291//291
f 235//235 225//225 233//233
f 251//251 241//241 249//249
f 243//243 233//233 241//241
f 259//259 249//249 257//257
f 275//275 265//265 273//273
f 291//291 281//281 289//289
f 283//283 273//273 281//281
f 257//257 267//267 259//259
f 121//121 145//145 123//123
f 113//113 119//119 115//115
f 109//109 115//115 111//111
f 117//117 123//123 119//119
f 53//53 59//59 61//61
f 45//45 51//51 53//53
f 37//37 43//43 45//45
f 29//29 35//35 37//37
f 21//21 27//27 29//29
f 13//13 19//19 21//21
f 57//57 67//67 59//59
f 41//41 51//51 43//43
f 49//49 59//59 51//51
f 59//59 69//69 61//61
f 33//33 43//43 35//35
f 17//17 27//27 19//19
f 1//1 11//11 3//3
f 9//9 19//19 11//11
f 35//35 25//25 33//33
f 3//3 13//13 5//5
f 61//61 71//71 63//63
f 45//45 55//55 47//47
f 53//53 63//63 55//55
f 37//37 47//47 39//39
f 21//21 31//31 23//23
f 5//5 15//15 7//7
f 13//13 23//23 15//15
f 39//39 29//29 37//37
f 22//22 12//12 14//14
f 30//30 20//20 22//22
f 38//38 28//28 30//30
f 46//46 36//36 38//38
f 54//54 44//44 46//46
f 62//62 52//52 54//54
f 10//10 4//4 12//12
f 26//26 20//20 28//28
f 18//18 12//12 20//20
f 12//12 6//6 14//14
f 34//34 28//28 36//36
f 50//50 44//44 52//52
f 66//66 60//60 68//68
f 58//58 52//52 60//60
f 36//36 42//42 34//34
f 68//68 62//62 70//70
f 14//14 8//8 16//16
f 30//30 24//24 32//32
f 22//22 16//16 24//24
f 38//38 32//32 40//40
f 54//54 48//48 56//56
f 70//70 64//64 72//72
f 62//62 56//56 64//64
f 40//40 46//46 38//38
f 114//114 112//112 116//116
f 122//122 120//120 124//124
f 144//144 124//124 148//148
f 118//118 116//116 120//120
f 174//174 156//156 176//176
f 182//182 180//180 184//184
f 186//186 184//184 188//188
f 178//178 176//176 180//180
f 246//246 236//236 238//238
f 254//254 244//244 246//246
f 262//262 252//252 254//254
f 270//270 260//260 262//262
f 278//278 268//268 270//270
f 286//286 276//276 278//278
f 234//234 228//228 236//236
f 250//250 244//244 252//252
f 242//242 236//236 244//244
f 236//236 230//230 238//238
f 258//258 252//252 260//260
f 274//274 268//268 276//276
f 290//290 284//284 292//292
f 282//282 276//276 284//284
f 260//260 266//266 258//258
f 292//292 286//286 294//294
f 238//238 232//232 240//240
f 254//254 248//248 256//256
f 246//246 240//240 248//248
f 262//262 256//256 264//264
f 278//278 272//272 280//280
f 294//294 288//288 296//296
f 286//286 280//280 288//288
f 264//264 270//270 262//262
f 76//76 78//78 80//80
f 84//84 86//86 88//88
f 80//80 82//82 84//84
f 90//90 88//88 86//86
f 96//96 98//98 100//100
f 104//104 106//106 108//108
f 100//100 102//102 104//104
f 94//94 92//92 90//90
f 106//106 128//128 108//108
f 128//128 130//130 132//132
f 134//134 132//132 130//130
f 136//136 138//138 140//140
f 143//143 140//140 138//138
f 143//143 155//155 147//147
f 155//155 158//158 160//160
f 162//162 160//160 158//158
f 164//164 166//166 168//168
f 170//170 168//168 166//166
f 170//170 192//192 172//172
f 192//192 194//194 196//196
f 200//200 202//202 204//204
f 196//196 198//198 200//200
f 206//206 204//204 202//202
f 208//208 210//210 212//212
f 216//216 218//218 220//220
f 212//212 214//214 216//216
f 222//222 220//220 218//218
f 222//222 223//223 224//224
f 223//223 217//217 219//219
f 215//215 209//209 211//211
f 219//219 213//213 215//215
f 205//205 211//211 209//209
f 203//203 197//197 199//199
f 195//195 189//189 191//191
f 199//199 193//193 195//195
f 201//201 207//207 205//205
f 189//189 171//171 191//191
f 171//171 165//165 167//167
f 161//161 167//167 165//165
f 163//163 157//157 159//159
f 150//150 159//159 157//157
f 150//150 146//146 154//154
f 146//146 137//137 139//139
f 133//133 139//139 137//137
f 135//135 129//129 131//131
f 125//125 131//131 129//129
f 125//125 107//107 127//127
f 107//107 101//101 103//103
f 99//99 93//93 95//95
f 103//103 97//97 99//99
f 89//89 95//95 93//93
f 91//91 85//85 87//87
f 83//83 77//77 79//79
f 87//87 81//81 83//83
f 73//73 79//79 77//77
f 73//73 76//76 75//75