# PHANTOM Module: P12LR
# Units: meters
o P12LR

v 5.200000 1.200000 2.000775
v 5.200000 1.200000 0.835589
v 5.200000 1.170833 2.000775
v 5.200000 1.170833 0.835589
v 5.200000 1.141665 2.000775
v 5.200000 1.141665 0.835589
v 5.200000 0.058331 2.000775
v 5.200000 0.058331 0.835589
v 5.200000 0.029165 2.000775
v 5.200000 0.029165 0.835589
v 5.200000 0.000000 2.000775
v 5.200000 0.000000 0.835589
v 5.198452 1.200000 2.028975
v 5.198452 1.200000 0.807389
v 5.198452 1.170833 2.028975
v 5.198452 1.170833 0.807389
v 5.198452 1.141665 2.028975
v 5.198452 1.141665 0.807389
v 5.198452 0.058331 2.028975
v 5.198452 0.058331 0.807389
v 5.198452 0.029165 2.028975
v 5.198452 0.029165 0.807389
v 5.198452 0.000000 2.028975
v 5.198452 0.000000 0.807389
v 5.193690 1.200000 2.057403
v 5.193690 1.200000 0.778961
v 5.193690 1.170833 2.057403
v 5.193690 1.170833 0.778961
v 5.193690 1.141665 2.057403
v 5.193690 1.141665 0.778961
v 5.193690 0.058331 2.057403
v 5.193690 0.058331 0.778961
v 5.193690 0.029165 2.057403
v 5.193690 0.029165 0.778961
v 5.193690 0.000000 2.057403
v 5.193690 0.000000 0.778961
v 5.185636 1.200000 2.085405
v 5.185636 1.200000 0.750959
v 5.185636 1.170833 2.085405
v 5.185636 1.170833 0.750959
v 5.185636 1.141665 2.085405
v 5.185636 1.141665 0.750959
v 5.185636 0.058331 2.085405
v 5.185636 0.058331 0.750959
v 5.185636 0.029165 2.085405
v 5.185636 0.029165 0.750959
v 5.185636 0.000000 2.085405
v 5.185636 0.000000 0.750959
v 5.174363 1.200000 2.112305
v 5.174363 1.200000 0.724059
v 5.174363 1.170833 2.112305
v 5.174363 1.170833 0.724059
v 5.174363 1.141665 2.112305
v 5.174363 1.141665 0.724059
v 5.174363 0.058331 2.112305
v 5.174363 0.058331 0.724059
v 5.174363 0.029165 2.112305
v 5.174363 0.029165 0.724059
v 5.174363 0.000000 2.112305
v 5.174363 0.000000 0.724059
v 5.160099 1.200000 2.137458
v 5.160099 1.200000 0.698905
v 5.160099 1.170833 2.137458
v 5.160099 1.170833 0.698905
v 5.160099 1.141665 2.137458
v 5.160099 1.141665 0.698905
v 5.160099 0.058331 2.137458
v 5.160099 0.058331 0.698905
v 5.160099 0.029165 2.137458
v 5.160099 0.029165 0.698905
v 5.160099 0.000000 2.137458
v 5.160099 0.000000 0.698905
v 5.143209 1.200000 2.160302
v 5.143209 1.200000 0.676062
v 5.143209 1.170833 2.160302
v 5.143209 1.141665 2.160302
v 5.143209 1.141665 0.676062
v 5.143209 0.058331 2.160302
v 5.143209 0.058331 0.676062
v 5.143209 0.029165 2.160302
v 5.143209 0.029165 0.676062
v 5.143209 0.000000 2.160302
v 5.143209 0.000000 0.676062
v 5.124168 1.200000 2.180394
v 5.124168 1.200000 0.655970
v 5.124168 1.170833 0.655970
v 5.124168 1.141665 2.180394
v 5.124168 1.141665 0.655970
v 5.124168 0.058331 2.180394
v 5.124168 0.058331 0.655970
v 5.124168 0.000000 2.180394
v 5.124168 0.000000 0.655970
v 5.103518 1.200000 2.197441
v 5.103518 1.200000 0.638922
v 5.103518 1.170833 2.197441
v 5.103518 1.141665 2.197441
v 5.103518 1.141665 0.638922
v 5.103518 0.058331 2.197441
v 5.103518 0.058331 0.638922
v 5.103518 0.029165 2.197441
v 5.103518 0.029165 0.638922
v 5.103518 0.000000 2.197441
v 5.103518 0.000000 0.638922
v 5.016551 1.141665 2.260690
v 5.016551 0.058331 2.260690
v 5.000000 1.200000 2.000775
v 5.000000 1.200000 0.835589
v 5.000000 1.141665 2.000775
v 5.000000 1.141665 0.835589
v 5.000000 0.058331 2.000775
v 5.000000 0.058331 0.835589
v 5.000000 0.000000 2.000775
v 5.000000 0.000000 0.835589
v 4.999881 1.200000 2.002944
v 4.999881 1.200000 0.833420
v 4.999881 0.000000 2.002944
v 4.999881 0.000000 0.833420
v 4.999515 1.200000 2.005131
v 4.999515 1.200000 0.831233
v 4.999515 0.000000 2.005131
v 4.999515 0.000000 0.831233
v 4.998895 1.200000 2.007285
v 4.998895 1.200000 0.829079
v 4.998895 0.000000 2.007285
v 4.998895 0.000000 0.829079
v 4.998028 1.200000 2.009354
v 4.998028 1.200000 0.827010
v 4.998028 0.000000 2.009354
v 4.998028 0.000000 0.827010
v 4.996931 1.200000 2.011289
v 4.996931 1.200000 0.825075
v 4.996931 0.000000 2.011289
v 4.996931 0.000000 0.825075
v 4.995632 1.200000 2.013046
v 4.995632 1.200000 0.823318
v 4.995632 0.000000 2.013046
v 4.995632 0.000000 0.823318
v 4.994167 1.200000 2.014592
v 4.994167 1.200000 0.821772
v 4.994167 0.000000 2.014592
v 4.994167 0.000000 0.821772
v 4.992579 1.200000 2.015903
v 4.992579 1.200000 0.820461
v 4.992579 1.141665 2.015903
v 4.992579 1.141665 0.820461
v 4.992579 0.058331 2.015903
v 4.992579 0.058331 0.820461
v 4.992579 0.000000 2.015903
v 4.992579 0.000000 0.820461
v 4.974024 1.137115 2.291619
v 4.974024 0.062882 2.291619
v 4.951169 1.141665 2.260690
v 4.951169 0.058331 2.260690
v 4.949541 0.065953 2.305374
v 4.949541 1.134044 2.305374
v 4.947828 0.058805 2.273734
v 4.947827 1.141192 2.273735
v 4.947284 1.130594 2.311066
v 4.947284 0.069403 2.311066
v 4.947078 0.062553 2.296178
v 4.947077 1.137443 2.296178
v 4.946475 0.060187 2.285601
v 4.946474 1.139809 2.285602
v 4.920068 1.120502 2.330859
v 4.920068 0.079494 2.330859
v 4.894757 1.106286 2.349268
v 4.894757 0.093711 2.349268
v 4.885787 1.141665 2.260690
v 4.885787 0.058331 2.260690
v 4.883559 1.097457 2.357412
v 4.883559 0.102539 2.357412
v 4.878520 1.109864 2.349531
v 4.878520 0.090133 2.349531
v 4.878158 0.058845 2.276846
v 4.878156 1.141152 2.276847
v 4.873777 0.082670 2.343897
v 4.873777 1.117327 2.343897
v 4.873730 1.087389 2.364560
v 4.873730 0.112608 2.364560
v 4.872587 0.060267 2.291775
v 4.872585 1.139729 2.291776
v 4.870178 0.076133 2.336689
v 4.870177 1.123864 2.336690
v 4.869088 0.062673 2.305328
v 4.869085 1.137324 2.305330
v 4.868037 0.070598 2.327853
v 4.868035 1.129399 2.327854
v 4.867611 0.066108 2.317384
v 4.867609 1.133888 2.317386
v 4.865567 1.076012 2.370497
v 4.865567 0.123985 2.370497
v 4.862203 1.069810 2.372943
v 4.862203 0.130186 2.372943
v 4.859367 1.063255 2.375005
v 4.859367 0.136741 2.375005
v 4.857098 1.056339 2.376657
v 4.857098 0.143658 2.376657
v 4.855430 1.049052 2.377869
v 4.855430 0.150945 2.377869
v 4.854402 1.041386 2.378617
v 4.854402 0.158610 2.378617
v 4.854051 1.033332 2.378872
v 4.854051 0.166665 2.378872
v 4.854025 0.166669 2.378890
v 4.854015 1.033326 2.378898
v 4.780843 1.133640 2.332896
v 4.780841 0.066358 2.332897
v 4.776445 1.129119 2.346869
v 4.776443 0.070879 2.346871
v 4.774275 1.109566 2.377745
v 4.774270 0.090432 2.377749
v 4.774047 1.123565 2.359003
v 4.774043 0.076433 2.359005
v 4.773422 1.117022 2.369281
v 4.773417 0.082976 2.369284
v 4.755023 1.141665 2.260690
v 4.719771 1.139435 2.307764
v 4.719768 0.060563 2.307766
v 4.694078 1.133391 2.348407
v 4.694072 0.066607 2.348411
v 4.684855 1.128839 2.365883
v 4.684847 0.071160 2.365888
v 4.677917 1.123266 2.381315
v 4.677908 0.076733 2.381321
v 4.673066 1.116717 2.394665
v 4.673057 0.083282 2.394672
v 4.670029 1.109267 2.405959
v 4.670019 0.090732 2.405967
v 4.668862 1.052932 2.439541
v 4.668856 0.147066 2.439546
v 4.668679 1.072914 2.433319
v 4.668670 0.127084 2.433325
v 4.667997 1.092113 2.422815
v 4.667986 0.107884 2.422822
v 4.665858 1.033329 2.443719
v 4.655996 1.141665 2.260690
v 4.655996 0.058331 2.260690
v 4.550000 1.141665 0.236364
v 4.550000 0.058331 0.236364
v 4.532255 1.137115 2.350683
v 4.532255 0.062882 2.350683
v 4.519560 0.066957 2.380166
v 4.519558 1.133039 2.380168
v 4.507473 1.137115 0.205435
v 4.507473 0.062882 0.205435
v 4.484283 0.077127 2.426968
v 4.484276 1.122869 2.426972
v 4.480733 1.130594 0.185988
v 4.480733 0.069403 0.185988
v 4.464910 1.130594 2.399662
v 4.464910 0.069404 2.399662
v 4.459941 0.091094 2.463583
v 4.459930 1.108899 2.463589
v 4.453517 1.120502 0.166194
v 4.453517 0.079494 0.166194
v 4.444407 0.108162 2.490271
v 4.444393 1.091830 2.490280
v 4.434465 0.127252 2.508520
v 4.434451 1.072740 2.508529
v 4.428205 1.106286 0.147786
v 4.428205 0.093711 0.147786
v 4.426498 0.147130 2.520690
v 4.426486 1.052863 2.520698
v 4.417197 0.166659 2.529464
v 4.417192 1.033338 2.529468
v 4.417007 1.097457 0.139642
v 4.417007 0.102539 0.139642
v 4.407178 1.087389 0.132493
v 4.407178 0.112608 0.132493
v 4.399015 1.076012 0.126557
v 4.399015 0.123985 0.126557
v 4.397087 1.120503 2.448987
v 4.397087 0.079494 2.448987
v 4.395652 1.069810 0.124110
v 4.395652 0.130186 0.124110
v 4.392817 1.063255 0.122048
v 4.392817 0.136741 0.122048
v 4.390546 1.056339 0.120397
v 4.390546 0.143658 0.120397
v 4.388879 1.049052 0.119184
v 4.388879 0.150945 0.119184
v 4.387851 1.041386 0.118437
v 4.387851 0.158610 0.118437
v 4.387500 1.033332 0.118182
v 4.387500 0.166665 0.118182
v 4.331169 1.106287 2.496928
v 4.331169 0.093711 2.496928
v 4.279584 1.200000 2.796666
v 4.279584 1.200000 0.039697
v 4.279584 0.000000 2.796666
v 4.279584 0.000000 0.039697
v 4.269535 1.087390 2.541753
v 4.269535 0.112609 2.541753
v 4.252038 1.200000 2.813669
v 4.252038 1.200000 0.022695
v 4.252038 0.000000 2.813669
v 4.252038 0.000000 0.022695
v 4.222185 1.200000 2.826222
v 4.222185 1.200000 0.010142
v 4.222185 0.000000 2.826222
v 4.222185 0.000000 0.010142
v 4.214567 1.063256 2.581730
v 4.214567 0.136742 2.581730
v 4.190963 1.200000 2.833842
v 4.190963 1.200000 0.002522
v 4.190963 0.000000 2.833842
v 4.190963 0.000000 0.002522
v 4.190326 1.049053 2.599360
v 4.190326 0.150946 2.599360
v 4.189445 1.141665 0.236364
v 4.189445 0.058331 0.236364
v 4.168644 1.200000 2.615128
v 4.168644 1.200000 0.221235
v 4.168644 1.140774 0.221235
v 4.168644 1.033333 2.615128
v 4.168644 0.166666 2.615128
v 4.168644 0.059223 0.221235
v 4.168644 0.000000 2.615128
v 4.168644 0.000000 0.221235
v 4.168536 1.033296 2.615200
v 4.168503 0.166715 2.615222
v 4.166525 1.200000 2.616436
v 4.166525 1.200000 0.219928
v 4.166525 0.000000 2.616436
v 4.166525 0.000000 0.219928
v 4.166450 1.140626 0.220052
v 4.166450 0.059371 0.220052
v 4.164228 1.200000 2.617402
v 4.164228 1.200000 0.218962
v 4.164228 0.000000 2.617402
v 4.164228 0.000000 0.218962
v 4.164178 0.059487 0.219149
v 4.164178 1.140510 0.219149
v 4.161828 1.140425 0.218526
v 4.161828 0.059571 0.218526
v 4.161827 1.200000 2.617988
v 4.161827 1.200000 0.218376
v 4.161827 0.000000 2.617988
v 4.161827 0.000000 0.218376
v 4.159399 1.200000 2.836364
v 4.159399 1.200000 2.618182
v 4.159399 1.200000 0.218182
v 4.159399 1.200000 0.000000
v 4.159399 1.140375 0.218182
v 4.159399 0.059622 0.218182
v 4.159399 0.000000 2.836364
v 4.159399 0.000000 2.618182
v 4.159399 0.000000 0.218182
v 4.159399 0.000000 0.000000
v 4.062500 1.139856 0.214859
v 4.062500 1.134059 0.192862
v 4.062500 1.124006 0.171693
v 4.062500 1.109935 0.152796
v 4.062500 1.092612 0.137446
v 4.062500 1.073209 0.126480
v 4.062500 1.053044 0.120155
v 4.062500 0.166665 0.118182
v 4.062500 0.146953 0.120155
v 4.062500 0.126788 0.126480
v 4.062500 0.107384 0.137446
v 4.062500 0.090062 0.152796
v 4.062500 0.075991 0.171693
v 4.062500 0.065938 0.192862
v 4.062500 0.060141 0.214859
v 3.812866 1.140375 0.218182
v 3.812866 0.059622 0.218182
v 3.575000 1.134059 0.192862
v 3.575000 1.124006 0.171693
v 3.575000 1.109935 0.152796
v 3.575000 1.092612 0.137446
v 3.575000 1.073209 0.126480
v 3.575000 1.053044 0.120155
v 3.575000 1.033332 0.118182
v 3.575000 0.166665 0.118182
v 3.575000 0.146953 0.120155
v 3.575000 0.126788 0.126480
v 3.575000 0.107384 0.137446
v 3.575000 0.090062 0.152796
v 3.575000 0.075991 0.171693
v 3.575000 0.065938 0.192862
v 3.466333 1.140375 0.218182
v 3.466333 0.059622 0.218182
v 3.119800 1.140375 0.218182
v 3.119800 0.059622 0.218182
v 3.087500 1.139856 0.214859
v 3.087500 1.134059 0.192862
v 3.087500 1.124006 0.171693
v 3.087500 1.109935 0.152796
v 3.087500 1.092612 0.137446
v 3.087500 1.073209 0.126480
v 3.087500 1.053044 0.120155
v 3.087500 1.033332 0.118182
v 3.087500 0.166665 0.118182
v 3.087500 0.146953 0.120155
v 3.087500 0.126788 0.126480
v 3.087500 0.107384 0.137446
v 3.087500 0.090062 0.152796
v 3.087500 0.075991 0.171693
v 3.087500 0.065938 0.192862
v 3.087500 0.060141 0.214859
v 2.773267 1.140375 0.218182
v 2.773267 0.059622 0.218182
v 2.600000 1.139856 0.214859
v 2.600000 1.134059 0.192862
v 2.600000 1.124006 0.171693
v 2.600000 1.109935 0.152796
v 2.600000 1.092612 0.137446
v 2.600000 1.073209 0.126480
v 2.600000 1.053044 0.120155
v 2.600000 1.033332 0.118182
v 2.600000 0.166665 0.118182
v 2.600000 0.146953 0.120155
v 2.600000 0.126788 0.126480
v 2.600000 0.107384 0.137446
v 2.600000 0.090062 0.152796
v 2.600000 0.075991 0.171693
v 2.600000 0.065938 0.192862
v 2.600000 0.060141 0.214859
v 2.426733 1.140375 0.218182
v 2.426733 0.059622 0.218182
v 2.112500 1.139856 0.214859
v 2.112500 1.134059 0.192862
v 2.112500 1.124006 0.171693
v 2.112500 1.109935 0.152796
v 2.112500 1.092612 0.137446
v 2.112500 1.073209 0.126480
v 2.112500 1.053044 0.120155
v 2.112500 1.033332 0.118182
v 2.112500 0.166665 0.118182
v 2.112500 0.146953 0.120155
v 2.112500 0.126788 0.126480
v 2.112500 0.107384 0.137446
v 2.112500 0.090062 0.152796
v 2.112500 0.075991 0.171693
v 2.112500 0.065938 0.192862
v 2.112500 0.060141 0.214859
v 2.080201 1.140375 0.218182
v 2.080201 0.059622 0.218182
v 1.733667 1.140375 0.218182
v 1.733667 0.059622 0.218182
v 1.625000 1.139856 0.214859
v 1.625000 1.134059 0.192862
v 1.625000 1.124006 0.171693
v 1.625000 1.109935 0.152796
v 1.625000 1.092612 0.137446
v 1.625000 1.073209 0.126480
v 1.625000 1.053044 0.120155
v 1.625000 1.033332 0.118182
v 1.625000 0.166665 0.118182
v 1.625000 0.146953 0.120155
v 1.625000 0.126788 0.126480
v 1.625000 0.107384 0.137446
v 1.625000 0.090062 0.152796
v 1.625000 0.075991 0.171693
v 1.625000 0.065938 0.192862
v 1.625000 0.060141 0.214859
v 1.387135 1.140375 0.218182
v 1.387135 0.059622 0.218182
v 1.137500 1.139856 0.214859
v 1.137500 1.134059 0.192862
v 1.137500 1.124006 0.171693
v 1.137500 1.109935 0.152796
v 1.137500 1.092612 0.137446
v 1.137500 1.073209 0.126480
v 1.137500 1.053044 0.120155
v 1.137500 1.033332 0.118182
v 1.137500 0.146953 0.120155
v 1.137500 0.126788 0.126480
v 1.137500 0.107384 0.137446
v 1.137500 0.090062 0.152796
v 1.137500 0.075991 0.171693
v 1.137500 0.065938 0.192862
v 1.137500 0.060141 0.214859
v 1.040602 1.200000 2.836364
v 1.040602 1.200000 2.618182
v 1.040602 1.200000 0.218182
v 1.040602 1.200000 0.000000
v 1.040602 1.140375 0.218182
v 1.040602 0.059622 0.218182
v 1.040602 0.000000 2.836364
v 1.040602 0.000000 2.618182
v 1.040602 0.000000 0.218182
v 1.040602 0.000000 0.000000
v 1.038174 1.200000 2.617988
v 1.038174 1.200000 0.218376
v 1.038174 0.000000 2.617988
v 1.038174 0.000000 0.218376
v 1.038173 1.140425 0.218526
v 1.038173 0.059571 0.218526
v 1.035822 1.140510 0.219149
v 1.035822 0.059487 0.219149
v 1.035771 1.200000 2.617402
v 1.035771 1.200000 0.218962
v 1.035771 0.000000 2.617402
v 1.035771 0.000000 0.218962
v 1.033550 1.140626 0.220052
v 1.033550 0.059371 0.220052
v 1.033476 1.200000 2.616436
v 1.033476 1.200000 0.219928
v 1.033476 0.000000 2.616436
v 1.033476 0.000000 0.219928
v 1.031497 1.033285 2.615222
v 1.031465 0.166703 2.615200
v 1.031357 1.200000 2.615128
v 1.031357 1.200000 0.221235
v 1.031357 1.140774 0.221235
v 1.031357 1.033333 2.615128
v 1.031357 0.166666 2.615128
v 1.031357 0.059223 0.221235
v 1.031357 0.000000 2.615128
v 1.031357 0.000000 0.221235
v 1.010555 1.141665 0.236364
v 1.010555 0.058331 0.236364
v 1.009675 1.049053 2.599360
v 1.009675 0.150946 2.599360
v 1.009037 1.200000 2.833842
v 1.009037 1.200000 0.002522
v 1.009037 0.000000 2.833842
v 1.009037 0.000000 0.002522
v 0.985434 1.063256 2.581730
v 0.985434 0.136742 2.581730
v 0.977815 1.200000 2.826222
v 0.977815 1.200000 0.010142
v 0.977815 0.000000 2.826222
v 0.977815 0.000000 0.010142
v 0.947962 1.200000 2.813669
v 0.947962 1.200000 0.022695
v 0.947962 0.000000 2.813669
v 0.947962 0.000000 0.022695
v 0.930465 1.087390 2.541753
v 0.930465 0.112609 2.541753
v 0.920417 1.200000 2.796666
v 0.920417 1.200000 0.039697
v 0.920417 0.000000 2.796666
v 0.920417 0.000000 0.039697
v 0.868832 1.106287 2.496928
v 0.868832 0.093711 2.496928
v 0.812500 1.033332 0.118182
v 0.812500 0.166665 0.118182
v 0.812149 1.041386 0.118437
v 0.812149 0.158610 0.118437
v 0.811122 1.049052 0.119184
v 0.811122 0.150945 0.119184
v 0.809454 1.056339 0.120397
v 0.809454 0.143658 0.120397
v 0.807184 1.063255 0.122048
v 0.807184 0.136741 0.122048
v 0.804348 1.069810 0.124110
v 0.804348 0.130186 0.124110
v 0.802914 1.120503 2.448987
v 0.802914 0.079494 2.448987
v 0.800984 1.076012 0.126557
v 0.800984 0.123985 0.126557
v 0.792822 1.087389 0.132493
v 0.792822 0.112608 0.132493
v 0.782992 1.097457 0.139642
v 0.782992 0.102539 0.139642
v 0.782808 0.166660 2.529468
v 0.782804 1.033340 2.529464
v 0.773515 0.147135 2.520698
v 0.773502 1.052868 2.520690
v 0.771794 1.106286 0.147786
v 0.771794 0.093711 0.147786
v 0.765550 0.127258 2.508529
v 0.765534 1.072746 2.508520
v 0.755608 0.108169 2.490280
v 0.755593 1.091836 2.490271
v 0.746483 1.120502 0.166194
v 0.746483 0.079494 0.166194
v 0.740070 0.091099 2.463589
v 0.740059 1.108904 2.463583
v 0.735091 1.130594 2.399662
v 0.735091 0.069404 2.399662
v 0.719267 1.130594 0.185988
v 0.719267 0.069403 0.185988
v 0.715724 0.077129 2.426972
v 0.715717 1.122871 2.426968
v 0.692528 1.137115 0.205435
v 0.692528 0.062882 0.205435
v 0.680442 0.066957 2.380168
v 0.680440 1.133040 2.380166
v 0.667745 1.137115 2.350683
v 0.667745 0.062882 2.350683
v 0.650001 1.141665 0.236364
v 0.650001 0.058331 0.236364
v 0.544004 1.141665 2.260690
v 0.544004 0.058331 2.260690
v 0.534142 0.166668 2.443719
v 0.532014 1.092113 2.422822
v 0.532003 0.107883 2.422815
v 0.531330 1.072914 2.433325
v 0.531322 0.127083 2.433319
v 0.531145 1.052932 2.439546
v 0.531138 0.147065 2.439541
v 0.529982 1.109265 2.405967
v 0.529971 0.090730 2.405959
v 0.526943 1.116715 2.394672
v 0.526934 0.083280 2.394665
v 0.522092 1.123264 2.381321
v 0.522083 0.076731 2.381315
v 0.515153 1.128837 2.365888
v 0.515145 0.071158 2.365883
v 0.505928 1.133390 2.348411
v 0.505922 0.066606 2.348407
v 0.480232 1.139434 2.307766
v 0.480228 0.060562 2.307764
v 0.444977 0.058331 2.260690
v 0.426583 1.117021 2.369284
v 0.426579 0.082975 2.369281
v 0.425957 1.123564 2.359005
v 0.425953 0.076432 2.359003
v 0.425731 1.109565 2.377749
v 0.425725 0.090431 2.377745
v 0.423558 1.129118 2.346871
v 0.423555 0.070878 2.346869
v 0.419159 1.133639 2.332897
v 0.419157 0.066357 2.332896
v 0.345985 0.166671 2.378898
v 0.345975 1.033328 2.378890
v 0.345949 1.033332 2.378872
v 0.345949 0.166665 2.378872
v 0.345598 1.041386 2.378617
v 0.345598 0.158610 2.378617
v 0.344570 1.049052 2.377869
v 0.344570 0.150945 2.377869
v 0.342903 1.056339 2.376657
v 0.342903 0.143658 2.376657
v 0.340632 1.063255 2.375005
v 0.340632 0.136741 2.375005
v 0.337797 1.069810 2.372943
v 0.337797 0.130186 2.372943
v 0.334434 1.076012 2.370497
v 0.334434 0.123985 2.370497
v 0.332392 0.066108 2.317386
v 0.332390 1.133889 2.317384
v 0.331964 0.070598 2.327854
v 0.331963 1.129399 2.327853
v 0.330914 0.062673 2.305330
v 0.330913 1.137324 2.305328
v 0.329823 0.076133 2.336690
v 0.329822 1.123864 2.336689
v 0.327415 0.060267 2.291776
v 0.327414 1.139729 2.291775
v 0.326271 1.087389 2.364560
v 0.326271 0.112608 2.364560
v 0.326223 0.082670 2.343897
v 0.326222 1.117327 2.343897
v 0.321844 0.058845 2.276847
v 0.321843 1.141152 2.276846
v 0.321480 1.109864 2.349531
v 0.321480 0.090133 2.349531
v 0.316442 1.097457 2.357412
v 0.316442 0.102539 2.357412
v 0.314213 1.141665 2.260690
v 0.314213 0.058331 2.260690
v 0.305243 1.106286 2.349268
v 0.305243 0.093711 2.349268
v 0.279932 1.120502 2.330859
v 0.279932 0.079494 2.330859
v 0.253527 0.060187 2.285602
v 0.253526 1.139809 2.285601
v 0.252923 0.062553 2.296178
v 0.252922 1.137443 2.296178
v 0.252716 1.130594 2.311066
v 0.252716 0.069403 2.311066
v 0.252173 0.058805 2.273735
v 0.252172 1.141192 2.273734
v 0.248831 1.141665 2.260690
v 0.248831 0.058331 2.260690
v 0.225977 1.137115 2.291619
v 0.225977 0.062882 2.291619
v 0.207422 1.200000 2.015903
v 0.207422 1.200000 0.820461
v 0.207422 1.141665 2.015903
v 0.207422 1.141665 0.820461
v 0.207422 0.058331 2.015903
v 0.207422 0.058331 0.820461
v 0.207422 0.000000 2.015903
v 0.207422 0.000000 0.820461
v 0.205833 1.200000 2.014592
v 0.205833 1.200000 0.821772
v 0.205833 0.000000 2.014592
v 0.205833 0.000000 0.821772
v 0.204369 1.200000 2.013046
v 0.204369 1.200000 0.823318
v 0.204369 0.000000 2.013046
v 0.204369 0.000000 0.823318
v 0.203070 1.200000 2.011289
v 0.203070 1.200000 0.825075
v 0.203070 0.000000 2.011289
v 0.203070 0.000000 0.825075
v 0.201972 1.200000 2.009354
v 0.201972 1.200000 0.827010
v 0.201972 0.000000 2.009354
v 0.201972 0.000000 0.827010
v 0.201105 1.200000 2.007285
v 0.201105 1.200000 0.829079
v 0.201105 0.000000 2.007285
v 0.201105 0.000000 0.829079
v 0.200485 1.200000 2.005131
v 0.200485 1.200000 0.831233
v 0.200485 0.000000 2.005131
v 0.200485 0.000000 0.831233
v 0.200119 1.200000 2.002944
v 0.200119 1.200000 0.833420
v 0.200119 0.000000 2.002944
v 0.200119 0.000000 0.833420
v 0.200000 1.200000 2.000775
v 0.200000 1.200000 0.835589
v 0.200000 1.141665 2.000775
v 0.200000 1.141665 0.835589
v 0.200000 0.058331 2.000775
v 0.200000 0.058331 0.835589
v 0.200000 0.000000 2.000775
v 0.200000 0.000000 0.835589
v 0.183449 1.141665 2.260690
v 0.183449 0.058331 2.260690
v 0.096481 1.200000 2.197441
v 0.096481 1.200000 0.638922
v 0.096481 1.170833 2.197441
v 0.096481 1.170833 0.638922
v 0.096481 1.141665 2.197441
v 0.096481 1.141665 0.638922
v 0.096481 0.058331 2.197441
v 0.096481 0.058331 0.638922
v 0.096481 0.029165 2.197441
v 0.096481 0.000000 2.197441
v 0.096481 0.000000 0.638922
v 0.075831 1.200000 2.180394
v 0.075831 1.200000 0.655970
v 0.075831 1.170833 0.655970
v 0.075831 1.141665 2.180394
v 0.075831 1.141665 0.655970
v 0.075831 0.058331 2.180394
v 0.075831 0.058331 0.655970
v 0.075831 0.029165 0.655970
v 0.075831 0.000000 2.180394
v 0.075831 0.000000 0.655970
v 0.056791 1.200000 2.160302
v 0.056791 1.200000 0.676062
v 0.056791 1.170833 2.160302
v 0.056791 1.170833 0.676062
v 0.056791 1.141665 2.160302
v 0.056791 1.141665 0.676062
v 0.056791 0.058331 2.160302
v 0.056791 0.058331 0.676062
v 0.056791 0.029165 2.160302
v 0.056791 0.029165 0.676062
v 0.056791 0.000000 2.160302
v 0.056791 0.000000 0.676062
v 0.039902 1.200000 2.137458
v 0.039902 1.200000 0.698905
v 0.039902 1.170833 2.137458
v 0.039902 1.170833 0.698905
v 0.039902 1.141665 2.137458
v 0.039902 1.141665 0.698905
v 0.039902 0.058331 2.137458
v 0.039902 0.058331 0.698905
v 0.039902 0.029165 2.137458
v 0.039902 0.029165 0.698905
v 0.039902 0.000000 2.137458
v 0.039902 0.000000 0.698905
v 0.025638 1.200000 2.112305
v 0.025638 1.200000 0.724059
v 0.025638 1.170833 2.112305
v 0.025638 1.170833 0.724059
v 0.025638 1.141665 2.112305
v 0.025638 1.141665 0.724059
v 0.025638 0.058331 2.112305
v 0.025638 0.058331 0.724059
v 0.025638 0.029165 2.112305
v 0.025638 0.029165 0.724059
v 0.025638 0.000000 2.112305
v 0.025638 0.000000 0.724059
v 0.014364 1.200000 2.085405
v 0.014364 1.200000 0.750959
v 0.014364 1.170833 2.085405
v 0.014364 1.170833 0.750959
v 0.014364 1.141665 2.085405
v 0.014364 1.141665 0.750959
v 0.014364 0.058331 2.085405
v 0.014364 0.058331 0.750959
v 0.014364 0.029165 2.085405
v 0.014364 0.029165 0.750959
v 0.014364 0.000000 2.085405
v 0.014364 0.000000 0.750959
v 0.006310 1.200000 2.057403
v 0.006310 1.200000 0.778961
v 0.006310 1.170833 2.057403
v 0.006310 1.141665 2.057403
v 0.006310 1.141665 0.778961
v 0.006310 0.058331 2.057403
v 0.006310 0.058331 0.778961
v 0.006310 0.029165 2.057403
v 0.006310 0.029165 0.778961
v 0.006310 0.000000 2.057403
v 0.006310 0.000000 0.778961
v 0.001548 1.200000 2.028975
v 0.001548 1.200000 0.807389
v 0.001548 1.170833 2.028975
v 0.001548 1.170833 0.807389
v 0.001548 1.141665 2.028975
v 0.001548 1.141665 0.807389
v 0.001548 0.058331 2.028975
v 0.001548 0.058331 0.807389
v 0.001548 0.029165 2.028975
v 0.001548 0.000000 2.028975
v 0.001548 0.000000 0.807389
v 0.000000 1.200000 2.000775
v 0.000000 1.200000 0.835589
v 0.000000 1.170833 2.000775
v 0.000000 1.141665 2.000775
v 0.000000 1.141665 0.835589
v 0.000000 0.058331 2.000775
v 0.000000 0.058331 0.835589
v 0.000000 0.029165 2.000775
v 0.000000 0.029165 0.835589
v 0.000000 0.000000 2.000775
v 0.000000 0.000000 0.835589

vn 0.624317 0.780983 0.017121
vn 0.446911 0.894494 -0.012256
vn 0.999624 0.000000 0.027413
vn 0.999624 0.000000 -0.027413
vn 0.274522 -0.961551 0.007528
vn 0.554347 -0.832147 -0.015202
vn 0.495812 0.868323 0.013597
vn 0.316002 0.948719 -0.008666
vn 0.999624 0.000000 0.027413
vn 0.999624 0.000000 -0.027413
vn 0.371131 -0.928525 0.010177
vn 0.706708 -0.707240 -0.019380
vn 0.443013 0.894673 0.057448
vn 0.444839 0.894673 -0.040982
vn 0.993911 0.000000 0.110188
vn 0.993911 0.000000 -0.110187
vn 0.944553 -0.316619 0.087019
vn 0.940677 -0.316619 -0.121982
vn 0.940677 0.316619 0.121982
vn 0.944553 0.316619 -0.087019
vn 0.993911 0.000000 0.110188
vn 0.993911 0.000000 -0.110187
vn 0.444839 -0.894673 0.040982
vn 0.443013 -0.894673 -0.057448
vn 0.581968 0.800416 0.143691
vn 0.587014 0.800416 -0.121440
vn 0.975231 0.000000 0.221188
vn 0.975231 0.000000 -0.221188
vn 0.814434 -0.555256 0.168489
vn 0.807432 -0.555256 -0.199360
vn 0.807432 0.555256 0.199360
vn 0.814434 0.555256 -0.168489
vn 0.975231 0.000000 0.221188
vn 0.975231 0.000000 -0.221188
vn 0.587014 -0.800416 0.121441
vn 0.581968 -0.800416 -0.143691
vn 0.778957 0.555282 0.291356
vn 0.789713 0.555282 -0.260799
vn 0.943272 0.000000 0.332022
vn 0.943272 0.000000 -0.332021
vn 0.789712 -0.555282 0.260799
vn 0.778957 -0.555282 -0.291356
vn 0.778957 0.555282 0.291356
vn 0.789713 0.555282 -0.260799
vn 0.943272 0.000000 0.332022
vn 0.943272 0.000000 -0.332021
vn 0.789712 -0.555282 0.260799
vn 0.778957 -0.555282 -0.291356
vn 0.739120 0.555305 0.381232
vn 0.753677 0.555305 -0.351579
vn 0.897671 0.000000 0.440666
vn 0.897671 0.000000 -0.440665
vn 0.753676 -0.555305 0.351580
vn 0.739120 -0.555305 -0.381232
vn 0.739120 0.555305 0.381232
vn 0.753677 0.555305 -0.351579
vn 0.897671 0.000000 0.440666
vn 0.897671 0.000000 -0.440665
vn 0.753676 -0.555305 0.351580
vn 0.739120 -0.555305 -0.381232
vn 0.688058 0.555323 0.467111
vn 0.706322 0.555323 -0.439005
vn 0.838508 0.000000 0.544890
vn 0.824187 0.000000 -0.566318
vn 0.600071 -0.707680 0.372966
vn 0.464532 -0.832517 -0.301869
vn 0.584555 0.707680 0.396844
vn 0.600071 0.707680 -0.372966
vn 0.838508 0.000000 0.544890
vn 0.838507 0.000000 -0.544891
vn 0.706322 -0.555323 0.439004
vn 0.688057 -0.555323 -0.467112
vn 0.541412 0.707763 0.453810
vn 0.643196 0.544017 -0.538837
vn 0.766385 0.000000 0.642382
vn 0.648079 -0.555334 0.521150
vn 0.643196 -0.544017 -0.538837
vn 0.541412 0.707763 0.453810
vn 0.648078 0.555334 -0.521151
vn 0.749543 0.000000 0.661956
vn 0.749542 0.000000 -0.661956
vn 0.648079 -0.555334 0.521150
vn 0.541412 -0.707763 -0.453811
vn 0.610221 0.447881 0.653477
vn 0.482153 0.707766 -0.516329
vn 0.701502 0.000000 -0.712668
vn 0.610221 -0.447881 0.653477
vn 0.482153 -0.707766 -0.516329
vn 0.572744 0.544320 0.612927
vn 0.572745 0.544321 -0.612926
vn 0.572744 -0.544320 0.612927
vn 0.572745 -0.544320 -0.612926
vn 0.512775 0.514612 0.687195
vn 0.490068 0.600181 -0.632152
vn 0.617524 0.000000 0.786552
vn 0.339747 -0.832171 0.438251
vn 0.438835 -0.707255 -0.554269
vn 0.339747 0.832171 0.438251
vn 0.339748 0.832171 -0.438250
vn 0.636797 0.000000 0.771032
vn 0.636798 0.000000 -0.771031
vn 0.512775 -0.514612 0.687195
vn 0.427411 -0.707254 -0.563126
vn 0.301314 -0.880753 0.365355
vn 0.301312 0.880750 0.365362
vn -0.831827 0.554828 -0.015161
vn -0.554349 0.832146 0.015160
vn -0.688709 -0.707606 -0.158029
vn -0.692453 -0.708644 0.135401
vn -0.744355 0.651729 -0.145550
vn -0.633113 0.760305 0.145272
vn -0.706710 -0.707239 -0.019326
vn -0.706872 -0.707224 0.012884
vn -0.701526 0.708388 -0.077771
vn -0.701526 0.708388 0.077771
vn -0.701526 -0.708388 -0.077771
vn -0.701526 -0.708388 0.077771
vn -0.538244 0.833898 -0.122099
vn -0.538244 0.833898 0.122099
vn -0.538244 -0.833898 -0.122099
vn -0.538244 -0.833898 0.122099
vn -0.660018 0.714446 -0.232257
vn -0.660018 0.714446 0.232257
vn -0.660018 -0.714446 -0.232257
vn -0.660018 -0.714446 0.232257
vn -0.736659 0.571489 -0.361571
vn -0.736660 0.571489 0.361571
vn -0.736659 -0.571489 -0.361571
vn -0.736659 -0.571489 0.361571
vn -0.586562 0.714581 -0.381208
vn -0.586565 0.714581 0.381203
vn -0.586562 -0.714581 -0.381207
vn -0.586565 -0.714581 0.381203
vn -0.422870 0.834001 -0.354434
vn -0.422873 0.834001 0.354430
vn -0.422870 -0.834001 -0.354434
vn -0.422873 -0.834001 0.354430
vn -0.481627 0.708525 -0.515778
vn -0.481627 0.708525 0.515778
vn -0.481627 -0.708525 -0.515778
vn -0.481627 -0.708525 0.515778
vn -0.212206 0.936377 -0.279582
vn -0.212205 0.936377 0.279582
vn -0.540702 -0.708246 -0.453904
vn -0.686402 -0.443660 0.576210
vn -0.588239 0.640412 -0.493809
vn -0.686402 0.443659 0.576211
vn -0.212206 -0.936377 -0.279582
vn -0.212206 -0.936377 0.279582
vn 0.209408 -0.974758 0.077433
vn 0.209387 0.974764 0.077411
vn 0.000000 -0.999836 -0.018122
vn 0.000000 0.999836 -0.018123
vn -0.089310 0.905279 -0.415324
vn -0.089305 -0.905285 -0.415312
vn -0.004192 0.997695 -0.067727
vn -0.004196 -0.997693 -0.067757
vn 0.269937 -0.962167 -0.036994
vn 0.269941 0.962166 -0.036990
vn -0.038197 0.965758 -0.256618
vn -0.038186 -0.965769 -0.256577
vn -0.023690 0.986369 -0.162833
vn -0.023686 -0.986364 -0.162866
vn 0.193831 -0.921312 -0.337066
vn 0.193855 0.921315 -0.337044
vn 0.301580 -0.909553 -0.285942
vn 0.301577 0.909562 -0.285915
vn -0.000172 -0.999799 -0.020028
vn 0.000710 0.999707 -0.024181
vn 0.273830 -0.839960 -0.468492
vn 0.273816 0.839971 -0.468480
vn -0.171931 -0.683115 -0.709784
vn -0.171925 0.683126 -0.709775
vn -0.003153 0.997202 -0.074688
vn -0.003175 -0.997519 -0.070333
vn -0.153476 0.742851 -0.651627
vn -0.153481 -0.742841 -0.651637
vn 0.240001 -0.713068 -0.658736
vn 0.239976 0.713048 -0.658767
vn -0.013792 0.987905 -0.154447
vn -0.013799 -0.987905 -0.154446
vn -0.114736 0.827287 -0.549939
vn -0.114745 -0.827272 -0.549958
vn -0.029656 0.970246 -0.240297
vn -0.029664 -0.970249 -0.240285
vn -0.080217 0.900545 -0.427298
vn -0.080217 -0.900554 -0.427280
vn -0.060291 0.923938 -0.377761
vn -0.060295 -0.923936 -0.377767
vn 0.743401 -0.601620 -0.292247
vn 0.743382 0.601646 -0.292241
vn 0.790041 -0.507032 -0.344605
vn 0.790024 0.507064 -0.344598
vn 0.204925 -0.430738 -0.878903
vn 0.204898 0.430692 -0.878932
vn 0.849932 -0.321287 -0.417600
vn 0.849935 0.321264 -0.417612
vn 0.871931 -0.216077 -0.439371
vn 0.871926 0.216087 -0.439376
vn 0.175364 -0.174718 -0.968876
vn 0.885416 0.109449 -0.451730
vn 0.588171 -0.000004 0.808737
vn 0.588171 0.000006 0.808737
vn -0.322323 0.042286 -0.945685
vn -0.325709 -0.008647 -0.945431
vn -0.046410 -0.959188 -0.278934
vn -0.046404 0.959189 -0.278932
vn -0.077177 -0.920006 -0.384230
vn -0.077175 0.920011 -0.384219
vn -0.182624 -0.696028 -0.694402
vn -0.182628 0.696047 -0.694382
vn -0.111459 -0.863886 -0.491200
vn -0.111460 0.863893 -0.491188
vn -0.139178 -0.810537 -0.568910
vn -0.139181 0.810545 -0.568898
vn 0.000373 -0.999687 -0.025008
vn -0.011319 -0.993127 -0.116494
vn -0.010912 0.993370 -0.114442
vn -0.039164 -0.973414 -0.225681
vn -0.039165 0.973414 -0.225677
vn -0.067576 -0.941741 -0.329479
vn -0.067578 0.941745 -0.329469
vn -0.103683 -0.889131 -0.445752
vn -0.103684 0.889137 -0.445741
vn -0.133016 -0.839963 -0.526088
vn -0.133015 0.839974 -0.526070
vn -0.174017 -0.744143 -0.644957
vn -0.174014 0.744160 -0.644938
vn -0.308063 -0.194763 -0.931217
vn -0.308933 0.188006 -0.932317
vn -0.280042 -0.349758 -0.894005
vn -0.280046 0.349746 -0.894009
vn -0.222910 -0.592443 -0.774159
vn -0.222912 0.592445 -0.774157
vn -0.322788 -0.083280 -0.942800
vn -0.410435 -0.697733 -0.587122
vn -0.410434 0.697730 -0.587125
vn 0.360106 -0.815342 -0.453365
vn 0.424872 0.721113 -0.547247
vn -0.264090 -0.850930 -0.454064
vn -0.264086 0.850935 -0.454058
vn -0.033564 0.977036 -0.210415
vn -0.033577 -0.977030 -0.210439
vn 0.145393 -0.989288 -0.013043
vn 0.145399 0.989289 -0.012936
vn -0.071235 0.936660 -0.342919
vn -0.071248 -0.936650 -0.342943
vn 0.389469 -0.910828 -0.136770
vn 0.389467 0.910827 -0.136781
vn -0.323417 -0.750493 -0.576335
vn -0.323393 0.750518 -0.576315
vn -0.133410 0.837250 -0.530297
vn -0.133424 -0.837235 -0.530316
vn 0.427995 -0.903623 0.016924
vn 0.427996 0.903622 0.016920
vn -0.196531 0.693167 -0.693466
vn -0.196542 -0.693162 -0.693468
vn -0.254235 0.512081 -0.820450
vn -0.254243 -0.512079 -0.820448
vn 0.476272 -0.858440 0.190385
vn 0.476266 0.858446 0.190370
vn -0.286299 0.386220 -0.876851
vn -0.293615 -0.347556 -0.890503
vn -0.318393 0.163906 -0.933681
vn -0.319211 -0.165170 -0.933179
vn 0.683610 -0.728682 -0.041235
vn 0.683609 0.728682 -0.041242
vn 0.548981 -0.710513 0.440218
vn 0.548986 0.710495 0.440240
vn 0.810094 -0.570449 0.135408
vn 0.810080 0.570472 0.135393
vn -0.334711 -0.684793 -0.647323
vn -0.334695 0.684818 -0.647305
vn 0.854018 -0.483590 0.191817
vn 0.854006 0.483618 0.191799
vn 0.616751 -0.433662 0.656929
vn 0.616755 0.433648 0.656935
vn 0.913880 -0.307817 0.264712
vn 0.913885 0.307795 0.264719
vn 0.934681 -0.207407 0.288711
vn 0.934679 0.207416 0.288709
vn 0.947554 -0.103483 0.302377
vn 0.646780 0.125285 0.752316
vn 0.747059 -0.055521 0.662435
vn 0.950791 0.025598 0.308775
vn -0.354754 -0.590191 -0.725138
vn -0.354744 0.590201 -0.725134
vn 0.525532 0.422999 0.738165
vn 0.535331 0.400876 -0.743451
vn 0.529268 -0.422946 0.735522
vn 0.541797 -0.362536 -0.758303
vn -0.379846 -0.471585 -0.795817
vn -0.379841 0.471595 -0.795813
vn 0.361354 0.555726 0.748727
vn 0.399597 0.555726 -0.729035
vn 0.399597 -0.555726 0.729035
vn 0.361354 -0.555726 -0.748727
vn 0.239493 0.555775 0.796089
vn 0.281316 0.555775 -0.782289
vn 0.281317 -0.555775 0.782288
vn 0.239492 -0.555775 -0.796089
vn -0.404297 -0.353227 -0.843667
vn -0.404298 0.353225 -0.843668
vn 0.125664 0.317035 0.940052
vn 0.175590 0.317035 -0.932018
vn 0.175590 -0.317035 0.932018
vn 0.125665 -0.317035 -0.940051
vn -0.421040 -0.263124 -0.868039
vn -0.421041 0.263166 -0.868025
vn -0.484165 -0.548303 0.681871
vn -0.484165 0.548303 0.681871
vn -0.556629 0.263222 -0.787958
vn -0.401190 0.707333 0.582003
vn -0.359606 -0.670328 0.649110
vn -0.588171 0.000000 -0.808737
vn -0.588171 0.000000 -0.808737
vn -0.359618 0.670330 0.649101
vn -0.557471 -0.287416 -0.778857
vn -0.401190 -0.707333 0.582003
vn -0.317206 -0.229664 -0.920128
vn -0.322127 0.152692 -0.934301
vn -0.361346 0.555726 -0.748731
vn -0.385091 0.556421 0.736275
vn -0.399590 -0.555726 -0.729038
vn -0.385106 -0.556420 0.736268
vn -0.326450 -0.519255 0.789813
vn -0.326479 0.519260 0.789798
vn -0.239502 0.555775 -0.796086
vn -0.279929 0.450128 0.847953
vn -0.281316 -0.555775 -0.782289
vn -0.279923 -0.450126 0.847956
vn -0.210779 0.655641 0.725057
vn -0.210716 -0.655405 0.725288
vn -0.166651 -0.511454 0.842996
vn -0.166589 0.511326 0.843086
vn -0.110126 0.555790 -0.823996
vn -0.126822 0.556478 0.821127
vn -0.153910 -0.555790 -0.816951
vn -0.126817 -0.556477 0.821128
vn 0.012592 0.948759 0.315751
vn -0.022076 0.832253 -0.553956
vn -0.011046 0.554870 0.831864
vn 0.024881 0.781111 -0.623896
vn -0.048960 -0.642823 0.764449
vn -0.048924 0.642549 0.764681
vn 0.022091 -0.832254 0.553955
vn -0.031847 -0.600305 -0.799137
vn -0.009880 -0.496284 0.868104
vn 0.014789 -0.928578 -0.370842
vn -0.000327 -0.978846 0.204600
vn -0.000596 -0.935164 0.354215
vn -0.000131 -0.854230 0.519894
vn 0.000891 -0.734604 0.678495
vn 0.002349 -0.583668 0.811989
vn 0.002393 -0.378683 0.925523
vn 0.001536 -0.166263 0.986080
vn 0.000281 0.038513 0.999258
vn 0.001091 0.188664 0.982041
vn 0.002394 0.402961 0.915214
vn 0.002348 0.607915 0.793999
vn 0.000891 0.757489 0.652847
vn -0.000131 0.870857 0.491536
vn -0.000715 0.940812 0.338927
vn -0.000327 0.978846 0.204600
vn 0.000000 -0.650285 0.759690
vn 0.000000 0.650285 0.759690
vn 0.000000 -0.939192 0.343393
vn 0.000000 -0.856826 0.515605
vn 0.000000 -0.736528 0.676407
vn 0.000000 -0.580846 0.814013
vn 0.000000 -0.397858 0.917447
vn 0.000000 -0.220507 0.975385
vn 0.000000 -0.056979 0.998375
vn 0.000000 0.049858 0.998756
vn 0.000000 0.200480 0.979698
vn 0.000000 0.397848 0.917451
vn 0.000000 0.580849 0.814011
vn 0.000000 0.736537 0.676397
vn 0.000000 0.856826 0.515605
vn 0.000000 0.939192 0.343393
vn 0.000000 -0.769152 0.639066
vn 0.000000 0.769152 0.639066
vn 0.000000 -0.650285 0.759690
vn 0.000000 0.650285 0.759690
vn 0.000000 -0.980278 0.197624
vn 0.000000 -0.939192 0.343393
vn 0.000000 -0.856826 0.515605
vn 0.000000 -0.736528 0.676407
vn 0.000000 -0.580846 0.814013
vn 0.000000 -0.397858 0.917447
vn 0.000000 -0.200480 0.979698
vn 0.000000 -0.049858 0.998756
vn 0.000000 0.049858 0.998756
vn 0.000000 0.200480 0.979698
vn 0.000000 0.397848 0.917451
vn 0.000000 0.580849 0.814011
vn 0.000000 0.736537 0.676397
vn 0.000000 0.856826 0.515605
vn 0.000000 0.932636 0.360819
vn 0.000000 0.978799 0.204824
vn 0.000000 -0.650285 0.759690
vn 0.000000 0.769152 0.639066
vn 0.000000 -0.978799 0.204824
vn 0.000000 -0.939192 0.343393
vn 0.000000 -0.856826 0.515605
vn 0.000000 -0.736528 0.676407
vn 0.000000 -0.580846 0.814013
vn 0.000000 -0.397858 0.917447
vn 0.000000 -0.200480 0.979698
vn 0.000000 -0.049858 0.998756
vn 0.000000 0.049858 0.998756
vn 0.000000 0.200480 0.979698
vn 0.000000 0.397848 0.917451
vn 0.000000 0.580849 0.814011
vn 0.000000 0.736537 0.676397
vn 0.000000 0.856826 0.515605
vn 0.000000 0.939192 0.343393
vn 0.000000 0.978799 0.204824
vn 0.000000 -0.769152 0.639066
vn 0.000000 0.650285 0.759690
vn 0.000000 -0.980278 0.197624
vn 0.000000 -0.939192 0.343393
vn 0.000000 -0.856826 0.515605
vn 0.000000 -0.736528 0.676407
vn 0.000000 -0.580846 0.814013
vn 0.000000 -0.397858 0.917447
vn 0.000000 -0.200480 0.979698
vn 0.000000 -0.049858 0.998756
vn 0.000000 0.049858 0.998756
vn 0.000000 0.200480 0.979698
vn 0.000000 0.397848 0.917451
vn 0.000000 0.580849 0.814011
vn 0.000000 0.736537 0.676397
vn 0.000000 0.856826 0.515605
vn 0.000000 0.939192 0.343393
vn 0.000000 0.980278 0.197624
vn 0.000000 -0.650285 0.759690
vn 0.000000 0.650285 0.759690
vn 0.000000 -0.769152 0.639066
vn 0.000000 0.769152 0.639066
vn 0.000000 -0.978799 0.204824
vn 0.000000 -0.939192 0.343393
vn 0.000000 -0.856826 0.515605
vn 0.000000 -0.736528 0.676407
vn 0.000000 -0.580846 0.814013
vn 0.000000 -0.397858 0.917447
vn 0.000000 -0.200480 0.979698
vn 0.000000 -0.049858 0.998756
vn 0.000000 0.056979 0.998375
vn 0.000000 0.220507 0.975385
vn 0.000000 0.397848 0.917451
vn 0.000000 0.580849 0.814011
vn 0.000000 0.736537 0.676397
vn 0.000000 0.856826 0.515605
vn 0.000000 0.939192 0.343393
vn 0.000000 0.978799 0.204824
vn 0.000000 -0.769152 0.639066
vn 0.000000 0.769152 0.639066
vn 0.000382 -0.977064 0.212947
vn 0.000715 -0.940812 0.338927
vn 0.000131 -0.870854 0.491541
vn -0.000891 -0.757486 0.652850
vn -0.002348 -0.607909 0.794003
vn -0.002393 -0.402963 0.915213
vn -0.001091 -0.188666 0.982041
vn -0.000281 -0.038514 0.999258
vn -0.001536 0.166260 0.986081
vn -0.002393 0.378685 0.925523
vn -0.002349 0.583668 0.811989
vn -0.000891 0.734610 0.678489
vn 0.000131 0.854234 0.519889
vn 0.000511 0.940352 0.340203
vn 0.000458 0.978864 0.204511
vn -0.024880 0.781111 0.623896
vn 0.028146 0.707387 -0.706266
vn 0.010460 0.394049 0.919030
vn -0.012592 0.948759 -0.315751
vn 0.048962 -0.642821 0.764450
vn 0.048934 0.642552 0.764678
vn -0.014789 -0.928578 0.370842
vn 0.017797 -0.894569 -0.446575
vn 0.011875 -0.447371 0.894269
vn -0.022092 -0.832254 -0.553955
vn 0.153885 0.555789 -0.816956
vn 0.126812 0.556477 0.821128
vn 0.110114 -0.555789 -0.823998
vn 0.126817 -0.556478 0.821127
vn 0.166606 -0.511448 0.843009
vn 0.166587 0.511329 0.843084
vn 0.210690 -0.655403 0.725298
vn 0.210780 0.655643 0.725055
vn 0.281381 0.555777 -0.782264
vn 0.279934 0.450129 0.847951
vn 0.239516 -0.555777 -0.796080
vn 0.279944 -0.450130 0.847947
vn 0.326536 -0.519262 0.789773
vn 0.326525 0.519258 0.789780
vn 0.399627 0.555724 -0.729020
vn 0.385165 0.556417 0.736239
vn 0.361421 -0.555724 -0.748696
vn 0.385151 -0.556418 0.736245
vn 0.322127 -0.152701 -0.934300
vn 0.317205 0.229669 -0.920127
vn 0.557470 0.287415 -0.778858
vn 0.401188 0.707332 0.582004
vn 0.359634 -0.670330 0.649092
vn 0.588171 0.000000 -0.808737
vn 0.588171 0.000000 -0.808737
vn 0.359622 0.670328 0.649101
vn 0.556629 -0.263221 -0.787959
vn 0.401188 -0.707332 0.582004
vn 0.484163 -0.548304 0.681872
vn 0.484163 0.548304 0.681872
vn 0.421040 -0.263176 -0.868023
vn 0.421037 0.263121 -0.868041
vn -0.175588 0.317035 0.932018
vn -0.125664 0.317035 -0.940052
vn -0.125662 -0.317035 0.940052
vn -0.175587 -0.317035 -0.932018
vn 0.404296 -0.353223 -0.843670
vn 0.404295 0.353222 -0.843670
vn -0.281319 0.555775 0.782287
vn -0.239491 0.555775 -0.796089
vn -0.239493 -0.555775 0.796089
vn -0.281318 -0.555775 -0.782288
vn -0.399602 0.555726 0.729032
vn -0.361359 0.555726 -0.748725
vn -0.361359 -0.555726 0.748725
vn -0.399602 -0.555726 -0.729032
vn 0.379842 -0.471595 -0.795813
vn 0.379845 0.471590 -0.795814
vn -0.522137 0.447280 0.726164
vn -0.537161 0.380848 -0.752604
vn -0.531793 -0.400923 0.745961
vn -0.540520 -0.380803 -0.750219
vn 0.354744 -0.590206 -0.725130
vn 0.354755 0.590184 -0.725142
vn -0.971833 -0.017445 -0.235023
vn -0.444242 0.049465 0.894540
vn -0.646785 -0.125261 0.752315
vn -0.947554 0.103462 0.302385
vn -0.934681 -0.207405 0.288711
vn -0.934680 0.207414 0.288710
vn -0.913880 -0.307818 0.264711
vn -0.913885 0.307796 0.264718
vn -0.616744 -0.433678 0.656925
vn -0.616747 0.433665 0.656931
vn -0.853997 -0.483636 0.191795
vn -0.853985 0.483664 0.191778
vn 0.334694 -0.684819 -0.647304
vn 0.334710 0.684795 -0.647321
vn -0.810101 -0.570438 0.135412
vn -0.810087 0.570462 0.135396
vn -0.548981 -0.710512 0.440218
vn -0.548986 0.710495 0.440240
vn -0.683603 -0.728688 -0.041240
vn -0.683602 0.728688 -0.041246
vn 0.319210 0.165174 -0.933178
vn 0.318393 -0.163913 -0.933680
vn 0.293614 0.347552 -0.890505
vn 0.286299 -0.386223 -0.876849
vn -0.476275 -0.858438 0.190386
vn -0.476269 0.858444 0.190372
vn 0.254241 0.512087 -0.820444
vn 0.254237 -0.512074 -0.820453
vn 0.196541 0.693159 -0.693472
vn 0.196531 -0.693172 -0.693461
vn -0.427998 -0.903621 0.016925
vn -0.427999 0.903621 0.016921
vn 0.133423 0.837232 -0.530322
vn 0.133413 -0.837248 -0.530298
vn 0.323401 -0.750514 -0.576317
vn 0.323409 0.750492 -0.576340
vn -0.389470 -0.910828 -0.136770
vn -0.389467 0.910827 -0.136781
vn 0.071244 0.936650 -0.342946
vn 0.071238 -0.936661 -0.342915
vn -0.145393 -0.989288 -0.013040
vn -0.145400 0.989288 -0.012939
vn 0.033570 0.977030 -0.210443
vn 0.033570 -0.977034 -0.210421
vn 0.264087 -0.850936 -0.454055
vn 0.264085 0.850932 -0.454064
vn -0.424874 -0.721112 -0.547248
vn -0.360108 0.815341 -0.453366
vn 0.410433 -0.697733 -0.587123
vn 0.410433 0.697736 -0.587119
vn 0.322787 0.083281 -0.942800
vn 0.222912 -0.592452 -0.774152
vn 0.222909 0.592437 -0.774164
vn 0.280047 -0.349749 -0.894007
vn 0.280040 0.349767 -0.894003
vn 0.308933 -0.188005 -0.932317
vn 0.308062 0.194757 -0.931218
vn 0.174016 -0.744157 -0.644941
vn 0.174016 0.744142 -0.644959
vn 0.133018 -0.839972 -0.526074
vn 0.133014 0.839964 -0.526087
vn 0.103685 -0.889137 -0.445741
vn 0.103681 0.889132 -0.445751
vn 0.067581 -0.941740 -0.329482
vn 0.067576 0.941741 -0.329481
vn 0.039169 -0.973412 -0.225689
vn 0.039164 0.973414 -0.225681
vn 0.010914 -0.993371 -0.114436
vn 0.011317 0.993127 -0.116494
vn -0.000373 0.999687 -0.025008
vn 0.139181 -0.810544 -0.568900
vn 0.139178 0.810538 -0.568909
vn 0.111460 -0.863893 -0.491187
vn 0.111459 0.863887 -0.491198
vn 0.182630 -0.696040 -0.694388
vn 0.182623 0.696033 -0.694396
vn 0.077178 -0.920007 -0.384227
vn 0.077177 0.920006 -0.384230
vn 0.046407 -0.959190 -0.278930
vn 0.046407 0.959188 -0.278935
vn 0.325708 0.008646 -0.945431
vn 0.322323 -0.042293 -0.945685
vn -0.588171 -0.000004 0.808737
vn -0.588170 0.000006 0.808737
vn -0.885412 -0.109498 -0.451726
vn -0.175362 0.174734 -0.968874
vn -0.871935 -0.216050 -0.439377
vn -0.871936 0.216060 -0.439370
vn -0.849928 -0.321288 -0.417608
vn -0.849936 0.321265 -0.417609
vn -0.204888 -0.430703 -0.878929
vn -0.204921 0.430733 -0.878907
vn -0.790049 -0.507012 -0.344617
vn -0.790041 0.507042 -0.344592
vn -0.743404 -0.601611 -0.292257
vn -0.743395 0.601635 -0.292233
vn 0.057110 0.934390 -0.351644
vn 0.057107 -0.934397 -0.351627
vn 0.080221 0.900539 -0.427310
vn 0.080217 -0.900546 -0.427297
vn 0.026338 0.975062 -0.220362
vn 0.026338 -0.975068 -0.220337
vn 0.114740 0.827278 -0.549951
vn 0.114742 -0.827282 -0.549945
vn 0.013795 0.987905 -0.154446
vn 0.013797 -0.987905 -0.154447
vn -0.239974 -0.713071 -0.658742
vn -0.240001 0.713056 -0.658749
vn 0.153476 0.742842 -0.651637
vn 0.153481 -0.742850 -0.651627
vn 0.003171 0.997521 -0.070298
vn 0.003158 -0.997199 -0.074731
vn 0.171930 -0.683128 -0.709772
vn 0.171928 0.683111 -0.709789
vn -0.273809 -0.839967 -0.468492
vn -0.273828 0.839967 -0.468479
vn -0.000710 -0.999707 -0.024181
vn 0.000172 0.999799 -0.020028
vn -0.301577 -0.909561 -0.285921
vn -0.301580 0.909555 -0.285936
vn -0.193839 -0.921315 -0.337054
vn -0.193846 0.921313 -0.337056
vn 0.023692 0.986369 -0.162834
vn 0.023684 -0.986364 -0.162865
vn 0.044908 0.956431 -0.288483
vn 0.044893 -0.956441 -0.288452
vn -0.289079 -0.956987 0.024683
vn -0.289069 0.956991 0.024664
vn 0.004193 0.997695 -0.067725
vn 0.004196 -0.997693 -0.067759
vn 0.000000 -0.999836 -0.018123
vn 0.000000 0.999836 -0.018122
vn -0.319257 -0.914619 0.248087
vn -0.319231 0.914634 0.248065
vn 0.212192 0.936377 -0.279593
vn 0.212192 0.936377 0.279593
vn 0.588223 -0.640412 -0.493829
vn 0.686384 -0.443658 0.576234
vn 0.540688 0.708245 -0.453922
vn 0.686384 0.443658 0.576234
vn 0.212192 -0.936377 -0.279593
vn 0.212192 -0.936377 0.279593
vn 0.481588 0.708528 -0.515812
vn 0.481588 0.708528 0.515812
vn 0.481588 -0.708528 -0.515812
vn 0.481588 -0.708528 0.515812
vn 0.422869 0.834002 -0.354433
vn 0.422872 0.834002 0.354429
vn 0.422869 -0.834002 -0.354432
vn 0.422871 -0.834002 0.354429
vn 0.586560 0.714583 -0.381206
vn 0.586563 0.714583 0.381202
vn 0.586560 -0.714584 -0.381206
vn 0.586563 -0.714584 0.381201
vn 0.736653 0.571489 -0.361584
vn 0.736654 0.571488 0.361583
vn 0.736653 -0.571489 -0.361583
vn 0.736653 -0.571489 0.361583
vn 0.659995 0.714445 -0.232324
vn 0.659995 0.714445 0.232324
vn 0.659995 -0.714446 -0.232324
vn 0.659995 -0.714446 0.232324
vn 0.538240 0.833901 -0.122096
vn 0.538240 0.833901 0.122096
vn 0.538240 -0.833901 -0.122096
vn 0.538240 -0.833901 0.122096
vn 0.701532 0.708381 -0.077774
vn 0.701532 0.708381 0.077774
vn 0.701532 -0.708381 -0.077774
vn 0.701532 -0.708381 0.077774
vn 0.706707 0.707240 -0.019404
vn 0.706870 0.707225 0.012935
vn 0.744349 -0.651730 -0.145578
vn 0.633107 -0.760305 0.145300
vn 0.688702 0.707606 -0.158059
vn 0.692447 0.708644 0.135427
vn 0.831825 -0.554829 -0.015222
vn 0.554347 -0.832147 0.015220
vn -0.301314 -0.880752 0.365358
vn -0.301311 0.880750 0.365365
vn -0.512778 0.514607 0.687196
vn -0.427411 0.707254 -0.563126
vn -0.636800 0.000000 0.771029
vn -0.617525 0.000000 -0.786551
vn -0.339747 -0.832171 0.438251
vn -0.438835 -0.707255 -0.554270
vn -0.339747 0.832171 0.438251
vn -0.438835 0.707255 -0.554270
vn -0.636800 0.000000 0.771029
vn -0.512778 -0.514607 0.687196
vn -0.490068 -0.600180 -0.632153
vn -0.572752 0.544319 0.612921
vn -0.555091 0.555337 -0.619254
vn -0.682514 0.000000 -0.730873
vn -0.572752 -0.544319 0.612921
vn -0.579865 -0.555337 -0.596119
vn -0.572752 0.544318 0.612921
vn -0.482159 0.707766 -0.516323
vn -0.682514 0.000000 -0.730873
vn -0.572753 -0.544318 0.612921
vn -0.579865 -0.555337 -0.596119
vn -0.648083 0.555334 0.521145
vn -0.626359 0.555334 -0.547063
vn -0.749550 0.000000 0.661948
vn -0.766392 0.000000 -0.642373
vn -0.541418 -0.707763 0.453804
vn -0.648083 -0.555334 -0.521146
vn -0.648083 0.555334 0.521145
vn -0.626359 0.555334 -0.547063
vn -0.749550 0.000000 0.661948
vn -0.766392 0.000000 -0.642373
vn -0.541418 -0.707763 0.453804
vn -0.648083 -0.555334 -0.521146
vn -0.706322 0.555323 0.439004
vn -0.688057 0.555323 -0.467112
vn -0.838508 0.000000 0.544890
vn -0.838507 0.000000 -0.544891
vn -0.584555 -0.707680 0.396844
vn -0.600071 -0.707680 -0.372966
vn -0.600071 0.707680 0.372966
vn -0.584554 0.707680 -0.396845
vn -0.838508 0.000000 0.544890
vn -0.838507 0.000000 -0.544891
vn -0.688058 -0.555323 0.467111
vn -0.706322 -0.555323 -0.439005
vn -0.753669 0.555305 0.351595
vn -0.739116 0.555305 -0.381240
vn -0.897665 0.000000 0.440679
vn -0.897665 0.000000 -0.440679
vn -0.739116 -0.555305 0.381240
vn -0.753670 -0.555305 -0.351594
vn -0.753669 0.555305 0.351595
vn -0.739116 0.555305 -0.381240
vn -0.897665 0.000000 0.440679
vn -0.897665 0.000000 -0.440679
vn -0.739116 -0.555305 0.381240
vn -0.753670 -0.555305 -0.351594
vn -0.789712 0.555282 0.260798
vn -0.778952 0.555282 -0.291367
vn -0.943269 0.000000 0.332029
vn -0.951124 0.000000 -0.308810
vn -0.778952 -0.555282 0.291368
vn -0.666423 -0.707710 -0.234579
vn -0.789712 0.555282 0.260798
vn -0.778952 0.555282 -0.291367
vn -0.943269 0.000000 0.332029
vn -0.943269 0.000000 -0.332028
vn -0.778952 -0.555282 0.291368
vn -0.789712 -0.555282 -0.260798
vn -0.587015 0.800416 0.121438
vn -0.589849 0.796345 -0.133840
vn -0.975233 0.000000 0.221180
vn -0.807434 -0.555256 0.199351
vn -0.818082 -0.544320 -0.185627
vn -0.814435 0.555256 0.168485
vn -0.807434 0.555256 -0.199351
vn -0.975233 0.000000 0.221180
vn -0.980227 0.000000 -0.197878
vn -0.581969 -0.800416 0.143685
vn -0.435570 -0.894718 -0.098786
vn -0.444839 0.894673 0.040982
vn -0.313865 0.948830 -0.034796
vn -0.993911 0.000000 0.110188
vn -0.990942 0.000000 -0.134289
vn -0.940677 -0.316619 0.121982
vn -0.888706 -0.447767 -0.098524
vn -0.944553 0.316619 0.087019
vn -0.947773 0.301077 -0.105254
vn -0.993911 0.000000 0.110188
vn -0.443013 -0.894673 0.057448
vn -0.447174 -0.893067 -0.049661
vn -0.371131 0.928525 0.010177
vn -0.706708 0.707240 -0.019380
vn -0.999624 0.000000 0.027413
vn -0.393545 -0.919193 0.014393
vn -0.554347 -0.832147 -0.015202
vn -0.274522 0.961551 0.007528
vn -0.447019 0.894487 -0.008170
vn -0.999624 0.000000 0.027413
vn -0.998880 0.000000 -0.047325
vn -0.624317 -0.780983 0.017121
vn -0.446911 -0.894494 -0.012256

f 104//104 95//95 93//93
f 95//95 104//104 96//96
f 104//104 93//93 150//150
f 93//93 158//158 150//150
f 288//288 166//166 164//164
f 288//288 170//170 166//166
f 288//288 164//164 158//158
f 288//288 158//158 93//93
f 100//100 98//98 105//105
f 105//105 102//102 100//100
f 102//102 105//105 151//151
f 290//290 167//167 171//171
f 290//290 102//102 159//159
f 102//102 151//151 159//159
f 165//165 167//167 290//290
f 165//165 290//290 159//159
f 288//288 190//190 178//178
f 288//288 194//194 192//192
f 192//192 190//190 288//288
f 198//198 196//196 288//288
f 194//194 288//288 196//196
f 288//288 200//200 198//198
f 288//288 202//202 200//200
f 288//288 290//290 202//202
f 288//288 178//178 170//170
f 290//290 193//193 195//195
f 290//290 179//179 191//191
f 191//191 193//193 290//290
f 290//290 201//201 203//203
f 290//290 197//197 199//199
f 201//201 290//290 199//199
f 195//195 197//197 290//290
f 171//171 179//179 290//290
f 346//346 340//340 474//474
f 622//622 532//532 624//624
f 626//626 624//624 532//532
f 532//532 622//622 620//620
f 534//534 532//532 620//620
f 532//532 644//644 632//632
f 532//532 628//628 626//626
f 532//532 630//630 628//628
f 532//532 632//632 630//630
f 644//644 532//532 652//652
f 534//534 621//621 623//623
f 627//627 534//534 625//625
f 623//623 625//625 534//534
f 620//620 621//621 534//534
f 534//534 627//627 629//629
f 534//534 633//633 645//645
f 534//534 631//631 633//633
f 534//534 629//629 631//631
f 653//653 534//534 645//645
f 664//664 658//658 532//532
f 532//532 656//656 652//652
f 532//532 658//658 656//656
f 716//716 718//718 720//720
f 718//718 716//716 670//670
f 720//720 722//722 716//716
f 664//664 718//718 670//670
f 664//664 532//532 718//718
f 534//534 653//653 657//657
f 534//534 665//665 727//727
f 534//534 657//657 659//659
f 727//727 671//671 717//717
f 717//717 724//724 726//726
f 717//717 726//726 727//727
f 665//665 671//671 727//727
f 659//659 665//665 534//534
f 810//810 811//811 809//809
f 812//812 811//811 813//813
f 810//810 813//813 811//811
f 584//584 721//721 719//719
f 721//721 584//584 723//723
f 584//584 719//719 533//533
f 533//533 574//574 578//578
f 533//533 562//562 568//568
f 568//568 574//574 533//533
f 578//578 584//584 533//533
f 535//535 585//585 579//579
f 585//585 728//728 725//725
f 728//728 585//585 535//535
f 535//535 569//569 563//563
f 535//535 575//575 569//569
f 563//563 557//557 535//535
f 535//535 579//579 575//575
f 556//556 562//562 533//533
f 533//533 552//552 554//554
f 533//533 546//546 548//548
f 548//548 552//552 533//533
f 542//542 544//544 533//533
f 546//546 533//533 544//544
f 533//533 540//540 542//542
f 533//533 538//538 540//540
f 538//538 533//533 535//535
f 533//533 554//554 556//556
f 535//535 549//549 547//547
f 535//535 555//555 553//553
f 553//553 549//549 535//535
f 535//535 541//541 539//539
f 535//535 545//545 543//543
f 541//541 535//535 543//543
f 547//547 545//545 535//535
f 535//535 539//539 538//538
f 557//557 555//555 535//535
f 483//483 477//477 343//343
f 280//280 289//289 278//278
f 276//276 278//278 289//289
f 289//289 280//280 282//282
f 284//284 289//289 282//282
f 289//289 268//268 270//270
f 289//289 274//274 276//276
f 289//289 270//270 274//274
f 268//268 289//289 266//266
f 291//291 284//284 285//285
f 281//281 291//291 283//283
f 285//285 283//283 291//291
f 289//289 284//284 291//291
f 291//291 281//281 279//279
f 291//291 275//275 271//271
f 291//291 277//277 275//275
f 291//291 279//279 277//277
f 269//269 291//291 271//271
f 289//289 254//254 260//260
f 289//289 260//260 266//266
f 97//97 238//238 94//94
f 289//289 94//94 238//238
f 289//289 244//244 248//248
f 289//289 238//238 244//244
f 248//248 254//254 289//289
f 291//291 267//267 261//261
f 291//291 255//255 249//249
f 291//291 261//261 255//255
f 291//291 245//245 239//239
f 239//239 99//99 101//101
f 239//239 101//101 103//103
f 291//291 239//239 103//103
f 291//291 249//249 245//245
f 291//291 269//269 267//267
f 4//4 2//2 1//1
f 6//6 4//4 3//3
f 685//685 788//788 799//799
f 673//673 776//776 788//788
f 740//740 752//752 673//673
f 764//764 673//673 752//752
f 673//673 764//764 776//776
f 673//673 730//730 740//740
f 705//705 810//810 709//709
f 799//799 810//810 701//701
f 809//809 709//709 810//810
f 799//799 697//697 693//693
f 810//810 705//705 701//701
f 799//799 701//701 697//697
f 689//689 799//799 693//693
f 673//673 719//719 730//730
f 527//527 533//533 477//477
f 523//523 527//527 477//477
f 533//533 476//476 477//477
f 476//476 533//533 485//485
f 477//477 517//517 523//523
f 493//493 485//485 533//533
f 799//799 689//689 685//685
f 681//681 788//788 685//685
f 533//533 499//499 493//493
f 505//505 719//719 673//673
f 533//533 505//505 499//499
f 681//681 673//673 788//788
f 719//719 505//505 533//533
f 700//700 809//809 798//798
f 709//709 809//809 708//708
f 708//708 809//809 704//704
f 809//809 700//700 704//704
f 798//798 692//692 696//696
f 798//798 696//696 700//700
f 684//684 798//798 787//787
f 763//763 672//672 775//775
f 787//787 775//775 672//672
f 672//672 751//751 739//739
f 739//739 729//729 672//672
f 672//672 763//763 751//751
f 729//729 718//718 672//672
f 688//688 692//692 798//798
f 680//680 787//787 672//672
f 798//798 684//684 688//688
f 718//718 532//532 504//504
f 532//532 492//492 498//498
f 532//532 498//498 504//504
f 672//672 718//718 504//504
f 522//522 474//474 526//526
f 532//532 526//526 474//474
f 475//475 532//532 474//474
f 474//474 522//522 516//516
f 474//474 340//340 475//475
f 484//484 532//532 475//475
f 484//484 492//492 532//532
f 684//684 787//787 680//680
f 342//342 477//477 476//476
f 337//337 289//289 342//342
f 343//343 342//342 289//289
f 343//343 295//295 299//299
f 295//295 343//343 289//289
f 299//299 305//305 343//343
f 329//329 289//289 337//337
f 289//289 329//329 323//323
f 289//289 323//323 313//313
f 143//143 139//139 26//26
f 14//14 135//135 131//131
f 26//26 139//139 135//135
f 94//94 313//313 143//143
f 313//313 94//94 289//289
f 143//143 74//74 85//85
f 62//62 74//74 143//143
f 143//143 38//38 50//50
f 38//38 143//143 26//26
f 50//50 62//62 143//143
f 135//135 14//14 26//26
f 14//14 127//127 123//123
f 14//14 123//123 119//119
f 115//115 2//2 119//119
f 14//14 119//119 2//2
f 1//1 2//2 107//107
f 115//115 107//107 2//2
f 127//127 14//14 131//131
f 94//94 143//143 85//85
f 288//288 312//312 322//322
f 288//288 322//322 328//328
f 13//13 130//130 134//134
f 142//142 312//312 93//93
f 25//25 138//138 142//142
f 93//93 312//312 288//288
f 341//341 340//340 288//288
f 341//341 475//475 340//340
f 336//336 341//341 288//288
f 294//294 340//340 298//298
f 298//298 340//340 304//304
f 288//288 340//340 294//294
f 288//288 328//328 336//336
f 25//25 134//134 138//138
f 13//13 118//118 122//122
f 13//13 122//122 126//126
f 114//114 1//1 106//106
f 107//107 106//106 1//1
f 114//114 118//118 1//1
f 13//13 1//1 118//118
f 134//134 25//25 13//13
f 142//142 93//93 84//84
f 142//142 84//84 73//73
f 142//142 61//61 49//49
f 142//142 73//73 61//61
f 142//142 49//49 37//37
f 142//142 37//37 25//25
f 126//126 130//130 13//13
f 342//342 343//343 477//477
f 687//687 808//808 797//797
f 679//679 797//797 786//786
f 750//750 679//679 762//762
f 774//774 762//762 679//679
f 679//679 786//786 774//774
f 679//679 750//750 738//738
f 707//707 715//715 819//819
f 808//808 703//703 819//819
f 818//818 819//819 715//715
f 808//808 695//695 699//699
f 819//819 703//703 707//707
f 808//808 699//699 703//703
f 691//691 695//695 808//808
f 679//679 738//738 728//728
f 529//529 483//483 535//535
f 525//525 483//483 529//529
f 535//535 483//483 482//482
f 482//482 487//487 535//535
f 483//483 525//525 519//519
f 495//495 535//535 487//487
f 808//808 687//687 691//691
f 683//683 687//687 797//797
f 535//535 495//495 501//501
f 511//511 679//679 728//728
f 535//535 501//501 511//511
f 683//683 797//797 679//679
f 728//728 535//535 511//511
f 702//702 807//807 818//818
f 715//715 714//714 818//818
f 714//714 706//706 818//818
f 818//818 706//706 702//702
f 807//807 698//698 694//694
f 807//807 702//702 698//698
f 686//686 796//796 807//807
f 773//773 785//785 678//678
f 796//796 678//678 785//785
f 678//678 749//749 761//761
f 749//749 678//678 737//737
f 678//678 761//761 773//773
f 737//737 678//678 727//727
f 690//690 807//807 694//694
f 682//682 678//678 796//796
f 807//807 690//690 686//686
f 727//727 510//510 534//534
f 534//534 500//500 494//494
f 534//534 510//510 500//500
f 678//678 510//510 727//727
f 524//524 528//528 480//480
f 534//534 480//480 528//528
f 481//481 480//480 534//534
f 480//480 518//518 524//524
f 480//480 481//481 346//346
f 486//486 481//481 534//534
f 486//486 534//534 494//494
f 686//686 682//682 796//796
f 348//348 482//482 483//483
f 339//339 348//348 291//291
f 349//349 291//291 348//348
f 349//349 301//301 297//297
f 297//297 291//291 349//349
f 301//301 349//349 307//307
f 331//331 339//339 291//291
f 291//291 325//325 331//331
f 291//291 319//319 325//325
f 149//149 36//36 141//141
f 24//24 133//133 137//137
f 36//36 137//137 141//141
f 103//103 149//149 319//319
f 319//319 291//291 103//103
f 149//149 92//92 83//83
f 72//72 149//149 83//83
f 149//149 60//60 48//48
f 48//48 36//36 149//149
f 60//60 149//149 72//72
f 137//137 36//36 24//24
f 24//24 125//125 129//129
f 24//24 121//121 125//125
f 117//117 121//121 12//12
f 24//24 12//12 121//121
f 11//11 113//113 12//12
f 117//117 12//12 113//113
f 129//129 133//133 24//24
f 103//103 92//92 149//149
f 290//290 324//324 318//318
f 290//290 330//330 324//324
f 23//23 136//136 132//132
f 148//148 102//102 318//318
f 35//35 148//148 140//140
f 102//102 290//290 318//318
f 347//347 290//290 346//346
f 347//347 346//346 481//481
f 338//338 290//290 347//347
f 296//296 300//300 346//346
f 300//300 306//306 346//346
f 290//290 296//296 346//346
f 290//290 338//338 330//330
f 35//35 140//140 136//136
f 23//23 124//124 120//120
f 23//23 128//128 124//124
f 116//116 112//112 11//11
f 113//113 11//11 112//112
f 116//116 11//11 120//120
f 23//23 120//120 11//11
f 136//136 23//23 35//35
f 148//148 91//91 102//102
f 148//148 82//82 91//91
f 148//148 59//59 71//71
f 148//148 71//71 82//82
f 148//148 47//47 59//59
f 148//148 35//35 47//47
f 128//128 23//23 132//132
f 348//348 483//483 349//349
f 296//296 290//290 288//288
f 306//306 300//300 298//298
f 346//346 306//306 304//304
f 300//300 296//296 294//294
f 95//95 84//84 93//93
f 75//75 73//73 84//84
f 61//61 73//73 75//75
f 84//84 87//87 75//75
f 95//95 87//87 84//84
f 37//37 49//49 51//51
f 25//25 37//37 39//39
f 13//13 25//25 27//27
f 51//51 63//63 65//65
f 1//1 13//13 15//15
f 63//63 51//51 49//49
f 63//63 75//75 76//76
f 75//75 87//87 76//76
f 96//96 87//87 95//95
f 39//39 51//51 53//53
f 15//15 27//27 29//29
f 3//3 15//15 17//17
f 41//41 29//29 27//27
f 518//518 480//480 474//474
f 528//528 524//524 522//522
f 534//534 528//528 526//526
f 524//524 518//518 516//516
f 720//720 732//732 722//722
f 741//741 743//743 732//732
f 755//755 743//743 741//741
f 720//720 741//741 732//732
f 729//729 741//741 720//720
f 779//779 767//767 765//765
f 790//790 779//779 777//777
f 802//802 790//790 789//789
f 765//765 753//753 751//751
f 812//812 802//802 800//800
f 753//753 765//765 767//767
f 753//753 741//741 739//739
f 741//741 729//729 739//739
f 718//718 729//729 720//720
f 777//777 765//765 763//763
f 800//800 789//789 787//787
f 811//811 800//800 798//798
f 775//775 787//787 789//789
f 801//801 803//803 813//813
f 801//801 791//791 803//803
f 780//780 791//791 778//778
f 801//801 778//778 791//791
f 778//778 801//801 788//788
f 778//778 766//766 768//768
f 801//801 813//813 810//810
f 756//756 768//768 766//766
f 744//744 756//756 754//754
f 723//723 733//733 731//731
f 733//733 744//744 742//742
f 766//766 778//778 776//776
f 801//801 799//799 788//788
f 810//810 799//799 801//801
f 754//754 766//766 764//764
f 731//731 742//742 740//740
f 721//721 731//731 730//730
f 752//752 740//740 742//742
f 529//529 535//535 533//533
f 519//519 525//525 523//523
f 483//483 519//519 517//517
f 525//525 529//529 527//527
f 307//307 349//349 343//343
f 297//297 301//301 299//299
f 291//291 297//297 295//295
f 301//301 307//307 305//305
f 101//101 92//92 103//103
f 81//81 83//83 92//92
f 72//72 83//83 81//81
f 101//101 81//81 92//92
f 90//90 81//81 101//101
f 48//48 60//60 58//58
f 36//36 48//48 46//46
f 24//24 36//36 34//34
f 58//58 70//70 68//68
f 12//12 24//24 22//22
f 70//70 58//58 60//60
f 70//70 81//81 79//79
f 81//81 90//90 79//79
f 99//99 90//90 101//101
f 46//46 58//58 56//56
f 22//22 34//34 32//32
f 10//10 22//22 20//20
f 44//44 32//32 34//34
f 711//711 705//705 709//709
f 697//697 701//701 711//711
f 705//705 711//711 701//701
f 693//693 697//697 711//711
f 675//675 689//689 693//693
f 675//675 685//685 689//689
f 675//675 673//673 681//681
f 685//685 675//675 681//681
f 711//711 675//675 693//693
f 513//513 677//677 679//679
f 511//511 509//509 513//513
f 679//679 511//511 513//513
f 495//495 497//497 501//501
f 511//511 501//501 509//509
f 497//497 509//509 501//501
f 495//495 491//491 497//497
f 487//487 479//479 489//489
f 489//489 495//495 487//487
f 479//479 487//487 482//482
f 491//491 495//495 489//489
f 482//482 458//458 479//479
f 482//482 440//440 458//458
f 420//420 438//438 482//482
f 440//440 482//482 438//438
f 348//348 402//402 420//420
f 348//348 384//384 402//402
f 348//348 382//382 384//384
f 348//348 345//345 366//366
f 382//382 348//348 366//366
f 339//339 335//335 345//345
f 345//345 348//348 339//339
f 335//335 339//339 331//331
f 331//331 332//332 335//335
f 331//331 325//325 327//327
f 319//319 317//317 325//325
f 327//327 325//325 317//317
f 332//332 331//331 327//327
f 311//311 317//317 319//319
f 149//149 147//147 311//311
f 319//319 149//149 311//311
f 145//145 139//139 143//143
f 131//131 135//135 145//145
f 139//139 145//145 135//135
f 127//127 131//131 145//145
f 109//109 123//123 127//127
f 109//109 119//119 123//123
f 109//109 107//107 115//115
f 119//119 109//109 115//115
f 145//145 109//109 127//127
f 109//109 108//108 106//106
f 108//108 114//114 106//106
f 122//122 118//118 108//108
f 114//114 108//108 118//118
f 126//126 122//122 108//108
f 144//144 130//130 126//126
f 144//144 134//134 130//130
f 144//144 142//142 138//138
f 134//134 144//144 138//138
f 108//108 144//144 126//126
f 144//144 236//236 142//142
f 312//312 236//236 240//240
f 240//240 250//250 312//312
f 312//312 250//250 272//272
f 142//142 236//236 312//312
f 148//148 237//237 146//146
f 237//237 148//148 318//318
f 318//318 273//273 251//251
f 241//241 237//237 318//318
f 251//251 241//241 318//318
f 312//312 286//286 292//292
f 312//312 292//292 302//302
f 315//315 312//312 308//308
f 302//302 308//308 312//312
f 312//312 272//272 286//286
f 318//318 303//303 293//293
f 318//318 293//293 287//287
f 318//318 316//316 309//309
f 303//303 318//318 309//309
f 273//273 318//318 287//287
f 312//312 318//318 324//324
f 322//322 324//324 330//330
f 336//336 338//338 347//347
f 338//338 336//336 328//328
f 347//347 481//481 475//475
f 475//475 481//481 486//486
f 494//494 492//492 484//484
f 492//492 494//494 500//500
f 510//510 504//504 498//498
f 507//507 514//514 504//504
f 520//520 504//504 514//514
f 504//504 520//520 530//530
f 504//504 530//530 536//536
f 536//536 550//550 504//504
f 510//510 515//515 508//508
f 521//521 515//515 510//510
f 510//510 537//537 531//531
f 510//510 531//531 521//521
f 551//551 537//537 510//510
f 504//504 550//550 572//572
f 582//582 504//504 572//572
f 674//674 672//672 586//586
f 504//504 582//582 586//586
f 504//504 586//586 672//672
f 583//583 510//510 587//587
f 510//510 573//573 551//551
f 678//678 676//676 587//587
f 587//587 510//510 678//678
f 573//573 510//510 583//583
f 674//674 680//680 672//672
f 688//688 684//684 674//674
f 680//680 674//674 684//684
f 692//692 688//688 674//674
f 710//710 696//696 692//692
f 710//710 700//700 696//696
f 710//710 708//708 704//704
f 700//700 710//710 704//704
f 674//674 710//710 692//692
f 710//710 711//711 709//709
f 373//373 374//374 357//357
f 410//410 411//411 393//393
f 392//392 393//393 374//374
f 448//448 449//449 429//429
f 539//539 466//466 538//538
f 466//466 449//449 448//448
f 428//428 429//429 411//411
f 284//284 357//357 285//285
f 466//466 539//539 449//449
f 816//816 814//814 815//815
f 818//818 816//816 817//817
f 10//10 8//8 7//7
f 12//12 10//10 9//9
f 100//100 89//89 98//98
f 80//80 78//78 89//89
f 67//67 78//78 80//80
f 100//100 80//80 89//89
f 91//91 80//80 100//100
f 43//43 55//55 57//57
f 31//31 43//43 45//45
f 19//19 31//31 33//33
f 57//57 69//69 71//71
f 7//7 19//19 21//21
f 69//69 57//57 55//55
f 69//69 80//80 82//82
f 80//80 91//91 82//82
f 102//102 91//91 100//100
f 45//45 57//57 59//59
f 21//21 33//33 35//35
f 9//9 21//21 23//23
f 47//47 35//35 33//33
f 726//726 737//737 727//727
f 747//747 749//749 737//737
f 761//761 749//749 747//747
f 726//726 747//747 737//737
f 734//734 747//747 726//726
f 785//785 773//773 771//771
f 796//796 785//785 783//783
f 807//807 796//796 794//794
f 771//771 759//759 757//757
f 818//818 807//807 806//806
f 759//759 771//771 773//773
f 759//759 747//747 745//745
f 747//747 734//734 745//745
f 724//724 734//734 726//726
f 783//783 771//771 769//769
f 806//806 794//794 792//792
f 816//816 806//806 804//804
f 781//781 792//792 794//794
f 817//817 808//808 819//819
f 795//795 797//797 808//808
f 786//786 797//797 795//795
f 817//817 795//795 808//808
f 805//805 795//795 817//817
f 762//762 774//774 772//772
f 750//750 762//762 760//760
f 736//736 728//728 738//738
f 738//738 750//750 748//748
f 784//784 772//772 774//774
f 784//784 795//795 793//793
f 795//795 805//805 793//793
f 815//815 805//805 817//817
f 772//772 784//784 782//782
f 770//770 758//758 760//760
f 748//748 760//760 758//758
f 736//736 748//748 746//746
f 736//736 735//735 725//725
f 728//728 736//736 725//725
f 86//86 88//88 97//97
f 86//86 77//77 88//88
f 66//66 77//77 64//64
f 86//86 64//64 77//77
f 74//74 64//64 86//86
f 64//64 52//52 54//54
f 86//86 97//97 94//94
f 42//42 54//54 52//52
f 30//30 42//42 40//40
f 6//6 18//18 16//16
f 18//18 30//30 28//28
f 52//52 64//64 62//62
f 86//86 85//85 74//74
f 94//94 85//85 86//86
f 64//64 74//74 62//62
f 40//40 52//52 50//50
f 16//16 28//28 26//26
f 4//4 16//16 14//14
f 38//38 26//26 28//28
f 707//707 713//713 715//715
f 713//713 707//707 703//703
f 713//713 703//703 699//699
f 699//699 695//695 713//713
f 691//691 677//677 695//695
f 713//713 695//695 677//677
f 687//687 677//677 691//691
f 677//677 687//687 683//683
f 677//677 683//683 679//679
f 512//512 673//673 675//675
f 506//506 505//505 512//512
f 673//673 512//512 505//505
f 506//506 499//499 505//505
f 506//506 496//496 499//499
f 493//493 496//496 490//490
f 493//493 499//499 496//496
f 488//488 485//485 493//493
f 488//488 478//478 485//485
f 476//476 485//485 478//478
f 490//490 488//488 493//493
f 478//478 457//457 476//476
f 439//439 476//476 457//457
f 476//476 439//439 437//437
f 476//476 437//437 419//419
f 476//476 419//419 401//401
f 383//383 342//342 401//401
f 381//381 342//342 383//383
f 342//342 381//381 365//365
f 342//342 365//365 344//344
f 344//344 337//337 342//342
f 344//344 334//334 337//337
f 329//329 337//337 334//334
f 333//333 329//329 334//334
f 314//314 313//313 323//323
f 329//329 333//333 326//326
f 314//314 323//323 326//326
f 323//323 329//329 326//326
f 310//310 313//313 314//314
f 145//145 143//143 310//310
f 313//313 310//310 143//143
f 141//141 147//147 149//149
f 147//147 141//141 137//137
f 147//147 137//137 133//133
f 133//133 129//129 147//147
f 125//125 111//111 129//129
f 147//147 129//129 111//111
f 121//121 111//111 125//125
f 111//111 121//121 117//117
f 111//111 117//117 113//113
f 113//113 112//112 110//110
f 116//116 110//110 112//112
f 110//110 116//116 120//120
f 110//110 120//120 124//124
f 124//124 128//128 110//110
f 132//132 146//146 128//128
f 110//110 128//128 146//146
f 136//136 146//146 132//132
f 146//146 136//136 140//140
f 146//146 140//140 148//148
f 682//682 676//676 678//678
f 676//676 682//682 686//686
f 676//676 686//686 690//690
f 690//690 694//694 676//676
f 698//698 712//712 694//694
f 676//676 694//694 712//712
f 702//702 712//712 698//698
f 712//712 702//702 706//706
f 712//712 706//706 714//714
f 714//714 715//715 713//713
f 368//368 352//352 351//351
f 387//387 368//368 367//367
f 405//405 387//387 386//386
f 423//423 405//405 404//404
f 443//443 423//423 422//422
f 461//461 443//443 442//442
f 369//369 353//353 352//352
f 388//388 369//369 368//368
f 406//406 388//388 387//387
f 424//424 406//406 405//405
f 444//444 424//424 423//423
f 462//462 444//444 443//443
f 370//370 354//354 353//353
f 389//389 370//370 369//369
f 407//407 389//389 388//388
f 425//425 407//407 406//406
f 445//445 425//425 424//424
f 463//463 445//445 444//444
f 371//371 355//355 354//354
f 390//390 371//371 370//370
f 408//408 390//390 389//389
f 426//426 408//408 407//407
f 446//446 426//426 425//425
f 464//464 446//446 445//445
f 372//372 356//356 355//355
f 391//391 372//372 371//371
f 409//409 391//391 390//390
f 427//427 409//409 408//408
f 447//447 427//427 426//426
f 465//465 447//447 446//446
f 314//314 238//238 310//310
f 314//314 326//326 244//244
f 326//326 333//333 244//244
f 334//334 244//244 333//333
f 381//381 350//350 365//365
f 344//344 365//365 350//350
f 244//244 334//334 344//344
f 244//244 238//238 314//314
f 351//351 244//244 350//350
f 344//344 350//350 244//244
f 352//352 248//248 351//351
f 244//244 351//351 248//248
f 254//254 248//248 352//352
f 385//385 367//367 350//350
f 386//386 385//385 403//403
f 385//385 381//381 383//383
f 401//401 403//403 385//385
f 367//367 385//385 386//386
f 350//350 381//381 385//385
f 383//383 401//401 385//385
f 367//367 351//351 350//350
f 419//419 403//403 401//401
f 488//488 490//490 578//578
f 439//439 441//441 421//421
f 441//441 439//439 457//457
f 478//478 459//459 457//457
f 506//506 512//512 584//584
f 496//496 506//506 578//578
f 578//578 506//506 584//584
f 496//496 578//578 490//490
f 578//578 478//478 488//488
f 421//421 403//403 419//419
f 441//441 442//442 422//422
f 421//421 422//422 404//404
f 442//442 441//441 459//459
f 460//460 459//459 578//578
f 459//459 441//441 457//457
f 478//478 578//578 459//459
f 574//574 461//461 460//460
f 568//568 461//461 574//574
f 578//578 574//574 460//460
f 421//421 419//419 437//437
f 353//353 260//260 254//254
f 355//355 270//270 268//268
f 354//354 268//268 266//266
f 354//354 266//266 260//260
f 354//354 260//260 353//353
f 276//276 274//274 355//355
f 268//268 354//354 355//355
f 356//356 276//276 355//355
f 270//270 355//355 274//274
f 280//280 278//278 356//356
f 356//356 284//284 282//282
f 356//356 282//282 280//280
f 284//284 356//356 373//373
f 391//391 392//392 373//373
f 409//409 410//410 392//392
f 276//276 356//356 278//278
f 463//463 462//462 562//562
f 548//548 546//546 464//464
f 465//465 464//464 546//546
f 554//554 464//464 463//463
f 464//464 552//552 548//548
f 462//462 568//568 562//562
f 463//463 556//556 554//554
f 464//464 554//554 552//552
f 556//556 463//463 562//562
f 462//462 461//461 568//568
f 447//447 448//448 428//428
f 410//410 409//409 427//427
f 448//448 447//447 465//465
f 542//542 465//465 544//544
f 465//465 546//546 544//544
f 540//540 465//465 542//542
f 538//538 466//466 540//540
f 465//465 540//540 466//466
f 353//353 254//254 352//352
f 376//376 359//359 358//358
f 395//395 376//376 375//375
f 413//413 395//395 394//394
f 431//431 413//413 412//412
f 451//451 431//431 430//430
f 468//468 451//451 450//450
f 377//377 360//360 359//359
f 396//396 377//377 376//376
f 414//414 396//396 395//395
f 432//432 414//414 413//413
f 452//452 432//432 431//431
f 469//469 452//452 451//451
f 378//378 361//361 360//360
f 397//397 378//378 377//377
f 415//415 397//397 396//396
f 433//433 415//415 414//414
f 453//453 433//433 432//432
f 470//470 453//453 452//452
f 379//379 362//362 361//361
f 398//398 379//379 378//378
f 416//416 398//398 397//397
f 434//434 416//416 415//415
f 454//454 434//434 433//433
f 471//471 454//454 453//453
f 380//380 363//363 362//362
f 399//399 380//380 379//379
f 417//417 399//399 398//398
f 435//435 417//417 416//416
f 455//455 435//435 434//434
f 472//472 455//455 454//454
f 283//283 285//285 357//357
f 281//281 283//283 358//358
f 358//358 283//283 357//357
f 279//279 281//281 358//358
f 393//393 394//394 375//375
f 358//358 357//357 374//374
f 394//394 393//393 411//411
f 279//279 358//358 277//277
f 359//359 269//269 271//271
f 361//361 255//255 261//261
f 360//360 261//261 267//267
f 360//360 267//267 269//269
f 359//359 275//275 277//277
f 271//271 275//275 359//359
f 360//360 269//269 359//359
f 360//360 361//361 261//261
f 358//358 359//359 277//277
f 429//429 430//430 412//412
f 449//449 450//450 430//430
f 467//467 539//539 541//541
f 543//543 467//467 541//541
f 539//539 467//467 449//449
f 545//545 467//467 543//543
f 547//547 467//467 545//545
f 549//549 468//468 547//547
f 469//469 468//468 555//555
f 547//547 468//468 467//467
f 470//470 469//469 563//563
f 468//468 549//549 553//553
f 468//468 553//553 555//555
f 469//469 557//557 563//563
f 470//470 563//563 569//569
f 557//557 469//469 555//555
f 471//471 470//470 569//569
f 255//255 361//361 362//362
f 363//363 249//249 362//362
f 255//255 362//362 249//249
f 245//245 363//363 364//364
f 249//249 363//363 245//245
f 335//335 245//245 345//345
f 345//345 245//245 364//364
f 400//400 380//380 399//399
f 417//417 418//418 400//400
f 364//364 380//380 400//400
f 364//364 382//382 366//366
f 418//418 402//402 400//400
f 364//364 363//363 380//380
f 327//327 245//245 332//332
f 311//311 239//239 317//317
f 245//245 327//327 317//317
f 364//364 366//366 345//345
f 332//332 245//245 335//335
f 400//400 384//384 382//382
f 400//400 402//402 384//384
f 400//400 382//382 364//364
f 245//245 317//317 239//239
f 455//455 456//456 436//436
f 418//418 417//417 435//435
f 440//440 436//436 456//456
f 436//436 438//438 420//420
f 472//472 473//473 456//456
f 569//569 575//575 471//471
f 472//472 471//471 575//575
f 579//579 473//473 472//472
f 479//479 473//473 579//579
f 575//575 579//579 472//472
f 473//473 479//479 458//458
f 440//440 456//456 458//458
f 436//436 440//440 438//438
f 497//497 579//579 509//509
f 491//491 579//579 497//497
f 585//585 513//513 509//509
f 509//509 579//579 585//585
f 491//491 489//489 579//579
f 479//479 579//579 489//489
f 420//420 402//402 418//418
f 725//725 677//677 585//585
f 513//513 585//585 677//677
f 725//725 735//735 713//713
f 713//713 814//814 712//712
f 713//713 735//735 746//746
f 746//746 758//758 713//713
f 677//677 725//725 713//713
f 782//782 815//815 770//770
f 758//758 770//770 815//815
f 815//815 793//793 805//805
f 782//782 793//793 815//815
f 758//758 815//815 713//713
f 815//815 814//814 713//713
f 607//607 587//587 676//676
f 676//676 712//712 724//724
f 676//676 655//655 607//607
f 676//676 717//717 669//669
f 676//676 669//669 655//655
f 717//717 676//676 724//724
f 781//781 814//814 792//792
f 792//792 814//814 804//804
f 814//814 781//781 769//769
f 757//757 745//745 712//712
f 814//814 769//769 757//757
f 745//745 734//734 712//712
f 734//734 724//724 712//712
f 757//757 712//712 814//814
f 56//56 68//68 8//8
f 44//44 56//56 8//8
f 68//68 111//111 8//8
f 8//8 20//20 32//32
f 8//8 32//32 44//44
f 7//7 8//8 111//111
f 147//147 239//239 311//311
f 99//99 239//239 147//147
f 111//111 79//79 90//90
f 111//111 99//99 147//147
f 111//111 68//68 79//79
f 90//90 99//99 111//111
f 7//7 111//111 110//110
f 7//7 43//43 31//31
f 7//7 55//55 43//43
f 110//110 67//67 7//7
f 110//110 78//78 67//67
f 7//7 67//67 55//55
f 89//89 78//78 110//110
f 146//146 98//98 110//110
f 89//89 110//110 98//98
f 105//105 98//98 146//146
f 146//146 153//153 105//105
f 146//146 237//237 169//169
f 146//146 169//169 153//153
f 7//7 31//31 19//19
f 660//660 642//642 648//648
f 617//617 638//638 634//634
f 638//638 606//606 642//642
f 606//606 617//617 604//604
f 617//617 606//606 638//638
f 662//662 638//638 642//642
f 602//602 580//580 604//604
f 576//576 602//602 600//600
f 580//580 602//602 576//576
f 640//640 611//611 615//615
f 636//636 615//615 617//617
f 615//615 602//602 604//604
f 611//611 600//600 602//602
f 598//598 576//576 600//600
f 570//570 598//598 596//596
f 576//576 598//598 570//570
f 651//651 613//613 646//646
f 646//646 609//609 611//611
f 609//609 598//598 600//600
f 613//613 596//596 598//598
f 590//590 566//566 570//570
f 592//592 564//564 566//566
f 594//594 560//560 564//564
f 607//607 606//606 587//587
f 583//583 587//587 606//606
f 607//607 655//655 648//648
f 648//648 655//655 666//666
f 606//606 648//648 642//642
f 573//573 583//583 580//580
f 551//551 573//573 576//576
f 583//583 604//604 580//580
f 551//551 576//576 570//570
f 576//576 573//573 580//580
f 570//570 537//537 551//551
f 606//606 604//604 583//583
f 717//717 666//666 669//669
f 671//671 660//660 717//717
f 666//666 717//717 660//660
f 660//660 671//671 662//662
f 665//665 636//636 634//634
f 665//665 640//640 636//636
f 671//671 665//665 662//662
f 665//665 634//634 662//662
f 651//651 646//646 659//659
f 640//640 665//665 659//659
f 640//640 659//659 646//646
f 638//638 662//662 634//634
f 566//566 531//531 537//537
f 564//564 531//531 566//566
f 613//613 590//590 596//596
f 564//564 521//521 531//531
f 537//537 570//570 566//566
f 515//515 521//521 560//560
f 503//503 515//515 558//558
f 558//558 560//560 588//588
f 558//558 515//515 560//560
f 629//629 594//594 592//592
f 521//521 564//564 560//560
f 645//645 592//592 590//590
f 590//590 653//653 645//645
f 645//645 633//633 592//592
f 613//613 653//653 590//590
f 651//651 657//657 613//613
f 653//653 613//613 657//657
f 659//659 657//657 651//651
f 618//618 588//588 623//623
f 594//594 625//625 623//623
f 629//629 592//592 631//631
f 625//625 594//594 627//627
f 629//629 627//627 594//594
f 592//592 633//633 631//631
f 588//588 594//594 623//623
f 180//180 162//162 174//174
f 188//188 154//154 184//184
f 184//184 160//160 180//180
f 184//184 207//207 188//188
f 207//207 218//218 220//220
f 218//218 184//184 180//180
f 184//184 218//218 207//207
f 224//224 213//213 222//222
f 222//222 209//209 220//220
f 209//209 186//186 207//207
f 213//213 182//182 209//209
f 222//222 246//246 224//224
f 242//242 222//222 220//220
f 246//246 222//222 242//242
f 228//228 211//211 226//226
f 226//226 215//215 224//224
f 215//215 176//176 213//213
f 211//211 173//173 176//176
f 226//226 252//252 228//228
f 246//246 226//226 224//224
f 252//252 226//226 246//246
f 256//256 234//234 252//252
f 258//258 232//232 256//256
f 262//262 230//230 258//258
f 153//153 156//156 105//105
f 162//162 105//105 156//156
f 156//156 153//153 169//169
f 218//218 174//174 169//169
f 162//162 151//151 105//105
f 160//160 154//154 151//151
f 159//159 151//151 154//154
f 154//154 188//188 159//159
f 165//165 159//159 182//182
f 151//151 162//162 160//160
f 218//218 180//180 174//174
f 169//169 237//237 218//218
f 241//241 220//220 218//218
f 237//237 241//241 218//218
f 242//242 220//220 241//241
f 251//251 242//242 241//241
f 159//159 186//186 182//182
f 165//165 182//182 176//176
f 273//273 246//246 251//251
f 251//251 246//246 242//242
f 273//273 252//252 246//246
f 173//173 165//165 176//176
f 186//186 159//159 188//188
f 173//173 167//167 165//165
f 171//171 211//211 234//234
f 211//211 171//171 167//167
f 228//228 234//234 211//211
f 171//171 234//234 179//179
f 179//179 232//232 191//191
f 173//173 211//211 167//167
f 195//195 193//193 232//232
f 193//193 191//191 232//232
f 201//201 199//199 230//230
f 199//199 197//197 230//230
f 197//197 195//195 230//230
f 204//204 201//201 230//230
f 179//179 234//234 232//232
f 293//293 256//256 287//287
f 252//252 287//287 256//256
f 256//256 293//293 258//258
f 273//273 287//287 252//252
f 264//264 230//230 262//262
f 303//303 262//262 258//258
f 309//309 262//262 303//303
f 309//309 321//321 264//264
f 309//309 264//264 262//262
f 264//264 204//204 230//230
f 293//293 303//303 258//258
f 230//230 195//195 232//232
f 264//264 265//265 235//235
f 321//321 320//320 265//265
f 204//204 235//235 205//205
f 558//558 559//559 502//502
f 559//559 558//558 588//588
f 559//559 588//588 619//619
f 619//619 588//588 618//618
f 591//591 565//565 593//593
f 589//589 567//567 591//591
f 595//595 571//571 589//589
f 597//597 571//571 595//595
f 577//577 597//597 599//599
f 571//571 597//597 577//577
f 641//641 610//610 647//647
f 647//647 608//608 612//612
f 608//608 597//597 612//612
f 610//610 599//599 608//608
f 601//601 577//577 599//599
f 581//581 601//601 603//603
f 577//577 601//601 581//581
f 635//635 616//616 637//637
f 637//637 614//614 641//641
f 614//614 601//601 610//610
f 616//616 603//603 614//614
f 639//639 616//616 635//635
f 616//616 605//605 603//603
f 605//605 639//639 643//643
f 639//639 605//605 616//616
f 661//661 643//643 663//663
f 667//667 649//649 661//661
f 514//514 502//502 559//559
f 520//520 514//514 561//561
f 593//593 561//561 559//559
f 514//514 559//559 561//561
f 619//619 593//593 559//559
f 565//565 520//520 561//561
f 530//530 565//565 567//567
f 520//520 565//565 530//530
f 536//536 530//530 567//567
f 536//536 567//567 571//571
f 571//571 550//550 536//536
f 628//628 591//591 593//593
f 622//622 593//593 619//619
f 624//624 593//593 622//622
f 628//628 593//593 626//626
f 630//630 591//591 628//628
f 624//624 626//626 593//593
f 612//612 595//595 589//589
f 652//652 612//612 589//589
f 644//644 591//591 632//632
f 612//612 652//652 656//656
f 652//652 589//589 644//644
f 656//656 650//650 612//612
f 591//591 630//630 632//632
f 644//644 589//589 591//591
f 550//550 571//571 577//577
f 572//572 550//550 577//577
f 658//658 641//641 647//647
f 664//664 637//637 641//641
f 658//658 647//647 650//650
f 581//581 582//582 572//572
f 603//603 582//582 581//581
f 603//603 605//605 582//582
f 586//586 582//582 605//605
f 654//654 586//586 605//605
f 572//572 577//577 581//581
f 664//664 641//641 658//658
f 635//635 637//637 664//664
f 639//639 635//635 663//663
f 670//670 663//663 664//664
f 635//635 664//664 663//663
f 663//663 670//670 661//661
f 605//605 643//643 649//649
f 605//605 649//649 654//654
f 654//654 649//649 667//667
f 716//716 667//667 661//661
f 667//667 716//716 668//668
f 670//670 716//716 661//661
f 656//656 658//658 650//650
f 259//259 231//231 229//229
f 257//257 233//233 231//231
f 253//253 227//227 233//233
f 223//223 212//212 214//214
f 225//225 214//214 210//210
f 214//214 177//177 210//210
f 212//212 183//183 177//177
f 225//225 247//247 223//223
f 253//253 225//225 227//227
f 247//247 225//225 253//253
f 219//219 206//206 208//208
f 221//221 208//208 212//212
f 208//208 187//187 183//183
f 206//206 189//189 187//187
f 221//221 243//243 219//219
f 247//247 221//221 223//223
f 243//243 221//221 247//247
f 181//181 163//163 161//161
f 185//185 161//161 155//155
f 206//206 185//185 189//189
f 185//185 217//217 181//181
f 217//217 206//206 219//219
f 206//206 217//217 185//185
f 175//175 157//157 163//163
f 196//196 198//198 229//229
f 198//198 200//200 229//229
f 235//235 200//200 205//205
f 200//200 235//235 229//229
f 194//194 196//196 229//229
f 166//166 170//170 210//210
f 164//164 166//166 172//172
f 172//172 166//166 210//210
f 190//190 192//192 231//231
f 231//231 178//178 190//190
f 178//178 233//233 170//170
f 231//231 192//192 194//194
f 233//233 210//210 170//170
f 229//229 235//235 263//263
f 259//259 263//263 302//302
f 308//308 263//263 265//265
f 320//320 308//308 265//265
f 302//302 263//263 308//308
f 178//178 231//231 233//233
f 210//210 233//233 227//227
f 302//302 292//292 259//259
f 257//257 259//259 292//292
f 292//292 286//286 257//257
f 257//257 286//286 253//253
f 231//231 194//194 229//229
f 158//158 164//164 183//183
f 150//150 158//158 155//155
f 158//158 187//187 189//189
f 164//164 177//177 183//183
f 158//158 183//183 187//187
f 189//189 155//155 158//158
f 172//172 177//177 164//164
f 150//150 161//161 163//163
f 104//104 150//150 163//163
f 104//104 157//157 152//152
f 157//157 104//104 163//163
f 152//152 157//157 168//168
f 150//150 155//155 161//161
f 272//272 247//247 253//253
f 272//272 250//250 247//247
f 243//243 247//247 250//250
f 240//240 243//243 250//250
f 243//243 240//240 219//219
f 286//286 272//272 253//253
f 217//217 175//175 181//181
f 216//216 168//168 175//175
f 236//236 217//217 240//240
f 217//217 219//219 240//240
f 217//217 236//236 216//216
f 216//216 175//175 217//217
f 108//108 87//87 96//96
f 108//108 76//76 87//87
f 5//5 29//29 41//41
f 41//41 53//53 5//5
f 65//65 5//5 53//53
f 108//108 65//65 76//76
f 144//144 104//104 152//152
f 144//144 152//152 168//168
f 168//168 216//216 144//144
f 96//96 144//144 108//108
f 144//144 216//216 236//236
f 96//96 104//104 144//144
f 5//5 17//17 29//29
f 5//5 109//109 6//6
f 18//18 6//6 30//30
f 6//6 54//54 42//42
f 54//54 6//6 66//66
f 42//42 30//30 6//6
f 66//66 6//6 109//109
f 108//108 109//109 5//5
f 77//77 66//66 109//109
f 109//109 145//145 97//97
f 88//88 77//77 109//109
f 145//145 310//310 238//238
f 97//97 145//145 238//238
f 88//88 109//109 97//97
f 65//65 108//108 5//5
f 674//674 586//586 654//654
f 674//674 654//654 668//668
f 722//722 710//710 674//674
f 674//674 716//716 722//722
f 722//722 732//732 710//710
f 668//668 716//716 674//674
f 743//743 755//755 710//710
f 710//710 732//732 743//743
f 779//779 790//790 812//812
f 790//790 802//802 812//812
f 812//812 755//755 767//767
f 767//767 779//779 812//812
f 710//710 755//755 812//812
f 733//733 711//711 744//744
f 675//675 711//711 723//723
f 756//756 744//744 711//711
f 675//675 723//723 584//584
f 723//723 711//711 733//733
f 710//710 812//812 711//711
f 803//803 791//791 813//813
f 711//711 812//812 813//813
f 768//768 813//813 780//780
f 780//780 813//813 791//791
f 756//756 813//813 768//768
f 813//813 756//756 711//711
f 675//675 584//584 512//512
f 290//290 203//203 202//202
f 346//346 474//474 480//480
f 483//483 343//343 349//349
f 4//4 1//1 3//3
f 6//6 3//3 5//5
f 296//296 288//288 294//294
f 306//306 298//298 304//304
f 346//346 304//304 340//340
f 300//300 294//294 298//298
f 61//61 75//75 63//63
f 37//37 51//51 39//39
f 25//25 39//39 27//27
f 13//13 27//27 15//15
f 51//51 65//65 53//53
f 1//1 15//15 3//3
f 63//63 49//49 61//61
f 63//63 76//76 65//65
f 39//39 53//53 41//41
f 15//15 29//29 17//17
f 3//3 17//17 5//5
f 41//41 27//27 39//39
f 518//518 474//474 516//516
f 528//528 522//522 526//526
f 534//534 526//526 532//532
f 524//524 516//516 522//522
f 755//755 741//741 753//753
f 779//779 765//765 777//777
f 790//790 777//777 789//789
f 802//802 789//789 800//800
f 765//765 751//751 763//763
f 812//812 800//800 811//811
f 753//753 767//767 755//755
f 753//753 739//739 751//751
f 777//777 763//763 775//775
f 800//800 787//787 798//798
f 811//811 798//798 809//809
f 775//775 789//789 777//777
f 778//778 788//788 776//776
f 778//778 768//768 780//780
f 756//756 766//766 754//754
f 744//744 754//754 742//742
f 723//723 731//731 721//721
f 733//733 742//742 731//731
f 766//766 776//776 764//764
f 754//754 764//764 752//752
f 731//731 740//740 730//730
f 721//721 730//730 719//719
f 752//752 742//742 754//754
f 529//529 533//533 527//527
f 519//519 523//523 517//517
f 483//483 517//517 477//477
f 525//525 527//527 523//523
f 307//307 343//343 305//305
f 297//297 299//299 295//295
f 291//291 295//295 289//289
f 301//301 305//305 299//299
f 72//72 81//81 70//70
f 48//48 58//58 46//46
f 36//36 46//46 34//34
f 24//24 34//34 22//22
f 58//58 68//68 56//56
f 12//12 22//22 10//10
f 70//70 60//60 72//72
f 70//70 79//79 68//68
f 46//46 56//56 44//44
f 22//22 32//32 20//20
f 10//10 20//20 8//8
f 44//44 34//34 46//46
f 348//348 420//420 482//482
f 109//109 106//106 107//107
f 312//312 324//324 322//322
f 322//322 330//330 328//328
f 336//336 347//347 341//341
f 338//338 328//328 330//330
f 347//347 475//475 341//341
f 475//475 486//486 484//484
f 494//494 484//484 486//486
f 492//492 500//500 498//498
f 510//510 498//498 500//500
f 710//710 709//709 708//708
f 373//373 357//357 284//284
f 410//410 393//393 392//392
f 392//392 374//374 373//373
f 448//448 429//429 428//428
f 428//428 411//411 410//410
f 816//816 815//815 817//817
f 818//818 817//817 819//819
f 10//10 7//7 9//9
f 12//12 9//9 11//11
f 67//67 80//80 69//69
f 43//43 57//57 45//45
f 31//31 45//45 33//33
f 19//19 33//33 21//21
f 57//57 71//71 59//59
f 7//7 21//21 9//9
f 69//69 55//55 67//67
f 69//69 82//82 71//71
f 45//45 59//59 47//47
f 21//21 35//35 23//23
f 9//9 23//23 11//11
f 47//47 33//33 45//45
f 761//761 747//747 759//759
f 785//785 771//771 783//783
f 796//796 783//783 794//794
f 807//807 794//794 806//806
f 771//771 757//757 769//769
f 818//818 806//806 816//816
f 759//759 773//773 761//761
f 759//759 745//745 757//757
f 783//783 769//769 781//781
f 806//806 792//792 804//804
f 816//816 804//804 814//814
f 781//781 794//794 783//783
f 786//786 795//795 784//784
f 762//762 772//772 760//760
f 750//750 760//760 748//748
f 738//738 748//748 736//736
f 784//784 774//774 786//786
f 784//784 793//793 782//782
f 772//772 782//782 770//770
f 770//770 760//760 772//772
f 748//748 758//758 746//746
f 736//736 746//746 735//735
f 64//64 54//54 66//66
f 42//42 52//52 40//40
f 30//30 40//40 28//28
f 6//6 16//16 4//4
f 18//18 28//28 16//16
f 52//52 62//62 50//50
f 40//40 50//50 38//38
f 16//16 26//26 14//14
f 4//4 14//14 2//2
f 38//38 28//28 40//40
f 476//476 401//401 342//342
f 113//113 110//110 111//111
f 714//714 713//713 712//712
f 368//368 351//351 367//367
f 387//387 367//367 386//386
f 405//405 386//386 404//404
f 423//423 404//404 422//422
f 443//443 422//422 442//442
f 461//461 442//442 460//460
f 369//369 352//352 368//368
f 388//388 368//368 387//387
f 406//406 387//387 405//405
f 424//424 405//405 423//423
f 444//444 423//423 443//443
f 462//462 443//443 461//461
f 370//370 353//353 369//369
f 389//389 369//369 388//388
f 407//407 388//388 406//406
f 425//425 406//406 424//424
f 445//445 424//424 444//444
f 463//463 444//444 462//462
f 371//371 354//354 370//370
f 390//390 370//370 389//389
f 408//408 389//389 407//407
f 426//426 407//407 425//425
f 446//446 425//425 445//445
f 464//464 445//445 463//463
f 372//372 355//355 371//371
f 391//391 371//371 390//390
f 409//409 390//390 408//408
f 427//427 408//408 426//426
f 447//447 426//426 446//446
f 465//465 446//446 464//464
f 386//386 403//403 404//404
f 439//439 421//421 437//437
f 441//441 422//422 421//421
f 421//421 404//404 403//403
f 442//442 459//459 460//460
f 356//356 372//372 373//373
f 391//391 373//373 372//372
f 409//409 392//392 391//391
f 447//447 428//428 427//427
f 410//410 427//427 428//428
f 448//448 465//465 466//466
f 376//376 358//358 375//375
f 395//395 375//375 394//394
f 413//413 394//394 412//412
f 431//431 412//412 430//430
f 451//451 430//430 450//450
f 468//468 450//450 467//467
f 377//377 359//359 376//376
f 396//396 376//376 395//395
f 414//414 395//395 413//413
f 432//432 413//413 431//431
f 452//452 431//431 451//451
f 469//469 451//451 468//468
f 378//378 360//360 377//377
f 397//397 377//377 396//396
f 415//415 396//396 414//414
f 433//433 414//414 432//432
f 453//453 432//432 452//452
f 470//470 452//452 469//469
f 379//379 361//361 378//378
f 398//398 378//378 397//397
f 416//416 397//397 415//415
f 434//434 415//415 433//433
f 454//454 433//433 453//453
f 471//471 453//453 470//470
f 380//380 362//362 379//379
f 399//399 379//379 398//398
f 417//417 398//398 416//416
f 435//435 416//416 434//434
f 455//455 434//434 454//454
f 472//472 454//454 471//471
f 393//393 375//375 374//374
f 358//358 374//374 375//375
f 394//394 411//411 412//412
f 429//429 412//412 411//411
f 449//449 430//430 429//429
f 467//467 450//450 449//449
f 417//417 400//400 399//399
f 455//455 436//436 435//435
f 418//418 435//435 436//436
f 436//436 420//420 418//418
f 472//472 456//456 455//455
f 473//473 458//458 456//456
f 660//660 648//648 666//666
f 662//662 642//642 660//660
f 640//640 615//615 636//636
f 636//636 617//617 634//634
f 615//615 604//604 617//617
f 611//611 602//602 615//615
f 613//613 609//609 646//646
f 646//646 611//611 640//640
f 609//609 600//600 611//611
f 613//613 598//598 609//609
f 590//590 570//570 596//596
f 592//592 566//566 590//590
f 594//594 564//564 592//592
f 607//607 648//648 606//606
f 655//655 669//669 666//666
f 560//560 594//594 588//588
f 162//162 156//156 174//174
f 154//154 160//160 184//184
f 160//160 162//162 180//180
f 213//213 209//209 222//222
f 209//209 207//207 220//220
f 186//186 188//188 207//207
f 182//182 186//186 209//209
f 211//211 215//215 226//226
f 215//215 213//213 224//224
f 176//176 182//182 213//213
f 211//211 176//176 215//215
f 234//234 228//228 252//252
f 232//232 234//234 256//256
f 230//230 232//232 258//258
f 156//156 169//169 174//174
f 264//264 235//235 204//204
f 321//321 265//265 264//264
f 558//558 502//502 503//503
f 565//565 561//561 593//593
f 567//567 565//565 591//591
f 571//571 567//567 589//589
f 610//610 608//608 647//647
f 647//647 612//612 650//650
f 597//597 595//595 612//612
f 599//599 597//597 608//608
f 616//616 614//614 637//637
f 614//614 610//610 641//641
f 601//601 599//599 610//610
f 603//603 601//601 614//614
f 643//643 639//639 663//663
f 649//649 643//643 661//661
f 654//654 667//667 668//668
f 259//259 229//229 263//263
f 257//257 231//231 259//259
f 253//253 233//233 257//257
f 223//223 214//214 225//225
f 225//225 210//210 227//227
f 177//177 172//172 210//210
f 212//212 177//177 214//214
f 219//219 208//208 221//221
f 221//221 212//212 223//223
f 208//208 183//183 212//212
f 206//206 187//187 208//208
f 181//181 161//161 185//185
f 185//185 155//155 189//189
f 175//175 163//163 181//181
f 235//235 265//265 263//263
f 157//157 175//175 168//168