# PHANTOM Module: P12L
# Units: meters
o P12L

v 5.200000 1.199999 2.000775
v 5.200000 1.199999 0.835589
v 5.200000 0.800000 2.000775
v 5.200000 0.800000 0.835589
v 5.200000 0.400000 2.000775
v 5.200000 0.400000 0.835589
v 5.200000 0.000000 2.000775
v 5.200000 0.000000 0.835589
v 5.198452 1.199999 2.028975
v 5.198452 1.199999 0.807389
v 5.198452 0.800000 2.028975
v 5.198452 0.800000 0.807389
v 5.198452 0.400000 2.028975
v 5.198452 0.400000 0.807389
v 5.198452 0.000000 2.028975
v 5.198452 0.000000 0.807389
v 5.193690 1.199999 2.057403
v 5.193690 1.199999 0.778961
v 5.193690 0.800000 2.057403
v 5.193690 0.800000 0.778961
v 5.193690 0.400000 2.057403
v 5.193690 0.400000 0.778961
v 5.193690 0.000000 2.057403
v 5.193690 0.000000 0.778961
v 5.185636 1.199999 2.085405
v 5.185636 1.199999 0.750959
v 5.185636 0.800000 2.085405
v 5.185636 0.800000 0.750959
v 5.185636 0.400000 2.085405
v 5.185636 0.400000 0.750959
v 5.185636 0.000000 2.085405
v 5.185636 0.000000 0.750959
v 5.174363 1.199999 2.112305
v 5.174363 1.199999 0.724059
v 5.174363 0.800000 2.112305
v 5.174363 0.800000 0.724059
v 5.174363 0.400000 2.112305
v 5.174363 0.400000 0.724059
v 5.174363 0.000000 2.112305
v 5.174363 0.000000 0.724059
v 5.160099 1.199999 2.137458
v 5.160099 1.199999 0.698905
v 5.160099 0.800000 2.137458
v 5.160099 0.800000 0.698905
v 5.160099 0.400000 2.137458
v 5.160099 0.400000 0.698905
v 5.160099 0.000000 2.137458
v 5.160099 0.000000 0.698905
v 5.143209 1.199999 2.160302
v 5.143209 1.199999 0.676062
v 5.143209 0.800000 2.160302
v 5.143209 0.800000 0.676062
v 5.143209 0.400000 2.160302
v 5.143209 0.400000 0.676062
v 5.143209 0.000000 2.160302
v 5.143209 0.000000 0.676062
v 5.124168 1.199999 2.180394
v 5.124168 1.199999 0.655970
v 5.124168 0.800000 2.180394
v 5.124168 0.800000 0.655970
v 5.124168 0.400000 2.180394
v 5.124168 0.400000 0.655970
v 5.124168 0.000000 2.180394
v 5.124168 0.000000 0.655970
v 5.103518 1.199999 2.197441
v 5.103518 1.199999 0.638922
v 5.103518 0.800000 2.197441
v 5.103518 0.800000 0.638922
v 5.103518 0.400000 2.197441
v 5.103518 0.400000 0.638922
v 5.103518 0.000000 2.197441
v 5.103518 0.000000 0.638922
v 5.000000 1.199999 2.000775
v 5.000000 1.199999 0.835589
v 5.000000 0.000000 2.000775
v 5.000000 0.000000 0.835589
v 4.999881 1.199999 2.002944
v 4.999881 1.199999 0.833420
v 4.999881 0.000000 2.002944
v 4.999881 0.000000 0.833420
v 4.999515 1.199999 2.005131
v 4.999515 1.199999 0.831233
v 4.999515 0.000000 2.005131
v 4.999515 0.000000 0.831233
v 4.998895 1.199999 2.007285
v 4.998895 1.199999 0.829079
v 4.998895 0.000000 2.007285
v 4.998895 0.000000 0.829079
v 4.998028 1.199999 2.009354
v 4.998028 1.199999 0.827010
v 4.998028 0.000000 2.009354
v 4.998028 0.000000 0.827010
v 4.996931 1.199999 2.011289
v 4.996931 1.199999 0.825075
v 4.996931 0.000000 2.011289
v 4.996931 0.000000 0.825075
v 4.995632 1.199999 2.013046
v 4.995632 1.199999 0.823318
v 4.995632 0.000000 2.013046
v 4.995632 0.000000 0.823318
v 4.994167 1.199999 2.014592
v 4.994167 1.199999 0.821772
v 4.994167 0.000000 2.014592
v 4.994167 0.000000 0.821772
v 4.992579 1.199999 2.015903
v 4.992579 1.199999 0.820461
v 4.992579 0.000000 2.015903
v 4.992579 0.000000 0.820461
v 4.279583 1.199999 2.796666
v 4.279583 1.199999 0.039697
v 4.279583 0.000000 2.796666
v 4.279583 0.000000 0.039697
v 4.252038 1.199999 2.813669
v 4.252038 1.199999 0.022695
v 4.252038 0.000000 2.813669
v 4.252038 0.000000 0.022695
v 4.222185 1.199999 2.826222
v 4.222185 1.199999 0.010142
v 4.222185 0.000000 2.826222
v 4.222185 0.000000 0.010142
v 4.190963 1.199999 2.833842
v 4.190963 1.199999 0.002522
v 4.190963 0.000000 2.833842
v 4.190963 0.000000 0.002522
v 4.168643 1.199999 2.615128
v 4.168643 1.199999 0.221235
v 4.168643 0.000000 2.615128
v 4.168643 0.000000 0.221235
v 4.166525 1.199999 2.616436
v 4.166525 1.199999 0.219928
v 4.166525 0.000000 2.616436
v 4.166525 0.000000 0.219928
v 4.164228 1.199999 2.617402
v 4.164228 1.199999 0.218962
v 4.164228 0.000000 2.617402
v 4.164228 0.000000 0.218962
v 4.161827 1.199999 2.617988
v 4.161827 1.199999 0.218376
v 4.161827 0.000000 2.617988
v 4.161827 0.000000 0.218376
v 4.159399 1.199999 2.836364
v 4.159399 1.199999 2.618182
v 4.159399 1.199999 0.218182
v 4.159399 1.199999 0.000000
v 4.159399 0.000000 2.836364
v 4.159399 0.000000 2.618182
v 4.159399 0.000000 0.218182
v 4.159399 0.000000 0.000000
v 1.040602 1.199999 2.836364
v 1.040602 1.199999 2.618182
v 1.040602 1.199999 0.218182
v 1.040602 1.199999 0.000000
v 1.040602 1.140378 0.218182
v 1.040602 1.134061 0.192862
v 1.040602 1.124009 0.171693
v 1.040602 1.109937 0.152796
v 1.040602 1.092615 0.137446
v 1.040602 1.073211 0.126480
v 1.040602 1.053047 0.120155
v 1.040602 1.033334 0.118182
v 1.040602 0.166667 0.118182
v 1.040602 0.146955 0.120155
v 1.040602 0.126791 0.126480
v 1.040602 0.107386 0.137446
v 1.040602 0.090064 0.152796
v 1.040602 0.075993 0.171693
v 1.040602 0.065940 0.192862
v 1.040602 0.060143 0.214859
v 1.040602 0.059624 0.218182
v 1.040602 0.000000 2.836364
v 1.040602 0.000000 2.618182
v 1.040602 0.000000 0.218182
v 1.040602 0.000000 0.000000
v 1.039305 1.140403 0.218361
v 1.039234 0.059621 0.218199
v 1.038678 1.140428 0.218539
v 1.038592 0.059600 0.218354
v 1.038174 1.199999 2.617988
v 1.038174 1.199999 0.218376
v 1.038174 0.000000 2.617988
v 1.038174 0.000000 0.218376
v 1.038073 1.140463 0.218806
v 1.037984 0.059564 0.218627
v 1.037496 1.140513 0.219186
v 1.037414 0.059510 0.219035
v 1.036950 1.140580 0.219702
v 1.036886 0.059437 0.219596
v 1.036407 0.059343 0.220323
v 1.035979 1.140776 0.221235
v 1.035979 0.059225 0.221235
v 1.035771 1.199999 2.617402
v 1.035771 1.199999 0.218962
v 1.035771 0.000000 2.617402
v 1.035771 0.000000 0.218962
v 1.033475 1.199999 2.616436
v 1.033475 1.199999 0.219928
v 1.033475 0.000000 2.616436
v 1.033475 0.000000 0.219928
v 1.031497 1.033285 2.615222
v 1.031465 0.166703 2.615200
v 1.031357 1.199999 2.615128
v 1.031357 1.199999 0.221235
v 1.031357 1.033333 2.615128
v 1.031357 0.166667 2.615128
v 1.031357 0.000000 2.615128
v 1.031357 0.000000 0.221235
v 1.021541 1.141445 0.228795
v 1.021541 0.058557 0.228795
v 1.010555 1.141667 0.236364
v 1.010555 0.058334 0.236364
v 1.009674 1.049054 2.599360
v 1.009674 0.150946 2.599360
v 1.009037 1.199999 2.833842
v 1.009037 1.199999 0.002522
v 1.009037 0.000000 2.833842
v 1.009037 0.000000 0.002522
v 0.985434 1.063257 2.581730
v 0.985434 0.136743 2.581730
v 0.977815 1.199999 2.826222
v 0.977815 1.199999 0.010142
v 0.977815 0.000000 2.826222
v 0.977815 0.000000 0.010142
v 0.947962 1.199999 2.813669
v 0.947962 1.199999 0.022695
v 0.947962 0.000000 2.813669
v 0.947962 0.000000 0.022695
v 0.930465 1.087390 2.541753
v 0.930465 0.112609 2.541753
v 0.920416 1.199999 2.796666
v 0.920416 1.199999 0.039697
v 0.920416 0.000000 2.796666
v 0.920416 0.000000 0.039697
v 0.868832 1.106287 2.496928
v 0.868832 0.093712 2.496928
v 0.845301 1.141667 0.236364
v 0.845301 1.139859 0.214859
v 0.845301 1.134061 0.192862
v 0.845301 1.124009 0.171693
v 0.845301 1.109937 0.152796
v 0.845301 1.092615 0.137446
v 0.845301 1.073211 0.126480
v 0.845301 1.033334 0.118182
v 0.845301 0.146955 0.120155
v 0.845301 0.126791 0.126480
v 0.845301 0.107386 0.137446
v 0.845301 0.090064 0.152796
v 0.845301 0.075993 0.171693
v 0.845301 0.060143 0.214859
v 0.812500 1.033334 0.118182
v 0.812500 0.166667 0.118182
v 0.812149 1.041388 0.118437
v 0.812149 0.158613 0.118437
v 0.811121 1.049055 0.119184
v 0.811121 0.150947 0.119184
v 0.809454 1.056342 0.120397
v 0.809454 0.143660 0.120397
v 0.807183 1.063258 0.122048
v 0.807183 0.136743 0.122048
v 0.804348 1.069812 0.124110
v 0.804348 0.130189 0.124110
v 0.802913 1.120505 2.448987
v 0.802913 0.079496 2.448987
v 0.800984 1.076014 0.126557
v 0.800984 0.123988 0.126557
v 0.792822 1.087391 0.132493
v 0.792822 0.112610 0.132493
v 0.782992 1.097459 0.139642
v 0.782992 0.102542 0.139642
v 0.782808 0.166662 2.529468
v 0.782804 1.033340 2.529464
v 0.773517 0.147136 2.520700
v 0.773505 1.052869 2.520692
v 0.771794 1.106288 0.147786
v 0.771794 0.093713 0.147786
v 0.765553 0.127259 2.508533
v 0.765538 1.072748 2.508523
v 0.755612 0.108170 2.490284
v 0.755598 1.091837 2.490275
v 0.746483 1.120505 0.166194
v 0.746483 0.079496 0.166194
v 0.740074 0.091100 2.463594
v 0.740064 1.108905 2.463587
v 0.735090 1.130596 2.399662
v 0.735090 0.069405 2.399662
v 0.719267 1.130597 0.185988
v 0.719267 0.069405 0.185988
v 0.715727 0.077131 2.426976
v 0.715721 1.122873 2.426972
v 0.692528 1.137117 0.205435
v 0.692528 0.062884 0.205435
v 0.680445 0.066960 2.380171
v 0.680442 1.133042 2.380169
v 0.667745 1.137117 2.350683
v 0.667745 0.062884 2.350683
v 0.650000 1.141667 0.236364
v 0.650000 0.058334 0.236364
v 0.544004 1.141667 2.260690
v 0.544004 0.058334 2.260690
v 0.534142 0.166670 2.443719
v 0.532017 1.092114 2.422825
v 0.532007 0.107885 2.422818
v 0.531333 1.072916 2.433328
v 0.531324 0.127085 2.433321
v 0.531147 1.052933 2.439547
v 0.531140 0.147067 2.439543
v 0.529984 1.109267 2.405970
v 0.529974 0.090732 2.405963
v 0.526946 1.116717 2.394675
v 0.526937 0.083282 2.394669
v 0.522095 1.123266 2.381324
v 0.522085 0.076733 2.381318
v 0.515155 1.128838 2.365891
v 0.515147 0.071161 2.365885
v 0.505930 1.133392 2.348413
v 0.505923 0.066607 2.348408
v 0.480232 1.139435 2.307767
v 0.480229 0.060565 2.307765
v 0.444977 0.058334 2.260690
v 0.426585 1.117023 2.369287
v 0.426580 0.082977 2.369283
v 0.425959 1.123566 2.359007
v 0.425955 0.076434 2.359005
v 0.425733 1.109566 2.377751
v 0.425728 0.090434 2.377748
v 0.423559 1.129119 2.346872
v 0.423556 0.070880 2.346870
v 0.419160 1.133641 2.332899
v 0.419157 0.066359 2.332897
v 0.345985 0.166673 2.378898
v 0.345975 1.033329 2.378890
v 0.345949 1.033334 2.378872
v 0.345949 0.166667 2.378872
v 0.345598 1.041388 2.378617
v 0.345598 0.158613 2.378617
v 0.344570 1.049055 2.377869
v 0.344570 0.150947 2.377869
v 0.342903 1.056342 2.376657
v 0.342903 0.143660 2.376657
v 0.340632 1.063258 2.375005
v 0.340632 0.136743 2.375005
v 0.337797 1.069812 2.372943
v 0.337797 0.130189 2.372943
v 0.334434 1.076014 2.370497
v 0.334434 0.123988 2.370497
v 0.332392 0.066110 2.317386
v 0.332390 1.133891 2.317384
v 0.331965 0.070600 2.327855
v 0.331964 1.129401 2.327854
v 0.330914 0.062675 2.305330
v 0.330913 1.137327 2.305329
v 0.329824 0.076135 2.336691
v 0.329823 1.123866 2.336690
v 0.327415 0.060270 2.291776
v 0.327414 1.139731 2.291775
v 0.326271 1.087391 2.364560
v 0.326271 0.112610 2.364560
v 0.326224 1.117328 2.343898
v 0.326224 0.082673 2.343899
v 0.321844 0.058847 2.276847
v 0.321842 1.141154 2.276846
v 0.321482 1.109867 2.349532
v 0.321482 0.090135 2.349533
v 0.316442 1.097459 2.357412
v 0.316442 0.102542 2.357412
v 0.314213 1.141667 2.260690
v 0.314213 0.058334 2.260690
v 0.305243 1.106288 2.349268
v 0.305243 0.093713 2.349268
v 0.279932 1.120505 2.330859
v 0.279932 0.079496 2.330859
v 0.253526 0.060190 2.285602
v 0.253525 1.139811 2.285601
v 0.252922 0.062556 2.296178
v 0.252921 1.137445 2.296177
v 0.252716 1.130597 2.311066
v 0.252716 0.069405 2.311066
v 0.252173 0.058806 2.273734
v 0.252172 1.141195 2.273734
v 0.250459 1.134046 2.305374
v 0.250459 0.065955 2.305374
v 0.248831 1.141667 2.260690
v 0.248831 0.058334 2.260690
v 0.225977 1.137117 2.291619
v 0.225977 0.062884 2.291619
v 0.207421 1.199999 2.015903
v 0.207421 1.199999 0.820461
v 0.207421 1.141667 2.015903
v 0.207421 1.141667 0.820461
v 0.207421 0.058334 2.015903
v 0.207421 0.058334 0.820461
v 0.207421 0.000000 2.015903
v 0.207421 0.000000 0.820461
v 0.205833 1.199999 2.014592
v 0.205833 1.199999 0.821772
v 0.205833 0.000000 2.014592
v 0.205833 0.000000 0.821772
v 0.204369 1.199999 2.013046
v 0.204369 1.199999 0.823318
v 0.204369 0.000000 2.013046
v 0.204369 0.000000 0.823318
v 0.203070 1.199999 2.011289
v 0.203070 1.199999 0.825075
v 0.203070 0.000000 2.011289
v 0.203070 0.000000 0.825075
v 0.201972 1.199999 2.009354
v 0.201972 1.199999 0.827010
v 0.201972 0.000000 2.009354
v 0.201972 0.000000 0.827010
v 0.201105 1.199999 2.007285
v 0.201105 1.199999 0.829079
v 0.201105 0.000000 2.007285
v 0.201105 0.000000 0.829079
v 0.200485 1.199999 2.005131
v 0.200485 1.199999 0.831233
v 0.200485 0.000000 2.005131
v 0.200485 0.000000 0.831233
v 0.200119 1.199999 2.002944
v 0.200119 1.199999 0.833420
v 0.200119 0.000000 2.002944
v 0.200119 0.000000 0.833420
v 0.200000 1.199999 2.000775
v 0.200000 1.199999 0.835589
v 0.200000 1.141667 2.000775
v 0.200000 1.141667 0.835589
v 0.200000 0.058334 2.000775
v 0.200000 0.058334 0.835589
v 0.200000 0.000000 2.000775
v 0.200000 0.000000 0.835589
v 0.183449 1.141667 2.260690
v 0.183449 0.058334 2.260690
v 0.096481 1.199999 2.197441
v 0.096481 1.199999 0.638922
v 0.096481 1.170833 0.638922
v 0.096481 1.141667 2.197441
v 0.096481 1.141667 0.638922
v 0.096481 0.058334 2.197441
v 0.096481 0.058334 0.638922
v 0.096481 0.029167 2.197441
v 0.096481 0.000000 2.197441
v 0.096481 0.000000 0.638922
v 0.075831 1.199999 2.180394
v 0.075831 1.199999 0.655970
v 0.075831 1.170833 2.180394
v 0.075831 1.170833 0.655970
v 0.075831 1.141667 2.180394
v 0.075831 1.141667 0.655970
v 0.075831 0.058334 2.180394
v 0.075831 0.058334 0.655970
v 0.075831 0.029167 0.655970
v 0.075831 0.000000 2.180394
v 0.075831 0.000000 0.655970
v 0.056791 1.199999 2.160302
v 0.056791 1.199999 0.676062
v 0.056791 1.170833 0.676062
v 0.056791 1.141667 2.160302
v 0.056791 1.141667 0.676062
v 0.056791 0.058334 2.160302
v 0.056791 0.058334 0.676062
v 0.056791 0.029167 2.160302
v 0.056791 0.029167 0.676062
v 0.056791 0.000000 2.160302
v 0.056791 0.000000 0.676062
v 0.039902 1.199999 2.137458
v 0.039902 1.199999 0.698905
v 0.039902 1.170833 2.137458
v 0.039902 1.170833 0.698905
v 0.039902 1.141667 2.137458
v 0.039902 1.141667 0.698905
v 0.039902 0.058334 2.137458
v 0.039902 0.058334 0.698905
v 0.039902 0.029167 2.137458
v 0.039902 0.029167 0.698905
v 0.039902 0.000000 2.137458
v 0.039902 0.000000 0.698905
v 0.025638 1.199999 2.112305
v 0.025638 1.199999 0.724059
v 0.025638 1.170833 2.112305
v 0.025638 1.170833 0.724059
v 0.025638 1.141667 2.112305
v 0.025638 1.141667 0.724059
v 0.025638 0.058334 2.112305
v 0.025638 0.058334 0.724059
v 0.025638 0.029167 2.112305
v 0.025638 0.029167 0.724059
v 0.025638 0.000000 2.112305
v 0.025638 0.000000 0.724059
v 0.014364 1.199999 2.085405
v 0.014364 1.199999 0.750959
v 0.014364 1.170833 2.085405
v 0.014364 1.170833 0.750959
v 0.014364 1.141667 2.085405
v 0.014364 1.141667 0.750959
v 0.014364 0.058334 2.085405
v 0.014364 0.058334 0.750959
v 0.014364 0.029167 2.085405
v 0.014364 0.029167 0.750959
v 0.014364 0.000000 2.085405
v 0.014364 0.000000 0.750959
v 0.006310 1.199999 2.057403
v 0.006310 1.199999 0.778961
v 0.006310 1.170833 2.057403
v 0.006310 1.141667 2.057403
v 0.006310 1.141667 0.778961
v 0.006310 0.058334 2.057403
v 0.006310 0.058334 0.778961
v 0.006310 0.029167 2.057403
v 0.006310 0.029167 0.778961
v 0.006310 0.000000 2.057403
v 0.006310 0.000000 0.778961
v 0.001548 1.199999 2.028975
v 0.001548 1.199999 0.807389
v 0.001548 1.170833 2.028975
v 0.001548 1.170833 0.807389
v 0.001548 1.141667 2.028975
v 0.001548 1.141667 0.807389
v 0.001548 0.058334 2.028975
v 0.001548 0.058334 0.807389
v 0.001548 0.029167 2.028975
v 0.001548 0.000000 2.028975
v 0.001548 0.000000 0.807389
v 0.000000 1.199999 2.000775
v 0.000000 1.199999 0.835589
v 0.000000 1.170833 2.000775
v 0.000000 1.141667 2.000775
v 0.000000 1.141667 0.835589
v 0.000000 0.058334 2.000775
v 0.000000 0.058334 0.835589
v 0.000000 0.029167 2.000775
v 0.000000 0.029167 0.835589
v 0.000000 0.000000 2.000775
v 0.000000 0.000000 0.835589

vn 0.624317 0.780983 0.017115
vn 0.446911 0.894494 -0.012252
vn 0.999624 0.000000 0.027404
vn 0.999624 0.000000 -0.027404
vn 0.999624 0.000000 0.027404
vn 0.999624 0.000000 -0.027404
vn 0.371131 -0.928525 0.010174
vn 0.706708 -0.707240 -0.019374
vn 0.443013 0.894673 0.057445
vn 0.444839 0.894673 -0.040977
vn 0.995076 0.000000 0.099112
vn 0.993005 0.000000 -0.118076
vn 0.993005 0.000000 0.118077
vn 0.995076 0.000000 -0.099112
vn 0.444839 -0.894673 0.040977
vn 0.443013 -0.894673 -0.057445
vn 0.581968 0.800416 0.143691
vn 0.587014 0.800416 -0.121440
vn 0.979264 0.000000 0.202589
vn 0.970845 0.000000 -0.239707
vn 0.970845 0.000000 0.239707
vn 0.979264 0.000000 -0.202588
vn 0.587014 -0.800416 0.121441
vn 0.581968 -0.800416 -0.143691
vn 0.778954 0.555282 0.291364
vn 0.789711 0.555282 -0.260803
vn 0.949558 0.000000 0.313592
vn 0.936623 0.000000 -0.350339
vn 0.936623 0.000000 0.350339
vn 0.949558 0.000000 -0.313592
vn 0.789711 -0.555282 0.260803
vn 0.778954 -0.555282 -0.291364
vn 0.739118 0.555305 0.381236
vn 0.753673 0.555305 -0.351587
vn 0.906242 0.000000 0.422760
vn 0.888740 0.000000 -0.458411
vn 0.888740 0.000000 0.458411
vn 0.906242 0.000000 -0.422760
vn 0.753673 -0.555305 0.351587
vn 0.739118 -0.555305 -0.381236
vn 0.688058 0.555323 0.467111
vn 0.706322 0.555323 -0.439005
vn 0.849318 0.000000 0.527881
vn 0.827355 0.000000 -0.561679
vn 0.827356 0.000000 0.561678
vn 0.849318 0.000000 -0.527882
vn 0.706322 -0.555323 0.439004
vn 0.688057 -0.555323 -0.467112
vn 0.626355 0.555334 0.547068
vn 0.648080 0.555334 -0.521148
vn 0.779293 0.000000 0.626660
vn 0.753168 0.000000 -0.657829
vn 0.753168 0.000000 0.657828
vn 0.779292 0.000000 -0.626661
vn 0.648081 -0.555334 0.521147
vn 0.626355 -0.555334 -0.547068
vn 0.555087 0.555337 0.619257
vn 0.579860 0.555337 -0.596124
vn 0.688866 0.000000 0.724889
vn 0.673521 0.000000 -0.739168
vn 0.673519 0.000000 0.739170
vn 0.688867 0.000000 -0.724888
vn 0.579859 -0.555337 0.596124
vn 0.555088 -0.555337 -0.619256
vn 0.339747 0.832171 0.438251
vn 0.438835 0.707255 -0.554269
vn 0.612687 0.000000 0.790325
vn 0.617525 0.000000 -0.786551
vn 0.617523 0.000000 0.786552
vn 0.612689 0.000000 -0.790324
vn 0.438834 -0.707254 0.554271
vn 0.339748 -0.832171 -0.438250
vn -0.894023 0.447348 -0.024547
vn -0.554347 0.832147 0.015220
vn -0.706707 -0.707240 -0.019404
vn -0.799590 -0.600145 0.021954
vn -0.824796 0.555226 -0.106938
vn -0.828190 0.555226 0.076318
vn -0.828190 -0.555226 -0.076318
vn -0.824796 -0.555226 0.106938
vn -0.686005 0.707618 -0.169332
vn -0.691952 0.707618 0.143103
vn -0.691952 -0.707618 -0.143103
vn -0.686005 -0.707618 0.169332
vn -0.778941 0.555284 -0.291394
vn -0.789713 0.555284 0.260793
vn -0.789713 -0.555284 -0.260793
vn -0.778941 -0.555284 0.291394
vn -0.739110 0.555304 -0.381252
vn -0.753654 0.555304 0.351630
vn -0.753654 -0.555304 -0.351630
vn -0.739110 -0.555304 0.381252
vn -0.688090 0.555322 -0.467065
vn -0.706343 0.555322 0.438973
vn -0.706340 -0.555322 -0.438977
vn -0.688095 -0.555322 0.467058
vn -0.532125 0.707692 -0.464774
vn -0.550610 0.707692 0.442719
vn -0.550606 -0.707692 -0.442725
vn -0.532128 -0.707692 0.464771
vn -0.555086 0.555336 -0.619259
vn -0.579841 0.555336 0.596142
vn -0.579841 -0.555336 -0.596142
vn -0.555086 -0.555336 0.619259
vn -0.148535 0.970169 -0.191595
vn -0.273904 0.894511 0.353308
vn -0.273904 -0.894511 -0.353308
vn -0.148535 -0.970169 0.191595
vn 0.276255 0.868397 0.411789
vn 0.284048 0.868358 -0.406535
vn 0.284048 -0.868358 0.406535
vn 0.276255 -0.868397 -0.411789
vn 0.361356 0.555726 0.748726
vn 0.399600 0.555726 -0.729033
vn 0.399600 -0.555726 0.729033
vn 0.361356 -0.555726 -0.748726
vn 0.239491 0.555775 0.796089
vn 0.281315 0.555775 -0.782289
vn 0.281316 -0.555775 0.782289
vn 0.239490 -0.555775 -0.796090
vn 0.125663 0.317035 0.940052
vn 0.175588 0.317035 -0.932018
vn 0.175588 -0.317035 0.932018
vn 0.125665 -0.317035 -0.940052
vn -0.445603 0.600275 -0.664159
vn -0.308889 0.832234 0.460407
vn -0.308897 -0.832234 -0.460402
vn -0.445593 -0.600275 0.664166
vn -0.361371 0.555727 -0.748718
vn -0.399625 0.555727 0.729018
vn -0.399639 -0.555727 -0.729011
vn -0.361366 -0.555727 0.748721
vn -0.239502 0.555775 -0.796086
vn -0.281309 0.555775 0.782291
vn -0.281316 -0.555775 -0.782289
vn -0.239483 -0.555775 0.796092
vn -0.110126 0.555790 -0.823996
vn -0.153904 0.555789 0.816953
vn -0.153910 -0.555790 -0.816951
vn -0.110146 -0.555789 0.823994
vn 0.012592 0.948759 0.315751
vn -0.022076 0.832253 -0.553956
vn -0.024885 0.624986 0.780240
vn 0.024882 0.781111 -0.623896
vn 0.022091 -0.832254 0.553955
vn -0.031847 -0.600305 -0.799137
vn -0.015931 -0.800203 0.599517
vn 0.014790 -0.928578 -0.370842
vn -0.024880 0.781111 0.623896
vn 0.028146 0.707387 -0.706266
vn 0.051097 0.707818 0.704545
vn -0.012592 0.948759 -0.315751
vn -0.430956 -0.453057 0.780395
vn -0.708746 -0.670734 0.218621
vn -0.708627 -0.616195 0.343733
vn -0.708768 -0.535671 0.459026
vn -0.858611 -0.312272 0.406539
vn -0.449518 -0.378841 0.808958
vn -0.199341 -0.175695 0.964051
vn -0.707696 -0.030939 0.705840
vn -0.707612 0.023206 0.706220
vn -0.318002 0.172784 0.932213
vn -0.556593 0.303507 0.773362
vn -0.708851 0.389220 0.588250
vn -0.708767 0.502875 0.494738
vn -0.708627 0.592279 0.383475
vn -0.706836 0.664250 0.243215
vn -0.832389 0.542442 0.113517
vn -0.204550 0.410100 0.888807
vn -0.014789 -0.928578 0.370842
vn 0.017797 -0.894569 -0.446575
vn 0.021756 -0.707142 0.706737
vn -0.022092 -0.832254 -0.553955
vn 0.128516 -0.517792 0.845799
vn 0.109223 0.000086 0.994017
vn 0.339217 0.005447 0.940692
vn 0.323363 -0.001918 0.946273
vn 0.153885 0.555789 -0.816956
vn 0.289699 0.380519 0.878225
vn 0.110114 -0.555789 -0.823998
vn 0.290612 -0.378843 0.878648
vn 0.478796 0.005531 0.877909
vn 0.333608 0.664440 0.668749
vn 0.398094 -0.524190 0.752825
vn 0.419249 0.528275 0.738347
vn 0.529360 -0.521223 0.669406
vn 0.539071 0.667967 0.513052
vn 0.597730 0.529751 0.601734
vn 0.509587 -0.516293 0.688304
vn 0.532681 0.522535 0.665739
vn 0.281304 0.555775 -0.782293
vn 0.367163 0.573878 0.732021
vn 0.239477 -0.555775 -0.796093
vn 0.504118 -0.477800 0.719425
vn 0.399687 0.555728 -0.728983
vn 0.491029 0.588301 0.642489
vn 0.361395 -0.555728 -0.748705
vn 0.513020 -0.596079 0.617658
vn 0.322128 -0.152693 -0.934301
vn 0.317206 0.229670 -0.920126
vn 0.557486 0.287412 -0.778848
vn 0.425053 0.611874 0.667039
vn 0.588154 0.000000 -0.808749
vn 0.588154 0.000000 -0.808749
vn 0.556657 -0.263219 -0.787939
vn 0.425053 -0.611873 0.667039
vn 0.283108 -0.804316 0.522422
vn 0.362070 0.678035 0.639666
vn 0.481870 -0.549457 0.682567
vn 0.406417 0.693212 0.595216
vn 0.421038 -0.263165 -0.868027
vn 0.421037 0.263119 -0.868042
vn -0.175588 0.317035 0.932018
vn -0.125664 0.317035 -0.940052
vn -0.125662 -0.317035 0.940052
vn -0.175587 -0.317035 -0.932018
vn 0.404295 -0.353226 -0.843669
vn 0.404295 0.353221 -0.843671
vn -0.281319 0.555775 0.782287
vn -0.239491 0.555775 -0.796089
vn -0.239493 -0.555775 0.796089
vn -0.281318 -0.555775 -0.782288
vn -0.399594 0.555725 0.729036
vn -0.361355 0.555725 -0.748727
vn -0.361355 -0.555725 0.748727
vn -0.399594 -0.555725 -0.729036
vn 0.379834 -0.471601 -0.795813
vn 0.379840 0.471597 -0.795813
vn -0.529268 0.422946 0.735522
vn -0.541796 0.362534 -0.758305
vn -0.525531 -0.422999 0.738166
vn -0.535330 -0.400874 -0.743453
vn 0.354732 -0.590214 -0.725129
vn 0.354745 0.590196 -0.725138
vn 0.000469 -0.999223 0.039412
vn 0.001258 -0.987945 0.154802
vn 0.001866 -0.934736 0.355339
vn 0.000415 -0.853775 0.520642
vn -0.006807 -0.728338 0.685184
vn -0.012690 -0.567973 0.822950
vn -0.018931 -0.427503 0.903816
vn 0.000000 -0.012669 0.999920
vn -0.010493 0.221522 0.975099
vn -0.018337 0.407045 0.913224
vn -0.012687 0.596591 0.802445
vn -0.006806 0.748207 0.663431
vn 0.000341 0.885027 0.465540
vn 0.001186 0.984596 0.174838
vn -0.950790 -0.025601 0.308775
vn -0.950924 0.017069 0.308954
vn -0.443672 -0.097778 0.890839
vn -0.447166 0.140761 0.883306
vn -0.934771 -0.207376 0.288440
vn -0.936471 0.206761 0.283323
vn -0.913964 -0.307796 0.264446
vn -0.915545 0.307397 0.259393
vn -0.435614 -0.448995 0.780156
vn -0.637115 0.430774 0.639155
vn -0.857845 -0.481198 0.180416
vn -0.857834 0.481224 0.180401
vn 0.334684 -0.684826 -0.647302
vn 0.334699 0.684806 -0.647316
vn -0.814017 -0.567594 0.123340
vn -0.814011 0.567606 0.123331
vn -0.567827 -0.705623 0.423873
vn -0.567828 0.705612 0.423890
vn -0.515504 -0.810897 0.276952
vn -0.515502 0.810896 0.276957
vn 0.319212 0.165159 -0.933181
vn 0.318394 -0.163888 -0.933684
vn 0.293617 0.347520 -0.890516
vn 0.286300 -0.386195 -0.876861
vn -0.620690 -0.770137 -0.147082
vn -0.620690 0.770137 -0.147082
vn 0.254242 0.512066 -0.820457
vn 0.254235 -0.512057 -0.820464
vn 0.196537 0.693159 -0.693472
vn 0.196525 -0.693170 -0.693465
vn -0.428472 -0.903374 0.018083
vn -0.428471 0.903375 0.018077
vn 0.133418 0.837236 -0.530316
vn 0.133406 -0.837250 -0.530297
vn 0.323392 -0.750522 -0.576310
vn 0.323413 0.750497 -0.576332
vn -0.387179 -0.912301 -0.133413
vn -0.386857 0.907685 -0.162635
vn 0.071243 0.936654 -0.342934
vn 0.071232 -0.936665 -0.342907
vn -0.357195 -0.893909 -0.270811
vn -0.461480 0.763487 -0.451800
vn 0.033577 0.977030 -0.210441
vn 0.033567 -0.977034 -0.210424
vn 0.264088 -0.850934 -0.454058
vn 0.264089 0.850933 -0.454060
vn -0.425664 -0.723327 -0.543699
vn -0.360510 0.817754 -0.448676
vn 0.410434 -0.697733 -0.587122
vn 0.410434 0.697736 -0.587119
vn 0.322788 0.083264 -0.942802
vn 0.222918 -0.592444 -0.774156
vn 0.222918 0.592430 -0.774167
vn 0.280053 -0.349732 -0.894012
vn 0.280048 0.349752 -0.894006
vn 0.308937 -0.187981 -0.932320
vn 0.308067 0.194732 -0.931222
vn 0.174019 -0.744156 -0.644941
vn 0.174021 0.744143 -0.644955
vn 0.133020 -0.839969 -0.526079
vn 0.133018 0.839963 -0.526087
vn 0.103682 -0.889140 -0.445736
vn 0.103683 0.889135 -0.445746
vn 0.067579 -0.941746 -0.329467
vn 0.067576 0.941743 -0.329475
vn 0.039171 -0.973412 -0.225689
vn 0.039166 0.973413 -0.225684
vn 0.010912 -0.993372 -0.114428
vn 0.011318 0.993128 -0.116485
vn -0.000373 0.999687 -0.025008
vn 0.139186 -0.810536 -0.568910
vn 0.139182 0.810533 -0.568915
vn 0.111458 -0.863910 -0.491159
vn 0.111459 0.863898 -0.491179
vn 0.182637 -0.696024 -0.694402
vn 0.182633 0.696013 -0.694415
vn 0.077177 -0.920019 -0.384200
vn 0.077180 0.920009 -0.384221
vn 0.046410 -0.959186 -0.278942
vn 0.046411 0.959187 -0.278938
vn 0.325708 0.008647 -0.945431
vn 0.322324 -0.042283 -0.945685
vn -0.588171 -0.000006 0.808737
vn -0.588171 0.000004 0.808736
vn -0.885411 -0.109495 -0.451729
vn -0.175357 0.174701 -0.968880
vn -0.871934 -0.216050 -0.439379
vn -0.871937 0.216050 -0.439373
vn -0.849927 -0.321288 -0.417610
vn -0.849932 0.321277 -0.417608
vn -0.204878 -0.430677 -0.878944
vn -0.204907 0.430719 -0.878916
vn -0.790048 -0.507012 -0.344621
vn -0.790040 0.507039 -0.344600
vn -0.743402 -0.601612 -0.292261
vn -0.743400 0.601623 -0.292245
vn 0.060300 0.923926 -0.377788
vn 0.060291 -0.923929 -0.377783
vn 0.080223 0.900542 -0.427304
vn 0.080214 -0.900549 -0.427291
vn 0.029662 0.970252 -0.240272
vn 0.029659 -0.970249 -0.240286
vn 0.114747 0.827285 -0.549939
vn 0.114739 -0.827295 -0.549925
vn 0.013796 0.987906 -0.154440
vn 0.013793 -0.987909 -0.154419
vn -0.239963 -0.713063 -0.658756
vn -0.239987 0.713058 -0.658752
vn 0.153483 -0.742863 -0.651612
vn 0.153485 0.742851 -0.651625
vn 0.003170 0.997520 -0.070314
vn 0.003149 -0.997201 -0.074702
vn 0.171939 -0.683121 -0.709777
vn 0.171948 0.683093 -0.709801
vn -0.273800 -0.839963 -0.468503
vn -0.273815 0.839955 -0.468509
vn -0.000712 -0.999708 -0.024168
vn 0.000171 0.999800 -0.020020
vn -0.301558 -0.909546 -0.285986
vn -0.301560 0.909540 -0.286005
vn -0.193834 -0.921320 -0.337042
vn -0.193818 0.921319 -0.337056
vn 0.023686 0.986365 -0.162862
vn 0.023684 -0.986366 -0.162850
vn 0.038188 0.965765 -0.256592
vn 0.038183 -0.965770 -0.256573
vn -0.269944 -0.962165 -0.036994
vn -0.269924 0.962169 -0.037033
vn 0.004193 0.997695 -0.067726
vn 0.004193 -0.997695 -0.067729
vn 0.089301 -0.905289 -0.415303
vn 0.089320 0.905275 -0.415330
vn 0.000000 -0.999836 -0.018087
vn 0.000000 0.999836 -0.018104
vn -0.209409 -0.974757 0.077442
vn -0.209394 0.974763 0.077404
vn 0.212219 0.936378 -0.279571
vn 0.212219 0.936378 0.279571
vn 0.588251 -0.640412 -0.493795
vn 0.637940 -0.553417 0.535502
vn 0.540714 0.708246 -0.453890
vn 0.686415 0.443661 0.576193
vn 0.212219 -0.936378 -0.279571
vn 0.212219 -0.936378 0.279571
vn 0.481667 0.708522 -0.515745
vn 0.481667 0.708522 0.515745
vn 0.481667 -0.708522 -0.515745
vn 0.481667 -0.708522 0.515745
vn 0.422871 0.834000 -0.354435
vn 0.422874 0.834000 0.354431
vn 0.422871 -0.834000 -0.354435
vn 0.422874 -0.834000 0.354431
vn 0.586564 0.714579 -0.381209
vn 0.586567 0.714579 0.381204
vn 0.586564 -0.714579 -0.381209
vn 0.586567 -0.714578 0.381204
vn 0.736662 0.571485 -0.361572
vn 0.736662 0.571485 0.361572
vn 0.736662 -0.571485 -0.361572
vn 0.736662 -0.571485 0.361572
vn 0.659995 0.714445 -0.232324
vn 0.659995 0.714445 0.232324
vn 0.659995 -0.714445 -0.232324
vn 0.659995 -0.714445 0.232324
vn 0.538240 0.833901 -0.122096
vn 0.538240 0.833901 0.122096
vn 0.538240 -0.833901 -0.122096
vn 0.538240 -0.833901 0.122096
vn 0.701532 0.708381 -0.077774
vn 0.701532 0.708381 0.077774
vn 0.701532 -0.708381 -0.077774
vn 0.701532 -0.708381 0.077774
vn 0.706707 0.707240 -0.019404
vn 0.706870 0.707225 0.012935
vn 0.744350 -0.651730 -0.145573
vn 0.633108 -0.760305 0.145294
vn 0.688704 0.707606 -0.158053
vn 0.692448 0.708644 0.135422
vn 0.831825 -0.554829 -0.015222
vn 0.554347 -0.832147 0.015220
vn -0.212007 -0.947626 0.238867
vn -0.301310 0.880749 0.365369
vn -0.540706 0.447360 0.712395
vn -0.427411 0.707254 -0.563126
vn -0.617525 0.000000 -0.786551
vn -0.438834 -0.707254 0.554271
vn -0.438835 -0.707255 -0.554269
vn -0.339747 0.832171 0.438251
vn -0.438835 0.707255 -0.554269
vn -0.636800 0.000000 0.771029
vn -0.512778 -0.514606 0.687196
vn -0.490068 -0.600181 -0.632152
vn -0.482159 0.707766 0.516324
vn -0.555091 0.555337 -0.619254
vn -0.701509 0.000000 0.712661
vn -0.682514 0.000000 -0.730873
vn -0.482159 -0.707766 0.516324
vn -0.579865 -0.555337 -0.596119
vn -0.572752 0.544319 0.612921
vn -0.482159 0.707766 -0.516323
vn -0.682514 0.000000 -0.730873
vn -0.572752 -0.544319 0.612921
vn -0.579865 -0.555337 -0.596119
vn -0.643202 0.544019 0.538827
vn -0.626359 0.555334 -0.547063
vn -0.766392 0.000000 -0.642373
vn -0.643202 -0.544019 0.538827
vn -0.648083 -0.555334 -0.521146
vn -0.648083 0.555334 0.521145
vn -0.626359 0.555334 -0.547063
vn -0.749550 0.000000 0.661948
vn -0.766392 0.000000 -0.642373
vn -0.541418 -0.707763 0.453804
vn -0.648083 -0.555334 -0.521146
vn -0.706322 0.555323 0.439004
vn -0.688057 0.555323 -0.467112
vn -0.824190 0.000000 0.566314
vn -0.838507 0.000000 -0.544891
vn -0.464533 -0.832517 0.301869
vn -0.600071 -0.707680 -0.372966
vn -0.600071 0.707680 0.372966
vn -0.584554 0.707680 -0.396845
vn -0.838508 0.000000 0.544890
vn -0.838507 0.000000 -0.544891
vn -0.688058 -0.555323 0.467111
vn -0.706322 -0.555323 -0.439005
vn -0.753669 0.555305 0.351595
vn -0.739116 0.555305 -0.381240
vn -0.897665 0.000000 0.440679
vn -0.897665 0.000000 -0.440679
vn -0.739116 -0.555305 0.381240
vn -0.753670 -0.555305 -0.351594
vn -0.753669 0.555305 0.351595
vn -0.739116 0.555305 -0.381240
vn -0.897665 0.000000 0.440679
vn -0.897665 0.000000 -0.440679
vn -0.739116 -0.555305 0.381240
vn -0.753670 -0.555305 -0.351594
vn -0.789712 0.555282 0.260798
vn -0.778952 0.555282 -0.291367
vn -0.943269 0.000000 0.332029
vn -0.951124 0.000000 -0.308810
vn -0.778952 -0.555282 0.291368
vn -0.666423 -0.707710 -0.234579
vn -0.789712 0.555282 0.260798
vn -0.778952 0.555282 -0.291367
vn -0.943269 0.000000 0.332029
vn -0.943269 0.000000 -0.332028
vn -0.778952 -0.555282 0.291368
vn -0.789712 -0.555282 -0.260798
vn -0.587015 0.800416 0.121438
vn -0.589849 0.796345 -0.133840
vn -0.975233 0.000000 0.221180
vn -0.807434 -0.555256 0.199351
vn -0.818082 -0.544320 -0.185627
vn -0.814435 0.555256 0.168485
vn -0.807434 0.555256 -0.199351
vn -0.975233 0.000000 0.221180
vn -0.975233 0.000000 -0.221180
vn -0.581969 -0.800416 0.143685
vn -0.435570 -0.894718 -0.098786
vn -0.444839 0.894673 0.040982
vn -0.313865 0.948830 -0.034796
vn -0.993911 0.000000 0.110188
vn -0.990942 0.000000 -0.134289
vn -0.940677 -0.316619 0.121982
vn -0.888706 -0.447767 -0.098524
vn -0.944553 0.316619 0.087019
vn -0.964147 0.242889 -0.106888
vn -0.993911 0.000000 0.110188
vn -0.443013 -0.894673 0.057448
vn -0.550733 -0.832446 -0.061056
vn -0.371131 0.928525 0.010177
vn -0.706708 0.707240 -0.019380
vn -0.999624 0.000000 0.027413
vn -0.393545 -0.919193 0.014393
vn -0.554347 -0.832147 -0.015202
vn -0.274522 0.961551 0.007528
vn -0.447019 0.894487 -0.008170
vn -0.999624 0.000000 0.027413
vn -0.999624 0.000000 -0.027413
vn -0.624317 -0.780983 0.017121
vn -0.446911 -0.894494 -0.012256

f 109//109 67//67 65//65
f 111//111 69//69 67//67
f 71//71 69//69 111//111
f 109//109 111//111 67//67
f 145//145 141//141 149//149
f 333//333 229//229 335//335
f 337//337 335//335 229//229
f 229//229 333//333 331//331
f 332//332 229//229 331//331
f 229//229 343//343 341//341
f 229//229 339//339 337//337
f 229//229 341//341 339//339
f 343//343 229//229 355//355
f 231//231 332//332 334//334
f 338//338 231//231 336//336
f 334//334 336//336 231//231
f 229//229 332//332 231//231
f 231//231 338//338 340//340
f 231//231 344//344 356//356
f 231//231 342//342 344//344
f 231//231 340//340 342//342
f 364//364 231//231 356//356
f 229//229 369//369 367//367
f 229//229 363//363 355//355
f 229//229 367//367 363//363
f 434//434 429//429 431//431
f 383//383 431//431 429//429
f 431//431 383//383 375//375
f 229//229 375//375 369//369
f 375//375 229//229 431//431
f 231//231 364//364 368//368
f 231//231 376//376 439//439
f 231//231 368//368 370//370
f 439//439 430//430 438//438
f 436//436 438//438 430//430
f 384//384 430//430 439//439
f 376//376 384//384 439//439
f 370//370 376//376 231//231
f 528//528 526//526 527//527
f 530//530 528//528 529//529
f 295//295 433//433 432//432
f 433//433 295//295 435//435
f 295//295 432//432 230//230
f 230//230 285//285 289//289
f 230//230 273//273 279//279
f 279//279 285//285 230//230
f 289//289 295//295 230//230
f 232//232 296//296 290//290
f 296//296 440//440 437//437
f 440//440 296//296 232//232
f 232//232 280//280 274//274
f 232//232 286//286 280//280
f 274//274 268//268 232//232
f 232//232 290//290 286//286
f 267//267 273//273 230//230
f 230//230 263//263 265//265
f 230//230 257//257 259//259
f 259//259 263//263 230//230
f 253//253 255//255 230//230
f 257//257 230//230 255//255
f 230//230 251//251 253//253
f 230//230 249//249 251//251
f 249//249 230//230 250//250
f 230//230 265//265 267//267
f 232//232 260//260 258//258
f 232//232 266//266 264//264
f 264//264 260//260 232//232
f 232//232 252//252 250//250
f 232//232 256//256 254//254
f 252//252 232//232 254//254
f 258//258 256//256 232//232
f 232//232 250//250 230//230
f 268//268 266//266 232//232
f 173//173 152//152 144//144
f 112//112 110//110 70//70
f 66//66 68//68 110//110
f 112//112 70//70 72//72
f 4//4 2//2 1//1
f 8//8 6//6 5//5
f 6//6 4//4 3//3
f 398//398 500//500 511//511
f 386//386 488//488 500//500
f 453//453 464//464 386//386
f 476//476 386//386 464//464
f 386//386 476//476 488//488
f 386//386 442//442 453//453
f 418//418 522//522 422//422
f 511//511 522//522 414//414
f 521//521 422//422 522//522
f 511//511 410//410 406//406
f 522//522 418//418 414//414
f 511//511 414//414 410//410
f 402//402 511//511 406//406
f 386//386 432//432 442//442
f 224//224 230//230 152//152
f 220//220 224//224 152//152
f 230//230 151//151 152//152
f 151//151 230//230 179//179
f 152//152 214//214 220//220
f 192//192 179//179 230//230
f 511//511 402//402 398//398
f 394//394 500//500 398//398
f 230//230 196//196 192//192
f 202//202 432//432 386//386
f 230//230 202//202 196//196
f 394//394 386//386 500//500
f 432//432 202//202 230//230
f 413//413 521//521 510//510
f 422//422 521//521 421//421
f 421//421 521//521 417//417
f 521//521 413//413 417//417
f 510//510 405//405 409//409
f 510//510 409//409 413//413
f 397//397 510//510 499//499
f 475//475 385//385 487//487
f 499//499 487//487 385//385
f 385//385 463//463 452//452
f 452//452 441//441 385//385
f 385//385 475//475 463//463
f 441//441 431//431 385//385
f 401//401 405//405 510//510
f 393//393 499//499 385//385
f 510//510 397//397 401//401
f 431//431 229//229 201//201
f 229//229 191//191 195//195
f 229//229 195//195 201//201
f 385//385 431//431 201//201
f 219//219 149//149 223//223
f 229//229 223//223 149//149
f 150//150 229//229 149//149
f 149//149 219//219 213//213
f 149//149 141//141 150//150
f 178//178 229//229 150//150
f 178//178 191//191 229//229
f 397//397 499//499 393//393
f 143//143 152//152 151//151
f 138//138 110//110 143//143
f 144//144 143//143 110//110
f 144//144 114//114 118//118
f 114//114 144//144 110//110
f 118//118 122//122 144//144
f 134//134 110//110 138//138
f 110//110 134//134 130//130
f 110//110 130//130 126//126
f 106//106 102//102 18//18
f 10//10 98//98 94//94
f 18//18 102//102 98//98
f 66//66 126//126 106//106
f 126//126 66//66 110//110
f 106//106 50//50 58//58
f 42//42 50//50 106//106
f 106//106 26//26 34//34
f 26//26 106//106 18//18
f 34//34 42//42 106//106
f 98//98 10//10 18//18
f 10//10 90//90 86//86
f 10//10 86//86 82//82
f 78//78 2//2 82//82
f 10//10 82//82 2//2
f 1//1 2//2 74//74
f 78//78 74//74 2//2
f 90//90 10//10 94//94
f 66//66 106//106 58//58
f 109//109 125//125 129//129
f 109//109 129//129 133//133
f 9//9 93//93 97//97
f 105//105 125//125 65//65
f 17//17 101//101 105//105
f 65//65 125//125 109//109
f 142//142 141//141 109//109
f 142//142 150//150 141//141
f 137//137 142//142 109//109
f 113//113 141//141 117//117
f 117//117 141//141 121//121
f 109//109 141//141 113//113
f 109//109 133//133 137//137
f 17//17 97//97 101//101
f 9//9 81//81 85//85
f 9//9 85//85 89//89
f 77//77 1//1 73//73
f 74//74 73//73 1//1
f 77//77 81//81 1//1
f 9//9 1//1 81//81
f 97//97 17//17 9//9
f 105//105 65//65 57//57
f 105//105 57//57 49//49
f 105//105 41//41 33//33
f 105//105 49//49 41//41
f 105//105 33//33 25//25
f 105//105 25//25 17//17
f 89//89 93//93 9//9
f 143//143 144//144 152//152
f 400//400 520//520 509//509
f 392//392 509//509 498//498
f 462//462 392//392 474//474
f 486//486 474//474 392//392
f 392//392 498//498 486//486
f 392//392 462//462 451//451
f 420//420 428//428 531//531
f 520//520 416//416 531//531
f 530//530 531//531 428//428
f 520//520 408//408 412//412
f 531//531 416//416 420//420
f 520//520 412//412 416//416
f 404//404 408//408 520//520
f 392//392 451//451 440//440
f 226//226 173//173 232//232
f 222//222 173//173 226//226
f 232//232 173//173 172//172
f 172//172 181//181 232//232
f 173//173 222//222 216//216
f 194//194 232//232 181//181
f 520//520 400//400 404//404
f 396//396 400//400 509//509
f 232//232 194//194 198//198
f 206//206 392//392 440//440
f 232//232 198//198 206//206
f 396//396 509//509 392//392
f 440//440 232//232 206//206
f 415//415 519//519 530//530
f 428//428 427//427 530//530
f 427//427 419//419 530//530
f 530//530 419//419 415//415
f 519//519 411//411 407//407
f 519//519 415//415 411//411
f 399//399 508//508 519//519
f 485//485 497//497 391//391
f 508//508 391//391 497//497
f 391//391 461//461 473//473
f 461//461 391//391 450//450
f 391//391 473//473 485//485
f 450//450 391//391 439//439
f 403//403 519//519 407//407
f 395//395 391//391 508//508
f 519//519 403//403 399//399
f 439//439 205//205 231//231
f 231//231 197//197 193//193
f 231//231 205//205 197//197
f 391//391 205//205 439//439
f 221//221 225//225 170//170
f 231//231 170//170 225//225
f 171//171 170//170 231//231
f 170//170 215//215 221//221
f 170//170 171//171 145//145
f 180//180 171//171 231//231
f 180//180 231//231 193//193
f 399//399 395//395 508//508
f 147//147 172//172 173//173
f 140//140 147//147 112//112
f 148//148 112//112 147//147
f 148//148 120//120 116//116
f 116//116 112//112 148//148
f 120//120 148//148 124//124
f 136//136 140//140 112//112
f 112//112 132//132 136//136
f 112//112 128//128 132//132
f 108//108 24//24 104//104
f 16//16 96//96 100//100
f 24//24 100//100 104//104
f 72//72 108//108 128//128
f 128//128 112//112 72//72
f 108//108 64//64 56//56
f 48//48 108//108 56//56
f 108//108 40//40 32//32
f 32//32 24//24 108//108
f 40//40 108//108 48//48
f 100//100 24//24 16//16
f 16//16 88//88 92//92
f 16//16 84//84 88//88
f 80//80 84//84 8//8
f 16//16 8//8 84//84
f 7//7 76//76 8//8
f 80//80 8//8 76//76
f 92//92 96//96 16//16
f 72//72 64//64 108//108
f 111//111 131//131 127//127
f 111//111 135//135 131//131
f 15//15 99//99 95//95
f 107//107 71//71 127//127
f 23//23 107//107 103//103
f 71//71 111//111 127//127
f 146//146 111//111 145//145
f 146//146 145//145 171//171
f 139//139 111//111 146//146
f 115//115 119//119 145//145
f 119//119 123//123 145//145
f 111//111 115//115 145//145
f 111//111 139//139 135//135
f 23//23 103//103 99//99
f 15//15 87//87 83//83
f 15//15 91//91 87//87
f 79//79 75//75 7//7
f 76//76 7//7 75//75
f 79//79 7//7 83//83
f 15//15 83//83 7//7
f 99//99 15//15 23//23
f 107//107 63//63 71//71
f 107//107 55//55 63//63
f 107//107 39//39 47//47
f 107//107 47//47 55//55
f 107//107 31//31 39//39
f 107//107 23//23 31//31
f 91//91 15//15 95//95
f 147//147 173//173 148//148
f 115//115 111//111 109//109
f 123//123 119//119 117//117
f 145//145 123//123 121//121
f 119//119 115//115 113//113
f 53//53 51//51 59//59
f 45//45 43//43 51//51
f 37//37 35//35 43//43
f 29//29 27//27 35//35
f 21//21 19//19 27//27
f 13//13 11//11 19//19
f 57//57 65//65 67//67
f 41//41 49//49 51//51
f 49//49 57//57 59//59
f 59//59 67//67 69//69
f 33//33 41//41 43//43
f 17//17 25//25 27//27
f 1//1 9//9 11//11
f 9//9 17//17 19//19
f 35//35 27//27 25//25
f 3//3 11//11 13//13
f 61//61 69//69 71//71
f 45//45 53//53 55//55
f 53//53 61//61 63//63
f 37//37 45//45 47//47
f 21//21 29//29 31//31
f 5//5 13//13 15//15
f 13//13 21//21 23//23
f 39//39 31//31 29//29
f 215//215 170//170 149//149
f 225//225 221//221 219//219
f 231//231 225//225 223//223
f 221//221 215//215 213//213
f 438//438 450//450 439//439
f 459//459 461//461 450//450
f 473//473 461//461 459//459
f 438//438 459//459 450//450
f 447//447 459//459 438//438
f 497//497 485//485 483//483
f 508//508 497//497 495//495
f 519//519 508//508 506//506
f 483//483 471//471 469//469
f 530//530 519//519 518//518
f 471//471 483//483 485//485
f 471//471 459//459 457//457
f 459//459 447//447 457//457
f 436//436 447//447 438//438
f 495//495 483//483 481//481
f 518//518 506//506 504//504
f 528//528 518//518 516//516
f 493//493 504//504 506//506
f 513//513 515//515 525//525
f 513//513 503//503 515//515
f 492//492 503//503 490//490
f 513//513 490//490 503//503
f 500//500 490//490 513//513
f 490//490 478//478 480//480
f 513//513 525//525 522//522
f 468//468 480//480 478//478
f 456//456 468//468 466//466
f 435//435 446//446 444//444
f 446//446 456//456 454//454
f 478//478 490//490 488//488
f 513//513 511//511 500//500
f 522//522 511//511 513//513
f 490//490 500//500 488//488
f 466//466 478//478 476//476
f 444//444 454//454 453//453
f 433//433 444//444 442//442
f 464//464 453//453 454//454
f 226//226 232//232 230//230
f 216//216 222//222 220//220
f 173//173 216//216 214//214
f 222//222 226//226 224//224
f 124//124 148//148 144//144
f 116//116 120//120 118//118
f 112//112 116//116 114//114
f 120//120 124//124 122//122
f 52//52 54//54 62//62
f 44//44 46//46 54//54
f 36//36 38//38 46//46
f 28//28 30//30 38//38
f 20//20 22//22 30//30
f 12//12 14//14 22//22
f 64//64 72//72 70//70
f 48//48 56//56 54//54
f 56//56 64//64 62//62
f 62//62 70//70 68//68
f 40//40 48//48 46//46
f 24//24 32//32 30//30
f 8//8 16//16 14//14
f 16//16 24//24 22//22
f 38//38 30//30 32//32
f 6//6 14//14 12//12
f 60//60 68//68 66//66
f 44//44 52//52 50//50
f 52//52 60//60 58//58
f 36//36 44//44 42//42
f 20//20 28//28 26//26
f 4//4 12//12 10//10
f 12//12 20//20 18//18
f 34//34 26//26 28//28
f 420//420 426//426 428//428
f 426//426 420//420 416//416
f 426//426 416//416 412//412
f 412//412 408//408 426//426
f 404//404 390//390 408//408
f 426//426 408//408 390//390
f 400//400 390//390 404//404
f 390//390 400//400 396//396
f 390//390 396//396 392//392
f 388//388 209//209 386//386
f 202//202 386//386 209//209
f 189//189 202//202 207//207
f 209//209 207//207 202//202
f 189//189 196//196 202//202
f 186//186 192//192 196//196
f 189//189 186//186 196//196
f 184//184 192//192 186//186
f 184//184 179//179 192//192
f 179//179 182//182 176//176
f 184//184 182//182 179//179
f 151//151 179//179 174//174
f 176//176 174//174 179//179
f 153//153 151//151 174//174
f 143//143 151//151 153//153
f 169//169 147//147 143//143
f 172//172 147//147 169//169
f 143//143 147//147 140//140
f 136//136 134//134 138//138
f 134//134 136//136 132//132
f 128//128 126//126 130//130
f 128//128 108//108 106//106
f 106//106 108//108 104//104
f 98//98 100//100 96//96
f 102//102 104//104 100//100
f 92//92 90//90 94//94
f 90//90 92//92 88//88
f 82//82 84//84 80//80
f 86//86 88//88 84//84
f 76//76 74//74 78//78
f 76//76 75//75 73//73
f 73//73 75//75 79//79
f 81//81 83//83 87//87
f 77//77 79//79 83//83
f 91//91 89//89 85//85
f 93//93 95//95 99//99
f 101//101 103//103 107//107
f 97//97 99//99 103//103
f 95//95 93//93 89//89
f 107//107 127//127 125//125
f 125//125 127//127 131//131
f 135//135 133//133 129//129
f 133//133 135//135 139//139
f 146//146 142//142 137//137
f 146//146 171//171 150//150
f 150//150 171//171 180//180
f 193//193 191//191 178//178
f 191//191 193//193 197//197
f 205//205 201//201 195//195
f 203//203 211//211 201//201
f 217//217 201//201 211//211
f 201//201 217//217 227//227
f 201//201 227//227 233//233
f 233//233 261//261 201//201
f 205//205 212//212 204//204
f 218//218 212//212 205//205
f 205//205 234//234 228//228
f 205//205 228//228 218//218
f 262//262 234//234 205//205
f 201//201 261//261 283//283
f 293//293 201//201 283//283
f 387//387 385//385 297//297
f 201//201 293//293 297//297
f 201//201 297//297 385//385
f 294//294 205//205 298//298
f 205//205 284//284 262//262
f 391//391 389//389 298//298
f 298//298 205//205 391//391
f 284//284 205//205 294//294
f 395//395 389//389 391//391
f 389//389 395//395 399//399
f 389//389 399//399 403//403
f 403//403 407//407 389//389
f 411//411 425//425 407//407
f 389//389 407//407 425//425
f 415//415 425//425 411//411
f 425//425 415//415 419//419
f 425//425 419//419 427//427
f 427//427 428//428 426//426
f 161//161 160//160 242//242
f 250//250 242//242 249//249
f 164//164 165//165 157//157
f 161//161 163//163 164//164
f 156//156 165//165 166//166
f 154//154 167//167 168//168
f 155//155 166//166 167//167
f 153//153 168//168 169//169
f 163//163 161//161 162//162
f 160//160 161//161 157//157
f 160//160 158//158 159//159
f 158//158 160//160 157//157
f 156//156 166//166 155//155
f 153//153 154//154 168//168
f 167//167 154//154 155//155
f 157//157 165//165 156//156
f 161//161 164//164 157//157
f 522//522 523//523 521//521
f 524//524 523//523 525//525
f 522//522 525//525 523//523
f 443//443 445//445 434//434
f 443//443 455//455 445//445
f 467//467 455//455 465//465
f 443//443 465//465 455//455
f 452//452 465//465 443//443
f 465//465 477//477 479//479
f 443//443 434//434 431//431
f 491//491 479//479 477//477
f 502//502 491//491 489//489
f 524//524 514//514 512//512
f 514//514 502//502 501//501
f 477//477 465//465 463//463
f 443//443 441//441 452//452
f 431//431 441//441 443//443
f 465//465 452//452 463//463
f 489//489 477//477 475//475
f 512//512 501//501 499//499
f 523//523 512//512 510//510
f 487//487 499//499 501//501
f 529//529 520//520 531//531
f 507//507 509//509 520//520
f 498//498 509//509 507//507
f 520//520 517//517 507//507
f 529//529 517//517 520//520
f 474//474 486//486 484//484
f 462//462 474//474 472//472
f 449//449 440//440 451//451
f 451//451 462//462 460//460
f 496//496 484//484 486//486
f 496//496 507//507 505//505
f 507//507 517//517 505//505
f 527//527 517//517 529//529
f 484//484 496//496 494//494
f 482//482 470//470 472//472
f 460//460 472//472 470//470
f 449//449 460//460 458//458
f 449//449 448//448 437//437
f 440//440 449//449 437//437
f 424//424 418//418 422//422
f 410//410 414//414 424//424
f 418//418 424//424 414//414
f 406//406 410//410 424//424
f 388//388 402//402 406//406
f 388//388 398//398 402//402
f 388//388 386//386 394//394
f 398//398 388//388 394//394
f 424//424 388//388 406//406
f 392//392 210//210 390//390
f 206//206 210//210 392//392
f 206//206 190//190 208//208
f 210//210 206//206 208//208
f 188//188 190//190 198//198
f 187//187 188//188 194//194
f 190//190 206//206 198//198
f 188//188 198//198 194//194
f 194//194 185//185 187//187
f 175//175 177//177 181//181
f 169//169 175//175 172//172
f 181//181 183//183 185//185
f 177//177 183//183 181//181
f 181//181 172//172 175//175
f 194//194 181//181 185//185
f 387//387 393//393 385//385
f 401//401 397//397 387//387
f 393//393 387//387 397//397
f 405//405 401//401 387//387
f 423//423 409//409 405//405
f 423//423 413//413 409//409
f 423//423 421//421 417//417
f 413//413 423//423 417//417
f 387//387 423//423 405//405
f 423//423 424//424 422//422
f 210//210 248//248 296//296
f 290//290 296//296 248//248
f 248//248 210//210 208//208
f 190//190 248//248 208//208
f 248//248 247//247 286//286
f 246//246 280//280 247//247
f 286//286 247//247 280//280
f 274//274 280//280 246//246
f 247//247 248//248 167//167
f 290//290 248//248 286//286
f 166//166 165//165 246//246
f 248//248 187//187 185//185
f 248//248 190//190 188//188
f 248//248 188//188 187//187
f 169//169 248//248 183//183
f 168//168 248//248 169//169
f 167//167 248//248 168//168
f 167//167 166//166 247//247
f 183//183 248//248 185//185
f 246//246 245//245 268//268
f 244//244 264//264 266//266
f 245//245 266//266 268//268
f 244//244 258//258 260//260
f 243//243 252//252 254//254
f 243//243 254//254 256//256
f 243//243 256//256 258//258
f 244//244 260//260 264//264
f 164//164 163//163 244//244
f 244//244 266//266 245//245
f 245//245 246//246 165//165
f 252//252 162//162 161//161
f 243//243 244//244 163//163
f 252//252 243//243 162//162
f 244//244 243//243 258//258
f 250//250 252//252 161//161
f 268//268 274//274 246//246
f 159//159 257//257 255//255
f 159//159 253//253 251//251
f 253//253 159//159 255//255
f 239//239 273//273 267//267
f 241//241 265//265 263//263
f 241//241 263//263 259//259
f 265//265 240//240 267//267
f 241//241 259//259 257//257
f 160//160 159//159 251//251
f 251//251 242//242 160//160
f 242//242 251//251 249//249
f 240//240 241//241 158//158
f 257//257 158//158 241//241
f 157//157 156//156 239//239
f 241//241 240//240 265//265
f 257//257 159//159 158//158
f 240//240 239//239 267//267
f 239//239 279//279 273//273
f 238//238 285//285 279//279
f 237//237 238//238 155//155
f 285//285 238//238 237//237
f 237//237 289//289 285//285
f 156//156 155//155 238//238
f 236//236 295//295 289//289
f 235//235 236//236 207//207
f 295//295 236//236 235//235
f 237//237 154//154 236//236
f 237//237 236//236 289//289
f 207//207 209//209 235//235
f 174//174 184//184 236//236
f 236//236 153//153 174//174
f 186//186 236//236 184//184
f 189//189 236//236 186//186
f 189//189 207//207 236//236
f 279//279 239//239 238//238
f 456//456 424//424 468//468
f 480//480 468//468 525//525
f 503//503 525//525 515//515
f 525//525 503//503 492//492
f 492//492 480//480 525//525
f 525//525 468//468 424//424
f 388//388 295//295 235//235
f 388//388 235//235 209//209
f 424//424 446//446 435//435
f 435//435 388//388 424//424
f 424//424 456//456 446//446
f 295//295 388//388 435//435
f 424//424 524//524 525//525
f 502//502 514//514 524//524
f 491//491 502//502 524//524
f 524//524 467//467 479//479
f 524//524 423//423 467//467
f 479//479 491//491 524//524
f 455//455 467//467 423//423
f 423//423 434//434 445//445
f 434//434 423//423 387//387
f 387//387 429//429 434//434
f 455//455 423//423 445//445
f 387//387 381//381 429//429
f 387//387 297//297 365//365
f 387//387 365//365 381//381
f 424//424 423//423 524//524
f 354//354 372//372 360//360
f 346//346 379//379 350//350
f 350//350 374//374 354//354
f 350//350 327//327 346//346
f 327//327 316//316 314//314
f 316//316 350//350 354//354
f 350//350 316//316 327//327
f 310//310 321//321 312//312
f 312//312 325//325 314//314
f 325//325 348//348 327//327
f 321//321 352//352 325//325
f 312//312 288//288 310//310
f 292//292 312//312 314//314
f 288//288 312//312 292//292
f 306//306 323//323 308//308
f 308//308 319//319 310//310
f 319//319 357//357 321//321
f 323//323 361//361 357//357
f 308//308 282//282 306//306
f 288//288 308//308 310//310
f 282//282 308//308 288//288
f 278//278 300//300 282//282
f 276//276 302//302 278//278
f 272//272 304//304 276//276
f 381//381 378//378 429//429
f 372//372 429//429 378//378
f 378//378 381//381 365//365
f 316//316 360//360 365//365
f 372//372 383//383 429//429
f 374//374 379//379 383//383
f 375//375 383//383 379//379
f 379//379 346//346 375//375
f 369//369 375//375 352//352
f 383//383 372//372 374//374
f 316//316 354//354 360//360
f 365//365 297//297 316//316
f 293//293 314//314 316//316
f 297//297 293//293 316//316
f 292//292 314//314 293//293
f 283//283 292//292 293//293
f 375//375 348//348 352//352
f 369//369 352//352 357//357
f 261//261 288//288 283//283
f 283//283 288//288 292//292
f 261//261 282//282 288//288
f 361//361 369//369 357//357
f 348//348 375//375 346//346
f 361//361 367//367 369//369
f 363//363 323//323 300//300
f 323//323 363//363 367//367
f 306//306 300//300 323//323
f 363//363 300//300 355//355
f 355//355 302//302 343//343
f 361//361 323//323 367//367
f 339//339 341//341 302//302
f 341//341 343//343 302//302
f 333//333 335//335 304//304
f 335//335 337//337 304//304
f 337//337 339//339 304//304
f 330//330 333//333 304//304
f 355//355 300//300 302//302
f 227//227 278//278 233//233
f 282//282 233//233 278//278
f 278//278 227//227 276//276
f 261//261 233//233 282//282
f 270//270 304//304 272//272
f 217//217 272//272 276//276
f 211//211 272//272 217//217
f 211//211 199//199 270//270
f 211//211 270//270 272//272
f 270//270 330//330 304//304
f 227//227 217//217 276//276
f 304//304 339//339 302//302
f 270//270 269//269 299//299
f 199//199 200//200 269//269
f 330//330 299//299 329//329
f 275//275 303//303 305//305
f 277//277 301//301 303//303
f 281//281 307//307 301//301
f 311//311 322//322 320//320
f 309//309 320//320 324//324
f 320//320 358//358 324//324
f 322//322 351//351 358//358
f 309//309 287//287 311//311
f 281//281 309//309 307//307
f 287//287 309//309 281//281
f 315//315 328//328 326//326
f 313//313 326//326 322//322
f 326//326 347//347 351//351
f 328//328 345//345 347//347
f 313//313 291//291 315//315
f 287//287 313//313 311//311
f 291//291 313//313 287//287
f 353//353 371//371 373//373
f 349//349 373//373 380//380
f 328//328 349//349 345//345
f 349//349 317//317 353//353
f 317//317 328//328 315//315
f 328//328 317//317 349//349
f 359//359 377//377 371//371
f 338//338 336//336 305//305
f 336//336 334//334 305//305
f 299//299 334//334 329//329
f 334//334 299//299 305//305
f 340//340 338//338 305//305
f 368//368 364//364 324//324
f 370//370 368//368 362//362
f 362//362 368//368 324//324
f 344//344 342//342 303//303
f 303//303 356//356 344//344
f 356//356 301//301 364//364
f 303//303 342//342 340//340
f 301//301 324//324 364//364
f 305//305 299//299 271//271
f 275//275 271//271 218//218
f 212//212 271//271 269//269
f 200//200 212//212 269//269
f 218//218 271//271 212//212
f 356//356 303//303 301//301
f 324//324 301//301 307//307
f 218//218 228//228 275//275
f 277//277 275//275 228//228
f 228//228 234//234 277//277
f 277//277 234//234 281//281
f 303//303 340//340 305//305
f 376//376 370//370 351//351
f 384//384 376//376 380//380
f 376//376 347//347 345//345
f 370//370 358//358 351//351
f 376//376 351//351 347//347
f 345//345 380//380 376//376
f 362//362 358//358 370//370
f 384//384 373//373 371//371
f 430//430 384//384 371//371
f 430//430 377//377 382//382
f 377//377 430//430 371//371
f 382//382 377//377 366//366
f 384//384 380//380 373//373
f 262//262 287//287 281//281
f 262//262 284//284 287//287
f 291//291 287//287 284//284
f 294//294 291//291 284//284
f 291//291 294//294 315//315
f 234//234 262//262 281//281
f 317//317 359//359 353//353
f 318//318 366//366 359//359
f 298//298 317//317 294//294
f 317//317 315//315 294//294
f 317//317 298//298 318//318
f 318//318 359//359 317//317
f 425//425 447//447 436//436
f 425//425 457//457 447//447
f 526//526 504//504 493//493
f 493//493 481//481 526//526
f 469//469 526//526 481//481
f 425//425 469//469 457//457
f 389//389 430//430 382//382
f 389//389 382//382 366//366
f 366//366 318//318 389//389
f 436//436 389//389 425//425
f 389//389 318//318 298//298
f 436//436 430//430 389//389
f 526//526 516//516 504//504
f 526//526 426//426 527//527
f 517//517 527//527 505//505
f 527//527 482//482 494//494
f 482//482 527//527 470//470
f 494//494 505//505 527//527
f 470//470 527//527 426//426
f 437//437 426//426 390//390
f 526//526 425//425 426//426
f 390//390 210//210 296//296
f 448//448 458//458 426//426
f 458//458 470//470 426//426
f 437//437 390//390 296//296
f 448//448 426//426 437//437
f 469//469 425//425 526//526
f 145//145 149//149 170//170
f 528//528 527//527 529//529
f 530//530 529//529 531//531
f 173//173 144//144 148//148
f 110//110 68//68 70//70
f 4//4 1//1 3//3
f 8//8 5//5 7//7
f 6//6 3//3 5//5
f 115//115 109//109 113//113
f 123//123 117//117 121//121
f 145//145 121//121 141//141
f 119//119 113//113 117//117
f 53//53 59//59 61//61
f 45//45 51//51 53//53
f 37//37 43//43 45//45
f 29//29 35//35 37//37
f 21//21 27//27 29//29
f 13//13 19//19 21//21
f 57//57 67//67 59//59
f 41//41 51//51 43//43
f 49//49 59//59 51//51
f 59//59 69//69 61//61
f 33//33 43//43 35//35
f 17//17 27//27 19//19
f 1//1 11//11 3//3
f 9//9 19//19 11//11
f 35//35 25//25 33//33
f 3//3 13//13 5//5
f 61//61 71//71 63//63
f 45//45 55//55 47//47
f 53//53 63//63 55//55
f 37//37 47//47 39//39
f 21//21 31//31 23//23
f 5//5 15//15 7//7
f 13//13 23//23 15//15
f 39//39 29//29 37//37
f 215//215 149//149 213//213
f 225//225 219//219 223//223
f 231//231 223//223 229//229
f 221//221 213//213 219//219
f 473//473 459//459 471//471
f 497//497 483//483 495//495
f 508//508 495//495 506//506
f 519//519 506//506 518//518
f 483//483 469//469 481//481
f 530//530 518//518 528//528
f 471//471 485//485 473//473
f 471//471 457//457 469//469
f 495//495 481//481 493//493
f 518//518 504//504 516//516
f 528//528 516//516 526//526
f 493//493 506//506 495//495
f 490//490 480//480 492//492
f 468//468 478//478 466//466
f 456//456 466//466 454//454
f 435//435 444//444 433//433
f 446//446 454//454 444//444
f 478//478 488//488 476//476
f 466//466 476//476 464//464
f 444//444 453//453 442//442
f 433//433 442//442 432//432
f 464//464 454//454 466//466
f 226//226 230//230 224//224
f 216//216 220//220 214//214
f 173//173 214//214 152//152
f 222//222 224//224 220//220
f 124//124 144//144 122//122
f 116//116 118//118 114//114
f 112//112 114//114 110//110
f 120//120 122//122 118//118
f 52//52 62//62 60//60
f 44//44 54//54 52//52
f 36//36 46//46 44//44
f 28//28 38//38 36//36
f 20//20 30//30 28//28
f 12//12 22//22 20//20
f 64//64 70//70 62//62
f 48//48 54//54 46//46
f 56//56 62//62 54//54
f 62//62 68//68 60//60
f 40//40 46//46 38//38
f 24//24 30//30 22//22
f 8//8 14//14 6//6
f 16//16 22//22 14//14
f 38//38 32//32 40//40
f 6//6 12//12 4//4
f 60//60 66//66 58//58
f 44//44 50//50 42//42
f 52//52 58//58 50//50
f 36//36 42//42 34//34
f 20//20 26//26 18//18
f 4//4 10//10 2//2
f 12//12 18//18 10//10
f 34//34 28//28 36//36
f 169//169 143//143 153//153
f 143//143 140//140 138//138
f 136//136 138//138 140//140
f 134//134 132//132 130//130
f 128//128 130//130 132//132
f 128//128 106//106 126//126
f 106//106 104//104 102//102
f 98//98 96//96 94//94
f 102//102 100//100 98//98
f 92//92 94//94 96//96
f 90//90 88//88 86//86
f 82//82 80//80 78//78
f 86//86 84//84 82//82
f 76//76 78//78 80//80
f 76//76 73//73 74//74
f 73//73 79//79 77//77
f 81//81 87//87 85//85
f 77//77 83//83 81//81
f 91//91 85//85 87//87
f 93//93 99//99 97//97
f 101//101 107//107 105//105
f 97//97 103//103 101//101
f 95//95 89//89 91//91
f 107//107 125//125 105//105
f 125//125 131//131 129//129
f 135//135 129//129 131//131
f 133//133 139//139 137//137
f 146//146 137//137 139//139
f 146//146 150//150 142//142
f 150//150 180//180 178//178
f 193//193 178//178 180//180
f 191//191 197//197 195//195
f 205//205 195//195 197//197
f 427//427 426//426 425//425
f 161//161 242//242 250//250
f 465//465 479//479 467//467
f 491//491 477//477 489//489
f 502//502 489//489 501//501
f 524//524 512//512 523//523
f 514//514 501//501 512//512
f 477//477 463//463 475//475
f 489//489 475//475 487//487
f 512//512 499//499 510//510
f 523//523 510//510 521//521
f 487//487 501//501 489//489
f 498//498 507//507 496//496
f 474//474 484//484 472//472
f 462//462 472//472 460//460
f 451//451 460//460 449//449
f 496//496 486//486 498//498
f 496//496 505//505 494//494
f 484//484 494//494 482//482
f 482//482 472//472 484//484
f 460//460 470//470 458//458
f 449//449 458//458 448//448
f 423//423 422//422 421//421
f 166//166 246//246 247//247
f 164//164 244//244 245//245
f 245//245 165//165 164//164
f 243//243 163//163 162//162
f 240//240 158//158 157//157
f 157//157 239//239 240//240
f 237//237 155//155 154//154
f 156//156 238//238 239//239
f 154//154 153//153 236//236
f 372//372 378//378 360//360
f 379//379 374//374 350//350
f 374//374 372//372 354//354
f 321//321 325//325 312//312
f 325//325 327//327 314//314
f 348//348 346//346 327//327
f 352//352 348//348 325//325
f 323//323 319//319 308//308
f 319//319 321//321 310//310
f 357//357 352//352 321//321
f 323//323 357//357 319//319
f 300//300 306//306 282//282
f 302//302 300//300 278//278
f 304//304 302//302 276//276
f 378//378 365//365 360//360
f 270//270 299//299 330//330
f 199//199 269//269 270//270
f 275//275 305//305 271//271
f 277//277 303//303 275//275
f 281//281 301//301 277//277
f 311//311 320//320 309//309
f 309//309 324//324 307//307
f 358//358 362//362 324//324
f 322//322 358//358 320//320
f 315//315 326//326 313//313
f 313//313 322//322 311//311
f 326//326 351//351 322//322
f 328//328 347//347 326//326
f 353//353 373//373 349//349
f 349//349 380//380 345//345
f 359//359 371//371 353//353
f 299//299 269//269 271//271
f 377//377 359//359 366//366