# PHANTOM Module: P12R
# Units: meters
o P12R

v 5.200000 1.200000 2.000775
v 5.200000 1.200000 0.835589
v 5.200000 1.170833 2.000775
v 5.200000 1.170833 0.835589
v 5.200000 1.141665 2.000775
v 5.200000 1.141665 0.835589
v 5.200000 0.058332 2.000775
v 5.200000 0.058332 0.835589
v 5.200000 0.029166 2.000775
v 5.200000 0.000000 2.000775
v 5.200000 0.000000 0.835589
v 5.198452 1.200000 2.028975
v 5.198452 1.200000 0.807389
v 5.198452 1.170833 2.028975
v 5.198452 1.141665 2.028975
v 5.198452 1.141665 0.807389
v 5.198452 0.058332 2.028975
v 5.198452 0.058332 0.807389
v 5.198452 0.029166 2.028975
v 5.198452 0.029166 0.807389
v 5.198452 0.000000 2.028975
v 5.198452 0.000000 0.807389
v 5.193690 1.200000 2.057403
v 5.193690 1.200000 0.778961
v 5.193690 1.170833 2.057403
v 5.193690 1.170833 0.778961
v 5.193690 1.141665 2.057403
v 5.193690 1.141665 0.778961
v 5.193690 0.058332 2.057403
v 5.193690 0.058332 0.778961
v 5.193690 0.029166 2.057403
v 5.193690 0.000000 2.057403
v 5.193690 0.000000 0.778961
v 5.185636 1.200000 2.085405
v 5.185636 1.200000 0.750959
v 5.185636 1.170833 2.085405
v 5.185636 1.170833 0.750959
v 5.185636 1.141665 2.085405
v 5.185636 1.141665 0.750959
v 5.185636 0.058332 2.085405
v 5.185636 0.058332 0.750959
v 5.185636 0.029166 2.085405
v 5.185636 0.029166 0.750959
v 5.185636 0.000000 2.085405
v 5.185636 0.000000 0.750959
v 5.174363 1.200000 2.112305
v 5.174363 1.200000 0.724059
v 5.174363 1.170833 2.112305
v 5.174363 1.170833 0.724059
v 5.174363 1.141665 2.112305
v 5.174363 1.141665 0.724059
v 5.174363 0.058332 2.112305
v 5.174363 0.058332 0.724059
v 5.174363 0.029166 2.112305
v 5.174363 0.029166 0.724059
v 5.174363 0.000000 2.112305
v 5.174363 0.000000 0.724059
v 5.160099 1.200000 2.137458
v 5.160099 1.200000 0.698905
v 5.160099 1.170833 2.137458
v 5.160099 1.170833 0.698905
v 5.160099 1.141665 2.137458
v 5.160099 1.141665 0.698905
v 5.160099 0.058332 2.137458
v 5.160099 0.058332 0.698905
v 5.160099 0.029166 2.137458
v 5.160099 0.029166 0.698905
v 5.160099 0.000000 2.137458
v 5.160099 0.000000 0.698905
v 5.143209 1.200000 2.160302
v 5.143209 1.200000 0.676062
v 5.143209 1.170833 2.160302
v 5.143209 1.170833 0.676062
v 5.143209 1.141665 2.160302
v 5.143209 1.141665 0.676062
v 5.143209 0.058332 2.160302
v 5.143209 0.058332 0.676062
v 5.143209 0.029166 0.676062
v 5.143209 0.000000 2.160302
v 5.143209 0.000000 0.676062
v 5.124168 1.200000 2.180394
v 5.124168 1.200000 0.655970
v 5.124168 1.170833 0.655970
v 5.124168 1.141665 2.180394
v 5.124168 1.141665 0.655970
v 5.124168 0.058332 2.180394
v 5.124168 0.058332 0.655970
v 5.124168 0.029166 2.180394
v 5.124168 0.029166 0.655970
v 5.124168 0.000000 2.180394
v 5.124168 0.000000 0.655970
v 5.103518 1.200000 2.197441
v 5.103518 1.200000 0.638922
v 5.103518 1.170833 2.197441
v 5.103518 1.141665 2.197441
v 5.103518 1.141665 0.638922
v 5.103518 0.058332 2.197441
v 5.103518 0.058332 0.638922
v 5.103518 0.029166 0.638922
v 5.103518 0.000000 2.197441
v 5.103518 0.000000 0.638922
v 5.016551 1.141665 2.260690
v 5.016551 0.058332 2.260690
v 5.000000 1.200000 2.000775
v 5.000000 1.200000 0.835589
v 5.000000 1.141665 2.000775
v 5.000000 1.141665 0.835589
v 5.000000 0.058332 2.000775
v 5.000000 0.058332 0.835589
v 5.000000 0.000000 2.000775
v 5.000000 0.000000 0.835589
v 4.999881 1.200000 2.002944
v 4.999881 1.200000 0.833420
v 4.999881 0.000000 2.002944
v 4.999881 0.000000 0.833420
v 4.999515 1.200000 2.005131
v 4.999515 1.200000 0.831233
v 4.999515 0.000000 2.005131
v 4.999515 0.000000 0.831233
v 4.998895 1.200000 2.007285
v 4.998895 1.200000 0.829079
v 4.998895 0.000000 2.007285
v 4.998895 0.000000 0.829079
v 4.998028 1.200000 2.009354
v 4.998028 1.200000 0.827010
v 4.998028 0.000000 2.009354
v 4.998028 0.000000 0.827010
v 4.996931 1.200000 2.011289
v 4.996931 1.200000 0.825075
v 4.996931 0.000000 2.011289
v 4.996931 0.000000 0.825075
v 4.995632 1.200000 2.013046
v 4.995632 1.200000 0.823318
v 4.995632 0.000000 2.013046
v 4.995632 0.000000 0.823318
v 4.994167 1.200000 2.014592
v 4.994167 1.200000 0.821772
v 4.994167 0.000000 2.014592
v 4.994167 0.000000 0.821772
v 4.992579 1.200000 2.015903
v 4.992579 1.200000 0.820461
v 4.992579 1.141665 2.015903
v 4.992579 1.141665 0.820461
v 4.992579 0.058332 2.015903
v 4.992579 0.058332 0.820461
v 4.992579 0.000000 2.015903
v 4.992579 0.000000 0.820461
v 4.974024 1.137115 2.291619
v 4.974024 0.062882 2.291619
v 4.951169 1.141665 2.260690
v 4.951169 0.058332 2.260690
v 4.949542 0.065953 2.305374
v 4.949541 1.134045 2.305374
v 4.947828 0.058805 2.273734
v 4.947827 1.141193 2.273734
v 4.947284 1.130594 2.311066
v 4.947284 0.069404 2.311066
v 4.947079 0.062554 2.296177
v 4.947078 1.137444 2.296178
v 4.946475 0.060188 2.285601
v 4.946474 1.139810 2.285602
v 4.920068 1.120503 2.330859
v 4.920068 0.079494 2.330859
v 4.894757 1.106287 2.349268
v 4.894757 0.093711 2.349268
v 4.885787 1.141665 2.260690
v 4.885787 0.058332 2.260690
v 4.883559 1.097458 2.357412
v 4.883559 0.102540 2.357412
v 4.878519 1.109865 2.349533
v 4.878519 0.090134 2.349532
v 4.878158 0.058846 2.276846
v 4.878156 1.141152 2.276847
v 4.873776 0.082671 2.343898
v 4.873775 1.117327 2.343899
v 4.873730 1.087389 2.364560
v 4.873730 0.112609 2.364560
v 4.872587 0.060268 2.291775
v 4.872585 1.139729 2.291776
v 4.870177 0.076134 2.336690
v 4.870176 1.123864 2.336691
v 4.869088 0.062673 2.305329
v 4.869085 1.137325 2.305330
v 4.868037 0.070599 2.327854
v 4.868035 1.129399 2.327855
v 4.867610 0.066109 2.317384
v 4.867609 1.133889 2.317386
v 4.865567 1.076012 2.370497
v 4.865567 0.123986 2.370497
v 4.862203 1.069811 2.372943
v 4.862203 0.130187 2.372943
v 4.859367 1.063256 2.375005
v 4.859367 0.136742 2.375005
v 4.857098 1.056340 2.376657
v 4.857098 0.143658 2.376657
v 4.855430 1.049053 2.377869
v 4.855430 0.150945 2.377869
v 4.854402 1.041387 2.378617
v 4.854402 0.158611 2.378617
v 4.854051 1.033332 2.378872
v 4.854051 0.166666 2.378872
v 4.854025 0.166670 2.378890
v 4.854015 1.033327 2.378898
v 4.780843 1.133640 2.332897
v 4.780841 0.066359 2.332899
v 4.776444 1.129119 2.346870
v 4.776441 0.070880 2.346872
v 4.774272 1.109566 2.377748
v 4.774267 0.090433 2.377751
v 4.774045 1.123566 2.359005
v 4.774042 0.076433 2.359007
v 4.773419 1.117023 2.369283
v 4.773415 0.082976 2.369287
v 4.755023 1.141665 2.260690
v 4.719771 1.139435 2.307765
v 4.719768 0.060564 2.307767
v 4.694077 1.133392 2.348408
v 4.694071 0.066607 2.348413
v 4.684853 1.128839 2.365885
v 4.684845 0.071161 2.365891
v 4.677915 1.123266 2.381318
v 4.677906 0.076734 2.381324
v 4.673064 1.116717 2.394669
v 4.673054 0.083282 2.394675
v 4.670026 1.109267 2.405963
v 4.670016 0.090733 2.405970
v 4.668860 1.052933 2.439543
v 4.668853 0.147066 2.439547
v 4.668676 1.072915 2.433321
v 4.668667 0.127084 2.433328
v 4.667994 1.092114 2.422818
v 4.667983 0.107885 2.422825
v 4.665858 1.033330 2.443719
v 4.655996 1.141665 2.260690
v 4.655996 0.058332 2.260690
v 4.550000 1.141665 0.236364
v 4.550000 0.058332 0.236364
v 4.532255 1.137115 2.350683
v 4.532255 0.062882 2.350683
v 4.519558 0.066957 2.380169
v 4.519556 1.133039 2.380171
v 4.507473 1.137115 0.205435
v 4.507473 0.062882 0.205435
v 4.484280 0.077127 2.426972
v 4.484273 1.122869 2.426976
v 4.480733 1.130594 0.185988
v 4.480733 0.069404 0.185988
v 4.464910 1.130595 2.399662
v 4.464910 0.069404 2.399662
v 4.459937 0.091094 2.463587
v 4.459926 1.108900 2.463594
v 4.453517 1.120503 0.166194
v 4.453517 0.079494 0.166194
v 4.444402 0.108163 2.490275
v 4.444388 1.091830 2.490284
v 4.434462 0.127252 2.508523
v 4.434447 1.072741 2.508533
v 4.428205 1.106287 0.147786
v 4.428205 0.093711 0.147786
v 4.426495 0.147130 2.520692
v 4.426484 1.052863 2.520700
v 4.417197 0.166659 2.529464
v 4.417192 1.033338 2.529468
v 4.417007 1.097458 0.139642
v 4.417007 0.102540 0.139642
v 4.407178 1.087389 0.132493
v 4.407178 0.112609 0.132493
v 4.399015 1.076012 0.126557
v 4.399015 0.123986 0.126557
v 4.397087 1.120503 2.448987
v 4.397087 0.079494 2.448987
v 4.395652 1.069811 0.124110
v 4.395652 0.130187 0.124110
v 4.392817 1.063256 0.122048
v 4.392817 0.136742 0.122048
v 4.390546 1.056340 0.120397
v 4.390546 0.143658 0.120397
v 4.388879 1.049053 0.119184
v 4.388879 0.150945 0.119184
v 4.387851 1.041387 0.118437
v 4.387851 0.158611 0.118437
v 4.387500 1.033332 0.118182
v 4.387500 0.166666 0.118182
v 4.354700 1.139857 0.214859
v 4.354700 1.124007 0.171693
v 4.354700 1.109936 0.152796
v 4.354700 1.092613 0.137446
v 4.354700 1.073209 0.126480
v 4.354700 1.053045 0.120155
v 4.354700 0.166666 0.118182
v 4.354700 0.126789 0.126480
v 4.354700 0.107385 0.137446
v 4.354700 0.090062 0.152796
v 4.354700 0.075991 0.171693
v 4.354700 0.065939 0.192862
v 4.354700 0.060141 0.214859
v 4.354700 0.058332 0.236364
v 4.331169 1.106287 2.496928
v 4.331169 0.093712 2.496928
v 4.279584 1.200000 2.796666
v 4.279584 1.200000 0.039697
v 4.279584 0.000000 2.796666
v 4.279584 0.000000 0.039697
v 4.269535 1.087390 2.541753
v 4.269535 0.112609 2.541753
v 4.252038 1.200000 2.813669
v 4.252038 1.200000 0.022695
v 4.252038 0.000000 2.813669
v 4.252038 0.000000 0.022695
v 4.222185 1.200000 2.826222
v 4.222185 1.200000 0.010142
v 4.222185 0.000000 2.826222
v 4.222185 0.000000 0.010142
v 4.214567 1.063257 2.581730
v 4.214567 0.136743 2.581730
v 4.190963 1.200000 2.833842
v 4.190963 1.200000 0.002522
v 4.190963 0.000000 2.833842
v 4.190963 0.000000 0.002522
v 4.190326 1.049053 2.599360
v 4.190326 0.150946 2.599360
v 4.189445 1.141665 0.236364
v 4.189445 0.058332 0.236364
v 4.178460 1.141443 0.228795
v 4.178460 0.058555 0.228795
v 4.168644 1.200000 2.615128
v 4.168644 1.200000 0.221235
v 4.168644 1.033333 2.615128
v 4.168644 0.166666 2.615128
v 4.168644 0.000000 2.615128
v 4.168644 0.000000 0.221235
v 4.168536 1.033297 2.615200
v 4.168503 0.166715 2.615222
v 4.166525 1.200000 2.616436
v 4.166525 1.200000 0.219928
v 4.166525 0.000000 2.616436
v 4.166525 0.000000 0.219928
v 4.164228 1.200000 2.617402
v 4.164228 1.200000 0.218962
v 4.164228 0.000000 2.617402
v 4.164228 0.000000 0.218962
v 4.164021 1.140775 0.221235
v 4.164021 0.059223 0.221235
v 4.163594 1.140656 0.220323
v 4.163114 1.140562 0.219596
v 4.163050 0.059420 0.219702
v 4.162587 1.140490 0.219035
v 4.162505 0.059486 0.219186
v 4.162017 1.140435 0.218627
v 4.161927 0.059536 0.218806
v 4.161827 1.200000 2.617988
v 4.161827 1.200000 0.218376
v 4.161827 0.000000 2.617988
v 4.161827 0.000000 0.218376
v 4.161408 1.140399 0.218354
v 4.161323 0.059572 0.218539
v 4.160766 1.140378 0.218199
v 4.160696 0.059596 0.218361
v 4.159399 1.200000 2.836364
v 4.159399 1.200000 2.618182
v 4.159399 1.200000 0.218182
v 4.159399 1.200000 0.000000
v 4.159399 1.140376 0.218182
v 4.159399 1.139857 0.214859
v 4.159399 1.134059 0.192862
v 4.159399 1.124007 0.171693
v 4.159399 1.109936 0.152796
v 4.159399 1.092613 0.137446
v 4.159399 1.073209 0.126480
v 4.159399 1.053045 0.120155
v 4.159399 1.033332 0.118182
v 4.159399 0.166666 0.118182
v 4.159399 0.146953 0.120155
v 4.159399 0.126789 0.126480
v 4.159399 0.107385 0.137446
v 4.159399 0.090062 0.152796
v 4.159399 0.075991 0.171693
v 4.159399 0.065939 0.192862
v 4.159399 0.059622 0.218182
v 4.159399 0.000000 2.836364
v 4.159399 0.000000 2.618182
v 4.159399 0.000000 0.218182
v 4.159399 0.000000 0.000000
v 1.040602 1.200000 2.836364
v 1.040602 1.200000 2.618182
v 1.040602 1.200000 0.218182
v 1.040602 1.200000 0.000000
v 1.040602 0.000000 2.836364
v 1.040602 0.000000 2.618182
v 1.040602 0.000000 0.218182
v 1.040602 0.000000 0.000000
v 1.038174 1.200000 2.617988
v 1.038174 1.200000 0.218376
v 1.038174 0.000000 2.617988
v 1.038174 0.000000 0.218376
v 1.035771 1.200000 2.617402
v 1.035771 1.200000 0.218962
v 1.035771 0.000000 2.617402
v 1.035771 0.000000 0.218962
v 1.033476 1.200000 2.616436
v 1.033476 1.200000 0.219928
v 1.033476 0.000000 2.616436
v 1.033476 0.000000 0.219928
v 1.031357 1.200000 2.615128
v 1.031357 1.200000 0.221235
v 1.031357 0.000000 2.615128
v 1.031357 0.000000 0.221235
v 1.009037 1.200000 2.833842
v 1.009037 1.200000 0.002522
v 1.009037 0.000000 2.833842
v 1.009037 0.000000 0.002522
v 0.977815 1.200000 2.826222
v 0.977815 1.200000 0.010142
v 0.977815 0.000000 2.826222
v 0.977815 0.000000 0.010142
v 0.947962 1.200000 2.813669
v 0.947962 1.200000 0.022695
v 0.947962 0.000000 2.813669
v 0.947962 0.000000 0.022695
v 0.920417 1.200000 2.796666
v 0.920417 1.200000 0.039697
v 0.920417 0.000000 2.796666
v 0.920417 0.000000 0.039697
v 0.207422 1.200000 2.015903
v 0.207422 1.200000 0.820461
v 0.207422 0.000000 2.015903
v 0.207422 0.000000 0.820461
v 0.205833 1.200000 2.014592
v 0.205833 1.200000 0.821772
v 0.205833 0.000000 2.014592
v 0.205833 0.000000 0.821772
v 0.204369 1.200000 2.013046
v 0.204369 1.200000 0.823318
v 0.204369 0.000000 2.013046
v 0.204369 0.000000 0.823318
v 0.203070 1.200000 2.011289
v 0.203070 1.200000 0.825075
v 0.203070 0.000000 2.011289
v 0.203070 0.000000 0.825075
v 0.201972 1.200000 2.009354
v 0.201972 1.200000 0.827010
v 0.201972 0.000000 2.009354
v 0.201972 0.000000 0.827010
v 0.201105 1.200000 2.007285
v 0.201105 1.200000 0.829079
v 0.201105 0.000000 2.007285
v 0.201105 0.000000 0.829079
v 0.200485 1.200000 2.005131
v 0.200485 1.200000 0.831233
v 0.200485 0.000000 2.005131
v 0.200485 0.000000 0.831233
v 0.200119 1.200000 2.002944
v 0.200119 1.200000 0.833420
v 0.200119 0.000000 2.002944
v 0.200119 0.000000 0.833420
v 0.200000 1.200000 2.000775
v 0.200000 1.200000 0.835589
v 0.200000 0.000000 2.000775
v 0.200000 0.000000 0.835589
v 0.096481 1.200000 2.197441
v 0.096481 1.200000 0.638922
v 0.096481 0.800000 2.197441
v 0.096481 0.800000 0.638922
v 0.096481 0.400000 2.197441
v 0.096481 0.400000 0.638922
v 0.096481 0.000000 2.197441
v 0.096481 0.000000 0.638922
v 0.075831 1.200000 2.180394
v 0.075831 1.200000 0.655970
v 0.075831 0.800000 2.180394
v 0.075831 0.800000 0.655970
v 0.075831 0.400000 2.180394
v 0.075831 0.400000 0.655970
v 0.075831 0.000000 2.180394
v 0.075831 0.000000 0.655970
v 0.056791 1.200000 2.160302
v 0.056791 1.200000 0.676062
v 0.056791 0.800000 2.160302
v 0.056791 0.800000 0.676062
v 0.056791 0.400000 2.160302
v 0.056791 0.400000 0.676062
v 0.056791 0.000000 2.160302
v 0.056791 0.000000 0.676062
v 0.039902 1.200000 2.137458
v 0.039902 1.200000 0.698905
v 0.039902 0.800000 2.137458
v 0.039902 0.800000 0.698905
v 0.039902 0.400000 2.137458
v 0.039902 0.400000 0.698905
v 0.039902 0.000000 2.137458
v 0.039902 0.000000 0.698905
v 0.025638 1.200000 2.112305
v 0.025638 1.200000 0.724059
v 0.025638 0.800000 2.112305
v 0.025638 0.800000 0.724059
v 0.025638 0.400000 2.112305
v 0.025638 0.400000 0.724059
v 0.025638 0.000000 2.112305
v 0.025638 0.000000 0.724059
v 0.014364 1.200000 2.085405
v 0.014364 1.200000 0.750959
v 0.014364 0.800000 2.085405
v 0.014364 0.800000 0.750959
v 0.014364 0.400000 2.085405
v 0.014364 0.400000 0.750959
v 0.014364 0.000000 2.085405
v 0.014364 0.000000 0.750959
v 0.006310 1.200000 2.057403
v 0.006310 1.200000 0.778961
v 0.006310 0.800000 2.057403
v 0.006310 0.800000 0.778961
v 0.006310 0.400000 2.057403
v 0.006310 0.400000 0.778961
v 0.006310 0.000000 2.057403
v 0.006310 0.000000 0.778961
v 0.001548 1.200000 2.028975
v 0.001548 1.200000 0.807389
v 0.001548 0.800000 2.028975
v 0.001548 0.800000 0.807389
v 0.001548 0.400000 2.028975
v 0.001548 0.400000 0.807389
v 0.001548 0.000000 2.028975
v 0.001548 0.000000 0.807389
v 0.000000 1.200000 2.000775
v 0.000000 1.200000 0.835589
v 0.000000 0.800000 2.000775
v 0.000000 0.800000 0.835589
v 0.000000 0.400000 2.000775
v 0.000000 0.400000 0.835589
v 0.000000 0.000000 2.000775
v 0.000000 0.000000 0.835589

vn 0.624317 0.780983 0.017121
vn 0.446911 0.894494 -0.012256
vn 0.999624 0.000000 0.027413
vn 0.999624 0.000000 -0.027413
vn 0.274522 -0.961551 0.007528
vn 0.447019 -0.894487 -0.008170
vn 0.393545 0.919193 0.014393
vn 0.554347 0.832147 -0.015202
vn 0.999624 0.000000 0.027413
vn 0.371131 -0.928525 0.010177
vn 0.706708 -0.707240 -0.019380
vn 0.443013 0.894673 0.057448
vn 0.550733 0.832446 -0.061056
vn 0.993911 0.000000 0.110188
vn 0.944553 -0.316619 0.087019
vn 0.964147 -0.242889 -0.106888
vn 0.940677 0.316619 0.121982
vn 0.888706 0.447767 -0.098524
vn 0.993911 0.000000 0.110188
vn 0.990942 0.000000 -0.134291
vn 0.444839 -0.894673 0.040982
vn 0.313865 -0.948830 -0.034796
vn 0.581968 0.800416 0.143691
vn 0.435569 0.894718 -0.098789
vn 0.975231 0.000000 0.221188
vn 0.975231 0.000000 -0.221188
vn 0.814434 -0.555256 0.168489
vn 0.807432 -0.555256 -0.199360
vn 0.807432 0.555256 0.199360
vn 0.818081 0.544319 -0.185634
vn 0.975231 0.000000 0.221188
vn 0.587014 -0.800416 0.121441
vn 0.589849 -0.796344 -0.133845
vn 0.778957 0.555282 0.291356
vn 0.789713 0.555282 -0.260799
vn 0.943272 0.000000 0.332022
vn 0.943272 0.000000 -0.332021
vn 0.789712 -0.555282 0.260799
vn 0.778957 -0.555282 -0.291356
vn 0.778957 0.555282 0.291356
vn 0.666425 0.707709 -0.234574
vn 0.943272 0.000000 0.332022
vn 0.951126 0.000000 -0.308804
vn 0.789712 -0.555282 0.260799
vn 0.778957 -0.555282 -0.291356
vn 0.739120 0.555305 0.381232
vn 0.753677 0.555305 -0.351579
vn 0.897671 0.000000 0.440666
vn 0.897671 0.000000 -0.440665
vn 0.753676 -0.555305 0.351580
vn 0.739120 -0.555305 -0.381232
vn 0.739120 0.555305 0.381232
vn 0.753677 0.555305 -0.351579
vn 0.897671 0.000000 0.440666
vn 0.897671 0.000000 -0.440665
vn 0.753676 -0.555305 0.351580
vn 0.739120 -0.555305 -0.381232
vn 0.688058 0.555323 0.467111
vn 0.706322 0.555323 -0.439005
vn 0.838508 0.000000 0.544890
vn 0.838507 0.000000 -0.544891
vn 0.600071 -0.707680 0.372966
vn 0.584554 -0.707680 -0.396845
vn 0.464533 0.832517 0.301869
vn 0.600071 0.707680 -0.372966
vn 0.824188 0.000000 0.566317
vn 0.838507 0.000000 -0.544891
vn 0.706322 -0.555323 0.439004
vn 0.688057 -0.555323 -0.467112
vn 0.541412 0.707763 0.453810
vn 0.648078 0.555334 -0.521151
vn 0.766385 0.000000 0.642382
vn 0.766384 0.000000 -0.642383
vn 0.648079 -0.555334 0.521150
vn 0.626350 -0.555334 -0.547073
vn 0.643196 0.544016 0.538836
vn 0.648078 0.555334 -0.521151
vn 0.766384 0.000000 -0.642383
vn 0.643197 -0.544016 0.538836
vn 0.626350 -0.555334 -0.547073
vn 0.610221 0.447881 0.653477
vn 0.579855 0.555337 -0.596128
vn 0.682504 0.000000 -0.730881
vn 0.610221 -0.447881 0.653477
vn 0.482153 -0.707766 -0.516329
vn 0.482152 0.707766 0.516330
vn 0.579855 0.555337 -0.596128
vn 0.701501 0.000000 0.712669
vn 0.682504 0.000000 -0.730881
vn 0.482152 -0.707766 0.516330
vn 0.555086 -0.555337 -0.619258
vn 0.512775 0.514612 0.687194
vn 0.490068 0.600181 -0.632152
vn 0.617524 0.000000 0.786552
vn 0.339747 -0.832171 0.438251
vn 0.438835 -0.707255 -0.554269
vn 0.438834 0.707254 0.554271
vn 0.438835 0.707255 -0.554269
vn 0.617525 0.000000 -0.786551
vn 0.540703 -0.447365 0.712394
vn 0.427411 -0.707254 -0.563126
vn 0.301309 -0.880749 0.365370
vn 0.212008 0.947627 0.238865
vn -0.831827 0.554828 -0.015161
vn -0.554349 0.832146 0.015160
vn -0.688709 -0.707606 -0.158029
vn -0.692453 -0.708644 0.135401
vn -0.744355 0.651729 -0.145550
vn -0.633113 0.760305 0.145272
vn -0.706710 -0.707239 -0.019326
vn -0.706872 -0.707224 0.012884
vn -0.701526 0.708388 -0.077771
vn -0.701526 0.708388 0.077771
vn -0.701526 -0.708388 -0.077771
vn -0.701526 -0.708388 0.077771
vn -0.538244 0.833898 -0.122099
vn -0.538244 0.833898 0.122099
vn -0.538244 -0.833898 -0.122099
vn -0.538244 -0.833898 0.122099
vn -0.660018 0.714446 -0.232257
vn -0.660018 0.714446 0.232257
vn -0.660018 -0.714446 -0.232257
vn -0.660018 -0.714446 0.232257
vn -0.736659 0.571489 -0.361571
vn -0.736660 0.571489 0.361571
vn -0.736659 -0.571489 -0.361571
vn -0.736659 -0.571489 0.361571
vn -0.586562 0.714581 -0.381208
vn -0.586565 0.714581 0.381203
vn -0.586562 -0.714581 -0.381207
vn -0.586565 -0.714581 0.381203
vn -0.422870 0.834001 -0.354434
vn -0.422873 0.834001 0.354430
vn -0.422870 -0.834001 -0.354434
vn -0.422873 -0.834001 0.354430
vn -0.481627 0.708525 -0.515778
vn -0.481627 0.708525 0.515778
vn -0.481627 -0.708525 -0.515778
vn -0.481627 -0.708525 0.515778
vn -0.212206 0.936377 -0.279582
vn -0.212205 0.936377 0.279582
vn -0.540702 -0.708246 -0.453904
vn -0.686402 -0.443660 0.576210
vn -0.588239 0.640412 -0.493809
vn -0.637927 0.553416 0.535518
vn -0.212206 -0.936377 -0.279582
vn -0.212206 -0.936377 0.279582
vn 0.209396 -0.974762 0.077416
vn 0.209399 0.974761 0.077420
vn 0.000000 -0.999836 -0.018086
vn 0.000000 0.999836 -0.018087
vn -0.089317 0.905267 -0.415349
vn -0.089323 -0.905264 -0.415354
vn -0.004193 0.997695 -0.067729
vn -0.004194 -0.997695 -0.067727
vn 0.269925 -0.962169 -0.037044
vn 0.269931 0.962167 -0.037033
vn -0.038183 0.965771 -0.256572
vn -0.038186 -0.965769 -0.256576
vn -0.023684 0.986367 -0.162850
vn -0.023686 -0.986366 -0.162851
vn 0.193825 -0.921322 -0.337043
vn 0.193841 0.921321 -0.337035
vn 0.301562 -0.909538 -0.286009
vn 0.301571 0.909566 -0.285911
vn -0.000170 -0.999800 -0.020012
vn 0.000712 0.999708 -0.024168
vn 0.273820 -0.839954 -0.468508
vn 0.273805 0.839955 -0.468516
vn -0.171941 -0.683105 -0.709791
vn -0.171933 0.683133 -0.709766
vn -0.003149 0.997201 -0.074702
vn -0.003167 -0.997520 -0.070309
vn -0.153488 0.742850 -0.651626
vn -0.153482 -0.742853 -0.651623
vn 0.239985 -0.713049 -0.658763
vn 0.239963 0.713050 -0.658770
vn -0.013793 0.987909 -0.154419
vn -0.013795 -0.987909 -0.154419
vn -0.114740 0.827299 -0.549919
vn -0.114745 -0.827289 -0.549933
vn -0.029659 0.970249 -0.240286
vn -0.029662 -0.970249 -0.240285
vn -0.080219 0.900548 -0.427293
vn -0.080223 -0.900543 -0.427302
vn -0.060296 0.923919 -0.377806
vn -0.060302 -0.923917 -0.377811
vn 0.743384 -0.601645 -0.292238
vn 0.743380 0.601647 -0.292246
vn 0.790026 -0.507064 -0.344594
vn 0.790022 0.507065 -0.344603
vn 0.204913 -0.430707 -0.878921
vn 0.204885 0.430672 -0.878945
vn 0.849931 -0.321287 -0.417602
vn 0.849929 0.321288 -0.417607
vn 0.871930 -0.216077 -0.439373
vn 0.871927 0.216077 -0.439378
vn 0.175360 -0.174694 -0.968881
vn 0.885416 0.109439 -0.451732
vn 0.588171 -0.000004 0.808737
vn 0.588171 0.000006 0.808737
vn -0.322324 0.042278 -0.945685
vn -0.325709 -0.008647 -0.945431
vn -0.046413 -0.959185 -0.278943
vn -0.046410 0.959186 -0.278942
vn -0.077180 -0.920012 -0.384214
vn -0.077178 0.920018 -0.384201
vn -0.182631 -0.696014 -0.694413
vn -0.182636 0.696031 -0.694396
vn -0.111458 -0.863902 -0.491173
vn -0.111458 0.863910 -0.491158
vn -0.139184 -0.810527 -0.568924
vn -0.139187 0.810534 -0.568913
vn 0.000373 -0.999687 -0.025008
vn -0.011317 -0.993129 -0.116479
vn -0.010912 0.993372 -0.114427
vn -0.039169 -0.973411 -0.225692
vn -0.039171 0.973412 -0.225689
vn -0.067576 -0.941741 -0.329479
vn -0.067578 0.941746 -0.329467
vn -0.103680 -0.889135 -0.445745
vn -0.103682 0.889140 -0.445736
vn -0.133018 -0.839963 -0.526088
vn -0.133020 0.839967 -0.526081
vn -0.174020 -0.744149 -0.644949
vn -0.174019 0.744155 -0.644943
vn -0.308066 -0.194738 -0.931221
vn -0.308936 0.187985 -0.932320
vn -0.280049 -0.349746 -0.894008
vn -0.280053 0.349735 -0.894011
vn -0.222917 -0.592435 -0.774163
vn -0.222918 0.592438 -0.774161
vn -0.322788 -0.083266 -0.942801
vn -0.410436 -0.697734 -0.587120
vn -0.410435 0.697731 -0.587124
vn 0.360510 -0.817751 -0.448683
vn 0.425665 0.723325 -0.543700
vn -0.264093 -0.850928 -0.454066
vn -0.264089 0.850933 -0.454060
vn -0.033567 0.977034 -0.210423
vn -0.033583 -0.977026 -0.210455
vn 0.461485 -0.763483 -0.451801
vn 0.357204 0.893911 -0.270792
vn -0.071232 0.936665 -0.342907
vn -0.071244 -0.936654 -0.342934
vn 0.386856 -0.907685 -0.162635
vn 0.387176 0.912301 -0.133421
vn -0.323419 -0.750488 -0.576340
vn -0.323393 0.750522 -0.576311
vn -0.133408 0.837246 -0.530304
vn -0.133416 -0.837241 -0.530309
vn 0.428467 -0.903377 0.018070
vn 0.428467 0.903377 0.018070
vn -0.196526 0.693167 -0.693468
vn -0.196536 -0.693157 -0.693474
vn -0.254234 0.512066 -0.820460
vn -0.254242 -0.512064 -0.820458
vn 0.620686 -0.770140 -0.147083
vn 0.620686 0.770140 -0.147083
vn -0.286299 0.386199 -0.876860
vn -0.293617 -0.347518 -0.890517
vn -0.318394 0.163891 -0.933684
vn -0.319211 -0.165163 -0.933180
vn 0.515513 -0.810885 0.276970
vn 0.515513 0.810885 0.276970
vn 0.567830 -0.705607 0.423897
vn 0.567830 0.705606 0.423897
vn 0.813998 -0.567627 0.123318
vn 0.813998 0.567627 0.123318
vn -0.334699 -0.684807 -0.647314
vn -0.334684 0.684827 -0.647301
vn 0.857834 -0.481226 0.180396
vn 0.857834 0.481226 0.180396
vn 0.637124 -0.430757 0.639158
vn 0.435622 0.448999 0.780150
vn 0.915542 -0.307409 0.259388
vn 0.913964 0.307797 0.264445
vn 0.936471 -0.206759 0.283323
vn 0.934771 0.207375 0.288441
vn 0.447172 -0.140746 0.883305
vn 0.443678 0.097760 0.890838
vn 0.950924 -0.017068 0.308954
vn 0.950791 0.025598 0.308775
vn -0.001185 -0.984599 0.174823
vn -0.000341 -0.885030 0.465534
vn 0.006807 -0.748204 0.663434
vn 0.012688 -0.596583 0.802451
vn 0.018338 -0.407048 0.913223
vn 0.010493 -0.221526 0.975098
vn 0.000000 0.012667 0.999920
vn 0.018932 0.427511 0.903812
vn 0.012689 0.567957 0.822960
vn 0.006807 0.728338 0.685184
vn -0.000416 0.853785 0.520626
vn -0.001866 0.934735 0.355341
vn -0.001258 0.987943 0.154812
vn -0.000469 0.999223 0.039412
vn -0.354744 -0.590198 -0.725137
vn -0.354735 0.590207 -0.725134
vn 0.525532 0.422999 0.738165
vn 0.535331 0.400876 -0.743451
vn 0.529268 -0.422946 0.735522
vn 0.541797 -0.362536 -0.758303
vn -0.379840 -0.471597 -0.795813
vn -0.379836 0.471602 -0.795812
vn 0.361354 0.555726 0.748727
vn 0.399597 0.555726 -0.729035
vn 0.399597 -0.555726 0.729035
vn 0.361354 -0.555726 -0.748727
vn 0.239493 0.555775 0.796089
vn 0.281316 0.555775 -0.782289
vn 0.281317 -0.555775 0.782288
vn 0.239492 -0.555775 -0.796089
vn -0.404296 -0.353218 -0.843672
vn -0.404294 0.353225 -0.843669
vn 0.125664 0.317035 0.940052
vn 0.175590 0.317035 -0.932018
vn 0.175590 -0.317035 0.932018
vn 0.125665 -0.317035 -0.940051
vn -0.421040 -0.263118 -0.868041
vn -0.421040 0.263166 -0.868026
vn -0.406426 -0.693220 0.595201
vn -0.481874 0.549457 0.682564
vn -0.362081 -0.678045 0.639650
vn -0.283112 0.804317 0.522419
vn -0.556629 0.263222 -0.787958
vn -0.425023 0.611872 0.667059
vn -0.588171 0.000000 -0.808737
vn -0.588171 0.000000 -0.808737
vn -0.557471 -0.287416 -0.778857
vn -0.425023 -0.611872 0.667059
vn -0.317206 -0.229679 -0.920124
vn -0.322128 0.152695 -0.934301
vn -0.361346 0.555726 -0.748731
vn -0.512909 0.596053 0.617775
vn -0.399590 -0.555726 -0.729038
vn -0.490944 -0.588287 0.642567
vn -0.239502 0.555775 -0.796086
vn -0.504125 0.477795 0.719423
vn -0.281316 -0.555775 -0.782289
vn -0.367275 -0.573892 0.731954
vn -0.532515 -0.522460 0.665931
vn -0.509497 0.516290 0.688373
vn -0.597611 -0.529681 0.601913
vn -0.539134 -0.668084 0.512833
vn -0.529408 0.521223 0.669368
vn -0.419324 -0.528242 0.738328
vn -0.398024 0.524193 0.752860
vn -0.333620 -0.664428 0.668755
vn -0.478723 -0.005535 0.877949
vn -0.110126 0.555790 -0.823996
vn -0.290636 0.378847 0.878638
vn -0.153910 -0.555790 -0.816951
vn -0.289682 -0.380510 0.878235
vn -0.323225 0.001917 0.946320
vn -0.339492 -0.005446 0.940593
vn -0.109223 -0.000086 0.994017
vn -0.128501 0.517792 0.845801
vn 0.014789 0.928578 0.370842
vn -0.017797 0.894569 -0.446575
vn -0.021756 0.707142 0.706737
vn 0.022092 0.832254 -0.553955
vn 0.204580 -0.410194 0.888756
vn 0.832389 -0.542440 0.113523
vn 0.706836 -0.664250 0.243216
vn 0.708627 -0.592281 0.383472
vn 0.708768 -0.502870 0.494742
vn 0.708851 -0.389218 0.588252
vn 0.556593 -0.303510 0.773360
vn 0.318002 -0.172785 0.932213
vn 0.707612 -0.023205 0.706220
vn 0.707696 0.030937 0.705840
vn 0.199341 0.175697 0.964051
vn 0.449517 0.378843 0.808958
vn 0.858611 0.312269 0.406541
vn 0.708768 0.535671 0.459026
vn 0.708627 0.616203 0.343718
vn 0.708745 0.670732 0.218631
vn 0.430963 0.453050 0.780396
vn 0.024880 -0.781111 0.623896
vn -0.028146 -0.707387 -0.706266
vn -0.051085 -0.707817 0.704546
vn 0.012592 -0.948759 -0.315751
vn -0.022091 0.832254 0.553955
vn 0.031847 0.600305 -0.799137
vn 0.015931 0.800203 0.599517
vn -0.014789 0.928578 -0.370842
vn -0.012592 -0.948759 0.315751
vn 0.022076 -0.832253 -0.553956
vn 0.024885 -0.624986 0.780240
vn -0.024881 -0.781111 -0.623896
vn 0.153885 0.555789 -0.816956
vn 0.110134 0.555788 0.823996
vn 0.110114 -0.555789 -0.823998
vn 0.153879 -0.555788 0.816958
vn 0.281381 0.555777 -0.782264
vn 0.239497 0.555778 0.796085
vn 0.239516 -0.555777 -0.796080
vn 0.281374 -0.555778 0.782266
vn 0.399627 0.555724 -0.729020
vn 0.361416 0.555723 0.748699
vn 0.361421 -0.555724 -0.748696
vn 0.399613 -0.555723 0.729027
vn 0.308873 0.832234 -0.460417
vn 0.445559 0.600276 0.664188
vn 0.445570 -0.600276 -0.664181
vn 0.308866 -0.832234 0.460421
vn -0.175588 0.317035 0.932018
vn -0.125664 0.317035 -0.940052
vn -0.125662 -0.317035 0.940052
vn -0.175587 -0.317035 -0.932018
vn -0.281319 0.555775 0.782287
vn -0.239491 0.555775 -0.796089
vn -0.239493 -0.555775 0.796089
vn -0.281318 -0.555775 -0.782288
vn -0.399602 0.555726 0.729032
vn -0.361359 0.555726 -0.748725
vn -0.361359 -0.555726 0.748725
vn -0.399602 -0.555726 -0.729032
vn -0.284048 0.868358 0.406535
vn -0.327316 0.813923 -0.479994
vn -0.276255 -0.868397 0.411789
vn -0.223453 -0.919236 -0.324151
vn 0.273878 0.894511 -0.353328
vn 0.148522 0.970169 0.191607
vn 0.148522 -0.970169 -0.191607
vn 0.273878 -0.894511 0.353328
vn 0.579811 0.555338 -0.596170
vn 0.555024 0.555338 0.619313
vn 0.555024 -0.555338 -0.619313
vn 0.579811 -0.555338 0.596170
vn 0.550606 0.707692 -0.442725
vn 0.532128 0.707692 0.464771
vn 0.532125 -0.707692 -0.464774
vn 0.550610 -0.707692 0.442719
vn 0.706287 0.555320 -0.439066
vn 0.688067 0.555320 0.467101
vn 0.688062 -0.555320 -0.467109
vn 0.706289 -0.555320 0.439062
vn 0.753676 0.555308 -0.351577
vn 0.739085 0.555308 0.381295
vn 0.739085 -0.555308 -0.381295
vn 0.753676 -0.555308 0.351577
vn 0.789697 0.555280 -0.260850
vn 0.778962 0.555280 0.291346
vn 0.778962 -0.555280 -0.291346
vn 0.789697 -0.555280 0.260850
vn 0.691941 0.707620 -0.143150
vn 0.685980 0.707620 0.169425
vn 0.685980 -0.707620 -0.169425
vn 0.691941 -0.707620 0.143150
vn 0.828190 0.555226 -0.076318
vn 0.824796 0.555226 0.106938
vn 0.824796 -0.555226 -0.106938
vn 0.828190 -0.555226 0.076318
vn 0.706707 0.707240 -0.019404
vn 0.799590 0.600145 0.021954
vn 0.894023 -0.447348 -0.024547
vn 0.554347 -0.832147 0.015220
vn -0.438834 0.707254 0.554271
vn -0.339748 0.832171 -0.438250
vn -0.617523 0.000000 0.786552
vn -0.617525 0.000000 -0.786551
vn -0.612687 0.000000 0.790325
vn -0.612689 0.000000 -0.790324
vn -0.339747 -0.832171 0.438251
vn -0.438835 -0.707255 -0.554270
vn -0.579864 0.555337 0.596119
vn -0.555091 0.555337 -0.619254
vn -0.673523 0.000000 0.739166
vn -0.688872 0.000000 -0.724883
vn -0.688871 0.000000 0.724884
vn -0.673524 0.000000 -0.739165
vn -0.555089 -0.555337 0.619255
vn -0.579865 -0.555337 -0.596119
vn -0.648083 0.555334 0.521145
vn -0.626359 0.555334 -0.547063
vn -0.753174 0.000000 0.657822
vn -0.779295 0.000000 -0.626658
vn -0.779296 0.000000 0.626657
vn -0.753173 0.000000 -0.657822
vn -0.626360 -0.555334 0.547063
vn -0.648083 -0.555334 -0.521146
vn -0.706322 0.555323 0.439004
vn -0.688057 0.555323 -0.467112
vn -0.827356 0.000000 0.561678
vn -0.849318 0.000000 -0.527882
vn -0.849318 0.000000 0.527881
vn -0.827355 0.000000 -0.561679
vn -0.688058 -0.555323 0.467111
vn -0.706322 -0.555323 -0.439005
vn -0.753669 0.555305 0.351595
vn -0.739116 0.555305 -0.381240
vn -0.888738 0.000000 0.458415
vn -0.906238 0.000000 -0.422769
vn -0.906237 0.000000 0.422769
vn -0.888738 0.000000 -0.458415
vn -0.739116 -0.555305 0.381240
vn -0.753670 -0.555305 -0.351594
vn -0.789712 0.555282 0.260798
vn -0.778952 0.555282 -0.291367
vn -0.936621 0.000000 0.350344
vn -0.949560 0.000000 -0.313587
vn -0.949559 0.000000 0.313587
vn -0.936621 0.000000 -0.350343
vn -0.778952 -0.555282 0.291368
vn -0.789712 -0.555282 -0.260798
vn -0.587015 0.800416 0.121438
vn -0.581969 0.800416 -0.143685
vn -0.970848 0.000000 0.239697
vn -0.979265 0.000000 -0.202583
vn -0.979265 0.000000 0.202583
vn -0.970848 0.000000 -0.239697
vn -0.581969 -0.800416 0.143685
vn -0.587015 -0.800416 -0.121437
vn -0.444839 0.894673 0.040982
vn -0.443013 0.894673 -0.057448
vn -0.993004 0.000000 0.118084
vn -0.995075 0.000000 -0.099122
vn -0.995075 0.000000 0.099122
vn -0.993004 0.000000 -0.118083
vn -0.443013 -0.894673 0.057448
vn -0.444839 -0.894673 -0.040982
vn -0.371131 0.928525 0.010177
vn -0.706708 0.707240 -0.019380
vn -0.999624 0.000000 0.027413
vn -0.999624 0.000000 -0.027413
vn -0.999624 0.000000 0.027413
vn -0.999624 0.000000 -0.027413
vn -0.624317 -0.780983 0.017121
vn -0.446911 -0.894494 -0.012256

f 422//422 464//464 466//466
f 420//420 462//462 464//464
f 460//460 462//462 420//420
f 422//422 420//420 464//464
f 384//384 388//388 380//380
f 199//199 302//302 197//197
f 195//195 197//197 302//302
f 302//302 199//199 201//201
f 200//200 302//302 201//201
f 302//302 189//189 191//191
f 302//302 193//193 195//195
f 302//302 191//191 193//193
f 189//189 302//302 177//177
f 300//300 200//200 198//198
f 194//194 300//300 196//196
f 198//198 196//196 300//300
f 302//302 200//200 300//300
f 300//300 194//194 192//192
f 300//300 188//188 176//176
f 300//300 190//190 188//188
f 300//300 192//192 190//190
f 168//168 300//300 176//176
f 302//302 163//163 165//165
f 302//302 169//169 177//177
f 302//302 165//165 169//169
f 97//97 103//103 100//100
f 149//149 100//100 103//103
f 100//100 149//149 157//157
f 302//302 157//157 163//163
f 157//157 302//302 100//100
f 300//300 168//168 164//164
f 300//300 156//156 92//92
f 300//300 164//164 162//162
f 92//92 102//102 94//94
f 95//95 94//94 102//102
f 148//148 102//102 92//92
f 156//156 148//148 92//92
f 162//162 156//156 300//300
f 3//3 5//5 6//6
f 1//1 3//3 4//4
f 237//237 99//99 101//101
f 99//99 237//237 98//98
f 237//237 101//101 303//303
f 303//303 247//247 243//243
f 303//303 259//259 253//253
f 253//253 247//247 303//303
f 243//243 237//237 303//303
f 301//301 236//236 242//242
f 236//236 93//93 96//96
f 93//93 236//236 301//301
f 301//301 252//252 258//258
f 301//301 246//246 252//252
f 258//258 264//264 301//301
f 301//301 242//242 246//246
f 265//265 259//259 303//303
f 303//303 269//269 267//267
f 303//303 275//275 273//273
f 273//273 269//269 303//303
f 279//279 277//277 303//303
f 275//275 303//303 277//277
f 303//303 281//281 279//279
f 303//303 283//283 281//281
f 283//283 303//303 282//282
f 303//303 267//267 265//265
f 301//301 272//272 274//274
f 301//301 266//266 268//268
f 268//268 272//272 301//301
f 301//301 280//280 282//282
f 301//301 276//276 278//278
f 280//280 301//301 278//278
f 274//274 276//276 301//301
f 301//301 282//282 303//303
f 264//264 266//266 301//301
f 362//362 383//383 391//391
f 421//421 423//423 465//465
f 467//467 465//465 423//423
f 421//421 463//463 461//461
f 529//529 531//531 530//530
f 525//525 527//527 526//526
f 527//527 529//529 528//528
f 135//135 33//33 22//22
f 147//147 45//45 33//33
f 80//80 69//69 147//147
f 57//57 147//147 69//69
f 147//147 57//57 45//45
f 147//147 91//91 80//80
f 115//115 11//11 111//111
f 22//22 11//11 119//119
f 10//10 111//111 11//11
f 22//22 123//123 127//127
f 11//11 115//115 119//119
f 22//22 119//119 123//123
f 131//131 22//22 127//127
f 147//147 101//101 91//91
f 309//309 303//303 383//383
f 313//313 309//309 383//383
f 303//303 382//382 383//383
f 382//382 303//303 354//354
f 383//383 319//319 313//313
f 341//341 354//354 303//303
f 22//22 131//131 135//135
f 139//139 33//33 135//135
f 303//303 337//337 341//341
f 331//331 101//101 147//147
f 303//303 331//331 337//337
f 139//139 147//147 33//33
f 101//101 331//331 303//303
f 118//118 10//10 21//21
f 111//111 10//10 110//110
f 110//110 10//10 114//114
f 10//10 118//118 114//114
f 21//21 126//126 122//122
f 21//21 122//122 118//118
f 134//134 21//21 32//32
f 56//56 146//146 44//44
f 32//32 44//44 146//146
f 146//146 68//68 79//79
f 79//79 90//90 146//146
f 146//146 56//56 68//68
f 90//90 100//100 146//146
f 130//130 126//126 21//21
f 138//138 32//32 146//146
f 21//21 134//134 130//130
f 100//100 302//302 330//330
f 302//302 340//340 336//336
f 302//302 336//336 330//330
f 146//146 100//100 330//330
f 312//312 380//380 308//308
f 302//302 308//308 380//380
f 381//381 302//302 380//380
f 380//380 312//312 318//318
f 380//380 388//388 381//381
f 353//353 302//302 381//381
f 353//353 340//340 302//302
f 134//134 32//32 138//138
f 390//390 383//383 382//382
f 395//395 423//423 390//390
f 391//391 390//390 423//423
f 391//391 419//419 415//415
f 419//419 391//391 423//423
f 415//415 411//411 391//391
f 399//399 423//423 395//395
f 423//423 399//399 403//403
f 423//423 403//403 407//407
f 427//427 431//431 515//515
f 523//523 435//435 439//439
f 515//515 431//431 435//435
f 467//467 407//407 427//427
f 407//407 467//467 423//423
f 427//427 483//483 475//475
f 491//491 483//483 427//427
f 427//427 507//507 499//499
f 507//507 427//427 515//515
f 499//499 491//491 427//427
f 435//435 523//523 515//515
f 523//523 443//443 447//447
f 523//523 447//447 451//451
f 455//455 531//531 451//451
f 523//523 451//451 531//531
f 530//530 531//531 459//459
f 455//455 459//459 531//531
f 443//443 523//523 439//439
f 467//467 427//427 475//475
f 422//422 406//406 402//402
f 422//422 402//402 398//398
f 522//522 438//438 434//434
f 426//426 406//406 466//466
f 514//514 430//430 426//426
f 466//466 406//406 422//422
f 389//389 388//388 422//422
f 389//389 381//381 388//388
f 394//394 389//389 422//422
f 418//418 388//388 414//414
f 414//414 388//388 410//410
f 422//422 388//388 418//418
f 422//422 398//398 394//394
f 514//514 434//434 430//430
f 522//522 450//450 446//446
f 522//522 446//446 442//442
f 454//454 530//530 458//458
f 459//459 458//458 530//530
f 454//454 450//450 530//530
f 522//522 530//530 450//450
f 434//434 514//514 522//522
f 426//426 466//466 474//474
f 426//426 474//474 482//482
f 426//426 490//490 498//498
f 426//426 482//482 490//490
f 426//426 498//498 506//506
f 426//426 506//506 514//514
f 442//442 438//438 522//522
f 390//390 391//391 383//383
f 133//133 13//13 24//24
f 141//141 24//24 35//35
f 71//71 141//141 59//59
f 47//47 59//59 141//141
f 141//141 35//35 47//47
f 141//141 71//71 82//82
f 113//113 105//105 2//2
f 13//13 117//117 2//2
f 1//1 2//2 105//105
f 13//13 125//125 121//121
f 2//2 117//117 113//113
f 13//13 121//121 117//117
f 129//129 125//125 13//13
f 141//141 82//82 93//93
f 307//307 362//362 301//301
f 311//311 362//362 307//307
f 301//301 362//362 361//361
f 361//361 352//352 301//301
f 362//362 311//311 317//317
f 339//339 301//301 352//352
f 13//13 133//133 129//129
f 137//137 133//133 24//24
f 301//301 339//339 335//335
f 327//327 141//141 93//93
f 301//301 335//335 327//327
f 137//137 24//24 141//141
f 93//93 301//301 327//327
f 116//116 12//12 1//1
f 105//105 104//104 1//1
f 104//104 112//112 1//1
f 1//1 112//112 116//116
f 12//12 120//120 124//124
f 12//12 116//116 120//120
f 132//132 23//23 12//12
f 46//46 34//34 140//140
f 23//23 140//140 34//34
f 140//140 70//70 58//58
f 70//70 140//140 81//81
f 140//140 58//58 46//46
f 81//81 140//140 92//92
f 128//128 12//12 124//124
f 136//136 140//140 23//23
f 12//12 128//128 132//132
f 92//92 326//326 300//300
f 300//300 334//334 338//338
f 300//300 326//326 334//334
f 140//140 326//326 92//92
f 310//310 306//306 359//359
f 300//300 359//359 306//306
f 360//360 359//359 300//300
f 359//359 316//316 310//310
f 359//359 360//360 384//384
f 351//351 360//360 300//300
f 351//351 300//300 338//338
f 132//132 136//136 23//23
f 386//386 361//361 362//362
f 393//393 386//386 421//421
f 387//387 421//421 386//386
f 387//387 413//413 417//417
f 417//417 421//421 387//387
f 413//413 387//387 409//409
f 397//397 393//393 421//421
f 421//421 401//401 397//397
f 421//421 405//405 401//401
f 425//425 509//509 429//429
f 517//517 437//437 433//433
f 509//509 433//433 429//429
f 461//461 425//425 405//405
f 405//405 421//421 461//461
f 425//425 469//469 477//477
f 485//485 425//425 477//477
f 425//425 493//493 501//501
f 501//501 509//509 425//425
f 493//493 425//425 485//485
f 433//433 509//509 517//517
f 517//517 445//445 441//441
f 517//517 449//449 445//445
f 453//453 449//449 525//525
f 517//517 525//525 449//449
f 524//524 457//457 525//525
f 453//453 525//525 457//457
f 441//441 437//437 517//517
f 461//461 469//469 425//425
f 420//420 400//400 404//404
f 420//420 396//396 400//400
f 516//516 432//432 436//436
f 424//424 460//460 404//404
f 508//508 424//424 428//428
f 460//460 420//420 404//404
f 385//385 420//420 384//384
f 385//385 384//384 360//360
f 392//392 420//420 385//385
f 416//416 412//412 384//384
f 412//412 408//408 384//384
f 420//420 416//416 384//384
f 420//420 392//392 396//396
f 508//508 428//428 432//432
f 516//516 444//444 448//448
f 516//516 440//440 444//444
f 452//452 456//456 524//524
f 457//457 524//524 456//456
f 452//452 524//524 448//448
f 516//516 448//448 524//524
f 432//432 516//516 508//508
f 424//424 468//468 460//460
f 424//424 476//476 468//468
f 424//424 492//492 484//484
f 424//424 484//484 476//476
f 424//424 500//500 492//492
f 424//424 508//508 500//500
f 440//440 516//516 436//436
f 386//386 362//362 387//387
f 416//416 420//420 422//422
f 408//408 412//412 414//414
f 384//384 408//408 410//410
f 412//412 416//416 418//418
f 478//478 480//480 472//472
f 486//486 488//488 480//480
f 494//494 496//496 488//488
f 502//502 504//504 496//496
f 510//510 512//512 504//504
f 518//518 520//520 512//512
f 474//474 466//466 464//464
f 490//490 482//482 480//480
f 482//482 474//474 472//472
f 472//472 464//464 462//462
f 498//498 490//490 488//488
f 514//514 506//506 504//504
f 530//530 522//522 520//520
f 522//522 514//514 512//512
f 496//496 504//504 506//506
f 528//528 520//520 518//518
f 470//470 462//462 460//460
f 486//486 478//478 476//476
f 478//478 470//470 468//468
f 494//494 486//486 484//484
f 510//510 502//502 500//500
f 526//526 518//518 516//516
f 518//518 510//510 508//508
f 492//492 500//500 502//502
f 316//316 359//359 380//380
f 306//306 310//310 312//312
f 300//300 306//306 308//308
f 310//310 316//316 318//318
f 94//94 81//81 92//92
f 72//72 70//70 81//81
f 58//58 70//70 72//72
f 81//81 84//84 72//72
f 84//84 81//81 94//94
f 34//34 46//46 48//48
f 23//23 34//34 36//36
f 12//12 23//23 25//25
f 48//48 60//60 62//62
f 1//1 12//12 14//14
f 60//60 48//48 46//46
f 60//60 72//72 74//74
f 36//36 48//48 50//50
f 14//14 25//25 27//27
f 3//3 14//14 15//15
f 38//38 27//27 25//25
f 20//20 18//18 8//8
f 20//20 30//30 18//18
f 41//41 30//30 43//43
f 20//20 43//43 30//30
f 33//33 43//43 20//20
f 43//43 55//55 53//53
f 20//20 8//8 11//11
f 65//65 53//53 55//55
f 77//77 65//65 67//67
f 98//98 87//87 89//89
f 87//87 77//77 78//78
f 55//55 43//43 45//45
f 20//20 22//22 33//33
f 11//11 22//22 20//20
f 43//43 33//33 45//45
f 67//67 55//55 57//57
f 89//89 78//78 80//80
f 99//99 89//89 91//91
f 69//69 80//80 78//78
f 307//307 301//301 303//303
f 317//317 311//311 313//313
f 362//362 317//317 319//319
f 311//311 307//307 309//309
f 409//409 387//387 391//391
f 417//417 413//413 415//415
f 421//421 417//417 419//419
f 413//413 409//409 411//411
f 481//481 479//479 471//471
f 489//489 487//487 479//479
f 497//497 495//495 487//487
f 505//505 503//503 495//495
f 513//513 511//511 503//503
f 521//521 519//519 511//511
f 469//469 461//461 463//463
f 485//485 477//477 479//479
f 477//477 469//469 471//471
f 471//471 463//463 465//465
f 493//493 485//485 487//487
f 509//509 501//501 503//503
f 525//525 517//517 519//519
f 517//517 509//509 511//511
f 495//495 503//503 501//501
f 527//527 519//519 521//521
f 473//473 465//465 467//467
f 489//489 481//481 483//483
f 481//481 473//473 475//475
f 497//497 489//489 491//491
f 513//513 505//505 507//507
f 529//529 521//521 523//523
f 521//521 513//513 515//515
f 499//499 507//507 505//505
f 113//113 107//107 105//105
f 107//107 113//113 117//117
f 107//107 117//117 121//121
f 121//121 125//125 107//107
f 129//129 143//143 125//125
f 107//107 125//125 143//143
f 133//133 143//143 129//129
f 143//143 133//133 137//137
f 143//143 137//137 141//141
f 145//145 323//323 147//147
f 331//331 147//147 323//323
f 343//343 331//331 325//325
f 323//323 325//325 331//331
f 343//343 337//337 331//331
f 346//346 341//341 337//337
f 343//343 346//346 337//337
f 348//348 341//341 346//346
f 348//348 354//354 341//341
f 354//354 350//350 356//356
f 348//348 350//350 354//354
f 382//382 354//354 358//358
f 356//356 358//358 354//354
f 379//379 382//382 358//358
f 390//390 382//382 379//379
f 363//363 386//386 390//390
f 361//361 386//386 363//363
f 390//390 386//386 393//393
f 397//397 399//399 395//395
f 399//399 397//397 401//401
f 405//405 407//407 403//403
f 405//405 425//425 427//427
f 427//427 425//425 429//429
f 435//435 433//433 437//437
f 431//431 429//429 433//433
f 441//441 443//443 439//439
f 443//443 441//441 445//445
f 451//451 449//449 453//453
f 447//447 445//445 449//449
f 457//457 459//459 455//455
f 457//457 456//456 458//458
f 458//458 456//456 452//452
f 450//450 448//448 444//444
f 454//454 452//452 448//448
f 440//440 442//442 446//446
f 438//438 436//436 432//432
f 430//430 428//428 424//424
f 434//434 432//432 428//428
f 436//436 438//438 442//442
f 424//424 404//404 406//406
f 406//406 404//404 400//400
f 396//396 398//398 402//402
f 398//398 396//396 392//392
f 385//385 389//389 394//394
f 385//385 360//360 381//381
f 381//381 360//360 351//351
f 338//338 340//340 353//353
f 340//340 338//338 334//334
f 326//326 330//330 336//336
f 329//329 321//321 330//330
f 315//315 330//330 321//321
f 330//330 315//315 305//305
f 330//330 305//305 299//299
f 299//299 271//271 330//330
f 326//326 320//320 328//328
f 314//314 320//320 326//326
f 326//326 298//298 304//304
f 326//326 304//304 314//314
f 270//270 298//298 326//326
f 330//330 271//271 249//249
f 239//239 330//330 249//249
f 144//144 146//146 235//235
f 330//330 239//239 235//235
f 330//330 235//235 146//146
f 238//238 326//326 234//234
f 326//326 248//248 270//270
f 140//140 142//142 234//234
f 234//234 326//326 140//140
f 248//248 326//326 238//238
f 136//136 142//142 140//140
f 142//142 136//136 132//132
f 142//142 132//132 128//128
f 128//128 124//124 142//142
f 120//120 106//106 124//124
f 142//142 124//124 106//106
f 116//116 106//106 120//120
f 106//106 116//116 112//112
f 106//106 112//112 104//104
f 104//104 105//105 107//107
f 371//371 372//372 290//290
f 282//282 290//290 283//283
f 368//368 367//367 375//375
f 371//371 369//369 368//368
f 376//376 367//367 366//366
f 378//378 365//365 364//364
f 377//377 366//366 365//365
f 379//379 364//364 363//363
f 369//369 371//371 370//370
f 372//372 371//371 375//375
f 372//372 374//374 373//373
f 374//374 372//372 375//375
f 376//376 366//366 377//377
f 379//379 378//378 364//364
f 365//365 378//378 377//377
f 375//375 367//367 376//376
f 371//371 368//368 375//375
f 11//11 9//9 10//10
f 7//7 9//9 8//8
f 11//11 8//8 9//9
f 88//88 86//86 97//97
f 88//88 76//76 86//86
f 64//64 76//76 66//66
f 88//88 66//66 76//76
f 79//79 66//66 88//88
f 66//66 54//54 52//52
f 88//88 97//97 100//100
f 40//40 52//52 54//54
f 29//29 40//40 42//42
f 7//7 17//17 19//19
f 17//17 29//29 31//31
f 54//54 66//66 68//68
f 88//88 90//90 79//79
f 100//100 90//90 88//88
f 66//66 79//79 68//68
f 42//42 54//54 56//56
f 19//19 31//31 32//32
f 9//9 19//19 21//21
f 44//44 32//32 31//31
f 4//4 13//13 2//2
f 26//26 24//24 13//13
f 35//35 24//24 26//26
f 13//13 16//16 26//26
f 4//4 16//16 13//13
f 59//59 47//47 49//49
f 71//71 59//59 61//61
f 83//83 93//93 82//82
f 82//82 71//71 73//73
f 37//37 49//49 47//47
f 37//37 26//26 28//28
f 26//26 16//16 28//28
f 6//6 16//16 4//4
f 49//49 37//37 39//39
f 51//51 63//63 61//61
f 73//73 61//61 63//63
f 83//83 73//73 75//75
f 83//83 85//85 96//96
f 93//93 83//83 96//96
f 109//109 115//115 111//111
f 123//123 119//119 109//109
f 115//115 109//109 119//119
f 127//127 123//123 109//109
f 145//145 131//131 127//127
f 145//145 135//135 131//131
f 145//145 147//147 139//139
f 135//135 145//145 139//139
f 109//109 145//145 127//127
f 141//141 322//322 143//143
f 327//327 322//322 141//141
f 327//327 342//342 324//324
f 322//322 327//327 324//324
f 344//344 342//342 335//335
f 345//345 344//344 339//339
f 342//342 327//327 335//335
f 344//344 335//335 339//339
f 339//339 347//347 345//345
f 357//357 355//355 352//352
f 363//363 357//357 361//361
f 352//352 349//349 347//347
f 355//355 349//349 352//352
f 352//352 361//361 357//357
f 339//339 352//352 347//347
f 144//144 138//138 146//146
f 130//130 134//134 144//144
f 138//138 144//144 134//134
f 126//126 130//130 144//144
f 108//108 122//122 126//126
f 108//108 118//118 122//122
f 108//108 110//110 114//114
f 118//118 108//108 114//114
f 144//144 108//108 126//126
f 108//108 109//109 111//111
f 322//322 284//284 236//236
f 242//242 236//236 284//284
f 284//284 322//322 324//324
f 342//342 284//284 324//324
f 284//284 285//285 246//246
f 286//286 252//252 285//285
f 246//246 285//285 252//252
f 258//258 252//252 286//286
f 285//285 284//284 365//365
f 242//242 284//284 246//246
f 366//366 367//367 286//286
f 284//284 345//345 347//347
f 284//284 342//342 344//344
f 284//284 344//344 345//345
f 363//363 284//284 349//349
f 364//364 284//284 363//363
f 365//365 284//284 364//364
f 365//365 366//366 285//285
f 349//349 284//284 347//347
f 286//286 287//287 264//264
f 288//288 268//268 266//266
f 287//287 266//266 264//264
f 288//288 274//274 272//272
f 289//289 280//280 278//278
f 289//289 278//278 276//276
f 289//289 276//276 274//274
f 288//288 272//272 268//268
f 368//368 369//369 288//288
f 288//288 266//266 287//287
f 287//287 286//286 367//367
f 280//280 370//370 371//371
f 289//289 288//288 369//369
f 280//280 289//289 370//370
f 288//288 289//289 274//274
f 282//282 280//280 371//371
f 264//264 258//258 286//286
f 373//373 275//275 277//277
f 373//373 279//279 281//281
f 279//279 373//373 277//277
f 293//293 259//259 265//265
f 291//291 267//267 269//269
f 291//291 269//269 273//273
f 267//267 292//292 265//265
f 291//291 273//273 275//275
f 372//372 373//373 281//281
f 281//281 290//290 372//372
f 290//290 281//281 283//283
f 292//292 291//291 374//374
f 275//275 374//374 291//291
f 375//375 376//376 293//293
f 291//291 292//292 267//267
f 275//275 373//373 374//374
f 292//292 293//293 265//265
f 293//293 253//253 259//259
f 294//294 247//247 253//253
f 295//295 294//294 377//377
f 247//247 294//294 295//295
f 295//295 243//243 247//247
f 376//376 377//377 294//294
f 296//296 237//237 243//243
f 297//297 296//296 325//325
f 237//237 296//296 297//297
f 295//295 378//378 296//296
f 295//295 296//296 243//243
f 325//325 323//323 297//297
f 358//358 348//348 296//296
f 296//296 379//379 358//358
f 346//346 296//296 348//348
f 343//343 296//296 346//346
f 343//343 325//325 296//296
f 253//253 293//293 294//294
f 77//77 109//109 65//65
f 53//53 65//65 8//8
f 30//30 8//8 18//18
f 8//8 30//30 41//41
f 41//41 53//53 8//8
f 8//8 65//65 109//109
f 145//145 237//237 297//297
f 145//145 297//297 323//323
f 109//109 87//87 98//98
f 98//98 145//145 109//109
f 109//109 77//77 87//87
f 237//237 145//145 98//98
f 109//109 7//7 8//8
f 29//29 17//17 7//7
f 40//40 29//29 7//7
f 7//7 64//64 52//52
f 7//7 108//108 64//64
f 52//52 40//40 7//7
f 76//76 64//64 108//108
f 108//108 97//97 86//86
f 97//97 108//108 144//144
f 144//144 103//103 97//97
f 76//76 108//108 86//86
f 144//144 151//151 103//103
f 144//144 235//235 167//167
f 144//144 167//167 151//151
f 109//109 108//108 7//7
f 178//178 160//160 172//172
f 186//186 152//152 182//182
f 182//182 158//158 178//178
f 182//182 205//205 186//186
f 205//205 216//216 218//218
f 216//216 182//182 178//178
f 182//182 216//216 205//205
f 222//222 211//211 220//220
f 220//220 207//207 218//218
f 207//207 184//184 205//205
f 211//211 180//180 207//207
f 220//220 244//244 222//222
f 240//240 220//220 218//218
f 244//244 220//220 240//240
f 226//226 209//209 224//224
f 224//224 213//213 222//222
f 213//213 174//174 211//211
f 209//209 171//171 174//174
f 224//224 250//250 226//226
f 244//244 224//224 222//222
f 250//250 224//224 244//244
f 254//254 232//232 250//250
f 256//256 230//230 254//254
f 260//260 228//228 256//256
f 151//151 154//154 103//103
f 160//160 103//103 154//154
f 154//154 151//151 167//167
f 216//216 172//172 167//167
f 160//160 149//149 103//103
f 158//158 152//152 149//149
f 157//157 149//149 152//152
f 152//152 186//186 157//157
f 163//163 157//157 180//180
f 149//149 160//160 158//158
f 216//216 178//178 172//172
f 167//167 235//235 216//216
f 239//239 218//218 216//216
f 235//235 239//239 216//216
f 240//240 218//218 239//239
f 249//249 240//240 239//239
f 157//157 184//184 180//180
f 163//163 180//180 174//174
f 271//271 244//244 249//249
f 249//249 244//244 240//240
f 271//271 250//250 244//244
f 171//171 163//163 174//174
f 184//184 157//157 186//186
f 171//171 165//165 163//163
f 169//169 209//209 232//232
f 209//209 169//169 165//165
f 226//226 232//232 209//209
f 169//169 232//232 177//177
f 177//177 230//230 189//189
f 171//171 209//209 165//165
f 193//193 191//191 230//230
f 191//191 189//189 230//230
f 199//199 197//197 228//228
f 197//197 195//195 228//228
f 195//195 193//193 228//228
f 202//202 199//199 228//228
f 177//177 232//232 230//230
f 305//305 254//254 299//299
f 250//250 299//299 254//254
f 254//254 305//305 256//256
f 271//271 299//299 250//250
f 262//262 228//228 260//260
f 315//315 260//260 256//256
f 321//321 260//260 315//315
f 321//321 333//333 262//262
f 321//321 262//262 260//260
f 262//262 202//202 228//228
f 305//305 315//315 256//256
f 228//228 193//193 230//230
f 262//262 263//263 233//233
f 333//333 332//332 263//263
f 202//202 233//233 203//203
f 257//257 229//229 227//227
f 255//255 231//231 229//229
f 251//251 225//225 231//231
f 221//221 210//210 212//212
f 223//223 212//212 208//208
f 212//212 175//175 208//208
f 210//210 181//181 175//175
f 223//223 245//245 221//221
f 251//251 223//223 225//225
f 245//245 223//223 251//251
f 217//217 204//204 206//206
f 219//219 206//206 210//210
f 206//206 185//185 181//181
f 204//204 187//187 185//185
f 219//219 241//241 217//217
f 245//245 219//219 221//221
f 241//241 219//219 245//245
f 179//179 161//161 159//159
f 183//183 159//159 153//153
f 204//204 183//183 187//187
f 183//183 215//215 179//179
f 215//215 204//204 217//217
f 204//204 215//215 183//183
f 173//173 155//155 161//161
f 194//194 196//196 227//227
f 196//196 198//198 227//227
f 233//233 198//198 203//203
f 198//198 233//233 227//227
f 192//192 194//194 227//227
f 164//164 168//168 208//208
f 162//162 164//164 170//170
f 170//170 164//164 208//208
f 188//188 190//190 229//229
f 229//229 176//176 188//188
f 176//176 231//231 168//168
f 229//229 190//190 192//192
f 231//231 208//208 168//168
f 227//227 233//233 261//261
f 257//257 261//261 314//314
f 320//320 261//261 263//263
f 332//332 320//320 263//263
f 314//314 261//261 320//320
f 176//176 229//229 231//231
f 208//208 231//231 225//225
f 314//314 304//304 257//257
f 255//255 257//257 304//304
f 304//304 298//298 255//255
f 255//255 298//298 251//251
f 229//229 192//192 227//227
f 156//156 162//162 181//181
f 148//148 156//156 153//153
f 156//156 185//185 187//187
f 162//162 175//175 181//181
f 156//156 181//181 185//185
f 187//187 153//153 156//156
f 170//170 175//175 162//162
f 148//148 159//159 161//161
f 102//102 148//148 161//161
f 102//102 155//155 150//150
f 155//155 102//102 161//161
f 150//150 155//155 166//166
f 148//148 153//153 159//159
f 270//270 245//245 251//251
f 270//270 248//248 245//245
f 241//241 245//245 248//248
f 238//238 241//241 248//248
f 241//241 238//238 217//217
f 298//298 270//270 251//251
f 215//215 173//173 179//179
f 214//214 166//166 173//173
f 234//234 215//215 238//238
f 215//215 217//217 238//238
f 215//215 234//234 214//214
f 214//214 173//173 215//215
f 106//106 84//84 95//95
f 106//106 74//74 84//84
f 5//5 27//27 38//38
f 38//38 50//50 5//5
f 62//62 5//5 50//50
f 106//106 62//62 74//74
f 142//142 102//102 150//150
f 142//142 150//150 166//166
f 166//166 214//214 142//142
f 95//95 142//142 106//106
f 142//142 214//214 234//234
f 95//95 102//102 142//142
f 5//5 15//15 27//27
f 5//5 107//107 6//6
f 16//16 6//6 28//28
f 6//6 51//51 39//39
f 51//51 6//6 63//63
f 39//39 28//28 6//6
f 63//63 6//6 107//107
f 96//96 107//107 143//143
f 5//5 106//106 107//107
f 143//143 322//322 236//236
f 85//85 75//75 107//107
f 75//75 63//63 107//107
f 96//96 143//143 236//236
f 85//85 107//107 96//96
f 62//62 106//106 5//5
f 384//384 380//380 359//359
f 3//3 6//6 4//4
f 1//1 4//4 2//2
f 362//362 391//391 387//387
f 421//421 465//465 463//463
f 529//529 530//530 528//528
f 525//525 526//526 524//524
f 527//527 528//528 526//526
f 416//416 422//422 418//418
f 408//408 414//414 410//410
f 384//384 410//410 388//388
f 412//412 418//418 414//414
f 478//478 472//472 470//470
f 486//486 480//480 478//478
f 494//494 488//488 486//486
f 502//502 496//496 494//494
f 510//510 504//504 502//502
f 518//518 512//512 510//510
f 474//474 464//464 472//472
f 490//490 480//480 488//488
f 482//482 472//472 480//480
f 472//472 462//462 470//470
f 498//498 488//488 496//496
f 514//514 504//504 512//512
f 530//530 520//520 528//528
f 522//522 512//512 520//520
f 496//496 506//506 498//498
f 528//528 518//518 526//526
f 470//470 460//460 468//468
f 486//486 476//476 484//484
f 478//478 468//468 476//476
f 494//494 484//484 492//492
f 510//510 500//500 508//508
f 526//526 516//516 524//524
f 518//518 508//508 516//516
f 492//492 502//502 494//494
f 316//316 380//380 318//318
f 306//306 312//312 308//308
f 300//300 308//308 302//302
f 310//310 318//318 312//312
f 58//58 72//72 60//60
f 84//84 74//74 72//72
f 84//84 94//94 95//95
f 34//34 48//48 36//36
f 23//23 36//36 25//25
f 12//12 25//25 14//14
f 48//48 62//62 50//50
f 1//1 14//14 3//3
f 60//60 46//46 58//58
f 60//60 74//74 62//62
f 36//36 50//50 38//38
f 14//14 27//27 15//15
f 3//3 15//15 5//5
f 38//38 25//25 36//36
f 43//43 53//53 41//41
f 65//65 55//55 67//67
f 77//77 67//67 78//78
f 98//98 89//89 99//99
f 87//87 78//78 89//89
f 55//55 45//45 57//57
f 67//67 57//57 69//69
f 89//89 80//80 91//91
f 99//99 91//91 101//101
f 69//69 78//78 67//67
f 307//307 303//303 309//309
f 317//317 313//313 319//319
f 362//362 319//319 383//383
f 311//311 309//309 313//313
f 409//409 391//391 411//411
f 417//417 415//415 419//419
f 421//421 419//419 423//423
f 413//413 411//411 415//415
f 481//481 471//471 473//473
f 489//489 479//479 481//481
f 497//497 487//487 489//489
f 505//505 495//495 497//497
f 513//513 503//503 505//505
f 521//521 511//511 513//513
f 469//469 463//463 471//471
f 485//485 479//479 487//487
f 477//477 471//471 479//479
f 471//471 465//465 473//473
f 493//493 487//487 495//495
f 509//509 503//503 511//511
f 525//525 519//519 527//527
f 517//517 511//511 519//519
f 495//495 501//501 493//493
f 527//527 521//521 529//529
f 473//473 467//467 475//475
f 489//489 483//483 491//491
f 481//481 475//475 483//483
f 497//497 491//491 499//499
f 513//513 507//507 515//515
f 529//529 523//523 531//531
f 521//521 515//515 523//523
f 499//499 505//505 497//497
f 363//363 390//390 379//379
f 390//390 393//393 395//395
f 397//397 395//395 393//393
f 399//399 401//401 403//403
f 405//405 403//403 401//401
f 405//405 427//427 407//407
f 427//427 429//429 431//431
f 435//435 437//437 439//439
f 431//431 433//433 435//435
f 441//441 439//439 437//437
f 443//443 445//445 447//447
f 451//451 453//453 455//455
f 447//447 449//449 451//451
f 457//457 455//455 453//453
f 457//457 458//458 459//459
f 458//458 452//452 454//454
f 450//450 444//444 446//446
f 454//454 448//448 450//450
f 440//440 446//446 444//444
f 438//438 432//432 434//434
f 430//430 424//424 426//426
f 434//434 428//428 430//430
f 436//436 442//442 440//440
f 424//424 406//406 426//426
f 406//406 400//400 402//402
f 396//396 402//402 400//400
f 398//398 392//392 394//394
f 385//385 394//394 392//392
f 385//385 381//381 389//389
f 381//381 351//351 353//353
f 338//338 353//353 351//351
f 340//340 334//334 336//336
f 326//326 336//336 334//334
f 104//104 107//107 106//106
f 371//371 290//290 282//282
f 66//66 52//52 64//64
f 40//40 54//54 42//42
f 29//29 42//42 31//31
f 7//7 19//19 9//9
f 17//17 31//31 19//19
f 54//54 68//68 56//56
f 42//42 56//56 44//44
f 19//19 32//32 21//21
f 9//9 21//21 10//10
f 44//44 31//31 42//42
f 35//35 26//26 37//37
f 59//59 49//49 61//61
f 71//71 61//61 73//73
f 82//82 73//73 83//83
f 37//37 47//47 35//35
f 37//37 28//28 39//39
f 49//49 39//39 51//51
f 51//51 61//61 49//49
f 73//73 63//63 75//75
f 83//83 75//75 85//85
f 108//108 111//111 110//110
f 366//366 286//286 285//285
f 368//368 288//288 287//287
f 287//287 367//367 368//368
f 289//289 369//369 370//370
f 292//292 374//374 375//375
f 375//375 293//293 292//292
f 295//295 377//377 378//378
f 376//376 294//294 293//293
f 378//378 379//379 296//296
f 160//160 154//154 172//172
f 152//152 158//158 182//182
f 158//158 160//160 178//178
f 211//211 207//207 220//220
f 207//207 205//205 218//218
f 184//184 186//186 205//205
f 180//180 184//184 207//207
f 209//209 213//213 224//224
f 213//213 211//211 222//222
f 174//174 180//180 211//211
f 209//209 174//174 213//213
f 232//232 226//226 250//250
f 230//230 232//232 254//254
f 228//228 230//230 256//256
f 154//154 167//167 172//172
f 262//262 233//233 202//202
f 333//333 263//263 262//262
f 257//257 227//227 261//261
f 255//255 229//229 257//257
f 251//251 231//231 255//255
f 221//221 212//212 223//223
f 223//223 208//208 225//225
f 175//175 170//170 208//208
f 210//210 175//175 212//212
f 217//217 206//206 219//219
f 219//219 210//210 221//221
f 206//206 181//181 210//210
f 204//204 185//185 206//206
f 179//179 159//159 183//183
f 183//183 153//153 187//187
f 173//173 161//161 179//179
f 233//233 263//263 261//261
f 155//155 173//173 166//166