# PHANTOM Module: P18
# Units: meters
o P18

v 5.200000 1.799999 2.000775
v 5.200000 1.799999 0.835589
v 5.200000 1.349999 2.000775
v 5.200000 1.349999 0.835589
v 5.200000 0.899999 2.000775
v 5.200000 0.899999 0.835589
v 5.200000 0.450000 2.000775
v 5.200000 0.450000 0.835589
v 5.200000 0.000000 2.000775
v 5.200000 0.000000 0.835589
v 5.198452 1.799999 2.028975
v 5.198452 1.799999 0.807389
v 5.198452 1.349999 2.028975
v 5.198452 1.349999 0.807389
v 5.198452 0.899999 2.028975
v 5.198452 0.899999 0.807389
v 5.198452 0.450000 2.028975
v 5.198452 0.450000 0.807389
v 5.198452 0.000000 2.028975
v 5.198452 0.000000 0.807389
v 5.193689 1.799999 2.057403
v 5.193689 1.799999 0.778961
v 5.193689 1.349999 2.057403
v 5.193689 1.349999 0.778961
v 5.193689 0.899999 2.057403
v 5.193689 0.899999 0.778961
v 5.193689 0.450000 2.057403
v 5.193689 0.450000 0.778961
v 5.193689 0.000000 2.057403
v 5.193689 0.000000 0.778961
v 5.185635 1.799999 2.085405
v 5.185635 1.799999 0.750959
v 5.185635 1.349999 2.085405
v 5.185635 1.349999 0.750959
v 5.185635 0.899999 2.085405
v 5.185635 0.899999 0.750959
v 5.185635 0.450000 2.085405
v 5.185635 0.450000 0.750959
v 5.185635 0.000000 2.085405
v 5.185635 0.000000 0.750959
v 5.174363 1.799999 2.112305
v 5.174363 1.799999 0.724059
v 5.174363 1.349999 2.112305
v 5.174363 1.349999 0.724059
v 5.174363 0.899999 2.112305
v 5.174363 0.899999 0.724059
v 5.174363 0.450000 2.112305
v 5.174363 0.450000 0.724059
v 5.174363 0.000000 2.112305
v 5.174363 0.000000 0.724059
v 5.160099 1.799999 2.137458
v 5.160099 1.799999 0.698905
v 5.160099 1.349999 2.137458
v 5.160099 1.349999 0.698905
v 5.160099 0.899999 2.137458
v 5.160099 0.899999 0.698905
v 5.160099 0.450000 2.137458
v 5.160099 0.450000 0.698905
v 5.160099 0.000000 2.137458
v 5.160099 0.000000 0.698905
v 5.143209 1.799999 2.160302
v 5.143209 1.799999 0.676062
v 5.143209 1.349999 2.160302
v 5.143209 1.349999 0.676062
v 5.143209 0.899999 2.160302
v 5.143209 0.899999 0.676062
v 5.143209 0.450000 2.160302
v 5.143209 0.450000 0.676062
v 5.143209 0.000000 2.160302
v 5.143209 0.000000 0.676062
v 5.124168 1.799999 2.180394
v 5.124168 1.799999 0.655970
v 5.124168 1.349999 2.180394
v 5.124168 1.349999 0.655970
v 5.124168 0.899999 2.180394
v 5.124168 0.899999 0.655970
v 5.124168 0.450000 2.180394
v 5.124168 0.450000 0.655970
v 5.124168 0.000000 2.180394
v 5.124168 0.000000 0.655970
v 5.103518 1.799999 2.197441
v 5.103518 1.799999 0.638922
v 5.103518 1.349999 2.197441
v 5.103518 1.349999 0.638922
v 5.103518 0.899999 2.197441
v 5.103518 0.899999 0.638922
v 5.103518 0.450000 2.197441
v 5.103518 0.450000 0.638922
v 5.103518 0.000000 2.197441
v 5.103518 0.000000 0.638922
v 5.000000 1.799999 2.000775
v 5.000000 1.799999 0.835589
v 5.000000 0.000000 2.000775
v 5.000000 0.000000 0.835589
v 4.999881 1.799999 2.002944
v 4.999881 1.799999 0.833420
v 4.999881 0.000000 2.002944
v 4.999881 0.000000 0.833420
v 4.999514 1.799999 2.005131
v 4.999514 1.799999 0.831233
v 4.999514 0.000000 2.005131
v 4.999514 0.000000 0.831233
v 4.998895 1.799999 2.007285
v 4.998895 1.799999 0.829079
v 4.998895 0.000000 2.007285
v 4.998895 0.000000 0.829079
v 4.998027 1.799999 2.009354
v 4.998027 1.799999 0.827010
v 4.998027 0.000000 2.009354
v 4.998027 0.000000 0.827010
v 4.996930 1.799999 2.011289
v 4.996930 1.799999 0.825075
v 4.996930 0.000000 2.011289
v 4.996930 0.000000 0.825075
v 4.995631 1.799999 2.013046
v 4.995631 1.799999 0.823318
v 4.995631 0.000000 2.013046
v 4.995631 0.000000 0.823318
v 4.994166 1.799999 2.014592
v 4.994166 1.799999 0.821772
v 4.994166 0.000000 2.014592
v 4.994166 0.000000 0.821772
v 4.992578 1.799999 2.015903
v 4.992578 1.799999 0.820461
v 4.992578 0.000000 2.015903
v 4.992578 0.000000 0.820461
v 4.279583 1.799999 2.796666
v 4.279583 1.799999 0.039697
v 4.279583 0.000000 2.796666
v 4.279583 0.000000 0.039697
v 4.252038 1.799999 2.813669
v 4.252038 1.799999 0.022695
v 4.252038 0.000000 2.813669
v 4.252038 0.000000 0.022695
v 4.222185 1.799999 2.826222
v 4.222185 1.799999 0.010142
v 4.222185 0.000000 2.826222
v 4.222185 0.000000 0.010142
v 4.190963 1.799999 2.833842
v 4.190963 1.799999 0.002522
v 4.190963 0.000000 2.833842
v 4.190963 0.000000 0.002522
v 4.168643 1.799999 2.615128
v 4.168643 1.799999 0.221235
v 4.168643 0.000000 2.615128
v 4.168643 0.000000 0.221235
v 4.166524 1.799999 2.616436
v 4.166524 1.799999 0.219928
v 4.166524 0.000000 2.616436
v 4.166524 0.000000 0.219928
v 4.164228 1.799999 2.617402
v 4.164228 1.799999 0.218962
v 4.164228 0.000000 2.617402
v 4.164228 0.000000 0.218962
v 4.161826 1.799999 2.617988
v 4.161826 1.799999 0.218376
v 4.161826 0.000000 2.617988
v 4.161826 0.000000 0.218376
v 4.159398 1.799999 2.836364
v 4.159398 1.799999 2.618182
v 4.159398 1.799999 0.218182
v 4.159398 1.799999 0.000000
v 4.159398 0.000000 2.836364
v 4.159398 0.000000 2.618182
v 4.159398 0.000000 0.218182
v 4.159398 0.000000 0.000000
v 1.040601 1.799999 2.836364
v 1.040601 1.799999 2.618182
v 1.040601 1.799999 0.218182
v 1.040601 1.799999 0.000000
v 1.040601 0.000000 2.836364
v 1.040601 0.000000 2.618182
v 1.040601 0.000000 0.218182
v 1.040601 0.000000 0.000000
v 1.038173 1.799999 2.617988
v 1.038173 1.799999 0.218376
v 1.038173 0.000000 2.617988
v 1.038173 0.000000 0.218376
v 1.035771 1.799999 2.617402
v 1.035771 1.799999 0.218962
v 1.035771 0.000000 2.617402
v 1.035771 0.000000 0.218962
v 1.033475 1.799999 2.616436
v 1.033475 1.799999 0.219928
v 1.033475 0.000000 2.616436
v 1.033475 0.000000 0.219928
v 1.031356 1.799999 2.615128
v 1.031356 1.799999 0.221235
v 1.031356 0.000000 2.615128
v 1.031356 0.000000 0.221235
v 1.009037 1.799999 2.833842
v 1.009037 1.799999 0.002522
v 1.009037 0.000000 2.833842
v 1.009037 0.000000 0.002522
v 0.977815 1.799999 2.826222
v 0.977815 1.799999 0.010142
v 0.977815 0.000000 2.826222
v 0.977815 0.000000 0.010142
v 0.947961 1.799999 2.813669
v 0.947961 1.799999 0.022695
v 0.947961 0.000000 2.813669
v 0.947961 0.000000 0.022695
v 0.920416 1.799999 2.796666
v 0.920416 1.799999 0.039697
v 0.920416 0.000000 2.796666
v 0.920416 0.000000 0.039697
v 0.207421 1.799999 2.015903
v 0.207421 1.799999 0.820461
v 0.207421 0.000000 2.015903
v 0.207421 0.000000 0.820461
v 0.205832 1.799999 2.014592
v 0.205832 1.799999 0.821772
v 0.205832 0.000000 2.014592
v 0.205832 0.000000 0.821772
v 0.204369 1.799999 2.013046
v 0.204369 1.799999 0.823318
v 0.204369 0.000000 2.013046
v 0.204369 0.000000 0.823318
v 0.203069 1.799999 2.011289
v 0.203069 1.799999 0.825075
v 0.203069 0.000000 2.011289
v 0.203069 0.000000 0.825075
v 0.201972 1.799999 2.009354
v 0.201972 1.799999 0.827010
v 0.201972 0.000000 2.009354
v 0.201972 0.000000 0.827010
v 0.201104 1.799999 2.007285
v 0.201104 1.799999 0.829079
v 0.201104 0.000000 2.007285
v 0.201104 0.000000 0.829079
v 0.200485 1.799999 2.005131
v 0.200485 1.799999 0.831233
v 0.200485 0.000000 2.005131
v 0.200485 0.000000 0.831233
v 0.200119 1.799999 2.002944
v 0.200119 1.799999 0.833420
v 0.200119 0.000000 2.002944
v 0.200119 0.000000 0.833420
v 0.200000 1.799999 2.000775
v 0.200000 1.799999 0.835589
v 0.200000 0.000000 2.000775
v 0.200000 0.000000 0.835589
v 0.096481 1.799999 2.197441
v 0.096481 1.799999 0.638922
v 0.096481 1.349999 2.197441
v 0.096481 1.349999 0.638922
v 0.096481 0.899999 2.197441
v 0.096481 0.899999 0.638922
v 0.096481 0.450000 2.197441
v 0.096481 0.450000 0.638922
v 0.096481 0.000000 2.197441
v 0.096481 0.000000 0.638922
v 0.075831 1.799999 2.180394
v 0.075831 1.799999 0.655970
v 0.075831 1.349999 2.180394
v 0.075831 1.349999 0.655970
v 0.075831 0.899999 2.180394
v 0.075831 0.899999 0.655970
v 0.075831 0.450000 2.180394
v 0.075831 0.450000 0.655970
v 0.075831 0.000000 2.180394
v 0.075831 0.000000 0.655970
v 0.056790 1.799999 2.160302
v 0.056790 1.799999 0.676062
v 0.056790 1.349999 2.160302
v 0.056790 1.349999 0.676062
v 0.056790 0.899999 2.160302
v 0.056790 0.899999 0.676062
v 0.056790 0.450000 2.160302
v 0.056790 0.450000 0.676062
v 0.056790 0.000000 2.160302
v 0.056790 0.000000 0.676062
v 0.039901 1.799999 2.137458
v 0.039901 1.799999 0.698905
v 0.039901 1.349999 2.137458
v 0.039901 1.349999 0.698905
v 0.039901 0.899999 2.137458
v 0.039901 0.899999 0.698905
v 0.039901 0.450000 2.137458
v 0.039901 0.450000 0.698905
v 0.039901 0.000000 2.137458
v 0.039901 0.000000 0.698905
v 0.025637 1.799999 2.112305
v 0.025637 1.799999 0.724059
v 0.025637 1.349999 2.112305
v 0.025637 1.349999 0.724059
v 0.025637 0.899999 2.112305
v 0.025637 0.899999 0.724059
v 0.025637 0.450000 2.112305
v 0.025637 0.450000 0.724059
v 0.025637 0.000000 2.112305
v 0.025637 0.000000 0.724059
v 0.014364 1.799999 2.085405
v 0.014364 1.799999 0.750959
v 0.014364 1.349999 2.085405
v 0.014364 1.349999 0.750959
v 0.014364 0.899999 2.085405
v 0.014364 0.899999 0.750959
v 0.014364 0.450000 2.085405
v 0.014364 0.450000 0.750959
v 0.014364 0.000000 2.085405
v 0.014364 0.000000 0.750959
v 0.006310 1.799999 2.057403
v 0.006310 1.799999 0.778961
v 0.006310 1.349999 2.057403
v 0.006310 1.349999 0.778961
v 0.006310 0.899999 2.057403
v 0.006310 0.899999 0.778961
v 0.006310 0.450000 2.057403
v 0.006310 0.450000 0.778961
v 0.006310 0.000000 2.057403
v 0.006310 0.000000 0.778961
v 0.001547 1.799999 2.028975
v 0.001547 1.799999 0.807389
v 0.001547 1.349999 2.028975
v 0.001547 1.349999 0.807389
v 0.001547 0.899999 2.028975
v 0.001547 0.899999 0.807389
v 0.001547 0.450000 2.028975
v 0.001547 0.450000 0.807389
v 0.001547 0.000000 2.028975
v 0.001547 0.000000 0.807389
v 0.000000 1.799999 2.000775
v 0.000000 1.799999 0.835589
v 0.000000 1.349999 2.000775
v 0.000000 1.349999 0.835589
v 0.000000 0.899999 2.000775
v 0.000000 0.899999 0.835589
v 0.000000 0.450000 2.000775
v 0.000000 0.450000 0.835589
v 0.000000 0.000000 2.000775
v 0.000000 0.000000 0.835589

vn 0.624317 0.780983 0.017121
vn 0.446911 0.894494 -0.012256
vn 0.999624 0.000000 0.027413
vn 0.999624 0.000000 -0.027413
vn 0.999624 0.000000 0.027413
vn 0.999624 0.000000 -0.027413
vn 0.999624 0.000000 0.027413
vn 0.999624 0.000000 -0.027413
vn 0.371131 -0.928525 0.010177
vn 0.706708 -0.707240 -0.019380
vn 0.443013 0.894673 0.057448
vn 0.444839 0.894673 -0.040982
vn 0.995075 0.000000 0.099122
vn 0.993004 0.000000 -0.118083
vn 0.993911 0.000000 0.110188
vn 0.993911 0.000000 -0.110187
vn 0.993004 0.000000 0.118084
vn 0.995075 0.000000 -0.099122
vn 0.444839 -0.894673 0.040982
vn 0.443013 -0.894673 -0.057448
vn 0.581968 0.800416 0.143691
vn 0.587014 0.800416 -0.121440
vn 0.979264 0.000000 0.202589
vn 0.970845 0.000000 -0.239707
vn 0.975231 0.000000 0.221188
vn 0.975231 0.000000 -0.221188
vn 0.970845 0.000000 0.239707
vn 0.979264 0.000000 -0.202588
vn 0.587014 -0.800416 0.121441
vn 0.581968 -0.800416 -0.143691
vn 0.778957 0.555282 0.291356
vn 0.789713 0.555282 -0.260799
vn 0.949559 0.000000 0.313588
vn 0.936626 0.000000 -0.350330
vn 0.943272 0.000000 0.332022
vn 0.943272 0.000000 -0.332021
vn 0.936626 0.000000 0.350330
vn 0.949559 0.000000 -0.313587
vn 0.789712 -0.555282 0.260799
vn 0.778957 -0.555282 -0.291356
vn 0.739120 0.555305 0.381232
vn 0.753677 0.555305 -0.351579
vn 0.906246 0.000000 0.422751
vn 0.888743 0.000000 -0.458406
vn 0.897671 0.000000 0.440666
vn 0.897671 0.000000 -0.440665
vn 0.888743 0.000000 0.458406
vn 0.906246 0.000000 -0.422751
vn 0.753676 -0.555305 0.351580
vn 0.739120 -0.555305 -0.381232
vn 0.688058 0.555323 0.467111
vn 0.706322 0.555323 -0.439005
vn 0.849318 0.000000 0.527881
vn 0.827355 0.000000 -0.561679
vn 0.838507 0.000000 0.544890
vn 0.838507 0.000000 -0.544891
vn 0.827356 0.000000 0.561678
vn 0.849318 0.000000 -0.527882
vn 0.706322 -0.555323 0.439004
vn 0.688057 -0.555323 -0.467112
vn 0.626350 0.555334 0.547073
vn 0.648078 0.555334 -0.521151
vn 0.779290 0.000000 0.626663
vn 0.753162 0.000000 -0.657835
vn 0.766385 0.000000 0.642382
vn 0.766384 0.000000 -0.642383
vn 0.753163 0.000000 0.657834
vn 0.779289 0.000000 -0.626664
vn 0.648079 -0.555334 0.521150
vn 0.626350 -0.555334 -0.547073
vn 0.555084 0.555337 0.619260
vn 0.579855 0.555337 -0.596128
vn 0.688861 0.000000 0.724894
vn 0.673517 0.000000 -0.739172
vn 0.682503 0.000000 0.730883
vn 0.682504 0.000000 -0.730881
vn 0.673515 0.000000 0.739173
vn 0.688862 0.000000 -0.724893
vn 0.579854 -0.555337 0.596129
vn 0.555086 -0.555337 -0.619258
vn 0.339747 0.832171 0.438251
vn 0.438835 0.707255 -0.554269
vn 0.617524 0.000000 0.786552
vn 0.617525 0.000000 -0.786551
vn 0.612687 0.000000 0.790325
vn 0.612689 0.000000 -0.790324
vn 0.617524 0.000000 0.786552
vn 0.617525 0.000000 -0.786551
vn 0.438834 -0.707254 0.554271
vn 0.339748 -0.832171 -0.438250
vn -0.894026 0.447347 -0.024449
vn -0.554349 0.832146 0.015160
vn -0.706710 -0.707239 -0.019326
vn -0.799593 -0.600144 0.021866
vn -0.824786 0.555230 -0.106994
vn -0.828193 0.555230 0.076255
vn -0.828193 -0.555230 -0.076255
vn -0.824786 -0.555230 0.106994
vn -0.685995 0.707616 -0.169381
vn -0.691934 0.707616 0.143202
vn -0.691934 -0.707616 -0.143202
vn -0.685995 -0.707616 0.169381
vn -0.778941 0.555284 -0.291394
vn -0.789713 0.555284 0.260793
vn -0.789713 -0.555284 -0.260793
vn -0.778941 -0.555284 0.291394
vn -0.739110 0.555304 -0.381252
vn -0.753654 0.555304 0.351630
vn -0.753654 -0.555304 -0.351630
vn -0.739110 -0.555304 0.381252
vn -0.688090 0.555322 -0.467065
vn -0.706343 0.555322 0.438973
vn -0.706340 -0.555322 -0.438977
vn -0.688095 -0.555322 0.467058
vn -0.532125 0.707692 -0.464774
vn -0.550610 0.707692 0.442719
vn -0.550606 -0.707692 -0.442725
vn -0.532128 -0.707692 0.464771
vn -0.555086 0.555336 -0.619259
vn -0.579841 0.555336 0.596142
vn -0.579841 -0.555336 -0.596142
vn -0.555086 -0.555336 0.619259
vn -0.148535 0.970169 -0.191595
vn -0.273904 0.894511 0.353308
vn -0.273904 -0.894511 -0.353308
vn -0.148535 -0.970169 0.191595
vn 0.327314 0.813923 0.479995
vn 0.284048 0.868358 -0.406535
vn 0.284048 -0.868358 0.406535
vn 0.327314 -0.813923 -0.479995
vn 0.361354 0.555726 0.748727
vn 0.399597 0.555726 -0.729035
vn 0.399597 -0.555726 0.729035
vn 0.361354 -0.555726 -0.748727
vn 0.239493 0.555775 0.796089
vn 0.281316 0.555775 -0.782289
vn 0.281317 -0.555775 0.782288
vn 0.239492 -0.555775 -0.796089
vn 0.125664 0.317035 0.940052
vn 0.175590 0.317035 -0.932018
vn 0.175590 -0.317035 0.932018
vn 0.125665 -0.317035 -0.940051
vn -0.445603 0.600275 -0.664159
vn -0.308889 0.832234 0.460407
vn -0.308897 -0.832234 -0.460402
vn -0.445593 -0.600275 0.664166
vn -0.361371 0.555727 -0.748718
vn -0.399625 0.555727 0.729018
vn -0.399639 -0.555727 -0.729011
vn -0.361366 -0.555727 0.748721
vn -0.239502 0.555775 -0.796086
vn -0.281309 0.555775 0.782291
vn -0.281316 -0.555775 -0.782289
vn -0.239483 -0.555775 0.796092
vn -0.110126 0.555790 -0.823996
vn -0.153904 0.555789 0.816953
vn -0.153910 -0.555790 -0.816951
vn -0.110146 -0.555789 0.823994
vn 0.014789 0.928578 0.370842
vn -0.017797 0.894569 -0.446575
vn -0.028166 0.707388 0.706264
vn 0.024881 0.781111 -0.623896
vn 0.024880 -0.781111 0.623896
vn -0.028146 -0.707387 -0.706266
vn -0.017809 -0.894569 0.446574
vn 0.014789 -0.928578 -0.370842
vn -0.022092 0.832254 0.553955
vn 0.031847 0.600305 -0.799137
vn 0.022092 0.832254 0.553955
vn -0.012593 0.948759 -0.315751
vn -0.012592 -0.948759 0.315751
vn 0.022076 -0.832253 -0.553956
vn 0.031869 -0.600305 0.799136
vn -0.022093 -0.832254 -0.553955
vn 0.153935 0.555791 -0.816946
vn 0.110159 0.555789 0.823992
vn 0.110139 -0.555791 -0.823994
vn 0.153929 -0.555789 0.816948
vn 0.281328 0.555774 -0.782285
vn 0.239507 0.555775 0.796085
vn 0.239526 -0.555774 -0.796079
vn 0.281321 -0.555775 0.782287
vn 0.399590 0.555726 -0.729038
vn 0.361341 0.555725 0.748734
vn 0.361346 -0.555726 -0.748731
vn 0.399577 -0.555725 0.729046
vn 0.308873 0.832234 -0.460417
vn 0.445559 0.600276 0.664188
vn 0.445570 -0.600276 -0.664181
vn 0.308866 -0.832234 0.460421
vn -0.175589 0.317035 0.932018
vn -0.125666 0.317035 -0.940051
vn -0.125664 -0.317035 0.940052
vn -0.175588 -0.317035 -0.932018
vn -0.281313 0.555775 0.782290
vn -0.239488 0.555775 -0.796090
vn -0.239490 -0.555775 0.796090
vn -0.281312 -0.555775 -0.782290
vn -0.399599 0.555726 0.729033
vn -0.361353 0.555726 -0.748728
vn -0.361353 -0.555726 0.748728
vn -0.399599 -0.555726 -0.729033
vn -0.284048 0.868358 0.406535
vn -0.327316 0.813923 -0.479994
vn -0.327316 -0.813923 0.479994
vn -0.284048 -0.868358 -0.406535
vn 0.273878 0.894511 -0.353328
vn 0.148522 0.970169 0.191607
vn 0.148522 -0.970169 -0.191607
vn 0.273878 -0.894511 0.353328
vn 0.579939 0.555341 -0.596043
vn 0.555090 0.555341 0.619251
vn 0.555090 -0.555341 -0.619251
vn 0.579939 -0.555341 0.596043
vn 0.550555 0.707685 -0.442799
vn 0.532179 0.707686 0.464722
vn 0.532177 -0.707685 -0.464725
vn 0.550560 -0.707686 0.442792
vn 0.706340 0.555328 -0.438970
vn 0.688011 0.555328 0.467174
vn 0.688006 -0.555328 -0.467182
vn 0.706343 -0.555328 0.438966
vn 0.753632 0.555300 -0.351683
vn 0.739135 0.555300 0.381210
vn 0.739135 -0.555300 -0.381210
vn 0.753632 -0.555300 0.351683
vn 0.789729 0.555288 -0.260736
vn 0.778921 0.555288 0.291442
vn 0.778921 -0.555288 -0.291442
vn 0.789729 -0.555288 0.260736
vn 0.691964 0.707616 -0.143056
vn 0.686030 0.707616 0.169239
vn 0.686030 -0.707616 -0.169239
vn 0.691964 -0.707616 0.143056
vn 0.828190 0.555226 -0.076318
vn 0.824796 0.555226 0.106938
vn 0.824796 -0.555226 -0.106938
vn 0.828190 -0.555226 0.076318
vn 0.706707 0.707240 -0.019404
vn 0.799590 0.600145 0.021954
vn 0.894023 -0.447348 -0.024547
vn 0.554347 -0.832147 0.015220
vn -0.438834 0.707254 0.554271
vn -0.339748 0.832171 -0.438250
vn -0.617524 0.000000 0.786552
vn -0.617525 0.000000 -0.786551
vn -0.612687 0.000000 0.790325
vn -0.612689 0.000000 -0.790324
vn -0.617524 0.000000 0.786552
vn -0.617525 0.000000 -0.786551
vn -0.339747 -0.832171 0.438251
vn -0.438835 -0.707255 -0.554269
vn -0.579854 0.555337 0.596129
vn -0.555086 0.555337 -0.619258
vn -0.673515 0.000000 0.739173
vn -0.688862 0.000000 -0.724893
vn -0.682503 0.000000 0.730883
vn -0.682504 0.000000 -0.730881
vn -0.688861 0.000000 0.724894
vn -0.673517 0.000000 -0.739172
vn -0.555084 -0.555337 0.619260
vn -0.579855 -0.555337 -0.596128
vn -0.648079 0.555334 0.521150
vn -0.626350 0.555334 -0.547073
vn -0.753163 0.000000 0.657834
vn -0.779289 0.000000 -0.626664
vn -0.766385 0.000000 0.642382
vn -0.766384 0.000000 -0.642383
vn -0.779290 0.000000 0.626663
vn -0.753162 0.000000 -0.657835
vn -0.626350 -0.555334 0.547073
vn -0.648078 -0.555334 -0.521151
vn -0.706322 0.555323 0.439004
vn -0.688057 0.555323 -0.467112
vn -0.827356 0.000000 0.561678
vn -0.849318 0.000000 -0.527882
vn -0.838507 0.000000 0.544890
vn -0.838507 0.000000 -0.544891
vn -0.849318 0.000000 0.527881
vn -0.827355 0.000000 -0.561679
vn -0.688058 -0.555323 0.467111
vn -0.706322 -0.555323 -0.439005
vn -0.753676 0.555305 0.351580
vn -0.739120 0.555305 -0.381232
vn -0.888743 0.000000 0.458406
vn -0.906246 0.000000 -0.422751
vn -0.897671 0.000000 0.440666
vn -0.897671 0.000000 -0.440665
vn -0.906246 0.000000 0.422751
vn -0.888743 0.000000 -0.458406
vn -0.739120 -0.555305 0.381232
vn -0.753677 -0.555305 -0.351579
vn -0.789710 0.555282 0.260807
vn -0.778955 0.555282 -0.291360
vn -0.936625 0.000000 0.350335
vn -0.949556 0.000000 -0.313597
vn -0.943269 0.000000 0.332029
vn -0.943269 0.000000 -0.332029
vn -0.949556 0.000000 0.313598
vn -0.936625 0.000000 -0.350334
vn -0.778955 -0.555282 0.291360
vn -0.789710 -0.555282 -0.260807
vn -0.587014 0.800416 0.121444
vn -0.581966 0.800416 -0.143697
vn -0.970843 0.000000 0.239718
vn -0.979263 0.000000 -0.202593
vn -0.975229 0.000000 0.221196
vn -0.975230 0.000000 -0.221196
vn -0.979263 0.000000 0.202594
vn -0.970843 0.000000 -0.239717
vn -0.581966 -0.800416 0.143697
vn -0.587014 -0.800416 -0.121444
vn -0.444839 0.894673 0.040972
vn -0.443014 0.894673 -0.057443
vn -0.993005 0.000000 0.118069
vn -0.995077 0.000000 -0.099102
vn -0.993913 0.000000 0.110171
vn -0.993913 0.000000 -0.110171
vn -0.995077 0.000000 0.099102
vn -0.993005 0.000000 -0.118069
vn -0.443013 -0.894673 0.057443
vn -0.444839 -0.894673 -0.040972
vn -0.371131 0.928525 0.010171
vn -0.706709 0.707240 -0.019368
vn -0.999625 0.000000 0.027396
vn -0.999625 0.000000 -0.027396
vn -0.999625 0.000000 0.027396
vn -0.999625 0.000000 -0.027396
vn -0.999625 0.000000 0.027396
vn -0.999625 0.000000 -0.027396
vn -0.624318 -0.780983 0.017110
vn -0.446911 -0.894494 -0.012248

f 205//205 249//249 251//251
f 205//205 247//247 249//249
f 245//245 247//247 203//203
f 205//205 203//203 247//247
f 245//245 203//203 243//243
f 167//167 171//171 163//163
f 127//127 129//129 85//85
f 89//89 87//87 129//129
f 129//129 87//87 85//85
f 127//127 83//83 81//81
f 7//7 9//9 10//10
f 3//3 5//5 6//6
f 1//1 3//3 4//4
f 5//5 7//7 8//8
f 130//130 88//88 90//90
f 130//130 86//86 88//88
f 84//84 86//86 128//128
f 130//130 128//128 86//86
f 84//84 128//128 82//82
f 162//162 166//166 174//174
f 204//204 206//206 248//248
f 252//252 250//250 206//206
f 206//206 250//250 248//248
f 204//204 246//246 244//244
f 330//330 332//332 331//331
f 326//326 328//328 327//327
f 324//324 326//326 325//325
f 328//328 330//330 329//329
f 118//118 30//30 20//20
f 126//126 40//40 30//30
f 70//70 60//60 126//126
f 50//50 126//126 60//60
f 126//126 50//50 40//40
f 126//126 80//80 70//70
f 98//98 10//10 94//94
f 20//20 10//10 102//102
f 9//9 94//94 10//10
f 20//20 106//106 110//110
f 10//10 98//98 102//102
f 20//20 102//102 106//106
f 114//114 20//20 110//110
f 126//126 90//90 80//80
f 134//134 130//130 166//166
f 138//138 134//134 166//166
f 130//130 165//165 166//166
f 165//165 130//130 158//158
f 166//166 142//142 138//138
f 154//154 158//158 130//130
f 20//20 114//114 118//118
f 122//122 30//30 118//118
f 130//130 150//150 154//154
f 146//146 90//90 126//126
f 130//130 146//146 150//150
f 122//122 126//126 30//30
f 90//90 146//146 130//130
f 101//101 9//9 19//19
f 94//94 9//9 93//93
f 93//93 9//9 97//97
f 9//9 101//101 97//97
f 19//19 109//109 105//105
f 19//19 105//105 101//101
f 117//117 19//19 29//29
f 49//49 125//125 39//39
f 29//29 39//39 125//125
f 125//125 59//59 69//69
f 69//69 79//79 125//125
f 125//125 49//49 59//59
f 79//79 89//89 125//125
f 113//113 109//109 19//19
f 121//121 29//29 125//125
f 19//19 117//117 113//113
f 89//89 129//129 145//145
f 129//129 153//153 149//149
f 129//129 149//149 145//145
f 125//125 89//89 145//145
f 137//137 163//163 133//133
f 129//129 133//133 163//163
f 164//164 129//129 163//163
f 163//163 137//137 141//141
f 163//163 171//171 164//164
f 157//157 129//129 164//164
f 157//157 153//153 129//129
f 117//117 29//29 121//121
f 174//174 166//166 165//165
f 178//178 206//206 173//173
f 174//174 173//173 206//206
f 174//174 202//202 198//198
f 202//202 174//174 206//206
f 198//198 194//194 174//174
f 182//182 206//206 178//178
f 206//206 182//182 186//186
f 206//206 186//186 190//190
f 210//210 214//214 312//312
f 322//322 218//218 222//222
f 312//312 214//214 218//218
f 252//252 190//190 210//210
f 190//190 252//252 206//206
f 210//210 272//272 262//262
f 282//282 272//272 210//210
f 210//210 302//302 292//292
f 302//302 210//210 312//312
f 292//292 282//282 210//210
f 218//218 322//322 312//312
f 322//322 226//226 230//230
f 322//322 230//230 234//234
f 238//238 332//332 234//234
f 322//322 234//234 332//332
f 331//331 332//332 242//242
f 238//238 242//242 332//332
f 226//226 322//322 222//222
f 252//252 210//210 262//262
f 205//205 189//189 185//185
f 205//205 185//185 181//181
f 321//321 221//221 217//217
f 209//209 189//189 251//251
f 311//311 213//213 209//209
f 251//251 189//189 205//205
f 172//172 171//171 205//205
f 172//172 164//164 171//171
f 177//177 172//172 205//205
f 201//201 171//171 197//197
f 197//197 171//171 193//193
f 205//205 171//171 201//201
f 205//205 181//181 177//177
f 311//311 217//217 213//213
f 321//321 233//233 229//229
f 321//321 229//229 225//225
f 237//237 331//331 241//241
f 242//242 241//241 331//331
f 237//237 233//233 331//331
f 321//321 331//331 233//233
f 217//217 311//311 321//321
f 209//209 251//251 261//261
f 209//209 261//261 271//271
f 209//209 281//281 291//291
f 209//209 271//271 281//281
f 209//209 291//291 301//301
f 209//209 301//301 311//311
f 225//225 221//221 321//321
f 173//173 174//174 165//165
f 116//116 12//12 22//22
f 124//124 22//22 32//32
f 62//62 124//124 52//52
f 42//42 52//52 124//124
f 124//124 32//32 42//42
f 124//124 62//62 72//72
f 96//96 92//92 2//2
f 12//12 100//100 2//2
f 1//1 2//2 92//92
f 12//12 108//108 104//104
f 2//2 100//100 96//96
f 12//12 104//104 100//100
f 112//112 108//108 12//12
f 124//124 72//72 82//82
f 132//132 162//162 128//128
f 136//136 162//162 132//132
f 128//128 162//162 161//161
f 161//161 156//156 128//128
f 162//162 136//136 140//140
f 152//152 128//128 156//156
f 12//12 116//116 112//112
f 120//120 116//116 22//22
f 128//128 152//152 148//148
f 144//144 124//124 82//82
f 128//128 148//148 144//144
f 120//120 22//22 124//124
f 82//82 128//128 144//144
f 99//99 11//11 1//1
f 92//92 91//91 1//1
f 91//91 95//95 1//1
f 1//1 95//95 99//99
f 11//11 103//103 107//107
f 11//11 99//99 103//103
f 115//115 21//21 11//11
f 41//41 31//31 123//123
f 21//21 123//123 31//31
f 123//123 61//61 51//51
f 61//61 123//123 71//71
f 123//123 51//51 41//41
f 71//71 123//123 81//81
f 111//111 11//11 107//107
f 119//119 123//123 21//21
f 11//11 111//111 115//115
f 81//81 143//143 127//127
f 127//127 147//147 151//151
f 127//127 143//143 147//147
f 123//123 143//143 81//81
f 135//135 131//131 159//159
f 127//127 159//159 131//131
f 160//160 159//159 127//127
f 159//159 139//139 135//135
f 159//159 160//160 167//167
f 155//155 160//160 127//127
f 155//155 127//127 151//151
f 115//115 119//119 21//21
f 170//170 161//161 162//162
f 176//176 169//169 204//204
f 170//170 204//204 169//169
f 170//170 196//196 200//200
f 200//200 204//204 170//170
f 196//196 170//170 192//192
f 180//180 176//176 204//204
f 204//204 184//184 180//180
f 204//204 188//188 184//184
f 208//208 304//304 212//212
f 314//314 220//220 216//216
f 304//304 216//216 212//212
f 244//244 208//208 188//188
f 188//188 204//204 244//244
f 208//208 254//254 264//264
f 274//274 208//208 264//264
f 208//208 284//284 294//294
f 294//294 304//304 208//208
f 284//284 208//208 274//274
f 216//216 304//304 314//314
f 314//314 228//228 224//224
f 314//314 232//232 228//228
f 236//236 232//232 324//324
f 314//314 324//324 232//232
f 323//323 240//240 324//324
f 236//236 324//324 240//240
f 224//224 220//220 314//314
f 244//244 254//254 208//208
f 203//203 183//183 187//187
f 203//203 179//179 183//183
f 313//313 215//215 219//219
f 207//207 243//243 187//187
f 303//303 207//207 211//211
f 243//243 203//203 187//187
f 168//168 203//203 167//167
f 168//168 167//167 160//160
f 175//175 203//203 168//168
f 199//199 195//195 167//167
f 195//195 191//191 167//167
f 203//203 199//199 167//167
f 203//203 175//175 179//179
f 303//303 211//211 215//215
f 313//313 227//227 231//231
f 313//313 223//223 227//227
f 235//235 239//239 323//323
f 240//240 323//323 239//239
f 235//235 323//323 231//231
f 313//313 231//231 323//323
f 215//215 313//313 303//303
f 207//207 253//253 243//243
f 207//207 263//263 253//253
f 207//207 283//283 273//273
f 207//207 273//273 263//263
f 207//207 293//293 283//283
f 207//207 303//303 293//293
f 223//223 313//313 219//219
f 169//169 161//161 170//170
f 199//199 203//203 205//205
f 191//191 195//195 197//197
f 167//167 191//191 193//193
f 195//195 199//199 201//201
f 267//267 269//269 259//259
f 277//277 279//279 269//269
f 287//287 289//289 279//279
f 297//297 299//299 289//289
f 307//307 309//309 299//299
f 317//317 319//319 309//309
f 265//265 267//267 257//257
f 275//275 277//277 267//267
f 285//285 287//287 277//277
f 295//295 297//297 287//287
f 305//305 307//307 297//297
f 315//315 317//317 307//307
f 261//261 251//251 249//249
f 271//271 261//261 259//259
f 281//281 271//271 269//269
f 247//247 257//257 259//259
f 257//257 247//247 245//245
f 279//279 289//289 291//291
f 301//301 291//291 289//289
f 321//321 311//311 309//309
f 331//331 321//321 319//319
f 311//311 301//301 299//299
f 329//329 319//319 317//317
f 255//255 245//245 243//243
f 275//275 265//265 263//263
f 285//285 275//275 273//273
f 265//265 255//255 253//253
f 283//283 293//293 295//295
f 305//305 295//295 293//293
f 327//327 317//317 315//315
f 315//315 305//305 303//303
f 313//313 323//323 325//325
f 139//139 159//159 163//163
f 131//131 135//135 137//137
f 127//127 131//131 133//133
f 135//135 139//139 141//141
f 65//65 63//63 73//73
f 55//55 53//53 63//63
f 45//45 43//43 53//53
f 35//35 33//33 43//43
f 25//25 23//23 33//33
f 15//15 13//13 23//23
f 67//67 65//65 75//75
f 57//57 55//55 65//65
f 47//47 45//45 55//55
f 37//37 35//35 45//45
f 27//27 25//25 35//35
f 17//17 15//15 25//25
f 71//71 81//81 83//83
f 61//61 71//71 73//73
f 51//51 61//61 63//63
f 85//85 75//75 73//73
f 75//75 85//85 87//87
f 53//53 43//43 41//41
f 31//31 41//41 43//43
f 11//11 21//21 23//23
f 1//1 11//11 13//13
f 21//21 31//31 33//33
f 3//3 13//13 15//15
f 77//77 87//87 89//89
f 57//57 67//67 69//69
f 47//47 57//57 59//59
f 67//67 77//77 79//79
f 49//49 39//39 37//37
f 27//27 37//37 39//39
f 5//5 15//15 17//17
f 17//17 27//27 29//29
f 19//19 9//9 7//7
f 26//26 24//24 14//14
f 36//36 34//34 24//24
f 46//46 44//44 34//34
f 56//56 54//54 44//44
f 66//66 64//64 54//54
f 76//76 74//74 64//64
f 28//28 26//26 16//16
f 38//38 36//36 26//26
f 48//48 46//46 36//36
f 58//58 56//56 46//46
f 68//68 66//66 56//56
f 78//78 76//76 66//66
f 12//12 2//2 4//4
f 22//22 12//12 14//14
f 32//32 22//22 24//24
f 6//6 16//16 14//14
f 16//16 6//6 8//8
f 34//34 44//44 42//42
f 52//52 42//42 44//44
f 72//72 62//62 64//64
f 82//82 72//72 74//74
f 62//62 52//52 54//54
f 84//84 74//74 76//76
f 18//18 8//8 10//10
f 38//38 28//28 30//30
f 48//48 38//38 40//40
f 28//28 18//18 20//20
f 50//50 60//60 58//58
f 68//68 58//58 60//60
f 86//86 76//76 78//78
f 78//78 68//68 70//70
f 80//80 90//90 88//88
f 132//132 128//128 130//130
f 140//140 136//136 138//138
f 162//162 140//140 142//142
f 136//136 132//132 134//134
f 192//192 170//170 174//174
f 200//200 196//196 198//198
f 204//204 200//200 202//202
f 196//196 192//192 194//194
f 268//268 266//266 256//256
f 278//278 276//276 266//266
f 288//288 286//286 276//276
f 298//298 296//296 286//286
f 308//308 306//306 296//296
f 318//318 316//316 306//306
f 270//270 268//268 258//258
f 280//280 278//278 268//268
f 290//290 288//288 278//278
f 300//300 298//298 288//288
f 310//310 308//308 298//298
f 320//320 318//318 308//308
f 254//254 244//244 246//246
f 264//264 254//254 256//256
f 274//274 264//264 266//266
f 248//248 258//258 256//256
f 258//258 248//248 250//250
f 276//276 286//286 284//284
f 294//294 284//284 286//286
f 314//314 304//304 306//306
f 324//324 314//314 316//316
f 304//304 294//294 296//296
f 326//326 316//316 318//318
f 260//260 250//250 252//252
f 280//280 270//270 272//272
f 290//290 280//280 282//282
f 270//270 260//260 262//262
f 292//292 302//302 300//300
f 310//310 300//300 302//302
f 328//328 318//318 320//320
f 320//320 310//310 312//312
f 322//322 332//332 330//330
f 94//94 93//93 91//91
f 91//91 93//93 97//97
f 99//99 101//101 105//105
f 95//95 97//97 101//101
f 109//109 107//107 103//103
f 111//111 113//113 117//117
f 119//119 121//121 125//125
f 115//115 117//117 121//121
f 113//113 111//111 107//107
f 125//125 145//145 143//143
f 143//143 145//145 149//149
f 153//153 151//151 147//147
f 151//151 153//153 157//157
f 164//164 160//160 155//155
f 164//164 172//172 168//168
f 168//168 172//172 177//177
f 175//175 177//177 181//181
f 183//183 185//185 189//189
f 185//185 183//183 179//179
f 189//189 209//209 207//207
f 207//207 209//209 213//213
f 215//215 217//217 221//221
f 211//211 213//213 217//217
f 225//225 223//223 219//219
f 223//223 225//225 229//229
f 231//231 233//233 237//237
f 227//227 229//229 233//233
f 241//241 239//239 235//235
f 241//241 242//242 240//240
f 240//240 242//242 238//238
f 232//232 234//234 230//230
f 236//236 238//238 234//234
f 226//226 224//224 228//228
f 224//224 226//226 222//222
f 216//216 218//218 214//214
f 220//220 222//222 218//218
f 210//210 208//208 212//212
f 210//210 190//190 188//188
f 188//188 190//190 186//186
f 184//184 186//186 182//182
f 176//176 178//178 173//173
f 178//178 176//176 180//180
f 173//173 165//165 161//161
f 161//161 165//165 158//158
f 154//154 152//152 156//156
f 152//152 154//154 150//150
f 146//146 144//144 148//148
f 146//146 126//126 124//124
f 124//124 126//126 122//122
f 116//116 118//118 114//114
f 120//120 122//122 118//118
f 110//110 108//108 112//112
f 108//108 110//110 106//106
f 100//100 102//102 98//98
f 104//104 106//106 102//102
f 94//94 92//92 96//96
f 167//167 163//163 159//159
f 127//127 85//85 83//83
f 7//7 10//10 8//8
f 3//3 6//6 4//4
f 1//1 4//4 2//2
f 5//5 8//8 6//6
f 162//162 174//174 170//170
f 204//204 248//248 246//246
f 330//330 331//331 329//329
f 326//326 327//327 325//325
f 324//324 325//325 323//323
f 328//328 329//329 327//327
f 199//199 205//205 201//201
f 191//191 197//197 193//193
f 167//167 193//193 171//171
f 195//195 201//201 197//197
f 267//267 259//259 257//257
f 277//277 269//269 267//267
f 287//287 279//279 277//277
f 297//297 289//289 287//287
f 307//307 299//299 297//297
f 317//317 309//309 307//307
f 265//265 257//257 255//255
f 275//275 267//267 265//265
f 285//285 277//277 275//275
f 295//295 287//287 285//285
f 305//305 297//297 295//295
f 315//315 307//307 305//305
f 261//261 249//249 259//259
f 271//271 259//259 269//269
f 281//281 269//269 279//279
f 247//247 259//259 249//249
f 257//257 245//245 255//255
f 279//279 291//291 281//281
f 301//301 289//289 299//299
f 321//321 309//309 319//319
f 331//331 319//319 329//329
f 311//311 299//299 309//309
f 329//329 317//317 327//327
f 255//255 243//243 253//253
f 275//275 263//263 273//273
f 285//285 273//273 283//283
f 265//265 253//253 263//263
f 283//283 295//295 285//285
f 305//305 293//293 303//303
f 327//327 315//315 325//325
f 315//315 303//303 313//313
f 313//313 325//325 315//315
f 139//139 163//163 141//141
f 131//131 137//137 133//133
f 127//127 133//133 129//129
f 135//135 141//141 137//137
f 65//65 73//73 75//75
f 55//55 63//63 65//65
f 45//45 53//53 55//55
f 35//35 43//43 45//45
f 25//25 33//33 35//35
f 15//15 23//23 25//25
f 67//67 75//75 77//77
f 57//57 65//65 67//67
f 47//47 55//55 57//57
f 37//37 45//45 47//47
f 27//27 35//35 37//37
f 17//17 25//25 27//27
f 71//71 83//83 73//73
f 61//61 73//73 63//63
f 51//51 63//63 53//53
f 85//85 73//73 83//83
f 75//75 87//87 77//77
f 53//53 41//41 51//51
f 31//31 43//43 33//33
f 11//11 23//23 13//13
f 1//1 13//13 3//3
f 21//21 33//33 23//23
f 3//3 15//15 5//5
f 77//77 89//89 79//79
f 57//57 69//69 59//59
f 47//47 59//59 49//49
f 67//67 79//79 69//69
f 49//49 37//37 47//47
f 27//27 39//39 29//29
f 5//5 17//17 7//7
f 17//17 29//29 19//19
f 19//19 7//7 17//17
f 26//26 14//14 16//16
f 36//36 24//24 26//26
f 46//46 34//34 36//36
f 56//56 44//44 46//46
f 66//66 54//54 56//56
f 76//76 64//64 66//66
f 28//28 16//16 18//18
f 38//38 26//26 28//28
f 48//48 36//36 38//38
f 58//58 46//46 48//48
f 68//68 56//56 58//58
f 78//78 66//66 68//68
f 12//12 4//4 14//14
f 22//22 14//14 24//24
f 32//32 24//24 34//34
f 6//6 14//14 4//4
f 16//16 8//8 18//18
f 34//34 42//42 32//32
f 52//52 44//44 54//54
f 72//72 64//64 74//74
f 82//82 74//74 84//84
f 62//62 54//54 64//64
f 84//84 76//76 86//86
f 18//18 10//10 20//20
f 38//38 30//30 40//40
f 48//48 40//40 50//50
f 28//28 20//20 30//30
f 50//50 58//58 48//48
f 68//68 60//60 70//70
f 86//86 78//78 88//88
f 78//78 70//70 80//80
f 80//80 88//88 78//78
f 132//132 130//130 134//134
f 140//140 138//138 142//142
f 162//162 142//142 166//166
f 136//136 134//134 138//138
f 192//192 174//174 194//194
f 200//200 198//198 202//202
f 204//204 202//202 206//206
f 196//196 194//194 198//198
f 268//268 256//256 258//258
f 278//278 266//266 268//268
f 288//288 276//276 278//278
f 298//298 286//286 288//288
f 308//308 296//296 298//298
f 318//318 306//306 308//308
f 270//270 258//258 260//260
f 280//280 268//268 270//270
f 290//290 278//278 280//280
f 300//300 288//288 290//290
f 310//310 298//298 300//300
f 320//320 308//308 310//310
f 254//254 246//246 256//256
f 264//264 256//256 266//266
f 274//274 266//266 276//276
f 248//248 256//256 246//246
f 258//258 250//250 260//260
f 276//276 284//284 274//274
f 294//294 286//286 296//296
f 314//314 306//306 316//316
f 324//324 316//316 326//326
f 304//304 296//296 306//306
f 326//326 318//318 328//328
f 260//260 252//252 262//262
f 280//280 272//272 282//282
f 290//290 282//282 292//292
f 270//270 262//262 272//272
f 292//292 300//300 290//290
f 310//310 302//302 312//312
f 328//328 320//320 330//330
f 320//320 312//312 322//322
f 322//322 330//330 320//320
f 94//94 91//91 92//92
f 91//91 97//97 95//95
f 99//99 105//105 103//103
f 95//95 101//101 99//99
f 109//109 103//103 105//105
f 111//111 117//117 115//115
f 119//119 125//125 123//123
f 115//115 121//121 119//119
f 113//113 107//107 109//109
f 125//125 143//143 123//123
f 143//143 149//149 147//147
f 153//153 147//147 149//149
f 151//151 157//157 155//155
f 164//164 155//155 157//157
f 164//164 168//168 160//160
f 168//168 177//177 175//175
f 175//175 181//181 179//179
f 183//183 189//189 187//187
f 185//185 179//179 181//181
f 189//189 207//207 187//187
f 207//207 213//213 211//211
f 215//215 221//221 219//219
f 211//211 217//217 215//215
f 225//225 219//219 221//221
f 223//223 229//229 227//227
f 231//231 237//237 235//235
f 227//227 233//233 231//231
f 241//241 235//235 237//237
f 241//241 240//240 239//239
f 240//240 238//238 236//236
f 232//232 230//230 228//228
f 236//236 234//234 232//232
f 226//226 228//228 230//230
f 224//224 222//222 220//220
f 216//216 214//214 212//212
f 220//220 218//218 216//216
f 210//210 212//212 214//214
f 210//210 188//188 208//208
f 188//188 186//186 184//184
f 184//184 182//182 180//180
f 176//176 173//173 169//169
f 178//178 180//180 182//182
f 173//173 161//161 169//169
f 161//161 158//158 156//156
f 154//154 156//156 158//158
f 152//152 150//150 148//148
f 146//146 148//148 150//150
f 146//146 124//124 144//144
f 124//124 122//122 120//120
f 116//116 114//114 112//112
f 120//120 118//118 116//116
f 110//110 112//112 114//114
f 108//108 106//106 104//104
f 100//100 98//98 96//96
f 104//104 102//102 100//100
f 94//94 96//96 98//98