# PHANTOM Module: PL10_12
# Units: meters
o PL10_12

v 5.200001 1.200000 2.231603
v 5.200001 1.200000 1.066417
v 5.200001 0.799999 2.154660
v 5.200001 0.799999 0.989474
v 5.200001 0.400000 2.077718
v 5.200001 0.400000 0.912532
v 5.200001 0.000000 2.000775
v 5.200001 0.000000 0.835589
v 5.198452 1.200000 2.259803
v 5.198452 1.200000 1.038217
v 5.198452 0.799999 2.182860
v 5.198452 0.799999 0.961274
v 5.198452 0.400000 2.105917
v 5.198452 0.400000 0.884332
v 5.198452 0.000000 2.028975
v 5.198452 0.000000 0.807389
v 5.193691 1.200000 2.288231
v 5.193691 1.200000 1.009789
v 5.193691 0.799999 2.211288
v 5.193691 0.799999 0.932846
v 5.193691 0.400000 2.134346
v 5.193691 0.400000 0.855903
v 5.193691 0.000000 2.057403
v 5.193691 0.000000 0.778961
v 5.185637 1.200000 2.316233
v 5.185637 1.200000 0.981787
v 5.185637 0.799999 2.239290
v 5.185637 0.799999 0.904844
v 5.185637 0.400000 2.162347
v 5.185637 0.400000 0.827902
v 5.185637 0.000000 2.085405
v 5.185637 0.000000 0.750959
v 5.174364 1.200000 2.343133
v 5.174364 1.200000 0.954887
v 5.174364 0.799999 2.266190
v 5.174364 0.799999 0.877944
v 5.174364 0.400000 2.189247
v 5.174364 0.400000 0.801001
v 5.174364 0.000000 2.112305
v 5.174364 0.000000 0.724059
v 5.160099 1.200000 2.368286
v 5.160099 1.200000 0.929733
v 5.160099 0.799999 2.291344
v 5.160099 0.799999 0.852791
v 5.160099 0.400000 2.214401
v 5.160099 0.400000 0.775848
v 5.160099 0.000000 2.137459
v 5.160099 0.000000 0.698905
v 5.143209 1.200000 2.391130
v 5.143209 1.200000 0.906890
v 5.143209 0.799999 2.314187
v 5.143209 0.799999 0.829947
v 5.143209 0.400000 2.237245
v 5.143209 0.400000 0.753004
v 5.143209 0.000000 2.160302
v 5.143209 0.000000 0.676062
v 5.124168 1.200000 2.411222
v 5.124168 1.200000 0.886798
v 5.124168 0.799999 2.334279
v 5.124168 0.799999 0.809855
v 5.124168 0.400000 2.257337
v 5.124168 0.400000 0.732912
v 5.124168 0.000000 2.180394
v 5.124168 0.000000 0.655970
v 5.103519 1.200000 2.428269
v 5.103519 1.200000 0.869750
v 5.103519 0.799999 2.351326
v 5.103519 0.799999 0.792808
v 5.103519 0.400000 2.274384
v 5.103519 0.400000 0.715865
v 5.103519 0.000000 2.197441
v 5.103519 0.000000 0.638922
v 5.000000 1.200000 2.231603
v 5.000000 1.200000 1.066417
v 5.000000 0.000000 2.000775
v 5.000000 0.000000 0.835589
v 4.999882 1.200000 2.233772
v 4.999882 1.200000 1.064248
v 4.999882 0.000000 2.002944
v 4.999882 0.000000 0.833420
v 4.999516 1.200000 2.235959
v 4.999516 1.200000 1.062061
v 4.999516 0.000000 2.005131
v 4.999516 0.000000 0.831233
v 4.999123 0.299999 0.888943
v 4.998896 1.200000 2.238113
v 4.998896 1.200000 1.059907
v 4.998896 0.000000 2.007285
v 4.998896 0.000000 0.829079
v 4.998796 0.599999 0.946840
v 4.998470 0.900000 1.004737
v 4.998470 0.299999 2.062454
v 4.998362 0.599999 2.120098
v 4.998253 0.900000 2.177741
v 4.998028 1.200000 2.240182
v 4.998028 1.200000 1.057838
v 4.998028 0.000000 2.009354
v 4.998028 0.000000 0.827010
v 4.996943 0.299999 2.066427
v 4.996943 0.299999 0.885351
v 4.996931 1.200000 2.242117
v 4.996931 1.200000 1.055903
v 4.996931 0.000000 2.011289
v 4.996931 0.000000 0.825075
v 4.996725 0.599999 2.124007
v 4.996725 0.599999 0.943185
v 4.996508 0.900000 2.181587
v 4.996508 0.900000 1.001019
v 4.995632 1.200000 2.243874
v 4.995632 1.200000 1.054146
v 4.995632 0.000000 2.013046
v 4.995632 0.000000 0.823318
v 4.995413 0.299999 2.070399
v 4.995087 0.599999 2.127916
v 4.994761 0.900000 2.185432
v 4.994761 0.299999 0.881759
v 4.994652 0.599999 0.939530
v 4.994543 0.900000 0.997300
v 4.994167 1.200000 2.245420
v 4.994167 1.200000 1.052600
v 4.994167 0.000000 2.014592
v 4.994167 0.000000 0.821772
v 4.992579 1.200000 2.246731
v 4.992579 1.200000 1.051289
v 4.992579 0.000000 2.015903
v 4.992579 0.000000 0.820461
v 4.279585 1.200000 3.027494
v 4.279585 1.200000 0.270525
v 4.279585 0.000000 2.796666
v 4.279585 0.000000 0.039697
v 4.252039 1.200000 3.044497
v 4.252039 1.200000 0.253523
v 4.252039 0.000000 2.813669
v 4.252039 0.000000 0.022695
v 4.222185 1.200000 3.057050
v 4.222185 1.200000 0.240970
v 4.222185 0.000000 2.826222
v 4.222185 0.000000 0.010142
v 4.190964 1.200000 3.064670
v 4.190964 1.200000 0.233350
v 4.190964 0.000000 2.833842
v 4.190964 0.000000 0.002522
v 4.168644 1.200000 2.845956
v 4.168644 1.200000 0.452063
v 4.168644 0.000000 2.615128
v 4.168644 0.000000 0.221235
v 4.166525 1.200000 2.847264
v 4.166525 1.200000 0.450756
v 4.166525 0.000000 2.616436
v 4.166525 0.000000 0.219928
v 4.166449 0.299999 0.277759
v 4.166410 0.599999 0.335606
v 4.166372 0.900000 0.393453
v 4.166372 0.299999 2.673739
v 4.166359 0.599999 2.731399
v 4.166346 0.900000 2.789059
v 4.164228 1.200000 2.848230
v 4.164228 1.200000 0.449790
v 4.164228 0.000000 2.617402
v 4.164228 0.000000 0.218962
v 4.164099 0.299999 2.674642
v 4.164099 0.299999 0.277136
v 4.164074 0.599999 2.732256
v 4.164074 0.599999 0.334936
v 4.164047 0.900000 2.789869
v 4.164047 0.900000 0.392736
v 4.161827 1.200000 2.848816
v 4.161827 1.200000 0.449204
v 4.161827 0.299999 2.675545
v 4.161827 0.000000 2.617988
v 4.161827 0.000000 0.218376
v 4.161789 0.599999 2.733112
v 4.161749 0.900000 2.790679
v 4.161749 0.299999 0.276512
v 4.161736 0.599999 0.334266
v 4.161724 0.900000 0.392020
v 4.159399 1.200000 3.067192
v 4.159399 1.200000 2.849010
v 4.159399 1.200000 0.449010
v 4.159399 1.200000 0.230828
v 4.159399 0.000000 2.836364
v 4.159399 0.000000 2.618182
v 4.159399 0.000000 0.218182
v 4.159399 0.000000 0.000000
v 1.040602 1.200000 3.067192
v 1.040602 1.200000 2.849010
v 1.040602 1.200000 0.449010
v 1.040602 1.200000 0.230828
v 1.040602 0.000000 2.836364
v 1.040602 0.000000 2.618182
v 1.040602 0.000000 0.218182
v 1.040602 0.000000 0.000000
v 1.038279 0.900000 2.790586
v 1.038265 0.599999 2.732926
v 1.038252 0.900000 0.391926
v 1.038252 0.299999 2.675265
v 1.038214 0.599999 0.334079
v 1.038174 1.200000 2.848816
v 1.038174 1.200000 0.449204
v 1.038174 0.299999 0.276232
v 1.038174 0.000000 2.617988
v 1.038174 0.000000 0.218376
v 1.035954 0.900000 2.789869
v 1.035954 0.900000 0.392736
v 1.035927 0.599999 2.732256
v 1.035927 0.599999 0.334936
v 1.035902 0.299999 2.674642
v 1.035902 0.299999 0.277136
v 1.035772 1.200000 2.848230
v 1.035772 1.200000 0.449790
v 1.035772 0.000000 2.617402
v 1.035772 0.000000 0.218962
v 1.033655 0.900000 0.393546
v 1.033642 0.599999 0.335793
v 1.033628 0.900000 2.789153
v 1.033628 0.299999 0.278039
v 1.033590 0.599999 2.731586
v 1.033552 0.299999 2.674019
v 1.033476 1.200000 2.847264
v 1.033476 1.200000 0.450756
v 1.033476 0.000000 2.616436
v 1.033476 0.000000 0.219928
v 1.031357 1.200000 2.845956
v 1.031357 1.200000 0.452063
v 1.031357 0.000000 2.615128
v 1.031357 0.000000 0.221235
v 1.009037 1.200000 3.064670
v 1.009037 1.200000 0.233350
v 1.009037 0.000000 2.833842
v 1.009037 0.000000 0.002522
v 0.977816 1.200000 3.057050
v 0.977816 1.200000 0.240970
v 0.977816 0.000000 2.826222
v 0.977816 0.000000 0.010142
v 0.947962 1.200000 3.044497
v 0.947962 1.200000 0.253523
v 0.947962 0.000000 2.813669
v 0.947962 0.000000 0.022695
v 0.920416 1.200000 3.027494
v 0.920416 1.200000 0.270525
v 0.920416 0.000000 2.796666
v 0.920416 0.000000 0.039697
v 0.207422 1.200000 2.246731
v 0.207422 1.200000 1.051289
v 0.207422 0.000000 2.015903
v 0.207422 0.000000 0.820461
v 0.205833 1.200000 2.245420
v 0.205833 1.200000 1.052600
v 0.205833 0.000000 2.014592
v 0.205833 0.000000 0.821772
v 0.205458 0.900000 2.185305
v 0.205349 0.599999 2.127662
v 0.205240 0.900000 0.997173
v 0.205240 0.299999 2.070018
v 0.204915 0.599999 0.939276
v 0.204589 0.299999 0.881379
v 0.204369 1.200000 2.243874
v 0.204369 1.200000 1.054146
v 0.204369 0.000000 2.013046
v 0.204369 0.000000 0.823318
v 0.203494 0.900000 2.181587
v 0.203494 0.900000 1.001019
v 0.203277 0.599999 2.124007
v 0.203277 0.599999 0.943185
v 0.203070 1.200000 2.242117
v 0.203070 1.200000 1.055903
v 0.203070 0.000000 2.011289
v 0.203070 0.000000 0.825075
v 0.203059 0.299999 2.066427
v 0.203059 0.299999 0.885351
v 0.201973 1.200000 2.240182
v 0.201973 1.200000 1.057838
v 0.201973 0.000000 2.009354
v 0.201973 0.000000 0.827010
v 0.201747 0.900000 1.004864
v 0.201638 0.599999 0.947094
v 0.201530 0.900000 2.177868
v 0.201530 0.299999 0.889324
v 0.201204 0.599999 2.120352
v 0.201105 1.200000 2.238113
v 0.201105 1.200000 1.059907
v 0.201105 0.000000 2.007285
v 0.201105 0.000000 0.829079
v 0.200878 0.299999 2.062835
v 0.200486 1.200000 2.235959
v 0.200486 1.200000 1.062061
v 0.200486 0.000000 2.005131
v 0.200486 0.000000 0.831233
v 0.200120 1.200000 2.233772
v 0.200120 1.200000 1.064248
v 0.200120 0.000000 2.002944
v 0.200120 0.000000 0.833420
v 0.200001 1.200000 2.231603
v 0.200001 1.200000 1.066417
v 0.200001 0.000000 2.000775
v 0.200001 0.000000 0.835589
v 0.096482 1.200000 2.428269
v 0.096482 1.200000 0.869750
v 0.096482 0.799999 2.351326
v 0.096482 0.799999 0.792808
v 0.096482 0.400000 2.274384
v 0.096482 0.400000 0.715865
v 0.096482 0.000000 2.197441
v 0.096482 0.000000 0.638922
v 0.075832 1.200000 2.411222
v 0.075832 1.200000 0.886798
v 0.075832 0.799999 2.334279
v 0.075832 0.799999 0.809855
v 0.075832 0.400000 2.257337
v 0.075832 0.400000 0.732912
v 0.075832 0.000000 2.180394
v 0.075832 0.000000 0.655970
v 0.056791 1.200000 2.391130
v 0.056791 1.200000 0.906890
v 0.056791 0.799999 2.314187
v 0.056791 0.799999 0.829947
v 0.056791 0.400000 2.237245
v 0.056791 0.400000 0.753004
v 0.056791 0.000000 2.160302
v 0.056791 0.000000 0.676062
v 0.039902 1.200000 2.368286
v 0.039902 1.200000 0.929733
v 0.039902 0.799999 2.291344
v 0.039902 0.799999 0.852791
v 0.039902 0.400000 2.214401
v 0.039902 0.400000 0.775848
v 0.039902 0.000000 2.137459
v 0.039902 0.000000 0.698905
v 0.025638 1.200000 2.343133
v 0.025638 1.200000 0.954887
v 0.025638 0.799999 2.266190
v 0.025638 0.799999 0.877944
v 0.025638 0.400000 2.189247
v 0.025638 0.400000 0.801001
v 0.025638 0.000000 2.112305
v 0.025638 0.000000 0.724059
v 0.014365 1.200000 2.316233
v 0.014365 1.200000 0.981787
v 0.014365 0.799999 2.239290
v 0.014365 0.799999 0.904844
v 0.014365 0.400000 2.162347
v 0.014365 0.400000 0.827902
v 0.014365 0.000000 2.085405
v 0.014365 0.000000 0.750959
v 0.006310 1.200000 2.288231
v 0.006310 1.200000 1.009789
v 0.006310 0.799999 2.211288
v 0.006310 0.799999 0.932846
v 0.006310 0.400000 2.134346
v 0.006310 0.400000 0.855903
v 0.006310 0.000000 2.057403
v 0.006310 0.000000 0.778961
v 0.001548 1.200000 2.259803
v 0.001548 1.200000 1.038217
v 0.001548 0.799999 2.182860
v 0.001548 0.799999 0.961274
v 0.001548 0.400000 2.105917
v 0.001548 0.400000 0.884332
v 0.001548 0.000000 2.028975
v 0.001548 0.000000 0.807389
v 0.000000 1.200000 2.231603
v 0.000000 1.200000 1.066417
v 0.000000 0.799999 2.154660
v 0.000000 0.799999 0.989474
v 0.000000 0.400000 2.077718
v 0.000000 0.400000 0.912532
v 0.000000 0.000000 2.000775
v 0.000000 0.000000 0.835589

vn 0.515610 0.856616 0.018869
vn 0.598753 0.800859 -0.010950
vn 0.999610 -0.005276 0.027428
vn 0.999610 0.005276 -0.027428
vn 0.999610 -0.005276 0.027428
vn 0.999610 0.005276 -0.027428
vn 0.513479 -0.858051 0.009390
vn 0.601485 -0.798581 -0.022011
vn 0.447305 0.892500 0.057985
vn 0.441650 0.896265 -0.040684
vn 0.993691 -0.021185 0.110135
vn 0.993691 0.021185 -0.110135
vn 0.993691 -0.021185 0.110135
vn 0.993691 0.021185 -0.110135
vn 0.441650 -0.896265 0.040684
vn 0.447305 -0.892500 -0.057985
vn 0.594624 0.790489 0.146795
vn 0.575900 0.808797 -0.119104
vn 0.974361 -0.042499 0.220939
vn 0.974361 0.042499 -0.220939
vn 0.974361 -0.042499 0.220939
vn 0.974361 0.042499 -0.220939
vn 0.575900 -0.808797 0.119104
vn 0.594624 -0.790489 -0.146795
vn 0.802508 0.515653 0.300138
vn 0.767232 0.589208 -0.253354
vn 0.941365 -0.063731 0.331317
vn 0.941365 0.063731 -0.331317
vn 0.941365 -0.063731 0.331317
vn 0.941365 0.063731 -0.331317
vn 0.767232 -0.589209 0.253354
vn 0.802508 -0.515653 -0.300137
vn 0.768080 0.503114 0.396144
vn 0.724571 0.600643 -0.337970
vn 0.894481 -0.084456 0.439058
vn 0.894481 0.084456 -0.439058
vn 0.894481 -0.084456 0.439056
vn 0.894481 0.084456 -0.439058
vn 0.724572 -0.600643 0.337970
vn 0.768080 -0.503114 -0.396143
vn 0.720782 0.490999 0.489279
vn 0.672065 0.611450 -0.417680
vn 0.833965 -0.104235 0.541884
vn 0.833964 0.104235 -0.541884
vn 0.833965 -0.104235 0.541884
vn 0.833964 0.104235 -0.541884
vn 0.672066 -0.611450 0.417679
vn 0.720781 -0.490998 -0.489280
vn 0.660922 0.479606 0.577200
vn 0.610588 0.621414 -0.490945
vn 0.760644 -0.122624 0.637483
vn 0.760642 0.122624 -0.637484
vn 0.760643 -0.122624 0.637484
vn 0.760642 0.122625 -0.637484
vn 0.610588 -0.621414 0.490945
vn 0.660921 -0.479606 -0.577201
vn 0.589475 0.469229 0.657528
vn 0.541328 0.630342 -0.556447
vn 0.675914 -0.139211 0.723713
vn 0.675915 0.139211 -0.723712
vn 0.675914 -0.139211 0.723713
vn 0.675915 0.139211 -0.723712
vn 0.541328 -0.630342 0.556447
vn 0.589476 -0.469229 -0.657527
vn 0.361940 0.806877 0.466851
vn 0.404811 0.758114 -0.511264
vn 0.605750 -0.150294 0.781331
vn 0.605751 0.150294 -0.781330
vn 0.610598 -0.149593 0.777684
vn 0.610600 0.149593 -0.777683
vn 0.404810 -0.758114 0.511265
vn 0.361941 -0.806877 -0.466850
vn -0.851816 0.485650 -0.196350
vn -0.853922 0.502416 0.135628
vn -0.924056 -0.352999 -0.146670
vn -0.784434 -0.613676 0.089799
vn -0.693092 0.716760 -0.076673
vn -0.708242 0.701608 0.078354
vn -0.708242 -0.701608 -0.078354
vn -0.694182 -0.715691 0.076797
vn -0.654832 0.729965 -0.195822
vn -0.549860 0.825893 0.124719
vn -0.549860 -0.825893 -0.124719
vn -0.529227 -0.839946 0.120038
vn -0.948118 -0.061598 0.311894
vn -0.642644 0.731970 -0.226339
vn -0.685950 0.686372 0.241590
vn -0.803475 -0.519029 -0.291611
vn -0.733853 -0.600961 0.316710
vn -0.919968 -0.074979 0.384755
vn -0.943592 -0.059804 0.325664
vn -0.964719 0.046996 -0.259053
vn -0.921719 0.072864 -0.380952
vn -0.947014 0.062688 -0.315016
vn -0.718642 0.604378 -0.343919
vn -0.769823 0.507323 0.387294
vn -0.659156 -0.678829 -0.323581
vn -0.605439 -0.738319 0.297203
vn -0.919896 0.071624 -0.385567
vn -0.865720 -0.097009 0.491037
vn -0.559435 0.744982 -0.363365
vn -0.740365 0.499508 0.449835
vn -0.755430 -0.503719 -0.419037
vn -0.665969 -0.614383 0.423106
vn -0.919850 0.073297 -0.385363
vn -0.865954 -0.095276 0.490965
vn -0.919470 0.076991 -0.385548
vn -0.876136 -0.088745 0.473825
vn -0.398616 0.854120 -0.334043
vn -0.446655 0.812646 0.374306
vn -0.447226 -0.812107 -0.374795
vn -0.398608 -0.854121 0.334050
vn -0.819729 0.106621 -0.562740
vn -0.864463 0.094017 -0.493827
vn -0.828896 0.108458 -0.548788
vn -0.786320 -0.119503 0.606152
vn -0.863363 -0.095715 0.495422
vn -0.819541 -0.105666 0.563194
vn -0.446275 0.756604 -0.477901
vn -0.513510 0.658695 0.549934
vn -0.514218 -0.657509 -0.550692
vn -0.446271 -0.756604 0.477905
vn -0.351138 0.871861 -0.341409
vn -0.351012 0.888877 0.294429
vn -0.319813 -0.884246 -0.340336
vn -0.351527 -0.871620 0.341625
vn 0.293466 0.850020 0.437429
vn 0.209184 0.929605 -0.303442
vn 0.263472 -0.887917 0.377075
vn 0.350312 -0.783196 -0.513698
vn 0.388021 0.450877 0.803834
vn 0.366902 0.646108 -0.669274
vn 0.366902 -0.646108 0.669274
vn 0.388021 -0.450877 -0.803834
vn 0.258181 0.444005 0.858022
vn 0.256559 0.652191 -0.713319
vn 0.256560 -0.652191 0.713319
vn 0.258179 -0.444005 -0.858023
vn 0.131072 0.147962 0.980269
vn 0.163669 0.467739 -0.868581
vn 0.163669 -0.467739 0.868581
vn 0.131074 -0.147962 -0.980269
vn -0.326827 0.684782 -0.651350
vn -0.448924 0.406792 0.795605
vn -0.449015 -0.406595 -0.795654
vn -0.378540 -0.679787 0.628170
vn -0.316598 0.650497 -0.690376
vn -0.349259 0.646623 0.678157
vn -0.349243 -0.646621 -0.678167
vn -0.297821 -0.651888 0.697385
vn -0.365380 -0.176260 0.914019
vn -0.347269 -0.177494 0.920815
vn -0.359327 -0.175486 0.916564
vn -0.402699 0.171990 -0.899029
vn -0.348505 0.176899 -0.920463
vn -0.366549 0.176289 -0.913545
vn -0.242041 0.653578 -0.717114
vn -0.274952 0.445672 0.851926
vn -0.297249 -0.446591 -0.843919
vn -0.222734 -0.654233 0.722750
vn -0.339320 0.176977 -0.923873
vn -0.277132 -0.182206 0.943398
vn -0.345490 0.176957 -0.921587
vn -0.270995 -0.182131 0.945193
vn -0.339254 0.178502 -0.923604
vn -0.277366 -0.180667 0.943624
vn -0.101107 0.771512 -0.628130
vn -0.183568 0.443356 0.877347
vn -0.248808 0.182525 -0.951199
vn -0.206510 -0.444884 -0.871454
vn -0.101111 -0.771511 0.628130
vn -0.268380 0.181606 -0.946040
vn -0.256000 0.183396 -0.949121
vn -0.210170 -0.185594 0.959887
vn -0.267789 -0.182147 0.946103
vn -0.248405 -0.182423 0.951324
vn 0.015572 0.920484 0.390469
vn -0.094692 0.772283 -0.628182
vn -0.114230 0.533970 0.837751
vn 0.022456 0.826119 -0.563048
vn 0.022455 -0.826119 0.563049
vn -0.061202 -0.530006 -0.845783
vn -0.094790 -0.772129 0.628357
vn 0.015573 -0.920484 -0.390469
vn -0.012654 0.879247 0.476198
vn 0.105182 0.628179 -0.770927
vn 0.129021 0.500985 0.855785
vn -0.021739 0.912459 -0.408590
vn -0.021738 -0.912459 0.408590
vn 0.129055 -0.500692 -0.855951
vn 0.056306 -0.626878 0.777080
vn -0.012655 -0.879247 -0.476198
vn 0.240745 0.184380 -0.952914
vn 0.274104 0.181506 -0.944417
vn 0.278693 -0.181105 0.943150
vn 0.217790 0.183686 -0.958555
vn 0.274598 -0.181989 0.944180
vn 0.101088 0.771610 -0.628012
vn 0.195052 0.444229 0.874423
vn 0.225818 -0.184693 0.956501
vn 0.171927 -0.442257 -0.880256
vn 0.101168 -0.771216 0.628483
vn 0.302063 0.180881 -0.935970
vn 0.314764 -0.178478 0.932239
vn 0.270975 0.181520 -0.945316
vn 0.345357 -0.177576 0.921518
vn 0.252158 0.181872 -0.950441
vn 0.363542 -0.176882 0.914631
vn 0.232350 0.654021 -0.719910
vn 0.286174 0.446247 0.847920
vn 0.263769 -0.444877 -0.855868
vn 0.251697 -0.652909 0.714393
vn 0.373940 -0.174156 0.910955
vn 0.342389 -0.177630 0.922614
vn 0.337197 0.178130 -0.924428
vn 0.395441 -0.174163 0.901828
vn 0.341220 0.177201 -0.923130
vn 0.387320 0.173474 -0.905478
vn 0.307161 0.651307 -0.693867
vn 0.349213 0.646741 0.678068
vn 0.349379 -0.646271 -0.678430
vn 0.326018 -0.649467 0.686953
vn 0.340125 0.683513 -0.645852
vn 0.436409 0.406657 0.802606
vn 0.484780 -0.407754 -0.773773
vn 0.340243 -0.683354 0.645958
vn -0.131072 0.147962 0.980269
vn -0.163669 0.467739 -0.868581
vn -0.163669 -0.467739 0.868581
vn -0.131074 -0.147962 -0.980269
vn -0.258181 0.444005 0.858022
vn -0.256559 0.652191 -0.713319
vn -0.256560 -0.652191 0.713319
vn -0.258179 -0.444005 -0.858023
vn -0.388021 0.450877 0.803834
vn -0.366902 0.646108 -0.669274
vn -0.366902 -0.646108 0.669274
vn -0.388021 -0.450877 -0.803834
vn -0.350312 0.783196 0.513698
vn -0.263473 0.887917 -0.377074
vn -0.209184 -0.929605 0.303442
vn -0.293467 -0.850020 -0.437429
vn 0.358699 0.872299 -0.332309
vn 0.343647 0.887681 0.306478
vn 0.344186 -0.887351 -0.306830
vn 0.327574 -0.870807 0.366594
vn 0.446072 0.756860 -0.477684
vn 0.513687 0.658399 0.550124
vn 0.513688 -0.658399 -0.550124
vn 0.446879 -0.755833 0.478556
vn 0.810627 0.113745 -0.574409
vn 0.868510 0.093226 -0.486825
vn 0.838828 -0.100882 0.534967
vn 0.799235 0.111007 -0.590678
vn 0.869299 -0.094305 0.485206
vn 0.809411 -0.112820 0.576303
vn 0.398442 0.854258 -0.333897
vn 0.446799 0.812511 0.374427
vn 0.446794 -0.812511 -0.374435
vn 0.399130 -0.853706 0.334488
vn 0.882454 0.091659 -0.461382
vn 0.903519 -0.078575 0.421283
vn 0.866073 0.093626 -0.491073
vn 0.919667 -0.074978 0.385474
vn 0.674858 0.613586 -0.409974
vn 0.747968 0.501970 0.434245
vn 0.732752 -0.496398 -0.465471
vn 0.560206 -0.744155 0.363871
vn 0.856003 0.095133 -0.508143
vn 0.932316 -0.071039 0.354599
vn 0.604891 0.738878 -0.296928
vn 0.776135 0.509553 0.371444
vn 0.763424 -0.504413 -0.403425
vn 0.727065 -0.601758 0.330549
vn 0.949175 -0.056050 0.309718
vn 0.917711 -0.075438 0.390019
vn 0.937426 0.067661 -0.341547
vn 0.959002 -0.055694 0.277873
vn 0.916073 0.074814 -0.393971
vn 0.741105 0.599362 -0.302537
vn 0.685719 0.686686 0.241352
vn 0.686780 -0.685495 -0.241723
vn 0.643264 -0.731404 0.226405
vn 0.953621 0.054988 -0.295943
vn 0.528648 0.840345 -0.119796
vn 0.549689 0.826030 0.124563
vn 0.550460 -0.825491 -0.124736
vn 0.660940 -0.727615 0.183668
vn 0.693340 0.716500 -0.076855
vn 0.707980 0.701858 0.078482
vn 0.709046 -0.700769 -0.078599
vn 0.693340 -0.716500 0.076857
vn 0.860061 0.480293 -0.172088
vn 0.851110 0.501451 0.155429
vn 0.929196 -0.359688 -0.084960
vn 0.765301 -0.625233 0.152964
vn -0.361935 0.806876 0.466855
vn -0.404803 0.758115 -0.511270
vn -0.610587 -0.149594 0.777692
vn -0.610589 0.149594 -0.777691
vn -0.605741 -0.150296 0.781338
vn -0.605742 0.150296 -0.781337
vn -0.404802 -0.758115 0.511271
vn -0.361936 -0.806876 -0.466855
vn -0.589466 0.469228 0.657537
vn -0.541324 0.630342 -0.556450
vn -0.675906 -0.139212 0.723720
vn -0.675907 0.139212 -0.723719
vn -0.675906 -0.139213 0.723720
vn -0.675907 0.139212 -0.723719
vn -0.541324 -0.630342 0.556450
vn -0.589467 -0.469228 -0.657536
vn -0.660922 0.479606 0.577200
vn -0.610588 0.621414 -0.490945
vn -0.760644 -0.122624 0.637483
vn -0.760642 0.122624 -0.637484
vn -0.760643 -0.122624 0.637484
vn -0.760642 0.122625 -0.637484
vn -0.610588 -0.621414 0.490945
vn -0.660921 -0.479606 -0.577201
vn -0.720786 0.491000 0.489272
vn -0.672074 0.611449 -0.417668
vn -0.833973 -0.104233 0.541872
vn -0.833972 0.104233 -0.541872
vn -0.833973 -0.104233 0.541872
vn -0.833972 0.104233 -0.541872
vn -0.672075 -0.611449 0.417667
vn -0.720785 -0.491000 -0.489273
vn -0.768087 0.503115 0.396129
vn -0.724575 0.600642 -0.337964
vn -0.894487 -0.084453 0.439045
vn -0.894487 0.084453 -0.439045
vn -0.894488 -0.084453 0.439044
vn -0.894487 0.084453 -0.439045
vn -0.724576 -0.600642 0.337963
vn -0.768087 -0.503115 -0.396128
vn -0.802508 0.515653 0.300138
vn -0.767232 0.589208 -0.253354
vn -0.941365 -0.063731 0.331317
vn -0.941365 0.063731 -0.331317
vn -0.941365 -0.063731 0.331317
vn -0.941365 0.063731 -0.331317
vn -0.767232 -0.589209 0.253354
vn -0.802508 -0.515653 -0.300138
vn -0.594623 0.790488 0.146808
vn -0.575893 0.808799 -0.119129
vn -0.974354 -0.042505 0.220971
vn -0.974354 0.042505 -0.220970
vn -0.974354 -0.042505 0.220971
vn -0.974354 0.042505 -0.220970
vn -0.575893 -0.808799 0.119129
vn -0.594623 -0.790488 -0.146808
vn -0.447303 0.892500 0.057999
vn -0.441649 0.896265 -0.040683
vn -0.993689 -0.021188 0.110150
vn -0.993689 0.021188 -0.110151
vn -0.993689 -0.021188 0.110151
vn -0.993689 0.021188 -0.110150
vn -0.441649 -0.896265 0.040683
vn -0.447303 -0.892500 -0.057999
vn -0.515610 0.856616 0.018857
vn -0.598754 0.800858 -0.010943
vn -0.999610 -0.005273 0.027411
vn -0.999610 0.005273 -0.027411
vn -0.999610 -0.005273 0.027411
vn -0.999610 0.005273 -0.027411
vn -0.513480 -0.858050 0.009385
vn -0.601484 -0.798582 -0.021998

f 241//241 301//301 303//303
f 239//239 299//299 301//301
f 297//297 299//299 239//239
f 241//241 239//239 301//301
f 185//185 189//189 181//181
f 127//127 129//129 67//67
f 71//71 69//69 129//129
f 127//127 67//67 65//65
f 1//1 3//3 2//2
f 6//6 4//4 5//5
f 5//5 7//7 6//6
f 130//130 70//70 72//72
f 130//130 68//68 70//70
f 66//66 68//68 128//128
f 130//130 128//128 68//68
f 180//180 184//184 192//192
f 240//240 242//242 302//302
f 304//304 302//302 242//242
f 240//240 300//300 298//298
f 363//363 361//361 362//362
f 367//367 365//365 366//366
f 365//365 363//363 364//364
f 112//112 24//24 16//16
f 126//126 32//32 24//24
f 56//56 48//48 126//126
f 40//40 126//126 48//48
f 126//126 40//40 32//32
f 126//126 64//64 56//56
f 80//80 8//8 76//76
f 16//16 8//8 84//84
f 7//7 76//76 8//8
f 16//16 89//89 98//98
f 8//8 80//80 84//84
f 16//16 84//84 89//89
f 104//104 16//16 98//98
f 126//126 72//72 64//64
f 134//134 130//130 184//184
f 138//138 134//134 184//184
f 130//130 183//183 184//184
f 183//183 130//130 171//171
f 184//184 142//142 138//138
f 160//160 171//171 130//130
f 16//16 104//104 112//112
f 122//122 24//24 112//112
f 130//130 150//150 160//160
f 146//146 72//72 126//126
f 130//130 146//146 150//150
f 122//122 126//126 24//24
f 72//72 146//146 130//130
f 83//83 7//7 15//15
f 76//76 7//7 75//75
f 75//75 7//7 79//79
f 7//7 83//83 79//79
f 15//15 97//97 88//88
f 15//15 88//88 83//83
f 111//111 15//15 23//23
f 39//39 125//125 31//31
f 23//23 31//31 125//125
f 125//125 47//47 55//55
f 55//55 63//63 125//125
f 125//125 39//39 47//47
f 63//63 71//71 125//125
f 103//103 97//97 15//15
f 121//121 23//23 125//125
f 15//15 111//111 103//103
f 71//71 129//129 145//145
f 129//129 159//159 149//149
f 129//129 149//149 145//145
f 125//125 71//71 145//145
f 137//137 181//181 133//133
f 129//129 133//133 181//181
f 182//182 129//129 181//181
f 181//181 137//137 141//141
f 181//181 189//189 182//182
f 170//170 129//129 182//182
f 170//170 159//159 129//129
f 111//111 23//23 121//121
f 192//192 184//184 183//183
f 202//202 242//242 191//191
f 192//192 191//191 242//242
f 192//192 238//238 234//234
f 238//238 192//192 242//242
f 234//234 230//230 192//192
f 212//212 242//242 202//202
f 242//242 212//212 222//222
f 242//242 222//222 226//226
f 246//246 250//250 352//352
f 360//360 260//260 268//268
f 352//352 250//250 260//260
f 304//304 226//226 246//246
f 226//226 304//304 242//242
f 246//246 320//320 312//312
f 328//328 320//320 246//246
f 246//246 344//344 336//336
f 344//344 246//246 352//352
f 336//336 328//328 246//246
f 260//260 360//360 352//352
f 360//360 274//274 283//283
f 360//360 283//283 288//288
f 292//292 368//368 288//288
f 360//360 288//288 368//368
f 367//367 368//368 296//296
f 292//292 296//296 368//368
f 274//274 360//360 268//268
f 304//304 246//246 312//312
f 241//241 225//225 221//221
f 241//241 221//221 211//211
f 359//359 267//267 259//259
f 245//245 225//225 303//303
f 351//351 249//249 245//245
f 303//303 225//225 241//241
f 190//190 189//189 241//241
f 190//190 182//182 189//189
f 201//201 190//190 241//241
f 237//237 189//189 233//233
f 233//233 189//189 229//229
f 241//241 189//189 237//237
f 241//241 211//211 201//201
f 351//351 259//259 249//249
f 359//359 287//287 282//282
f 359//359 282//282 273//273
f 291//291 367//367 295//295
f 296//296 295//295 367//367
f 291//291 287//287 367//367
f 359//359 367//367 287//287
f 259//259 351//351 359//359
f 245//245 303//303 311//311
f 245//245 311//311 319//319
f 245//245 327//327 335//335
f 245//245 319//319 327//327
f 245//245 335//335 343//343
f 245//245 343//343 351//351
f 273//273 267//267 359//359
f 191//191 192//192 183//183
f 110//110 10//10 18//18
f 124//124 18//18 26//26
f 50//50 124//124 42//42
f 34//34 42//42 124//124
f 124//124 26//26 34//34
f 124//124 50//50 58//58
f 78//78 74//74 2//2
f 10//10 82//82 2//2
f 1//1 2//2 74//74
f 10//10 96//96 87//87
f 2//2 82//82 78//78
f 10//10 87//87 82//82
f 102//102 96//96 10//10
f 124//124 58//58 66//66
f 132//132 180//180 128//128
f 136//136 180//180 132//132
f 128//128 180//180 179//179
f 179//179 168//168 128//128
f 180//180 136//136 140//140
f 158//158 128//128 168//168
f 10//10 110//110 102//102
f 120//120 110//110 18//18
f 128//128 158//158 148//148
f 144//144 124//124 66//66
f 128//128 148//148 144//144
f 120//120 18//18 124//124
f 66//66 128//128 144//144
f 81//81 9//9 1//1
f 74//74 73//73 1//1
f 73//73 77//77 1//1
f 1//1 77//77 81//81
f 9//9 86//86 95//95
f 9//9 81//81 86//86
f 109//109 17//17 9//9
f 33//33 25//25 123//123
f 17//17 123//123 25//25
f 123//123 49//49 41//41
f 49//49 123//123 57//57
f 123//123 41//41 33//33
f 57//57 123//123 65//65
f 101//101 9//9 95//95
f 119//119 123//123 17//17
f 9//9 101//101 109//109
f 65//65 143//143 127//127
f 127//127 147//147 157//157
f 127//127 143//143 147//147
f 123//123 143//143 65//65
f 135//135 131//131 177//177
f 127//127 177//177 131//131
f 178//178 177//177 127//127
f 177//177 139//139 135//135
f 177//177 178//178 185//185
f 167//167 178//178 127//127
f 167//167 127//127 157//157
f 109//109 119//119 17//17
f 188//188 179//179 180//180
f 199//199 187//187 240//240
f 188//188 240//240 187//187
f 188//188 232//232 236//236
f 236//236 240//240 188//188
f 232//232 188//188 228//228
f 210//210 199//199 240//240
f 240//240 220//220 210//210
f 240//240 224//224 220//220
f 244//244 346//346 248//248
f 354//354 266//266 258//258
f 346//346 258//258 248//248
f 298//298 244//244 224//224
f 224//224 240//240 298//298
f 244//244 306//306 314//314
f 322//322 244//244 314//314
f 244//244 330//330 338//338
f 338//338 346//346 244//244
f 330//330 244//244 322//322
f 258//258 346//346 354//354
f 354//354 281//281 272//272
f 354//354 286//286 281//281
f 290//290 286//286 362//362
f 354//354 362//362 286//286
f 361//361 294//294 362//362
f 290//290 362//362 294//294
f 272//272 266//266 354//354
f 298//298 306//306 244//244
f 239//239 219//219 223//223
f 239//239 209//209 219//219
f 353//353 257//257 265//265
f 243//243 297//297 223//223
f 345//345 243//243 247//247
f 297//297 239//239 223//223
f 186//186 239//239 185//185
f 186//186 185//185 178//178
f 198//198 239//239 186//186
f 235//235 231//231 185//185
f 231//231 227//227 185//185
f 239//239 235//235 185//185
f 239//239 198//198 209//209
f 345//345 247//247 257//257
f 353//353 280//280 285//285
f 353//353 271//271 280//280
f 289//289 293//293 361//361
f 294//294 361//361 293//293
f 289//289 361//361 285//285
f 353//353 285//285 361//361
f 257//257 353//353 345//345
f 243//243 305//305 297//297
f 243//243 313//313 305//305
f 243//243 329//329 321//321
f 243//243 321//321 313//313
f 243//243 337//337 329//329
f 243//243 345//345 337//337
f 271//271 353//353 265//265
f 187//187 179//179 188//188
f 235//235 239//239 237//237
f 227//227 231//231 229//229
f 185//185 227//227 189//189
f 231//231 235//235 233//233
f 315//315 317//317 309//309
f 323//323 325//325 317//317
f 331//331 333//333 325//325
f 339//339 341//341 333//333
f 347//347 349//349 341//341
f 355//355 357//357 349//349
f 311//311 303//303 309//309
f 327//327 319//319 325//325
f 319//319 311//311 317//317
f 309//309 301//301 307//307
f 335//335 327//327 333//333
f 351//351 343//343 349//349
f 367//367 359//359 365//365
f 359//359 351//351 357//357
f 333//333 341//341 335//335
f 365//365 357//357 363//363
f 307//307 299//299 305//305
f 323//323 315//315 321//321
f 315//315 307//307 313//313
f 331//331 323//323 329//329
f 347//347 339//339 345//345
f 363//363 355//355 361//361
f 355//355 347//347 353//353
f 329//329 337//337 331//331
f 139//139 177//177 181//181
f 131//131 135//135 137//137
f 127//127 131//131 133//133
f 135//135 139//139 141//141
f 53//53 51//51 61//61
f 45//45 43//43 53//53
f 37//37 35//35 45//45
f 29//29 27//27 37//37
f 21//21 19//19 29//29
f 13//13 11//11 21//21
f 57//57 65//65 67//67
f 41//41 49//49 51//51
f 49//49 57//57 59//59
f 59//59 67//67 69//69
f 33//33 41//41 43//43
f 17//17 25//25 27//27
f 1//1 9//9 11//11
f 9//9 17//17 19//19
f 35//35 27//27 25//25
f 3//3 11//11 13//13
f 61//61 69//69 71//71
f 45//45 53//53 55//55
f 53//53 61//61 63//63
f 37//37 45//45 47//47
f 21//21 29//29 31//31
f 5//5 13//13 15//15
f 13//13 21//21 23//23
f 39//39 31//31 29//29
f 22//22 20//20 14//14
f 30//30 28//28 22//22
f 38//38 36//36 30//30
f 46//46 44//44 38//38
f 54//54 52//52 46//46
f 62//62 60//60 54//54
f 10//10 2//2 4//4
f 26//26 18//18 20//20
f 18//18 10//10 12//12
f 12//12 4//4 6//6
f 34//34 26//26 28//28
f 50//50 42//42 44//44
f 66//66 58//58 60//60
f 58//58 50//50 52//52
f 36//36 44//44 42//42
f 68//68 60//60 62//62
f 14//14 6//6 8//8
f 30//30 22//22 24//24
f 22//22 14//14 16//16
f 38//38 30//30 32//32
f 54//54 46//46 48//48
f 70//70 62//62 64//64
f 62//62 54//54 56//56
f 40//40 48//48 46//46
f 132//132 128//128 130//130
f 140//140 136//136 138//138
f 180//180 140//140 142//142
f 136//136 132//132 134//134
f 228//228 188//188 230//230
f 236//236 232//232 238//238
f 240//240 236//236 242//242
f 232//232 228//228 234//234
f 318//318 316//316 308//308
f 326//326 324//324 316//316
f 334//334 332//332 324//324
f 342//342 340//340 332//332
f 350//350 348//348 340//340
f 358//358 356//356 348//348
f 306//306 298//298 308//308
f 322//322 314//314 324//324
f 314//314 306//306 316//316
f 308//308 300//300 310//310
f 330//330 322//322 332//332
f 346//346 338//338 348//348
f 362//362 354//354 364//364
f 354//354 346//346 356//356
f 332//332 340//340 330//330
f 364//364 356//356 366//366
f 310//310 302//302 312//312
f 326//326 318//318 328//328
f 318//318 310//310 320//320
f 334//334 326//326 336//336
f 350//350 342//342 352//352
f 366//366 358//358 368//368
f 358//358 350//350 360//360
f 336//336 344//344 334//334
f 106//106 100//100 85//85
f 108//108 106//106 90//90
f 117//117 116//116 100//100
f 118//118 117//117 106//106
f 85//85 80//80 76//76
f 85//85 84//84 80//80
f 100//100 98//98 89//89
f 84//84 85//85 89//89
f 90//90 85//85 76//76
f 91//91 74//74 78//78
f 91//91 78//78 82//82
f 82//82 87//87 91//91
f 91//91 87//87 96//96
f 74//74 91//91 90//90
f 90//90 76//76 74//74
f 100//100 104//104 98//98
f 112//112 104//104 116//116
f 126//126 116//116 117//117
f 116//116 122//122 112//112
f 116//116 126//126 122//122
f 124//124 126//126 117//117
f 96//96 102//102 108//108
f 118//118 108//108 102//102
f 102//102 110//110 118//118
f 120//120 118//118 110//110
f 118//118 120//120 124//124
f 124//124 117//117 118//118
f 104//104 100//100 116//116
f 124//124 144//144 126//126
f 164//164 162//162 151//151
f 166//166 164//164 152//152
f 175//175 174//174 162//162
f 176//176 175//175 164//164
f 151//151 150//150 146//146
f 162//162 160//160 150//150
f 152//152 151//151 146//146
f 153//153 144//144 148//148
f 153//153 148//148 158//158
f 144//144 153//153 152//152
f 152//152 146//146 144//144
f 174//174 171//171 160//160
f 183//183 174//174 175//175
f 174//174 183//183 171//171
f 179//179 183//183 175//175
f 166//166 158//158 168//168
f 168//168 179//179 176//176
f 175//175 176//176 179//179
f 179//179 187//187 191//191
f 206//206 208//208 197//197
f 204//204 206//206 195//195
f 214//214 216//216 206//206
f 213//213 214//214 204//204
f 200//200 202//202 191//191
f 202//202 200//200 212//212
f 197//197 200//200 191//191
f 195//195 187//187 199//199
f 195//195 199//199 204//204
f 187//187 195//195 197//197
f 197//197 191//191 187//187
f 216//216 222//222 208//208
f 214//214 226//226 216//216
f 222//222 216//216 226//226
f 220//220 224//224 213//213
f 214//214 213//213 224//224
f 204//204 210//210 213//213
f 224//224 226//226 214//214
f 224//224 244//244 246//246
f 264//264 270//270 255//255
f 262//262 264//264 253//253
f 276//276 278//278 264//264
f 275//275 276//276 262//262
f 256//256 250//250 246//246
f 256//256 260//260 250//250
f 270//270 274//274 256//256
f 260//260 256//256 268//268
f 255//255 256//256 246//246
f 253//253 244//244 248//248
f 253//253 248//248 258//258
f 244//244 253//253 255//255
f 253//253 266//266 262//262
f 258//258 266//266 253//253
f 255//255 246//246 244//244
f 278//278 288//288 270//270
f 274//274 270//270 283//283
f 278//278 292//292 288//288
f 278//278 296//296 292//292
f 276//276 296//296 278//278
f 262//262 272//272 275//275
f 281//281 286//286 275//275
f 290//290 275//275 286//286
f 275//275 290//290 294//294
f 294//294 276//276 275//275
f 294//294 296//296 276//276
f 294//294 293//293 295//295
f 263//263 269//269 279//279
f 261//261 263//263 277//277
f 252//252 254//254 263//263
f 251//251 252//252 261//261
f 284//284 291//291 295//295
f 284//284 287//287 291//291
f 269//269 273//273 284//284
f 287//287 284//284 282//282
f 279//279 284//284 295//295
f 277//277 293//293 289//289
f 277//277 289//289 285//285
f 285//285 280//280 277//277
f 277//277 280//280 261//261
f 293//293 277//277 279//279
f 279//279 295//295 293//293
f 269//269 267//267 273//273
f 259//259 267//267 254//254
f 245//245 254//254 252//252
f 254//254 249//249 259//259
f 254//254 245//245 249//249
f 243//243 245//245 252//252
f 271//271 265//265 261//261
f 251//251 261//261 265//265
f 280//280 271//271 261//261
f 265//265 257//257 251//251
f 247//247 251//251 257//257
f 251//251 247//247 243//243
f 243//243 252//252 251//251
f 267//267 269//269 254//254
f 243//243 223//223 225//225
f 205//205 207//207 217//217
f 203//203 205//205 215//215
f 194//194 196//196 205//205
f 193//193 194//194 203//203
f 218//218 221//221 225//225
f 207//207 211//211 218//218
f 217//217 218//218 225//225
f 215//215 223//223 219//219
f 215//215 219//219 203//203
f 223//223 215//215 217//217
f 217//217 225//225 223//223
f 196//196 201//201 207//207
f 190//190 196//196 194//194
f 196//196 190//190 201//201
f 186//186 190//190 194//194
f 203//203 209//209 193//193
f 198//198 186//186 193//193
f 194//194 193//193 186//186
f 186//186 178//178 182//182
f 163//163 161//161 169//169
f 165//165 163//163 172//172
f 155//155 154//154 161//161
f 156//156 155//155 163//163
f 169//169 170//170 182//182
f 170//170 169//169 161//161
f 172//172 169//169 182//182
f 173//173 178//178 167//167
f 173//173 167//167 157//157
f 178//178 173//173 172//172
f 172//172 182//182 178//178
f 154//154 149//149 159//159
f 155//155 145//145 154//154
f 149//149 154//154 145//145
f 147//147 143//143 156//156
f 155//155 156//156 143//143
f 165//165 157//157 147//147
f 143//143 145//145 155//155
f 143//143 123//123 145//145
f 105//105 99//99 113//113
f 107//107 105//105 114//114
f 93//93 92//92 99//99
f 94//94 93//93 105//105
f 113//113 121//121 125//125
f 113//113 111//111 121//121
f 99//99 97//97 103//103
f 111//111 113//113 103//103
f 114//114 113//113 125//125
f 115//115 123//123 119//119
f 115//115 119//119 109//109
f 123//123 115//115 114//114
f 115//115 101//101 95//95
f 109//109 101//101 115//115
f 114//114 125//125 123//123
f 92//92 83//83 88//88
f 97//97 99//99 88//88
f 92//92 79//79 83//83
f 92//92 75//75 79//79
f 93//93 75//75 92//92
f 107//107 86//86 81//81
f 95//95 86//86 107//107
f 77//77 94//94 81//81
f 94//94 77//77 73//73
f 73//73 93//93 94//94
f 73//73 75//75 93//93
f 73//73 74//74 75//75
f 185//185 181//181 177//177
f 129//129 69//69 67//67
f 3//3 4//4 2//2
f 4//4 3//3 5//5
f 7//7 8//8 6//6
f 180//180 192//192 188//188
f 240//240 302//302 300//300
f 363//363 362//362 364//364
f 367//367 366//366 368//368
f 365//365 364//364 366//366
f 239//239 241//241 237//237
f 231//231 233//233 229//229
f 227//227 229//229 189//189
f 235//235 237//237 233//233
f 315//315 309//309 307//307
f 323//323 317//317 315//315
f 331//331 325//325 323//323
f 339//339 333//333 331//331
f 347//347 341//341 339//339
f 355//355 349//349 347//347
f 303//303 301//301 309//309
f 319//319 317//317 325//325
f 311//311 309//309 317//317
f 301//301 299//299 307//307
f 327//327 325//325 333//333
f 343//343 341//341 349//349
f 359//359 357//357 365//365
f 351//351 349//349 357//357
f 341//341 343//343 335//335
f 357//357 355//355 363//363
f 299//299 297//297 305//305
f 315//315 313//313 321//321
f 307//307 305//305 313//313
f 323//323 321//321 329//329
f 339//339 337//337 345//345
f 355//355 353//353 361//361
f 347//347 345//345 353//353
f 337//337 339//339 331//331
f 139//139 181//181 141//141
f 131//131 137//137 133//133
f 127//127 133//133 129//129
f 135//135 141//141 137//137
f 51//51 59//59 61//61
f 43//43 51//51 53//53
f 35//35 43//43 45//45
f 27//27 35//35 37//37
f 19//19 27//27 29//29
f 11//11 19//19 21//21
f 57//57 67//67 59//59
f 41//41 51//51 43//43
f 49//49 59//59 51//51
f 59//59 69//69 61//61
f 33//33 43//43 35//35
f 17//17 27//27 19//19
f 1//1 11//11 3//3
f 9//9 19//19 11//11
f 35//35 25//25 33//33
f 3//3 13//13 5//5
f 61//61 71//71 63//63
f 45//45 55//55 47//47
f 53//53 63//63 55//55
f 37//37 47//47 39//39
f 21//21 31//31 23//23
f 5//5 15//15 7//7
f 13//13 23//23 15//15
f 39//39 29//29 37//37
f 20//20 12//12 14//14
f 28//28 20//20 22//22
f 36//36 28//28 30//30
f 44//44 36//36 38//38
f 52//52 44//44 46//46
f 60//60 52//52 54//54
f 10//10 4//4 12//12
f 26//26 20//20 28//28
f 18//18 12//12 20//20
f 12//12 6//6 14//14
f 34//34 28//28 36//36
f 50//50 44//44 52//52
f 66//66 60//60 68//68
f 58//58 52//52 60//60
f 36//36 42//42 34//34
f 68//68 62//62 70//70
f 14//14 8//8 16//16
f 30//30 24//24 32//32
f 22//22 16//16 24//24
f 38//38 32//32 40//40
f 54//54 48//48 56//56
f 70//70 64//64 72//72
f 62//62 56//56 64//64
f 40//40 46//46 38//38
f 132//132 130//130 134//134
f 140//140 138//138 142//142
f 180//180 142//142 184//184
f 136//136 134//134 138//138
f 188//188 192//192 230//230
f 232//232 234//234 238//238
f 236//236 238//238 242//242
f 228//228 230//230 234//234
f 318//318 308//308 310//310
f 326//326 316//316 318//318
f 334//334 324//324 326//326
f 342//342 332//332 334//334
f 350//350 340//340 342//342
f 358//358 348//348 350//350
f 298//298 300//300 308//308
f 314//314 316//316 324//324
f 306//306 308//308 316//316
f 300//300 302//302 310//310
f 322//322 324//324 332//332
f 338//338 340//340 348//348
f 354//354 356//356 364//364
f 346//346 348//348 356//356
f 340//340 338//338 330//330
f 356//356 358//358 366//366
f 302//302 304//304 312//312
f 318//318 320//320 328//328
f 310//310 312//312 320//320
f 326//326 328//328 336//336
f 342//342 344//344 352//352
f 358//358 360//360 368//368
f 350//350 352//352 360//360
f 344//344 342//342 334//334
f 106//106 85//85 90//90
f 108//108 90//90 91//91
f 117//117 100//100 106//106
f 118//118 106//106 108//108
f 100//100 89//89 85//85
f 91//91 96//96 108//108
f 144//144 146//146 126//126
f 164//164 151//151 152//152
f 166//166 152//152 153//153
f 175//175 162//162 164//164
f 176//176 164//164 166//166
f 162//162 150//150 151//151
f 153//153 158//158 166//166
f 174//174 160//160 162//162
f 166//166 168//168 176//176
f 179//179 191//191 183//183
f 208//208 200//200 197//197
f 206//206 197//197 195//195
f 216//216 208//208 206//206
f 214//214 206//206 204//204
f 200//200 208//208 212//212
f 199//199 210//210 204//204
f 222//222 212//212 208//208
f 210//210 220//220 213//213
f 224//224 246//246 226//226
f 270//270 256//256 255//255
f 264//264 255//255 253//253
f 278//278 270//270 264//264
f 276//276 264//264 262//262
f 274//274 268//268 256//256
f 266//266 272//272 262//262
f 288//288 283//283 270//270
f 272//272 281//281 275//275
f 294//294 295//295 296//296
f 269//269 284//284 279//279
f 263//263 279//279 277//277
f 254//254 269//269 263//263
f 252//252 263//263 261//261
f 273//273 282//282 284//284
f 243//243 225//225 245//245
f 207//207 218//218 217//217
f 205//205 217//217 215//215
f 196//196 207//207 205//205
f 194//194 205//205 203//203
f 211//211 221//221 218//218
f 219//219 209//209 203//203
f 201//201 211//211 207//207
f 209//209 198//198 193//193
f 186//186 182//182 190//190
f 163//163 169//169 172//172
f 165//165 172//172 173//173
f 155//155 161//161 163//163
f 156//156 163//163 165//165
f 170//170 161//161 159//159
f 173//173 157//157 165//165
f 154//154 159//159 161//161
f 165//165 147//147 156//156
f 123//123 125//125 145//145
f 105//105 113//113 114//114
f 107//107 114//114 115//115
f 93//93 99//99 105//105
f 94//94 105//105 107//107
f 99//99 103//103 113//113
f 115//115 95//95 107//107
f 92//92 88//88 99//99
f 107//107 81//81 94//94
f 74//74 76//76 75//75