# PHANTOM Module: PL10_18
# Units: meters
o PL10_18

v 5.200001 1.799998 2.347017
v 5.200001 1.799998 1.181831
v 5.200001 1.439999 2.277768
v 5.200001 1.349998 1.095270
v 5.200001 1.079999 2.208520
v 5.200001 0.899999 1.008710
v 5.200001 0.719999 2.139271
v 5.200001 0.449999 0.922149
v 5.200001 0.360000 2.070023
v 5.200001 0.000000 2.000775
v 5.200001 0.000000 0.835589
v 5.198500 1.799998 2.374788
v 5.198500 1.439999 2.305540
v 5.198500 1.079999 2.236292
v 5.198500 0.719999 2.167043
v 5.198500 0.360000 2.097795
v 5.198500 0.000000 2.028547
v 5.198458 1.799998 1.153668
v 5.198458 1.349998 1.067108
v 5.198458 0.899999 0.980547
v 5.198458 0.449999 0.893987
v 5.198458 0.000000 0.807426
v 5.193882 1.799998 2.402791
v 5.193882 1.439999 2.333542
v 5.193882 1.079999 2.264294
v 5.193882 0.719999 2.195045
v 5.193882 0.360000 2.125797
v 5.193882 0.000000 2.056549
v 5.193785 1.799998 1.125619
v 5.193785 1.349998 1.039059
v 5.193785 0.899999 0.952498
v 5.193785 0.449999 0.865938
v 5.193785 0.000000 0.779378
v 5.186071 1.799998 2.430399
v 5.186071 1.439999 2.361151
v 5.186071 1.079999 2.291903
v 5.186071 0.719999 2.222654
v 5.186071 0.360000 2.153406
v 5.186071 0.000000 2.084157
v 5.185823 1.799998 1.097738
v 5.185823 1.349998 1.011178
v 5.185823 0.899999 0.924617
v 5.185823 0.449999 0.838057
v 5.185823 0.000000 0.751496
v 5.175131 1.799998 2.456968
v 5.175131 1.439999 2.387720
v 5.175131 1.079999 2.318471
v 5.175131 0.719999 2.249223
v 5.175131 0.360000 2.179975
v 5.175131 0.000000 2.110726
v 5.174562 1.799998 1.070708
v 5.174562 1.349998 0.984148
v 5.174562 0.899999 0.897587
v 5.174562 0.449999 0.811027
v 5.174562 0.000000 0.724466
v 5.161270 1.799998 2.481879
v 5.161270 1.439999 2.412631
v 5.161270 1.079999 2.343382
v 5.161270 0.719999 2.274134
v 5.161270 0.360000 2.204885
v 5.161270 0.000000 2.135637
v 5.160282 1.799998 1.045429
v 5.160282 1.349998 0.958868
v 5.160282 0.899999 0.872308
v 5.160282 0.449999 0.785747
v 5.160282 0.000000 0.699187
v 5.144535 1.799998 2.504949
v 5.144535 1.439999 2.435701
v 5.144535 1.079999 2.366452
v 5.144535 0.719999 2.297204
v 5.144535 0.360000 2.227955
v 5.144535 0.000000 2.158707
v 5.143351 1.799998 1.022472
v 5.143351 1.349998 0.935911
v 5.143351 0.899999 0.849351
v 5.143351 0.449999 0.762790
v 5.143351 0.000000 0.676230
v 5.125095 1.799998 2.525766
v 5.125095 1.439999 2.456517
v 5.125095 1.079999 2.387269
v 5.125095 0.719999 2.318021
v 5.125095 0.360000 2.248772
v 5.125095 0.000000 2.179524
v 5.124247 1.799998 1.002284
v 5.124247 1.349998 0.915724
v 5.124247 0.899999 0.829163
v 5.124247 0.449999 0.742603
v 5.124247 0.000000 0.656042
v 5.103519 1.799998 2.543683
v 5.103519 1.799998 0.985164
v 5.103519 1.439999 2.474435
v 5.103519 1.349998 0.898604
v 5.103519 1.079999 2.405186
v 5.103519 0.899999 0.812043
v 5.103519 0.719999 2.335938
v 5.103519 0.449999 0.725483
v 5.103519 0.360000 2.266690
v 5.103519 0.000000 2.197441
v 5.103519 0.000000 0.638922
v 5.000000 1.799998 2.347017
v 5.000000 1.799998 1.181831
v 5.000000 0.000000 2.000775
v 5.000000 0.000000 0.835589
v 4.999882 1.799998 2.349186
v 4.999882 1.799998 1.179662
v 4.999882 0.000000 2.002944
v 4.999882 0.000000 0.833420
v 4.999516 1.799998 2.351373
v 4.999516 1.799998 1.177475
v 4.999516 0.000000 2.005131
v 4.999516 0.000000 0.831233
v 4.999123 0.449999 0.917796
v 4.998896 1.799998 2.353527
v 4.998896 1.799998 1.175321
v 4.998896 0.000000 2.007285
v 4.998896 0.000000 0.829079
v 4.998796 0.899999 1.004547
v 4.998493 0.360000 2.074008
v 4.998470 1.349998 1.091298
v 4.998405 0.719999 2.143206
v 4.998320 1.079999 2.212404
v 4.998232 1.439999 2.281601
v 4.998028 1.799998 2.355596
v 4.998028 1.799998 1.173252
v 4.998028 0.000000 2.009354
v 4.998028 0.000000 0.827010
v 4.996984 0.360000 2.077993
v 4.996943 0.449999 0.914205
v 4.996931 1.799998 2.357531
v 4.996931 1.799998 1.171317
v 4.996931 0.000000 2.011289
v 4.996931 0.000000 0.825075
v 4.996811 0.719999 2.147140
v 4.996725 0.899999 1.000892
v 4.996637 1.079999 2.216287
v 4.996508 1.349998 1.087579
v 4.996464 1.439999 2.285434
v 4.995632 1.799998 2.359288
v 4.995632 1.799998 1.169559
v 4.995632 0.000000 2.013046
v 4.995632 0.000000 0.823318
v 4.995478 0.360000 2.081978
v 4.995216 0.719999 2.151074
v 4.994955 1.079999 2.220170
v 4.994761 0.449999 0.910613
v 4.994696 1.439999 2.289267
v 4.994652 0.899999 0.997237
v 4.994543 1.349998 1.083861
v 4.994167 1.799998 2.360833
v 4.994167 1.799998 1.168014
v 4.994167 0.000000 2.014592
v 4.994167 0.000000 0.821772
v 4.992579 1.799998 2.362145
v 4.992579 1.799998 1.166703
v 4.992579 0.000000 2.015903
v 4.992579 0.000000 0.820461
v 4.897535 1.349998 0.748798
v 4.897535 0.899999 0.662237
v 4.897535 0.449999 0.575677
v 4.691551 1.349998 0.598991
v 4.691551 0.899999 0.512431
v 4.691551 0.449999 0.425870
v 4.485567 1.349998 0.449185
v 4.485567 0.899999 0.362624
v 4.485567 0.449999 0.276064
v 4.279585 1.799998 3.142908
v 4.279585 1.799998 0.385939
v 4.279585 0.000000 2.796666
v 4.279585 0.000000 0.039697
v 4.252039 1.799998 3.159911
v 4.252039 1.799998 0.368937
v 4.252039 0.000000 2.813669
v 4.252039 0.000000 0.022695
v 4.249538 1.349998 0.289454
v 4.249538 0.899999 0.202894
v 4.249538 0.449999 0.116333
v 4.222185 1.799998 3.172464
v 4.222185 1.799998 0.356384
v 4.222185 0.000000 2.826222
v 4.222185 0.000000 0.010142
v 4.219492 1.349998 0.279530
v 4.219492 0.899999 0.192970
v 4.219492 0.449999 0.106409
v 4.190964 1.799998 3.180084
v 4.190964 1.799998 0.348763
v 4.190964 0.000000 2.833842
v 4.190964 0.000000 0.002522
v 4.189445 1.349998 0.269606
v 4.189445 0.899999 0.183045
v 4.189445 0.449999 0.096485
v 4.168644 1.799998 2.961370
v 4.168644 1.799998 0.567477
v 4.168644 0.000000 2.615128
v 4.168644 0.000000 0.221235
v 4.166525 1.799998 2.962678
v 4.166525 1.799998 0.566169
v 4.166525 0.000000 2.616436
v 4.166525 0.000000 0.219928
v 4.166449 0.449999 0.306612
v 4.166410 0.899999 0.393313
v 4.166374 0.360000 2.685289
v 4.166372 1.349998 0.480013
v 4.166365 0.719999 2.754500
v 4.166353 1.079999 2.823711
v 4.166344 1.439999 2.892922
v 4.164228 1.799998 2.963644
v 4.164228 1.799998 0.565204
v 4.164228 0.000000 2.617402
v 4.164228 0.000000 0.218962
v 4.164104 0.360000 2.686202
v 4.164099 0.449999 0.305989
v 4.164083 0.719999 2.755376
v 4.164074 0.899999 0.392643
v 4.164062 1.079999 2.824549
v 4.164047 1.349998 0.479297
v 4.164042 1.439999 2.893723
v 4.161835 0.360000 2.687115
v 4.161827 1.799998 2.964230
v 4.161827 1.799998 0.564618
v 4.161827 0.000000 2.617988
v 4.161827 0.000000 0.218376
v 4.161804 0.719999 2.756251
v 4.161772 1.079999 2.825387
v 4.161749 0.449999 0.305366
v 4.161741 1.439999 2.894524
v 4.161736 0.899999 0.391973
v 4.161724 1.349998 0.478580
v 4.159399 1.799998 3.182606
v 4.159399 1.799998 2.964424
v 4.159399 1.799998 0.564424
v 4.159399 1.799998 0.346242
v 4.159399 0.000000 2.836364
v 4.159399 0.000000 2.618182
v 4.159399 0.000000 0.218182
v 4.159399 0.000000 0.000000
v 1.040602 1.799998 3.182606
v 1.040602 1.799998 2.964424
v 1.040602 1.799998 0.564424
v 1.040602 1.799998 0.346242
v 1.040602 0.000000 2.836364
v 1.040602 0.000000 2.618182
v 1.040602 0.000000 0.218182
v 1.040602 0.000000 0.000000
v 1.038280 1.439999 2.894449
v 1.038269 1.079999 2.825238
v 1.038260 0.719999 2.756027
v 1.038252 1.349998 0.478487
v 1.038250 0.360000 2.686816
v 1.038214 0.899999 0.391786
v 1.038174 1.799998 2.964230
v 1.038174 1.799998 0.564618
v 1.038174 0.449999 0.305086
v 1.038174 0.000000 2.617988
v 1.038174 0.000000 0.218376
v 1.035959 1.439999 2.893723
v 1.035954 1.349998 0.479297
v 1.035938 1.079999 2.824549
v 1.035927 0.899999 0.392643
v 1.035917 0.719999 2.755376
v 1.035902 0.449999 0.305989
v 1.035896 0.360000 2.686202
v 1.035772 1.799998 2.963644
v 1.035772 1.799998 0.565204
v 1.035772 0.000000 2.617402
v 1.035772 0.000000 0.218962
v 1.033655 1.349998 0.480107
v 1.033642 0.899999 0.393500
v 1.033636 1.439999 2.892997
v 1.033628 0.449999 0.306893
v 1.033606 1.079999 2.823861
v 1.033575 0.719999 2.754724
v 1.033545 0.360000 2.685588
v 1.033476 1.799998 2.962678
v 1.033476 1.799998 0.566169
v 1.033476 0.000000 2.616436
v 1.033476 0.000000 0.219928
v 1.031357 1.799998 2.961370
v 1.031357 1.799998 0.567477
v 1.031357 0.000000 2.615128
v 1.031357 0.000000 0.221235
v 1.010555 1.349998 3.086121
v 1.010555 0.899999 2.999560
v 1.010555 0.449999 2.913000
v 1.009037 1.799998 3.180084
v 1.009037 1.799998 0.348763
v 1.009037 0.000000 2.833842
v 1.009037 0.000000 0.002522
v 0.980509 1.349998 3.076196
v 0.980509 0.899999 2.989636
v 0.980509 0.449999 2.903075
v 0.977816 1.799998 3.172464
v 0.977816 1.799998 0.356384
v 0.977816 0.000000 2.826222
v 0.977816 0.000000 0.010142
v 0.950462 1.349998 3.066272
v 0.950462 0.899999 2.979712
v 0.950462 0.449999 2.893151
v 0.947962 1.799998 3.159911
v 0.947962 1.799998 0.368937
v 0.947962 0.000000 2.813669
v 0.947962 0.000000 0.022695
v 0.920416 1.799998 3.142908
v 0.920416 1.799998 0.385939
v 0.920416 0.000000 2.796666
v 0.920416 0.000000 0.039697
v 0.207422 1.799998 2.362145
v 0.207422 1.799998 1.166703
v 0.207422 0.000000 2.015903
v 0.207422 0.000000 0.820461
v 0.205833 1.799998 2.360833
v 0.205833 1.799998 1.168014
v 0.205833 0.000000 2.014592
v 0.205833 0.000000 0.821772
v 0.205481 1.439999 2.289165
v 0.205393 1.079999 2.219968
v 0.205305 0.719999 2.150770
v 0.205240 1.349998 1.083734
v 0.205219 0.360000 2.081572
v 0.204914 0.899999 0.996983
v 0.204588 0.449999 0.910232
v 0.204369 1.799998 2.359288
v 0.204369 1.799998 1.169559
v 0.204369 0.000000 2.013046
v 0.204369 0.000000 0.823318
v 0.203537 1.439999 2.285434
v 0.203493 1.349998 1.087579
v 0.203363 1.079999 2.216287
v 0.203276 0.899999 1.000892
v 0.203190 0.719999 2.147140
v 0.203070 1.799998 2.357531
v 0.203070 1.799998 1.171317
v 0.203070 0.000000 2.011289
v 0.203070 0.000000 0.825075
v 0.203058 0.449999 0.914205
v 0.203016 0.360000 2.077993
v 0.201973 1.799998 2.355596
v 0.201973 1.799998 1.173252
v 0.201973 0.000000 2.009354
v 0.201973 0.000000 0.827010
v 0.201748 1.349998 1.091425
v 0.201639 0.899999 1.004801
v 0.201595 1.439999 2.281703
v 0.201530 0.449999 0.918177
v 0.201334 1.079999 2.212606
v 0.201105 1.799998 2.353527
v 0.201105 1.799998 1.175321
v 0.201105 0.000000 2.007285
v 0.201105 0.000000 0.829079
v 0.201073 0.719999 2.143510
v 0.200813 0.360000 2.074414
v 0.200485 1.799998 2.351373
v 0.200485 1.799998 1.177475
v 0.200485 0.000000 2.005131
v 0.200485 0.000000 0.831233
v 0.200119 1.799998 2.349186
v 0.200119 1.799998 1.179662
v 0.200119 0.000000 2.002944
v 0.200119 0.000000 0.833420
v 0.200001 1.799998 2.347017
v 0.200001 1.799998 1.181831
v 0.200001 0.000000 2.000775
v 0.200001 0.000000 0.835589
v 0.096481 1.799998 2.543683
v 0.096481 1.799998 0.985164
v 0.096481 1.439999 2.474435
v 0.096481 1.349998 0.898604
v 0.096481 1.079999 2.405186
v 0.096481 0.899999 0.812043
v 0.096481 0.719999 2.335938
v 0.096481 0.449999 0.725483
v 0.096481 0.360000 2.266690
v 0.096481 0.000000 2.197441
v 0.096481 0.000000 0.638922
v 0.075832 1.799998 2.526636
v 0.075832 1.799998 1.002212
v 0.075832 1.439999 2.457387
v 0.075832 1.349998 0.915651
v 0.075832 1.079999 2.388139
v 0.075832 0.899999 0.829091
v 0.075832 0.719999 2.318891
v 0.075832 0.449999 0.742530
v 0.075832 0.360000 2.249642
v 0.075832 0.000000 2.180394
v 0.075832 0.000000 0.655970
v 0.056791 1.799998 2.506544
v 0.056791 1.799998 1.022304
v 0.056791 1.439999 2.437295
v 0.056791 1.349998 0.935743
v 0.056791 1.079999 2.368047
v 0.056791 0.899999 0.849183
v 0.056791 0.719999 2.298799
v 0.056791 0.449999 0.762622
v 0.056791 0.360000 2.229550
v 0.056791 0.000000 2.160302
v 0.056791 0.000000 0.676062
v 0.039902 1.799998 2.483700
v 0.039902 1.799998 1.045147
v 0.039902 1.439999 2.414452
v 0.039902 1.349998 0.958587
v 0.039902 1.079999 2.345204
v 0.039902 0.899999 0.872026
v 0.039902 0.719999 2.275955
v 0.039902 0.449999 0.785466
v 0.039902 0.360000 2.206707
v 0.039902 0.000000 2.137459
v 0.039902 0.000000 0.698905
v 0.025637 1.799998 2.458547
v 0.025637 1.799998 1.070301
v 0.025637 1.439999 2.389298
v 0.025637 1.349998 0.983740
v 0.025637 1.079999 2.320050
v 0.025637 0.899999 0.897180
v 0.025637 0.719999 2.250802
v 0.025637 0.449999 0.810619
v 0.025637 0.360000 2.181553
v 0.025637 0.000000 2.112305
v 0.025637 0.000000 0.724059
v 0.014364 1.799998 2.431647
v 0.014364 1.799998 1.097201
v 0.014364 1.439999 2.362398
v 0.014364 1.349998 1.010640
v 0.014364 1.079999 2.293150
v 0.014364 0.899999 0.924080
v 0.014364 0.719999 2.223902
v 0.014364 0.449999 0.837519
v 0.014364 0.360000 2.154653
v 0.014364 0.000000 2.085405
v 0.014364 0.000000 0.750959
v 0.006311 1.799998 2.403645
v 0.006311 1.799998 1.125203
v 0.006311 1.439999 2.334396
v 0.006311 1.349998 1.038642
v 0.006311 1.079999 2.265148
v 0.006311 0.899999 0.952082
v 0.006311 0.719999 2.195900
v 0.006311 0.449999 0.865521
v 0.006311 0.360000 2.126651
v 0.006311 0.000000 2.057403
v 0.006311 0.000000 0.778961
v 0.000000 1.799998 2.347017
v 0.000000 1.799998 1.181831
v 0.000000 1.439999 2.277768
v 0.000000 1.349998 1.095270
v 0.000000 1.079999 2.208520
v 0.000000 0.899999 1.008710
v 0.000000 0.719999 2.139271
v 0.000000 0.449999 0.922149
v 0.000000 0.360000 2.070023
v 0.000000 0.000000 2.000775
v 0.000000 0.000000 0.835589

vn 0.515600 0.856628 0.018570
vn 0.598756 0.800857 -0.010924
vn 0.999622 -0.005193 0.026995
vn 0.999612 0.005264 -0.027363
vn 0.999622 -0.005193 0.026995
vn 0.999715 0.004512 -0.023454
vn 0.999456 -0.006231 0.032393
vn 0.999612 0.005264 -0.027363
vn 0.999622 -0.005193 0.026995
vn 0.513499 -0.858041 0.009242
vn 0.601483 -0.798584 -0.021959
vn 0.447368 0.892525 0.057105
vn 0.993881 -0.020864 0.108466
vn 0.993881 -0.020864 0.108466
vn 0.993881 -0.020864 0.108466
vn 0.993881 -0.020864 0.108466
vn 0.441770 -0.896233 0.040067
vn 0.441684 0.896255 -0.040524
vn 0.993746 0.021093 -0.109654
vn 0.993746 0.021093 -0.109654
vn 0.993746 0.021093 -0.109654
vn 0.447327 -0.892507 -0.057713
vn 0.595001 0.790626 0.144518
vn 0.975142 -0.041855 0.217592
vn 0.975142 -0.041855 0.217592
vn 0.975142 -0.041855 0.217592
vn 0.975142 -0.041855 0.217592
vn 0.576457 -0.808658 0.117344
vn 0.576120 0.808741 -0.118424
vn 0.974679 0.042238 -0.219584
vn 0.974679 0.042238 -0.219583
vn 0.974679 0.042238 -0.219583
vn 0.594787 -0.790544 -0.145839
vn 0.803844 0.516239 0.295520
vn 0.943162 -0.062776 0.326350
vn 0.943162 -0.062776 0.326350
vn 0.943163 -0.062776 0.326349
vn 0.943162 -0.062776 0.326350
vn 0.768845 -0.588691 0.249639
vn 0.767874 0.589008 -0.251872
vn 0.942051 0.063368 -0.329431
vn 0.942051 0.063368 -0.329431
vn 0.942051 0.063368 -0.329431
vn 0.802993 -0.515871 -0.298461
vn 0.770631 0.503871 0.390182
vn 0.897697 -0.083229 0.432682
vn 0.897696 -0.083230 0.432684
vn 0.897696 -0.083230 0.432684
vn 0.897697 -0.083229 0.432682
vn 0.727318 -0.599982 0.333211
vn 0.725349 0.600465 -0.336618
vn 0.895328 0.084135 -0.437390
vn 0.895328 0.084135 -0.437390
vn 0.895328 0.084135 -0.437390
vn 0.768696 -0.503307 -0.394701
vn 0.724645 0.491846 0.482678
vn 0.838718 -0.102865 0.534762
vn 0.838719 -0.102865 0.534761
vn 0.838718 -0.102865 0.534763
vn 0.838717 -0.102865 0.534763
vn 0.676058 -0.610710 0.412284
vn 0.672781 0.611324 -0.416711
vn 0.834762 0.104007 -0.540699
vn 0.834762 0.104007 -0.540699
vn 0.834761 0.104007 -0.540699
vn 0.721378 -0.491136 -0.488261
vn 0.665171 0.480341 0.571682
vn 0.765968 -0.121436 0.631305
vn 0.765968 -0.121436 0.631305
vn 0.765969 -0.121436 0.631304
vn 0.765969 -0.121436 0.631305
vn 0.615147 -0.620764 0.486052
vn 0.611142 0.621337 -0.490352
vn 0.761263 0.122487 -0.636770
vn 0.761263 0.122487 -0.636770
vn 0.761263 0.122487 -0.636770
vn 0.661391 -0.479690 -0.576593
vn 0.592199 0.469638 0.654783
vn 0.679673 -0.138556 0.720310
vn 0.679675 -0.138556 0.720309
vn 0.679674 -0.138556 0.720309
vn 0.679673 -0.138556 0.720310
vn 0.544790 -0.629978 0.553472
vn 0.541656 0.630308 -0.556166
vn 0.676263 0.139151 -0.723398
vn 0.676263 0.139150 -0.723398
vn 0.676263 0.139151 -0.723398
vn 0.589721 -0.469267 -0.657281
vn 0.362579 0.806918 0.466283
vn 0.484013 0.605064 -0.632162
vn 0.611962 -0.149394 0.776650
vn 0.610708 0.149577 -0.777601
vn 0.606892 -0.150130 0.780476
vn 0.605841 0.150281 -0.781263
vn 0.611964 -0.149394 0.776648
vn 0.605841 0.150281 -0.781263
vn 0.611961 -0.149394 0.776650
vn 0.405836 -0.758052 0.510543
vn 0.513773 -0.517814 -0.684037
vn -0.875092 0.418772 -0.242578
vn -0.854001 0.502277 0.135644
vn -0.924399 -0.353018 -0.144447
vn -0.784540 -0.613539 0.089812
vn -0.693353 0.716504 -0.076703
vn -0.708708 0.701132 0.078405
vn -0.708498 -0.701346 -0.078382
vn -0.694384 -0.715493 0.076819
vn -0.654473 0.729923 -0.197174
vn -0.550155 0.825686 0.124786
vn -0.550024 -0.825778 -0.124756
vn -0.529337 -0.839874 0.120063
vn -0.948148 -0.061066 0.311907
vn -0.642951 0.731667 -0.226447
vn -0.793437 0.515303 0.323913
vn -0.804151 -0.518737 -0.290265
vn -0.734205 -0.600450 0.316865
vn -0.919991 -0.074658 0.384764
vn -0.965177 0.047207 -0.257302
vn -0.947144 -0.059033 0.315331
vn -0.924379 0.071792 -0.374659
vn -0.909126 0.078358 -0.409083
vn -0.945672 0.063170 -0.318927
vn -0.718136 0.604148 -0.345377
vn -0.659240 0.678728 0.323622
vn -0.659408 -0.678526 -0.323704
vn -0.702644 -0.606950 0.371354
vn -0.921786 0.071314 -0.381085
vn -0.865783 -0.095971 0.491131
vn -0.559587 0.744820 -0.363463
vn -0.740898 0.498410 0.450174
vn -0.756311 -0.503660 -0.417517
vn -0.559865 -0.744521 0.363649
vn -0.924392 0.071521 -0.374679
vn -0.865977 -0.095000 0.490977
vn -0.914993 0.075679 -0.396308
vn -0.882871 -0.086912 0.461503
vn -0.917448 0.077559 -0.390223
vn -0.398691 0.854050 -0.334133
vn -0.446919 0.812394 0.374539
vn -0.447300 -0.812038 -0.374857
vn -0.398875 -0.853909 0.334274
vn -0.821672 0.106541 -0.559914
vn -0.844167 0.100511 -0.526573
vn -0.864928 0.094181 -0.492981
vn -0.798819 -0.115639 0.590352
vn -0.827943 0.108451 -0.550226
vn -0.863376 -0.095577 0.495425
vn -0.819471 -0.106543 0.563130
vn -0.446382 0.756444 -0.478053
vn -0.513891 0.658080 0.550315
vn -0.514328 -0.657325 -0.550809
vn -0.446624 -0.756155 0.478285
vn -0.353504 0.871922 -0.338801
vn -0.351062 0.888848 0.294455
vn -0.385594 -0.829937 -0.403140
vn -0.351589 -0.871571 0.341687
vn 0.581180 0.153717 -0.799125
vn 0.581180 0.153717 -0.799125
vn 0.581180 0.153717 -0.799125
vn 0.581181 0.153716 -0.799125
vn 0.581180 0.153717 -0.799125
vn 0.581181 0.153718 -0.799125
vn 0.581181 0.153716 -0.799124
vn 0.581182 0.153717 -0.799123
vn 0.581182 0.153718 -0.799124
vn 0.350312 0.783196 0.513698
vn 0.325906 0.764533 -0.556124
vn 0.308652 -0.844230 0.438190
vn 0.384290 -0.649828 -0.655778
vn 0.388021 0.450877 0.803834
vn 0.297583 0.759992 -0.577804
vn 0.366902 -0.646108 0.669274
vn 0.369228 -0.438827 -0.819208
vn 0.367326 0.165094 -0.915323
vn 0.308527 0.179679 -0.934091
vn 0.351513 0.183111 -0.918101
vn 0.258179 0.444005 0.858023
vn 0.240144 0.642705 -0.727503
vn 0.256560 -0.652191 0.713319
vn 0.282757 -0.431635 -0.856586
vn 0.296579 0.170640 -0.939640
vn 0.308529 0.179679 -0.934091
vn 0.320235 0.188590 -0.928377
vn 0.131073 0.147962 0.980269
vn 0.188249 0.453664 -0.871063
vn 0.163667 -0.467739 0.868581
vn 0.151984 -0.292121 -0.944228
vn 0.263860 0.175828 -0.948400
vn 0.308530 0.179679 -0.934090
vn 0.247966 0.193571 -0.949233
vn -0.332581 0.619197 -0.711326
vn -0.448929 0.406748 0.795624
vn -0.450220 -0.406542 -0.795000
vn -0.378558 -0.679751 0.628197
vn -0.315710 0.650447 -0.690830
vn -0.349324 0.646446 0.678292
vn -0.349281 -0.646524 -0.678241
vn -0.297867 -0.651748 0.697495
vn -0.365389 -0.176117 0.914042
vn -0.347275 -0.177375 0.920835
vn -0.404105 0.172056 -0.898385
vn -0.359304 -0.175752 0.916522
vn -0.352656 0.176656 -0.918927
vn -0.329228 0.178241 -0.927275
vn -0.363665 0.176443 -0.914667
vn -0.241121 0.653483 -0.717510
vn -0.275020 0.445253 0.852123
vn -0.298426 -0.446482 -0.843561
vn -0.222799 -0.653981 0.722959
vn -0.342965 0.176897 -0.922541
vn -0.277145 -0.181968 0.943440
vn -0.352751 0.176548 -0.918911
vn -0.270999 -0.182029 0.945212
vn -0.338108 0.177566 -0.924204
vn -0.277351 -0.180940 0.943577
vn -0.335559 0.178669 -0.924920
vn -0.251824 0.182520 -0.950406
vn -0.101116 0.771462 -0.628189
vn -0.183606 0.442948 0.877546
vn -0.207621 -0.444874 -0.871195
vn -0.101140 -0.771363 0.628308
vn -0.243227 0.182935 -0.952562
vn -0.269002 0.181693 -0.945846
vn -0.210181 -0.185287 0.959944
vn -0.254463 0.183412 -0.949531
vn -0.267794 -0.182096 0.946112
vn -0.248397 -0.182607 0.951290
vn 0.015574 0.920484 0.390469
vn -0.098451 0.772318 -0.627560
vn -0.114236 0.533915 0.837786
vn 0.090869 0.772102 -0.628968
vn 0.022456 -0.826119 0.563048
vn -0.069909 -0.439297 -0.895617
vn -0.094795 -0.772087 0.628407
vn 0.120687 -0.737595 -0.664371
vn -0.099093 0.721278 0.685521
vn 0.106384 0.628200 -0.770745
vn 0.129022 0.500940 0.855811
vn -0.021739 0.912459 -0.408590
vn -0.089535 -0.865218 0.493337
vn 0.155068 -0.391072 -0.907203
vn 0.056308 -0.626844 0.777108
vn -0.012655 -0.879247 -0.476198
vn 0.242328 0.184162 -0.952555
vn 0.278633 0.181311 -0.943128
vn 0.254425 0.182556 -0.949706
vn 0.278684 -0.181208 0.943133
vn 0.214776 0.183955 -0.959183
vn 0.274598 -0.181870 0.944203
vn 0.101104 0.771528 -0.628111
vn 0.195091 0.443866 0.874598
vn 0.225828 -0.184466 0.956543
vn 0.170774 -0.442002 -0.880608
vn 0.101178 -0.771166 0.628543
vn 0.305901 0.180566 -0.934784
vn 0.314753 -0.178750 0.932190
vn 0.278570 0.181213 -0.943165
vn 0.345365 -0.177474 0.921534
vn 0.263464 0.182016 -0.947342
vn 0.363563 -0.176576 0.914682
vn 0.248367 0.182261 -0.951365
vn 0.233390 0.653829 -0.719747
vn 0.286248 0.445806 0.848127
vn 0.262684 -0.444686 -0.856301
vn 0.251754 -0.652709 0.714556
vn 0.373913 -0.174503 0.910899
vn 0.342394 -0.177578 0.922623
vn 0.340138 0.177951 -0.923385
vn 0.395463 -0.173940 0.901862
vn 0.341839 0.177277 -0.922886
vn 0.364954 0.175581 -0.914319
vn 0.385869 0.173772 -0.906040
vn 0.308164 0.651108 -0.693609
vn 0.349294 0.646525 0.678233
vn 0.349402 -0.646213 -0.678475
vn 0.326110 -0.649223 0.687140
vn 0.336221 0.683838 -0.647550
vn 0.436421 0.406584 0.802637
vn 0.497597 -0.325723 -0.803929
vn 0.340267 -0.683297 0.646007
vn -0.247965 -0.193570 0.949233
vn -0.308527 -0.179679 0.934091
vn -0.263859 -0.175828 0.948400
vn -0.151984 0.292122 0.944228
vn -0.163669 0.467739 -0.868581
vn -0.188250 -0.453665 0.871063
vn -0.131074 -0.147962 -0.980269
vn -0.320238 -0.188590 0.928376
vn -0.308530 -0.179679 0.934090
vn -0.296579 -0.170640 0.939640
vn -0.282757 0.431635 0.856586
vn -0.256560 0.652191 -0.713319
vn -0.240143 -0.642705 0.727503
vn -0.258180 -0.444005 -0.858023
vn -0.351513 -0.183111 0.918101
vn -0.308528 -0.179679 0.934091
vn -0.367326 -0.165094 0.915323
vn -0.369229 0.438827 0.819207
vn -0.366902 0.646108 -0.669274
vn -0.297583 -0.759992 0.577804
vn -0.388021 -0.450877 -0.803834
vn -0.384290 0.649828 0.655778
vn -0.263472 0.887917 -0.377075
vn -0.291181 -0.805362 0.516338
vn -0.350312 -0.783196 -0.513698
vn 0.359466 0.872346 -0.331355
vn 0.343679 0.887665 0.306489
vn 0.423010 -0.834736 -0.352531
vn 0.327591 -0.870772 0.366660
vn 0.446246 0.756617 -0.477908
vn 0.514009 0.657883 0.550441
vn 0.513857 -0.658116 -0.550304
vn 0.447030 -0.755640 0.478719
vn 0.811810 0.112986 -0.572886
vn 0.871947 0.092213 -0.480838
vn 0.852439 0.098437 -0.513476
vn 0.838763 -0.101553 0.534943
vn 0.797153 0.112031 -0.593293
vn 0.869317 -0.093987 0.485237
vn 0.798983 -0.114719 0.590309
vn 0.506049 0.751031 -0.424106
vn 0.573051 0.664062 0.480243
vn 0.572909 -0.664270 -0.480125
vn 0.506919 -0.750041 0.424820
vn 0.884885 0.090450 -0.456943
vn 0.903522 -0.079367 0.421128
vn 0.872027 0.091919 -0.480749
vn 0.919755 -0.074673 0.385324
vn 0.859923 0.095880 -0.501338
vn 0.675985 0.613045 -0.408925
vn 0.748444 0.500951 0.434603
vn 0.732152 -0.495697 -0.467159
vn 0.693196 -0.609614 0.384512
vn 0.925284 -0.073483 0.372088
vn 0.863480 0.093267 -0.495685
vn 0.476085 0.847778 -0.233700
vn 0.662141 0.679134 0.316774
vn 0.515341 -0.818794 -0.252982
vn 0.476625 -0.847400 0.233970
vn 0.949142 -0.057203 0.309609
vn 0.917762 -0.075282 0.389929
vn 0.938633 0.066914 -0.338366
vn 0.959112 -0.054906 0.277651
vn 0.878976 0.089325 -0.468425
vn 0.742110 0.598751 -0.301281
vn 0.686218 0.686071 0.241684
vn 0.787158 -0.513469 -0.341660
vn 0.643730 -0.730897 0.226717
vn 0.916219 0.075062 -0.393584
vn 0.957850 0.053065 -0.282324
vn 0.673056 0.723664 -0.152665
vn 0.702495 0.693622 0.159340
vn 0.703209 -0.692861 -0.159501
vn 0.780335 -0.586561 0.216847
vn 0.693535 0.716326 -0.076723
vn 0.708530 0.701313 0.078385
vn 0.709208 -0.700620 -0.078459
vn 0.693839 -0.716027 0.076758
vn 0.883591 0.414040 -0.218719
vn 0.851220 0.501259 0.155446
vn 0.929558 -0.360168 -0.078750
vn 0.765446 -0.625051 0.152986
vn -0.361941 0.806877 0.466850
vn -0.404811 0.758114 -0.511264
vn -0.610599 -0.149592 0.777683
vn -0.610600 0.149592 -0.777683
vn -0.610600 -0.149592 0.777682
vn -0.605751 0.150294 -0.781330
vn -0.605752 -0.150294 0.781329
vn -0.610600 0.149593 -0.777683
vn -0.610599 -0.149593 0.777683
vn -0.404810 -0.758114 0.511265
vn -0.361941 -0.806876 -0.466850
vn -0.589476 0.469229 0.657528
vn -0.541328 0.630342 -0.556447
vn -0.675915 -0.139211 0.723713
vn -0.675915 0.139211 -0.723712
vn -0.675917 -0.139211 0.723710
vn -0.675915 0.139211 -0.723712
vn -0.675916 -0.139211 0.723711
vn -0.675915 0.139211 -0.723712
vn -0.675914 -0.139211 0.723713
vn -0.541328 -0.630342 0.556447
vn -0.589477 -0.469229 -0.657527
vn -0.660921 0.479606 0.577201
vn -0.610588 0.621414 -0.490945
vn -0.760644 -0.122624 0.637483
vn -0.760642 0.122624 -0.637484
vn -0.760643 -0.122624 0.637484
vn -0.760642 0.122624 -0.637484
vn -0.760642 -0.122624 0.637485
vn -0.760642 0.122624 -0.637484
vn -0.760643 -0.122624 0.637484
vn -0.610589 -0.621414 0.490944
vn -0.660921 -0.479605 -0.577201
vn -0.720782 0.490998 0.489279
vn -0.672065 0.611451 -0.417680
vn -0.833965 -0.104235 0.541884
vn -0.833965 0.104235 -0.541884
vn -0.833964 -0.104235 0.541885
vn -0.833965 0.104235 -0.541884
vn -0.833964 -0.104235 0.541884
vn -0.833964 0.104235 -0.541884
vn -0.833965 -0.104235 0.541884
vn -0.672065 -0.611450 0.417680
vn -0.720781 -0.490998 -0.489280
vn -0.768080 0.503114 0.396144
vn -0.724571 0.600644 -0.337970
vn -0.894480 -0.084456 0.439058
vn -0.894481 0.084456 -0.439058
vn -0.894481 -0.084456 0.439057
vn -0.894481 0.084456 -0.439058
vn -0.894481 -0.084456 0.439058
vn -0.894481 0.084456 -0.439057
vn -0.894481 -0.084456 0.439058
vn -0.724572 -0.600643 0.337970
vn -0.768080 -0.503114 -0.396143
vn -0.802513 0.515656 0.300121
vn -0.767245 0.589205 -0.253322
vn -0.941375 -0.063725 0.331287
vn -0.941376 0.063725 -0.331287
vn -0.941376 -0.063725 0.331287
vn -0.941375 0.063725 -0.331287
vn -0.941375 -0.063725 0.331288
vn -0.941376 0.063725 -0.331287
vn -0.941375 -0.063725 0.331288
vn -0.767245 -0.589205 0.253323
vn -0.802513 -0.515656 -0.300120
vn -0.442120 0.891298 0.100585
vn -0.434080 0.897889 -0.073278
vn -0.980274 -0.037333 0.194083
vn -0.980274 0.037333 -0.194083
vn -0.980274 -0.037333 0.194083
vn -0.980274 0.037333 -0.194083
vn -0.980274 -0.037333 0.194083
vn -0.980274 0.037333 -0.194083
vn -0.980274 -0.037333 0.194083
vn -0.434080 -0.897889 0.073278
vn -0.442120 -0.891298 -0.100585
vn -0.394364 0.918489 0.029240
vn -0.445126 0.895317 -0.016467
vn -0.998404 -0.010668 0.055460
vn -0.998404 0.010668 -0.055460
vn -0.998404 -0.010668 0.055460
vn -0.998828 0.009144 -0.047536
vn -0.997701 -0.012801 0.066547
vn -0.998404 0.010668 -0.055460
vn -0.998404 -0.010668 0.055460
vn -0.392161 -0.919782 0.014507
vn -0.447992 -0.893421 -0.033216

f 304//304 371//371 372//372
f 302//302 367//367 369//369
f 369//369 371//371 304//304
f 365//365 367//367 302//302
f 304//304 302//302 369//369
f 365//365 302//302 363//363
f 236//236 240//240 232//232
f 97//97 168//168 98//98
f 97//97 95//95 168//168
f 166//166 168//168 93//93
f 166//166 91//91 89//89
f 166//166 93//93 91//91
f 1//1 3//3 2//2
f 3//3 5//5 4//4
f 7//7 9//9 6//6
f 9//9 10//10 8//8
f 5//5 7//7 6//6
f 161//161 158//158 159//159
f 160//160 157//157 158//158
f 164//164 161//161 162//162
f 163//163 160//160 161//161
f 96//96 99//99 159//159
f 162//162 159//159 99//99
f 94//94 96//96 158//158
f 92//92 94//94 157//157
f 90//90 92//92 157//157
f 169//169 165//165 162//162
f 167//167 164//164 169//169
f 165//165 169//169 164//164
f 169//169 162//162 99//99
f 167//167 90//90 160//160
f 160//160 163//163 167//167
f 164//164 167//167 163//163
f 231//231 235//235 243//243
f 303//303 305//305 368//368
f 373//373 370//370 305//305
f 305//305 370//370 368//368
f 303//303 366//366 364//364
f 442//442 440//440 441//441
f 445//445 446//446 444//444
f 448//448 446//446 445//445
f 444//444 442//442 443//443
f 443//443 445//445 444//444
f 449//449 448//448 447//447
f 156//156 44//44 33//33
f 156//156 55//55 44//44
f 66//66 156//156 77//77
f 66//66 55//55 156//156
f 77//77 156//156 88//88
f 22//22 11//11 111//111
f 22//22 126//126 132//132
f 22//22 116//116 126//126
f 11//11 107//107 111//111
f 22//22 111//111 116//116
f 33//33 22//22 141//141
f 103//103 107//107 11//11
f 156//156 99//99 88//88
f 173//173 169//169 235//235
f 180//180 173//173 235//235
f 169//169 234//234 235//235
f 234//234 169//169 221//221
f 235//235 187//187 180//180
f 209//209 221//221 169//169
f 22//22 132//132 141//141
f 152//152 33//33 141//141
f 169//169 198//198 209//209
f 194//194 99//99 156//156
f 169//169 194//194 198//198
f 152//152 156//156 33//33
f 99//99 194//194 169//169
f 110//110 10//10 17//17
f 11//11 10//10 103//103
f 103//103 10//10 102//102
f 10//10 106//106 102//102
f 17//17 115//115 110//110
f 10//10 110//110 106//106
f 140//140 17//17 28//28
f 50//50 155//155 39//39
f 28//28 39//39 155//155
f 155//155 61//61 72//72
f 72//72 83//83 155//155
f 155//155 50//50 61//61
f 83//83 98//98 155//155
f 125//125 115//115 17//17
f 17//17 140//140 131//131
f 17//17 131//131 125//125
f 155//155 98//98 193//193
f 168//168 197//197 193//193
f 98//98 168//168 193//193
f 151//151 28//28 155//155
f 179//179 232//232 172//172
f 168//168 172//172 232//232
f 168//168 232//232 233//233
f 232//232 179//179 186//186
f 220//220 168//168 233//233
f 208//208 168//168 220//220
f 208//208 197//197 168//168
f 140//140 28//28 151//151
f 243//243 235//235 234//234
f 305//305 243//243 242//242
f 287//287 243//243 294//294
f 243//243 305//305 301//301
f 294//294 243//243 301//301
f 254//254 305//305 242//242
f 305//305 254//254 265//265
f 305//305 265//265 276//276
f 280//280 309//309 373//373
f 313//313 324//324 439//439
f 439//439 309//309 313//313
f 280//280 305//305 276//276
f 280//280 373//373 305//305
f 309//309 395//395 384//384
f 406//406 395//395 309//309
f 309//309 428//428 417//417
f 428//428 309//309 439//439
f 417//417 406//406 309//309
f 333//333 439//439 324//324
f 339//339 439//439 333//333
f 450//450 339//339 348//348
f 450//450 354//354 358//358
f 449//449 450//450 362//362
f 358//358 362//362 450//450
f 450//450 348//348 354//354
f 339//339 450//450 439//439
f 373//373 309//309 384//384
f 304//304 275//275 264//264
f 304//304 264//264 253//253
f 312//312 308//308 438//438
f 372//372 279//279 304//304
f 372//372 308//308 279//279
f 304//304 279//279 275//275
f 240//240 241//241 233//233
f 304//304 241//241 240//240
f 232//232 240//240 233//233
f 300//300 240//240 293//293
f 293//293 240//240 286//286
f 304//304 240//240 300//300
f 304//304 253//253 241//241
f 438//438 323//323 312//312
f 449//449 347//347 338//338
f 338//338 332//332 438//438
f 357//357 449//449 361//361
f 362//362 361//361 449//449
f 449//449 357//357 353//353
f 353//353 347//347 449//449
f 449//449 338//338 438//438
f 308//308 372//372 383//383
f 308//308 383//383 394//394
f 308//308 405//405 416//416
f 308//308 394//394 405//405
f 308//308 416//416 427//427
f 308//308 427//427 438//438
f 323//323 438//438 332//332
f 243//243 234//234 242//242
f 154//154 29//29 40//40
f 154//154 40//40 51//51
f 62//62 73//73 154//154
f 62//62 154//154 51//51
f 73//73 84//84 154//154
f 18//18 109//109 2//2
f 18//18 130//130 124//124
f 18//18 124//124 114//114
f 2//2 109//109 105//105
f 18//18 114//114 109//109
f 29//29 139//139 18//18
f 101//101 2//2 105//105
f 154//154 84//84 90//90
f 171//171 231//231 167//167
f 178//178 231//231 171//171
f 167//167 231//231 230//230
f 230//230 219//219 167//167
f 231//231 178//178 185//185
f 207//207 167//167 219//219
f 18//18 139//139 130//130
f 150//150 139//139 29//29
f 167//167 207//207 196//196
f 192//192 154//154 90//90
f 167//167 196//196 192//192
f 150//150 29//29 154//154
f 90//90 167//167 192//192
f 108//108 12//12 1//1
f 2//2 101//101 1//1
f 101//101 100//100 1//1
f 1//1 100//100 104//104
f 12//12 108//108 113//113
f 1//1 104//104 108//108
f 138//138 23//23 12//12
f 45//45 34//34 153//153
f 23//23 153//153 34//34
f 153//153 67//67 56//56
f 67//67 153//153 78//78
f 153//153 56//56 45//45
f 78//78 153//153 89//89
f 123//123 12//12 113//113
f 12//12 129//129 138//138
f 12//12 123//123 129//129
f 153//153 191//191 89//89
f 166//166 191//191 195//195
f 89//89 191//191 166//166
f 149//149 153//153 23//23
f 177//177 170//170 228//228
f 166//166 228//228 170//170
f 166//166 229//229 228//228
f 228//228 184//184 177//177
f 218//218 229//229 166//166
f 206//206 218//218 166//166
f 206//206 166//166 195//195
f 138//138 149//149 23//23
f 239//239 230//230 231//231
f 303//303 238//238 239//239
f 285//285 292//292 239//239
f 239//239 299//299 303//303
f 292//292 299//299 239//239
f 251//251 238//238 303//303
f 303//303 263//263 251//251
f 303//303 274//274 263//263
f 278//278 364//364 307//307
f 311//311 430//430 322//322
f 430//430 311//311 307//307
f 278//278 274//274 303//303
f 278//278 303//303 364//364
f 307//307 375//375 386//386
f 397//397 307//307 386//386
f 307//307 408//408 419//419
f 419//419 430//430 307//307
f 408//408 307//307 397//397
f 331//331 322//322 430//430
f 337//337 331//331 430//430
f 441//441 346//346 337//337
f 441//441 356//356 352//352
f 440//440 360//360 441//441
f 356//356 441//441 360//360
f 441//441 352//352 346//346
f 337//337 430//430 441//441
f 364//364 375//375 307//307
f 302//302 262//262 273//273
f 302//302 250//250 262//262
f 310//310 429//429 306//306
f 363//363 302//302 277//277
f 363//363 277//277 306//306
f 302//302 273//273 277//277
f 236//236 229//229 237//237
f 302//302 236//236 237//237
f 228//228 229//229 236//236
f 298//298 291//291 236//236
f 291//291 284//284 236//236
f 302//302 298//298 236//236
f 302//302 237//237 250//250
f 429//429 310//310 321//321
f 440//440 336//336 345//345
f 336//336 429//429 330//330
f 355//355 359//359 440//440
f 360//360 440//440 359//359
f 440//440 351//351 355//355
f 351//351 440//440 345//345
f 440//440 429//429 336//336
f 306//306 374//374 363//363
f 306//306 385//385 374//374
f 306//306 407//407 396//396
f 306//306 396//396 385//385
f 306//306 418//418 407//407
f 306//306 429//429 418//418
f 321//321 330//330 429//429
f 239//239 238//238 230//230
f 289//289 288//288 295//295
f 282//282 281//281 288//288
f 290//290 289//289 296//296
f 283//283 282//282 289//289
f 295//295 298//298 302//302
f 302//302 296//296 295//295
f 296//296 302//302 304//304
f 295//295 288//288 298//298
f 284//284 291//291 281//281
f 236//236 284//284 281//281
f 282//282 236//236 281//281
f 290//290 297//297 293//293
f 297//297 304//304 300//300
f 304//304 297//297 296//296
f 240//240 282//282 283//283
f 293//293 286//286 290//290
f 283//283 286//286 240//240
f 236//236 282//282 240//240
f 391//391 393//393 382//382
f 402//402 404//404 393//393
f 413//413 415//415 404//404
f 424//424 426//426 415//415
f 435//435 437//437 426//426
f 389//389 391//391 380//380
f 400//400 402//402 391//391
f 411//411 413//413 402//402
f 422//422 424//424 413//413
f 433//433 435//435 424//424
f 387//387 389//389 378//378
f 398//398 400//400 389//389
f 409//409 411//411 400//400
f 420//420 422//422 411//411
f 431//431 433//433 422//422
f 383//383 372//372 382//382
f 394//394 383//383 393//393
f 405//405 394//394 404//404
f 369//369 380//380 371//371
f 380//380 369//369 378//378
f 404//404 415//415 405//405
f 427//427 416//416 426//426
f 438//438 427//427 437//437
f 449//449 438//438 448//448
f 435//435 446//446 437//437
f 446//446 435//435 444//444
f 365//365 376//376 367//367
f 387//387 376//376 385//385
f 376//376 365//365 374//374
f 385//385 396//396 387//387
f 396//396 407//407 398//398
f 420//420 409//409 418//418
f 444//444 433//433 442//442
f 431//431 420//420 429//429
f 429//429 440//440 431//431
f 184//184 228//228 232//232
f 170//170 177//177 179//179
f 166//166 170//170 172//172
f 177//177 184//184 186//186
f 69//69 68//68 80//80
f 58//58 57//57 69//69
f 47//47 46//46 58//58
f 36//36 35//35 47//47
f 25//25 24//24 36//36
f 14//14 13//13 25//25
f 70//70 69//69 81//81
f 59//59 58//58 70//70
f 48//48 47//47 59//59
f 37//37 36//36 48//48
f 26//26 25//25 37//37
f 15//15 14//14 26//26
f 71//71 70//70 82//82
f 60//60 59//59 71//71
f 49//49 48//48 60//60
f 38//38 37//37 49//49
f 27//27 26//26 38//38
f 16//16 15//15 27//27
f 78//78 89//89 91//91
f 56//56 67//67 68//68
f 45//45 56//56 57//57
f 67//67 78//78 79//79
f 79//79 91//91 93//93
f 80//80 93//93 95//95
f 23//23 34//34 35//35
f 34//34 45//45 46//46
f 12//12 23//23 24//24
f 1//1 12//12 13//13
f 14//14 5//5 3//3
f 5//5 14//14 15//15
f 97//97 82//82 81//81
f 71//71 82//82 83//83
f 82//82 97//97 98//98
f 60//60 71//71 72//72
f 49//49 60//60 61//61
f 27//27 38//38 39//39
f 7//7 15//15 16//16
f 16//16 27//27 28//28
f 17//17 10//10 9//9
f 50//50 39//39 38//38
f 31//31 30//30 20//20
f 42//42 41//41 31//31
f 53//53 52//52 42//42
f 64//64 63//63 53//53
f 75//75 74//74 64//64
f 86//86 85//85 75//75
f 32//32 31//31 21//21
f 43//43 42//42 32//32
f 54//54 53//53 43//43
f 65//65 64//64 54//54
f 76//76 75//75 65//65
f 87//87 86//86 76//76
f 18//18 2//2 4//4
f 29//29 18//18 19//19
f 40//40 29//29 30//30
f 6//6 20//20 19//19
f 20//20 6//6 8//8
f 41//41 52//52 51//51
f 62//62 51//51 52//52
f 84//84 73//73 74//74
f 90//90 84//84 85//85
f 73//73 62//62 63//63
f 92//92 85//85 86//86
f 21//21 8//8 11//11
f 43//43 32//32 33//33
f 54//54 43//43 44//44
f 32//32 21//21 22//22
f 55//55 66//66 65//65
f 76//76 65//65 66//66
f 94//94 86//86 87//87
f 87//87 76//76 77//77
f 88//88 99//99 96//96
f 182//182 181//181 175//175
f 189//189 188//188 182//182
f 183//183 182//182 176//176
f 190//190 189//189 183//183
f 174//174 171//171 167//167
f 167//167 175//175 174//174
f 175//175 167//167 169//169
f 174//174 181//181 178//178
f 185//185 178//178 181//181
f 231//231 185//185 188//188
f 189//189 231//231 188//188
f 183//183 176//176 173//173
f 176//176 169//169 173//173
f 169//169 176//176 175//175
f 235//235 189//189 190//190
f 180//180 187//187 190//190
f 190//190 187//187 235//235
f 231//231 189//189 235//235
f 285//285 239//239 287//287
f 299//299 292//292 301//301
f 303//303 299//299 305//305
f 292//292 285//285 294//294
f 390//390 388//388 377//377
f 401//401 399//399 388//388
f 412//412 410//410 399//399
f 423//423 421//421 410//410
f 434//434 432//432 421//421
f 392//392 390//390 379//379
f 403//403 401//401 390//390
f 414//414 412//412 401//401
f 425//425 423//423 412//412
f 436//436 434//434 423//423
f 375//375 364//364 377//377
f 397//397 386//386 399//399
f 386//386 375//375 388//388
f 368//368 379//379 366//366
f 379//379 368//368 381//381
f 419//419 408//408 421//421
f 441//441 430//430 443//443
f 430//430 419//419 432//432
f 399//399 410//410 397//397
f 443//443 432//432 445//445
f 381//381 370//370 384//384
f 403//403 392//392 406//406
f 392//392 381//381 395//395
f 414//414 403//403 417//417
f 436//436 447//447 434//434
f 436//436 425//425 439//439
f 439//439 450//450 436//436
f 417//417 428//428 414//414
f 103//103 102//102 101//101
f 135//135 137//137 122//122
f 133//133 135//135 121//121
f 127//127 133//133 120//120
f 144//144 146//146 137//137
f 143//143 144//144 135//135
f 142//142 143//143 133//133
f 122//122 104//104 100//100
f 122//122 108//108 104//104
f 137//137 113//113 108//108
f 137//137 123//123 113//113
f 100//100 121//121 122//122
f 102//102 120//120 100//100
f 118//118 102//102 106//106
f 118//118 106//106 110//110
f 102//102 118//118 120//120
f 125//125 127//127 115//115
f 118//118 110//110 115//115
f 146//146 129//129 123//123
f 138//138 129//129 146//146
f 149//149 146//146 153//153
f 153//153 144//144 155//155
f 153//153 146//146 144//144
f 138//138 146//146 149//149
f 131//131 127//127 125//125
f 131//131 142//142 127//127
f 131//131 140//140 142//142
f 151//151 142//142 140//140
f 142//142 151//151 155//155
f 155//155 143//143 142//142
f 155//155 193//193 153//153
f 214//214 216//216 205//205
f 212//212 214//214 204//204
f 210//210 212//212 203//203
f 223//223 225//225 216//216
f 222//222 223//223 214//214
f 217//217 222//222 212//212
f 205//205 195//195 191//191
f 216//216 206//206 195//195
f 191//191 204//204 205//205
f 193//193 203//203 191//191
f 201//201 203//203 193//193
f 201//201 197//197 208//208
f 193//193 197//197 201//201
f 206//206 216//216 225//225
f 223//223 229//229 225//225
f 218//218 225//225 229//229
f 229//229 223//223 233//233
f 210//210 208//208 220//220
f 220//220 233//233 217//217
f 222//222 217//217 233//233
f 233//233 241//241 237//237
f 257//257 255//255 245//245
f 259//259 257//257 246//246
f 261//261 259//259 248//248
f 270//270 268//268 257//257
f 271//271 270//270 259//259
f 272//272 271//271 261//261
f 244//244 250//250 237//237
f 255//255 262//262 244//244
f 262//262 255//255 273//273
f 245//245 244//244 237//237
f 248//248 241//241 253//253
f 241//241 246//246 245//245
f 241//241 248//248 246//246
f 245//245 237//237 241//241
f 264//264 261//261 253//253
f 277//277 268//268 270//270
f 279//279 270//270 271//271
f 273//273 268//268 277//277
f 277//277 270//270 279//279
f 261//261 264//264 272//272
f 275//275 279//279 272//272
f 271//271 272//272 279//279
f 279//279 308//308 306//306
f 327//327 325//325 315//315
f 329//329 327//327 316//316
f 335//335 329//329 318//318
f 344//344 342//342 327//327
f 349//349 344//344 329//329
f 350//350 349//349 335//335
f 314//314 310//310 306//306
f 314//314 321//321 310//310
f 325//325 336//336 330//330
f 330//330 314//314 325//325
f 325//325 345//345 336//336
f 321//321 314//314 330//330
f 315//315 314//314 306//306
f 318//318 308//308 312//312
f 318//318 312//312 323//323
f 308//308 316//316 315//315
f 323//323 332//332 318//318
f 318//318 332//332 335//335
f 308//308 318//318 316//316
f 315//315 306//306 308//308
f 351//351 345//345 342//342
f 359//359 342//342 344//344
f 355//355 342//342 359//359
f 359//359 344//344 349//349
f 351//351 342//342 355//355
f 338//338 347//347 335//335
f 350//350 335//335 347//347
f 347//347 353//353 350//350
f 357//357 350//350 353//353
f 350//350 357//357 361//361
f 361//361 349//349 350//350
f 342//342 345//345 325//325
f 361//361 362//362 360//360
f 328//328 326//326 341//341
f 334//334 328//328 343//343
f 319//319 317//317 328//328
f 320//320 319//319 334//334
f 340//340 356//356 360//360
f 340//340 352//352 356//356
f 326//326 337//337 340//340
f 352//352 340//340 346//346
f 341//341 340//340 360//360
f 343//343 362//362 358//358
f 343//343 358//358 354//354
f 362//362 343//343 341//341
f 339//339 334//334 348//348
f 343//343 354//354 334//334
f 341//341 360//360 362//362
f 317//317 331//331 326//326
f 322//322 331//331 317//317
f 317//317 311//311 322//322
f 317//317 307//307 311//311
f 319//319 307//307 317//317
f 333//333 334//334 339//339
f 333//333 320//320 334//334
f 333//333 324//324 320//320
f 313//313 320//320 324//324
f 320//320 313//313 309//309
f 309//309 319//319 320//320
f 309//309 307//307 319//319
f 309//309 280//280 278//278
f 258//258 256//256 267//267
f 260//260 258//258 269//269
f 249//249 247//247 258//258
f 252//252 249//249 260//260
f 266//266 274//274 278//278
f 256//256 263//263 266//266
f 267//267 266//266 278//278
f 269//269 267//267 280//280
f 278//278 280//280 267//267
f 269//269 276//276 260//260
f 280//280 276//276 269//269
f 263//263 256//256 251//251
f 247//247 238//238 251//251
f 249//249 238//238 247//247
f 260//260 265//265 252//252
f 254//254 242//242 252//252
f 249//249 252//252 242//242
f 242//242 238//238 249//249
f 242//242 234//234 230//230
f 213//213 215//215 227//227
f 211//211 213//213 226//226
f 200//200 202//202 215//215
f 199//199 200//200 213//213
f 227//227 219//219 230//230
f 215//215 207//207 219//219
f 226//226 227//227 230//230
f 224//224 234//234 221//221
f 209//209 211//211 224//224
f 234//234 224//224 226//226
f 226//226 230//230 234//234
f 207//207 215//215 202//202
f 192//192 202//202 200//200
f 202//202 192//192 196//196
f 194//194 192//192 200//200
f 211//211 209//209 198//198
f 198//198 194//194 199//199
f 200//200 199//199 194//194
f 194//194 156//156 192//192
f 134//134 136//136 148//148
f 128//128 134//134 147//147
f 117//117 119//119 136//136
f 112//112 117//117 134//134
f 148//148 150//150 154//154
f 148//148 139//139 150//150
f 136//136 124//124 130//130
f 139//139 148//148 130//130
f 147//147 148//148 154//154
f 145//145 156//156 152//152
f 145//145 152//152 141//141
f 141//141 132//132 145//145
f 145//145 132//132 126//126
f 156//156 145//145 147//147
f 147//147 154//154 156//156
f 136//136 114//114 124//124
f 109//109 114//114 119//119
f 101//101 119//119 117//117
f 119//119 105//105 109//109
f 119//119 101//101 105//105
f 103//103 101//101 117//117
f 126//126 116//116 128//128
f 112//112 128//128 116//116
f 116//116 111//111 112//112
f 107//107 112//112 111//111
f 112//112 107//107 103//103
f 103//103 117//117 112//112
f 114//114 136//136 119//119
f 236//236 232//232 228//228
f 168//168 95//95 93//93
f 3//3 4//4 2//2
f 5//5 6//6 4//4
f 9//9 8//8 6//6
f 10//10 11//11 8//8
f 161//161 159//159 162//162
f 160//160 158//158 161//161
f 164//164 162//162 165//165
f 163//163 161//161 164//164
f 96//96 159//159 158//158
f 94//94 158//158 157//157
f 90//90 157//157 160//160
f 231//231 243//243 239//239
f 303//303 368//368 366//366
f 442//442 441//441 443//443
f 448//448 445//445 447//447
f 449//449 447//447 450//450
f 289//289 295//295 296//296
f 282//282 288//288 289//289
f 290//290 296//296 297//297
f 283//283 289//289 290//290
f 288//288 291//291 298//298
f 291//291 288//288 281//281
f 297//297 300//300 293//293
f 286//286 283//283 290//290
f 391//391 382//382 380//380
f 402//402 393//393 391//391
f 413//413 404//404 402//402
f 424//424 415//415 413//413
f 435//435 426//426 424//424
f 389//389 380//380 378//378
f 400//400 391//391 389//389
f 411//411 402//402 400//400
f 422//422 413//413 411//411
f 433//433 424//424 422//422
f 387//387 378//378 376//376
f 398//398 389//389 387//387
f 409//409 400//400 398//398
f 420//420 411//411 409//409
f 431//431 422//422 420//420
f 372//372 371//371 382//382
f 383//383 382//382 393//393
f 394//394 393//393 404//404
f 380//380 382//382 371//371
f 369//369 367//367 378//378
f 415//415 416//416 405//405
f 416//416 415//415 426//426
f 427//427 426//426 437//437
f 438//438 437//437 448//448
f 446//446 448//448 437//437
f 435//435 433//433 444//444
f 376//376 378//378 367//367
f 376//376 374//374 385//385
f 365//365 363//363 374//374
f 396//396 398//398 387//387
f 407//407 409//409 398//398
f 409//409 407//407 418//418
f 433//433 431//431 442//442
f 420//420 418//418 429//429
f 440//440 442//442 431//431
f 184//184 232//232 186//186
f 170//170 179//179 172//172
f 166//166 172//172 168//168
f 177//177 186//186 179//179
f 68//68 79//79 80//80
f 57//57 68//68 69//69
f 46//46 57//57 58//58
f 35//35 46//46 47//47
f 24//24 35//35 36//36
f 13//13 24//24 25//25
f 69//69 80//80 81//81
f 58//58 69//69 70//70
f 47//47 58//58 59//59
f 36//36 47//47 48//48
f 25//25 36//36 37//37
f 14//14 25//25 26//26
f 70//70 81//81 82//82
f 59//59 70//70 71//71
f 48//48 59//59 60//60
f 37//37 48//48 49//49
f 26//26 37//37 38//38
f 15//15 26//26 27//27
f 78//78 91//91 79//79
f 56//56 68//68 57//57
f 45//45 57//57 46//46
f 67//67 79//79 68//68
f 79//79 93//93 80//80
f 80//80 95//95 81//81
f 23//23 35//35 24//24
f 34//34 46//46 35//35
f 12//12 24//24 13//13
f 1//1 13//13 3//3
f 14//14 3//3 13//13
f 5//5 15//15 7//7
f 97//97 81//81 95//95
f 71//71 83//83 72//72
f 82//82 98//98 83//83
f 60//60 72//72 61//61
f 49//49 61//61 50//50
f 27//27 39//39 28//28
f 7//7 16//16 9//9
f 16//16 28//28 17//17
f 17//17 9//9 16//16
f 50//50 38//38 49//49
f 30//30 19//19 20//20
f 41//41 30//30 31//31
f 52//52 41//41 42//42
f 63//63 52//52 53//53
f 74//74 63//63 64//64
f 85//85 74//74 75//75
f 31//31 20//20 21//21
f 42//42 31//31 32//32
f 53//53 42//42 43//43
f 64//64 53//53 54//54
f 75//75 64//64 65//65
f 86//86 75//75 76//76
f 18//18 4//4 19//19
f 29//29 19//19 30//30
f 40//40 30//30 41//41
f 6//6 19//19 4//4
f 20//20 8//8 21//21
f 41//41 51//51 40//40
f 62//62 52//52 63//63
f 84//84 74//74 85//85
f 90//90 85//85 92//92
f 73//73 63//63 74//74
f 92//92 86//86 94//94
f 21//21 11//11 22//22
f 43//43 33//33 44//44
f 54//54 44//44 55//55
f 32//32 22//22 33//33
f 55//55 65//65 54//54
f 76//76 66//66 77//77
f 94//94 87//87 96//96
f 87//87 77//77 88//88
f 88//88 96//96 87//87
f 181//181 174//174 175//175
f 188//188 181//181 182//182
f 182//182 175//175 176//176
f 189//189 182//182 183//183
f 174//174 178//178 171//171
f 185//185 181//181 188//188
f 183//183 173//173 180//180
f 180//180 190//190 183//183
f 239//239 243//243 287//287
f 292//292 294//294 301//301
f 299//299 301//301 305//305
f 285//285 287//287 294//294
f 390//390 377//377 379//379
f 401//401 388//388 390//390
f 412//412 399//399 401//401
f 423//423 410//410 412//412
f 434//434 421//421 423//423
f 392//392 379//379 381//381
f 403//403 390//390 392//392
f 414//414 401//401 403//403
f 425//425 412//412 414//414
f 436//436 423//423 425//425
f 364//364 366//366 377//377
f 386//386 388//388 399//399
f 375//375 377//377 388//388
f 379//379 377//377 366//366
f 368//368 370//370 381//381
f 408//408 410//410 421//421
f 430//430 432//432 443//443
f 419//419 421//421 432//432
f 410//410 408//408 397//397
f 432//432 434//434 445//445
f 370//370 373//373 384//384
f 392//392 395//395 406//406
f 381//381 384//384 395//395
f 403//403 406//406 417//417
f 447//447 445//445 434//434
f 425//425 428//428 439//439
f 450//450 447//447 436//436
f 428//428 425//425 414//414
f 102//102 100//100 101//101
f 135//135 122//122 121//121
f 133//133 121//121 120//120
f 127//127 120//120 118//118
f 144//144 137//137 135//135
f 143//143 135//135 133//133
f 142//142 133//133 127//127
f 137//137 108//108 122//122
f 120//120 121//121 100//100
f 118//118 115//115 127//127
f 146//146 123//123 137//137
f 144//144 143//143 155//155
f 193//193 191//191 153//153
f 214//214 205//205 204//204
f 212//212 204//204 203//203
f 210//210 203//203 201//201
f 223//223 216//216 214//214
f 222//222 214//214 212//212
f 217//217 212//212 210//210
f 216//216 195//195 205//205
f 203//203 204//204 191//191
f 201//201 208//208 210//210
f 206//206 225//225 218//218
f 223//223 222//222 233//233
f 210//210 220//220 217//217
f 233//233 237//237 229//229
f 255//255 244//244 245//245
f 257//257 245//245 246//246
f 259//259 246//246 248//248
f 268//268 255//255 257//257
f 270//270 257//257 259//259
f 271//271 259//259 261//261
f 262//262 250//250 244//244
f 255//255 268//268 273//273
f 261//261 248//248 253//253
f 264//264 275//275 272//272
f 279//279 306//306 277//277
f 325//325 314//314 315//315
f 327//327 315//315 316//316
f 329//329 316//316 318//318
f 342//342 325//325 327//327
f 344//344 327//327 329//329
f 349//349 329//329 335//335
f 332//332 338//338 335//335
f 359//359 349//349 361//361
f 361//361 360//360 359//359
f 326//326 340//340 341//341
f 328//328 341//341 343//343
f 317//317 326//326 328//328
f 319//319 328//328 334//334
f 337//337 346//346 340//340
f 354//354 348//348 334//334
f 331//331 337//337 326//326
f 309//309 278//278 307//307
f 256//256 266//266 267//267
f 258//258 267//267 269//269
f 247//247 256//256 258//258
f 249//249 258//258 260//260
f 263//263 274//274 266//266
f 276//276 265//265 260//260
f 256//256 247//247 251//251
f 265//265 254//254 252//252
f 242//242 230//230 238//238
f 213//213 227//227 226//226
f 211//211 226//226 224//224
f 200//200 215//215 213//213
f 199//199 213//213 211//211
f 215//215 219//219 227//227
f 209//209 224//224 221//221
f 207//207 202//202 196//196
f 211//211 198//198 199//199
f 156//156 154//154 192//192
f 134//134 148//148 147//147
f 128//128 147//147 145//145
f 117//117 136//136 134//134
f 112//112 134//134 128//128
f 136//136 130//130 148//148
f 145//145 126//126 128//128