# PHANTOM Module: PL15_12
# Units: meters
o PL15_12

v 5.200001 1.200000 2.351545
v 5.200001 1.200000 1.186359
v 5.200001 0.900000 2.263852
v 5.200001 0.800000 1.069435
v 5.200001 0.600000 2.176160
v 5.200001 0.400000 0.952512
v 5.200001 0.300000 2.088467
v 5.200001 0.000000 2.000775
v 5.200001 0.000000 0.835589
v 5.198452 1.200000 2.379745
v 5.198452 1.200000 1.158159
v 5.198452 0.900000 2.292052
v 5.198452 0.800000 1.041235
v 5.198452 0.600000 2.204360
v 5.198452 0.400000 0.924312
v 5.198452 0.300000 2.116667
v 5.198452 0.000000 2.028975
v 5.198452 0.000000 0.807389
v 5.193691 1.200000 2.408173
v 5.193691 1.200000 1.129731
v 5.193691 0.900000 2.320480
v 5.193691 0.800000 1.012807
v 5.193691 0.600000 2.232788
v 5.193691 0.400000 0.895884
v 5.193691 0.300000 2.145095
v 5.193691 0.000000 2.057403
v 5.193691 0.000000 0.778961
v 5.185637 1.200000 2.436174
v 5.185637 1.200000 1.101729
v 5.185637 0.900000 2.348482
v 5.185637 0.800000 0.984806
v 5.185637 0.600000 2.260790
v 5.185637 0.400000 0.867882
v 5.185637 0.300000 2.173097
v 5.185637 0.000000 2.085405
v 5.185637 0.000000 0.750959
v 5.174364 1.200000 2.463075
v 5.174364 1.200000 1.074829
v 5.174364 0.900000 2.375382
v 5.174364 0.800000 0.957905
v 5.174364 0.600000 2.287690
v 5.174364 0.400000 0.840982
v 5.174364 0.300000 2.199997
v 5.174364 0.000000 2.112305
v 5.174364 0.000000 0.724059
v 5.160099 1.200000 2.488228
v 5.160099 1.200000 1.049675
v 5.160099 0.900000 2.400536
v 5.160099 0.800000 0.932752
v 5.160099 0.600000 2.312843
v 5.160099 0.400000 0.815828
v 5.160099 0.300000 2.225151
v 5.160099 0.000000 2.137459
v 5.160099 0.000000 0.698905
v 5.143209 1.200000 2.511072
v 5.143209 1.200000 1.026832
v 5.143209 0.900000 2.423379
v 5.143209 0.800000 0.909908
v 5.143209 0.600000 2.335687
v 5.143209 0.400000 0.792985
v 5.143209 0.300000 2.247994
v 5.143209 0.000000 2.160302
v 5.143209 0.000000 0.676062
v 5.124168 1.200000 2.531164
v 5.124168 1.200000 1.006740
v 5.124168 0.900000 2.443471
v 5.124168 0.800000 0.889816
v 5.124168 0.600000 2.355779
v 5.124168 0.400000 0.772893
v 5.124168 0.300000 2.268086
v 5.124168 0.000000 2.180394
v 5.124168 0.000000 0.655970
v 5.103519 1.200000 2.548211
v 5.103519 1.200000 0.989692
v 5.103519 0.900000 2.460519
v 5.103519 0.800000 0.872769
v 5.103519 0.600000 2.372826
v 5.103519 0.400000 0.755846
v 5.103519 0.300000 2.285134
v 5.103519 0.000000 2.197441
v 5.103519 0.000000 0.638922
v 5.000000 1.200000 2.351545
v 5.000000 1.200000 1.186359
v 5.000000 0.000000 2.000775
v 5.000000 0.000000 0.835589
v 4.999882 1.200000 2.353714
v 4.999882 1.200000 1.184189
v 4.999882 0.000000 2.002944
v 4.999882 0.000000 0.833420
v 4.999516 1.200000 2.355901
v 4.999516 1.200000 1.182003
v 4.999516 0.000000 2.005131
v 4.999516 0.000000 0.831233
v 4.999123 0.300000 0.918928
v 4.998896 1.200000 2.358055
v 4.998896 1.200000 1.179849
v 4.998896 0.000000 2.007285
v 4.998896 0.000000 0.829079
v 4.998796 0.600000 1.006811
v 4.998470 0.900000 1.094694
v 4.998470 0.300000 2.092440
v 4.998362 0.600000 2.180068
v 4.998253 0.900000 2.267698
v 4.998028 1.200000 2.360124
v 4.998028 1.200000 1.177779
v 4.998028 0.000000 2.009354
v 4.998028 0.000000 0.827010
v 4.996943 0.300000 2.096412
v 4.996943 0.300000 0.915337
v 4.996931 1.200000 2.362059
v 4.996931 1.200000 1.175845
v 4.996931 0.000000 2.011289
v 4.996931 0.000000 0.825075
v 4.996725 0.600000 2.183978
v 4.996725 0.600000 1.003156
v 4.996508 0.900000 2.271543
v 4.996508 0.900000 1.090975
v 4.995632 1.200000 2.363816
v 4.995632 1.200000 1.174087
v 4.995632 0.000000 2.013046
v 4.995632 0.000000 0.823318
v 4.995413 0.300000 2.100384
v 4.995087 0.600000 2.187886
v 4.994761 0.900000 2.275389
v 4.994761 0.300000 0.911745
v 4.994652 0.600000 0.999501
v 4.994543 0.900000 1.087257
v 4.994167 1.200000 2.365361
v 4.994167 1.200000 1.172542
v 4.994167 0.000000 2.014592
v 4.994167 0.000000 0.821772
v 4.992579 1.200000 2.366673
v 4.992579 1.200000 1.171231
v 4.992579 0.000000 2.015903
v 4.992579 0.000000 0.820461
v 4.786594 0.900000 2.428787
v 4.786594 0.600000 2.341094
v 4.786594 0.300000 2.253402
v 4.580612 0.900000 2.578593
v 4.580612 0.600000 2.490901
v 4.580612 0.300000 2.403208
v 4.374628 0.900000 2.728399
v 4.374628 0.600000 2.640707
v 4.374628 0.300000 2.553014
v 4.279585 1.200000 3.147436
v 4.279585 1.200000 0.390467
v 4.279585 0.000000 2.796666
v 4.279585 0.000000 0.039697
v 4.252039 1.200000 3.164439
v 4.252039 1.200000 0.373465
v 4.252039 0.000000 2.813669
v 4.252039 0.000000 0.022695
v 4.222185 1.200000 3.176991
v 4.222185 1.200000 0.360912
v 4.222185 0.000000 2.826222
v 4.222185 0.000000 0.010142
v 4.190964 1.200000 3.184612
v 4.190964 1.200000 0.353291
v 4.190964 0.000000 2.833842
v 4.190964 0.000000 0.002522
v 4.168644 1.200000 2.965898
v 4.168644 1.200000 0.572005
v 4.168644 0.000000 2.615128
v 4.168644 0.000000 0.221235
v 4.166525 1.200000 2.967206
v 4.166525 1.200000 0.570697
v 4.166525 0.000000 2.616436
v 4.166525 0.000000 0.219928
v 4.166449 0.300000 0.307745
v 4.166410 0.600000 0.395577
v 4.166372 0.900000 0.483409
v 4.166372 0.300000 2.703724
v 4.166359 0.600000 2.791370
v 4.166346 0.900000 2.879016
v 4.164228 1.200000 2.968172
v 4.164228 1.200000 0.569732
v 4.164228 0.000000 2.617402
v 4.164228 0.000000 0.218962
v 4.164099 0.300000 2.704628
v 4.164099 0.300000 0.307121
v 4.164074 0.600000 2.792227
v 4.164074 0.600000 0.394907
v 4.164047 0.900000 2.879826
v 4.164047 0.900000 0.482693
v 4.161827 1.200000 2.968758
v 4.161827 1.200000 0.569146
v 4.161827 0.300000 2.705531
v 4.161827 0.000000 2.617988
v 4.161827 0.000000 0.218376
v 4.161789 0.600000 2.793083
v 4.161749 0.900000 2.880636
v 4.161749 0.300000 0.306498
v 4.161736 0.600000 0.394237
v 4.161724 0.900000 0.481976
v 4.159399 1.200000 3.187134
v 4.159399 1.200000 2.968952
v 4.159399 1.200000 0.568952
v 4.159399 1.200000 0.350770
v 4.159399 0.000000 2.836364
v 4.159399 0.000000 2.618182
v 4.159399 0.000000 0.218182
v 4.159399 0.000000 0.000000
v 1.040602 1.200000 3.187134
v 1.040602 1.200000 2.968952
v 1.040602 1.200000 0.568952
v 1.040602 1.200000 0.350770
v 1.040602 0.000000 2.836364
v 1.040602 0.000000 2.618182
v 1.040602 0.000000 0.218182
v 1.040602 0.000000 0.000000
v 1.038279 0.900000 2.880543
v 1.038265 0.600000 2.792897
v 1.038252 0.900000 0.481883
v 1.038252 0.300000 2.705251
v 1.038214 0.600000 0.394050
v 1.038174 1.200000 2.968758
v 1.038174 1.200000 0.569146
v 1.038174 0.300000 0.306218
v 1.038174 0.000000 2.617988
v 1.038174 0.000000 0.218376
v 1.035954 0.900000 2.879826
v 1.035954 0.900000 0.482693
v 1.035927 0.600000 2.792227
v 1.035927 0.600000 0.394907
v 1.035902 0.300000 2.704628
v 1.035902 0.300000 0.307121
v 1.035772 1.200000 2.968172
v 1.035772 1.200000 0.569732
v 1.035772 0.000000 2.617402
v 1.035772 0.000000 0.218962
v 1.033655 0.900000 0.483503
v 1.033642 0.600000 0.395764
v 1.033628 0.900000 2.879109
v 1.033628 0.300000 0.308024
v 1.033590 0.600000 2.791557
v 1.033552 0.300000 2.704004
v 1.033476 1.200000 2.967206
v 1.033476 1.200000 0.570697
v 1.033476 0.000000 2.616436
v 1.033476 0.000000 0.219928
v 1.031357 1.200000 2.965898
v 1.031357 1.200000 0.572005
v 1.031357 0.000000 2.615128
v 1.031357 0.000000 0.221235
v 1.009037 1.200000 3.184612
v 1.009037 1.200000 0.353291
v 1.009037 0.000000 2.833842
v 1.009037 0.000000 0.002522
v 0.977816 1.200000 3.176991
v 0.977816 1.200000 0.360912
v 0.977816 0.000000 2.826222
v 0.977816 0.000000 0.010142
v 0.947962 1.200000 3.164439
v 0.947962 1.200000 0.373465
v 0.947962 0.000000 2.813669
v 0.947962 0.000000 0.022695
v 0.920416 1.200000 3.147436
v 0.920416 1.200000 0.390467
v 0.920416 0.000000 2.796666
v 0.920416 0.000000 0.039697
v 0.825373 0.900000 0.634119
v 0.825373 0.600000 0.546427
v 0.825373 0.300000 0.458734
v 0.619390 0.900000 0.783925
v 0.619390 0.600000 0.696233
v 0.619390 0.300000 0.608541
v 0.413405 0.900000 0.933732
v 0.413405 0.600000 0.846039
v 0.413405 0.300000 0.758347
v 0.207422 1.200000 2.366673
v 0.207422 1.200000 1.171231
v 0.207422 0.000000 2.015903
v 0.207422 0.000000 0.820461
v 0.205833 1.200000 2.365361
v 0.205833 1.200000 1.172542
v 0.205833 0.000000 2.014592
v 0.205833 0.000000 0.821772
v 0.205458 0.900000 2.275262
v 0.205349 0.600000 2.187633
v 0.205240 0.900000 1.087130
v 0.205240 0.300000 2.100004
v 0.204915 0.600000 0.999247
v 0.204589 0.300000 0.911364
v 0.204369 1.200000 2.363816
v 0.204369 1.200000 1.174087
v 0.204369 0.000000 2.013046
v 0.204369 0.000000 0.823318
v 0.203494 0.900000 2.271543
v 0.203494 0.900000 1.090975
v 0.203277 0.600000 2.183978
v 0.203277 0.600000 1.003156
v 0.203070 1.200000 2.362059
v 0.203070 1.200000 1.175845
v 0.203070 0.000000 2.011289
v 0.203070 0.000000 0.825075
v 0.203059 0.300000 2.096412
v 0.203059 0.300000 0.915337
v 0.201973 1.200000 2.360124
v 0.201973 1.200000 1.177779
v 0.201973 0.000000 2.009354
v 0.201973 0.000000 0.827010
v 0.201747 0.900000 1.094821
v 0.201638 0.600000 1.007065
v 0.201530 0.900000 2.267824
v 0.201530 0.300000 0.919309
v 0.201204 0.600000 2.180322
v 0.201105 1.200000 2.358055
v 0.201105 1.200000 1.179849
v 0.201105 0.000000 2.007285
v 0.201105 0.000000 0.829079
v 0.200878 0.300000 2.092820
v 0.200486 1.200000 2.355901
v 0.200486 1.200000 1.182003
v 0.200486 0.000000 2.005131
v 0.200486 0.000000 0.831233
v 0.200120 1.200000 2.353714
v 0.200120 1.200000 1.184189
v 0.200120 0.000000 2.002944
v 0.200120 0.000000 0.833420
v 0.200001 1.200000 2.351545
v 0.200001 1.200000 1.186359
v 0.200001 0.000000 2.000775
v 0.200001 0.000000 0.835589
v 0.096482 1.200000 2.548211
v 0.096482 1.200000 0.989692
v 0.096482 0.800000 2.431288
v 0.096482 0.800000 0.872769
v 0.096482 0.400000 2.314364
v 0.096482 0.400000 0.755846
v 0.096482 0.000000 2.197441
v 0.096482 0.000000 0.638922
v 0.075832 1.200000 2.531164
v 0.075832 1.200000 1.006740
v 0.075832 0.800000 2.414240
v 0.075832 0.800000 0.889816
v 0.075832 0.400000 2.297317
v 0.075832 0.400000 0.772893
v 0.075832 0.000000 2.180394
v 0.075832 0.000000 0.655970
v 0.056791 1.200000 2.511072
v 0.056791 1.200000 1.026832
v 0.056791 0.800000 2.394149
v 0.056791 0.800000 0.909908
v 0.056791 0.400000 2.277225
v 0.056791 0.400000 0.792985
v 0.056791 0.000000 2.160302
v 0.056791 0.000000 0.676062
v 0.039902 1.200000 2.488228
v 0.039902 1.200000 1.049675
v 0.039902 0.800000 2.371305
v 0.039902 0.800000 0.932752
v 0.039902 0.400000 2.254382
v 0.039902 0.400000 0.815828
v 0.039902 0.000000 2.137459
v 0.039902 0.000000 0.698905
v 0.025638 1.200000 2.463075
v 0.025638 1.200000 1.074829
v 0.025638 0.800000 2.346151
v 0.025638 0.800000 0.957905
v 0.025638 0.400000 2.229228
v 0.025638 0.400000 0.840982
v 0.025638 0.000000 2.112305
v 0.025638 0.000000 0.724059
v 0.014365 1.200000 2.436174
v 0.014365 1.200000 1.101729
v 0.014365 0.800000 2.319251
v 0.014365 0.800000 0.984806
v 0.014365 0.400000 2.202328
v 0.014365 0.400000 0.867882
v 0.014365 0.000000 2.085405
v 0.014365 0.000000 0.750959
v 0.006310 1.200000 2.408173
v 0.006310 1.200000 1.129731
v 0.006310 0.800000 2.291250
v 0.006310 0.800000 1.012807
v 0.006310 0.400000 2.174326
v 0.006310 0.400000 0.895884
v 0.006310 0.000000 2.057403
v 0.006310 0.000000 0.778961
v 0.001548 1.200000 2.379745
v 0.001548 1.200000 1.158159
v 0.001548 0.800000 2.262821
v 0.001548 0.800000 1.041235
v 0.001548 0.400000 2.145898
v 0.001548 0.400000 0.924312
v 0.001548 0.000000 2.028975
v 0.001548 0.000000 0.807389
v 0.000000 1.200000 2.351545
v 0.000000 1.200000 1.186359
v 0.000000 0.800000 2.234621
v 0.000000 0.800000 1.069435
v 0.000000 0.400000 2.117698
v 0.000000 0.400000 0.952512
v 0.000000 0.000000 2.000775
v 0.000000 0.000000 0.835589

vn 0.516426 0.856123 0.018898
vn 0.598219 0.801258 -0.010940
vn 0.999592 -0.008017 0.027427
vn 0.999592 0.008017 -0.027427
vn 0.999592 -0.008017 0.027427
vn 0.999700 0.006872 -0.023508
vn 0.999412 -0.009620 0.032911
vn 0.513057 -0.858303 0.009382
vn 0.602524 -0.797796 -0.022049
vn 0.449460 0.891399 0.058257
vn 0.439953 0.897106 -0.040521
vn 0.993401 -0.032179 0.110086
vn 0.993401 0.032179 -0.110086
vn 0.993401 -0.032179 0.110086
vn 0.993401 0.032179 -0.110086
vn 0.993401 -0.032179 0.110086
vn 0.439953 -0.897106 0.040521
vn 0.449460 -0.891399 -0.058257
vn 0.601012 0.785351 0.148352
vn 0.570020 0.813132 -0.117871
vn 0.973219 -0.064496 0.220645
vn 0.973219 0.064496 -0.220645
vn 0.973219 -0.064497 0.220645
vn 0.973219 0.064496 -0.220645
vn 0.973219 -0.064496 0.220645
vn 0.570020 -0.813132 0.117871
vn 0.601012 -0.785351 -0.148353
vn 0.814145 0.494449 0.304447
vn 0.755225 0.606185 -0.249351
vn 0.938890 -0.096576 0.330392
vn 0.938890 0.096576 -0.330392
vn 0.938890 -0.096577 0.330392
vn 0.938890 0.096576 -0.330392
vn 0.938890 -0.096576 0.330392
vn 0.755224 -0.606185 0.249351
vn 0.814145 -0.494448 -0.304447
vn 0.782122 0.474988 0.403326
vn 0.708935 0.622975 -0.330626
vn 0.890364 -0.127728 0.436964
vn 0.890364 0.127728 -0.436964
vn 0.890364 -0.127728 0.436964
vn 0.890364 0.127728 -0.436963
vn 0.890364 -0.127728 0.436964
vn 0.708935 -0.622975 0.330625
vn 0.782121 -0.474988 -0.403327
vn 0.736328 0.456137 0.499760
vn 0.653589 0.638652 -0.406135
vn 0.828140 -0.157264 0.538007
vn 0.828140 0.157264 -0.538008
vn 0.828140 -0.157264 0.538007
vn 0.828140 0.157264 -0.538008
vn 0.828140 -0.157264 0.538007
vn 0.653589 -0.638652 0.406135
vn 0.736328 -0.456137 -0.499760
vn 0.677010 0.438385 0.591165
vn 0.590313 0.652927 -0.474570
vn 0.753318 -0.184517 0.631241
vn 0.753320 0.184516 -0.631239
vn 0.753320 -0.184517 0.631239
vn 0.753320 0.184516 -0.631239
vn 0.753321 -0.184516 0.631238
vn 0.590314 -0.652926 0.474570
vn 0.677011 -0.438385 -0.591164
vn 0.605163 0.422212 0.674918
vn 0.520466 0.665563 -0.534922
vn 0.667563 -0.208898 0.714648
vn 0.667563 0.208897 -0.714648
vn 0.667561 -0.208898 0.714649
vn 0.667563 0.208897 -0.714648
vn 0.667561 -0.208898 0.714649
vn 0.520466 -0.665563 0.534922
vn 0.605161 -0.422211 -0.674920
vn 0.371931 0.794696 0.479714
vn 0.386754 0.782206 -0.488441
vn 0.597006 -0.225082 0.770015
vn 0.597004 0.225082 -0.770016
vn 0.601864 -0.224061 0.766522
vn 0.601862 0.224061 -0.766524
vn 0.601862 -0.224061 0.766524
vn 0.386753 -0.782207 0.488441
vn 0.371930 -0.794696 -0.479715
vn -0.843386 0.501047 -0.194043
vn -0.859435 0.492763 0.136223
vn -0.928640 -0.340550 -0.147151
vn -0.779970 -0.619423 0.089223
vn -0.689155 0.720593 -0.076228
vn -0.712028 0.697720 0.078761
vn -0.712028 -0.697720 -0.078761
vn -0.690250 -0.719532 0.076350
vn -0.644841 0.739621 -0.192718
vn -0.555109 0.822195 0.125891
vn -0.555109 -0.822195 -0.125891
vn -0.523486 -0.843723 0.118717
vn -0.946032 -0.092396 0.310624
vn -0.631203 0.743090 -0.222262
vn -0.696508 0.674329 0.245270
vn -0.814925 -0.498437 -0.295734
vn -0.719058 -0.621904 0.310146
vn -0.916779 -0.112946 0.383093
vn -0.941371 -0.092041 0.324575
vn -0.963262 0.072738 -0.258527
vn -0.918516 0.110551 -0.379613
vn -0.944776 0.093871 -0.313985
vn -0.702690 0.627026 -0.336252
vn -0.783780 0.479834 0.394270
vn -0.672250 -0.662729 -0.329955
vn -0.590915 -0.752798 0.290024
vn -0.916711 0.109766 -0.384178
vn -0.860625 -0.145214 0.488095
vn -0.542586 0.762514 -0.352381
vn -0.755503 0.467525 0.458951
vn -0.770048 -0.474114 -0.426898
vn -0.647268 -0.641856 0.411175
vn -0.916591 0.111416 -0.383989
vn -0.860911 -0.143505 0.488096
vn -0.916097 0.115090 -0.384083
vn -0.871511 -0.135384 0.471317
vn -0.384984 0.864719 -0.322564
vn -0.457394 0.802439 0.383253
vn -0.457923 -0.801926 -0.383695
vn -0.384977 -0.864720 0.322571
vn -0.814114 0.161440 -0.557814
vn -0.859690 0.142426 -0.490558
vn -0.823129 0.161963 -0.544267
vn -0.779501 -0.178396 0.600461
vn -0.858271 -0.144369 0.492472
vn -0.813717 -0.160647 0.558620
vn -0.427822 0.779198 -0.458060
vn -0.529137 0.631668 0.566577
vn -0.529801 -0.630475 -0.567285
vn -0.427818 -0.779198 0.458063
vn -0.396117 0.814225 -0.424415
vn -0.357665 0.884555 0.299396
vn -0.466343 -0.690508 -0.552922
vn -0.338900 -0.881482 0.328841
vn -0.572397 0.230060 -0.787041
vn -0.572396 0.230059 -0.787042
vn -0.572397 0.230058 -0.787042
vn -0.572396 0.230060 -0.787043
vn -0.572396 0.230059 -0.787042
vn -0.572396 0.230059 -0.787042
vn -0.572394 0.230060 -0.787044
vn -0.572394 0.230060 -0.787044
vn -0.572394 0.230059 -0.787044
vn 0.300766 0.841775 0.448281
vn 0.200918 0.935252 -0.291435
vn 0.294677 -0.859164 0.418334
vn 0.360750 -0.768146 -0.528972
vn 0.399741 0.393398 0.827916
vn 0.349226 0.687325 -0.636887
vn 0.349226 -0.687326 0.636887
vn 0.399742 -0.393398 -0.827915
vn 0.266271 0.382673 0.884681
vn 0.243189 0.695624 -0.675992
vn 0.243189 -0.695624 0.675993
vn 0.266271 -0.382673 -0.884681
vn 0.132348 0.058127 0.989498
vn 0.156354 0.536041 -0.829587
vn 0.156355 -0.536041 0.829586
vn 0.132347 -0.058127 -0.989498
vn -0.418956 0.571752 -0.705390
vn -0.461241 0.346194 0.816949
vn -0.510541 -0.191234 -0.838319
vn -0.360414 -0.715956 0.597920
vn -0.300757 0.692683 -0.655542
vn -0.361559 0.613749 0.701845
vn -0.361538 -0.613747 -0.701858
vn -0.282782 -0.694346 0.661754
vn -0.358482 -0.262319 0.895924
vn -0.340490 -0.264136 0.902385
vn -0.352380 -0.261829 0.898484
vn -0.395131 0.256882 -0.881977
vn -0.341570 0.263550 -0.902148
vn -0.359485 0.262321 -0.895521
vn -0.229282 0.697162 -0.679261
vn -0.283549 0.384743 0.878392
vn -0.306494 -0.386240 -0.869989
vn -0.210914 -0.698094 0.684237
vn -0.332565 0.263933 -0.905395
vn -0.271356 -0.270705 0.923626
vn -0.338633 0.263706 -0.903209
vn -0.265307 -0.270799 0.925354
vn -0.332449 0.265369 -0.905018
vn -0.271591 -0.269259 0.923979
vn -0.095332 0.800216 -0.592087
vn -0.189427 0.380666 0.905102
vn -0.243766 0.271703 -0.930997
vn -0.213160 -0.382689 -0.898950
vn -0.095335 -0.800216 0.592085
vn -0.262919 0.270362 -0.926163
vn -0.250670 0.272354 -0.928971
vn -0.205633 -0.275430 0.939070
vn -0.262161 -0.270897 0.926221
vn -0.243216 -0.271629 0.931163
vn 0.015809 0.917969 0.396338
vn -0.089354 0.800869 -0.592136
vn -0.118445 0.482464 0.867871
vn 0.021168 0.847290 -0.530709
vn 0.021167 -0.847290 0.530709
vn -0.063457 -0.477852 -0.876145
vn -0.089374 -0.800745 0.592300
vn 0.015808 -0.917969 -0.396338
vn -0.012943 0.873327 0.486962
vn 0.099576 0.677113 -0.729111
vn 0.133570 0.445181 0.885422
vn -0.020606 0.921735 -0.387272
vn -0.020605 -0.921735 0.387272
vn 0.133597 -0.444855 -0.885582
vn 0.053220 -0.676379 0.734629
vn -0.012942 -0.873327 -0.486962
vn 0.235673 0.273638 -0.932513
vn 0.268408 0.270129 -0.924655
vn 0.272979 -0.269628 0.923463
vn 0.213197 0.273487 -0.937951
vn 0.268931 -0.270565 0.924376
vn 0.095314 0.800304 -0.591970
vn 0.201303 0.381779 0.902065
vn 0.221102 -0.274258 0.935893
vn 0.177435 -0.379345 -0.908083
vn 0.095392 -0.799951 0.592435
vn 0.295889 0.268764 -0.916633
vn 0.308378 -0.266132 0.913278
vn 0.265317 0.270226 -0.925519
vn 0.338458 -0.264295 0.903103
vn 0.246852 0.271026 -0.930381
vn 0.356364 -0.263002 0.896568
vn 0.220064 0.697738 -0.681714
vn 0.295100 0.385601 0.874201
vn 0.272033 -0.383682 -0.882489
vn 0.238530 -0.696368 0.676887
vn 0.366778 -0.260045 0.893225
vn 0.335556 -0.264444 0.904141
vn 0.330571 0.265075 -0.905791
vn 0.387943 -0.259219 0.884481
vn 0.334510 0.264072 -0.904638
vn 0.380087 0.258878 -0.887984
vn 0.291723 0.693625 -0.658621
vn 0.361517 0.613867 0.701764
vn 0.361663 -0.613398 -0.702099
vn 0.309779 -0.691529 0.652553
vn 0.323343 0.720385 -0.613592
vn 0.501276 0.190644 0.844025
vn 0.497649 -0.348714 -0.794194
vn 0.427294 -0.570250 0.701594
vn -0.132348 0.058127 0.989498
vn -0.156354 0.536041 -0.829587
vn -0.156355 -0.536041 0.829586
vn -0.132347 -0.058127 -0.989498
vn -0.266271 0.382673 0.884681
vn -0.243189 0.695624 -0.675992
vn -0.243189 -0.695624 0.675993
vn -0.266271 -0.382673 -0.884681
vn -0.399741 0.393398 0.827916
vn -0.349226 0.687325 -0.636887
vn -0.349226 -0.687326 0.636887
vn -0.399742 -0.393398 -0.827915
vn -0.360750 0.768146 0.528972
vn -0.252105 0.897928 -0.360789
vn -0.200918 -0.935252 0.291435
vn -0.300766 -0.841774 -0.448280
vn 0.572396 -0.230060 0.787042
vn 0.572395 -0.230059 0.787043
vn 0.572395 -0.230058 0.787043
vn 0.572395 -0.230060 0.787043
vn 0.572395 -0.230059 0.787043
vn 0.572395 -0.230058 0.787043
vn 0.572394 -0.230060 0.787043
vn 0.572395 -0.230059 0.787043
vn 0.572395 -0.230059 0.787043
vn 0.346265 0.881830 -0.320119
vn 0.488565 0.698037 0.523497
vn 0.350855 -0.882823 -0.312288
vn 0.374447 -0.814079 0.443919
vn 0.427618 0.779438 -0.457842
vn 0.529303 0.631370 0.566754
vn 0.529303 -0.631370 -0.566754
vn 0.428427 -0.778478 0.458717
vn 0.804419 0.169640 -0.569326
vn 0.863607 0.141070 -0.484026
vn 0.833529 -0.153161 0.530821
vn 0.792900 0.168577 -0.585570
vn 0.864617 -0.141857 0.481990
vn 0.803364 -0.168870 0.571042
vn 0.384807 0.864854 -0.322416
vn 0.457526 0.802310 0.383364
vn 0.457526 -0.802310 -0.383364
vn 0.385507 -0.864318 0.323016
vn 0.877833 0.137047 -0.458942
vn 0.899761 -0.120175 0.419508
vn 0.861100 0.141885 -0.488236
vn 0.916349 -0.113095 0.384077
vn 0.656549 0.640244 -0.398786
vn 0.762866 0.471176 0.442752
vn 0.748084 -0.463252 -0.475151
vn 0.543374 -0.761723 0.352879
vn 0.850812 0.145037 -0.505057
vn 0.929404 -0.106144 0.353472
vn 0.590352 0.753341 -0.289761
vn 0.789741 0.483210 0.377911
vn 0.777690 -0.475782 -0.410890
vn 0.711682 -0.623587 0.323493
vn 0.947158 -0.086749 0.308815
vn 0.914343 -0.113994 0.388565
vn 0.934865 0.101407 -0.340213
vn 0.957205 -0.083261 0.277175
vn 0.912826 0.113680 -0.392206
vn 0.726872 0.619417 -0.296615
vn 0.696277 0.674654 0.245030
vn 0.697314 -0.673451 -0.245392
vn 0.631830 -0.742532 0.222343
vn 0.951805 0.084268 -0.294899
vn 0.522907 0.844117 -0.118468
vn 0.554939 0.822335 0.125734
vn 0.555693 -0.821799 -0.125903
vn 0.651556 -0.736691 0.181001
vn 0.689397 0.720343 -0.076408
vn 0.711775 0.697963 0.078892
vn 0.712834 -0.696868 -0.079007
vn 0.689397 -0.720343 0.076407
vn 0.852705 0.493845 -0.170326
vn 0.857366 0.490430 0.156209
vn 0.931958 -0.352425 -0.085150
vn 0.757626 -0.634933 0.151209
vn -0.371926 0.794696 0.479719
vn -0.386746 0.782207 -0.488446
vn -0.601853 -0.224063 0.766530
vn -0.601852 0.224063 -0.766531
vn -0.596995 -0.225084 0.770022
vn -0.596995 0.225084 -0.770022
vn -0.386745 -0.782207 0.488446
vn -0.371925 -0.794696 -0.479719
vn -0.605153 0.422210 0.674928
vn -0.520462 0.665564 -0.534925
vn -0.667554 -0.208900 0.714656
vn -0.667554 0.208900 -0.714655
vn -0.667553 -0.208900 0.714656
vn -0.667554 0.208900 -0.714655
vn -0.520461 -0.665564 0.534925
vn -0.605152 -0.422210 -0.674930
vn -0.677010 0.438385 0.591165
vn -0.590313 0.652927 -0.474570
vn -0.753319 -0.184516 0.631240
vn -0.753320 0.184516 -0.631239
vn -0.753321 -0.184516 0.631238
vn -0.753320 0.184516 -0.631239
vn -0.590314 -0.652927 0.474570
vn -0.677011 -0.438385 -0.591164
vn -0.736332 0.456138 0.499752
vn -0.653598 0.638650 -0.406123
vn -0.828149 -0.157260 0.537995
vn -0.828148 0.157261 -0.537996
vn -0.828148 -0.157261 0.537996
vn -0.828148 0.157261 -0.537996
vn -0.653598 -0.638650 0.406123
vn -0.736332 -0.456138 -0.499752
vn -0.782128 0.474991 0.403311
vn -0.708939 0.622973 -0.330620
vn -0.890371 -0.127724 0.436951
vn -0.890371 0.127724 -0.436951
vn -0.890371 -0.127724 0.436951
vn -0.890371 0.127724 -0.436951
vn -0.708940 -0.622973 0.330619
vn -0.782128 -0.474990 -0.403311
vn -0.814145 0.494448 0.304447
vn -0.755225 0.606185 -0.249351
vn -0.938890 -0.096576 0.330393
vn -0.938890 0.096576 -0.330392
vn -0.938890 -0.096576 0.330393
vn -0.938890 0.096576 -0.330392
vn -0.755224 -0.606185 0.249351
vn -0.814145 -0.494448 -0.304447
vn -0.601011 0.785349 0.148366
vn -0.570012 0.813134 -0.117895
vn -0.973212 -0.064506 0.220677
vn -0.973212 0.064506 -0.220677
vn -0.973212 -0.064506 0.220677
vn -0.973212 0.064506 -0.220677
vn -0.570012 -0.813134 0.117895
vn -0.601012 -0.785349 -0.148366
vn -0.449459 0.891398 0.058272
vn -0.439952 0.897106 -0.040520
vn -0.993399 -0.032184 0.110102
vn -0.993399 0.032184 -0.110102
vn -0.993399 -0.032184 0.110102
vn -0.993399 0.032184 -0.110102
vn -0.439952 -0.897106 0.040520
vn -0.449459 -0.891398 -0.058272
vn -0.516425 0.856124 0.018886
vn -0.598220 0.801257 -0.010933
vn -0.999592 -0.008012 0.027410
vn -0.999592 0.008012 -0.027410
vn -0.999592 -0.008012 0.027410
vn -0.999592 0.008012 -0.027410
vn -0.513058 -0.858303 0.009377
vn -0.602523 -0.797797 -0.022035

f 259//259 328//328 330//330
f 257//257 326//326 328//328
f 324//324 326//326 257//257
f 259//259 257//257 328//328
f 203//203 207//207 199//199
f 145//145 147//147 75//75
f 80//80 79//79 147//147
f 147//147 79//79 77//77
f 145//145 75//75 73//73
f 1//1 3//3 2//2
f 4//4 3//3 5//5
f 6//6 5//5 7//7
f 9//9 6//6 8//8
f 4//4 5//5 6//6
f 148//148 78//78 81//81
f 148//148 76//76 78//78
f 74//74 76//76 146//146
f 148//148 146//146 76//76
f 198//198 202//202 210//210
f 258//258 260//260 329//329
f 331//331 329//329 260//260
f 258//258 327//327 325//325
f 390//390 388//388 389//389
f 394//394 392//392 393//393
f 392//392 390//390 391//391
f 121//121 27//27 18//18
f 135//135 36//36 27//27
f 63//63 54//54 135//135
f 45//45 135//135 54//54
f 135//135 45//45 36//36
f 135//135 72//72 63//63
f 89//89 9//9 85//85
f 18//18 9//9 93//93
f 8//8 85//85 9//9
f 18//18 98//98 107//107
f 9//9 89//89 93//93
f 18//18 93//93 98//98
f 113//113 18//18 107//107
f 135//135 81//81 72//72
f 152//152 148//148 202//202
f 156//156 152//152 202//202
f 148//148 201//201 202//202
f 201//201 148//148 189//189
f 202//202 160//160 156//156
f 178//178 189//189 148//148
f 18//18 113//113 121//121
f 131//131 27//27 121//121
f 148//148 168//168 178//178
f 164//164 81//81 135//135
f 148//148 164//164 168//168
f 131//131 135//135 27//27
f 81//81 164//164 148//148
f 92//92 8//8 17//17
f 85//85 8//8 84//84
f 84//84 8//8 88//88
f 8//8 92//92 88//88
f 17//17 106//106 97//97
f 17//17 97//97 92//92
f 120//120 17//17 26//26
f 44//44 134//134 35//35
f 26//26 35//35 134//134
f 134//134 53//53 62//62
f 62//62 71//71 134//134
f 134//134 44//44 53//53
f 71//71 80//80 134//134
f 112//112 106//106 17//17
f 130//130 26//26 134//134
f 17//17 120//120 112//112
f 80//80 147//147 163//163
f 147//147 177//177 167//167
f 147//147 167//167 163//163
f 134//134 80//80 163//163
f 155//155 199//199 151//151
f 147//147 151//151 199//199
f 200//200 147//147 199//199
f 199//199 155//155 159//159
f 199//199 207//207 200//200
f 188//188 147//147 200//200
f 188//188 177//177 147//147
f 120//120 26//26 130//130
f 210//210 202//202 201//201
f 220//220 260//260 209//209
f 210//210 209//209 260//260
f 210//210 256//256 252//252
f 256//256 210//210 260//260
f 252//252 248//248 210//210
f 230//230 260//260 220//220
f 260//260 230//230 240//240
f 260//260 240//240 244//244
f 273//273 277//277 379//379
f 387//387 287//287 295//295
f 379//379 277//277 287//287
f 331//331 244//244 273//273
f 244//244 331//331 260//260
f 273//273 347//347 339//339
f 355//355 347//347 273//273
f 273//273 371//371 363//363
f 371//371 273//273 379//379
f 363//363 355//355 273//273
f 287//287 387//387 379//379
f 387//387 301//301 310//310
f 387//387 310//310 315//315
f 319//319 395//395 315//315
f 387//387 315//315 395//395
f 394//394 395//395 323//323
f 319//319 323//323 395//395
f 301//301 387//387 295//295
f 331//331 273//273 339//339
f 259//259 243//243 239//239
f 259//259 239//239 229//229
f 386//386 294//294 286//286
f 272//272 243//243 330//330
f 378//378 276//276 272//272
f 330//330 243//243 259//259
f 208//208 207//207 259//259
f 208//208 200//200 207//207
f 219//219 208//208 259//259
f 255//255 207//207 251//251
f 251//251 207//207 247//247
f 259//259 207//207 255//255
f 259//259 229//229 219//219
f 378//378 286//286 276//276
f 386//386 314//314 309//309
f 386//386 309//309 300//300
f 318//318 394//394 322//322
f 323//323 322//322 394//394
f 318//318 314//314 394//394
f 386//386 394//394 314//314
f 286//286 378//378 386//386
f 272//272 330//330 338//338
f 272//272 338//338 346//346
f 272//272 354//354 362//362
f 272//272 346//346 354//354
f 272//272 362//362 370//370
f 272//272 370//370 378//378
f 300//300 294//294 386//386
f 209//209 210//210 201//201
f 119//119 11//11 20//20
f 133//133 20//20 29//29
f 56//56 133//133 47//47
f 38//38 47//47 133//133
f 133//133 29//29 38//38
f 133//133 56//56 65//65
f 87//87 83//83 2//2
f 11//11 91//91 2//2
f 1//1 2//2 83//83
f 11//11 105//105 96//96
f 2//2 91//91 87//87
f 11//11 96//96 91//91
f 111//111 105//105 11//11
f 133//133 65//65 74//74
f 150//150 198//198 146//146
f 154//154 198//198 150//150
f 146//146 198//198 197//197
f 197//197 186//186 146//146
f 198//198 154//154 158//158
f 176//176 146//146 186//186
f 11//11 119//119 111//111
f 129//129 119//119 20//20
f 146//146 176//176 166//166
f 162//162 133//133 74//74
f 146//146 166//166 162//162
f 129//129 20//20 133//133
f 74//74 146//146 162//162
f 90//90 10//10 1//1
f 83//83 82//82 1//1
f 82//82 86//86 1//1
f 1//1 86//86 90//90
f 10//10 95//95 104//104
f 10//10 90//90 95//95
f 118//118 19//19 10//10
f 37//37 28//28 132//132
f 19//19 132//132 28//28
f 132//132 55//55 46//46
f 55//55 132//132 64//64
f 132//132 46//46 37//37
f 64//64 132//132 73//73
f 110//110 10//10 104//104
f 128//128 132//132 19//19
f 10//10 110//110 118//118
f 73//73 161//161 145//145
f 145//145 165//165 175//175
f 145//145 161//161 165//165
f 132//132 161//161 73//73
f 153//153 149//149 195//195
f 145//145 195//195 149//149
f 196//196 195//195 145//145
f 195//195 157//157 153//153
f 195//195 196//196 203//203
f 185//185 196//196 145//145
f 185//185 145//145 175//175
f 118//118 128//128 19//19
f 206//206 197//197 198//198
f 217//217 205//205 258//258
f 206//206 258//258 205//205
f 206//206 250//250 254//254
f 254//254 258//258 206//206
f 250//250 206//206 246//246
f 228//228 217//217 258//258
f 258//258 238//238 228//228
f 258//258 242//242 238//238
f 271//271 373//373 275//275
f 381//381 293//293 285//285
f 373//373 285//285 275//275
f 325//325 271//271 242//242
f 242//242 258//258 325//325
f 271//271 333//333 341//341
f 349//349 271//271 341//341
f 271//271 357//357 365//365
f 365//365 373//373 271//271
f 357//357 271//271 349//349
f 285//285 373//373 381//381
f 381//381 308//308 299//299
f 381//381 313//313 308//308
f 317//317 313//313 389//389
f 381//381 389//389 313//313
f 388//388 321//321 389//389
f 317//317 389//389 321//321
f 299//299 293//293 381//381
f 325//325 333//333 271//271
f 257//257 237//237 241//241
f 257//257 227//227 237//237
f 380//380 284//284 292//292
f 270//270 324//324 241//241
f 372//372 270//270 274//274
f 324//324 257//257 241//241
f 204//204 257//257 203//203
f 204//204 203//203 196//196
f 216//216 257//257 204//204
f 253//253 249//249 203//203
f 249//249 245//245 203//203
f 257//257 253//253 203//203
f 257//257 216//216 227//227
f 372//372 274//274 284//284
f 380//380 307//307 312//312
f 380//380 298//298 307//307
f 316//316 320//320 388//388
f 321//321 388//388 320//320
f 316//316 388//388 312//312
f 380//380 312//312 388//388
f 284//284 380//380 372//372
f 270//270 332//332 324//324
f 270//270 340//340 332//332
f 270//270 356//356 348//348
f 270//270 348//348 340//340
f 270//270 364//364 356//356
f 270//270 372//372 364//364
f 298//298 380//380 292//292
f 205//205 197//197 206//206
f 253//253 257//257 255//255
f 245//245 249//249 247//247
f 203//203 245//245 207//207
f 249//249 253//253 251//251
f 342//342 344//344 336//336
f 350//350 352//352 344//344
f 358//358 360//360 352//352
f 366//366 368//368 360//360
f 374//374 376//376 368//368
f 382//382 384//384 376//376
f 338//338 330//330 336//336
f 354//354 346//346 352//352
f 346//346 338//338 344//344
f 336//336 328//328 334//334
f 362//362 354//354 360//360
f 378//378 370//370 376//376
f 394//394 386//386 392//392
f 386//386 378//378 384//384
f 360//360 368//368 362//362
f 392//392 384//384 390//390
f 334//334 326//326 332//332
f 350//350 342//342 348//348
f 342//342 334//334 340//340
f 358//358 350//350 356//356
f 374//374 366//366 372//372
f 390//390 382//382 388//388
f 382//382 374//374 380//380
f 356//356 364//364 358//358
f 157//157 195//195 199//199
f 149//149 153//153 155//155
f 145//145 149//149 151//151
f 153//153 157//157 159//159
f 59//59 57//57 68//68
f 50//50 48//48 59//59
f 41//41 39//39 50//50
f 32//32 30//30 41//41
f 23//23 21//21 32//32
f 14//14 12//12 23//23
f 61//61 59//59 70//70
f 52//52 50//50 61//61
f 43//43 41//41 52//52
f 34//34 32//32 43//43
f 25//25 23//23 34//34
f 16//16 14//14 25//25
f 64//64 73//73 75//75
f 55//55 64//64 66//66
f 46//46 55//55 57//57
f 77//77 68//68 66//66
f 68//68 77//77 79//79
f 48//48 39//39 37//37
f 28//28 37//37 39//39
f 10//10 19//19 21//21
f 1//1 10//10 12//12
f 19//19 28//28 30//30
f 3//3 12//12 14//14
f 70//70 79//79 80//80
f 52//52 61//61 62//62
f 43//43 52//52 53//53
f 61//61 70//70 71//71
f 44//44 35//35 34//34
f 25//25 34//34 35//35
f 5//5 14//14 16//16
f 16//16 25//25 26//26
f 17//17 8//8 7//7
f 24//24 22//22 15//15
f 33//33 31//31 24//24
f 42//42 40//40 33//33
f 51//51 49//49 42//42
f 60//60 58//58 51//51
f 69//69 67//67 60//60
f 11//11 2//2 4//4
f 29//29 20//20 22//22
f 20//20 11//11 13//13
f 13//13 4//4 6//6
f 38//38 29//29 31//31
f 56//56 47//47 49//49
f 74//74 65//65 67//67
f 65//65 56//56 58//58
f 40//40 49//49 47//47
f 76//76 67//67 69//69
f 15//15 6//6 9//9
f 33//33 24//24 27//27
f 24//24 15//15 18//18
f 42//42 33//33 36//36
f 60//60 51//51 54//54
f 78//78 69//69 72//72
f 69//69 60//60 63//63
f 45//45 54//54 51//51
f 150//150 146//146 148//148
f 158//158 154//154 156//156
f 198//198 158//158 160//160
f 154//154 150//150 152//152
f 246//246 206//206 248//248
f 254//254 250//250 256//256
f 258//258 254//254 260//260
f 250//250 246//246 252//252
f 345//345 343//343 335//335
f 353//353 351//351 343//343
f 361//361 359//359 351//351
f 369//369 367//367 359//359
f 377//377 375//375 367//367
f 385//385 383//383 375//375
f 333//333 325//325 335//335
f 349//349 341//341 351//351
f 341//341 333//333 343//343
f 335//335 327//327 337//337
f 357//357 349//349 359//359
f 373//373 365//365 375//375
f 389//389 381//381 391//391
f 381//381 373//373 383//383
f 359//359 367//367 357//357
f 391//391 383//383 393//393
f 337//337 329//329 339//339
f 353//353 345//345 355//355
f 345//345 337//337 347//347
f 361//361 353//353 363//363
f 377//377 369//369 379//379
f 393//393 385//385 395//395
f 385//385 377//377 387//387
f 363//363 371//371 361//361
f 115//115 109//109 94//94
f 117//117 115//115 99//99
f 126//126 125//125 109//109
f 127//127 126//126 115//115
f 94//94 89//89 85//85
f 94//94 93//93 89//89
f 109//109 107//107 98//98
f 93//93 94//94 98//98
f 99//99 94//94 85//85
f 100//100 83//83 87//87
f 100//100 87//87 91//91
f 91//91 96//96 100//100
f 100//100 96//96 105//105
f 83//83 100//100 99//99
f 99//99 85//85 83//83
f 109//109 113//113 107//107
f 121//121 113//113 125//125
f 135//135 125//125 126//126
f 125//125 131//131 121//121
f 125//125 135//135 131//131
f 133//133 135//135 126//126
f 105//105 111//111 117//117
f 127//127 117//117 111//111
f 111//111 119//119 127//127
f 129//129 127//127 119//119
f 127//127 129//129 133//133
f 133//133 126//126 127//127
f 113//113 109//109 125//125
f 133//133 162//162 135//135
f 182//182 180//180 169//169
f 184//184 182//182 170//170
f 193//193 192//192 180//180
f 194//194 193//193 182//182
f 169//169 168//168 164//164
f 180//180 178//178 168//168
f 170//170 169//169 164//164
f 171//171 162//162 166//166
f 176//176 184//184 171//171
f 162//162 171//171 170//170
f 170//170 164//164 162//162
f 192//192 189//189 178//178
f 201//201 192//192 193//193
f 192//192 201//201 189//189
f 197//197 201//201 193//193
f 184//184 176//176 186//186
f 186//186 197//197 194//194
f 193//193 194//194 197//197
f 197//197 205//205 209//209
f 224//224 226//226 215//215
f 222//222 224//224 213//213
f 232//232 234//234 224//224
f 231//231 232//232 222//222
f 218//218 220//220 209//209
f 220//220 218//218 230//230
f 215//215 218//218 209//209
f 213//213 205//205 217//217
f 213//213 217//217 222//222
f 205//205 213//213 215//215
f 215//215 209//209 205//205
f 234//234 240//240 226//226
f 232//232 244//244 234//234
f 240//240 234//234 244//244
f 238//238 242//242 231//231
f 232//232 231//231 242//242
f 222//222 228//228 231//231
f 242//242 244//244 232//232
f 265//265 266//266 262//262
f 264//264 265//265 261//261
f 268//268 269//269 265//265
f 267//267 268//268 264//264
f 263//263 266//266 244//244
f 273//273 244//244 266//266
f 262//262 263//263 244//244
f 261//261 262//262 242//242
f 244//244 242//242 262//262
f 264//264 261//261 242//242
f 268//268 273//273 269//269
f 266//266 269//269 273//273
f 271//271 273//273 268//268
f 271//271 267//267 264//264
f 268//268 267//267 271//271
f 242//242 271//271 264//264
f 291//291 297//297 282//282
f 289//289 291//291 280//280
f 303//303 305//305 291//291
f 302//302 303//303 289//289
f 283//283 277//277 273//273
f 283//283 287//287 277//277
f 297//297 301//301 283//283
f 287//287 283//283 295//295
f 282//282 283//283 273//273
f 280//280 271//271 275//275
f 280//280 275//275 285//285
f 271//271 280//280 282//282
f 280//280 293//293 289//289
f 285//285 293//293 280//280
f 282//282 273//273 271//271
f 305//305 315//315 297//297
f 301//301 297//297 310//310
f 305//305 319//319 315//315
f 305//305 323//323 319//319
f 303//303 323//323 305//305
f 289//289 299//299 302//302
f 308//308 313//313 302//302
f 317//317 302//302 313//313
f 302//302 317//317 321//321
f 321//321 303//303 302//302
f 321//321 323//323 303//303
f 321//321 320//320 322//322
f 290//290 296//296 306//306
f 288//288 290//290 304//304
f 279//279 281//281 290//290
f 278//278 279//279 288//288
f 311//311 318//318 322//322
f 311//311 314//314 318//318
f 296//296 300//300 311//311
f 314//314 311//311 309//309
f 306//306 311//311 322//322
f 304//304 320//320 316//316
f 304//304 316//316 312//312
f 312//312 307//307 304//304
f 304//304 307//307 288//288
f 320//320 304//304 306//306
f 306//306 322//322 320//320
f 296//296 294//294 300//300
f 286//286 294//294 281//281
f 272//272 281//281 279//279
f 281//281 276//276 286//286
f 281//281 272//272 276//276
f 270//270 272//272 279//279
f 298//298 292//292 288//288
f 278//278 288//288 292//292
f 307//307 298//298 288//288
f 292//292 284//284 278//278
f 274//274 278//278 284//284
f 278//278 274//274 270//270
f 270//270 279//279 278//278
f 294//294 296//296 281//281
f 270//270 241//241 243//243
f 223//223 225//225 235//235
f 221//221 223//223 233//233
f 212//212 214//214 223//223
f 211//211 212//212 221//221
f 236//236 239//239 243//243
f 225//225 229//229 236//236
f 235//235 236//236 243//243
f 233//233 241//241 237//237
f 233//233 237//237 221//221
f 241//241 233//233 235//235
f 235//235 243//243 241//241
f 214//214 219//219 225//225
f 208//208 214//214 212//212
f 214//214 208//208 219//219
f 204//204 208//208 212//212
f 221//221 227//227 211//211
f 216//216 204//204 211//211
f 212//212 211//211 204//204
f 204//204 196//196 200//200
f 181//181 179//179 187//187
f 183//183 181//181 190//190
f 173//173 172//172 179//179
f 174//174 173//173 181//181
f 187//187 188//188 200//200
f 188//188 187//187 179//179
f 190//190 187//187 200//200
f 191//191 196//196 185//185
f 191//191 185//185 175//175
f 196//196 191//191 190//190
f 190//190 200//200 196//196
f 172//172 167//167 177//177
f 172//172 163//163 167//167
f 173//173 163//163 172//172
f 165//165 161//161 174//174
f 173//173 174//174 161//161
f 183//183 175//175 165//165
f 161//161 163//163 173//173
f 140//140 141//141 144//144
f 139//139 140//140 143//143
f 137//137 138//138 141//141
f 136//136 137//137 140//140
f 144//144 141//141 163//163
f 134//134 163//163 141//141
f 143//143 144//144 163//163
f 142//142 143//143 161//161
f 163//163 161//161 143//143
f 139//139 142//142 161//161
f 137//137 134//134 138//138
f 141//141 138//138 134//134
f 132//132 134//134 137//137
f 132//132 136//136 139//139
f 137//137 136//136 132//132
f 161//161 132//132 139//139
f 114//114 108//108 122//122
f 116//116 114//114 123//123
f 102//102 101//101 108//108
f 103//103 102//102 114//114
f 122//122 130//130 134//134
f 122//122 120//120 130//130
f 108//108 106//106 112//112
f 120//120 122//122 112//112
f 123//123 122//122 134//134
f 124//124 132//132 128//128
f 124//124 128//128 118//118
f 132//132 124//124 123//123
f 124//124 110//110 104//104
f 118//118 110//110 124//124
f 123//123 134//134 132//132
f 101//101 92//92 97//97
f 106//106 108//108 97//97
f 101//101 88//88 92//92
f 101//101 84//84 88//88
f 102//102 84//84 101//101
f 116//116 95//95 90//90
f 104//104 95//95 116//116
f 86//86 103//103 90//90
f 103//103 86//86 82//82
f 82//82 102//102 103//103
f 82//82 84//84 102//102
f 82//82 83//83 84//84
f 203//203 199//199 195//195
f 147//147 77//77 75//75
f 3//3 4//4 2//2
f 6//6 7//7 8//8
f 198//198 210//210 206//206
f 258//258 329//329 327//327
f 390//390 389//389 391//391
f 394//394 393//393 395//395
f 392//392 391//391 393//393
f 257//257 259//259 255//255
f 249//249 251//251 247//247
f 245//245 247//247 207//207
f 253//253 255//255 251//251
f 342//342 336//336 334//334
f 350//350 344//344 342//342
f 358//358 352//352 350//350
f 366//366 360//360 358//358
f 374//374 368//368 366//366
f 382//382 376//376 374//374
f 330//330 328//328 336//336
f 346//346 344//344 352//352
f 338//338 336//336 344//344
f 328//328 326//326 334//334
f 354//354 352//352 360//360
f 370//370 368//368 376//376
f 386//386 384//384 392//392
f 378//378 376//376 384//384
f 368//368 370//370 362//362
f 384//384 382//382 390//390
f 326//326 324//324 332//332
f 342//342 340//340 348//348
f 334//334 332//332 340//340
f 350//350 348//348 356//356
f 366//366 364//364 372//372
f 382//382 380//380 388//388
f 374//374 372//372 380//380
f 364//364 366//366 358//358
f 157//157 199//199 159//159
f 149//149 155//155 151//151
f 145//145 151//151 147//147
f 153//153 159//159 155//155
f 57//57 66//66 68//68
f 48//48 57//57 59//59
f 39//39 48//48 50//50
f 30//30 39//39 41//41
f 21//21 30//30 32//32
f 12//12 21//21 23//23
f 59//59 68//68 70//70
f 50//50 59//59 61//61
f 41//41 50//50 52//52
f 32//32 41//41 43//43
f 23//23 32//32 34//34
f 14//14 23//23 25//25
f 64//64 75//75 66//66
f 55//55 66//66 57//57
f 46//46 57//57 48//48
f 77//77 66//66 75//75
f 68//68 79//79 70//70
f 48//48 37//37 46//46
f 28//28 39//39 30//30
f 10//10 21//21 12//12
f 1//1 12//12 3//3
f 19//19 30//30 21//21
f 3//3 14//14 5//5
f 70//70 80//80 71//71
f 52//52 62//62 53//53
f 43//43 53//53 44//44
f 61//61 71//71 62//62
f 44//44 34//34 43//43
f 25//25 35//35 26//26
f 5//5 16//16 7//7
f 16//16 26//26 17//17
f 17//17 7//7 16//16
f 22//22 13//13 15//15
f 31//31 22//22 24//24
f 40//40 31//31 33//33
f 49//49 40//40 42//42
f 58//58 49//49 51//51
f 67//67 58//58 60//60
f 11//11 4//4 13//13
f 29//29 22//22 31//31
f 20//20 13//13 22//22
f 13//13 6//6 15//15
f 38//38 31//31 40//40
f 56//56 49//49 58//58
f 74//74 67//67 76//76
f 65//65 58//58 67//67
f 40//40 47//47 38//38
f 76//76 69//69 78//78
f 15//15 9//9 18//18
f 33//33 27//27 36//36
f 24//24 18//18 27//27
f 42//42 36//36 45//45
f 60//60 54//54 63//63
f 78//78 72//72 81//81
f 69//69 63//63 72//72
f 45//45 51//51 42//42
f 150//150 148//148 152//152
f 158//158 156//156 160//160
f 198//198 160//160 202//202
f 154//154 152//152 156//156
f 206//206 210//210 248//248
f 250//250 252//252 256//256
f 254//254 256//256 260//260
f 246//246 248//248 252//252
f 345//345 335//335 337//337
f 353//353 343//343 345//345
f 361//361 351//351 353//353
f 369//369 359//359 361//361
f 377//377 367//367 369//369
f 385//385 375//375 377//377
f 325//325 327//327 335//335
f 341//341 343//343 351//351
f 333//333 335//335 343//343
f 327//327 329//329 337//337
f 349//349 351//351 359//359
f 365//365 367//367 375//375
f 381//381 383//383 391//391
f 373//373 375//375 383//383
f 367//367 365//365 357//357
f 383//383 385//385 393//393
f 329//329 331//331 339//339
f 345//345 347//347 355//355
f 337//337 339//339 347//347
f 353//353 355//355 363//363
f 369//369 371//371 379//379
f 385//385 387//387 395//395
f 377//377 379//379 387//387
f 371//371 369//369 361//361
f 115//115 94//94 99//99
f 117//117 99//99 100//100
f 126//126 109//109 115//115
f 127//127 115//115 117//117
f 109//109 98//98 94//94
f 100//100 105//105 117//117
f 162//162 164//164 135//135
f 182//182 169//169 170//170
f 184//184 170//170 171//171
f 193//193 180//180 182//182
f 194//194 182//182 184//184
f 180//180 168//168 169//169
f 176//176 171//171 166//166
f 192//192 178//178 180//180
f 184//184 186//186 194//194
f 197//197 209//209 201//201
f 226//226 218//218 215//215
f 224//224 215//215 213//213
f 234//234 226//226 224//224
f 232//232 224//224 222//222
f 218//218 226//226 230//230
f 217//217 228//228 222//222
f 240//240 230//230 226//226
f 228//228 238//238 231//231
f 266//266 263//263 262//262
f 265//265 262//262 261//261
f 269//269 266//266 265//265
f 268//268 265//265 264//264
f 297//297 283//283 282//282
f 291//291 282//282 280//280
f 305//305 297//297 291//291
f 303//303 291//291 289//289
f 301//301 295//295 283//283
f 293//293 299//299 289//289
f 315//315 310//310 297//297
f 299//299 308//308 302//302
f 321//321 322//322 323//323
f 296//296 311//311 306//306
f 290//290 306//306 304//304
f 281//281 296//296 290//290
f 279//279 290//290 288//288
f 300//300 309//309 311//311
f 270//270 243//243 272//272
f 225//225 236//236 235//235
f 223//223 235//235 233//233
f 214//214 225//225 223//223
f 212//212 223//223 221//221
f 229//229 239//239 236//236
f 237//237 227//227 221//221
f 219//219 229//229 225//225
f 227//227 216//216 211//211
f 204//204 200//200 208//208
f 181//181 187//187 190//190
f 183//183 190//190 191//191
f 173//173 179//179 181//181
f 174//174 181//181 183//183
f 188//188 179//179 177//177
f 191//191 175//175 183//183
f 172//172 177//177 179//179
f 183//183 165//165 174//174
f 140//140 144//144 143//143
f 139//139 143//143 142//142
f 137//137 141//141 140//140
f 136//136 140//140 139//139
f 114//114 122//122 123//123
f 116//116 123//123 124//124
f 102//102 108//108 114//114
f 103//103 114//114 116//116
f 108//108 112//112 122//122
f 124//124 104//104 116//116
f 101//101 97//97 108//108
f 116//116 90//90 103//103
f 83//83 85//85 84//84