# PHANTOM Module: PL15_18
# Units: meters
o PL15_18

v 5.200001 1.799999 2.526929
v 5.200001 1.799999 1.361743
v 5.200001 1.349999 2.395391
v 5.200001 1.349999 1.230205
v 5.200001 0.900000 2.263852
v 5.200001 0.900000 1.098666
v 5.200001 0.450000 2.132313
v 5.200001 0.450000 0.967128
v 5.200001 0.000000 2.000775
v 5.200001 0.000000 0.835589
v 5.198500 1.799999 2.554701
v 5.198500 1.349999 2.423162
v 5.198500 0.900000 2.291624
v 5.198500 0.450000 2.160085
v 5.198500 0.000000 2.028547
v 5.193882 1.799999 2.582703
v 5.193882 1.349999 2.451165
v 5.193882 0.900000 2.319626
v 5.193882 0.450000 2.188087
v 5.193882 0.000000 2.056549
v 5.193689 1.799999 1.305115
v 5.193689 1.349999 1.173577
v 5.193689 0.900000 1.042038
v 5.193689 0.450000 0.910499
v 5.193689 0.000000 0.778961
v 5.186071 1.799999 2.610312
v 5.186071 1.349999 2.478773
v 5.186071 0.900000 2.347234
v 5.186071 0.450000 2.215696
v 5.186071 0.000000 2.084157
v 5.185637 1.799999 1.277113
v 5.185637 1.349999 1.145575
v 5.185637 0.900000 1.014036
v 5.185637 0.450000 0.882498
v 5.185637 0.000000 0.750959
v 5.175131 1.799999 2.636881
v 5.175131 1.349999 2.505342
v 5.175131 0.900000 2.373804
v 5.175131 0.450000 2.242265
v 5.175131 0.000000 2.110726
v 5.174364 1.799999 1.250213
v 5.174364 1.349999 1.118675
v 5.174364 0.900000 0.987136
v 5.174364 0.450000 0.855597
v 5.174364 0.000000 0.724059
v 5.161270 1.799999 2.661792
v 5.161270 1.349999 2.530253
v 5.161270 0.900000 2.398714
v 5.161270 0.450000 2.267176
v 5.161270 0.000000 2.135637
v 5.160099 1.799999 1.225060
v 5.160099 1.349999 1.093521
v 5.160099 0.900000 0.961982
v 5.160099 0.450000 0.830444
v 5.160099 0.000000 0.698905
v 5.144535 1.799999 2.684861
v 5.144535 1.349999 2.553323
v 5.144535 0.900000 2.421784
v 5.144535 0.450000 2.290246
v 5.144535 0.000000 2.158707
v 5.143209 1.799999 1.202216
v 5.143209 1.349999 1.070678
v 5.143209 0.900000 0.939139
v 5.143209 0.450000 0.807600
v 5.143209 0.000000 0.676062
v 5.125095 1.799999 2.705678
v 5.125095 1.349999 2.574140
v 5.125095 0.900000 2.442601
v 5.125095 0.450000 2.311063
v 5.125095 0.000000 2.179524
v 5.124168 1.799999 1.182124
v 5.124168 1.349999 1.050586
v 5.124168 0.900000 0.919047
v 5.124168 0.450000 0.787508
v 5.124168 0.000000 0.655970
v 5.103519 1.799999 2.723596
v 5.103519 1.799999 1.165077
v 5.103519 1.349999 2.592057
v 5.103519 1.349999 1.033538
v 5.103519 0.900000 2.460518
v 5.103519 0.900000 0.902000
v 5.103519 0.450000 2.328980
v 5.103519 0.450000 0.770461
v 5.103519 0.000000 2.197441
v 5.103519 0.000000 0.638922
v 5.000000 1.799999 2.526929
v 5.000000 1.799999 1.361743
v 5.000000 0.000000 2.000775
v 5.000000 0.000000 0.835589
v 4.999882 1.799999 2.529099
v 4.999882 1.799999 1.359574
v 4.999882 0.000000 2.002944
v 4.999882 0.000000 0.833420
v 4.999516 1.799999 2.531285
v 4.999516 1.799999 1.357387
v 4.999516 0.000000 2.005131
v 4.999516 0.000000 0.831233
v 4.999123 0.450000 0.962774
v 4.998896 1.799999 2.533439
v 4.998896 1.799999 1.355233
v 4.998896 0.000000 2.007285
v 4.998896 0.000000 0.829079
v 4.998796 0.900000 1.094503
v 4.998470 1.349999 1.226232
v 4.998470 0.450000 2.136286
v 4.998362 0.900000 2.267761
v 4.998253 1.349999 2.399236
v 4.998028 1.799999 2.535508
v 4.998028 1.799999 1.353164
v 4.998028 0.000000 2.009354
v 4.998028 0.000000 0.827010
v 4.996943 0.450000 2.140258
v 4.996943 0.450000 0.959183
v 4.996931 1.799999 2.537443
v 4.996931 1.799999 1.351229
v 4.996931 0.000000 2.011289
v 4.996931 0.000000 0.825075
v 4.996725 0.900000 2.271670
v 4.996725 0.900000 1.090848
v 4.996508 1.349999 2.403082
v 4.996508 1.349999 1.222514
v 4.995632 1.799999 2.539201
v 4.995632 1.799999 1.349472
v 4.995632 0.000000 2.013046
v 4.995632 0.000000 0.823318
v 4.995413 0.450000 2.144231
v 4.995087 0.900000 2.275579
v 4.994761 1.349999 2.406927
v 4.994761 0.450000 0.955591
v 4.994652 0.900000 1.087193
v 4.994543 1.349999 1.218795
v 4.994167 1.799999 2.540746
v 4.994167 1.799999 1.347926
v 4.994167 0.000000 2.014592
v 4.994167 0.000000 0.821772
v 4.992579 1.799999 2.542057
v 4.992579 1.799999 1.346615
v 4.992579 0.000000 2.015903
v 4.992579 0.000000 0.820461
v 4.897535 1.349999 0.883732
v 4.897535 0.900000 0.752193
v 4.897535 0.450000 0.620655
v 4.691551 1.349999 0.733926
v 4.691551 0.900000 0.602387
v 4.691551 0.450000 0.470848
v 4.485567 1.349999 0.584119
v 4.485567 0.900000 0.452581
v 4.485567 0.450000 0.321042
v 4.279585 1.799999 3.322821
v 4.279585 1.799999 0.565852
v 4.279585 0.000000 2.796666
v 4.279585 0.000000 0.039697
v 4.252039 1.799999 3.339823
v 4.252039 1.799999 0.548849
v 4.252039 0.000000 2.813669
v 4.252039 0.000000 0.022695
v 4.222185 1.799999 3.352376
v 4.222185 1.799999 0.536296
v 4.222185 0.000000 2.826222
v 4.222185 0.000000 0.010142
v 4.190964 1.799999 3.359997
v 4.190964 1.799999 0.528676
v 4.190964 0.000000 2.833842
v 4.190964 0.000000 0.002522
v 4.168644 1.799999 3.141283
v 4.168644 1.799999 0.747390
v 4.168644 0.000000 2.615128
v 4.168644 0.000000 0.221235
v 4.166525 1.799999 3.142591
v 4.166525 1.799999 0.746082
v 4.166525 0.000000 2.616436
v 4.166525 0.000000 0.219928
v 4.166449 0.450000 0.351591
v 4.166410 0.900000 0.483269
v 4.166374 0.360000 2.721272
v 4.166372 1.349999 0.614948
v 4.166365 0.719999 2.826465
v 4.166353 1.079999 2.931659
v 4.166344 1.440000 3.036853
v 4.164228 1.799999 3.143556
v 4.164228 1.799999 0.745116
v 4.164228 0.000000 2.617402
v 4.164228 0.000000 0.218962
v 4.164104 0.360000 2.722185
v 4.164099 0.450000 0.350967
v 4.164083 0.719999 2.827341
v 4.164074 0.900000 0.482599
v 4.164062 1.079999 2.932497
v 4.164047 1.349999 0.614231
v 4.164042 1.440000 3.037653
v 4.161835 0.360000 2.723097
v 4.161827 1.799999 3.144142
v 4.161827 1.799999 0.744530
v 4.161827 0.000000 2.617988
v 4.161827 0.000000 0.218376
v 4.161804 0.719999 2.828216
v 4.161772 1.079999 2.933335
v 4.161749 0.450000 0.350344
v 4.161741 1.440000 3.038454
v 4.161736 0.900000 0.481929
v 4.161724 1.349999 0.613514
v 4.159399 1.799999 3.362518
v 4.159399 1.799999 3.144336
v 4.159399 1.799999 0.744336
v 4.159399 1.799999 0.526154
v 4.159399 0.000000 2.836364
v 4.159399 0.000000 2.618182
v 4.159399 0.000000 0.218182
v 4.159399 0.000000 0.000000
v 1.040602 1.799999 3.362518
v 1.040602 1.799999 3.144336
v 1.040602 1.799999 0.744336
v 1.040602 1.799999 0.526154
v 1.040602 0.000000 2.836364
v 1.040602 0.000000 2.618182
v 1.040602 0.000000 0.218182
v 1.040602 0.000000 0.000000
v 1.038277 1.349999 3.012081
v 1.038265 0.900000 2.880589
v 1.038252 1.349999 0.613421
v 1.038252 0.450000 2.749097
v 1.038214 0.900000 0.481742
v 1.038174 1.799999 3.144142
v 1.038174 1.799999 0.744530
v 1.038174 0.450000 0.350064
v 1.038174 0.000000 2.617988
v 1.038174 0.000000 0.218376
v 1.035954 1.349999 3.011364
v 1.035954 1.349999 0.614231
v 1.035927 0.900000 2.879919
v 1.035927 0.900000 0.482599
v 1.035902 0.450000 2.748474
v 1.035902 0.450000 0.350967
v 1.035772 1.799999 3.143556
v 1.035772 1.799999 0.745116
v 1.035772 0.000000 2.617402
v 1.035772 0.000000 0.218962
v 1.033655 1.349999 0.615041
v 1.033642 0.900000 0.483456
v 1.033628 1.349999 3.010648
v 1.033628 0.450000 0.351871
v 1.033590 0.900000 2.879249
v 1.033552 0.450000 2.747850
v 1.033476 1.799999 3.142591
v 1.033476 1.799999 0.746082
v 1.033476 0.000000 2.616436
v 1.033476 0.000000 0.219928
v 1.031357 1.799999 3.141283
v 1.031357 1.799999 0.747390
v 1.031357 0.000000 2.615128
v 1.031357 0.000000 0.221235
v 1.010555 1.349999 3.221055
v 1.010555 0.900000 3.089517
v 1.010555 0.450000 2.957978
v 1.009037 1.799999 3.359997
v 1.009037 1.799999 0.528676
v 1.009037 0.000000 2.833842
v 1.009037 0.000000 0.002522
v 0.980509 1.349999 3.211131
v 0.980509 0.900000 3.079592
v 0.980509 0.450000 2.948054
v 0.977816 1.799999 3.352376
v 0.977816 1.799999 0.536296
v 0.977816 0.000000 2.826222
v 0.977816 0.000000 0.010142
v 0.950462 1.349999 3.201207
v 0.950462 0.900000 3.069668
v 0.950462 0.450000 2.938129
v 0.947962 1.799999 3.339823
v 0.947962 1.799999 0.548849
v 0.947962 0.000000 2.813669
v 0.947962 0.000000 0.022695
v 0.920416 1.799999 3.322821
v 0.920416 1.799999 0.565852
v 0.920416 0.000000 2.796666
v 0.920416 0.000000 0.039697
v 0.207422 1.799999 2.542057
v 0.207422 1.799999 1.346615
v 0.207422 0.000000 2.015903
v 0.207422 0.000000 0.820461
v 0.205833 1.799999 2.540746
v 0.205833 1.799999 1.347926
v 0.205833 0.000000 2.014592
v 0.205833 0.000000 0.821772
v 0.205458 1.349999 2.406800
v 0.205349 0.900000 2.275325
v 0.205240 1.349999 1.218668
v 0.205240 0.450000 2.143850
v 0.204914 0.900000 1.086939
v 0.204588 0.450000 0.955210
v 0.204369 1.799999 2.539201
v 0.204369 1.799999 1.349472
v 0.204369 0.000000 2.013046
v 0.204369 0.000000 0.823318
v 0.203493 1.349999 2.403082
v 0.203493 1.349999 1.222514
v 0.203276 0.900000 2.271670
v 0.203276 0.900000 1.090848
v 0.203070 1.799999 2.537443
v 0.203070 1.799999 1.351229
v 0.203070 0.000000 2.011289
v 0.203070 0.000000 0.825075
v 0.203058 0.450000 2.140258
v 0.203058 0.450000 0.959183
v 0.201973 1.799999 2.535508
v 0.201973 1.799999 1.353164
v 0.201973 0.000000 2.009354
v 0.201973 0.000000 0.827010
v 0.201748 1.349999 1.226359
v 0.201639 0.900000 1.094757
v 0.201530 1.349999 2.399363
v 0.201530 0.450000 0.963155
v 0.201204 0.900000 2.268015
v 0.201105 1.799999 2.533439
v 0.201105 1.799999 1.355233
v 0.201105 0.000000 2.007285
v 0.201105 0.000000 0.829079
v 0.200878 0.450000 2.136667
v 0.200485 1.799999 2.531285
v 0.200485 1.799999 1.357387
v 0.200485 0.000000 2.005131
v 0.200485 0.000000 0.831233
v 0.200119 1.799999 2.529099
v 0.200119 1.799999 1.359574
v 0.200119 0.000000 2.002944
v 0.200119 0.000000 0.833420
v 0.200001 1.799999 2.526929
v 0.200001 1.799999 1.361743
v 0.200001 0.000000 2.000775
v 0.200001 0.000000 0.835589
v 0.096481 1.799999 2.723596
v 0.096481 1.799999 1.165077
v 0.096481 1.349999 2.592057
v 0.096481 1.349999 1.033538
v 0.096481 0.900000 2.460518
v 0.096481 0.900000 0.902000
v 0.096481 0.450000 2.328980
v 0.096481 0.450000 0.770461
v 0.096481 0.000000 2.197441
v 0.096481 0.000000 0.638922
v 0.075832 1.799999 1.182124
v 0.075832 1.349999 1.050586
v 0.075832 0.900000 0.919047
v 0.075832 0.450000 0.787508
v 0.075832 0.000000 0.655970
v 0.074905 1.799999 2.705678
v 0.074905 1.349999 2.574140
v 0.074905 0.900000 2.442601
v 0.074905 0.450000 2.311063
v 0.074905 0.000000 2.179524
v 0.056791 1.799999 1.202216
v 0.056791 1.349999 1.070678
v 0.056791 0.900000 0.939139
v 0.056791 0.450000 0.807600
v 0.056791 0.000000 0.676062
v 0.055466 1.799999 2.684861
v 0.055466 1.349999 2.553323
v 0.055466 0.900000 2.421784
v 0.055466 0.450000 2.290246
v 0.055466 0.000000 2.158707
v 0.039902 1.799999 1.225060
v 0.039902 1.349999 1.093521
v 0.039902 0.900000 0.961982
v 0.039902 0.450000 0.830444
v 0.039902 0.000000 0.698905
v 0.038731 1.799999 2.661792
v 0.038731 1.349999 2.530253
v 0.038731 0.900000 2.398714
v 0.038731 0.450000 2.267176
v 0.038731 0.000000 2.135637
v 0.025637 1.799999 1.250213
v 0.025637 1.349999 1.118675
v 0.025637 0.900000 0.987136
v 0.025637 0.450000 0.855597
v 0.025637 0.000000 0.724059
v 0.024870 1.799999 2.636881
v 0.024870 1.349999 2.505342
v 0.024870 0.900000 2.373804
v 0.024870 0.450000 2.242265
v 0.024870 0.000000 2.110726
v 0.014364 1.799999 1.277113
v 0.014364 1.349999 1.145575
v 0.014364 0.900000 1.014036
v 0.014364 0.450000 0.882498
v 0.014364 0.000000 0.750959
v 0.013929 1.799999 2.610312
v 0.013929 1.349999 2.478773
v 0.013929 0.900000 2.347234
v 0.013929 0.450000 2.215696
v 0.013929 0.000000 2.084157
v 0.006311 1.799999 1.305115
v 0.006311 1.349999 1.173577
v 0.006311 0.900000 1.042038
v 0.006311 0.450000 0.910499
v 0.006311 0.000000 0.778961
v 0.006119 1.799999 2.582703
v 0.006119 1.349999 2.451165
v 0.006119 0.900000 2.319626
v 0.006119 0.450000 2.188087
v 0.006119 0.000000 2.056549
v 0.001501 1.799999 2.554701
v 0.001501 1.349999 2.423162
v 0.001501 0.900000 2.291624
v 0.001501 0.450000 2.160085
v 0.001501 0.000000 2.028547
v 0.000000 1.799999 2.526929
v 0.000000 1.799999 1.361743
v 0.000000 1.349999 2.395391
v 0.000000 1.349999 1.230205
v 0.000000 0.900000 2.263852
v 0.000000 0.900000 1.098666
v 0.000000 0.450000 2.132313
v 0.000000 0.450000 0.967128
v 0.000000 0.000000 2.000775
v 0.000000 0.000000 0.835589

vn 0.516403 0.856144 0.018598
vn 0.444436 0.895660 -0.016438
vn 0.999604 -0.007890 0.026993
vn 0.998330 0.016208 -0.055448
vn 0.999604 -0.007890 0.026993
vn 0.998330 0.016208 -0.055448
vn 0.999604 -0.007890 0.026993
vn 0.998330 0.016208 -0.055448
vn 0.513083 -0.858289 0.009234
vn 0.449252 -0.892784 -0.033306
vn 0.449494 0.891439 0.057370
vn 0.993600 -0.031692 0.108419
vn 0.993600 -0.031692 0.108420
vn 0.993600 -0.031692 0.108420
vn 0.440100 -0.897061 0.039910
vn 0.601302 0.785564 0.146031
vn 0.974033 -0.063522 0.217312
vn 0.974033 -0.063522 0.217312
vn 0.974033 -0.063522 0.217312
vn 0.570664 -0.812928 0.116148
vn 0.430974 0.899429 -0.072728
vn 0.979395 0.056662 -0.193842
vn 0.979395 0.056662 -0.193842
vn 0.979395 0.056662 -0.193842
vn 0.445632 -0.889460 -0.101356
vn 0.815345 0.495365 0.299709
vn 0.940755 -0.095136 0.325466
vn 0.940755 -0.095136 0.325466
vn 0.940755 -0.095136 0.325466
vn 0.757007 -0.605428 0.245759
vn 0.755239 0.606179 -0.249320
vn 0.938901 0.096568 -0.330362
vn 0.938901 0.096568 -0.330363
vn 0.938901 0.096568 -0.330363
vn 0.814149 -0.494453 -0.304430
vn 0.784547 0.476174 0.397171
vn 0.893682 -0.125891 0.430678
vn 0.893682 -0.125891 0.430678
vn 0.893682 -0.125891 0.430678
vn 0.711872 -0.622017 0.326086
vn 0.708935 0.622975 -0.330626
vn 0.890364 0.127728 -0.436964
vn 0.890364 0.127728 -0.436964
vn 0.890364 0.127728 -0.436964
vn 0.782121 -0.474988 -0.403327
vn 0.740114 0.457461 0.492911
vn 0.833011 -0.155226 0.531035
vn 0.833012 -0.155225 0.531034
vn 0.833012 -0.155225 0.531034
vn 0.657749 -0.637588 0.401058
vn 0.653588 0.638652 -0.406135
vn 0.828140 0.157264 -0.538008
vn 0.828140 0.157264 -0.538008
vn 0.828140 0.157264 -0.538008
vn 0.736328 -0.456137 -0.499760
vn 0.681258 0.439521 0.585414
vn 0.758736 -0.182761 0.625234
vn 0.758736 -0.182761 0.625235
vn 0.758736 -0.182761 0.625234
vn 0.594962 -0.651993 0.470027
vn 0.590313 0.652927 -0.474570
vn 0.753319 0.184517 -0.631240
vn 0.753319 0.184516 -0.631240
vn 0.753320 0.184516 -0.631239
vn 0.677011 -0.438385 -0.591164
vn 0.607918 0.422822 0.672055
vn 0.671357 -0.207938 0.711366
vn 0.671356 -0.207938 0.711367
vn 0.671355 -0.207939 0.711367
vn 0.523930 -0.665030 0.532196
vn 0.520466 0.665563 -0.534922
vn 0.667562 0.208898 -0.714648
vn 0.667563 0.208897 -0.714648
vn 0.667563 0.208897 -0.714648
vn 0.605161 -0.422212 -0.674920
vn 0.372578 0.794750 0.479123
vn 0.463538 0.646907 -0.605511
vn 0.603228 -0.223772 0.765534
vn 0.601862 0.224061 -0.766524
vn 0.598147 -0.224843 0.769198
vn 0.597004 0.225082 -0.770016
vn 0.603228 -0.223772 0.765534
vn 0.597004 0.225082 -0.770016
vn 0.387765 -0.782113 0.487789
vn 0.529122 -0.472929 -0.704534
vn -0.843537 0.500782 -0.194067
vn -0.859515 0.492619 0.136232
vn -0.928736 -0.340283 -0.147163
vn -0.780076 -0.619288 0.089237
vn -0.689724 0.720042 -0.076289
vn -0.712491 0.697241 0.078812
vn -0.712491 -0.697241 -0.078812
vn -0.690453 -0.719334 0.076373
vn -0.645443 0.739047 -0.192908
vn -0.710052 0.685490 0.161029
vn -0.555399 -0.821990 -0.125956
vn -0.666093 -0.730412 0.151058
vn -0.946076 -0.091870 0.310645
vn -0.631912 0.742409 -0.222523
vn -0.805810 0.492463 0.328862
vn -0.815373 -0.497608 -0.295895
vn -0.719416 -0.621411 0.310305
vn -0.916813 -0.112627 0.383103
vn -0.945039 -0.090239 0.314258
vn -0.963195 0.073677 -0.258510
vn -0.918500 0.110688 -0.379612
vn -0.944837 0.093181 -0.314007
vn -0.703369 0.626094 -0.336569
vn -0.524363 0.811668 0.257369
vn -0.672658 -0.662216 -0.330154
vn -0.579787 -0.754976 0.306364
vn -0.916625 0.110600 -0.384144
vn -0.860734 -0.144196 0.488205
vn -0.543032 0.762072 -0.352650
vn -0.756010 0.466402 0.459259
vn -0.770327 -0.473519 -0.427054
vn -0.543030 -0.762072 0.352654
vn -0.916560 0.111690 -0.383983
vn -0.860944 -0.143234 0.488117
vn -0.916192 0.114165 -0.384133
vn -0.878439 -0.132363 0.459157
vn -0.385241 0.864515 -0.322805
vn -0.588594 0.640567 0.493185
vn -0.457993 -0.801858 -0.383753
vn -0.488264 -0.770859 0.409115
vn -0.814046 0.161962 -0.557761
vn -0.859650 0.142742 -0.490537
vn -0.823244 0.161037 -0.544368
vn -0.792279 -0.173089 0.585093
vn -0.858285 -0.144235 0.492487
vn -0.813610 -0.161502 0.558530
vn -0.428156 0.778781 -0.458457
vn -0.529483 0.631049 0.566943
vn -0.529924 -0.630254 -0.567415
vn -0.428172 -0.778779 0.458445
vn -0.338582 0.881673 -0.328657
vn -0.357704 0.884532 0.299419
vn -0.326311 -0.879248 -0.347049
vn -0.338963 -0.881434 0.328905
vn 0.572394 0.230059 -0.787044
vn 0.572394 0.230059 -0.787044
vn 0.572394 0.230059 -0.787044
vn 0.572394 0.230059 -0.787044
vn 0.572394 0.230059 -0.787044
vn 0.572394 0.230060 -0.787043
vn 0.572395 0.230059 -0.787043
vn 0.572396 0.230059 -0.787042
vn 0.572395 0.230060 -0.787043
vn 0.360750 0.768146 0.528972
vn 0.294678 0.859163 -0.418334
vn 0.252105 -0.897928 0.360789
vn 0.409445 -0.692554 -0.593906
vn 0.399743 0.393399 0.827915
vn 0.349227 0.687325 -0.636886
vn 0.349226 -0.687325 0.636887
vn 0.399742 -0.393399 -0.827915
vn 0.266273 0.382673 0.884681
vn 0.243189 0.695624 -0.675992
vn 0.243190 -0.695624 0.675992
vn 0.266271 -0.382673 -0.884681
vn 0.132345 0.058127 0.989498
vn 0.156354 0.536041 -0.829587
vn 0.156355 -0.536041 0.829586
vn 0.132347 -0.058127 -0.989498
vn -0.316507 0.665098 -0.676364
vn -0.461264 0.346149 0.816956
vn -0.462529 -0.345973 -0.816315
vn -0.360423 -0.715925 0.597952
vn -0.299870 0.692662 -0.655971
vn -0.361621 0.613574 0.701966
vn -0.361573 -0.613650 -0.701925
vn -0.282830 -0.694221 0.661865
vn -0.358494 -0.262185 0.895958
vn -0.340509 -0.264023 0.902411
vn -0.396540 0.256883 -0.881344
vn -0.352368 -0.262077 0.898416
vn -0.345702 0.263174 -0.900683
vn -0.322620 0.265450 -0.908544
vn -0.356576 0.262577 -0.896609
vn -0.228449 0.697092 -0.679613
vn -0.283592 0.384313 0.878566
vn -0.307727 -0.386161 -0.869588
vn -0.210982 -0.697868 0.684446
vn -0.336181 0.263732 -0.904117
vn -0.271379 -0.270481 0.923685
vn -0.345758 0.263072 -0.900691
vn -0.265316 -0.270703 0.925380
vn -0.331316 0.264530 -0.905679
vn -0.271568 -0.269515 0.923912
vn -0.328799 0.265649 -0.906268
vn -0.246666 0.271631 -0.930254
vn -0.095341 0.800173 -0.592143
vn -0.189465 0.380249 0.905270
vn -0.214307 -0.382702 -0.898672
vn -0.095364 -0.800083 0.592261
vn -0.238220 0.272223 -0.932280
vn -0.263461 0.270432 -0.925989
vn -0.205650 -0.275143 0.939151
vn -0.249181 0.272405 -0.929357
vn -0.262154 -0.270850 0.926237
vn -0.243192 -0.271802 0.931118
vn 0.015807 0.917969 0.396338
vn -0.092863 0.800868 -0.591596
vn -0.118441 0.482406 0.867903
vn 0.021168 0.847290 -0.530709
vn 0.021167 -0.847290 0.530709
vn -0.072143 -0.375298 -0.924092
vn -0.089384 -0.800708 0.592349
vn 0.015808 -0.917969 -0.396338
vn -0.102799 0.696327 0.710324
vn 0.099503 0.677061 -0.729169
vn 0.133566 0.445134 0.885447
vn -0.020605 0.921735 -0.387272
vn -0.084710 -0.880481 0.466452
vn 0.133592 -0.444777 -0.885622
vn 0.053230 -0.676349 0.734656
vn -0.012942 -0.873327 -0.486962
vn 0.235672 0.273314 -0.932608
vn 0.268358 0.270181 -0.924655
vn 0.272965 -0.269723 0.923439
vn 0.213186 0.273698 -0.937892
vn 0.268937 -0.270453 0.924407
vn 0.095347 0.800143 -0.592183
vn 0.201340 0.381407 0.902214
vn 0.221121 -0.274045 0.935951
vn 0.177460 -0.379019 -0.908214
vn 0.095401 -0.799906 0.592494
vn 0.295955 0.268505 -0.916687
vn 0.308353 -0.266388 0.913212
vn 0.265310 0.270322 -0.925493
vn 0.338469 -0.264198 0.903127
vn 0.246832 0.271314 -0.930302
vn 0.356395 -0.262714 0.896640
vn 0.220209 0.697431 -0.681981
vn 0.295148 0.385148 0.874385
vn 0.272068 -0.383415 -0.882594
vn 0.238590 -0.696189 0.677050
vn 0.366755 -0.260371 0.893139
vn 0.335564 -0.264395 0.904153
vn 0.330598 0.264979 -0.905810
vn 0.387964 -0.259008 0.884533
vn 0.334520 0.264182 -0.904602
vn 0.380068 0.259091 -0.887930
vn 0.291819 0.693375 -0.658841
vn 0.361594 0.613652 0.701913
vn 0.361684 -0.613338 -0.702140
vn 0.309869 -0.691310 0.652742
vn 0.323381 0.720351 -0.613611
vn 0.448548 0.345489 0.824282
vn 0.497666 -0.348670 -0.794203
vn 0.323469 -0.720201 0.613741
vn -0.242579 -0.282054 0.928225
vn -0.302208 -0.267449 0.914954
vn -0.258482 -0.265067 0.928939
vn -0.155280 0.213888 0.964438
vn -0.156354 0.536041 -0.829587
vn -0.180110 -0.523030 0.833067
vn -0.132347 -0.058127 -0.989498
vn -0.313474 -0.275435 0.908774
vn -0.302208 -0.267449 0.914954
vn -0.290695 -0.259306 0.921009
vn -0.291190 0.370537 0.881993
vn -0.243189 0.695624 -0.675992
vn -0.227650 -0.687517 0.689563
vn -0.266271 -0.382673 -0.884681
vn -0.344454 -0.269268 0.899359
vn -0.302208 -0.267449 0.914954
vn -0.360586 -0.251744 0.898111
vn -0.380151 0.380423 0.843068
vn -0.349227 0.687325 -0.636887
vn -0.282559 -0.786965 0.548494
vn -0.399742 -0.393399 -0.827915
vn -0.354782 0.692021 0.628679
vn -0.252106 0.897928 -0.360789
vn -0.276950 -0.826142 0.490701
vn -0.360750 -0.768146 -0.528972
vn 0.346325 0.881782 -0.320187
vn 0.350310 0.883179 0.311894
vn 0.350893 -0.882798 -0.312317
vn 0.314702 -0.881496 0.352033
vn 0.428021 0.778941 -0.458311
vn 0.529593 0.630850 0.567062
vn 0.529593 -0.630850 -0.567062
vn 0.428579 -0.778298 0.458881
vn 0.813126 0.165506 -0.558062
vn 0.863536 0.141231 -0.484106
vn 0.833435 -0.153817 0.530778
vn 0.792739 0.169432 -0.585540
vn 0.864640 -0.141549 0.482038
vn 0.792807 -0.172066 0.584679
vn 0.385123 0.864605 -0.322706
vn 0.588724 0.640362 0.493295
vn 0.457729 -0.802114 -0.383533
vn 0.488734 -0.770351 0.409510
vn 0.880755 0.134370 -0.454110
vn 0.899738 -0.120943 0.419338
vn 0.861085 0.142148 -0.488188
vn 0.916448 -0.112777 0.383932
vn 0.542859 0.762248 -0.352538
vn 0.763320 0.470129 0.443082
vn 0.748439 -0.462376 -0.475445
vn 0.675827 -0.634730 0.374668
vn 0.861186 0.140975 -0.488349
vn 0.922157 -0.110280 0.370763
vn 0.694539 0.628872 -0.349479
vn 0.675048 0.663353 0.322913
vn 0.672658 -0.662216 -0.330154
vn 0.465839 -0.854821 0.228637
vn 0.947093 -0.087885 0.308693
vn 0.914402 -0.113830 0.388474
vn 0.934958 0.100739 -0.340154
vn 0.957337 -0.082453 0.276959
vn 0.912807 0.113988 -0.392161
vn 0.727496 0.618553 -0.296886
vn 0.696769 0.674026 0.245361
vn 0.800710 -0.489454 -0.345396
vn 0.632294 -0.742044 0.222653
vn 0.956826 0.080491 -0.279294
vn 0.523178 0.843923 -0.118650
vn 0.709874 0.685683 0.160989
vn 0.555776 -0.821722 -0.126041
vn 0.769969 -0.601161 0.213897
vn 0.689906 0.719865 -0.076310
vn 0.712315 0.697423 0.078793
vn 0.713021 -0.696693 -0.078869
vn 0.689906 -0.719866 0.076311
vn 0.852800 0.493683 -0.170322
vn 0.857476 0.490234 0.156221
vn 0.932024 -0.352270 -0.085069
vn 0.757769 -0.634755 0.151233
vn -0.372578 0.794750 0.479123
vn -0.386754 0.782206 -0.488441
vn -0.603228 -0.223772 0.765534
vn -0.601862 0.224061 -0.766524
vn -0.598147 -0.224843 0.769198
vn -0.597004 0.225082 -0.770016
vn -0.603228 -0.223772 0.765534
vn -0.601862 0.224061 -0.766524
vn -0.387765 -0.782113 0.487789
vn -0.371930 -0.794696 -0.479715
vn -0.520466 0.665563 -0.534922
vn -0.667562 0.208898 -0.714648
vn -0.667563 0.208897 -0.714648
vn -0.667563 0.208897 -0.714648
vn -0.605161 -0.422212 -0.674920
vn -0.607918 0.422822 0.672055
vn -0.671357 -0.207938 0.711366
vn -0.671356 -0.207938 0.711367
vn -0.671355 -0.207939 0.711367
vn -0.523930 -0.665030 0.532196
vn -0.590313 0.652927 -0.474570
vn -0.753319 0.184517 -0.631240
vn -0.753319 0.184516 -0.631240
vn -0.753320 0.184516 -0.631239
vn -0.677011 -0.438385 -0.591164
vn -0.681258 0.439521 0.585414
vn -0.758736 -0.182761 0.625234
vn -0.758736 -0.182761 0.625235
vn -0.758736 -0.182761 0.625234
vn -0.594962 -0.651993 0.470027
vn -0.653588 0.638652 -0.406135
vn -0.828140 0.157264 -0.538008
vn -0.828140 0.157264 -0.538008
vn -0.828140 0.157264 -0.538008
vn -0.736328 -0.456137 -0.499760
vn -0.740114 0.457461 0.492911
vn -0.833011 -0.155226 0.531035
vn -0.833012 -0.155225 0.531034
vn -0.833012 -0.155225 0.531034
vn -0.657749 -0.637588 0.401058
vn -0.708935 0.622975 -0.330626
vn -0.890364 0.127728 -0.436964
vn -0.890364 0.127728 -0.436964
vn -0.890364 0.127728 -0.436964
vn -0.782121 -0.474988 -0.403327
vn -0.784547 0.476174 0.397171
vn -0.893682 -0.125891 0.430678
vn -0.893682 -0.125891 0.430678
vn -0.893682 -0.125891 0.430678
vn -0.711872 -0.622017 0.326086
vn -0.755239 0.606179 -0.249320
vn -0.938901 0.096568 -0.330362
vn -0.938901 0.096568 -0.330363
vn -0.938901 0.096568 -0.330363
vn -0.814149 -0.494453 -0.304430
vn -0.815345 0.495365 0.299709
vn -0.940755 -0.095136 0.325466
vn -0.940755 -0.095136 0.325466
vn -0.940755 -0.095136 0.325466
vn -0.757007 -0.605428 0.245759
vn -0.430974 0.899429 -0.072728
vn -0.979395 0.056662 -0.193842
vn -0.979395 0.056662 -0.193842
vn -0.979395 0.056662 -0.193842
vn -0.445632 -0.889460 -0.101356
vn -0.601302 0.785564 0.146031
vn -0.974033 -0.063522 0.217312
vn -0.974033 -0.063522 0.217312
vn -0.974033 -0.063522 0.217312
vn -0.570664 -0.812928 0.116148
vn -0.449494 0.891439 0.057370
vn -0.993600 -0.031692 0.108419
vn -0.993600 -0.031692 0.108420
vn -0.993600 -0.031692 0.108420
vn -0.440100 -0.897061 0.039910
vn -0.516403 0.856144 0.018598
vn -0.444436 0.895660 -0.016438
vn -0.999604 -0.007890 0.026993
vn -0.998330 0.016208 -0.055448
vn -0.999604 -0.007890 0.026993
vn -0.998330 0.016208 -0.055448
vn -0.999604 -0.007890 0.026993
vn -0.998330 0.016208 -0.055448
vn -0.513083 -0.858289 0.009234
vn -0.449252 -0.892784 -0.033306

f 275//275 337//337 339//339
f 275//275 335//335 337//337
f 333//333 335//335 273//273
f 275//275 273//273 335//335
f 333//333 273//273 331//331
f 210//210 214//214 206//206
f 149//149 151//151 80//80
f 84//84 82//82 151//151
f 151//151 82//82 80//80
f 149//149 78//78 76//76
f 1//1 3//3 2//2
f 6//6 4//4 5//5
f 7//7 9//9 8//8
f 8//8 6//6 7//7
f 144//144 141//141 142//142
f 143//143 140//140 141//141
f 147//147 144//144 145//145
f 146//146 143//143 144//144
f 83//83 85//85 142//142
f 145//145 142//142 85//85
f 81//81 83//83 141//141
f 79//79 81//81 140//140
f 77//77 79//79 140//140
f 152//152 148//148 145//145
f 150//150 147//147 152//152
f 148//148 152//152 147//147
f 152//152 145//145 85//85
f 150//150 77//77 143//143
f 143//143 146//146 150//150
f 147//147 150//150 146//146
f 205//205 209//209 217//217
f 274//274 276//276 336//336
f 340//340 338//338 276//276
f 276//276 338//338 336//336
f 274//274 334//334 332//332
f 408//408 406//406 407//407
f 412//412 410//410 411//411
f 414//414 412//412 413//413
f 410//410 408//408 409//409
f 139//139 35//35 25//25
f 139//139 45//45 35//35
f 55//55 139//139 65//65
f 55//55 45//45 139//139
f 65//65 139//139 75//75
f 93//93 10//10 89//89
f 25//25 10//10 111//111
f 9//9 89//89 10//10
f 10//10 102//102 111//111
f 10//10 93//93 97//97
f 10//10 97//97 102//102
f 117//117 25//25 111//111
f 139//139 85//85 75//75
f 156//156 152//152 209//209
f 160//160 156//156 209//209
f 152//152 208//208 209//209
f 208//208 152//152 195//195
f 209//209 164//164 160//160
f 183//183 195//195 152//152
f 25//25 117//117 125//125
f 135//135 25//25 125//125
f 152//152 172//172 183//183
f 168//168 85//85 139//139
f 152//152 168//168 172//172
f 135//135 139//139 25//25
f 85//85 168//168 152//152
f 96//96 9//9 15//15
f 89//89 9//9 88//88
f 88//88 9//9 92//92
f 9//9 96//96 92//92
f 15//15 110//110 101//101
f 15//15 101//101 96//96
f 124//124 15//15 20//20
f 40//40 138//138 30//30
f 20//20 30//30 138//138
f 138//138 50//50 60//60
f 60//60 70//70 138//138
f 138//138 40//40 50//50
f 70//70 84//84 138//138
f 116//116 110//110 15//15
f 134//134 20//20 138//138
f 15//15 124//124 116//116
f 84//84 151//151 167//167
f 151//151 182//182 171//171
f 151//151 171//171 167//167
f 138//138 84//84 167//167
f 159//159 206//206 155//155
f 151//151 155//155 206//206
f 207//207 151//151 206//206
f 206//206 159//159 163//163
f 206//206 214//214 207//207
f 194//194 151//151 207//207
f 194//194 182//182 151//151
f 124//124 20//20 134//134
f 217//217 209//209 208//208
f 276//276 217//217 216//216
f 258//258 217//217 265//265
f 217//217 276//276 272//272
f 265//265 217//217 272//272
f 227//227 276//276 216//216
f 276//276 227//227 237//237
f 276//276 237//237 247//247
f 251//251 280//280 340//340
f 284//284 294//294 395//395
f 395//395 280//280 284//284
f 251//251 276//276 247//247
f 251//251 340//340 276//276
f 280//280 355//355 345//345
f 365//365 355//355 280//280
f 280//280 385//385 375//375
f 385//385 280//280 395//395
f 375//375 365//365 280//280
f 302//302 395//395 294//294
f 308//308 395//395 302//302
f 415//415 308//308 317//317
f 415//415 322//322 326//326
f 414//414 415//415 330//330
f 326//326 330//330 415//415
f 415//415 317//317 322//322
f 308//308 415//415 395//395
f 340//340 280//280 345//345
f 275//275 250//250 246//246
f 275//275 246//246 236//236
f 405//405 301//301 293//293
f 279//279 250//250 339//339
f 400//400 283//283 279//279
f 339//339 250//250 275//275
f 215//215 214//214 275//275
f 215//215 207//207 214//214
f 226//226 215//215 275//275
f 271//271 214//214 264//264
f 264//264 214//214 257//257
f 275//275 214//214 271//271
f 275//275 236//236 226//226
f 400//400 293//293 283//283
f 405//405 321//321 316//316
f 405//405 316//316 307//307
f 325//325 414//414 329//329
f 330//330 329//329 414//414
f 325//325 321//321 414//414
f 405//405 414//414 321//321
f 293//293 400//400 405//405
f 279//279 339//339 350//350
f 279//279 350//350 360//360
f 279//279 370//370 380//380
f 279//279 360//360 370//370
f 279//279 380//380 390//390
f 279//279 390//390 400//400
f 307//307 301//301 405//405
f 216//216 217//217 208//208
f 137//137 21//21 31//31
f 137//137 31//31 41//41
f 51//51 61//61 137//137
f 51//51 137//137 41//41
f 61//61 71//71 137//137
f 91//91 87//87 2//2
f 21//21 109//109 2//2
f 1//1 2//2 87//87
f 2//2 109//109 100//100
f 2//2 95//95 91//91
f 2//2 100//100 95//95
f 115//115 109//109 21//21
f 137//137 71//71 77//77
f 154//154 205//205 150//150
f 158//158 205//205 154//154
f 150//150 205//205 204//204
f 204//204 193//193 150//150
f 205//205 158//158 162//162
f 181//181 150//150 193//193
f 21//21 123//123 115//115
f 133//133 123//123 21//21
f 150//150 181//181 170//170
f 166//166 137//137 77//77
f 150//150 170//170 166//166
f 133//133 21//21 137//137
f 77//77 150//150 166//166
f 94//94 11//11 1//1
f 87//87 86//86 1//1
f 86//86 90//90 1//1
f 1//1 90//90 94//94
f 11//11 99//99 108//108
f 11//11 94//94 99//99
f 122//122 16//16 11//11
f 36//36 26//26 136//136
f 16//16 136//136 26//26
f 136//136 56//56 46//46
f 56//56 136//136 66//66
f 136//136 46//46 36//36
f 66//66 136//136 76//76
f 114//114 11//11 108//108
f 132//132 136//136 16//16
f 11//11 114//114 122//122
f 76//76 165//165 149//149
f 149//149 169//169 180//180
f 149//149 165//165 169//169
f 136//136 165//165 76//76
f 157//157 153//153 202//202
f 149//149 202//202 153//153
f 203//203 202//202 149//149
f 202//202 161//161 157//157
f 202//202 203//203 210//210
f 192//192 203//203 149//149
f 192//192 149//149 180//180
f 122//122 132//132 16//16
f 213//213 204//204 205//205
f 274//274 212//212 213//213
f 256//256 263//263 213//213
f 213//213 270//270 274//274
f 263//263 270//270 213//213
f 224//224 212//212 274//274
f 274//274 235//235 224//224
f 274//274 245//245 235//235
f 249//249 332//332 278//278
f 282//282 391//391 292//292
f 391//391 282//282 278//278
f 249//249 245//245 274//274
f 249//249 274//274 332//332
f 278//278 341//341 351//351
f 361//361 278//278 351//351
f 278//278 371//371 381//381
f 381//381 391//391 278//278
f 371//371 278//278 361//361
f 300//300 292//292 391//391
f 306//306 300//300 391//391
f 407//407 315//315 306//306
f 407//407 324//324 320//320
f 406//406 328//328 407//407
f 324//324 407//407 328//328
f 407//407 320//320 315//315
f 306//306 391//391 407//407
f 332//332 341//341 278//278
f 273//273 244//244 248//248
f 273//273 234//234 244//244
f 401//401 291//291 299//299
f 277//277 331//331 248//248
f 396//396 277//277 281//281
f 331//331 273//273 248//248
f 211//211 273//273 210//210
f 211//211 210//210 203//203
f 223//223 273//273 211//211
f 269//269 262//262 210//210
f 262//262 255//255 210//210
f 273//273 269//269 210//210
f 273//273 223//223 234//234
f 396//396 281//281 291//291
f 401//401 314//314 319//319
f 401//401 305//305 314//314
f 323//323 327//327 406//406
f 328//328 406//406 327//327
f 323//323 406//406 319//319
f 401//401 319//319 406//406
f 291//291 401//401 396//396
f 277//277 346//346 331//331
f 277//277 356//356 346//346
f 277//277 376//376 366//366
f 277//277 366//366 356//356
f 277//277 386//386 376//376
f 277//277 396//396 386//386
f 305//305 401//401 299//299
f 212//212 204//204 213//213
f 260//260 259//259 266//266
f 253//253 252//252 259//259
f 261//261 260//260 267//267
f 254//254 253//253 260//260
f 266//266 269//269 273//273
f 273//273 267//267 266//266
f 267//267 273//273 275//275
f 266//266 259//259 269//269
f 255//255 262//262 252//252
f 210//210 255//255 252//252
f 253//253 210//210 252//252
f 261//261 268//268 264//264
f 268//268 275//275 271//271
f 275//275 268//268 267//267
f 214//214 253//253 254//254
f 264//264 257//257 261//261
f 254//254 257//257 214//214
f 210//210 253//253 214//214
f 358//358 359//359 349//349
f 368//368 369//369 359//359
f 378//378 379//379 369//369
f 388//388 389//389 379//379
f 398//398 399//399 389//389
f 403//403 404//404 399//399
f 357//357 358//358 348//348
f 367//367 368//368 358//358
f 377//377 378//378 368//368
f 387//387 388//388 378//378
f 397//397 398//398 388//388
f 402//402 403//403 398//398
f 350//350 339//339 349//349
f 360//360 350//350 359//359
f 370//370 360//360 369//369
f 335//335 348//348 337//337
f 348//348 335//335 347//347
f 369//369 379//379 370//370
f 390//390 380//380 389//389
f 405//405 400//400 404//404
f 414//414 405//405 412//412
f 400//400 390//390 399//399
f 412//412 404//404 410//410
f 347//347 333//333 346//346
f 367//367 357//357 366//366
f 377//377 367//367 376//376
f 357//357 347//347 356//356
f 376//376 386//386 377//377
f 397//397 387//387 396//396
f 410//410 403//403 408//408
f 402//402 397//397 401//401
f 401//401 406//406 402//402
f 161//161 202//202 206//206
f 153//153 157//157 159//159
f 149//149 153//153 155//155
f 157//157 161//161 163//163
f 58//58 57//57 68//68
f 48//48 47//47 58//58
f 38//38 37//37 48//48
f 28//28 27//27 38//38
f 18//18 17//17 28//28
f 13//13 12//12 18//18
f 59//59 58//58 69//69
f 49//49 48//48 59//59
f 39//39 38//38 49//49
f 29//29 28//28 39//39
f 19//19 18//18 29//29
f 14//14 13//13 19//19
f 66//66 76//76 78//78
f 56//56 66//66 67//67
f 46//46 56//56 57//57
f 80//80 68//68 67//67
f 68//68 80//80 82//82
f 47//47 37//37 36//36
f 26//26 36//36 37//37
f 11//11 16//16 17//17
f 1//1 11//11 12//12
f 16//16 26//26 27//27
f 3//3 12//12 13//13
f 69//69 82//82 84//84
f 49//49 59//59 60//60
f 39//39 49//49 50//50
f 59//59 69//69 70//70
f 40//40 30//30 29//29
f 19//19 29//29 30//30
f 5//5 13//13 14//14
f 14//14 19//19 20//20
f 15//15 9//9 7//7
f 33//33 32//32 23//23
f 43//43 42//42 33//33
f 53//53 52//52 43//43
f 63//63 62//62 53//53
f 73//73 72//72 63//63
f 34//34 33//33 24//24
f 44//44 43//43 34//34
f 54//54 53//53 44//44
f 64//64 63//63 54//54
f 74//74 73//73 64//64
f 21//21 2//2 4//4
f 41//41 31//31 32//32
f 31//31 21//21 22//22
f 6//6 23//23 22//22
f 23//23 6//6 8//8
f 61//61 51//51 52//52
f 77//77 71//71 72//72
f 71//71 61//61 62//62
f 42//42 52//52 51//51
f 79//79 72//72 73//73
f 24//24 8//8 10//10
f 44//44 34//34 35//35
f 34//34 24//24 25//25
f 54//54 44//44 45//45
f 74//74 83//83 81//81
f 74//74 64//64 65//65
f 75//75 85//85 83//83
f 55//55 65//65 64//64
f 154//154 150//150 152//152
f 162//162 158//158 160//160
f 205//205 162//162 164//164
f 158//158 154//154 156//156
f 256//256 213//213 258//258
f 270//270 263//263 272//272
f 274//274 270//270 276//276
f 263//263 256//256 265//265
f 353//353 352//352 342//342
f 363//363 362//362 352//352
f 373//373 372//372 362//362
f 383//383 382//382 372//372
f 393//393 392//392 382//382
f 354//354 353//353 343//343
f 364//364 363//363 353//353
f 374//374 373//373 363//363
f 384//384 383//383 373//373
f 394//394 393//393 383//383
f 341//341 332//332 342//342
f 361//361 351//351 362//362
f 351//351 341//341 352//352
f 336//336 343//343 334//334
f 343//343 336//336 344//344
f 381//381 371//371 382//382
f 407//407 391//391 409//409
f 391//391 381//381 392//392
f 362//362 372//372 361//361
f 409//409 392//392 411//411
f 344//344 338//338 345//345
f 364//364 354//354 365//365
f 354//354 344//344 355//355
f 374//374 364//364 375//375
f 394//394 413//413 393//393
f 394//394 384//384 395//395
f 395//395 415//415 394//394
f 375//375 385//385 374//374
f 89//89 88//88 87//87
f 118//118 120//120 107//107
f 112//112 118//118 106//106
f 127//127 128//128 120//120
f 126//126 127//127 118//118
f 107//107 90//90 86//86
f 107//107 94//94 90//90
f 120//120 99//99 94//94
f 108//108 99//99 120//120
f 106//106 107//107 86//86
f 105//105 88//88 92//92
f 105//105 92//92 96//96
f 88//88 105//105 106//106
f 110//110 112//112 101//101
f 105//105 96//96 101//101
f 106//106 86//86 88//88
f 128//128 114//114 108//108
f 122//122 114//114 128//128
f 128//128 132//132 122//122
f 128//128 136//136 132//132
f 127//127 136//136 128//128
f 116//116 112//112 110//110
f 116//116 126//126 112//112
f 116//116 124//124 126//126
f 134//134 126//126 124//124
f 126//126 134//134 138//138
f 138//138 127//127 126//126
f 138//138 136//136 127//127
f 138//138 167//167 136//136
f 188//188 190//190 179//179
f 186//186 188//188 178//178
f 184//184 186//186 177//177
f 197//197 199//199 190//190
f 196//196 197//197 188//188
f 191//191 196//196 186//186
f 179//179 169//169 165//165
f 190//190 180//180 169//169
f 165//165 178//178 179//179
f 167//167 177//177 165//165
f 175//175 167//167 171//171
f 175//175 171//171 182//182
f 167//167 175//175 177//177
f 180//180 190//190 199//199
f 197//197 203//203 199//199
f 192//192 199//199 203//203
f 203//203 197//197 207//207
f 184//184 182//182 194//194
f 194//194 207//207 191//191
f 196//196 191//191 207//207
f 207//207 215//215 211//211
f 230//230 228//228 219//219
f 232//232 230//230 221//221
f 242//242 240//240 230//230
f 243//243 242//242 232//232
f 218//218 223//223 211//211
f 228//228 234//234 218//218
f 219//219 218//218 211//211
f 221//221 215//215 226//226
f 236//236 232//232 226//226
f 215//215 221//221 219//219
f 219//219 211//211 215//215
f 234//234 228//228 244//244
f 248//248 240//240 242//242
f 240//240 248//248 244//244
f 250//250 248//248 242//242
f 232//232 236//236 243//243
f 246//246 250//250 243//243
f 242//242 243//243 250//250
f 250//250 279//279 277//277
f 297//297 295//295 286//286
f 303//303 297//297 288//288
f 313//313 311//311 297//297
f 318//318 313//313 303//303
f 285//285 281//281 277//277
f 285//285 291//291 281//281
f 295//295 305//305 285//285
f 291//291 285//285 299//299
f 286//286 285//285 277//277
f 288//288 279//279 283//283
f 288//288 283//283 293//293
f 293//293 301//301 288//288
f 288//288 301//301 303//303
f 279//279 288//288 286//286
f 286//286 277//277 279//279
f 295//295 314//314 305//305
f 319//319 314//314 311//311
f 327//327 311//311 313//313
f 311//311 323//323 319//319
f 311//311 327//327 323//323
f 329//329 327//327 313//313
f 307//307 316//316 303//303
f 318//318 303//303 316//316
f 316//316 321//321 318//318
f 325//325 318//318 321//321
f 318//318 325//325 329//329
f 329//329 313//313 318//318
f 314//314 295//295 311//311
f 329//329 330//330 328//328
f 298//298 296//296 310//310
f 304//304 298//298 312//312
f 289//289 287//287 298//298
f 290//290 289//289 304//304
f 309//309 324//324 328//328
f 309//309 320//320 324//324
f 296//296 306//306 309//309
f 320//320 309//309 315//315
f 310//310 309//309 328//328
f 312//312 330//330 326//326
f 312//312 326//326 322//322
f 330//330 312//312 310//310
f 308//308 304//304 317//317
f 312//312 322//322 304//304
f 310//310 328//328 330//330
f 287//287 300//300 296//296
f 292//292 300//300 287//287
f 287//287 282//282 292//292
f 287//287 278//278 282//282
f 289//289 278//278 287//287
f 302//302 304//304 308//308
f 302//302 290//290 304//304
f 302//302 294//294 290//290
f 284//284 290//290 294//294
f 290//290 284//284 280//280
f 280//280 289//289 290//290
f 280//280 278//278 289//289
f 280//280 251//251 249//249
f 231//231 229//229 239//239
f 233//233 231//231 241//241
f 222//222 220//220 231//231
f 225//225 222//222 233//233
f 238//238 245//245 249//249
f 229//229 235//235 238//238
f 239//239 238//238 249//249
f 241//241 239//239 251//251
f 249//249 251//251 239//239
f 241//241 247//247 233//233
f 251//251 247//247 241//241
f 235//235 229//229 224//224
f 220//220 212//212 224//224
f 222//222 212//212 220//220
f 233//233 237//237 225//225
f 227//227 216//216 225//225
f 222//222 225//225 216//216
f 216//216 212//212 222//222
f 216//216 208//208 204//204
f 187//187 189//189 201//201
f 185//185 187//187 200//200
f 174//174 176//176 189//189
f 173//173 174//174 187//187
f 201//201 193//193 204//204
f 189//189 181//181 193//193
f 200//200 201//201 204//204
f 198//198 208//208 195//195
f 183//183 185//185 198//198
f 208//208 198//198 200//200
f 200//200 204//204 208//208
f 176//176 170//170 181//181
f 166//166 176//176 174//174
f 176//176 166//166 170//170
f 168//168 166//166 174//174
f 185//185 183//183 172//172
f 172//172 168//168 173//173
f 174//174 173//173 168//168
f 168//168 139//139 166//166
f 119//119 121//121 131//131
f 113//113 119//119 130//130
f 103//103 104//104 121//121
f 98//98 103//103 119//119
f 131//131 133//133 137//137
f 131//131 123//123 133//133
f 121//121 109//109 115//115
f 123//123 131//131 115//115
f 130//130 131//131 137//137
f 129//129 139//139 135//135
f 129//129 135//135 125//125
f 125//125 117//117 129//129
f 129//129 117//117 111//111
f 139//139 129//129 130//130
f 130//130 137//137 139//139
f 121//121 100//100 109//109
f 95//95 100//100 104//104
f 87//87 104//104 103//103
f 104//104 91//91 95//95
f 104//104 87//87 91//91
f 89//89 87//87 103//103
f 111//111 102//102 113//113
f 98//98 113//113 102//102
f 102//102 97//97 98//98
f 93//93 98//98 97//97
f 98//98 93//93 89//89
f 89//89 103//103 98//98
f 100//100 121//121 104//104
f 210//210 206//206 202//202
f 149//149 80//80 78//78
f 3//3 4//4 2//2
f 4//4 3//3 5//5
f 9//9 10//10 8//8
f 6//6 5//5 7//7
f 144//144 142//142 145//145
f 143//143 141//141 144//144
f 147//147 145//145 148//148
f 146//146 144//144 147//147
f 83//83 142//142 141//141
f 81//81 141//141 140//140
f 77//77 140//140 143//143
f 205//205 217//217 213//213
f 274//274 336//336 334//334
f 408//408 407//407 409//409
f 412//412 411//411 413//413
f 414//414 413//413 415//415
f 410//410 409//409 411//411
f 260//260 266//266 267//267
f 253//253 259//259 260//260
f 261//261 267//267 268//268
f 254//254 260//260 261//261
f 259//259 262//262 269//269
f 262//262 259//259 252//252
f 268//268 271//271 264//264
f 257//257 254//254 261//261
f 358//358 349//349 348//348
f 368//368 359//359 358//358
f 378//378 369//369 368//368
f 388//388 379//379 378//378
f 398//398 389//389 388//388
f 403//403 399//399 398//398
f 357//357 348//348 347//347
f 367//367 358//358 357//357
f 377//377 368//368 367//367
f 387//387 378//378 377//377
f 397//397 388//388 387//387
f 402//402 398//398 397//397
f 339//339 337//337 349//349
f 350//350 349//349 359//359
f 360//360 359//359 369//369
f 348//348 349//349 337//337
f 335//335 333//333 347//347
f 379//379 380//380 370//370
f 380//380 379//379 389//389
f 400//400 399//399 404//404
f 405//405 404//404 412//412
f 390//390 389//389 399//399
f 404//404 403//403 410//410
f 333//333 331//331 346//346
f 357//357 356//356 366//366
f 367//367 366//366 376//376
f 347//347 346//346 356//356
f 386//386 387//387 377//377
f 387//387 386//386 396//396
f 403//403 402//402 408//408
f 397//397 396//396 401//401
f 406//406 408//408 402//402
f 161//161 206//206 163//163
f 153//153 159//159 155//155
f 149//149 155//155 151//151
f 157//157 163//163 159//159
f 57//57 67//67 68//68
f 47//47 57//57 58//58
f 37//37 47//47 48//48
f 27//27 37//37 38//38
f 17//17 27//27 28//28
f 12//12 17//17 18//18
f 58//58 68//68 69//69
f 48//48 58//58 59//59
f 38//38 48//48 49//49
f 28//28 38//38 39//39
f 18//18 28//28 29//29
f 13//13 18//18 19//19
f 66//66 78//78 67//67
f 56//56 67//67 57//57
f 46//46 57//57 47//47
f 80//80 67//67 78//78
f 68//68 82//82 69//69
f 47//47 36//36 46//46
f 26//26 37//37 27//27
f 11//11 17//17 12//12
f 1//1 12//12 3//3
f 16//16 27//27 17//17
f 3//3 13//13 5//5
f 69//69 84//84 70//70
f 49//49 60//60 50//50
f 39//39 50//50 40//40
f 59//59 70//70 60//60
f 40//40 29//29 39//39
f 19//19 30//30 20//20
f 5//5 14//14 7//7
f 14//14 20//20 15//15
f 15//15 7//7 14//14
f 32//32 22//22 23//23
f 42//42 32//32 33//33
f 52//52 42//42 43//43
f 62//62 52//52 53//53
f 72//72 62//62 63//63
f 33//33 23//23 24//24
f 43//43 33//33 34//34
f 53//53 43//43 44//44
f 63//63 53//53 54//54
f 73//73 63//63 64//64
f 21//21 4//4 22//22
f 41//41 32//32 42//42
f 31//31 22//22 32//32
f 6//6 22//22 4//4
f 23//23 8//8 24//24
f 61//61 52//52 62//62
f 77//77 72//72 79//79
f 71//71 62//62 72//72
f 42//42 51//51 41//41
f 79//79 73//73 81//81
f 24//24 10//10 25//25
f 44//44 35//35 45//45
f 34//34 25//25 35//35
f 54//54 45//45 55//55
f 74//74 81//81 73//73
f 74//74 65//65 75//75
f 75//75 83//83 74//74
f 55//55 64//64 54//54
f 154//154 152//152 156//156
f 162//162 160//160 164//164
f 205//205 164//164 209//209
f 158//158 156//156 160//160
f 213//213 217//217 258//258
f 263//263 265//265 272//272
f 270//270 272//272 276//276
f 256//256 258//258 265//265
f 353//353 342//342 343//343
f 363//363 352//352 353//353
f 373//373 362//362 363//363
f 383//383 372//372 373//373
f 393//393 382//382 383//383
f 354//354 343//343 344//344
f 364//364 353//353 354//354
f 374//374 363//363 364//364
f 384//384 373//373 374//374
f 394//394 383//383 384//384
f 332//332 334//334 342//342
f 351//351 352//352 362//362
f 341//341 342//342 352//352
f 343//343 342//342 334//334
f 336//336 338//338 344//344
f 371//371 372//372 382//382
f 391//391 392//392 409//409
f 381//381 382//382 392//392
f 372//372 371//371 361//361
f 392//392 393//393 411//411
f 338//338 340//340 345//345
f 354//354 355//355 365//365
f 344//344 345//345 355//355
f 364//364 365//365 375//375
f 413//413 411//411 393//393
f 384//384 385//385 395//395
f 415//415 413//413 394//394
f 385//385 384//384 374//374
f 88//88 86//86 87//87
f 118//118 107//107 106//106
f 112//112 106//106 105//105
f 127//127 120//120 118//118
f 126//126 118//118 112//112
f 120//120 94//94 107//107
f 105//105 101//101 112//112
f 128//128 108//108 120//120
f 167//167 165//165 136//136
f 188//188 179//179 178//178
f 186//186 178//178 177//177
f 184//184 177//177 175//175
f 197//197 190//190 188//188
f 196//196 188//188 186//186
f 191//191 186//186 184//184
f 190//190 169//169 179//179
f 177//177 178//178 165//165
f 175//175 182//182 184//184
f 180//180 199//199 192//192
f 197//197 196//196 207//207
f 184//184 194//194 191//191
f 207//207 211//211 203//203
f 228//228 218//218 219//219
f 230//230 219//219 221//221
f 240//240 228//228 230//230
f 242//242 230//230 232//232
f 234//234 223//223 218//218
f 232//232 221//221 226//226
f 228//228 240//240 244//244
f 236//236 246//246 243//243
f 250//250 277//277 248//248
f 295//295 285//285 286//286
f 297//297 286//286 288//288
f 311//311 295//295 297//297
f 313//313 297//297 303//303
f 305//305 299//299 285//285
f 301//301 307//307 303//303
f 329//329 328//328 327//327
f 296//296 309//309 310//310
f 298//298 310//310 312//312
f 287//287 296//296 298//298
f 289//289 298//298 304//304
f 306//306 315//315 309//309
f 322//322 317//317 304//304
f 300//300 306//306 296//296
f 280//280 249//249 278//278
f 229//229 238//238 239//239
f 231//231 239//239 241//241
f 220//220 229//229 231//231
f 222//222 231//231 233//233
f 235//235 245//245 238//238
f 247//247 237//237 233//233
f 229//229 220//220 224//224
f 237//237 227//227 225//225
f 216//216 204//204 212//212
f 187//187 201//201 200//200
f 185//185 200//200 198//198
f 174//174 189//189 187//187
f 173//173 187//187 185//185
f 189//189 193//193 201//201
f 183//183 198//198 195//195
f 176//176 181//181 189//189
f 185//185 172//172 173//173
f 139//139 137//137 166//166
f 119//119 131//131 130//130
f 113//113 130//130 129//129
f 103//103 121//121 119//119
f 98//98 119//119 113//113
f 121//121 115//115 131//131
f 129//129 111//111 113//113