# PHANTOM Module: PL5_12
# Units: meters
o PL5_12

v 5.200001 1.200001 2.115305
v 5.200001 1.200001 0.950119
v 5.200001 0.799999 2.077128
v 5.200001 0.799999 0.911943
v 5.200001 0.400000 2.038952
v 5.200001 0.400000 0.873766
v 5.200001 0.000000 2.000775
v 5.200001 0.000000 0.835589
v 5.198452 1.200001 2.143505
v 5.198452 1.200001 0.921919
v 5.198452 0.799999 2.105329
v 5.198452 0.799999 0.883743
v 5.198452 0.400000 2.067152
v 5.198452 0.400000 0.845566
v 5.198452 0.000000 2.028975
v 5.198452 0.000000 0.807389
v 5.193691 1.200001 2.171933
v 5.193691 1.200001 0.893491
v 5.193691 0.799999 2.133757
v 5.193691 0.799999 0.855314
v 5.193691 0.400000 2.095580
v 5.193691 0.400000 0.817138
v 5.193691 0.000000 2.057403
v 5.193691 0.000000 0.778961
v 5.185637 1.200001 2.199935
v 5.185637 1.200001 0.865490
v 5.185637 0.799999 2.161758
v 5.185637 0.799999 0.827313
v 5.185637 0.400000 2.123582
v 5.185637 0.400000 0.789136
v 5.185637 0.000000 2.085405
v 5.185637 0.000000 0.750959
v 5.174364 1.200001 2.226835
v 5.174364 1.200001 0.838589
v 5.174364 0.799999 2.188658
v 5.174364 0.799999 0.800413
v 5.174364 0.400000 2.150482
v 5.174364 0.400000 0.762236
v 5.174364 0.000000 2.112305
v 5.174364 0.000000 0.724059
v 5.160099 1.200001 2.251989
v 5.160099 1.200001 0.813436
v 5.160099 0.799999 2.213812
v 5.160099 0.799999 0.775259
v 5.160099 0.400000 2.175635
v 5.160099 0.400000 0.737082
v 5.160099 0.000000 2.137459
v 5.160099 0.000000 0.698905
v 5.143209 1.200001 2.274832
v 5.143209 1.200001 0.790592
v 5.143209 0.799999 2.236656
v 5.143209 0.799999 0.752415
v 5.143209 0.400000 2.198479
v 5.143209 0.400000 0.714239
v 5.143209 0.000000 2.160302
v 5.143209 0.000000 0.676062
v 5.124168 1.200001 2.294924
v 5.124168 1.200001 0.770500
v 5.124168 0.799999 2.256748
v 5.124168 0.799999 0.732323
v 5.124168 0.400000 2.218571
v 5.124168 0.400000 0.694147
v 5.124168 0.000000 2.180394
v 5.124168 0.000000 0.655970
v 5.103519 1.200001 2.311972
v 5.103519 1.200001 0.753453
v 5.103519 0.799999 2.273795
v 5.103519 0.799999 0.715276
v 5.103519 0.400000 2.235618
v 5.103519 0.400000 0.677099
v 5.103519 0.000000 2.197441
v 5.103519 0.000000 0.638922
v 5.000000 1.200001 2.115305
v 5.000000 1.200001 0.950119
v 5.000000 0.000000 2.000775
v 5.000000 0.000000 0.835589
v 4.999882 1.200001 2.117475
v 4.999882 1.200001 0.947950
v 4.999882 0.000000 2.002944
v 4.999882 0.000000 0.833420
v 4.999516 1.200001 2.119661
v 4.999516 1.200001 0.945763
v 4.999516 0.000000 2.005131
v 4.999516 0.000000 0.831233
v 4.999123 0.299999 0.859868
v 4.998896 1.200001 2.121815
v 4.998896 1.200001 0.943609
v 4.998896 0.000000 2.007285
v 4.998896 0.000000 0.829079
v 4.998796 0.600000 0.888691
v 4.998470 0.900000 0.917514
v 4.998470 0.299999 2.033380
v 4.998362 0.600000 2.061949
v 4.998253 0.900000 2.090518
v 4.998028 1.200001 2.123885
v 4.998028 1.200001 0.941540
v 4.998028 0.000000 2.009354
v 4.998028 0.000000 0.827010
v 4.996943 0.299999 2.037352
v 4.996943 0.299999 0.856277
v 4.996931 1.200001 2.125819
v 4.996931 1.200001 0.939605
v 4.996931 0.000000 2.011289
v 4.996931 0.000000 0.825075
v 4.996725 0.600000 2.065858
v 4.996725 0.600000 0.885036
v 4.996508 0.900000 2.094364
v 4.996508 0.900000 0.913796
v 4.995632 1.200001 2.127577
v 4.995632 1.200001 0.937848
v 4.995632 0.000000 2.013046
v 4.995632 0.000000 0.823318
v 4.995413 0.299999 2.041325
v 4.995087 0.600000 2.069767
v 4.994761 0.900000 2.098209
v 4.994761 0.299999 0.852685
v 4.994652 0.600000 0.881381
v 4.994543 0.900000 0.910077
v 4.994167 1.200001 2.129122
v 4.994167 1.200001 0.936303
v 4.994167 0.000000 2.014592
v 4.994167 0.000000 0.821772
v 4.992579 1.200001 2.130434
v 4.992579 1.200001 0.934991
v 4.992579 0.000000 2.015903
v 4.992579 0.000000 0.820461
v 4.786594 0.900000 2.251607
v 4.786594 0.600000 2.222975
v 4.786594 0.299999 2.194342
v 4.580612 0.900000 2.401413
v 4.580612 0.600000 2.372781
v 4.580612 0.299999 2.344148
v 4.374628 0.900000 2.551220
v 4.374628 0.600000 2.522587
v 4.374628 0.299999 2.493954
v 4.279585 1.200001 2.911197
v 4.279585 1.200001 0.154228
v 4.279585 0.000000 2.796666
v 4.279585 0.000000 0.039697
v 4.252039 1.200001 2.928199
v 4.252039 1.200001 0.137225
v 4.252039 0.000000 2.813669
v 4.252039 0.000000 0.022695
v 4.249538 0.900000 2.892489
v 4.249538 0.600000 2.863856
v 4.249538 0.299999 2.835223
v 4.222185 1.200001 2.940752
v 4.222185 1.200001 0.124672
v 4.222185 0.000000 2.826222
v 4.222185 0.000000 0.010142
v 4.219492 0.900000 2.902413
v 4.219492 0.600000 2.873780
v 4.219492 0.299999 2.845148
v 4.190964 1.200001 2.948373
v 4.190964 1.200001 0.117052
v 4.190964 0.000000 2.833842
v 4.190964 0.000000 0.002522
v 4.189445 0.900000 2.912337
v 4.189445 0.600000 2.883705
v 4.189445 0.299999 2.855072
v 4.168644 1.200001 2.729659
v 4.168644 1.200001 0.335766
v 4.168644 0.000000 2.615128
v 4.168644 0.000000 0.221235
v 4.166525 1.200001 2.730967
v 4.166525 1.200001 0.334458
v 4.166525 0.000000 2.616436
v 4.166525 0.000000 0.219928
v 4.166449 0.299999 0.248685
v 4.166410 0.600000 0.277457
v 4.166372 0.900000 0.306230
v 4.166372 0.299999 2.644664
v 4.166359 0.600000 2.673250
v 4.166346 0.900000 2.701836
v 4.164228 1.200001 2.731932
v 4.164228 1.200001 0.333493
v 4.164228 0.000000 2.617402
v 4.164228 0.000000 0.218962
v 4.164099 0.299999 2.645568
v 4.164099 0.299999 0.248061
v 4.164074 0.600000 2.674107
v 4.164074 0.600000 0.276787
v 4.164047 0.900000 2.702646
v 4.164047 0.900000 0.305513
v 4.161827 1.200001 2.732518
v 4.161827 1.200001 0.332906
v 4.161827 0.299999 2.646471
v 4.161827 0.000000 2.617988
v 4.161827 0.000000 0.218376
v 4.161789 0.600000 2.674964
v 4.161749 0.900000 2.703456
v 4.161749 0.299999 0.247438
v 4.161736 0.600000 0.276117
v 4.161724 0.900000 0.304797
v 4.159399 1.200001 2.950894
v 4.159399 1.200001 2.732713
v 4.159399 1.200001 0.332712
v 4.159399 1.200001 0.114531
v 4.159399 0.000000 2.836364
v 4.159399 0.000000 2.618182
v 4.159399 0.000000 0.218182
v 4.159399 0.000000 0.000000
v 1.040602 1.200001 2.950894
v 1.040602 1.200001 2.732713
v 1.040602 1.200001 0.332712
v 1.040602 1.200001 0.114531
v 1.040602 0.000000 2.836364
v 1.040602 0.000000 2.618182
v 1.040602 0.000000 0.218182
v 1.040602 0.000000 0.000000
v 1.038279 0.900000 2.703363
v 1.038265 0.600000 2.674777
v 1.038252 0.900000 0.304703
v 1.038252 0.299999 2.646191
v 1.038214 0.600000 0.275931
v 1.038174 1.200001 2.732518
v 1.038174 1.200001 0.332906
v 1.038174 0.299999 0.247158
v 1.038174 0.000000 2.617988
v 1.038174 0.000000 0.218376
v 1.035954 0.900000 2.702646
v 1.035954 0.900000 0.305513
v 1.035927 0.600000 2.674107
v 1.035927 0.600000 0.276787
v 1.035902 0.299999 2.645568
v 1.035902 0.299999 0.248061
v 1.035772 1.200001 2.731932
v 1.035772 1.200001 0.333493
v 1.035772 0.000000 2.617402
v 1.035772 0.000000 0.218962
v 1.033655 0.900000 0.306323
v 1.033642 0.600000 0.277644
v 1.033628 0.900000 2.701930
v 1.033628 0.299999 0.248965
v 1.033590 0.600000 2.673437
v 1.033552 0.299999 2.644944
v 1.033476 1.200001 2.730967
v 1.033476 1.200001 0.334458
v 1.033476 0.000000 2.616436
v 1.033476 0.000000 0.219928
v 1.031357 1.200001 2.729659
v 1.031357 1.200001 0.335766
v 1.031357 0.000000 2.615128
v 1.031357 0.000000 0.221235
v 1.009037 1.200001 2.948373
v 1.009037 1.200001 0.117052
v 1.009037 0.000000 2.833842
v 1.009037 0.000000 0.002522
v 0.977816 1.200001 2.940752
v 0.977816 1.200001 0.124672
v 0.977816 0.000000 2.826222
v 0.977816 0.000000 0.010142
v 0.947962 1.200001 2.928199
v 0.947962 1.200001 0.137225
v 0.947962 0.000000 2.813669
v 0.947962 0.000000 0.022695
v 0.920416 1.200001 2.911197
v 0.920416 1.200001 0.154228
v 0.920416 0.000000 2.796666
v 0.920416 0.000000 0.039697
v 0.825373 0.900000 0.456940
v 0.825373 0.600000 0.428307
v 0.825373 0.299999 0.399674
v 0.619390 0.900000 0.606746
v 0.619390 0.600000 0.578113
v 0.619390 0.299999 0.549481
v 0.413405 0.900000 0.756552
v 0.413405 0.600000 0.727920
v 0.413405 0.299999 0.699287
v 0.207422 1.200001 2.130434
v 0.207422 1.200001 0.934991
v 0.207422 0.000000 2.015903
v 0.207422 0.000000 0.820461
v 0.205833 1.200001 2.129122
v 0.205833 1.200001 0.936303
v 0.205833 0.000000 2.014592
v 0.205833 0.000000 0.821772
v 0.205458 0.900000 2.098082
v 0.205349 0.600000 2.069513
v 0.205240 0.900000 0.909950
v 0.205240 0.299999 2.040944
v 0.204915 0.600000 0.881127
v 0.204589 0.299999 0.852304
v 0.204369 1.200001 2.127577
v 0.204369 1.200001 0.937848
v 0.204369 0.000000 2.013046
v 0.204369 0.000000 0.823318
v 0.203494 0.900000 2.094364
v 0.203494 0.900000 0.913796
v 0.203277 0.600000 2.065858
v 0.203277 0.600000 0.885036
v 0.203070 1.200001 2.125819
v 0.203070 1.200001 0.939605
v 0.203070 0.000000 2.011289
v 0.203070 0.000000 0.825075
v 0.203059 0.299999 2.037352
v 0.203059 0.299999 0.856277
v 0.201973 1.200001 2.123885
v 0.201973 1.200001 0.941540
v 0.201973 0.000000 2.009354
v 0.201973 0.000000 0.827010
v 0.201747 0.900000 0.917641
v 0.201638 0.600000 0.888945
v 0.201530 0.900000 2.090645
v 0.201530 0.299999 0.860249
v 0.201204 0.600000 2.062203
v 0.201105 1.200001 2.121815
v 0.201105 1.200001 0.943609
v 0.201105 0.000000 2.007285
v 0.201105 0.000000 0.829079
v 0.200878 0.299999 2.033761
v 0.200486 1.200001 2.119661
v 0.200486 1.200001 0.945763
v 0.200486 0.000000 2.005131
v 0.200486 0.000000 0.831233
v 0.200120 1.200001 2.117475
v 0.200120 1.200001 0.947950
v 0.200120 0.000000 2.002944
v 0.200120 0.000000 0.833420
v 0.200001 1.200001 2.115305
v 0.200001 1.200001 0.950119
v 0.200001 0.000000 2.000775
v 0.200001 0.000000 0.835589
v 0.096482 1.200001 2.311972
v 0.096482 1.200001 0.753453
v 0.096482 0.799999 2.273795
v 0.096482 0.799999 0.715276
v 0.096482 0.400000 2.235618
v 0.096482 0.400000 0.677099
v 0.096482 0.000000 2.197441
v 0.096482 0.000000 0.638922
v 0.075832 1.200001 2.294924
v 0.075832 1.200001 0.770500
v 0.075832 0.799999 2.256748
v 0.075832 0.799999 0.732323
v 0.075832 0.400000 2.218571
v 0.075832 0.400000 0.694147
v 0.075832 0.000000 2.180394
v 0.075832 0.000000 0.655970
v 0.056791 1.200001 2.274832
v 0.056791 1.200001 0.790592
v 0.056791 0.799999 2.236656
v 0.056791 0.799999 0.752415
v 0.056791 0.400000 2.198479
v 0.056791 0.400000 0.714239
v 0.056791 0.000000 2.160302
v 0.056791 0.000000 0.676062
v 0.039902 1.200001 2.251989
v 0.039902 1.200001 0.813436
v 0.039902 0.799999 2.213812
v 0.039902 0.799999 0.775259
v 0.039902 0.400000 2.175635
v 0.039902 0.400000 0.737082
v 0.039902 0.000000 2.137459
v 0.039902 0.000000 0.698905
v 0.025638 1.200001 2.226835
v 0.025638 1.200001 0.838589
v 0.025638 0.799999 2.188658
v 0.025638 0.799999 0.800413
v 0.025638 0.400000 2.150482
v 0.025638 0.400000 0.762236
v 0.025638 0.000000 2.112305
v 0.025638 0.000000 0.724059
v 0.014365 1.200001 2.199935
v 0.014365 1.200001 0.865490
v 0.014365 0.799999 2.161758
v 0.014365 0.799999 0.827313
v 0.014365 0.400000 2.123582
v 0.014365 0.400000 0.789136
v 0.014365 0.000000 2.085405
v 0.014365 0.000000 0.750959
v 0.006310 1.200001 2.171933
v 0.006310 1.200001 0.893491
v 0.006310 0.799999 2.133757
v 0.006310 0.799999 0.855314
v 0.006310 0.400000 2.095580
v 0.006310 0.400000 0.817138
v 0.006310 0.000000 2.057403
v 0.006310 0.000000 0.778961
v 0.001548 1.200001 2.143505
v 0.001548 1.200001 0.921919
v 0.001548 0.799999 2.105329
v 0.001548 0.799999 0.883743
v 0.001548 0.400000 2.067152
v 0.001548 0.400000 0.845566
v 0.001548 0.000000 2.028975
v 0.001548 0.000000 0.807389
v 0.000000 1.200001 2.115305
v 0.000000 1.200001 0.950119
v 0.000000 0.799999 2.077128
v 0.000000 0.799999 0.911943
v 0.000000 0.400000 2.038952
v 0.000000 0.400000 0.873766
v 0.000000 0.000000 2.000775
v 0.000000 0.000000 0.835589

vn 0.514814 0.857095 0.018840
vn 0.599267 0.800474 -0.010960
vn 0.999620 -0.002618 0.027429
vn 0.999620 0.002618 -0.027429
vn 0.999620 -0.002618 0.027429
vn 0.999620 0.002618 -0.027429
vn 0.513886 -0.857807 0.009398
vn 0.600472 -0.799344 -0.021974
vn 0.445167 0.893586 0.057711
vn 0.443270 0.895458 -0.040836
vn 0.993858 -0.010514 0.110163
vn 0.993858 0.010514 -0.110163
vn 0.993858 -0.010514 0.110163
vn 0.993858 0.010514 -0.110163
vn 0.443270 -0.895458 0.040837
vn 0.445167 -0.893586 -0.057711
vn 0.588304 0.795488 0.145245
vn 0.581537 0.804579 -0.120281
vn 0.975021 -0.021103 0.221108
vn 0.975021 0.021103 -0.221108
vn 0.975021 -0.021103 0.221108
vn 0.975021 0.021103 -0.221108
vn 0.581537 -0.804579 0.120281
vn 0.588304 -0.795488 -0.145245
vn 0.790820 0.535828 0.295790
vn 0.778672 0.572313 -0.257154
vn 0.942799 -0.031673 0.331853
vn 0.942799 0.031673 -0.331853
vn 0.942799 -0.031673 0.331853
vn 0.942799 0.031673 -0.331853
vn 0.778672 -0.572313 0.257154
vn 0.790820 -0.535828 -0.295790
vn 0.753781 0.529762 0.388801
vn 0.739421 0.578170 -0.344928
vn 0.896878 -0.042021 0.440277
vn 0.896878 0.042021 -0.440277
vn 0.896878 -0.042021 0.440277
vn 0.896878 0.042021 -0.440277
vn 0.739421 -0.578171 0.344927
vn 0.753781 -0.529761 -0.388801
vn 0.704714 0.523924 0.478416
vn 0.689581 0.583760 -0.428605
vn 0.837376 -0.051935 0.544155
vn 0.837376 0.051935 -0.544155
vn 0.837375 -0.051935 0.544156
vn 0.837376 0.051935 -0.544155
vn 0.689581 -0.583760 0.428605
vn 0.704714 -0.523924 -0.478416
vn 0.644042 0.518452 0.562510
vn 0.629797 0.588964 -0.506436
vn 0.764959 -0.061194 0.641166
vn 0.764958 0.061194 -0.641167
vn 0.764958 -0.061194 0.641166
vn 0.764958 0.061194 -0.641167
vn 0.629796 -0.588964 0.506436
vn 0.644042 -0.518452 -0.562510
vn 0.572777 0.513479 0.638957
vn 0.561099 0.593670 -0.576822
vn 0.680870 -0.069586 0.729091
vn 0.680870 0.069586 -0.729091
vn 0.680871 -0.069586 0.729090
vn 0.680870 0.069586 -0.729091
vn 0.561099 -0.593671 0.576822
vn 0.572777 -0.513478 -0.638957
vn 0.351202 0.819414 0.453009
vn 0.422155 0.733145 -0.533181
vn 0.610965 -0.075216 0.788077
vn 0.615806 0.074858 -0.784333
vn 0.615807 -0.074859 0.784333
vn 0.610965 0.075216 -0.788076
vn 0.422155 -0.733146 0.533181
vn 0.351201 -0.819414 -0.453010
vn -0.859803 0.470500 -0.198415
vn -0.848418 0.511842 0.134924
vn -0.919435 -0.365101 -0.146087
vn -0.788718 -0.608083 0.090324
vn -0.696883 0.713028 -0.077102
vn -0.704538 0.705372 0.077950
vn -0.704538 -0.705372 -0.077950
vn -0.697968 -0.711953 0.077223
vn -0.664427 0.720441 -0.198751
vn -0.544655 0.829510 0.123549
vn -0.544655 -0.829510 -0.123549
vn -0.534712 -0.836284 0.121293
vn -0.949351 -0.031444 0.312641
vn -0.653630 0.720949 -0.230220
vn -0.780405 0.537986 0.318652
vn -0.791993 -0.538621 -0.287461
vn -0.747937 -0.579937 0.322899
vn -0.921837 -0.037786 0.385732
vn -0.948367 -0.027721 0.315963
vn -0.965533 0.021917 -0.259354
vn -0.923566 0.036019 -0.381743
vn -0.948336 0.032218 -0.315628
vn -0.733787 0.581557 -0.351208
vn -0.645547 0.694855 0.316931
vn -0.646068 -0.694255 -0.317186
vn -0.619359 -0.723835 0.304066
vn -0.921712 0.034327 -0.386352
vn -0.868739 -0.049595 0.492781
vn -0.575566 0.727270 -0.373901
vn -0.724830 0.529736 0.440456
vn -0.740522 -0.531780 -0.410897
vn -0.683704 -0.586379 0.434405
vn -0.921729 0.036024 -0.386157
vn -0.868913 -0.047857 0.492645
vn -0.921474 0.039714 -0.386405
vn -0.885459 -0.041378 0.462871
vn -0.411538 0.843608 -0.344908
vn -0.435413 0.822945 0.364935
vn -0.436030 -0.822389 -0.365450
vn -0.411531 -0.843609 0.344915
vn -0.822997 0.052352 -0.565628
vn -0.867226 0.046339 -0.495754
vn -0.832317 0.055548 -0.551509
vn -0.790385 -0.061101 0.609556
vn -0.866344 -0.047868 0.497149
vn -0.822913 -0.051323 0.565844
vn -0.464006 0.733313 -0.496942
vn -0.497450 0.684606 0.532784
vn -0.498195 -0.683440 -0.533583
vn -0.464002 -0.733312 0.496946
vn -0.428834 0.777176 -0.460541
vn -0.343752 0.893587 0.288681
vn -0.437834 -0.733732 -0.519556
vn -0.363515 -0.861868 0.353611
vn -0.586429 0.076959 -0.806336
vn -0.586428 0.076958 -0.806337
vn -0.586429 0.076957 -0.806336
vn -0.586428 0.076959 -0.806337
vn -0.586428 0.076958 -0.806337
vn -0.586428 0.076958 -0.806337
vn -0.586426 0.076959 -0.806338
vn -0.586426 0.076959 -0.806338
vn -0.586426 0.076958 -0.806338
vn 0.282691 0.799426 0.530098
vn 0.274125 0.878027 -0.392332
vn 0.305125 -0.783487 0.541338
vn 0.285268 -0.858956 -0.425225
vn 0.358519 0.488243 0.795665
vn 0.383705 0.602282 -0.700020
vn 0.313396 -0.728962 0.608602
vn 0.375188 -0.504912 -0.777366
vn 0.355746 -0.098578 0.929369
vn 0.312354 -0.090256 0.945668
vn 0.371386 -0.071715 0.925705
vn 0.274452 0.482983 0.831507
vn 0.269291 0.605599 -0.748820
vn 0.253262 -0.589155 0.767303
vn 0.249222 -0.501661 -0.828387
vn 0.324283 -0.104935 0.940122
vn 0.312353 -0.090257 0.945669
vn 0.300139 -0.075423 0.950909
vn 0.148245 0.359895 0.921140
vn 0.170121 0.394664 -0.902939
vn 0.196016 -0.372182 0.907226
vn 0.128817 -0.234442 -0.963558
vn 0.251199 -0.108493 0.961836
vn 0.312353 -0.090257 0.945669
vn 0.267121 -0.081617 0.960201
vn -0.453462 0.458419 -0.764345
vn -0.435253 0.463750 0.771681
vn -0.490464 -0.331417 -0.805982
vn -0.395907 -0.641509 0.657057
vn -0.331728 0.605424 -0.723477
vn -0.336397 0.678272 0.653287
vn -0.336381 -0.678270 -0.653297
vn -0.312172 -0.606457 0.731272
vn -0.369548 -0.088728 0.924966
vn -0.351359 -0.089323 0.931970
vn -0.363477 -0.087689 0.927467
vn -0.407238 0.085829 -0.909280
vn -0.352699 0.088746 -0.931519
vn -0.370889 0.088797 -0.924422
vn -0.254175 0.606770 -0.753144
vn -0.265444 0.502932 0.822557
vn -0.287042 -0.503308 -0.815038
vn -0.233999 -0.607074 0.759411
vn -0.343406 0.088494 -0.935008
vn -0.280637 -0.091931 0.955401
vn -0.349688 0.088695 -0.932658
vn -0.274442 -0.091681 0.957223
vn -0.343415 0.090076 -0.934854
vn -0.280851 -0.090338 0.955490
vn -0.106733 0.740982 -0.662988
vn -0.177056 0.502255 0.846399
vn -0.251903 0.091501 -0.963417
vn -0.199179 -0.503303 -0.840841
vn -0.106705 -0.740983 0.662992
vn -0.271751 0.091063 -0.958050
vn -0.259267 0.092591 -0.961357
vn -0.212923 -0.093788 0.972557
vn -0.271204 -0.091608 0.958152
vn -0.251571 -0.091383 0.963515
vn 0.116123 0.759861 0.639630
vn -0.099930 0.741881 -0.663043
vn -0.109752 0.582620 0.805301
vn 0.023697 0.803984 -0.594179
vn 0.095930 -0.741204 0.664390
vn -0.058839 -0.579324 -0.812971
vn -0.100012 -0.741694 0.663240
vn 0.015230 -0.924089 -0.381874
vn -0.012296 0.886428 0.462704
vn 0.110538 0.575251 -0.810474
vn 0.124113 0.553549 0.823516
vn -0.022790 0.903318 -0.428366
vn -0.022790 -0.903318 0.428366
vn 0.124139 -0.553290 -0.823686
vn 0.059195 -0.573307 0.817199
vn -0.012296 -0.886428 -0.462704
vn 0.243860 0.093227 -0.965319
vn 0.277565 0.091117 -0.956376
vn 0.282171 -0.090833 0.955054
vn 0.220619 0.091968 -0.971015
vn 0.278023 -0.091636 0.956194
vn 0.106714 0.741089 -0.662872
vn 0.188133 0.502893 0.843626
vn 0.228673 -0.093199 0.969032
vn 0.165860 -0.501382 -0.849180
vn 0.106761 -0.740663 0.663340
vn 0.305836 0.091302 -0.947696
vn 0.318617 -0.089212 0.943676
vn 0.274423 0.091044 -0.957289
vn 0.349533 -0.089335 0.932655
vn 0.255403 0.090904 -0.962552
vn 0.367891 -0.089296 0.925571
vn 0.244056 0.607040 -0.756267
vn 0.276307 0.503239 0.818783
vn 0.254622 -0.502394 -0.826298
vn 0.264239 -0.606267 0.750079
vn 0.378220 -0.086878 0.921630
vn 0.346523 -0.089283 0.933783
vn 0.341219 0.089618 -0.935702
vn 0.399983 -0.087771 0.912310
vn 0.345239 0.088799 -0.934305
vn 0.391638 0.086718 -0.916024
vn 0.321898 0.606057 -0.727377
vn 0.336348 0.678387 0.653193
vn 0.336527 -0.677926 -0.653579
vn 0.341477 -0.604568 0.719647
vn 0.356258 0.644335 -0.676693
vn 0.481349 0.331718 0.811336
vn 0.470459 -0.463265 -0.751036
vn 0.462271 -0.457394 0.759668
vn -0.128817 0.234442 0.963557
vn -0.170121 0.394664 -0.902939
vn -0.170122 -0.394664 0.902939
vn -0.128817 -0.234442 -0.963558
vn -0.249224 0.501661 0.828386
vn -0.269291 0.605599 -0.748820
vn -0.269292 -0.605599 0.748820
vn -0.249222 -0.501661 -0.828387
vn -0.375188 0.504912 0.777366
vn -0.383705 0.602281 -0.700020
vn -0.383705 -0.602281 0.700020
vn -0.375188 -0.504912 -0.777366
vn -0.339154 0.798508 0.497354
vn -0.274126 0.878027 -0.392332
vn -0.216707 -0.924236 0.314366
vn -0.285268 -0.858956 -0.425225
vn 0.586428 -0.076959 0.806337
vn 0.586428 -0.076959 0.806337
vn 0.586428 -0.076958 0.806337
vn 0.586427 -0.076959 0.806338
vn 0.586427 -0.076959 0.806338
vn 0.586428 -0.076958 0.806337
vn 0.586427 -0.076959 0.806338
vn 0.586427 -0.076959 0.806338
vn 0.586427 -0.076958 0.806338
vn 0.370530 0.862888 -0.343704
vn 0.459492 0.738479 0.493472
vn 0.336857 -0.892295 -0.300562
vn 0.407346 -0.774904 0.483314
vn 0.463806 0.733584 -0.496728
vn 0.497636 0.684315 0.532984
vn 0.497635 -0.684315 -0.532984
vn 0.464600 -0.732499 0.497586
vn 0.814329 0.058387 -0.577459
vn 0.871376 0.046198 -0.488436
vn 0.841903 -0.049254 0.537376
vn 0.802921 0.054029 -0.593632
vn 0.872055 -0.047465 0.487100
vn 0.813004 -0.057275 0.579434
vn 0.411369 0.843749 -0.344766
vn 0.435567 0.822806 0.365064
vn 0.435568 -0.822805 -0.365063
vn 0.412037 -0.843188 0.345340
vn 0.885194 0.047093 -0.462833
vn 0.908050 -0.036906 0.417232
vn 0.868968 0.046187 -0.492708
vn 0.921606 -0.037699 0.386291
vn 0.692220 0.586461 -0.420588
vn 0.732724 0.531107 0.425489
vn 0.716979 -0.527707 -0.455485
vn 0.576335 -0.726412 0.374385
vn 0.858984 0.046048 -0.509927
vn 0.934042 -0.036742 0.355269
vn 0.618810 0.724412 -0.303811
vn 0.645546 0.694856 0.316930
vn 0.748885 -0.531527 -0.395792
vn 0.741686 -0.579805 0.337236
vn 0.954495 -0.025188 0.297160
vn 0.919673 -0.037721 0.390870
vn 0.938943 0.034636 -0.342325
vn 0.960067 -0.028805 0.278283
vn 0.917948 0.036728 -0.394997
vn 0.754660 0.579265 -0.308125
vn 0.786187 0.538638 0.302952
vn 0.676337 -0.697058 -0.238070
vn 0.654234 -0.720378 0.230288
vn 0.954654 0.026362 -0.296548
vn 0.534140 0.836686 -0.121044
vn 0.544484 0.829645 0.123394
vn 0.545270 -0.829102 -0.123571
vn 0.669949 -0.718676 0.186207
vn 0.697137 0.712760 -0.077285
vn 0.704267 0.705629 0.078076
vn 0.705339 -0.704544 -0.078194
vn 0.697137 -0.712760 0.077285
vn 0.867042 0.466991 -0.173659
vn 0.844845 0.512217 0.154499
vn 0.926455 -0.366739 -0.084750
vn 0.772642 -0.615741 0.154555
vn -0.351197 0.819414 0.453014
vn -0.422147 0.733146 -0.533188
vn -0.615795 -0.074859 0.784342
vn -0.615796 0.074859 -0.784342
vn -0.610957 -0.075216 0.788082
vn -0.610957 0.075216 -0.788083
vn -0.422147 -0.733146 0.533188
vn -0.351197 -0.819414 -0.453014
vn -0.572768 0.513478 0.638966
vn -0.561095 0.593671 -0.576825
vn -0.680862 -0.069587 0.729099
vn -0.680862 0.069587 -0.729099
vn -0.680863 -0.069587 0.729098
vn -0.680862 0.069587 -0.729099
vn -0.561094 -0.593671 0.576825
vn -0.572768 -0.513478 -0.638966
vn -0.644042 0.518452 0.562510
vn -0.629797 0.588964 -0.506436
vn -0.764959 -0.061194 0.641166
vn -0.764958 0.061194 -0.641167
vn -0.764958 -0.061194 0.641166
vn -0.764958 0.061194 -0.641167
vn -0.629796 -0.588964 0.506436
vn -0.644042 -0.518452 -0.562510
vn -0.704718 0.523925 0.478409
vn -0.689590 0.583760 -0.428592
vn -0.837384 -0.051934 0.544143
vn -0.837384 0.051934 -0.544143
vn -0.837383 -0.051934 0.544144
vn -0.837384 0.051934 -0.544143
vn -0.689590 -0.583760 0.428592
vn -0.704718 -0.523924 -0.478409
vn -0.753788 0.529762 0.388786
vn -0.739425 0.578170 -0.344921
vn -0.896884 -0.042020 0.440265
vn -0.896884 0.042020 -0.440264
vn -0.896884 -0.042020 0.440264
vn -0.896884 0.042020 -0.440264
vn -0.739425 -0.578170 0.344920
vn -0.753788 -0.529762 -0.388787
vn -0.790820 0.535828 0.295790
vn -0.778672 0.572313 -0.257154
vn -0.942799 -0.031673 0.331853
vn -0.942799 0.031673 -0.331853
vn -0.942799 -0.031673 0.331853
vn -0.942799 0.031673 -0.331853
vn -0.778672 -0.572313 0.257154
vn -0.790820 -0.535828 -0.295790
vn -0.588302 0.795488 0.145258
vn -0.581531 0.804580 -0.120306
vn -0.975014 -0.021106 0.221140
vn -0.975014 0.021106 -0.221140
vn -0.975014 -0.021106 0.221139
vn -0.975014 0.021106 -0.221140
vn -0.581531 -0.804580 0.120306
vn -0.588302 -0.795488 -0.145258
vn -0.445164 0.893586 0.057726
vn -0.443269 0.895458 -0.040836
vn -0.993856 -0.010516 0.110178
vn -0.993856 0.010516 -0.110178
vn -0.993856 -0.010516 0.110179
vn -0.993856 0.010516 -0.110178
vn -0.443269 -0.895458 0.040836
vn -0.445164 -0.893586 -0.057725
vn -0.514814 0.857095 0.018828
vn -0.599268 0.800474 -0.010953
vn -0.999621 -0.002616 0.027412
vn -0.999621 0.002616 -0.027412
vn -0.999621 -0.002616 0.027412
vn -0.999621 0.002616 -0.027412
vn -0.513886 -0.857807 0.009392
vn -0.600472 -0.799344 -0.021961

f 259//259 328//328 330//330
f 257//257 326//326 328//328
f 324//324 326//326 257//257
f 259//259 257//257 328//328
f 203//203 207//207 199//199
f 136//136 138//138 67//67
f 71//71 69//69 138//138
f 136//136 67//67 65//65
f 1//1 3//3 2//2
f 6//6 4//4 5//5
f 5//5 7//7 6//6
f 139//139 70//70 72//72
f 137//137 68//68 70//70
f 66//66 68//68 137//137
f 139//139 137//137 70//70
f 198//198 202//202 210//210
f 258//258 260//260 329//329
f 331//331 329//329 260//260
f 258//258 327//327 325//325
f 390//390 388//388 389//389
f 394//394 392//392 393//393
f 392//392 390//390 391//391
f 112//112 24//24 16//16
f 126//126 32//32 24//24
f 56//56 48//48 126//126
f 40//40 126//126 48//48
f 126//126 40//40 32//32
f 126//126 64//64 56//56
f 80//80 8//8 76//76
f 16//16 8//8 84//84
f 7//7 76//76 8//8
f 16//16 89//89 98//98
f 8//8 80//80 84//84
f 16//16 84//84 89//89
f 104//104 16//16 98//98
f 126//126 72//72 64//64
f 143//143 139//139 202//202
f 150//150 143//143 202//202
f 139//139 201//201 202//202
f 201//201 139//139 189//189
f 202//202 157//157 150//150
f 178//178 189//189 139//139
f 16//16 104//104 112//112
f 122//122 24//24 112//112
f 139//139 168//168 178//178
f 164//164 72//72 126//126
f 139//139 164//164 168//168
f 122//122 126//126 24//24
f 72//72 164//164 139//139
f 83//83 7//7 15//15
f 76//76 7//7 75//75
f 75//75 7//7 79//79
f 7//7 83//83 79//79
f 15//15 97//97 88//88
f 15//15 88//88 83//83
f 111//111 15//15 23//23
f 39//39 125//125 31//31
f 23//23 31//31 125//125
f 125//125 47//47 55//55
f 55//55 63//63 125//125
f 125//125 39//39 47//47
f 63//63 71//71 125//125
f 103//103 97//97 15//15
f 121//121 23//23 125//125
f 15//15 111//111 103//103
f 71//71 138//138 163//163
f 138//138 177//177 167//167
f 138//138 167//167 163//163
f 125//125 71//71 163//163
f 149//149 199//199 142//142
f 138//138 142//142 199//199
f 200//200 138//138 199//199
f 199//199 149//149 156//156
f 199//199 207//207 200//200
f 188//188 138//138 200//200
f 188//188 177//177 138//138
f 111//111 23//23 121//121
f 210//210 202//202 201//201
f 220//220 260//260 209//209
f 210//210 209//209 260//260
f 210//210 256//256 252//252
f 256//256 210//210 260//260
f 252//252 248//248 210//210
f 230//230 260//260 220//220
f 260//260 230//230 240//240
f 260//260 240//240 244//244
f 273//273 277//277 379//379
f 387//387 287//287 295//295
f 379//379 277//277 287//287
f 331//331 244//244 273//273
f 244//244 331//331 260//260
f 273//273 347//347 339//339
f 355//355 347//347 273//273
f 273//273 371//371 363//363
f 371//371 273//273 379//379
f 363//363 355//355 273//273
f 287//287 387//387 379//379
f 387//387 301//301 310//310
f 387//387 310//310 315//315
f 319//319 395//395 315//315
f 387//387 315//315 395//395
f 394//394 395//395 323//323
f 319//319 323//323 395//395
f 301//301 387//387 295//295
f 331//331 273//273 339//339
f 259//259 243//243 239//239
f 259//259 239//239 229//229
f 386//386 294//294 286//286
f 272//272 243//243 330//330
f 378//378 276//276 272//272
f 330//330 243//243 259//259
f 208//208 207//207 259//259
f 208//208 200//200 207//207
f 219//219 208//208 259//259
f 255//255 207//207 251//251
f 251//251 207//207 247//247
f 259//259 207//207 255//255
f 259//259 229//229 219//219
f 378//378 286//286 276//276
f 386//386 314//314 309//309
f 386//386 309//309 300//300
f 318//318 394//394 322//322
f 323//323 322//322 394//394
f 318//318 314//314 394//394
f 386//386 394//394 314//314
f 286//286 378//378 386//386
f 272//272 330//330 338//338
f 272//272 338//338 346//346
f 272//272 354//354 362//362
f 272//272 346//346 354//354
f 272//272 362//362 370//370
f 272//272 370//370 378//378
f 300//300 294//294 386//386
f 209//209 210//210 201//201
f 110//110 10//10 18//18
f 124//124 18//18 26//26
f 50//50 124//124 42//42
f 34//34 42//42 124//124
f 124//124 26//26 34//34
f 124//124 50//50 58//58
f 78//78 74//74 2//2
f 10//10 82//82 2//2
f 1//1 2//2 74//74
f 10//10 96//96 87//87
f 2//2 82//82 78//78
f 10//10 87//87 82//82
f 102//102 96//96 10//10
f 124//124 58//58 66//66
f 141//141 198//198 137//137
f 148//148 198//198 141//141
f 137//137 198//198 197//197
f 197//197 186//186 137//137
f 198//198 148//148 155//155
f 176//176 137//137 186//186
f 10//10 110//110 102//102
f 120//120 110//110 18//18
f 137//137 176//176 166//166
f 162//162 124//124 66//66
f 137//137 166//166 162//162
f 120//120 18//18 124//124
f 66//66 137//137 162//162
f 81//81 9//9 1//1
f 74//74 73//73 1//1
f 73//73 77//77 1//1
f 1//1 77//77 81//81
f 9//9 86//86 95//95
f 9//9 81//81 86//86
f 109//109 17//17 9//9
f 33//33 25//25 123//123
f 17//17 123//123 25//25
f 123//123 49//49 41//41
f 49//49 123//123 57//57
f 123//123 41//41 33//33
f 57//57 123//123 65//65
f 101//101 9//9 95//95
f 119//119 123//123 17//17
f 9//9 101//101 109//109
f 65//65 161//161 136//136
f 136//136 165//165 175//175
f 136//136 161//161 165//165
f 123//123 161//161 65//65
f 147//147 140//140 195//195
f 136//136 195//195 140//140
f 196//196 195//195 136//136
f 195//195 154//154 147//147
f 195//195 196//196 203//203
f 185//185 196//196 136//136
f 185//185 136//136 175//175
f 109//109 119//119 17//17
f 206//206 197//197 198//198
f 217//217 205//205 258//258
f 206//206 258//258 205//205
f 206//206 250//250 254//254
f 254//254 258//258 206//206
f 250//250 206//206 246//246
f 228//228 217//217 258//258
f 258//258 238//238 228//228
f 258//258 242//242 238//238
f 271//271 373//373 275//275
f 381//381 293//293 285//285
f 373//373 285//285 275//275
f 325//325 271//271 242//242
f 242//242 258//258 325//325
f 271//271 333//333 341//341
f 349//349 271//271 341//341
f 271//271 357//357 365//365
f 365//365 373//373 271//271
f 357//357 271//271 349//349
f 285//285 373//373 381//381
f 381//381 308//308 299//299
f 381//381 313//313 308//308
f 317//317 313//313 389//389
f 381//381 389//389 313//313
f 388//388 321//321 389//389
f 317//317 389//389 321//321
f 299//299 293//293 381//381
f 325//325 333//333 271//271
f 257//257 237//237 241//241
f 257//257 227//227 237//237
f 380//380 284//284 292//292
f 270//270 324//324 241//241
f 372//372 270//270 274//274
f 324//324 257//257 241//241
f 204//204 257//257 203//203
f 204//204 203//203 196//196
f 216//216 257//257 204//204
f 253//253 249//249 203//203
f 249//249 245//245 203//203
f 257//257 253//253 203//203
f 257//257 216//216 227//227
f 372//372 274//274 284//284
f 380//380 307//307 312//312
f 380//380 298//298 307//307
f 316//316 320//320 388//388
f 321//321 388//388 320//320
f 316//316 388//388 312//312
f 380//380 312//312 388//388
f 284//284 380//380 372//372
f 270//270 332//332 324//324
f 270//270 340//340 332//332
f 270//270 356//356 348//348
f 270//270 348//348 340//340
f 270//270 364//364 356//356
f 270//270 372//372 364//364
f 298//298 380//380 292//292
f 205//205 197//197 206//206
f 253//253 257//257 255//255
f 245//245 249//249 247//247
f 203//203 245//245 207//207
f 249//249 253//253 251//251
f 342//342 344//344 336//336
f 350//350 352//352 344//344
f 358//358 360//360 352//352
f 366//366 368//368 360//360
f 374//374 376//376 368//368
f 382//382 384//384 376//376
f 338//338 330//330 336//336
f 354//354 346//346 352//352
f 346//346 338//338 344//344
f 336//336 328//328 334//334
f 362//362 354//354 360//360
f 378//378 370//370 376//376
f 394//394 386//386 392//392
f 386//386 378//378 384//384
f 360//360 368//368 362//362
f 392//392 384//384 390//390
f 334//334 326//326 332//332
f 350//350 342//342 348//348
f 342//342 334//334 340//340
f 358//358 350//350 356//356
f 374//374 366//366 372//372
f 390//390 382//382 388//388
f 382//382 374//374 380//380
f 356//356 364//364 358//358
f 152//152 151//151 159//159
f 145//145 144//144 152//152
f 153//153 152//152 160//160
f 146//146 145//145 153//153
f 158//158 154//154 195//195
f 195//195 159//159 158//158
f 159//159 195//195 199//199
f 147//147 154//154 158//158
f 140//140 147//147 151//151
f 136//136 140//140 144//144
f 145//145 136//136 144//144
f 156//156 160//160 199//199
f 159//159 199//199 160//160
f 156//156 149//149 153//153
f 138//138 146//146 142//142
f 146//146 153//153 149//149
f 145//145 146//146 138//138
f 136//136 145//145 138//138
f 53//53 51//51 61//61
f 45//45 43//43 53//53
f 37//37 35//35 45//45
f 29//29 27//27 37//37
f 21//21 19//19 29//29
f 13//13 11//11 21//21
f 57//57 65//65 67//67
f 41//41 49//49 51//51
f 49//49 57//57 59//59
f 59//59 67//67 69//69
f 33//33 41//41 43//43
f 17//17 25//25 27//27
f 1//1 9//9 11//11
f 9//9 17//17 19//19
f 35//35 27//27 25//25
f 3//3 11//11 13//13
f 61//61 69//69 71//71
f 45//45 53//53 55//55
f 53//53 61//61 63//63
f 37//37 45//45 47//47
f 21//21 29//29 31//31
f 5//5 13//13 15//15
f 13//13 21//21 23//23
f 39//39 31//31 29//29
f 22//22 20//20 14//14
f 30//30 28//28 22//22
f 38//38 36//36 30//30
f 46//46 44//44 38//38
f 54//54 52//52 46//46
f 62//62 60//60 54//54
f 10//10 2//2 4//4
f 26//26 18//18 20//20
f 18//18 10//10 12//12
f 12//12 4//4 6//6
f 34//34 26//26 28//28
f 50//50 42//42 44//44
f 66//66 58//58 60//60
f 58//58 50//50 52//52
f 36//36 44//44 42//42
f 68//68 60//60 62//62
f 14//14 6//6 8//8
f 30//30 22//22 24//24
f 22//22 14//14 16//16
f 38//38 30//30 32//32
f 54//54 46//46 48//48
f 70//70 62//62 64//64
f 62//62 54//54 56//56
f 40//40 48//48 46//46
f 141//141 137//137 139//139
f 155//155 148//148 150//150
f 198//198 155//155 157//157
f 148//148 141//141 143//143
f 246//246 206//206 248//248
f 254//254 250//250 256//256
f 258//258 254//254 260//260
f 250//250 246//246 252//252
f 345//345 343//343 335//335
f 353//353 351//351 343//343
f 361//361 359//359 351//351
f 369//369 367//367 359//359
f 377//377 375//375 367//367
f 385//385 383//383 375//375
f 333//333 325//325 335//335
f 349//349 341//341 351//351
f 341//341 333//333 343//343
f 335//335 327//327 337//337
f 357//357 349//349 359//359
f 373//373 365//365 375//375
f 389//389 381//381 391//391
f 381//381 373//373 383//383
f 359//359 367//367 357//357
f 391//391 383//383 393//393
f 337//337 329//329 339//339
f 353//353 345//345 355//355
f 345//345 337//337 347//347
f 361//361 353//353 363//363
f 377//377 369//369 379//379
f 393//393 385//385 395//395
f 385//385 377//377 387//387
f 363//363 371//371 361//361
f 106//106 100//100 85//85
f 108//108 106//106 90//90
f 117//117 116//116 100//100
f 118//118 117//117 106//106
f 85//85 80//80 76//76
f 85//85 84//84 80//80
f 100//100 98//98 89//89
f 84//84 85//85 89//89
f 90//90 85//85 76//76
f 91//91 74//74 78//78
f 91//91 78//78 82//82
f 82//82 87//87 91//91
f 91//91 87//87 108//108
f 74//74 91//91 90//90
f 90//90 76//76 74//74
f 100//100 104//104 98//98
f 112//112 104//104 116//116
f 126//126 116//116 117//117
f 116//116 122//122 112//112
f 116//116 126//126 122//122
f 124//124 126//126 117//117
f 96//96 102//102 108//108
f 118//118 108//108 102//102
f 87//87 96//96 108//108
f 102//102 110//110 118//118
f 120//120 118//118 110//110
f 118//118 120//120 124//124
f 124//124 117//117 118//118
f 104//104 100//100 116//116
f 124//124 162//162 126//126
f 182//182 180//180 169//169
f 184//184 182//182 170//170
f 193//193 192//192 180//180
f 194//194 193//193 182//182
f 169//169 168//168 164//164
f 180//180 178//178 168//168
f 170//170 169//169 164//164
f 171//171 162//162 166//166
f 171//171 166//166 176//176
f 162//162 171//171 170//170
f 170//170 164//164 162//162
f 192//192 189//189 178//178
f 201//201 192//192 193//193
f 192//192 201//201 189//189
f 197//197 201//201 193//193
f 184//184 176//176 186//186
f 186//186 197//197 194//194
f 193//193 194//194 197//197
f 197//197 205//205 209//209
f 224//224 226//226 215//215
f 222//222 224//224 213//213
f 232//232 234//234 224//224
f 231//231 232//232 222//222
f 218//218 220//220 209//209
f 220//220 218//218 230//230
f 215//215 218//218 209//209
f 213//213 205//205 217//217
f 213//213 217//217 222//222
f 205//205 213//213 215//215
f 215//215 209//209 205//205
f 234//234 240//240 226//226
f 232//232 244//244 234//234
f 240//240 234//234 244//244
f 238//238 242//242 231//231
f 232//232 231//231 242//242
f 222//222 228//228 231//231
f 242//242 244//244 232//232
f 265//265 266//266 262//262
f 264//264 265//265 261//261
f 268//268 269//269 265//265
f 267//267 268//268 264//264
f 263//263 266//266 244//244
f 273//273 244//244 266//266
f 262//262 263//263 244//244
f 261//261 262//262 242//242
f 244//244 242//242 262//262
f 264//264 261//261 242//242
f 268//268 273//273 269//269
f 266//266 269//269 273//273
f 271//271 273//273 268//268
f 271//271 267//267 264//264
f 268//268 267//267 271//271
f 242//242 271//271 264//264
f 291//291 297//297 282//282
f 289//289 291//291 280//280
f 303//303 305//305 291//291
f 302//302 303//303 289//289
f 283//283 277//277 273//273
f 283//283 287//287 277//277
f 297//297 301//301 283//283
f 287//287 283//283 295//295
f 282//282 283//283 273//273
f 280//280 271//271 275//275
f 280//280 275//275 285//285
f 271//271 280//280 282//282
f 280//280 293//293 289//289
f 285//285 293//293 280//280
f 282//282 273//273 271//271
f 305//305 315//315 297//297
f 301//301 297//297 310//310
f 305//305 319//319 315//315
f 305//305 323//323 319//319
f 303//303 323//323 305//305
f 289//289 308//308 302//302
f 299//299 308//308 289//289
f 317//317 302//302 313//313
f 302//302 317//317 321//321
f 321//321 303//303 302//302
f 321//321 323//323 303//303
f 321//321 320//320 322//322
f 290//290 296//296 306//306
f 288//288 290//290 304//304
f 279//279 281//281 290//290
f 278//278 279//279 288//288
f 311//311 318//318 322//322
f 311//311 314//314 318//318
f 296//296 300//300 311//311
f 314//314 311//311 309//309
f 306//306 311//311 322//322
f 304//304 320//320 316//316
f 304//304 316//316 312//312
f 312//312 307//307 304//304
f 304//304 307//307 288//288
f 320//320 304//304 306//306
f 306//306 322//322 320//320
f 296//296 294//294 300//300
f 286//286 294//294 281//281
f 272//272 281//281 279//279
f 281//281 276//276 286//286
f 281//281 272//272 276//276
f 270//270 272//272 279//279
f 298//298 292//292 288//288
f 278//278 288//288 292//292
f 307//307 298//298 288//288
f 292//292 284//284 278//278
f 274//274 278//278 284//284
f 278//278 274//274 270//270
f 270//270 279//279 278//278
f 294//294 296//296 281//281
f 270//270 241//241 243//243
f 223//223 225//225 235//235
f 221//221 223//223 233//233
f 212//212 214//214 223//223
f 211//211 212//212 221//221
f 236//236 239//239 243//243
f 225//225 229//229 236//236
f 235//235 236//236 243//243
f 233//233 241//241 237//237
f 233//233 237//237 221//221
f 241//241 233//233 235//235
f 235//235 243//243 241//241
f 214//214 219//219 225//225
f 208//208 214//214 212//212
f 214//214 208//208 219//219
f 204//204 208//208 212//212
f 221//221 227//227 211//211
f 216//216 204//204 211//211
f 212//212 211//211 204//204
f 204//204 196//196 200//200
f 181//181 179//179 187//187
f 183//183 181//181 190//190
f 173//173 172//172 179//179
f 174//174 173//173 181//181
f 187//187 188//188 200//200
f 188//188 187//187 179//179
f 190//190 187//187 200//200
f 191//191 196//196 185//185
f 191//191 185//185 175//175
f 196//196 191//191 190//190
f 190//190 200//200 196//196
f 172//172 167//167 177//177
f 173//173 163//163 172//172
f 167//167 172//172 163//163
f 165//165 161//161 174//174
f 173//173 174//174 161//161
f 183//183 175//175 165//165
f 161//161 163//163 173//173
f 131//131 132//132 135//135
f 130//130 131//131 134//134
f 128//128 129//129 132//132
f 127//127 128//128 131//131
f 135//135 132//132 163//163
f 125//125 163//163 132//132
f 134//134 135//135 163//163
f 133//133 134//134 161//161
f 163//163 161//161 134//134
f 130//130 133//133 161//161
f 128//128 125//125 129//129
f 132//132 129//129 125//125
f 123//123 125//125 128//128
f 123//123 127//127 130//130
f 128//128 127//127 123//123
f 161//161 123//123 130//130
f 105//105 99//99 113//113
f 107//107 105//105 114//114
f 93//93 92//92 99//99
f 94//94 93//93 105//105
f 113//113 121//121 125//125
f 113//113 111//111 121//121
f 99//99 97//97 103//103
f 111//111 113//113 103//103
f 114//114 113//113 125//125
f 115//115 123//123 119//119
f 115//115 119//119 109//109
f 123//123 115//115 114//114
f 115//115 101//101 95//95
f 109//109 101//101 115//115
f 114//114 125//125 123//123
f 92//92 83//83 88//88
f 97//97 99//99 88//88
f 92//92 79//79 83//83
f 92//92 75//75 79//79
f 93//93 75//75 92//92
f 107//107 86//86 81//81
f 95//95 86//86 107//107
f 77//77 94//94 81//81
f 94//94 77//77 73//73
f 73//73 93//93 94//94
f 73//73 75//75 93//93
f 73//73 74//74 75//75
f 203//203 199//199 195//195
f 138//138 69//69 67//67
f 3//3 4//4 2//2
f 4//4 3//3 5//5
f 7//7 8//8 6//6
f 198//198 210//210 206//206
f 258//258 329//329 327//327
f 390//390 389//389 391//391
f 394//394 393//393 395//395
f 392//392 391//391 393//393
f 257//257 259//259 255//255
f 249//249 251//251 247//247
f 245//245 247//247 207//207
f 253//253 255//255 251//251
f 342//342 336//336 334//334
f 350//350 344//344 342//342
f 358//358 352//352 350//350
f 366//366 360//360 358//358
f 374//374 368//368 366//366
f 382//382 376//376 374//374
f 330//330 328//328 336//336
f 346//346 344//344 352//352
f 338//338 336//336 344//344
f 328//328 326//326 334//334
f 354//354 352//352 360//360
f 370//370 368//368 376//376
f 386//386 384//384 392//392
f 378//378 376//376 384//384
f 368//368 370//370 362//362
f 384//384 382//382 390//390
f 326//326 324//324 332//332
f 342//342 340//340 348//348
f 334//334 332//332 340//340
f 350//350 348//348 356//356
f 366//366 364//364 372//372
f 382//382 380//380 388//388
f 374//374 372//372 380//380
f 364//364 366//366 358//358
f 151//151 158//158 159//159
f 144//144 151//151 152//152
f 152//152 159//159 160//160
f 145//145 152//152 153//153
f 147//147 158//158 151//151
f 140//140 151//151 144//144
f 156//156 153//153 160//160
f 146//146 149//149 142//142
f 51//51 59//59 61//61
f 43//43 51//51 53//53
f 35//35 43//43 45//45
f 27//27 35//35 37//37
f 19//19 27//27 29//29
f 11//11 19//19 21//21
f 57//57 67//67 59//59
f 41//41 51//51 43//43
f 49//49 59//59 51//51
f 59//59 69//69 61//61
f 33//33 43//43 35//35
f 17//17 27//27 19//19
f 1//1 11//11 3//3
f 9//9 19//19 11//11
f 35//35 25//25 33//33
f 3//3 13//13 5//5
f 61//61 71//71 63//63
f 45//45 55//55 47//47
f 53//53 63//63 55//55
f 37//37 47//47 39//39
f 21//21 31//31 23//23
f 5//5 15//15 7//7
f 13//13 23//23 15//15
f 39//39 29//29 37//37
f 20//20 12//12 14//14
f 28//28 20//20 22//22
f 36//36 28//28 30//30
f 44//44 36//36 38//38
f 52//52 44//44 46//46
f 60//60 52//52 54//54
f 10//10 4//4 12//12
f 26//26 20//20 28//28
f 18//18 12//12 20//20
f 12//12 6//6 14//14
f 34//34 28//28 36//36
f 50//50 44//44 52//52
f 66//66 60//60 68//68
f 58//58 52//52 60//60
f 36//36 42//42 34//34
f 68//68 62//62 70//70
f 14//14 8//8 16//16
f 30//30 24//24 32//32
f 22//22 16//16 24//24
f 38//38 32//32 40//40
f 54//54 48//48 56//56
f 70//70 64//64 72//72
f 62//62 56//56 64//64
f 40//40 46//46 38//38
f 141//141 139//139 143//143
f 155//155 150//150 157//157
f 198//198 157//157 202//202
f 148//148 143//143 150//150
f 206//206 210//210 248//248
f 250//250 252//252 256//256
f 254//254 256//256 260//260
f 246//246 248//248 252//252
f 345//345 335//335 337//337
f 353//353 343//343 345//345
f 361//361 351//351 353//353
f 369//369 359//359 361//361
f 377//377 367//367 369//369
f 385//385 375//375 377//377
f 325//325 327//327 335//335
f 341//341 343//343 351//351
f 333//333 335//335 343//343
f 327//327 329//329 337//337
f 349//349 351//351 359//359
f 365//365 367//367 375//375
f 381//381 383//383 391//391
f 373//373 375//375 383//383
f 367//367 365//365 357//357
f 383//383 385//385 393//393
f 329//329 331//331 339//339
f 345//345 347//347 355//355
f 337//337 339//339 347//347
f 353//353 355//355 363//363
f 369//369 371//371 379//379
f 385//385 387//387 395//395
f 377//377 379//379 387//387
f 371//371 369//369 361//361
f 106//106 85//85 90//90
f 108//108 90//90 91//91
f 117//117 100//100 106//106
f 118//118 106//106 108//108
f 100//100 89//89 85//85
f 162//162 164//164 126//126
f 182//182 169//169 170//170
f 184//184 170//170 171//171
f 193//193 180//180 182//182
f 194//194 182//182 184//184
f 180//180 168//168 169//169
f 171//171 176//176 184//184
f 192//192 178//178 180//180
f 184//184 186//186 194//194
f 197//197 209//209 201//201
f 226//226 218//218 215//215
f 224//224 215//215 213//213
f 234//234 226//226 224//224
f 232//232 224//224 222//222
f 218//218 226//226 230//230
f 217//217 228//228 222//222
f 240//240 230//230 226//226
f 228//228 238//238 231//231
f 266//266 263//263 262//262
f 265//265 262//262 261//261
f 269//269 266//266 265//265
f 268//268 265//265 264//264
f 297//297 283//283 282//282
f 291//291 282//282 280//280
f 305//305 297//297 291//291
f 303//303 291//291 289//289
f 301//301 295//295 283//283
f 293//293 299//299 289//289
f 315//315 310//310 297//297
f 308//308 313//313 302//302
f 321//321 322//322 323//323
f 296//296 311//311 306//306
f 290//290 306//306 304//304
f 281//281 296//296 290//290
f 279//279 290//290 288//288
f 300//300 309//309 311//311
f 270//270 243//243 272//272
f 225//225 236//236 235//235
f 223//223 235//235 233//233
f 214//214 225//225 223//223
f 212//212 223//223 221//221
f 229//229 239//239 236//236
f 237//237 227//227 221//221
f 219//219 229//229 225//225
f 227//227 216//216 211//211
f 204//204 200//200 208//208
f 181//181 187//187 190//190
f 183//183 190//190 191//191
f 173//173 179//179 181//181
f 174//174 181//181 183//183
f 188//188 179//179 177//177
f 191//191 175//175 183//183
f 172//172 177//177 179//179
f 183//183 165//165 174//174
f 131//131 135//135 134//134
f 130//130 134//134 133//133
f 128//128 132//132 131//131
f 127//127 131//131 130//130
f 105//105 113//113 114//114
f 107//107 114//114 115//115
f 93//93 99//99 105//105
f 94//94 105//105 107//107
f 99//99 103//103 113//113
f 115//115 95//95 107//107
f 92//92 88//88 99//99
f 107//107 81//81 94//94
f 74//74 76//76 75//75